<?xml version="1.0" encoding="utf-8" standalone="no"?>
<!DOCTYPE svg PUBLIC "-//W3C//DTD SVG 1.1//EN"
  "http://www.w3.org/Graphics/SVG/1.1/DTD/svg11.dtd">
<svg xmlns:xlink="http://www.w3.org/1999/xlink" width="978.876pt" height="624.406223pt" viewBox="0 0 978.876 624.406223" xmlns="http://www.w3.org/2000/svg" version="1.1">
 <metadata>
  <rdf:RDF xmlns:dc="http://purl.org/dc/elements/1.1/" xmlns:cc="http://creativecommons.org/ns#" xmlns:rdf="http://www.w3.org/1999/02/22-rdf-syntax-ns#">
   <cc:Work>
    <dc:type rdf:resource="http://purl.org/dc/dcmitype/StillImage"/>
    <dc:date>2023-05-11T17:16:15.737782</dc:date>
    <dc:format>image/svg+xml</dc:format>
    <dc:creator>
     <cc:Agent>
      <dc:title>Matplotlib v3.6.2, https://matplotlib.org/</dc:title>
     </cc:Agent>
    </dc:creator>
   </cc:Work>
  </rdf:RDF>
 </metadata>
 <defs>
  <style type="text/css">*{stroke-linejoin: round; stroke-linecap: butt}</style>
 </defs>
 <g id="figure_1">
  <g id="patch_1">
   <path d="M 0 624.406223 
L 978.876 624.406223 
L 978.876 0 
L 0 0 
z
" style="fill: #ffffff"/>
  </g>
  <g id="axes_1">
   <g id="patch_2">
    <path d="M 78.876 471.309 
L 484.694182 471.309 
L 484.694182 27.789 
L 78.876 27.789 
z
" style="fill: #ffffff"/>
   </g>
   <g id="patch_3">
    <path d="M 85.639636 471.309 
L 112.694182 471.309 
L 112.694182 108.6427 
L 85.639636 108.6427 
z
" clip-path="url(#pba972aedba)" style="fill: #3274a1"/>
   </g>
   <g id="patch_4">
    <path d="M 153.276 471.309 
L 180.330545 471.309 
L 180.330545 100.109375 
L 153.276 100.109375 
z
" clip-path="url(#pba972aedba)" style="fill: #3274a1"/>
   </g>
   <g id="patch_5">
    <path d="M 220.912364 471.309 
L 247.966909 471.309 
L 247.966909 74.509401 
L 220.912364 74.509401 
z
" clip-path="url(#pba972aedba)" style="fill: #3274a1"/>
   </g>
   <g id="patch_6">
    <path d="M 288.548727 471.309 
L 315.603273 471.309 
L 315.603273 83.042726 
L 288.548727 83.042726 
z
" clip-path="url(#pba972aedba)" style="fill: #3274a1"/>
   </g>
   <g id="patch_7">
    <path d="M 356.185091 471.309 
L 383.239636 471.309 
L 383.239636 108.642273 
L 356.185091 108.642273 
z
" clip-path="url(#pba972aedba)" style="fill: #3274a1"/>
   </g>
   <g id="patch_8">
    <path d="M 423.821455 471.309 
L 450.876 471.309 
L 450.876 125.709349 
L 423.821455 125.709349 
z
" clip-path="url(#pba972aedba)" style="fill: #3274a1"/>
   </g>
   <g id="patch_9">
    <path d="M 112.694182 471.309 
L 139.748727 471.309 
L 139.748727 48.909427 
L 112.694182 48.909427 
z
" clip-path="url(#pba972aedba)" style="fill: #e1812c"/>
   </g>
   <g id="patch_10">
    <path d="M 180.330545 471.309 
L 207.385091 471.309 
L 207.385091 181.17596 
L 180.330545 181.17596 
z
" clip-path="url(#pba972aedba)" style="fill: #e1812c"/>
   </g>
   <g id="patch_11">
    <path d="M 247.966909 471.309 
L 275.021455 471.309 
L 275.021455 48.909 
L 247.966909 48.909 
z
" clip-path="url(#pba972aedba)" style="fill: #e1812c"/>
   </g>
   <g id="patch_12">
    <path d="M 315.603273 471.309 
L 342.657818 471.309 
L 342.657818 164.10931 
L 315.603273 164.10931 
z
" clip-path="url(#pba972aedba)" style="fill: #e1812c"/>
   </g>
   <g id="patch_13">
    <path d="M 383.239636 471.309 
L 410.294182 471.309 
L 410.294182 164.108884 
L 383.239636 164.108884 
z
" clip-path="url(#pba972aedba)" style="fill: #e1812c"/>
   </g>
   <g id="patch_14">
    <path d="M 450.876 471.309 
L 477.930545 471.309 
L 477.930545 219.575921 
L 450.876 219.575921 
z
" clip-path="url(#pba972aedba)" style="fill: #e1812c"/>
   </g>
   <g id="matplotlib.axis_1">
    <g id="xtick_1">
     <g id="line2d_1">
      <defs>
       <path id="m9380d9392a" d="M 0 0 
L 0 12 
" style="stroke: #000000; stroke-width: 2.5"/>
      </defs>
      <g>
       <use xlink:href="#m9380d9392a" x="112.694182" y="471.309" style="stroke: #000000; stroke-width: 2.5"/>
      </g>
     </g>
     <g id="text_1">
      <!-- OHE_DI_FI -->
      <g transform="translate(84.071472 559.593269) rotate(-45) scale(0.176 -0.176)">
       <defs>
        <path id="DejaVuSans-4f" d="M 2522 4238 
Q 1834 4238 1429 3725 
Q 1025 3213 1025 2328 
Q 1025 1447 1429 934 
Q 1834 422 2522 422 
Q 3209 422 3611 934 
Q 4013 1447 4013 2328 
Q 4013 3213 3611 3725 
Q 3209 4238 2522 4238 
z
M 2522 4750 
Q 3503 4750 4090 4092 
Q 4678 3434 4678 2328 
Q 4678 1225 4090 567 
Q 3503 -91 2522 -91 
Q 1538 -91 948 565 
Q 359 1222 359 2328 
Q 359 3434 948 4092 
Q 1538 4750 2522 4750 
z
" transform="scale(0.015625)"/>
        <path id="DejaVuSans-48" d="M 628 4666 
L 1259 4666 
L 1259 2753 
L 3553 2753 
L 3553 4666 
L 4184 4666 
L 4184 0 
L 3553 0 
L 3553 2222 
L 1259 2222 
L 1259 0 
L 628 0 
L 628 4666 
z
" transform="scale(0.015625)"/>
        <path id="DejaVuSans-45" d="M 628 4666 
L 3578 4666 
L 3578 4134 
L 1259 4134 
L 1259 2753 
L 3481 2753 
L 3481 2222 
L 1259 2222 
L 1259 531 
L 3634 531 
L 3634 0 
L 628 0 
L 628 4666 
z
" transform="scale(0.015625)"/>
        <path id="DejaVuSans-5f" d="M 3263 -1063 
L 3263 -1509 
L -63 -1509 
L -63 -1063 
L 3263 -1063 
z
" transform="scale(0.015625)"/>
        <path id="DejaVuSans-44" d="M 1259 4147 
L 1259 519 
L 2022 519 
Q 2988 519 3436 956 
Q 3884 1394 3884 2338 
Q 3884 3275 3436 3711 
Q 2988 4147 2022 4147 
L 1259 4147 
z
M 628 4666 
L 1925 4666 
Q 3281 4666 3915 4102 
Q 4550 3538 4550 2338 
Q 4550 1131 3912 565 
Q 3275 0 1925 0 
L 628 0 
L 628 4666 
z
" transform="scale(0.015625)"/>
        <path id="DejaVuSans-49" d="M 628 4666 
L 1259 4666 
L 1259 0 
L 628 0 
L 628 4666 
z
" transform="scale(0.015625)"/>
        <path id="DejaVuSans-46" d="M 628 4666 
L 3309 4666 
L 3309 4134 
L 1259 4134 
L 1259 2759 
L 3109 2759 
L 3109 2228 
L 1259 2228 
L 1259 0 
L 628 0 
L 628 4666 
z
" transform="scale(0.015625)"/>
       </defs>
       <use xlink:href="#DejaVuSans-4f"/>
       <use xlink:href="#DejaVuSans-48" x="78.710938"/>
       <use xlink:href="#DejaVuSans-45" x="153.90625"/>
       <use xlink:href="#DejaVuSans-5f" x="217.089844"/>
       <use xlink:href="#DejaVuSans-44" x="267.089844"/>
       <use xlink:href="#DejaVuSans-49" x="344.091797"/>
       <use xlink:href="#DejaVuSans-5f" x="373.583984"/>
       <use xlink:href="#DejaVuSans-46" x="423.583984"/>
       <use xlink:href="#DejaVuSans-49" x="481.103516"/>
      </g>
     </g>
    </g>
    <g id="xtick_2">
     <g id="line2d_2">
      <g>
       <use xlink:href="#m9380d9392a" x="180.330545" y="471.309" style="stroke: #000000; stroke-width: 2.5"/>
      </g>
     </g>
     <g id="text_2">
      <!-- CDT_DI_OHE -->
      <g transform="translate(144.185368 574.638203) rotate(-45) scale(0.176 -0.176)">
       <defs>
        <path id="DejaVuSans-43" d="M 4122 4306 
L 4122 3641 
Q 3803 3938 3442 4084 
Q 3081 4231 2675 4231 
Q 1875 4231 1450 3742 
Q 1025 3253 1025 2328 
Q 1025 1406 1450 917 
Q 1875 428 2675 428 
Q 3081 428 3442 575 
Q 3803 722 4122 1019 
L 4122 359 
Q 3791 134 3420 21 
Q 3050 -91 2638 -91 
Q 1578 -91 968 557 
Q 359 1206 359 2328 
Q 359 3453 968 4101 
Q 1578 4750 2638 4750 
Q 3056 4750 3426 4639 
Q 3797 4528 4122 4306 
z
" transform="scale(0.015625)"/>
        <path id="DejaVuSans-54" d="M -19 4666 
L 3928 4666 
L 3928 4134 
L 2272 4134 
L 2272 0 
L 1638 0 
L 1638 4134 
L -19 4134 
L -19 4666 
z
" transform="scale(0.015625)"/>
       </defs>
       <use xlink:href="#DejaVuSans-43"/>
       <use xlink:href="#DejaVuSans-44" x="69.824219"/>
       <use xlink:href="#DejaVuSans-54" x="146.826172"/>
       <use xlink:href="#DejaVuSans-5f" x="207.910156"/>
       <use xlink:href="#DejaVuSans-44" x="257.910156"/>
       <use xlink:href="#DejaVuSans-49" x="334.912109"/>
       <use xlink:href="#DejaVuSans-5f" x="364.404297"/>
       <use xlink:href="#DejaVuSans-4f" x="414.404297"/>
       <use xlink:href="#DejaVuSans-48" x="493.115234"/>
       <use xlink:href="#DejaVuSans-45" x="568.310547"/>
      </g>
     </g>
    </g>
    <g id="xtick_3">
     <g id="line2d_3">
      <g>
       <use xlink:href="#m9380d9392a" x="247.966909" y="471.309" style="stroke: #000000; stroke-width: 2.5"/>
      </g>
     </g>
     <g id="text_3">
      <!-- OHE_DI -->
      <g transform="translate(227.87005 542.541566) rotate(-45) scale(0.176 -0.176)">
       <use xlink:href="#DejaVuSans-4f"/>
       <use xlink:href="#DejaVuSans-48" x="78.710938"/>
       <use xlink:href="#DejaVuSans-45" x="153.90625"/>
       <use xlink:href="#DejaVuSans-5f" x="217.089844"/>
       <use xlink:href="#DejaVuSans-44" x="267.089844"/>
       <use xlink:href="#DejaVuSans-49" x="344.091797"/>
      </g>
     </g>
    </g>
    <g id="xtick_4">
     <g id="line2d_4">
      <g>
       <use xlink:href="#m9380d9392a" x="315.603273" y="471.309" style="stroke: #000000; stroke-width: 2.5"/>
      </g>
     </g>
     <g id="text_4">
      <!-- CDT_DI_FI_OHE -->
      <g transform="translate(270.932244 591.689906) rotate(-45) scale(0.176 -0.176)">
       <use xlink:href="#DejaVuSans-43"/>
       <use xlink:href="#DejaVuSans-44" x="69.824219"/>
       <use xlink:href="#DejaVuSans-54" x="146.826172"/>
       <use xlink:href="#DejaVuSans-5f" x="207.910156"/>
       <use xlink:href="#DejaVuSans-44" x="257.910156"/>
       <use xlink:href="#DejaVuSans-49" x="334.912109"/>
       <use xlink:href="#DejaVuSans-5f" x="364.404297"/>
       <use xlink:href="#DejaVuSans-46" x="414.404297"/>
       <use xlink:href="#DejaVuSans-49" x="471.923828"/>
       <use xlink:href="#DejaVuSans-5f" x="501.416016"/>
       <use xlink:href="#DejaVuSans-4f" x="551.416016"/>
       <use xlink:href="#DejaVuSans-48" x="630.126953"/>
       <use xlink:href="#DejaVuSans-45" x="705.322266"/>
      </g>
     </g>
    </g>
    <g id="xtick_5">
     <g id="line2d_5">
      <g>
       <use xlink:href="#m9380d9392a" x="383.239636" y="471.309" style="stroke: #000000; stroke-width: 2.5"/>
      </g>
     </g>
     <g id="text_5">
      <!-- CDT_DI -->
      <g transform="translate(363.715446 541.396229) rotate(-45) scale(0.176 -0.176)">
       <use xlink:href="#DejaVuSans-43"/>
       <use xlink:href="#DejaVuSans-44" x="69.824219"/>
       <use xlink:href="#DejaVuSans-54" x="146.826172"/>
       <use xlink:href="#DejaVuSans-5f" x="207.910156"/>
       <use xlink:href="#DejaVuSans-44" x="257.910156"/>
       <use xlink:href="#DejaVuSans-49" x="334.912109"/>
      </g>
     </g>
    </g>
    <g id="xtick_6">
     <g id="line2d_6">
      <g>
       <use xlink:href="#m9380d9392a" x="450.876" y="471.309" style="stroke: #000000; stroke-width: 2.5"/>
      </g>
     </g>
     <g id="text_6">
      <!-- CDT_DI_FI -->
      <g transform="translate(422.825958 558.447933) rotate(-45) scale(0.176 -0.176)">
       <use xlink:href="#DejaVuSans-43"/>
       <use xlink:href="#DejaVuSans-44" x="69.824219"/>
       <use xlink:href="#DejaVuSans-54" x="146.826172"/>
       <use xlink:href="#DejaVuSans-5f" x="207.910156"/>
       <use xlink:href="#DejaVuSans-44" x="257.910156"/>
       <use xlink:href="#DejaVuSans-49" x="334.912109"/>
       <use xlink:href="#DejaVuSans-5f" x="364.404297"/>
       <use xlink:href="#DejaVuSans-46" x="414.404297"/>
       <use xlink:href="#DejaVuSans-49" x="471.923828"/>
      </g>
     </g>
    </g>
    <g id="text_7">
     <!-- Approach -->
     <g transform="translate(236.179091 613.213223) scale(0.192 -0.192)">
      <defs>
       <path id="DejaVuSans-41" d="M 2188 4044 
L 1331 1722 
L 3047 1722 
L 2188 4044 
z
M 1831 4666 
L 2547 4666 
L 4325 0 
L 3669 0 
L 3244 1197 
L 1141 1197 
L 716 0 
L 50 0 
L 1831 4666 
z
" transform="scale(0.015625)"/>
       <path id="DejaVuSans-70" d="M 1159 525 
L 1159 -1331 
L 581 -1331 
L 581 3500 
L 1159 3500 
L 1159 2969 
Q 1341 3281 1617 3432 
Q 1894 3584 2278 3584 
Q 2916 3584 3314 3078 
Q 3713 2572 3713 1747 
Q 3713 922 3314 415 
Q 2916 -91 2278 -91 
Q 1894 -91 1617 61 
Q 1341 213 1159 525 
z
M 3116 1747 
Q 3116 2381 2855 2742 
Q 2594 3103 2138 3103 
Q 1681 3103 1420 2742 
Q 1159 2381 1159 1747 
Q 1159 1113 1420 752 
Q 1681 391 2138 391 
Q 2594 391 2855 752 
Q 3116 1113 3116 1747 
z
" transform="scale(0.015625)"/>
       <path id="DejaVuSans-72" d="M 2631 2963 
Q 2534 3019 2420 3045 
Q 2306 3072 2169 3072 
Q 1681 3072 1420 2755 
Q 1159 2438 1159 1844 
L 1159 0 
L 581 0 
L 581 3500 
L 1159 3500 
L 1159 2956 
Q 1341 3275 1631 3429 
Q 1922 3584 2338 3584 
Q 2397 3584 2469 3576 
Q 2541 3569 2628 3553 
L 2631 2963 
z
" transform="scale(0.015625)"/>
       <path id="DejaVuSans-6f" d="M 1959 3097 
Q 1497 3097 1228 2736 
Q 959 2375 959 1747 
Q 959 1119 1226 758 
Q 1494 397 1959 397 
Q 2419 397 2687 759 
Q 2956 1122 2956 1747 
Q 2956 2369 2687 2733 
Q 2419 3097 1959 3097 
z
M 1959 3584 
Q 2709 3584 3137 3096 
Q 3566 2609 3566 1747 
Q 3566 888 3137 398 
Q 2709 -91 1959 -91 
Q 1206 -91 779 398 
Q 353 888 353 1747 
Q 353 2609 779 3096 
Q 1206 3584 1959 3584 
z
" transform="scale(0.015625)"/>
       <path id="DejaVuSans-61" d="M 2194 1759 
Q 1497 1759 1228 1600 
Q 959 1441 959 1056 
Q 959 750 1161 570 
Q 1363 391 1709 391 
Q 2188 391 2477 730 
Q 2766 1069 2766 1631 
L 2766 1759 
L 2194 1759 
z
M 3341 1997 
L 3341 0 
L 2766 0 
L 2766 531 
Q 2569 213 2275 61 
Q 1981 -91 1556 -91 
Q 1019 -91 701 211 
Q 384 513 384 1019 
Q 384 1609 779 1909 
Q 1175 2209 1959 2209 
L 2766 2209 
L 2766 2266 
Q 2766 2663 2505 2880 
Q 2244 3097 1772 3097 
Q 1472 3097 1187 3025 
Q 903 2953 641 2809 
L 641 3341 
Q 956 3463 1253 3523 
Q 1550 3584 1831 3584 
Q 2591 3584 2966 3190 
Q 3341 2797 3341 1997 
z
" transform="scale(0.015625)"/>
       <path id="DejaVuSans-63" d="M 3122 3366 
L 3122 2828 
Q 2878 2963 2633 3030 
Q 2388 3097 2138 3097 
Q 1578 3097 1268 2742 
Q 959 2388 959 1747 
Q 959 1106 1268 751 
Q 1578 397 2138 397 
Q 2388 397 2633 464 
Q 2878 531 3122 666 
L 3122 134 
Q 2881 22 2623 -34 
Q 2366 -91 2075 -91 
Q 1284 -91 818 406 
Q 353 903 353 1747 
Q 353 2603 823 3093 
Q 1294 3584 2113 3584 
Q 2378 3584 2631 3529 
Q 2884 3475 3122 3366 
z
" transform="scale(0.015625)"/>
       <path id="DejaVuSans-68" d="M 3513 2113 
L 3513 0 
L 2938 0 
L 2938 2094 
Q 2938 2591 2744 2837 
Q 2550 3084 2163 3084 
Q 1697 3084 1428 2787 
Q 1159 2491 1159 1978 
L 1159 0 
L 581 0 
L 581 4863 
L 1159 4863 
L 1159 2956 
Q 1366 3272 1645 3428 
Q 1925 3584 2291 3584 
Q 2894 3584 3203 3211 
Q 3513 2838 3513 2113 
z
" transform="scale(0.015625)"/>
      </defs>
      <use xlink:href="#DejaVuSans-41"/>
      <use xlink:href="#DejaVuSans-70" x="68.408203"/>
      <use xlink:href="#DejaVuSans-70" x="131.884766"/>
      <use xlink:href="#DejaVuSans-72" x="195.361328"/>
      <use xlink:href="#DejaVuSans-6f" x="234.224609"/>
      <use xlink:href="#DejaVuSans-61" x="295.40625"/>
      <use xlink:href="#DejaVuSans-63" x="356.685547"/>
      <use xlink:href="#DejaVuSans-68" x="411.666016"/>
     </g>
    </g>
   </g>
   <g id="matplotlib.axis_2">
    <g id="ytick_1">
     <g id="line2d_7">
      <defs>
       <path id="mbdc2180225" d="M 0 0 
L -12 0 
" style="stroke: #000000; stroke-width: 2.5"/>
      </defs>
      <g>
       <use xlink:href="#mbdc2180225" x="78.876" y="471.309" style="stroke: #000000; stroke-width: 2.5"/>
      </g>
     </g>
     <g id="text_8">
      <!-- 0 -->
      <g transform="translate(52.178 477.995625) scale(0.176 -0.176)">
       <defs>
        <path id="DejaVuSans-30" d="M 2034 4250 
Q 1547 4250 1301 3770 
Q 1056 3291 1056 2328 
Q 1056 1369 1301 889 
Q 1547 409 2034 409 
Q 2525 409 2770 889 
Q 3016 1369 3016 2328 
Q 3016 3291 2770 3770 
Q 2525 4250 2034 4250 
z
M 2034 4750 
Q 2819 4750 3233 4129 
Q 3647 3509 3647 2328 
Q 3647 1150 3233 529 
Q 2819 -91 2034 -91 
Q 1250 -91 836 529 
Q 422 1150 422 2328 
Q 422 3509 836 4129 
Q 1250 4750 2034 4750 
z
" transform="scale(0.015625)"/>
       </defs>
       <use xlink:href="#DejaVuSans-30"/>
      </g>
     </g>
    </g>
    <g id="ytick_2">
     <g id="line2d_8">
      <g>
       <use xlink:href="#mbdc2180225" x="78.876" y="385.975753" style="stroke: #000000; stroke-width: 2.5"/>
      </g>
     </g>
     <g id="text_9">
      <!-- 20 -->
      <g transform="translate(40.98 392.662378) scale(0.176 -0.176)">
       <defs>
        <path id="DejaVuSans-32" d="M 1228 531 
L 3431 531 
L 3431 0 
L 469 0 
L 469 531 
Q 828 903 1448 1529 
Q 2069 2156 2228 2338 
Q 2531 2678 2651 2914 
Q 2772 3150 2772 3378 
Q 2772 3750 2511 3984 
Q 2250 4219 1831 4219 
Q 1534 4219 1204 4116 
Q 875 4013 500 3803 
L 500 4441 
Q 881 4594 1212 4672 
Q 1544 4750 1819 4750 
Q 2544 4750 2975 4387 
Q 3406 4025 3406 3419 
Q 3406 3131 3298 2873 
Q 3191 2616 2906 2266 
Q 2828 2175 2409 1742 
Q 1991 1309 1228 531 
z
" transform="scale(0.015625)"/>
       </defs>
       <use xlink:href="#DejaVuSans-32"/>
       <use xlink:href="#DejaVuSans-30" x="63.623047"/>
      </g>
     </g>
    </g>
    <g id="ytick_3">
     <g id="line2d_9">
      <g>
       <use xlink:href="#mbdc2180225" x="78.876" y="300.642506" style="stroke: #000000; stroke-width: 2.5"/>
      </g>
     </g>
     <g id="text_10">
      <!-- 40 -->
      <g transform="translate(40.98 307.329131) scale(0.176 -0.176)">
       <defs>
        <path id="DejaVuSans-34" d="M 2419 4116 
L 825 1625 
L 2419 1625 
L 2419 4116 
z
M 2253 4666 
L 3047 4666 
L 3047 1625 
L 3713 1625 
L 3713 1100 
L 3047 1100 
L 3047 0 
L 2419 0 
L 2419 1100 
L 313 1100 
L 313 1709 
L 2253 4666 
z
" transform="scale(0.015625)"/>
       </defs>
       <use xlink:href="#DejaVuSans-34"/>
       <use xlink:href="#DejaVuSans-30" x="63.623047"/>
      </g>
     </g>
    </g>
    <g id="ytick_4">
     <g id="line2d_10">
      <g>
       <use xlink:href="#mbdc2180225" x="78.876" y="215.309259" style="stroke: #000000; stroke-width: 2.5"/>
      </g>
     </g>
     <g id="text_11">
      <!-- 60 -->
      <g transform="translate(40.98 221.995884) scale(0.176 -0.176)">
       <defs>
        <path id="DejaVuSans-36" d="M 2113 2584 
Q 1688 2584 1439 2293 
Q 1191 2003 1191 1497 
Q 1191 994 1439 701 
Q 1688 409 2113 409 
Q 2538 409 2786 701 
Q 3034 994 3034 1497 
Q 3034 2003 2786 2293 
Q 2538 2584 2113 2584 
z
M 3366 4563 
L 3366 3988 
Q 3128 4100 2886 4159 
Q 2644 4219 2406 4219 
Q 1781 4219 1451 3797 
Q 1122 3375 1075 2522 
Q 1259 2794 1537 2939 
Q 1816 3084 2150 3084 
Q 2853 3084 3261 2657 
Q 3669 2231 3669 1497 
Q 3669 778 3244 343 
Q 2819 -91 2113 -91 
Q 1303 -91 875 529 
Q 447 1150 447 2328 
Q 447 3434 972 4092 
Q 1497 4750 2381 4750 
Q 2619 4750 2861 4703 
Q 3103 4656 3366 4563 
z
" transform="scale(0.015625)"/>
       </defs>
       <use xlink:href="#DejaVuSans-36"/>
       <use xlink:href="#DejaVuSans-30" x="63.623047"/>
      </g>
     </g>
    </g>
    <g id="ytick_5">
     <g id="line2d_11">
      <g>
       <use xlink:href="#mbdc2180225" x="78.876" y="129.976011" style="stroke: #000000; stroke-width: 2.5"/>
      </g>
     </g>
     <g id="text_12">
      <!-- 80 -->
      <g transform="translate(40.98 136.662636) scale(0.176 -0.176)">
       <defs>
        <path id="DejaVuSans-38" d="M 2034 2216 
Q 1584 2216 1326 1975 
Q 1069 1734 1069 1313 
Q 1069 891 1326 650 
Q 1584 409 2034 409 
Q 2484 409 2743 651 
Q 3003 894 3003 1313 
Q 3003 1734 2745 1975 
Q 2488 2216 2034 2216 
z
M 1403 2484 
Q 997 2584 770 2862 
Q 544 3141 544 3541 
Q 544 4100 942 4425 
Q 1341 4750 2034 4750 
Q 2731 4750 3128 4425 
Q 3525 4100 3525 3541 
Q 3525 3141 3298 2862 
Q 3072 2584 2669 2484 
Q 3125 2378 3379 2068 
Q 3634 1759 3634 1313 
Q 3634 634 3220 271 
Q 2806 -91 2034 -91 
Q 1263 -91 848 271 
Q 434 634 434 1313 
Q 434 1759 690 2068 
Q 947 2378 1403 2484 
z
M 1172 3481 
Q 1172 3119 1398 2916 
Q 1625 2713 2034 2713 
Q 2441 2713 2670 2916 
Q 2900 3119 2900 3481 
Q 2900 3844 2670 4047 
Q 2441 4250 2034 4250 
Q 1625 4250 1398 4047 
Q 1172 3844 1172 3481 
z
" transform="scale(0.015625)"/>
       </defs>
       <use xlink:href="#DejaVuSans-38"/>
       <use xlink:href="#DejaVuSans-30" x="63.623047"/>
      </g>
     </g>
    </g>
    <g id="ytick_6">
     <g id="line2d_12">
      <g>
       <use xlink:href="#mbdc2180225" x="78.876" y="44.642764" style="stroke: #000000; stroke-width: 2.5"/>
      </g>
     </g>
     <g id="text_13">
      <!-- 100 -->
      <g transform="translate(29.782 51.329389) scale(0.176 -0.176)">
       <defs>
        <path id="DejaVuSans-31" d="M 794 531 
L 1825 531 
L 1825 4091 
L 703 3866 
L 703 4441 
L 1819 4666 
L 2450 4666 
L 2450 531 
L 3481 531 
L 3481 0 
L 794 0 
L 794 531 
z
" transform="scale(0.015625)"/>
       </defs>
       <use xlink:href="#DejaVuSans-31"/>
       <use xlink:href="#DejaVuSans-30" x="63.623047"/>
       <use xlink:href="#DejaVuSans-30" x="127.246094"/>
      </g>
     </g>
    </g>
    <g id="text_14">
     <!-- Auc Score -->
     <g transform="translate(21.789 297.414) rotate(-90) scale(0.192 -0.192)">
      <defs>
       <path id="DejaVuSans-75" d="M 544 1381 
L 544 3500 
L 1119 3500 
L 1119 1403 
Q 1119 906 1312 657 
Q 1506 409 1894 409 
Q 2359 409 2629 706 
Q 2900 1003 2900 1516 
L 2900 3500 
L 3475 3500 
L 3475 0 
L 2900 0 
L 2900 538 
Q 2691 219 2414 64 
Q 2138 -91 1772 -91 
Q 1169 -91 856 284 
Q 544 659 544 1381 
z
M 1991 3584 
L 1991 3584 
z
" transform="scale(0.015625)"/>
       <path id="DejaVuSans-20" transform="scale(0.015625)"/>
       <path id="DejaVuSans-53" d="M 3425 4513 
L 3425 3897 
Q 3066 4069 2747 4153 
Q 2428 4238 2131 4238 
Q 1616 4238 1336 4038 
Q 1056 3838 1056 3469 
Q 1056 3159 1242 3001 
Q 1428 2844 1947 2747 
L 2328 2669 
Q 3034 2534 3370 2195 
Q 3706 1856 3706 1288 
Q 3706 609 3251 259 
Q 2797 -91 1919 -91 
Q 1588 -91 1214 -16 
Q 841 59 441 206 
L 441 856 
Q 825 641 1194 531 
Q 1563 422 1919 422 
Q 2459 422 2753 634 
Q 3047 847 3047 1241 
Q 3047 1584 2836 1778 
Q 2625 1972 2144 2069 
L 1759 2144 
Q 1053 2284 737 2584 
Q 422 2884 422 3419 
Q 422 4038 858 4394 
Q 1294 4750 2059 4750 
Q 2388 4750 2728 4690 
Q 3069 4631 3425 4513 
z
" transform="scale(0.015625)"/>
       <path id="DejaVuSans-65" d="M 3597 1894 
L 3597 1613 
L 953 1613 
Q 991 1019 1311 708 
Q 1631 397 2203 397 
Q 2534 397 2845 478 
Q 3156 559 3463 722 
L 3463 178 
Q 3153 47 2828 -22 
Q 2503 -91 2169 -91 
Q 1331 -91 842 396 
Q 353 884 353 1716 
Q 353 2575 817 3079 
Q 1281 3584 2069 3584 
Q 2775 3584 3186 3129 
Q 3597 2675 3597 1894 
z
M 3022 2063 
Q 3016 2534 2758 2815 
Q 2500 3097 2075 3097 
Q 1594 3097 1305 2825 
Q 1016 2553 972 2059 
L 3022 2063 
z
" transform="scale(0.015625)"/>
      </defs>
      <use xlink:href="#DejaVuSans-41"/>
      <use xlink:href="#DejaVuSans-75" x="68.408203"/>
      <use xlink:href="#DejaVuSans-63" x="131.787109"/>
      <use xlink:href="#DejaVuSans-20" x="186.767578"/>
      <use xlink:href="#DejaVuSans-53" x="218.554688"/>
      <use xlink:href="#DejaVuSans-63" x="282.03125"/>
      <use xlink:href="#DejaVuSans-6f" x="337.011719"/>
      <use xlink:href="#DejaVuSans-72" x="398.193359"/>
      <use xlink:href="#DejaVuSans-65" x="437.056641"/>
     </g>
    </g>
   </g>
   <g id="line2d_13">
    <path clip-path="url(#pba972aedba)" style="fill: none; stroke: #424242; stroke-width: 5.4; stroke-linecap: square"/>
   </g>
   <g id="line2d_14">
    <path clip-path="url(#pba972aedba)" style="fill: none; stroke: #424242; stroke-width: 5.4; stroke-linecap: square"/>
   </g>
   <g id="line2d_15">
    <path clip-path="url(#pba972aedba)" style="fill: none; stroke: #424242; stroke-width: 5.4; stroke-linecap: square"/>
   </g>
   <g id="line2d_16">
    <path clip-path="url(#pba972aedba)" style="fill: none; stroke: #424242; stroke-width: 5.4; stroke-linecap: square"/>
   </g>
   <g id="line2d_17">
    <path clip-path="url(#pba972aedba)" style="fill: none; stroke: #424242; stroke-width: 5.4; stroke-linecap: square"/>
   </g>
   <g id="line2d_18">
    <path clip-path="url(#pba972aedba)" style="fill: none; stroke: #424242; stroke-width: 5.4; stroke-linecap: square"/>
   </g>
   <g id="line2d_19">
    <path clip-path="url(#pba972aedba)" style="fill: none; stroke: #424242; stroke-width: 5.4; stroke-linecap: square"/>
   </g>
   <g id="line2d_20">
    <path clip-path="url(#pba972aedba)" style="fill: none; stroke: #424242; stroke-width: 5.4; stroke-linecap: square"/>
   </g>
   <g id="line2d_21">
    <path clip-path="url(#pba972aedba)" style="fill: none; stroke: #424242; stroke-width: 5.4; stroke-linecap: square"/>
   </g>
   <g id="line2d_22">
    <path clip-path="url(#pba972aedba)" style="fill: none; stroke: #424242; stroke-width: 5.4; stroke-linecap: square"/>
   </g>
   <g id="line2d_23">
    <path clip-path="url(#pba972aedba)" style="fill: none; stroke: #424242; stroke-width: 5.4; stroke-linecap: square"/>
   </g>
   <g id="line2d_24">
    <path clip-path="url(#pba972aedba)" style="fill: none; stroke: #424242; stroke-width: 5.4; stroke-linecap: square"/>
   </g>
   <g id="patch_15">
    <path d="M 78.876 471.309 
L 78.876 27.789 
" style="fill: none; stroke: #000000; stroke-width: 2.5; stroke-linejoin: miter; stroke-linecap: square"/>
   </g>
   <g id="patch_16">
    <path d="M 78.876 471.309 
L 484.694182 471.309 
" style="fill: none; stroke: #000000; stroke-width: 2.5; stroke-linejoin: miter; stroke-linecap: square"/>
   </g>
   <g id="text_15">
    <!-- 85% -->
    <g transform="translate(84.719643 104.229887) scale(0.13 -0.13)">
     <defs>
      <path id="DejaVuSans-35" d="M 691 4666 
L 3169 4666 
L 3169 4134 
L 1269 4134 
L 1269 2991 
Q 1406 3038 1543 3061 
Q 1681 3084 1819 3084 
Q 2600 3084 3056 2656 
Q 3513 2228 3513 1497 
Q 3513 744 3044 326 
Q 2575 -91 1722 -91 
Q 1428 -91 1123 -41 
Q 819 9 494 109 
L 494 744 
Q 775 591 1075 516 
Q 1375 441 1709 441 
Q 2250 441 2565 725 
Q 2881 1009 2881 1497 
Q 2881 1984 2565 2268 
Q 2250 2553 1709 2553 
Q 1456 2553 1204 2497 
Q 953 2441 691 2322 
L 691 4666 
z
" transform="scale(0.015625)"/>
      <path id="DejaVuSans-25" d="M 4653 2053 
Q 4381 2053 4226 1822 
Q 4072 1591 4072 1178 
Q 4072 772 4226 539 
Q 4381 306 4653 306 
Q 4919 306 5073 539 
Q 5228 772 5228 1178 
Q 5228 1588 5073 1820 
Q 4919 2053 4653 2053 
z
M 4653 2450 
Q 5147 2450 5437 2106 
Q 5728 1763 5728 1178 
Q 5728 594 5436 251 
Q 5144 -91 4653 -91 
Q 4153 -91 3862 251 
Q 3572 594 3572 1178 
Q 3572 1766 3864 2108 
Q 4156 2450 4653 2450 
z
M 1428 4353 
Q 1159 4353 1004 4120 
Q 850 3888 850 3481 
Q 850 3069 1003 2837 
Q 1156 2606 1428 2606 
Q 1700 2606 1854 2837 
Q 2009 3069 2009 3481 
Q 2009 3884 1853 4118 
Q 1697 4353 1428 4353 
z
M 4250 4750 
L 4750 4750 
L 1831 -91 
L 1331 -91 
L 4250 4750 
z
M 1428 4750 
Q 1922 4750 2215 4408 
Q 2509 4066 2509 3481 
Q 2509 2891 2217 2550 
Q 1925 2209 1428 2209 
Q 931 2209 642 2551 
Q 353 2894 353 3481 
Q 353 4063 643 4406 
Q 934 4750 1428 4750 
z
" transform="scale(0.015625)"/>
     </defs>
     <use xlink:href="#DejaVuSans-38"/>
     <use xlink:href="#DejaVuSans-35" x="63.623047"/>
     <use xlink:href="#DejaVuSans-25" x="127.246094"/>
    </g>
   </g>
   <g id="text_16">
    <!-- LR -->
    <g transform="translate(91.028706 92.229887) scale(0.13 -0.13)">
     <defs>
      <path id="DejaVuSans-4c" d="M 628 4666 
L 1259 4666 
L 1259 531 
L 3531 531 
L 3531 0 
L 628 0 
L 628 4666 
z
" transform="scale(0.015625)"/>
      <path id="DejaVuSans-52" d="M 2841 2188 
Q 3044 2119 3236 1894 
Q 3428 1669 3622 1275 
L 4263 0 
L 3584 0 
L 2988 1197 
Q 2756 1666 2539 1819 
Q 2322 1972 1947 1972 
L 1259 1972 
L 1259 0 
L 628 0 
L 628 4666 
L 2053 4666 
Q 2853 4666 3247 4331 
Q 3641 3997 3641 3322 
Q 3641 2881 3436 2590 
Q 3231 2300 2841 2188 
z
M 1259 4147 
L 1259 2491 
L 2053 2491 
Q 2509 2491 2742 2702 
Q 2975 2913 2975 3322 
Q 2975 3731 2742 3939 
Q 2509 4147 2053 4147 
L 1259 4147 
z
" transform="scale(0.015625)"/>
     </defs>
     <use xlink:href="#DejaVuSans-4c"/>
     <use xlink:href="#DejaVuSans-52" x="55.712891"/>
    </g>
   </g>
   <g id="text_17">
    <!-- 87% -->
    <g transform="translate(152.356007 95.696562) scale(0.13 -0.13)">
     <defs>
      <path id="DejaVuSans-37" d="M 525 4666 
L 3525 4666 
L 3525 4397 
L 1831 0 
L 1172 0 
L 2766 4134 
L 525 4134 
L 525 4666 
z
" transform="scale(0.015625)"/>
     </defs>
     <use xlink:href="#DejaVuSans-38"/>
     <use xlink:href="#DejaVuSans-37" x="63.623047"/>
     <use xlink:href="#DejaVuSans-25" x="127.246094"/>
    </g>
   </g>
   <g id="text_18">
    <!-- SVM -->
    <g transform="translate(152.622101 83.696562) scale(0.13 -0.13)">
     <defs>
      <path id="DejaVuSans-56" d="M 1831 0 
L 50 4666 
L 709 4666 
L 2188 738 
L 3669 4666 
L 4325 4666 
L 2547 0 
L 1831 0 
z
" transform="scale(0.015625)"/>
      <path id="DejaVuSans-4d" d="M 628 4666 
L 1569 4666 
L 2759 1491 
L 3956 4666 
L 4897 4666 
L 4897 0 
L 4281 0 
L 4281 4097 
L 3078 897 
L 2444 897 
L 1241 4097 
L 1241 0 
L 628 0 
L 628 4666 
z
" transform="scale(0.015625)"/>
     </defs>
     <use xlink:href="#DejaVuSans-53"/>
     <use xlink:href="#DejaVuSans-56" x="63.476562"/>
     <use xlink:href="#DejaVuSans-4d" x="131.884766"/>
    </g>
   </g>
   <g id="text_19">
    <!-- 93% -->
    <g transform="translate(219.992371 70.096588) scale(0.13 -0.13)">
     <defs>
      <path id="DejaVuSans-39" d="M 703 97 
L 703 672 
Q 941 559 1184 500 
Q 1428 441 1663 441 
Q 2288 441 2617 861 
Q 2947 1281 2994 2138 
Q 2813 1869 2534 1725 
Q 2256 1581 1919 1581 
Q 1219 1581 811 2004 
Q 403 2428 403 3163 
Q 403 3881 828 4315 
Q 1253 4750 1959 4750 
Q 2769 4750 3195 4129 
Q 3622 3509 3622 2328 
Q 3622 1225 3098 567 
Q 2575 -91 1691 -91 
Q 1453 -91 1209 -44 
Q 966 3 703 97 
z
M 1959 2075 
Q 2384 2075 2632 2365 
Q 2881 2656 2881 3163 
Q 2881 3666 2632 3958 
Q 2384 4250 1959 4250 
Q 1534 4250 1286 3958 
Q 1038 3666 1038 3163 
Q 1038 2656 1286 2365 
Q 1534 2075 1959 2075 
z
" transform="scale(0.015625)"/>
      <path id="DejaVuSans-33" d="M 2597 2516 
Q 3050 2419 3304 2112 
Q 3559 1806 3559 1356 
Q 3559 666 3084 287 
Q 2609 -91 1734 -91 
Q 1441 -91 1130 -33 
Q 819 25 488 141 
L 488 750 
Q 750 597 1062 519 
Q 1375 441 1716 441 
Q 2309 441 2620 675 
Q 2931 909 2931 1356 
Q 2931 1769 2642 2001 
Q 2353 2234 1838 2234 
L 1294 2234 
L 1294 2753 
L 1863 2753 
Q 2328 2753 2575 2939 
Q 2822 3125 2822 3475 
Q 2822 3834 2567 4026 
Q 2313 4219 1838 4219 
Q 1578 4219 1281 4162 
Q 984 4106 628 3988 
L 628 4550 
Q 988 4650 1302 4700 
Q 1616 4750 1894 4750 
Q 2613 4750 3031 4423 
Q 3450 4097 3450 3541 
Q 3450 3153 3228 2886 
Q 3006 2619 2597 2516 
z
" transform="scale(0.015625)"/>
     </defs>
     <use xlink:href="#DejaVuSans-39"/>
     <use xlink:href="#DejaVuSans-33" x="63.623047"/>
     <use xlink:href="#DejaVuSans-25" x="127.246094"/>
    </g>
   </g>
   <g id="text_20">
    <!-- RF -->
    <g transform="translate(226.184636 58.096588) scale(0.13 -0.13)">
     <use xlink:href="#DejaVuSans-52"/>
     <use xlink:href="#DejaVuSans-46" x="69.482422"/>
    </g>
   </g>
   <g id="text_21">
    <!-- 91% -->
    <g transform="translate(287.628734 78.629913) scale(0.13 -0.13)">
     <use xlink:href="#DejaVuSans-39"/>
     <use xlink:href="#DejaVuSans-31" x="63.623047"/>
     <use xlink:href="#DejaVuSans-25" x="127.246094"/>
    </g>
   </g>
   <g id="text_22">
    <!-- SVM -->
    <g transform="translate(287.894828 66.629913) scale(0.13 -0.13)">
     <use xlink:href="#DejaVuSans-53"/>
     <use xlink:href="#DejaVuSans-56" x="63.476562"/>
     <use xlink:href="#DejaVuSans-4d" x="131.884766"/>
    </g>
   </g>
   <g id="text_23">
    <!-- 85% -->
    <g transform="translate(355.265098 104.22946) scale(0.13 -0.13)">
     <use xlink:href="#DejaVuSans-38"/>
     <use xlink:href="#DejaVuSans-35" x="63.623047"/>
     <use xlink:href="#DejaVuSans-25" x="127.246094"/>
    </g>
   </g>
   <g id="text_24">
    <!-- RF -->
    <g transform="translate(361.457364 92.22946) scale(0.13 -0.13)">
     <use xlink:href="#DejaVuSans-52"/>
     <use xlink:href="#DejaVuSans-46" x="69.482422"/>
    </g>
   </g>
   <g id="text_25">
    <!-- 81% -->
    <g transform="translate(422.901462 121.296537) scale(0.13 -0.13)">
     <use xlink:href="#DejaVuSans-38"/>
     <use xlink:href="#DejaVuSans-31" x="63.623047"/>
     <use xlink:href="#DejaVuSans-25" x="127.246094"/>
    </g>
   </g>
   <g id="text_26">
    <!-- RF -->
    <g transform="translate(429.093727 109.296537) scale(0.13 -0.13)">
     <use xlink:href="#DejaVuSans-52"/>
     <use xlink:href="#DejaVuSans-46" x="69.482422"/>
    </g>
   </g>
   <g id="text_27">
    <!-- 99% -->
    <g transform="translate(111.774189 44.496614) scale(0.13 -0.13)">
     <use xlink:href="#DejaVuSans-39"/>
     <use xlink:href="#DejaVuSans-39" x="63.623047"/>
     <use xlink:href="#DejaVuSans-25" x="127.246094"/>
    </g>
   </g>
   <g id="text_28">
    <!-- CF -->
    <g transform="translate(117.944111 32.496614) scale(0.13 -0.13)">
     <use xlink:href="#DejaVuSans-43"/>
     <use xlink:href="#DejaVuSans-46" x="69.824219"/>
    </g>
   </g>
   <g id="text_29">
    <!-- 68% -->
    <g transform="translate(179.410553 176.763147) scale(0.13 -0.13)">
     <use xlink:href="#DejaVuSans-36"/>
     <use xlink:href="#DejaVuSans-38" x="63.623047"/>
     <use xlink:href="#DejaVuSans-25" x="127.246094"/>
    </g>
   </g>
   <g id="text_30">
    <!-- CF -->
    <g transform="translate(185.580474 164.763147) scale(0.13 -0.13)">
     <use xlink:href="#DejaVuSans-43"/>
     <use xlink:href="#DejaVuSans-46" x="69.824219"/>
    </g>
   </g>
   <g id="text_31">
    <!-- 99% -->
    <g transform="translate(247.046916 44.496188) scale(0.13 -0.13)">
     <use xlink:href="#DejaVuSans-39"/>
     <use xlink:href="#DejaVuSans-39" x="63.623047"/>
     <use xlink:href="#DejaVuSans-25" x="127.246094"/>
    </g>
   </g>
   <g id="text_32">
    <!-- CF -->
    <g transform="translate(253.216838 32.496188) scale(0.13 -0.13)">
     <use xlink:href="#DejaVuSans-43"/>
     <use xlink:href="#DejaVuSans-46" x="69.824219"/>
    </g>
   </g>
   <g id="text_33">
    <!-- 72% -->
    <g transform="translate(314.68328 159.696498) scale(0.13 -0.13)">
     <use xlink:href="#DejaVuSans-37"/>
     <use xlink:href="#DejaVuSans-32" x="63.623047"/>
     <use xlink:href="#DejaVuSans-25" x="127.246094"/>
    </g>
   </g>
   <g id="text_34">
    <!-- CF -->
    <g transform="translate(320.853202 147.696498) scale(0.13 -0.13)">
     <use xlink:href="#DejaVuSans-43"/>
     <use xlink:href="#DejaVuSans-46" x="69.824219"/>
    </g>
   </g>
   <g id="text_35">
    <!-- 72% -->
    <g transform="translate(382.319643 159.696071) scale(0.13 -0.13)">
     <use xlink:href="#DejaVuSans-37"/>
     <use xlink:href="#DejaVuSans-32" x="63.623047"/>
     <use xlink:href="#DejaVuSans-25" x="127.246094"/>
    </g>
   </g>
   <g id="text_36">
    <!-- CF -->
    <g transform="translate(388.489565 147.696071) scale(0.13 -0.13)">
     <use xlink:href="#DejaVuSans-43"/>
     <use xlink:href="#DejaVuSans-46" x="69.824219"/>
    </g>
   </g>
   <g id="text_37">
    <!-- 59% -->
    <g transform="translate(449.956007 215.163108) scale(0.13 -0.13)">
     <use xlink:href="#DejaVuSans-35"/>
     <use xlink:href="#DejaVuSans-39" x="63.623047"/>
     <use xlink:href="#DejaVuSans-25" x="127.246094"/>
    </g>
   </g>
   <g id="text_38">
    <!-- CF -->
    <g transform="translate(456.125929 203.163108) scale(0.13 -0.13)">
     <use xlink:href="#DejaVuSans-43"/>
     <use xlink:href="#DejaVuSans-46" x="69.824219"/>
    </g>
   </g>
   <g id="legend_1">
    <g id="patch_17">
     <path d="M 187.779091 462.509 
L 375.791091 462.509 
Q 379.311091 462.509 379.311091 458.989 
L 379.311091 409.082 
Q 379.311091 405.562 375.791091 405.562 
L 187.779091 405.562 
Q 184.259091 405.562 184.259091 409.082 
L 184.259091 458.989 
Q 184.259091 462.509 187.779091 462.509 
z
" style="fill: #ffffff; opacity: 0.8; stroke: #cccccc; stroke-width: 2; stroke-linejoin: miter"/>
    </g>
    <g id="patch_18">
     <path d="M 191.299091 425.97525 
L 226.499091 425.97525 
L 226.499091 413.65525 
L 191.299091 413.65525 
z
" style="fill: #3274a1"/>
    </g>
    <g id="text_39">
     <!-- Our Best Score -->
     <g transform="translate(240.579091 425.97525) scale(0.176 -0.176)">
      <defs>
       <path id="DejaVuSans-42" d="M 1259 2228 
L 1259 519 
L 2272 519 
Q 2781 519 3026 730 
Q 3272 941 3272 1375 
Q 3272 1813 3026 2020 
Q 2781 2228 2272 2228 
L 1259 2228 
z
M 1259 4147 
L 1259 2741 
L 2194 2741 
Q 2656 2741 2882 2914 
Q 3109 3088 3109 3444 
Q 3109 3797 2882 3972 
Q 2656 4147 2194 4147 
L 1259 4147 
z
M 628 4666 
L 2241 4666 
Q 2963 4666 3353 4366 
Q 3744 4066 3744 3513 
Q 3744 3084 3544 2831 
Q 3344 2578 2956 2516 
Q 3422 2416 3680 2098 
Q 3938 1781 3938 1306 
Q 3938 681 3513 340 
Q 3088 0 2303 0 
L 628 0 
L 628 4666 
z
" transform="scale(0.015625)"/>
       <path id="DejaVuSans-73" d="M 2834 3397 
L 2834 2853 
Q 2591 2978 2328 3040 
Q 2066 3103 1784 3103 
Q 1356 3103 1142 2972 
Q 928 2841 928 2578 
Q 928 2378 1081 2264 
Q 1234 2150 1697 2047 
L 1894 2003 
Q 2506 1872 2764 1633 
Q 3022 1394 3022 966 
Q 3022 478 2636 193 
Q 2250 -91 1575 -91 
Q 1294 -91 989 -36 
Q 684 19 347 128 
L 347 722 
Q 666 556 975 473 
Q 1284 391 1588 391 
Q 1994 391 2212 530 
Q 2431 669 2431 922 
Q 2431 1156 2273 1281 
Q 2116 1406 1581 1522 
L 1381 1569 
Q 847 1681 609 1914 
Q 372 2147 372 2553 
Q 372 3047 722 3315 
Q 1072 3584 1716 3584 
Q 2034 3584 2315 3537 
Q 2597 3491 2834 3397 
z
" transform="scale(0.015625)"/>
       <path id="DejaVuSans-74" d="M 1172 4494 
L 1172 3500 
L 2356 3500 
L 2356 3053 
L 1172 3053 
L 1172 1153 
Q 1172 725 1289 603 
Q 1406 481 1766 481 
L 2356 481 
L 2356 0 
L 1766 0 
Q 1100 0 847 248 
Q 594 497 594 1153 
L 594 3053 
L 172 3053 
L 172 3500 
L 594 3500 
L 594 4494 
L 1172 4494 
z
" transform="scale(0.015625)"/>
      </defs>
      <use xlink:href="#DejaVuSans-4f"/>
      <use xlink:href="#DejaVuSans-75" x="78.710938"/>
      <use xlink:href="#DejaVuSans-72" x="142.089844"/>
      <use xlink:href="#DejaVuSans-20" x="183.203125"/>
      <use xlink:href="#DejaVuSans-42" x="214.990234"/>
      <use xlink:href="#DejaVuSans-65" x="283.59375"/>
      <use xlink:href="#DejaVuSans-73" x="345.117188"/>
      <use xlink:href="#DejaVuSans-74" x="397.216797"/>
      <use xlink:href="#DejaVuSans-20" x="436.425781"/>
      <use xlink:href="#DejaVuSans-53" x="468.212891"/>
      <use xlink:href="#DejaVuSans-63" x="531.689453"/>
      <use xlink:href="#DejaVuSans-6f" x="586.669922"/>
      <use xlink:href="#DejaVuSans-72" x="647.851562"/>
      <use xlink:href="#DejaVuSans-65" x="686.714844"/>
     </g>
    </g>
    <g id="patch_19">
     <path d="M 191.299091 451.80875 
L 226.499091 451.80875 
L 226.499091 439.48875 
L 191.299091 439.48875 
z
" style="fill: #e1812c"/>
    </g>
    <g id="text_40">
     <!-- lungFlag -->
     <g transform="translate(240.579091 451.80875) scale(0.176 -0.176)">
      <defs>
       <path id="DejaVuSans-6c" d="M 603 4863 
L 1178 4863 
L 1178 0 
L 603 0 
L 603 4863 
z
" transform="scale(0.015625)"/>
       <path id="DejaVuSans-6e" d="M 3513 2113 
L 3513 0 
L 2938 0 
L 2938 2094 
Q 2938 2591 2744 2837 
Q 2550 3084 2163 3084 
Q 1697 3084 1428 2787 
Q 1159 2491 1159 1978 
L 1159 0 
L 581 0 
L 581 3500 
L 1159 3500 
L 1159 2956 
Q 1366 3272 1645 3428 
Q 1925 3584 2291 3584 
Q 2894 3584 3203 3211 
Q 3513 2838 3513 2113 
z
" transform="scale(0.015625)"/>
       <path id="DejaVuSans-67" d="M 2906 1791 
Q 2906 2416 2648 2759 
Q 2391 3103 1925 3103 
Q 1463 3103 1205 2759 
Q 947 2416 947 1791 
Q 947 1169 1205 825 
Q 1463 481 1925 481 
Q 2391 481 2648 825 
Q 2906 1169 2906 1791 
z
M 3481 434 
Q 3481 -459 3084 -895 
Q 2688 -1331 1869 -1331 
Q 1566 -1331 1297 -1286 
Q 1028 -1241 775 -1147 
L 775 -588 
Q 1028 -725 1275 -790 
Q 1522 -856 1778 -856 
Q 2344 -856 2625 -561 
Q 2906 -266 2906 331 
L 2906 616 
Q 2728 306 2450 153 
Q 2172 0 1784 0 
Q 1141 0 747 490 
Q 353 981 353 1791 
Q 353 2603 747 3093 
Q 1141 3584 1784 3584 
Q 2172 3584 2450 3431 
Q 2728 3278 2906 2969 
L 2906 3500 
L 3481 3500 
L 3481 434 
z
" transform="scale(0.015625)"/>
      </defs>
      <use xlink:href="#DejaVuSans-6c"/>
      <use xlink:href="#DejaVuSans-75" x="27.783203"/>
      <use xlink:href="#DejaVuSans-6e" x="91.162109"/>
      <use xlink:href="#DejaVuSans-67" x="154.541016"/>
      <use xlink:href="#DejaVuSans-46" x="218.017578"/>
      <use xlink:href="#DejaVuSans-6c" x="275.537109"/>
      <use xlink:href="#DejaVuSans-61" x="303.320312"/>
      <use xlink:href="#DejaVuSans-67" x="364.599609"/>
     </g>
    </g>
   </g>
  </g>
  <g id="axes_2">
   <g id="patch_20">
    <path d="M 565.857818 471.309 
L 971.676 471.309 
L 971.676 27.789 
L 565.857818 27.789 
z
" style="fill: #ffffff"/>
   </g>
   <g id="matplotlib.axis_3">
    <g id="xtick_7">
     <g id="line2d_25">
      <g>
       <use xlink:href="#m9380d9392a" x="584.304099" y="471.309" style="stroke: #000000; stroke-width: 2.5"/>
      </g>
     </g>
     <g id="text_41">
      <!-- 0.0 -->
      <g transform="translate(570.309349 500.18225) scale(0.176 -0.176)">
       <defs>
        <path id="DejaVuSans-2e" d="M 684 794 
L 1344 794 
L 1344 0 
L 684 0 
L 684 794 
z
" transform="scale(0.015625)"/>
       </defs>
       <use xlink:href="#DejaVuSans-30"/>
       <use xlink:href="#DejaVuSans-2e" x="63.623047"/>
       <use xlink:href="#DejaVuSans-30" x="95.410156"/>
      </g>
     </g>
    </g>
    <g id="xtick_8">
     <g id="line2d_26">
      <g>
       <use xlink:href="#m9380d9392a" x="658.089223" y="471.309" style="stroke: #000000; stroke-width: 2.5"/>
      </g>
     </g>
     <g id="text_42">
      <!-- 0.2 -->
      <g transform="translate(644.094473 500.18225) scale(0.176 -0.176)">
       <use xlink:href="#DejaVuSans-30"/>
       <use xlink:href="#DejaVuSans-2e" x="63.623047"/>
       <use xlink:href="#DejaVuSans-32" x="95.410156"/>
      </g>
     </g>
    </g>
    <g id="xtick_9">
     <g id="line2d_27">
      <g>
       <use xlink:href="#m9380d9392a" x="731.874347" y="471.309" style="stroke: #000000; stroke-width: 2.5"/>
      </g>
     </g>
     <g id="text_43">
      <!-- 0.4 -->
      <g transform="translate(717.879597 500.18225) scale(0.176 -0.176)">
       <use xlink:href="#DejaVuSans-30"/>
       <use xlink:href="#DejaVuSans-2e" x="63.623047"/>
       <use xlink:href="#DejaVuSans-34" x="95.410156"/>
      </g>
     </g>
    </g>
    <g id="xtick_10">
     <g id="line2d_28">
      <g>
       <use xlink:href="#m9380d9392a" x="805.659471" y="471.309" style="stroke: #000000; stroke-width: 2.5"/>
      </g>
     </g>
     <g id="text_44">
      <!-- 0.6 -->
      <g transform="translate(791.664721 500.18225) scale(0.176 -0.176)">
       <use xlink:href="#DejaVuSans-30"/>
       <use xlink:href="#DejaVuSans-2e" x="63.623047"/>
       <use xlink:href="#DejaVuSans-36" x="95.410156"/>
      </g>
     </g>
    </g>
    <g id="xtick_11">
     <g id="line2d_29">
      <g>
       <use xlink:href="#m9380d9392a" x="879.444595" y="471.309" style="stroke: #000000; stroke-width: 2.5"/>
      </g>
     </g>
     <g id="text_45">
      <!-- 0.8 -->
      <g transform="translate(865.449845 500.18225) scale(0.176 -0.176)">
       <use xlink:href="#DejaVuSans-30"/>
       <use xlink:href="#DejaVuSans-2e" x="63.623047"/>
       <use xlink:href="#DejaVuSans-38" x="95.410156"/>
      </g>
     </g>
    </g>
    <g id="xtick_12">
     <g id="line2d_30">
      <g>
       <use xlink:href="#m9380d9392a" x="953.229719" y="471.309" style="stroke: #000000; stroke-width: 2.5"/>
      </g>
     </g>
     <g id="text_46">
      <!-- 1.0 -->
      <g transform="translate(939.234969 500.18225) scale(0.176 -0.176)">
       <use xlink:href="#DejaVuSans-31"/>
       <use xlink:href="#DejaVuSans-2e" x="63.623047"/>
       <use xlink:href="#DejaVuSans-30" x="95.410156"/>
      </g>
     </g>
    </g>
    <g id="text_47">
     <!-- False Positive Rate -->
     <g transform="translate(679.551409 522.4315) scale(0.192 -0.192)">
      <defs>
       <path id="DejaVuSans-50" d="M 1259 4147 
L 1259 2394 
L 2053 2394 
Q 2494 2394 2734 2622 
Q 2975 2850 2975 3272 
Q 2975 3691 2734 3919 
Q 2494 4147 2053 4147 
L 1259 4147 
z
M 628 4666 
L 2053 4666 
Q 2838 4666 3239 4311 
Q 3641 3956 3641 3272 
Q 3641 2581 3239 2228 
Q 2838 1875 2053 1875 
L 1259 1875 
L 1259 0 
L 628 0 
L 628 4666 
z
" transform="scale(0.015625)"/>
       <path id="DejaVuSans-69" d="M 603 3500 
L 1178 3500 
L 1178 0 
L 603 0 
L 603 3500 
z
M 603 4863 
L 1178 4863 
L 1178 4134 
L 603 4134 
L 603 4863 
z
" transform="scale(0.015625)"/>
       <path id="DejaVuSans-76" d="M 191 3500 
L 800 3500 
L 1894 563 
L 2988 3500 
L 3597 3500 
L 2284 0 
L 1503 0 
L 191 3500 
z
" transform="scale(0.015625)"/>
      </defs>
      <use xlink:href="#DejaVuSans-46"/>
      <use xlink:href="#DejaVuSans-61" x="48.394531"/>
      <use xlink:href="#DejaVuSans-6c" x="109.673828"/>
      <use xlink:href="#DejaVuSans-73" x="137.457031"/>
      <use xlink:href="#DejaVuSans-65" x="189.556641"/>
      <use xlink:href="#DejaVuSans-20" x="251.080078"/>
      <use xlink:href="#DejaVuSans-50" x="282.867188"/>
      <use xlink:href="#DejaVuSans-6f" x="339.544922"/>
      <use xlink:href="#DejaVuSans-73" x="400.726562"/>
      <use xlink:href="#DejaVuSans-69" x="452.826172"/>
      <use xlink:href="#DejaVuSans-74" x="480.609375"/>
      <use xlink:href="#DejaVuSans-69" x="519.818359"/>
      <use xlink:href="#DejaVuSans-76" x="547.601562"/>
      <use xlink:href="#DejaVuSans-65" x="606.78125"/>
      <use xlink:href="#DejaVuSans-20" x="668.304688"/>
      <use xlink:href="#DejaVuSans-52" x="700.091797"/>
      <use xlink:href="#DejaVuSans-61" x="767.324219"/>
      <use xlink:href="#DejaVuSans-74" x="828.603516"/>
      <use xlink:href="#DejaVuSans-65" x="867.8125"/>
     </g>
    </g>
   </g>
   <g id="matplotlib.axis_4">
    <g id="ytick_7">
     <g id="line2d_31">
      <g>
       <use xlink:href="#mbdc2180225" x="565.857818" y="451.149" style="stroke: #000000; stroke-width: 2.5"/>
      </g>
     </g>
     <g id="text_48">
      <!-- 0.0 -->
      <g transform="translate(522.368318 457.835625) scale(0.176 -0.176)">
       <use xlink:href="#DejaVuSans-30"/>
       <use xlink:href="#DejaVuSans-2e" x="63.623047"/>
       <use xlink:href="#DejaVuSans-30" x="95.410156"/>
      </g>
     </g>
    </g>
    <g id="ytick_8">
     <g id="line2d_32">
      <g>
       <use xlink:href="#mbdc2180225" x="565.857818" y="370.509" style="stroke: #000000; stroke-width: 2.5"/>
      </g>
     </g>
     <g id="text_49">
      <!-- 0.2 -->
      <g transform="translate(522.368318 377.195625) scale(0.176 -0.176)">
       <use xlink:href="#DejaVuSans-30"/>
       <use xlink:href="#DejaVuSans-2e" x="63.623047"/>
       <use xlink:href="#DejaVuSans-32" x="95.410156"/>
      </g>
     </g>
    </g>
    <g id="ytick_9">
     <g id="line2d_33">
      <g>
       <use xlink:href="#mbdc2180225" x="565.857818" y="289.869" style="stroke: #000000; stroke-width: 2.5"/>
      </g>
     </g>
     <g id="text_50">
      <!-- 0.4 -->
      <g transform="translate(522.368318 296.555625) scale(0.176 -0.176)">
       <use xlink:href="#DejaVuSans-30"/>
       <use xlink:href="#DejaVuSans-2e" x="63.623047"/>
       <use xlink:href="#DejaVuSans-34" x="95.410156"/>
      </g>
     </g>
    </g>
    <g id="ytick_10">
     <g id="line2d_34">
      <g>
       <use xlink:href="#mbdc2180225" x="565.857818" y="209.229" style="stroke: #000000; stroke-width: 2.5"/>
      </g>
     </g>
     <g id="text_51">
      <!-- 0.6 -->
      <g transform="translate(522.368318 215.915625) scale(0.176 -0.176)">
       <use xlink:href="#DejaVuSans-30"/>
       <use xlink:href="#DejaVuSans-2e" x="63.623047"/>
       <use xlink:href="#DejaVuSans-36" x="95.410156"/>
      </g>
     </g>
    </g>
    <g id="ytick_11">
     <g id="line2d_35">
      <g>
       <use xlink:href="#mbdc2180225" x="565.857818" y="128.589" style="stroke: #000000; stroke-width: 2.5"/>
      </g>
     </g>
     <g id="text_52">
      <!-- 0.8 -->
      <g transform="translate(522.368318 135.275625) scale(0.176 -0.176)">
       <use xlink:href="#DejaVuSans-30"/>
       <use xlink:href="#DejaVuSans-2e" x="63.623047"/>
       <use xlink:href="#DejaVuSans-38" x="95.410156"/>
      </g>
     </g>
    </g>
    <g id="ytick_12">
     <g id="line2d_36">
      <g>
       <use xlink:href="#mbdc2180225" x="565.857818" y="47.949" style="stroke: #000000; stroke-width: 2.5"/>
      </g>
     </g>
     <g id="text_53">
      <!-- 1.0 -->
      <g transform="translate(522.368318 54.635625) scale(0.176 -0.176)">
       <use xlink:href="#DejaVuSans-31"/>
       <use xlink:href="#DejaVuSans-2e" x="63.623047"/>
       <use xlink:href="#DejaVuSans-30" x="95.410156"/>
      </g>
     </g>
    </g>
    <g id="text_54">
     <!-- True Positive Rate -->
     <g transform="translate(514.375318 335.046) rotate(-90) scale(0.192 -0.192)">
      <use xlink:href="#DejaVuSans-54"/>
      <use xlink:href="#DejaVuSans-72" x="46.333984"/>
      <use xlink:href="#DejaVuSans-75" x="87.447266"/>
      <use xlink:href="#DejaVuSans-65" x="150.826172"/>
      <use xlink:href="#DejaVuSans-20" x="212.349609"/>
      <use xlink:href="#DejaVuSans-50" x="244.136719"/>
      <use xlink:href="#DejaVuSans-6f" x="300.814453"/>
      <use xlink:href="#DejaVuSans-73" x="361.996094"/>
      <use xlink:href="#DejaVuSans-69" x="414.095703"/>
      <use xlink:href="#DejaVuSans-74" x="441.878906"/>
      <use xlink:href="#DejaVuSans-69" x="481.087891"/>
      <use xlink:href="#DejaVuSans-76" x="508.871094"/>
      <use xlink:href="#DejaVuSans-65" x="568.050781"/>
      <use xlink:href="#DejaVuSans-20" x="629.574219"/>
      <use xlink:href="#DejaVuSans-52" x="661.361328"/>
      <use xlink:href="#DejaVuSans-61" x="728.59375"/>
      <use xlink:href="#DejaVuSans-74" x="789.873047"/>
      <use xlink:href="#DejaVuSans-65" x="829.082031"/>
     </g>
    </g>
   </g>
   <g id="line2d_37">
    <path d="M 584.304099 451.149 
L 588.030621 238.029 
L 591.757142 238.029 
L 595.483663 238.029 
L 599.210185 238.029 
L 602.936706 238.029 
L 606.663228 238.029 
L 610.389749 238.029 
L 614.11627 238.029 
L 617.842792 238.029 
L 621.569313 238.029 
L 625.295835 238.029 
L 629.022356 238.029 
L 632.748878 238.029 
L 636.475399 238.029 
L 640.20192 157.389 
L 643.928442 157.389 
L 647.654963 157.389 
L 651.381485 157.389 
L 655.108006 157.389 
L 658.834527 157.389 
L 662.561049 157.389 
L 666.28757 157.389 
L 670.014092 157.389 
L 673.740613 157.389 
L 677.467134 157.389 
L 681.193656 157.389 
L 684.920177 157.389 
L 688.646699 157.389 
L 692.37322 122.829 
L 696.099742 122.829 
L 699.826263 122.829 
L 703.552784 122.829 
L 707.279306 122.829 
L 711.005827 122.829 
L 714.732349 122.829 
L 718.45887 122.829 
L 722.185391 122.829 
L 725.911913 122.829 
L 729.638434 122.829 
L 733.364956 122.829 
L 737.091477 122.829 
L 740.817998 122.829 
L 744.54452 76.749 
L 748.271041 76.749 
L 751.997563 76.749 
L 755.724084 76.749 
L 759.450606 76.749 
L 763.177127 76.749 
L 766.903648 76.749 
L 770.63017 76.749 
L 774.356691 76.749 
L 778.083213 76.749 
L 781.809734 76.749 
L 785.536255 76.749 
L 789.262777 76.749 
L 792.989298 76.749 
L 796.71582 59.469 
L 800.442341 59.469 
L 804.168863 59.469 
L 807.895384 59.469 
L 811.621905 59.469 
L 815.348427 59.469 
L 819.074948 59.469 
L 822.80147 59.469 
L 826.527991 59.469 
L 830.254512 59.469 
L 833.981034 59.469 
L 837.707555 59.469 
L 841.434077 59.469 
L 845.160598 59.469 
L 848.887119 47.949 
L 852.613641 47.949 
L 856.340162 47.949 
L 860.066684 47.949 
L 863.793205 47.949 
L 867.519727 47.949 
L 871.246248 47.949 
L 874.972769 47.949 
L 878.699291 47.949 
L 882.425812 47.949 
L 886.152334 47.949 
L 889.878855 47.949 
L 893.605376 47.949 
L 897.331898 47.949 
L 901.058419 47.949 
L 904.784941 47.949 
L 908.511462 47.949 
L 912.237983 47.949 
L 915.964505 47.949 
L 919.691026 47.949 
L 923.417548 47.949 
L 927.144069 47.949 
L 930.870591 47.949 
L 934.597112 47.949 
L 938.323633 47.949 
L 942.050155 47.949 
L 945.776676 47.949 
L 949.503198 47.949 
L 953.229719 47.949 
" clip-path="url(#p5584c5b80a)" style="fill: none; stroke: #ffa500; stroke-width: 3; stroke-linecap: square"/>
   </g>
   <g id="line2d_38">
    <path d="M 584.304099 451.149 
L 588.030621 47.949 
L 591.757142 47.949 
L 595.483663 47.949 
L 599.210185 47.949 
L 602.936706 47.949 
L 606.663228 47.949 
L 610.389749 47.949 
L 614.11627 47.949 
L 617.842792 47.949 
L 621.569313 47.949 
L 625.295835 47.949 
L 629.022356 47.949 
L 632.748878 47.949 
L 636.475399 47.949 
L 640.20192 47.949 
L 643.928442 47.949 
L 647.654963 47.949 
L 651.381485 47.949 
L 655.108006 47.949 
L 658.834527 47.949 
L 662.561049 47.949 
L 666.28757 47.949 
L 670.014092 47.949 
L 673.740613 47.949 
L 677.467134 47.949 
L 681.193656 47.949 
L 684.920177 47.949 
L 688.646699 47.949 
L 692.37322 47.949 
L 696.099742 47.949 
L 699.826263 47.949 
L 703.552784 47.949 
L 707.279306 47.949 
L 711.005827 47.949 
L 714.732349 47.949 
L 718.45887 47.949 
L 722.185391 47.949 
L 725.911913 47.949 
L 729.638434 47.949 
L 733.364956 47.949 
L 737.091477 47.949 
L 740.817998 47.949 
L 744.54452 47.949 
L 748.271041 47.949 
L 751.997563 47.949 
L 755.724084 47.949 
L 759.450606 47.949 
L 763.177127 47.949 
L 766.903648 47.949 
L 770.63017 47.949 
L 774.356691 47.949 
L 778.083213 47.949 
L 781.809734 47.949 
L 785.536255 47.949 
L 789.262777 47.949 
L 792.989298 47.949 
L 796.71582 47.949 
L 800.442341 47.949 
L 804.168863 47.949 
L 807.895384 47.949 
L 811.621905 47.949 
L 815.348427 47.949 
L 819.074948 47.949 
L 822.80147 47.949 
L 826.527991 47.949 
L 830.254512 47.949 
L 833.981034 47.949 
L 837.707555 47.949 
L 841.434077 47.949 
L 845.160598 47.949 
L 848.887119 47.949 
L 852.613641 47.949 
L 856.340162 47.949 
L 860.066684 47.949 
L 863.793205 47.949 
L 867.519727 47.949 
L 871.246248 47.949 
L 874.972769 47.949 
L 878.699291 47.949 
L 882.425812 47.949 
L 886.152334 47.949 
L 889.878855 47.949 
L 893.605376 47.949 
L 897.331898 47.949 
L 901.058419 47.949 
L 904.784941 47.949 
L 908.511462 47.949 
L 912.237983 47.949 
L 915.964505 47.949 
L 919.691026 47.949 
L 923.417548 47.949 
L 927.144069 47.949 
L 930.870591 47.949 
L 934.597112 47.949 
L 938.323633 47.949 
L 942.050155 47.949 
L 945.776676 47.949 
L 949.503198 47.949 
L 953.229719 47.949 
" clip-path="url(#p5584c5b80a)" style="fill: none; stroke: #0000ff; stroke-width: 3; stroke-linecap: square"/>
   </g>
   <g id="line2d_39">
    <path d="M 584.304099 451.149 
L 588.030621 243.789 
L 591.757142 243.789 
L 595.483663 243.789 
L 599.210185 243.789 
L 602.936706 243.789 
L 606.663228 243.789 
L 610.389749 243.789 
L 614.11627 243.789 
L 617.842792 243.789 
L 621.569313 243.789 
L 625.295835 243.789 
L 629.022356 243.789 
L 632.748878 243.789 
L 636.475399 243.789 
L 640.20192 145.869 
L 643.928442 145.869 
L 647.654963 145.869 
L 651.381485 145.869 
L 655.108006 145.869 
L 658.834527 145.869 
L 662.561049 145.869 
L 666.28757 145.869 
L 670.014092 145.869 
L 673.740613 145.869 
L 677.467134 145.869 
L 681.193656 145.869 
L 684.920177 145.869 
L 688.646699 145.869 
L 692.37322 76.749 
L 696.099742 76.749 
L 699.826263 76.749 
L 703.552784 76.749 
L 707.279306 76.749 
L 711.005827 76.749 
L 714.732349 76.749 
L 718.45887 76.749 
L 722.185391 76.749 
L 725.911913 76.749 
L 729.638434 76.749 
L 733.364956 76.749 
L 737.091477 76.749 
L 740.817998 76.749 
L 744.54452 65.229 
L 748.271041 65.229 
L 751.997563 65.229 
L 755.724084 65.229 
L 759.450606 65.229 
L 763.177127 65.229 
L 766.903648 65.229 
L 770.63017 65.229 
L 774.356691 65.229 
L 778.083213 65.229 
L 781.809734 65.229 
L 785.536255 65.229 
L 789.262777 65.229 
L 792.989298 65.229 
L 796.71582 59.469 
L 800.442341 59.469 
L 804.168863 59.469 
L 807.895384 59.469 
L 811.621905 59.469 
L 815.348427 59.469 
L 819.074948 59.469 
L 822.80147 59.469 
L 826.527991 59.469 
L 830.254512 59.469 
L 833.981034 59.469 
L 837.707555 59.469 
L 841.434077 59.469 
L 845.160598 59.469 
L 848.887119 47.949 
L 852.613641 47.949 
L 856.340162 47.949 
L 860.066684 47.949 
L 863.793205 47.949 
L 867.519727 47.949 
L 871.246248 47.949 
L 874.972769 47.949 
L 878.699291 47.949 
L 882.425812 47.949 
L 886.152334 47.949 
L 889.878855 47.949 
L 893.605376 47.949 
L 897.331898 47.949 
L 901.058419 47.949 
L 904.784941 47.949 
L 908.511462 47.949 
L 912.237983 47.949 
L 915.964505 47.949 
L 919.691026 47.949 
L 923.417548 47.949 
L 927.144069 47.949 
L 930.870591 47.949 
L 934.597112 47.949 
L 938.323633 47.949 
L 942.050155 47.949 
L 945.776676 47.949 
L 949.503198 47.949 
L 953.229719 47.949 
" clip-path="url(#p5584c5b80a)" style="fill: none; stroke: #008000; stroke-width: 3; stroke-linecap: square"/>
   </g>
   <g id="line2d_40">
    <path d="M 584.304099 451.149 
L 588.030621 442.019303 
L 591.757142 432.889606 
L 595.483663 423.759909 
L 599.210185 414.630212 
L 602.936706 405.500515 
L 606.663228 396.370818 
L 610.389749 387.241121 
L 614.11627 378.111424 
L 617.842792 368.981727 
L 621.569313 359.85203 
L 625.295835 350.722333 
L 629.022356 341.592636 
L 632.748878 332.462939 
L 636.475399 323.333242 
L 640.20192 315.832636 
L 643.928442 308.603545 
L 647.654963 301.374455 
L 651.381485 294.145364 
L 655.108006 286.916273 
L 658.834527 279.687182 
L 662.561049 272.458091 
L 666.28757 265.229 
L 670.014092 257.999909 
L 673.740613 250.770818 
L 677.467134 243.541727 
L 681.193656 236.312636 
L 684.920177 229.083545 
L 688.646699 221.854455 
L 692.37322 216.458091 
L 696.099742 211.794818 
L 699.826263 207.131545 
L 703.552784 202.468273 
L 707.279306 197.805 
L 711.005827 193.141727 
L 714.732349 188.478455 
L 718.45887 183.815182 
L 722.185391 179.151909 
L 725.911913 174.488636 
L 729.638434 169.825364 
L 733.364956 165.162091 
L 737.091477 160.498818 
L 740.817998 155.835545 
L 744.54452 152.665606 
L 748.271041 150.615667 
L 751.997563 148.565727 
L 755.724084 146.515788 
L 759.450606 144.465848 
L 763.177127 142.415909 
L 766.903648 140.36597 
L 770.63017 138.31603 
L 774.356691 136.266091 
L 778.083213 134.216152 
L 781.809734 132.166212 
L 785.536255 130.116273 
L 789.262777 128.066333 
L 792.989298 126.016394 
L 796.71582 124.068273 
L 800.442341 122.255909 
L 804.168863 120.443545 
L 807.895384 118.631182 
L 811.621905 116.818818 
L 815.348427 115.006455 
L 819.074948 113.194091 
L 822.80147 111.381727 
L 826.527991 109.569364 
L 830.254512 107.757 
L 833.981034 105.944636 
L 837.707555 104.132273 
L 841.434077 102.319909 
L 845.160598 100.507545 
L 848.887119 98.695182 
L 852.613641 96.882818 
L 856.340162 95.070455 
L 860.066684 93.258091 
L 863.793205 91.445727 
L 867.519727 89.633364 
L 871.246248 87.821 
L 874.972769 86.008636 
L 878.699291 84.196273 
L 882.425812 82.383909 
L 886.152334 80.571545 
L 889.878855 78.759182 
L 893.605376 76.946818 
L 897.331898 75.134455 
L 901.058419 73.322091 
L 904.784941 71.509727 
L 908.511462 69.697364 
L 912.237983 67.885 
L 915.964505 66.072636 
L 919.691026 64.260273 
L 923.417548 62.447909 
L 927.144069 60.635545 
L 930.870591 58.823182 
L 934.597112 57.010818 
L 938.323633 55.198455 
L 942.050155 53.386091 
L 945.776676 51.573727 
L 949.503198 49.761364 
L 953.229719 47.949 
" clip-path="url(#p5584c5b80a)" style="fill: none; stroke: #800080; stroke-width: 3; stroke-linecap: square"/>
   </g>
   <g id="line2d_41">
    <path d="M 584.304099 451.149 
L 588.030621 162.334455 
L 591.757142 161.519909 
L 595.483663 160.705364 
L 599.210185 159.890818 
L 602.936706 159.076273 
L 606.663228 158.261727 
L 610.389749 157.447182 
L 614.11627 156.632636 
L 617.842792 155.818091 
L 621.569313 155.003545 
L 625.295835 154.189 
L 629.022356 153.374455 
L 632.748878 152.559909 
L 636.475399 151.745364 
L 640.20192 94.029 
L 643.928442 94.029 
L 647.654963 94.029 
L 651.381485 94.029 
L 655.108006 94.029 
L 658.834527 94.029 
L 662.561049 94.029 
L 666.28757 94.029 
L 670.014092 94.029 
L 673.740613 94.029 
L 677.467134 94.029 
L 681.193656 94.029 
L 684.920177 94.029 
L 688.646699 94.029 
L 692.37322 70.698091 
L 696.099742 70.290818 
L 699.826263 69.883545 
L 703.552784 69.476273 
L 707.279306 69.069 
L 711.005827 68.661727 
L 714.732349 68.254455 
L 718.45887 67.847182 
L 722.185391 67.439909 
L 725.911913 67.032636 
L 729.638434 66.625364 
L 733.364956 66.218091 
L 737.091477 65.810818 
L 740.817998 65.403545 
L 744.54452 53.709 
L 748.271041 53.709 
L 751.997563 53.709 
L 755.724084 53.709 
L 759.450606 53.709 
L 763.177127 53.709 
L 766.903648 53.709 
L 770.63017 53.709 
L 774.356691 53.709 
L 778.083213 53.709 
L 781.809734 53.709 
L 785.536255 53.709 
L 789.262777 53.709 
L 792.989298 53.709 
L 796.71582 53.709 
L 800.442341 53.709 
L 804.168863 53.709 
L 807.895384 53.709 
L 811.621905 53.709 
L 815.348427 53.709 
L 819.074948 53.709 
L 822.80147 53.709 
L 826.527991 53.709 
L 830.254512 53.709 
L 833.981034 53.709 
L 837.707555 53.709 
L 841.434077 53.709 
L 845.160598 53.709 
L 848.887119 53.709 
L 852.613641 53.709 
L 856.340162 53.709 
L 860.066684 53.709 
L 863.793205 53.709 
L 867.519727 53.709 
L 871.246248 53.709 
L 874.972769 53.709 
L 878.699291 53.709 
L 882.425812 53.709 
L 886.152334 53.709 
L 889.878855 53.709 
L 893.605376 53.709 
L 897.331898 53.709 
L 901.058419 47.949 
L 904.784941 47.949 
L 908.511462 47.949 
L 912.237983 47.949 
L 915.964505 47.949 
L 919.691026 47.949 
L 923.417548 47.949 
L 927.144069 47.949 
L 930.870591 47.949 
L 934.597112 47.949 
L 938.323633 47.949 
L 942.050155 47.949 
L 945.776676 47.949 
L 949.503198 47.949 
L 953.229719 47.949 
" clip-path="url(#p5584c5b80a)" style="fill: none; stroke: #ff0000; stroke-width: 3; stroke-linecap: square"/>
   </g>
   <g id="line2d_42">
    <path d="M 584.304099 451.149 
L 588.030621 47.949 
L 591.757142 47.949 
L 595.483663 47.949 
L 599.210185 47.949 
L 602.936706 47.949 
L 606.663228 47.949 
L 610.389749 47.949 
L 614.11627 47.949 
L 617.842792 47.949 
L 621.569313 47.949 
L 625.295835 47.949 
L 629.022356 47.949 
L 632.748878 47.949 
L 636.475399 47.949 
L 640.20192 47.949 
L 643.928442 47.949 
L 647.654963 47.949 
L 651.381485 47.949 
L 655.108006 47.949 
L 658.834527 47.949 
L 662.561049 47.949 
L 666.28757 47.949 
L 670.014092 47.949 
L 673.740613 47.949 
L 677.467134 47.949 
L 681.193656 47.949 
L 684.920177 47.949 
L 688.646699 47.949 
L 692.37322 47.949 
L 696.099742 47.949 
L 699.826263 47.949 
L 703.552784 47.949 
L 707.279306 47.949 
L 711.005827 47.949 
L 714.732349 47.949 
L 718.45887 47.949 
L 722.185391 47.949 
L 725.911913 47.949 
L 729.638434 47.949 
L 733.364956 47.949 
L 737.091477 47.949 
L 740.817998 47.949 
L 744.54452 47.949 
L 748.271041 47.949 
L 751.997563 47.949 
L 755.724084 47.949 
L 759.450606 47.949 
L 763.177127 47.949 
L 766.903648 47.949 
L 770.63017 47.949 
L 774.356691 47.949 
L 778.083213 47.949 
L 781.809734 47.949 
L 785.536255 47.949 
L 789.262777 47.949 
L 792.989298 47.949 
L 796.71582 47.949 
L 800.442341 47.949 
L 804.168863 47.949 
L 807.895384 47.949 
L 811.621905 47.949 
L 815.348427 47.949 
L 819.074948 47.949 
L 822.80147 47.949 
L 826.527991 47.949 
L 830.254512 47.949 
L 833.981034 47.949 
L 837.707555 47.949 
L 841.434077 47.949 
L 845.160598 47.949 
L 848.887119 47.949 
L 852.613641 47.949 
L 856.340162 47.949 
L 860.066684 47.949 
L 863.793205 47.949 
L 867.519727 47.949 
L 871.246248 47.949 
L 874.972769 47.949 
L 878.699291 47.949 
L 882.425812 47.949 
L 886.152334 47.949 
L 889.878855 47.949 
L 893.605376 47.949 
L 897.331898 47.949 
L 901.058419 47.949 
L 904.784941 47.949 
L 908.511462 47.949 
L 912.237983 47.949 
L 915.964505 47.949 
L 919.691026 47.949 
L 923.417548 47.949 
L 927.144069 47.949 
L 930.870591 47.949 
L 934.597112 47.949 
L 938.323633 47.949 
L 942.050155 47.949 
L 945.776676 47.949 
L 949.503198 47.949 
L 953.229719 47.949 
" clip-path="url(#p5584c5b80a)" style="fill: none; stroke: #00ffff; stroke-width: 3; stroke-linecap: square"/>
   </g>
   <g id="line2d_43">
    <path d="M 584.304099 451.149 
L 588.030621 174.669 
L 591.757142 174.669 
L 595.483663 174.669 
L 599.210185 174.669 
L 602.936706 174.669 
L 606.663228 174.669 
L 610.389749 174.669 
L 614.11627 174.669 
L 617.842792 174.669 
L 621.569313 174.669 
L 625.295835 174.669 
L 629.022356 174.669 
L 632.748878 174.669 
L 636.475399 174.669 
L 640.20192 105.549 
L 643.928442 105.549 
L 647.654963 105.549 
L 651.381485 105.549 
L 655.108006 105.549 
L 658.834527 105.549 
L 662.561049 105.549 
L 666.28757 105.549 
L 670.014092 105.549 
L 673.740613 105.549 
L 677.467134 105.549 
L 681.193656 105.549 
L 684.920177 105.549 
L 688.646699 105.549 
L 692.37322 65.229 
L 696.099742 65.229 
L 699.826263 65.229 
L 703.552784 65.229 
L 707.279306 65.229 
L 711.005827 65.229 
L 714.732349 65.229 
L 718.45887 65.229 
L 722.185391 65.229 
L 725.911913 65.229 
L 729.638434 65.229 
L 733.364956 65.229 
L 737.091477 65.229 
L 740.817998 65.229 
L 744.54452 65.229 
L 748.271041 65.229 
L 751.997563 65.229 
L 755.724084 65.229 
L 759.450606 65.229 
L 763.177127 65.229 
L 766.903648 65.229 
L 770.63017 65.229 
L 774.356691 65.229 
L 778.083213 65.229 
L 781.809734 65.229 
L 785.536255 65.229 
L 789.262777 65.229 
L 792.989298 65.229 
L 796.71582 65.229 
L 800.442341 65.229 
L 804.168863 65.229 
L 807.895384 65.229 
L 811.621905 65.229 
L 815.348427 65.229 
L 819.074948 65.229 
L 822.80147 65.229 
L 826.527991 65.229 
L 830.254512 65.229 
L 833.981034 65.229 
L 837.707555 65.229 
L 841.434077 65.229 
L 845.160598 65.229 
L 848.887119 47.949 
L 852.613641 47.949 
L 856.340162 47.949 
L 860.066684 47.949 
L 863.793205 47.949 
L 867.519727 47.949 
L 871.246248 47.949 
L 874.972769 47.949 
L 878.699291 47.949 
L 882.425812 47.949 
L 886.152334 47.949 
L 889.878855 47.949 
L 893.605376 47.949 
L 897.331898 47.949 
L 901.058419 47.949 
L 904.784941 47.949 
L 908.511462 47.949 
L 912.237983 47.949 
L 915.964505 47.949 
L 919.691026 47.949 
L 923.417548 47.949 
L 927.144069 47.949 
L 930.870591 47.949 
L 934.597112 47.949 
L 938.323633 47.949 
L 942.050155 47.949 
L 945.776676 47.949 
L 949.503198 47.949 
L 953.229719 47.949 
" clip-path="url(#p5584c5b80a)" style="fill: none; stroke: #a52a2a; stroke-width: 3; stroke-linecap: square"/>
   </g>
   <g id="line2d_44">
    <path d="M 584.304099 451.149 
L 588.030621 438.25203 
L 591.757142 425.355061 
L 595.483663 412.458091 
L 599.210185 399.561121 
L 602.936706 386.664152 
L 606.663228 373.767182 
L 610.389749 360.870212 
L 614.11627 347.973242 
L 617.842792 335.076273 
L 621.569313 322.179303 
L 625.295835 309.282333 
L 629.022356 296.385364 
L 632.748878 283.488394 
L 636.475399 270.591424 
L 640.20192 262.989 
L 643.928442 256.269 
L 647.654963 249.549 
L 651.381485 242.829 
L 655.108006 236.109 
L 658.834527 229.389 
L 662.561049 222.669 
L 666.28757 215.949 
L 670.014092 209.229 
L 673.740613 202.509 
L 677.467134 195.789 
L 681.193656 189.069 
L 684.920177 182.349 
L 688.646699 175.629 
L 692.37322 172.167182 
L 696.099742 170.008636 
L 699.826263 167.850091 
L 703.552784 165.691545 
L 707.279306 163.533 
L 711.005827 161.374455 
L 714.732349 159.215909 
L 718.45887 157.057364 
L 722.185391 154.898818 
L 725.911913 152.740273 
L 729.638434 150.581727 
L 733.364956 148.423182 
L 737.091477 146.264636 
L 740.817998 144.106091 
L 744.54452 142.219061 
L 748.271041 140.535667 
L 751.997563 138.852273 
L 755.724084 137.168879 
L 759.450606 135.485485 
L 763.177127 133.802091 
L 766.903648 132.118697 
L 770.63017 130.435303 
L 774.356691 128.751909 
L 778.083213 127.068515 
L 781.809734 125.385121 
L 785.536255 123.701727 
L 789.262777 122.018333 
L 792.989298 120.334939 
L 796.71582 118.651545 
L 800.442341 116.968152 
L 804.168863 115.284758 
L 807.895384 113.601364 
L 811.621905 111.91797 
L 815.348427 110.234576 
L 819.074948 108.551182 
L 822.80147 106.867788 
L 826.527991 105.184394 
L 830.254512 103.501 
L 833.981034 101.817606 
L 837.707555 100.134212 
L 841.434077 98.450818 
L 845.160598 96.767424 
L 848.887119 95.08403 
L 852.613641 93.400636 
L 856.340162 91.717242 
L 860.066684 90.033848 
L 863.793205 88.350455 
L 867.519727 86.667061 
L 871.246248 84.983667 
L 874.972769 83.300273 
L 878.699291 81.616879 
L 882.425812 79.933485 
L 886.152334 78.250091 
L 889.878855 76.566697 
L 893.605376 74.883303 
L 897.331898 73.199909 
L 901.058419 71.516515 
L 904.784941 69.833121 
L 908.511462 68.149727 
L 912.237983 66.466333 
L 915.964505 64.782939 
L 919.691026 63.099545 
L 923.417548 61.416152 
L 927.144069 59.732758 
L 930.870591 58.049364 
L 934.597112 56.36597 
L 938.323633 54.682576 
L 942.050155 52.999182 
L 945.776676 51.315788 
L 949.503198 49.632394 
L 953.229719 47.949 
" clip-path="url(#p5584c5b80a)" style="fill: none; stroke: #ffc0cb; stroke-width: 3; stroke-linecap: square"/>
   </g>
   <g id="line2d_45">
    <path d="M 584.304099 451.149 
L 588.030621 225.694455 
L 591.757142 224.879909 
L 595.483663 224.065364 
L 599.210185 223.250818 
L 602.936706 222.436273 
L 606.663228 221.621727 
L 610.389749 220.807182 
L 614.11627 219.992636 
L 617.842792 219.178091 
L 621.569313 218.363545 
L 625.295835 217.549 
L 629.022356 216.734455 
L 632.748878 215.919909 
L 636.475399 215.105364 
L 640.20192 145.869 
L 643.928442 145.869 
L 647.654963 145.869 
L 651.381485 145.869 
L 655.108006 145.869 
L 658.834527 145.869 
L 662.561049 145.869 
L 666.28757 145.869 
L 670.014092 145.869 
L 673.740613 145.869 
L 677.467134 145.869 
L 681.193656 145.869 
L 684.920177 145.869 
L 688.646699 145.869 
L 692.37322 122.829 
L 696.099742 122.829 
L 699.826263 122.829 
L 703.552784 122.829 
L 707.279306 122.829 
L 711.005827 122.829 
L 714.732349 122.829 
L 718.45887 122.829 
L 722.185391 122.829 
L 725.911913 122.829 
L 729.638434 122.829 
L 733.364956 122.829 
L 737.091477 122.829 
L 740.817998 122.829 
L 744.54452 76.749 
L 748.271041 76.749 
L 751.997563 76.749 
L 755.724084 76.749 
L 759.450606 76.749 
L 763.177127 76.749 
L 766.903648 76.749 
L 770.63017 76.749 
L 774.356691 76.749 
L 778.083213 76.749 
L 781.809734 76.749 
L 785.536255 76.749 
L 789.262777 76.749 
L 792.989298 76.749 
L 796.71582 65.229 
L 800.442341 65.229 
L 804.168863 65.229 
L 807.895384 65.229 
L 811.621905 65.229 
L 815.348427 65.229 
L 819.074948 65.229 
L 822.80147 65.229 
L 826.527991 65.229 
L 830.254512 65.229 
L 833.981034 65.229 
L 837.707555 65.229 
L 841.434077 65.229 
L 845.160598 65.229 
L 848.887119 53.709 
L 852.613641 53.709 
L 856.340162 53.709 
L 860.066684 53.709 
L 863.793205 53.709 
L 867.519727 53.709 
L 871.246248 53.709 
L 874.972769 53.709 
L 878.699291 53.709 
L 882.425812 53.709 
L 886.152334 53.709 
L 889.878855 53.709 
L 893.605376 53.709 
L 897.331898 53.709 
L 901.058419 53.709 
L 904.784941 53.709 
L 908.511462 53.709 
L 912.237983 53.709 
L 915.964505 53.709 
L 919.691026 53.709 
L 923.417548 53.709 
L 927.144069 53.709 
L 930.870591 53.709 
L 934.597112 53.709 
L 938.323633 53.709 
L 942.050155 53.709 
L 945.776676 53.709 
L 949.503198 53.709 
L 953.229719 47.949 
" clip-path="url(#p5584c5b80a)" style="fill: none; stroke: #ffff00; stroke-width: 3; stroke-linecap: square"/>
   </g>
   <g id="line2d_46">
    <path d="M 584.304099 451.149 
L 588.030621 389.922333 
L 591.757142 380.535667 
L 595.483663 371.149 
L 599.210185 361.762333 
L 602.936706 352.375667 
L 606.663228 342.989 
L 610.389749 333.602333 
L 614.11627 324.215667 
L 617.842792 314.829 
L 621.569313 305.442333 
L 625.295835 296.055667 
L 629.022356 286.669 
L 632.748878 277.282333 
L 636.475399 267.895667 
L 640.20192 262.174455 
L 643.928442 257.064152 
L 647.654963 251.953848 
L 651.381485 246.843545 
L 655.108006 241.733242 
L 658.834527 236.622939 
L 662.561049 231.512636 
L 666.28757 226.402333 
L 670.014092 221.29203 
L 673.740613 216.181727 
L 677.467134 211.071424 
L 681.193656 205.961121 
L 684.920177 200.850818 
L 688.646699 195.740515 
L 692.37322 192.259303 
L 696.099742 189.429727 
L 699.826263 186.600152 
L 703.552784 183.770576 
L 707.279306 180.941 
L 711.005827 178.111424 
L 714.732349 175.281848 
L 718.45887 172.452273 
L 722.185391 169.622697 
L 725.911913 166.793121 
L 729.638434 163.963545 
L 733.364956 161.13397 
L 737.091477 158.304394 
L 740.817998 155.474818 
L 744.54452 152.781 
L 748.271041 150.189 
L 751.997563 147.597 
L 755.724084 145.005 
L 759.450606 142.413 
L 763.177127 139.821 
L 766.903648 137.229 
L 770.63017 134.637 
L 774.356691 132.045 
L 778.083213 129.453 
L 781.809734 126.861 
L 785.536255 124.269 
L 789.262777 121.677 
L 792.989298 119.085 
L 796.71582 116.900273 
L 800.442341 115.258576 
L 804.168863 113.616879 
L 807.895384 111.975182 
L 811.621905 110.333485 
L 815.348427 108.691788 
L 819.074948 107.050091 
L 822.80147 105.408394 
L 826.527991 103.766697 
L 830.254512 102.125 
L 833.981034 100.483303 
L 837.707555 98.841606 
L 841.434077 97.199909 
L 845.160598 95.558212 
L 848.887119 93.916515 
L 852.613641 92.274818 
L 856.340162 90.633121 
L 860.066684 88.991424 
L 863.793205 87.349727 
L 867.519727 85.70803 
L 871.246248 84.066333 
L 874.972769 82.424636 
L 878.699291 80.782939 
L 882.425812 79.141242 
L 886.152334 77.499545 
L 889.878855 75.857848 
L 893.605376 74.216152 
L 897.331898 72.574455 
L 901.058419 70.932758 
L 904.784941 69.291061 
L 908.511462 67.649364 
L 912.237983 66.007667 
L 915.964505 64.36597 
L 919.691026 62.724273 
L 923.417548 61.082576 
L 927.144069 59.440879 
L 930.870591 57.799182 
L 934.597112 56.157485 
L 938.323633 54.515788 
L 942.050155 52.874091 
L 945.776676 51.232394 
L 949.503198 49.590697 
L 953.229719 47.949 
" clip-path="url(#p5584c5b80a)" style="fill: none; stroke: #dc143c; stroke-width: 3; stroke-linecap: square"/>
   </g>
   <g id="line2d_47">
    <path d="M 584.304099 451.149 
L 588.030621 261.069 
L 591.757142 261.069 
L 595.483663 261.069 
L 599.210185 261.069 
L 602.936706 261.069 
L 606.663228 261.069 
L 610.389749 261.069 
L 614.11627 261.069 
L 617.842792 261.069 
L 621.569313 261.069 
L 625.295835 261.069 
L 629.022356 261.069 
L 632.748878 261.069 
L 636.475399 261.069 
L 640.20192 186.189 
L 643.928442 186.189 
L 647.654963 186.189 
L 651.381485 186.189 
L 655.108006 186.189 
L 658.834527 186.189 
L 662.561049 186.189 
L 666.28757 186.189 
L 670.014092 186.189 
L 673.740613 186.189 
L 677.467134 186.189 
L 681.193656 186.189 
L 684.920177 186.189 
L 688.646699 186.189 
L 692.37322 128.007182 
L 696.099742 127.192636 
L 699.826263 126.378091 
L 703.552784 125.563545 
L 707.279306 124.749 
L 711.005827 123.934455 
L 714.732349 123.119909 
L 718.45887 122.305364 
L 722.185391 121.490818 
L 725.911913 120.676273 
L 729.638434 119.861727 
L 733.364956 119.047182 
L 737.091477 118.232636 
L 740.817998 117.418091 
L 744.54452 94.029 
L 748.271041 94.029 
L 751.997563 94.029 
L 755.724084 94.029 
L 759.450606 94.029 
L 763.177127 94.029 
L 766.903648 94.029 
L 770.63017 94.029 
L 774.356691 94.029 
L 778.083213 94.029 
L 781.809734 94.029 
L 785.536255 94.029 
L 789.262777 94.029 
L 792.989298 94.029 
L 796.71582 94.029 
L 800.442341 94.029 
L 804.168863 94.029 
L 807.895384 94.029 
L 811.621905 94.029 
L 815.348427 94.029 
L 819.074948 94.029 
L 822.80147 94.029 
L 826.527991 94.029 
L 830.254512 94.029 
L 833.981034 94.029 
L 837.707555 94.029 
L 841.434077 94.029 
L 845.160598 94.029 
L 848.887119 47.949 
L 852.613641 47.949 
L 856.340162 47.949 
L 860.066684 47.949 
L 863.793205 47.949 
L 867.519727 47.949 
L 871.246248 47.949 
L 874.972769 47.949 
L 878.699291 47.949 
L 882.425812 47.949 
L 886.152334 47.949 
L 889.878855 47.949 
L 893.605376 47.949 
L 897.331898 47.949 
L 901.058419 47.949 
L 904.784941 47.949 
L 908.511462 47.949 
L 912.237983 47.949 
L 915.964505 47.949 
L 919.691026 47.949 
L 923.417548 47.949 
L 927.144069 47.949 
L 930.870591 47.949 
L 934.597112 47.949 
L 938.323633 47.949 
L 942.050155 47.949 
L 945.776676 47.949 
L 949.503198 47.949 
L 953.229719 47.949 
" clip-path="url(#p5584c5b80a)" style="fill: none; stroke: #00ff00; stroke-width: 3; stroke-linecap: square"/>
   </g>
   <g id="line2d_48">
    <path d="M 584.304099 451.149 
L 588.030621 443.872394 
L 591.757142 436.595788 
L 595.483663 429.319182 
L 599.210185 422.042576 
L 602.936706 414.76597 
L 606.663228 407.489364 
L 610.389749 400.212758 
L 614.11627 392.936152 
L 617.842792 385.659545 
L 621.569313 378.382939 
L 625.295835 371.106333 
L 629.022356 363.829727 
L 632.748878 356.553121 
L 636.475399 349.276515 
L 640.20192 344.443545 
L 643.928442 340.017848 
L 647.654963 335.592152 
L 651.381485 331.166455 
L 655.108006 326.740758 
L 658.834527 322.315061 
L 662.561049 317.889364 
L 666.28757 313.463667 
L 670.014092 309.03797 
L 673.740613 304.612273 
L 677.467134 300.186576 
L 681.193656 295.760879 
L 684.920177 291.335182 
L 688.646699 286.909485 
L 692.37322 282.687424 
L 696.099742 278.546818 
L 699.826263 274.406212 
L 703.552784 270.265606 
L 707.279306 266.125 
L 711.005827 261.984394 
L 714.732349 257.843788 
L 718.45887 253.703182 
L 722.185391 249.562576 
L 725.911913 245.42197 
L 729.638434 241.281364 
L 733.364956 237.140758 
L 737.091477 233.000152 
L 740.817998 228.859545 
L 744.54452 224.990455 
L 748.271041 221.325 
L 751.997563 217.659545 
L 755.724084 213.994091 
L 759.450606 210.328636 
L 763.177127 206.663182 
L 766.903648 202.997727 
L 770.63017 199.332273 
L 774.356691 195.666818 
L 778.083213 192.001364 
L 781.809734 188.335909 
L 785.536255 184.670455 
L 789.262777 181.005 
L 792.989298 177.339545 
L 796.71582 173.877727 
L 800.442341 170.687424 
L 804.168863 167.497121 
L 807.895384 164.306818 
L 811.621905 161.116515 
L 815.348427 157.926212 
L 819.074948 154.735909 
L 822.80147 151.545606 
L 826.527991 148.355303 
L 830.254512 145.165 
L 833.981034 141.974697 
L 837.707555 138.784394 
L 841.434077 135.594091 
L 845.160598 132.403788 
L 848.887119 129.294939 
L 852.613641 126.389727 
L 856.340162 123.484515 
L 860.066684 120.579303 
L 863.793205 117.674091 
L 867.519727 114.768879 
L 871.246248 111.863667 
L 874.972769 108.958455 
L 878.699291 106.053242 
L 882.425812 103.14803 
L 886.152334 100.242818 
L 889.878855 97.337606 
L 893.605376 94.432394 
L 897.331898 91.527182 
L 901.058419 88.62197 
L 904.784941 85.716758 
L 908.511462 82.811545 
L 912.237983 79.906333 
L 915.964505 77.001121 
L 919.691026 74.095909 
L 923.417548 71.190697 
L 927.144069 68.285485 
L 930.870591 65.380273 
L 934.597112 62.475061 
L 938.323633 59.569848 
L 942.050155 56.664636 
L 945.776676 53.759424 
L 949.503198 50.854212 
L 953.229719 47.949 
" clip-path="url(#p5584c5b80a)" style="fill: none; stroke: #808000; stroke-width: 3; stroke-linecap: square"/>
   </g>
   <g id="line2d_49">
    <path d="M 584.304099 451.149 
L 953.229719 47.949 
" clip-path="url(#p5584c5b80a)" style="fill: none; stroke-dasharray: 11.1,4.8; stroke-dashoffset: 0; stroke: #000000; stroke-width: 3"/>
   </g>
   <g id="patch_21">
    <path d="M 565.857818 471.309 
L 565.857818 27.789 
" style="fill: none; stroke: #000000; stroke-width: 2.5; stroke-linejoin: miter; stroke-linecap: square"/>
   </g>
   <g id="patch_22">
    <path d="M 971.676 471.309 
L 971.676 27.789 
" style="fill: none; stroke: #000000; stroke-width: 2.5; stroke-linejoin: miter; stroke-linecap: square"/>
   </g>
   <g id="patch_23">
    <path d="M 565.857818 471.309 
L 971.676 471.309 
" style="fill: none; stroke: #000000; stroke-width: 2.5; stroke-linejoin: miter; stroke-linecap: square"/>
   </g>
   <g id="patch_24">
    <path d="M 565.857818 27.789 
L 971.676 27.789 
" style="fill: none; stroke: #000000; stroke-width: 2.5; stroke-linejoin: miter; stroke-linecap: square"/>
   </g>
   <g id="text_55">
    <!-- Roc Curves For All Options -->
    <g transform="translate(641.911909 21.789) scale(0.192 -0.192)">
     <use xlink:href="#DejaVuSans-52"/>
     <use xlink:href="#DejaVuSans-6f" x="64.982422"/>
     <use xlink:href="#DejaVuSans-63" x="126.164062"/>
     <use xlink:href="#DejaVuSans-20" x="181.144531"/>
     <use xlink:href="#DejaVuSans-43" x="212.931641"/>
     <use xlink:href="#DejaVuSans-75" x="282.755859"/>
     <use xlink:href="#DejaVuSans-72" x="346.134766"/>
     <use xlink:href="#DejaVuSans-76" x="387.248047"/>
     <use xlink:href="#DejaVuSans-65" x="446.427734"/>
     <use xlink:href="#DejaVuSans-73" x="507.951172"/>
     <use xlink:href="#DejaVuSans-20" x="560.050781"/>
     <use xlink:href="#DejaVuSans-46" x="591.837891"/>
     <use xlink:href="#DejaVuSans-6f" x="645.732422"/>
     <use xlink:href="#DejaVuSans-72" x="706.914062"/>
     <use xlink:href="#DejaVuSans-20" x="748.027344"/>
     <use xlink:href="#DejaVuSans-41" x="779.814453"/>
     <use xlink:href="#DejaVuSans-6c" x="848.222656"/>
     <use xlink:href="#DejaVuSans-6c" x="876.005859"/>
     <use xlink:href="#DejaVuSans-20" x="903.789062"/>
     <use xlink:href="#DejaVuSans-4f" x="935.576172"/>
     <use xlink:href="#DejaVuSans-70" x="1014.287109"/>
     <use xlink:href="#DejaVuSans-74" x="1077.763672"/>
     <use xlink:href="#DejaVuSans-69" x="1116.972656"/>
     <use xlink:href="#DejaVuSans-6f" x="1144.755859"/>
     <use xlink:href="#DejaVuSans-6e" x="1205.9375"/>
     <use xlink:href="#DejaVuSans-73" x="1269.316406"/>
    </g>
   </g>
   <g id="legend_2">
    <g id="patch_25">
     <path d="M 659.33925 462.509 
L 959.356 462.509 
Q 962.876 462.509 962.876 458.989 
L 962.876 144.873 
Q 962.876 141.353 959.356 141.353 
L 659.33925 141.353 
Q 655.81925 141.353 655.81925 144.873 
L 655.81925 458.989 
Q 655.81925 462.509 659.33925 462.509 
z
" style="fill: #ffffff; opacity: 0.8; stroke: #cccccc; stroke-width: 2; stroke-linejoin: miter"/>
    </g>
    <g id="line2d_50">
     <path d="M 662.85925 155.60625 
L 680.45925 155.60625 
L 698.05925 155.60625 
" style="fill: none; stroke: #ffa500; stroke-width: 3; stroke-linecap: square"/>
    </g>
    <g id="text_56">
     <!-- OHE_DI_FI (LR): 0.85 -->
     <g transform="translate(712.13925 161.76625) scale(0.176 -0.176)">
      <defs>
       <path id="DejaVuSans-28" d="M 1984 4856 
Q 1566 4138 1362 3434 
Q 1159 2731 1159 2009 
Q 1159 1288 1364 580 
Q 1569 -128 1984 -844 
L 1484 -844 
Q 1016 -109 783 600 
Q 550 1309 550 2009 
Q 550 2706 781 3412 
Q 1013 4119 1484 4856 
L 1984 4856 
z
" transform="scale(0.015625)"/>
       <path id="DejaVuSans-29" d="M 513 4856 
L 1013 4856 
Q 1481 4119 1714 3412 
Q 1947 2706 1947 2009 
Q 1947 1309 1714 600 
Q 1481 -109 1013 -844 
L 513 -844 
Q 928 -128 1133 580 
Q 1338 1288 1338 2009 
Q 1338 2731 1133 3434 
Q 928 4138 513 4856 
z
" transform="scale(0.015625)"/>
       <path id="DejaVuSans-3a" d="M 750 794 
L 1409 794 
L 1409 0 
L 750 0 
L 750 794 
z
M 750 3309 
L 1409 3309 
L 1409 2516 
L 750 2516 
L 750 3309 
z
" transform="scale(0.015625)"/>
      </defs>
      <use xlink:href="#DejaVuSans-4f"/>
      <use xlink:href="#DejaVuSans-48" x="78.710938"/>
      <use xlink:href="#DejaVuSans-45" x="153.90625"/>
      <use xlink:href="#DejaVuSans-5f" x="217.089844"/>
      <use xlink:href="#DejaVuSans-44" x="267.089844"/>
      <use xlink:href="#DejaVuSans-49" x="344.091797"/>
      <use xlink:href="#DejaVuSans-5f" x="373.583984"/>
      <use xlink:href="#DejaVuSans-46" x="423.583984"/>
      <use xlink:href="#DejaVuSans-49" x="481.103516"/>
      <use xlink:href="#DejaVuSans-20" x="510.595703"/>
      <use xlink:href="#DejaVuSans-28" x="542.382812"/>
      <use xlink:href="#DejaVuSans-4c" x="581.396484"/>
      <use xlink:href="#DejaVuSans-52" x="637.109375"/>
      <use xlink:href="#DejaVuSans-29" x="706.591797"/>
      <use xlink:href="#DejaVuSans-3a" x="745.605469"/>
      <use xlink:href="#DejaVuSans-20" x="779.296875"/>
      <use xlink:href="#DejaVuSans-30" x="811.083984"/>
      <use xlink:href="#DejaVuSans-2e" x="874.707031"/>
      <use xlink:href="#DejaVuSans-38" x="906.494141"/>
      <use xlink:href="#DejaVuSans-35" x="970.117188"/>
     </g>
    </g>
    <g id="line2d_51">
     <path d="M 662.85925 181.92925 
L 680.45925 181.92925 
L 698.05925 181.92925 
" style="fill: none; stroke: #0000ff; stroke-width: 3; stroke-linecap: square"/>
    </g>
    <g id="text_57">
     <!-- OHE_DI_FI (CF): 0.99 -->
     <g transform="translate(712.13925 188.08925) scale(0.176 -0.176)">
      <use xlink:href="#DejaVuSans-4f"/>
      <use xlink:href="#DejaVuSans-48" x="78.710938"/>
      <use xlink:href="#DejaVuSans-45" x="153.90625"/>
      <use xlink:href="#DejaVuSans-5f" x="217.089844"/>
      <use xlink:href="#DejaVuSans-44" x="267.089844"/>
      <use xlink:href="#DejaVuSans-49" x="344.091797"/>
      <use xlink:href="#DejaVuSans-5f" x="373.583984"/>
      <use xlink:href="#DejaVuSans-46" x="423.583984"/>
      <use xlink:href="#DejaVuSans-49" x="481.103516"/>
      <use xlink:href="#DejaVuSans-20" x="510.595703"/>
      <use xlink:href="#DejaVuSans-28" x="542.382812"/>
      <use xlink:href="#DejaVuSans-43" x="581.396484"/>
      <use xlink:href="#DejaVuSans-46" x="651.220703"/>
      <use xlink:href="#DejaVuSans-29" x="708.740234"/>
      <use xlink:href="#DejaVuSans-3a" x="747.753906"/>
      <use xlink:href="#DejaVuSans-20" x="781.445312"/>
      <use xlink:href="#DejaVuSans-30" x="813.232422"/>
      <use xlink:href="#DejaVuSans-2e" x="876.855469"/>
      <use xlink:href="#DejaVuSans-39" x="908.642578"/>
      <use xlink:href="#DejaVuSans-39" x="972.265625"/>
     </g>
    </g>
    <g id="line2d_52">
     <path d="M 662.85925 208.25225 
L 680.45925 208.25225 
L 698.05925 208.25225 
" style="fill: none; stroke: #008000; stroke-width: 3; stroke-linecap: square"/>
    </g>
    <g id="text_58">
     <!-- CDT_DI_OHE (SVM): 0.87 -->
     <g transform="translate(712.13925 214.41225) scale(0.176 -0.176)">
      <use xlink:href="#DejaVuSans-43"/>
      <use xlink:href="#DejaVuSans-44" x="69.824219"/>
      <use xlink:href="#DejaVuSans-54" x="146.826172"/>
      <use xlink:href="#DejaVuSans-5f" x="207.910156"/>
      <use xlink:href="#DejaVuSans-44" x="257.910156"/>
      <use xlink:href="#DejaVuSans-49" x="334.912109"/>
      <use xlink:href="#DejaVuSans-5f" x="364.404297"/>
      <use xlink:href="#DejaVuSans-4f" x="414.404297"/>
      <use xlink:href="#DejaVuSans-48" x="493.115234"/>
      <use xlink:href="#DejaVuSans-45" x="568.310547"/>
      <use xlink:href="#DejaVuSans-20" x="631.494141"/>
      <use xlink:href="#DejaVuSans-28" x="663.28125"/>
      <use xlink:href="#DejaVuSans-53" x="702.294922"/>
      <use xlink:href="#DejaVuSans-56" x="765.771484"/>
      <use xlink:href="#DejaVuSans-4d" x="834.179688"/>
      <use xlink:href="#DejaVuSans-29" x="920.458984"/>
      <use xlink:href="#DejaVuSans-3a" x="959.472656"/>
      <use xlink:href="#DejaVuSans-20" x="993.164062"/>
      <use xlink:href="#DejaVuSans-30" x="1024.951172"/>
      <use xlink:href="#DejaVuSans-2e" x="1088.574219"/>
      <use xlink:href="#DejaVuSans-38" x="1120.361328"/>
      <use xlink:href="#DejaVuSans-37" x="1183.984375"/>
     </g>
    </g>
    <g id="line2d_53">
     <path d="M 662.85925 234.57525 
L 680.45925 234.57525 
L 698.05925 234.57525 
" style="fill: none; stroke: #800080; stroke-width: 3; stroke-linecap: square"/>
    </g>
    <g id="text_59">
     <!-- CDT_DI_OHE (CF): 0.68 -->
     <g transform="translate(712.13925 240.73525) scale(0.176 -0.176)">
      <use xlink:href="#DejaVuSans-43"/>
      <use xlink:href="#DejaVuSans-44" x="69.824219"/>
      <use xlink:href="#DejaVuSans-54" x="146.826172"/>
      <use xlink:href="#DejaVuSans-5f" x="207.910156"/>
      <use xlink:href="#DejaVuSans-44" x="257.910156"/>
      <use xlink:href="#DejaVuSans-49" x="334.912109"/>
      <use xlink:href="#DejaVuSans-5f" x="364.404297"/>
      <use xlink:href="#DejaVuSans-4f" x="414.404297"/>
      <use xlink:href="#DejaVuSans-48" x="493.115234"/>
      <use xlink:href="#DejaVuSans-45" x="568.310547"/>
      <use xlink:href="#DejaVuSans-20" x="631.494141"/>
      <use xlink:href="#DejaVuSans-28" x="663.28125"/>
      <use xlink:href="#DejaVuSans-43" x="702.294922"/>
      <use xlink:href="#DejaVuSans-46" x="772.119141"/>
      <use xlink:href="#DejaVuSans-29" x="829.638672"/>
      <use xlink:href="#DejaVuSans-3a" x="868.652344"/>
      <use xlink:href="#DejaVuSans-20" x="902.34375"/>
      <use xlink:href="#DejaVuSans-30" x="934.130859"/>
      <use xlink:href="#DejaVuSans-2e" x="997.753906"/>
      <use xlink:href="#DejaVuSans-36" x="1029.541016"/>
      <use xlink:href="#DejaVuSans-38" x="1093.164062"/>
     </g>
    </g>
    <g id="line2d_54">
     <path d="M 662.85925 260.89825 
L 680.45925 260.89825 
L 698.05925 260.89825 
" style="fill: none; stroke: #ff0000; stroke-width: 3; stroke-linecap: square"/>
    </g>
    <g id="text_60">
     <!-- OHE_DI (RF): 0.93 -->
     <g transform="translate(712.13925 267.05825) scale(0.176 -0.176)">
      <use xlink:href="#DejaVuSans-4f"/>
      <use xlink:href="#DejaVuSans-48" x="78.710938"/>
      <use xlink:href="#DejaVuSans-45" x="153.90625"/>
      <use xlink:href="#DejaVuSans-5f" x="217.089844"/>
      <use xlink:href="#DejaVuSans-44" x="267.089844"/>
      <use xlink:href="#DejaVuSans-49" x="344.091797"/>
      <use xlink:href="#DejaVuSans-20" x="373.583984"/>
      <use xlink:href="#DejaVuSans-28" x="405.371094"/>
      <use xlink:href="#DejaVuSans-52" x="444.384766"/>
      <use xlink:href="#DejaVuSans-46" x="513.867188"/>
      <use xlink:href="#DejaVuSans-29" x="571.386719"/>
      <use xlink:href="#DejaVuSans-3a" x="610.400391"/>
      <use xlink:href="#DejaVuSans-20" x="644.091797"/>
      <use xlink:href="#DejaVuSans-30" x="675.878906"/>
      <use xlink:href="#DejaVuSans-2e" x="739.501953"/>
      <use xlink:href="#DejaVuSans-39" x="771.289062"/>
      <use xlink:href="#DejaVuSans-33" x="834.912109"/>
     </g>
    </g>
    <g id="line2d_55">
     <path d="M 662.85925 287.22125 
L 680.45925 287.22125 
L 698.05925 287.22125 
" style="fill: none; stroke: #00ffff; stroke-width: 3; stroke-linecap: square"/>
    </g>
    <g id="text_61">
     <!-- OHE_DI (CF): 0.99 -->
     <g transform="translate(712.13925 293.38125) scale(0.176 -0.176)">
      <use xlink:href="#DejaVuSans-4f"/>
      <use xlink:href="#DejaVuSans-48" x="78.710938"/>
      <use xlink:href="#DejaVuSans-45" x="153.90625"/>
      <use xlink:href="#DejaVuSans-5f" x="217.089844"/>
      <use xlink:href="#DejaVuSans-44" x="267.089844"/>
      <use xlink:href="#DejaVuSans-49" x="344.091797"/>
      <use xlink:href="#DejaVuSans-20" x="373.583984"/>
      <use xlink:href="#DejaVuSans-28" x="405.371094"/>
      <use xlink:href="#DejaVuSans-43" x="444.384766"/>
      <use xlink:href="#DejaVuSans-46" x="514.208984"/>
      <use xlink:href="#DejaVuSans-29" x="571.728516"/>
      <use xlink:href="#DejaVuSans-3a" x="610.742188"/>
      <use xlink:href="#DejaVuSans-20" x="644.433594"/>
      <use xlink:href="#DejaVuSans-30" x="676.220703"/>
      <use xlink:href="#DejaVuSans-2e" x="739.84375"/>
      <use xlink:href="#DejaVuSans-39" x="771.630859"/>
      <use xlink:href="#DejaVuSans-39" x="835.253906"/>
     </g>
    </g>
    <g id="line2d_56">
     <path d="M 662.85925 313.54425 
L 680.45925 313.54425 
L 698.05925 313.54425 
" style="fill: none; stroke: #a52a2a; stroke-width: 3; stroke-linecap: square"/>
    </g>
    <g id="text_62">
     <!-- CDT_DI_FI_OHE (SVM): 0.91 -->
     <g transform="translate(712.13925 319.70425) scale(0.176 -0.176)">
      <use xlink:href="#DejaVuSans-43"/>
      <use xlink:href="#DejaVuSans-44" x="69.824219"/>
      <use xlink:href="#DejaVuSans-54" x="146.826172"/>
      <use xlink:href="#DejaVuSans-5f" x="207.910156"/>
      <use xlink:href="#DejaVuSans-44" x="257.910156"/>
      <use xlink:href="#DejaVuSans-49" x="334.912109"/>
      <use xlink:href="#DejaVuSans-5f" x="364.404297"/>
      <use xlink:href="#DejaVuSans-46" x="414.404297"/>
      <use xlink:href="#DejaVuSans-49" x="471.923828"/>
      <use xlink:href="#DejaVuSans-5f" x="501.416016"/>
      <use xlink:href="#DejaVuSans-4f" x="551.416016"/>
      <use xlink:href="#DejaVuSans-48" x="630.126953"/>
      <use xlink:href="#DejaVuSans-45" x="705.322266"/>
      <use xlink:href="#DejaVuSans-20" x="768.505859"/>
      <use xlink:href="#DejaVuSans-28" x="800.292969"/>
      <use xlink:href="#DejaVuSans-53" x="839.306641"/>
      <use xlink:href="#DejaVuSans-56" x="902.783203"/>
      <use xlink:href="#DejaVuSans-4d" x="971.191406"/>
      <use xlink:href="#DejaVuSans-29" x="1057.470703"/>
      <use xlink:href="#DejaVuSans-3a" x="1096.484375"/>
      <use xlink:href="#DejaVuSans-20" x="1130.175781"/>
      <use xlink:href="#DejaVuSans-30" x="1161.962891"/>
      <use xlink:href="#DejaVuSans-2e" x="1225.585938"/>
      <use xlink:href="#DejaVuSans-39" x="1257.373047"/>
      <use xlink:href="#DejaVuSans-31" x="1320.996094"/>
     </g>
    </g>
    <g id="line2d_57">
     <path d="M 662.85925 339.86725 
L 680.45925 339.86725 
L 698.05925 339.86725 
" style="fill: none; stroke: #ffc0cb; stroke-width: 3; stroke-linecap: square"/>
    </g>
    <g id="text_63">
     <!-- CDT_DI_FI_OHE (CF): 0.72 -->
     <g transform="translate(712.13925 346.02725) scale(0.176 -0.176)">
      <use xlink:href="#DejaVuSans-43"/>
      <use xlink:href="#DejaVuSans-44" x="69.824219"/>
      <use xlink:href="#DejaVuSans-54" x="146.826172"/>
      <use xlink:href="#DejaVuSans-5f" x="207.910156"/>
      <use xlink:href="#DejaVuSans-44" x="257.910156"/>
      <use xlink:href="#DejaVuSans-49" x="334.912109"/>
      <use xlink:href="#DejaVuSans-5f" x="364.404297"/>
      <use xlink:href="#DejaVuSans-46" x="414.404297"/>
      <use xlink:href="#DejaVuSans-49" x="471.923828"/>
      <use xlink:href="#DejaVuSans-5f" x="501.416016"/>
      <use xlink:href="#DejaVuSans-4f" x="551.416016"/>
      <use xlink:href="#DejaVuSans-48" x="630.126953"/>
      <use xlink:href="#DejaVuSans-45" x="705.322266"/>
      <use xlink:href="#DejaVuSans-20" x="768.505859"/>
      <use xlink:href="#DejaVuSans-28" x="800.292969"/>
      <use xlink:href="#DejaVuSans-43" x="839.306641"/>
      <use xlink:href="#DejaVuSans-46" x="909.130859"/>
      <use xlink:href="#DejaVuSans-29" x="966.650391"/>
      <use xlink:href="#DejaVuSans-3a" x="1005.664062"/>
      <use xlink:href="#DejaVuSans-20" x="1039.355469"/>
      <use xlink:href="#DejaVuSans-30" x="1071.142578"/>
      <use xlink:href="#DejaVuSans-2e" x="1134.765625"/>
      <use xlink:href="#DejaVuSans-37" x="1166.552734"/>
      <use xlink:href="#DejaVuSans-32" x="1230.175781"/>
     </g>
    </g>
    <g id="line2d_58">
     <path d="M 662.85925 366.19025 
L 680.45925 366.19025 
L 698.05925 366.19025 
" style="fill: none; stroke: #ffff00; stroke-width: 3; stroke-linecap: square"/>
    </g>
    <g id="text_64">
     <!-- CDT_DI (RF): 0.85 -->
     <g transform="translate(712.13925 372.35025) scale(0.176 -0.176)">
      <use xlink:href="#DejaVuSans-43"/>
      <use xlink:href="#DejaVuSans-44" x="69.824219"/>
      <use xlink:href="#DejaVuSans-54" x="146.826172"/>
      <use xlink:href="#DejaVuSans-5f" x="207.910156"/>
      <use xlink:href="#DejaVuSans-44" x="257.910156"/>
      <use xlink:href="#DejaVuSans-49" x="334.912109"/>
      <use xlink:href="#DejaVuSans-20" x="364.404297"/>
      <use xlink:href="#DejaVuSans-28" x="396.191406"/>
      <use xlink:href="#DejaVuSans-52" x="435.205078"/>
      <use xlink:href="#DejaVuSans-46" x="504.6875"/>
      <use xlink:href="#DejaVuSans-29" x="562.207031"/>
      <use xlink:href="#DejaVuSans-3a" x="601.220703"/>
      <use xlink:href="#DejaVuSans-20" x="634.912109"/>
      <use xlink:href="#DejaVuSans-30" x="666.699219"/>
      <use xlink:href="#DejaVuSans-2e" x="730.322266"/>
      <use xlink:href="#DejaVuSans-38" x="762.109375"/>
      <use xlink:href="#DejaVuSans-35" x="825.732422"/>
     </g>
    </g>
    <g id="line2d_59">
     <path d="M 662.85925 392.51325 
L 680.45925 392.51325 
L 698.05925 392.51325 
" style="fill: none; stroke: #dc143c; stroke-width: 3; stroke-linecap: square"/>
    </g>
    <g id="text_65">
     <!-- CDT_DI (CF): 0.72 -->
     <g transform="translate(712.13925 398.67325) scale(0.176 -0.176)">
      <use xlink:href="#DejaVuSans-43"/>
      <use xlink:href="#DejaVuSans-44" x="69.824219"/>
      <use xlink:href="#DejaVuSans-54" x="146.826172"/>
      <use xlink:href="#DejaVuSans-5f" x="207.910156"/>
      <use xlink:href="#DejaVuSans-44" x="257.910156"/>
      <use xlink:href="#DejaVuSans-49" x="334.912109"/>
      <use xlink:href="#DejaVuSans-20" x="364.404297"/>
      <use xlink:href="#DejaVuSans-28" x="396.191406"/>
      <use xlink:href="#DejaVuSans-43" x="435.205078"/>
      <use xlink:href="#DejaVuSans-46" x="505.029297"/>
      <use xlink:href="#DejaVuSans-29" x="562.548828"/>
      <use xlink:href="#DejaVuSans-3a" x="601.5625"/>
      <use xlink:href="#DejaVuSans-20" x="635.253906"/>
      <use xlink:href="#DejaVuSans-30" x="667.041016"/>
      <use xlink:href="#DejaVuSans-2e" x="730.664062"/>
      <use xlink:href="#DejaVuSans-37" x="762.451172"/>
      <use xlink:href="#DejaVuSans-32" x="826.074219"/>
     </g>
    </g>
    <g id="line2d_60">
     <path d="M 662.85925 418.83625 
L 680.45925 418.83625 
L 698.05925 418.83625 
" style="fill: none; stroke: #00ff00; stroke-width: 3; stroke-linecap: square"/>
    </g>
    <g id="text_66">
     <!-- CDT_DI_FI (RF): 0.81 -->
     <g transform="translate(712.13925 424.99625) scale(0.176 -0.176)">
      <use xlink:href="#DejaVuSans-43"/>
      <use xlink:href="#DejaVuSans-44" x="69.824219"/>
      <use xlink:href="#DejaVuSans-54" x="146.826172"/>
      <use xlink:href="#DejaVuSans-5f" x="207.910156"/>
      <use xlink:href="#DejaVuSans-44" x="257.910156"/>
      <use xlink:href="#DejaVuSans-49" x="334.912109"/>
      <use xlink:href="#DejaVuSans-5f" x="364.404297"/>
      <use xlink:href="#DejaVuSans-46" x="414.404297"/>
      <use xlink:href="#DejaVuSans-49" x="471.923828"/>
      <use xlink:href="#DejaVuSans-20" x="501.416016"/>
      <use xlink:href="#DejaVuSans-28" x="533.203125"/>
      <use xlink:href="#DejaVuSans-52" x="572.216797"/>
      <use xlink:href="#DejaVuSans-46" x="641.699219"/>
      <use xlink:href="#DejaVuSans-29" x="699.21875"/>
      <use xlink:href="#DejaVuSans-3a" x="738.232422"/>
      <use xlink:href="#DejaVuSans-20" x="771.923828"/>
      <use xlink:href="#DejaVuSans-30" x="803.710938"/>
      <use xlink:href="#DejaVuSans-2e" x="867.333984"/>
      <use xlink:href="#DejaVuSans-38" x="899.121094"/>
      <use xlink:href="#DejaVuSans-31" x="962.744141"/>
     </g>
    </g>
    <g id="line2d_61">
     <path d="M 662.85925 445.15925 
L 680.45925 445.15925 
L 698.05925 445.15925 
" style="fill: none; stroke: #808000; stroke-width: 3; stroke-linecap: square"/>
    </g>
    <g id="text_67">
     <!-- CDT_DI_FI (CF): 0.59 -->
     <g transform="translate(712.13925 451.31925) scale(0.176 -0.176)">
      <use xlink:href="#DejaVuSans-43"/>
      <use xlink:href="#DejaVuSans-44" x="69.824219"/>
      <use xlink:href="#DejaVuSans-54" x="146.826172"/>
      <use xlink:href="#DejaVuSans-5f" x="207.910156"/>
      <use xlink:href="#DejaVuSans-44" x="257.910156"/>
      <use xlink:href="#DejaVuSans-49" x="334.912109"/>
      <use xlink:href="#DejaVuSans-5f" x="364.404297"/>
      <use xlink:href="#DejaVuSans-46" x="414.404297"/>
      <use xlink:href="#DejaVuSans-49" x="471.923828"/>
      <use xlink:href="#DejaVuSans-20" x="501.416016"/>
      <use xlink:href="#DejaVuSans-28" x="533.203125"/>
      <use xlink:href="#DejaVuSans-43" x="572.216797"/>
      <use xlink:href="#DejaVuSans-46" x="642.041016"/>
      <use xlink:href="#DejaVuSans-29" x="699.560547"/>
      <use xlink:href="#DejaVuSans-3a" x="738.574219"/>
      <use xlink:href="#DejaVuSans-20" x="772.265625"/>
      <use xlink:href="#DejaVuSans-30" x="804.052734"/>
      <use xlink:href="#DejaVuSans-2e" x="867.675781"/>
      <use xlink:href="#DejaVuSans-35" x="899.462891"/>
      <use xlink:href="#DejaVuSans-39" x="963.085938"/>
     </g>
    </g>
   </g>
  </g>
 </g>
 <defs>
  <clipPath id="pba972aedba">
   <rect x="78.876" y="27.789" width="405.818182" height="443.52"/>
  </clipPath>
  <clipPath id="p5584c5b80a">
   <rect x="565.857818" y="27.789" width="405.818182" height="443.52"/>
  </clipPath>
 </defs>
</svg>
