<?xml version="1.0" encoding="utf-8" standalone="no"?>
<!DOCTYPE svg PUBLIC "-//W3C//DTD SVG 1.1//EN"
  "http://www.w3.org/Graphics/SVG/1.1/DTD/svg11.dtd">
<svg xmlns:xlink="http://www.w3.org/1999/xlink" width="973.2715pt" height="533.6245pt" viewBox="0 0 973.2715 533.6245" xmlns="http://www.w3.org/2000/svg" version="1.1">
 <metadata>
  <rdf:RDF xmlns:dc="http://purl.org/dc/elements/1.1/" xmlns:cc="http://creativecommons.org/ns#" xmlns:rdf="http://www.w3.org/1999/02/22-rdf-syntax-ns#">
   <cc:Work>
    <dc:type rdf:resource="http://purl.org/dc/dcmitype/StillImage"/>
    <dc:date>2023-05-11T17:15:53.427506</dc:date>
    <dc:format>image/svg+xml</dc:format>
    <dc:creator>
     <cc:Agent>
      <dc:title>Matplotlib v3.6.2, https://matplotlib.org/</dc:title>
     </cc:Agent>
    </dc:creator>
   </cc:Work>
  </rdf:RDF>
 </metadata>
 <defs>
  <style type="text/css">*{stroke-linejoin: round; stroke-linecap: butt}</style>
 </defs>
 <g id="figure_1">
  <g id="patch_1">
   <path d="M 0 533.6245 
L 973.2715 533.6245 
L 973.2715 0 
L 0 0 
z
" style="fill: #ffffff"/>
  </g>
  <g id="axes_1">
   <g id="patch_2">
    <path d="M 73.2715 471.309 
L 479.089682 471.309 
L 479.089682 27.789 
L 73.2715 27.789 
z
" style="fill: #ffffff"/>
   </g>
   <g id="PolyCollection_1">
    <defs>
     <path id="m4208b7d48b" d="M 91.717781 -82.4755 
L 91.717781 -82.4755 
L 95.444302 -203.4355 
L 99.170824 -203.4355 
L 102.897345 -203.4355 
L 106.623867 -203.4355 
L 110.350388 -203.4355 
L 114.076909 -203.4355 
L 117.803431 -203.4355 
L 121.529952 -203.4355 
L 125.256474 -203.4355 
L 128.982995 -203.4355 
L 132.709517 -203.4355 
L 136.436038 -203.4355 
L 140.162559 -203.4355 
L 143.889081 -203.4355 
L 147.615602 -203.4355 
L 151.342124 -203.4355 
L 155.068645 -203.4355 
L 158.795166 -203.4355 
L 162.521688 -203.4355 
L 166.248209 -203.4355 
L 169.974731 -203.4355 
L 173.701252 -203.4355 
L 177.427773 -203.4355 
L 181.154295 -203.4355 
L 184.880816 -243.7555 
L 188.607338 -243.7555 
L 192.333859 -243.7555 
L 196.060381 -243.7555 
L 199.786902 -243.7555 
L 203.513423 -243.7555 
L 207.239945 -243.7555 
L 210.966466 -243.7555 
L 214.692988 -243.7555 
L 218.419509 -243.7555 
L 222.14603 -243.7555 
L 225.872552 -243.7555 
L 229.599073 -243.7555 
L 233.325595 -243.7555 
L 237.052116 -243.7555 
L 240.778637 -243.7555 
L 244.505159 -243.7555 
L 248.23168 -243.7555 
L 251.958202 -243.7555 
L 255.684723 -243.7555 
L 259.411245 -243.7555 
L 263.137766 -243.7555 
L 266.864287 -243.7555 
L 270.590809 -243.7555 
L 274.31733 -243.7555 
L 278.043852 -261.6755 
L 281.770373 -261.6755 
L 285.496894 -261.6755 
L 289.223416 -261.6755 
L 292.949937 -261.6755 
L 296.676459 -261.6755 
L 300.40298 -261.6755 
L 304.129502 -261.6755 
L 307.856023 -261.6755 
L 311.582544 -261.6755 
L 315.309066 -324.3955 
L 319.035587 -324.3955 
L 322.762109 -324.3955 
L 326.48863 -324.3955 
L 330.215151 -324.3955 
L 333.941673 -324.3955 
L 337.668194 -324.3955 
L 341.394716 -324.3955 
L 345.121237 -324.3955 
L 348.847758 -324.3955 
L 352.57428 -324.3955 
L 356.300801 -324.3955 
L 360.027323 -324.3955 
L 363.753844 -324.3955 
L 367.480366 -324.3955 
L 371.206887 -396.0755 
L 374.933408 -396.0755 
L 378.65993 -396.0755 
L 382.386451 -396.0755 
L 386.112973 -396.0755 
L 389.839494 -405.0355 
L 393.566015 -405.0355 
L 397.292537 -405.0355 
L 401.019058 -405.0355 
L 404.74558 -405.0355 
L 408.472101 -405.0355 
L 412.198622 -405.0355 
L 415.925144 -405.0355 
L 419.651665 -405.0355 
L 423.378187 -405.0355 
L 427.104708 -405.0355 
L 430.83123 -405.0355 
L 434.557751 -405.0355 
L 438.284272 -405.0355 
L 442.010794 -405.0355 
L 445.737315 -405.0355 
L 449.463837 -405.0355 
L 453.190358 -405.0355 
L 456.916879 -405.0355 
L 460.643401 -485.6755 
L 460.643401 -485.6755 
L 460.643401 -485.6755 
L 456.916879 -485.6755 
L 453.190358 -485.6755 
L 449.463837 -485.6755 
L 445.737315 -485.6755 
L 442.010794 -485.6755 
L 438.284272 -485.6755 
L 434.557751 -485.6755 
L 430.83123 -485.6755 
L 427.104708 -485.6755 
L 423.378187 -485.6755 
L 419.651665 -485.6755 
L 415.925144 -485.6755 
L 412.198622 -485.6755 
L 408.472101 -485.6755 
L 404.74558 -485.6755 
L 401.019058 -485.6755 
L 397.292537 -485.6755 
L 393.566015 -485.6755 
L 389.839494 -485.6755 
L 386.112973 -485.6755 
L 382.386451 -485.6755 
L 378.65993 -485.6755 
L 374.933408 -485.6755 
L 371.206887 -485.6755 
L 367.480366 -485.6755 
L 363.753844 -485.6755 
L 360.027323 -485.6755 
L 356.300801 -485.6755 
L 352.57428 -485.6755 
L 348.847758 -485.6755 
L 345.121237 -485.6755 
L 341.394716 -485.6755 
L 337.668194 -485.6755 
L 333.941673 -485.6755 
L 330.215151 -485.6755 
L 326.48863 -485.6755 
L 322.762109 -485.6755 
L 319.035587 -485.6755 
L 315.309066 -485.6755 
L 311.582544 -485.6755 
L 307.856023 -485.6755 
L 304.129502 -485.6755 
L 300.40298 -485.6755 
L 296.676459 -485.6755 
L 292.949937 -485.6755 
L 289.223416 -485.6755 
L 285.496894 -485.6755 
L 281.770373 -485.6755 
L 278.043852 -485.6755 
L 274.31733 -485.6755 
L 270.590809 -485.6755 
L 266.864287 -485.6755 
L 263.137766 -485.6755 
L 259.411245 -485.6755 
L 255.684723 -485.6755 
L 251.958202 -485.6755 
L 248.23168 -485.6755 
L 244.505159 -485.6755 
L 240.778637 -485.6755 
L 237.052116 -445.3555 
L 233.325595 -445.3555 
L 229.599073 -445.3555 
L 225.872552 -445.3555 
L 222.14603 -445.3555 
L 218.419509 -445.3555 
L 214.692988 -445.3555 
L 210.966466 -445.3555 
L 207.239945 -445.3555 
L 203.513423 -445.3555 
L 199.786902 -445.3555 
L 196.060381 -445.3555 
L 192.333859 -445.3555 
L 188.607338 -445.3555 
L 184.880816 -445.3555 
L 181.154295 -440.8755 
L 177.427773 -440.8755 
L 173.701252 -440.8755 
L 169.974731 -440.8755 
L 166.248209 -440.8755 
L 162.521688 -405.0355 
L 158.795166 -405.0355 
L 155.068645 -405.0355 
L 151.342124 -405.0355 
L 147.615602 -405.0355 
L 143.889081 -405.0355 
L 140.162559 -405.0355 
L 136.436038 -405.0355 
L 132.709517 -405.0355 
L 128.982995 -405.0355 
L 125.256474 -405.0355 
L 121.529952 -405.0355 
L 117.803431 -405.0355 
L 114.076909 -405.0355 
L 110.350388 -405.0355 
L 106.623867 -405.0355 
L 102.897345 -405.0355 
L 99.170824 -405.0355 
L 95.444302 -405.0355 
L 91.717781 -82.4755 
z
" style="stroke: #ffa500; stroke-opacity: 0.2; stroke-width: 2"/>
    </defs>
    <g clip-path="url(#pc715b59790)">
     <use xlink:href="#m4208b7d48b" x="0" y="533.6245" style="fill: #ffa500; fill-opacity: 0.2; stroke: #ffa500; stroke-opacity: 0.2; stroke-width: 2"/>
    </g>
   </g>
   <g id="PolyCollection_2">
    <defs>
     <path id="m7b4f75b855" d="M 91.717781 -82.4755 
L 91.717781 -82.4755 
L 95.444302 -84.104591 
L 99.170824 -85.733682 
L 102.897345 -87.362773 
L 106.623867 -88.991864 
L 110.350388 -90.620955 
L 114.076909 -92.250045 
L 117.803431 -93.879136 
L 121.529952 -95.508227 
L 125.256474 -97.137318 
L 128.982995 -98.766409 
L 132.709517 -100.3955 
L 136.436038 -102.024591 
L 140.162559 -103.653682 
L 143.889081 -105.282773 
L 147.615602 -106.911864 
L 151.342124 -108.540955 
L 155.068645 -110.170045 
L 158.795166 -111.799136 
L 162.521688 -113.428227 
L 166.248209 -115.057318 
L 169.974731 -116.686409 
L 173.701252 -118.3155 
L 177.427773 -119.944591 
L 181.154295 -121.573682 
L 184.880816 -163.930045 
L 188.607338 -167.188227 
L 192.333859 -170.446409 
L 196.060381 -173.704591 
L 199.786902 -176.962773 
L 203.513423 -180.220955 
L 207.239945 -183.479136 
L 210.966466 -186.737318 
L 214.692988 -189.9955 
L 218.419509 -193.253682 
L 222.14603 -196.511864 
L 225.872552 -199.770045 
L 229.599073 -203.028227 
L 233.325595 -206.286409 
L 237.052116 -209.544591 
L 240.778637 -212.802773 
L 244.505159 -216.060955 
L 248.23168 -219.319136 
L 251.958202 -222.577318 
L 255.684723 -225.8355 
L 259.411245 -229.093682 
L 263.137766 -232.351864 
L 266.864287 -235.610045 
L 270.590809 -238.868227 
L 274.31733 -242.126409 
L 278.043852 -285.206813 
L 281.770373 -287.469439 
L 285.496894 -289.732066 
L 289.223416 -291.994692 
L 292.949937 -294.257318 
L 296.676459 -296.519944 
L 300.40298 -298.782571 
L 304.129502 -301.045197 
L 307.856023 -303.307823 
L 311.582544 -305.570449 
L 315.309066 -364.7155 
L 319.035587 -364.7155 
L 322.762109 -364.7155 
L 326.48863 -364.7155 
L 330.215151 -364.7155 
L 333.941673 -364.7155 
L 337.668194 -364.7155 
L 341.394716 -364.7155 
L 345.121237 -364.7155 
L 348.847758 -364.7155 
L 352.57428 -364.7155 
L 356.300801 -364.7155 
L 360.027323 -364.7155 
L 363.753844 -364.7155 
L 367.480366 -364.7155 
L 371.206887 -407.479136 
L 374.933408 -410.737318 
L 378.65993 -413.9955 
L 382.386451 -417.253682 
L 386.112973 -420.511864 
L 389.839494 -423.770045 
L 393.566015 -427.028227 
L 397.292537 -430.286409 
L 401.019058 -433.544591 
L 404.74558 -436.802773 
L 408.472101 -440.060955 
L 412.198622 -440.8755 
L 415.925144 -440.8755 
L 419.651665 -440.8755 
L 423.378187 -440.8755 
L 427.104708 -440.8755 
L 430.83123 -440.8755 
L 434.557751 -440.8755 
L 438.284272 -440.8755 
L 442.010794 -440.8755 
L 445.737315 -440.8755 
L 449.463837 -440.8755 
L 453.190358 -440.8755 
L 456.916879 -440.8755 
L 460.643401 -485.6755 
L 460.643401 -485.6755 
L 460.643401 -485.6755 
L 456.916879 -485.6755 
L 453.190358 -485.6755 
L 449.463837 -485.6755 
L 445.737315 -485.6755 
L 442.010794 -485.6755 
L 438.284272 -485.6755 
L 434.557751 -485.6755 
L 430.83123 -485.6755 
L 427.104708 -485.6755 
L 423.378187 -485.6755 
L 419.651665 -485.6755 
L 415.925144 -485.6755 
L 412.198622 -485.6755 
L 408.472101 -485.6755 
L 404.74558 -485.6755 
L 401.019058 -485.6755 
L 397.292537 -485.6755 
L 393.566015 -485.6755 
L 389.839494 -485.6755 
L 386.112973 -485.6755 
L 382.386451 -485.6755 
L 378.65993 -485.6755 
L 374.933408 -485.6755 
L 371.206887 -485.6755 
L 367.480366 -485.6755 
L 363.753844 -485.6755 
L 360.027323 -485.6755 
L 356.300801 -485.6755 
L 352.57428 -485.6755 
L 348.847758 -485.6755 
L 345.121237 -485.6755 
L 341.394716 -485.6755 
L 337.668194 -485.6755 
L 333.941673 -485.6755 
L 330.215151 -485.6755 
L 326.48863 -485.6755 
L 322.762109 -485.6755 
L 319.035587 -485.6755 
L 315.309066 -485.6755 
L 311.582544 -485.6755 
L 307.856023 -485.6755 
L 304.129502 -485.6755 
L 300.40298 -485.6755 
L 296.676459 -485.6755 
L 292.949937 -485.6755 
L 289.223416 -485.6755 
L 285.496894 -485.6755 
L 281.770373 -485.6755 
L 278.043852 -485.6755 
L 274.31733 -485.6755 
L 270.590809 -485.6755 
L 266.864287 -485.6755 
L 263.137766 -485.6755 
L 259.411245 -485.6755 
L 255.684723 -485.6755 
L 251.958202 -485.6755 
L 248.23168 -485.6755 
L 244.505159 -485.6755 
L 240.778637 -485.6755 
L 237.052116 -485.6755 
L 233.325595 -485.6755 
L 229.599073 -485.6755 
L 225.872552 -485.6755 
L 222.14603 -485.6755 
L 218.419509 -485.6755 
L 214.692988 -485.6755 
L 210.966466 -485.6755 
L 207.239945 -485.6755 
L 203.513423 -485.6755 
L 199.786902 -485.6755 
L 196.060381 -485.6755 
L 192.333859 -485.6755 
L 188.607338 -485.6755 
L 184.880816 -485.6755 
L 181.154295 -485.6755 
L 177.427773 -485.6755 
L 173.701252 -485.6755 
L 169.974731 -485.6755 
L 166.248209 -485.6755 
L 162.521688 -445.3555 
L 158.795166 -445.3555 
L 155.068645 -445.3555 
L 151.342124 -445.3555 
L 147.615602 -445.3555 
L 143.889081 -445.3555 
L 140.162559 -445.3555 
L 136.436038 -445.3555 
L 132.709517 -445.3555 
L 128.982995 -445.3555 
L 125.256474 -445.3555 
L 121.529952 -445.3555 
L 117.803431 -445.3555 
L 114.076909 -445.3555 
L 110.350388 -445.3555 
L 106.623867 -445.3555 
L 102.897345 -445.3555 
L 99.170824 -445.3555 
L 95.444302 -445.3555 
L 91.717781 -82.4755 
z
" style="stroke: #0000ff; stroke-opacity: 0.2; stroke-width: 2"/>
    </defs>
    <g clip-path="url(#pc715b59790)">
     <use xlink:href="#m7b4f75b855" x="0" y="533.6245" style="fill: #0000ff; fill-opacity: 0.2; stroke: #0000ff; stroke-opacity: 0.2; stroke-width: 2"/>
    </g>
   </g>
   <g id="PolyCollection_3">
    <defs>
     <path id="mf9724203bd" d="M 91.717781 -82.4755 
L 91.717781 -82.4755 
L 95.444302 -127.2755 
L 99.170824 -127.2755 
L 102.897345 -127.2755 
L 106.623867 -127.2755 
L 110.350388 -127.2755 
L 114.076909 -127.2755 
L 117.803431 -127.2755 
L 121.529952 -127.2755 
L 125.256474 -127.2755 
L 128.982995 -127.2755 
L 132.709517 -127.2755 
L 136.436038 -127.2755 
L 140.162559 -127.2755 
L 143.889081 -127.2755 
L 147.615602 -127.2755 
L 151.342124 -127.2755 
L 155.068645 -127.2755 
L 158.795166 -127.2755 
L 162.521688 -127.2755 
L 166.248209 -127.2755 
L 169.974731 -127.2755 
L 173.701252 -127.2755 
L 177.427773 -127.2755 
L 181.154295 -127.2755 
L 184.880816 -127.2755 
L 188.607338 -127.2755 
L 192.333859 -127.2755 
L 196.060381 -127.2755 
L 199.786902 -127.2755 
L 203.513423 -127.2755 
L 207.239945 -127.2755 
L 210.966466 -127.2755 
L 214.692988 -127.2755 
L 218.419509 -127.2755 
L 222.14603 -127.2755 
L 225.872552 -127.2755 
L 229.599073 -127.2755 
L 233.325595 -127.2755 
L 237.052116 -127.2755 
L 240.778637 -243.7555 
L 244.505159 -243.7555 
L 248.23168 -243.7555 
L 251.958202 -243.7555 
L 255.684723 -243.7555 
L 259.411245 -243.7555 
L 263.137766 -243.7555 
L 266.864287 -243.7555 
L 270.590809 -243.7555 
L 274.31733 -243.7555 
L 278.043852 -324.3955 
L 281.770373 -324.3955 
L 285.496894 -324.3955 
L 289.223416 -324.3955 
L 292.949937 -324.3955 
L 296.676459 -324.3955 
L 300.40298 -324.3955 
L 304.129502 -324.3955 
L 307.856023 -324.3955 
L 311.582544 -324.3955 
L 315.309066 -324.3955 
L 319.035587 -324.3955 
L 322.762109 -324.3955 
L 326.48863 -324.3955 
L 330.215151 -324.3955 
L 333.941673 -324.3955 
L 337.668194 -324.3955 
L 341.394716 -324.3955 
L 345.121237 -324.3955 
L 348.847758 -324.3955 
L 352.57428 -324.3955 
L 356.300801 -324.3955 
L 360.027323 -324.3955 
L 363.753844 -324.3955 
L 367.480366 -324.3955 
L 371.206887 -396.0755 
L 374.933408 -396.0755 
L 378.65993 -396.0755 
L 382.386451 -396.0755 
L 386.112973 -396.0755 
L 389.839494 -440.8755 
L 393.566015 -440.8755 
L 397.292537 -440.8755 
L 401.019058 -440.8755 
L 404.74558 -440.8755 
L 408.472101 -440.8755 
L 412.198622 -440.8755 
L 415.925144 -440.8755 
L 419.651665 -440.8755 
L 423.378187 -440.8755 
L 427.104708 -440.8755 
L 430.83123 -440.8755 
L 434.557751 -440.8755 
L 438.284272 -440.8755 
L 442.010794 -440.8755 
L 445.737315 -440.8755 
L 449.463837 -440.8755 
L 453.190358 -440.8755 
L 456.916879 -440.8755 
L 460.643401 -485.6755 
L 460.643401 -485.6755 
L 460.643401 -485.6755 
L 456.916879 -485.6755 
L 453.190358 -485.6755 
L 449.463837 -485.6755 
L 445.737315 -485.6755 
L 442.010794 -485.6755 
L 438.284272 -485.6755 
L 434.557751 -485.6755 
L 430.83123 -485.6755 
L 427.104708 -485.6755 
L 423.378187 -485.6755 
L 419.651665 -485.6755 
L 415.925144 -485.6755 
L 412.198622 -485.6755 
L 408.472101 -485.6755 
L 404.74558 -485.6755 
L 401.019058 -485.6755 
L 397.292537 -485.6755 
L 393.566015 -485.6755 
L 389.839494 -485.6755 
L 386.112973 -485.6755 
L 382.386451 -485.6755 
L 378.65993 -485.6755 
L 374.933408 -485.6755 
L 371.206887 -485.6755 
L 367.480366 -485.6755 
L 363.753844 -485.6755 
L 360.027323 -485.6755 
L 356.300801 -485.6755 
L 352.57428 -485.6755 
L 348.847758 -485.6755 
L 345.121237 -485.6755 
L 341.394716 -485.6755 
L 337.668194 -485.6755 
L 333.941673 -485.6755 
L 330.215151 -485.6755 
L 326.48863 -485.6755 
L 322.762109 -485.6755 
L 319.035587 -485.6755 
L 315.309066 -485.6755 
L 311.582544 -485.6755 
L 307.856023 -485.6755 
L 304.129502 -485.6755 
L 300.40298 -485.6755 
L 296.676459 -485.6755 
L 292.949937 -485.6755 
L 289.223416 -485.6755 
L 285.496894 -485.6755 
L 281.770373 -485.6755 
L 278.043852 -485.6755 
L 274.31733 -485.6755 
L 270.590809 -485.6755 
L 266.864287 -485.6755 
L 263.137766 -485.6755 
L 259.411245 -485.6755 
L 255.684723 -485.6755 
L 251.958202 -485.6755 
L 248.23168 -485.6755 
L 244.505159 -485.6755 
L 240.778637 -485.6755 
L 237.052116 -445.3555 
L 233.325595 -445.3555 
L 229.599073 -445.3555 
L 225.872552 -445.3555 
L 222.14603 -445.3555 
L 218.419509 -445.3555 
L 214.692988 -445.3555 
L 210.966466 -445.3555 
L 207.239945 -445.3555 
L 203.513423 -445.3555 
L 199.786902 -445.3555 
L 196.060381 -445.3555 
L 192.333859 -445.3555 
L 188.607338 -445.3555 
L 184.880816 -445.3555 
L 181.154295 -445.3555 
L 177.427773 -445.3555 
L 173.701252 -445.3555 
L 169.974731 -445.3555 
L 166.248209 -445.3555 
L 162.521688 -445.3555 
L 158.795166 -445.3555 
L 155.068645 -445.3555 
L 151.342124 -445.3555 
L 147.615602 -445.3555 
L 143.889081 -445.3555 
L 140.162559 -445.3555 
L 136.436038 -445.3555 
L 132.709517 -445.3555 
L 128.982995 -445.3555 
L 125.256474 -445.3555 
L 121.529952 -445.3555 
L 117.803431 -445.3555 
L 114.076909 -445.3555 
L 110.350388 -445.3555 
L 106.623867 -445.3555 
L 102.897345 -445.3555 
L 99.170824 -445.3555 
L 95.444302 -445.3555 
L 91.717781 -82.4755 
z
" style="stroke: #008000; stroke-opacity: 0.2; stroke-width: 2"/>
    </defs>
    <g clip-path="url(#pc715b59790)">
     <use xlink:href="#mf9724203bd" x="0" y="533.6245" style="fill: #008000; fill-opacity: 0.2; stroke: #008000; stroke-opacity: 0.2; stroke-width: 2"/>
    </g>
   </g>
   <g id="matplotlib.axis_1">
    <g id="xtick_1">
     <g id="line2d_1">
      <defs>
       <path id="m3d8868c899" d="M 0 0 
L 0 12 
" style="stroke: #000000; stroke-width: 2.5"/>
      </defs>
      <g>
       <use xlink:href="#m3d8868c899" x="91.717781" y="471.309" style="stroke: #000000; stroke-width: 2.5"/>
      </g>
     </g>
     <g id="text_1">
      <!-- 0.0 -->
      <g transform="translate(77.723031 500.18225) scale(0.176 -0.176)">
       <defs>
        <path id="DejaVuSans-30" d="M 2034 4250 
Q 1547 4250 1301 3770 
Q 1056 3291 1056 2328 
Q 1056 1369 1301 889 
Q 1547 409 2034 409 
Q 2525 409 2770 889 
Q 3016 1369 3016 2328 
Q 3016 3291 2770 3770 
Q 2525 4250 2034 4250 
z
M 2034 4750 
Q 2819 4750 3233 4129 
Q 3647 3509 3647 2328 
Q 3647 1150 3233 529 
Q 2819 -91 2034 -91 
Q 1250 -91 836 529 
Q 422 1150 422 2328 
Q 422 3509 836 4129 
Q 1250 4750 2034 4750 
z
" transform="scale(0.015625)"/>
        <path id="DejaVuSans-2e" d="M 684 794 
L 1344 794 
L 1344 0 
L 684 0 
L 684 794 
z
" transform="scale(0.015625)"/>
       </defs>
       <use xlink:href="#DejaVuSans-30"/>
       <use xlink:href="#DejaVuSans-2e" x="63.623047"/>
       <use xlink:href="#DejaVuSans-30" x="95.410156"/>
      </g>
     </g>
    </g>
    <g id="xtick_2">
     <g id="line2d_2">
      <g>
       <use xlink:href="#m3d8868c899" x="165.502905" y="471.309" style="stroke: #000000; stroke-width: 2.5"/>
      </g>
     </g>
     <g id="text_2">
      <!-- 0.2 -->
      <g transform="translate(151.508155 500.18225) scale(0.176 -0.176)">
       <defs>
        <path id="DejaVuSans-32" d="M 1228 531 
L 3431 531 
L 3431 0 
L 469 0 
L 469 531 
Q 828 903 1448 1529 
Q 2069 2156 2228 2338 
Q 2531 2678 2651 2914 
Q 2772 3150 2772 3378 
Q 2772 3750 2511 3984 
Q 2250 4219 1831 4219 
Q 1534 4219 1204 4116 
Q 875 4013 500 3803 
L 500 4441 
Q 881 4594 1212 4672 
Q 1544 4750 1819 4750 
Q 2544 4750 2975 4387 
Q 3406 4025 3406 3419 
Q 3406 3131 3298 2873 
Q 3191 2616 2906 2266 
Q 2828 2175 2409 1742 
Q 1991 1309 1228 531 
z
" transform="scale(0.015625)"/>
       </defs>
       <use xlink:href="#DejaVuSans-30"/>
       <use xlink:href="#DejaVuSans-2e" x="63.623047"/>
       <use xlink:href="#DejaVuSans-32" x="95.410156"/>
      </g>
     </g>
    </g>
    <g id="xtick_3">
     <g id="line2d_3">
      <g>
       <use xlink:href="#m3d8868c899" x="239.288029" y="471.309" style="stroke: #000000; stroke-width: 2.5"/>
      </g>
     </g>
     <g id="text_3">
      <!-- 0.4 -->
      <g transform="translate(225.293279 500.18225) scale(0.176 -0.176)">
       <defs>
        <path id="DejaVuSans-34" d="M 2419 4116 
L 825 1625 
L 2419 1625 
L 2419 4116 
z
M 2253 4666 
L 3047 4666 
L 3047 1625 
L 3713 1625 
L 3713 1100 
L 3047 1100 
L 3047 0 
L 2419 0 
L 2419 1100 
L 313 1100 
L 313 1709 
L 2253 4666 
z
" transform="scale(0.015625)"/>
       </defs>
       <use xlink:href="#DejaVuSans-30"/>
       <use xlink:href="#DejaVuSans-2e" x="63.623047"/>
       <use xlink:href="#DejaVuSans-34" x="95.410156"/>
      </g>
     </g>
    </g>
    <g id="xtick_4">
     <g id="line2d_4">
      <g>
       <use xlink:href="#m3d8868c899" x="313.073153" y="471.309" style="stroke: #000000; stroke-width: 2.5"/>
      </g>
     </g>
     <g id="text_4">
      <!-- 0.6 -->
      <g transform="translate(299.078403 500.18225) scale(0.176 -0.176)">
       <defs>
        <path id="DejaVuSans-36" d="M 2113 2584 
Q 1688 2584 1439 2293 
Q 1191 2003 1191 1497 
Q 1191 994 1439 701 
Q 1688 409 2113 409 
Q 2538 409 2786 701 
Q 3034 994 3034 1497 
Q 3034 2003 2786 2293 
Q 2538 2584 2113 2584 
z
M 3366 4563 
L 3366 3988 
Q 3128 4100 2886 4159 
Q 2644 4219 2406 4219 
Q 1781 4219 1451 3797 
Q 1122 3375 1075 2522 
Q 1259 2794 1537 2939 
Q 1816 3084 2150 3084 
Q 2853 3084 3261 2657 
Q 3669 2231 3669 1497 
Q 3669 778 3244 343 
Q 2819 -91 2113 -91 
Q 1303 -91 875 529 
Q 447 1150 447 2328 
Q 447 3434 972 4092 
Q 1497 4750 2381 4750 
Q 2619 4750 2861 4703 
Q 3103 4656 3366 4563 
z
" transform="scale(0.015625)"/>
       </defs>
       <use xlink:href="#DejaVuSans-30"/>
       <use xlink:href="#DejaVuSans-2e" x="63.623047"/>
       <use xlink:href="#DejaVuSans-36" x="95.410156"/>
      </g>
     </g>
    </g>
    <g id="xtick_5">
     <g id="line2d_5">
      <g>
       <use xlink:href="#m3d8868c899" x="386.858277" y="471.309" style="stroke: #000000; stroke-width: 2.5"/>
      </g>
     </g>
     <g id="text_5">
      <!-- 0.8 -->
      <g transform="translate(372.863527 500.18225) scale(0.176 -0.176)">
       <defs>
        <path id="DejaVuSans-38" d="M 2034 2216 
Q 1584 2216 1326 1975 
Q 1069 1734 1069 1313 
Q 1069 891 1326 650 
Q 1584 409 2034 409 
Q 2484 409 2743 651 
Q 3003 894 3003 1313 
Q 3003 1734 2745 1975 
Q 2488 2216 2034 2216 
z
M 1403 2484 
Q 997 2584 770 2862 
Q 544 3141 544 3541 
Q 544 4100 942 4425 
Q 1341 4750 2034 4750 
Q 2731 4750 3128 4425 
Q 3525 4100 3525 3541 
Q 3525 3141 3298 2862 
Q 3072 2584 2669 2484 
Q 3125 2378 3379 2068 
Q 3634 1759 3634 1313 
Q 3634 634 3220 271 
Q 2806 -91 2034 -91 
Q 1263 -91 848 271 
Q 434 634 434 1313 
Q 434 1759 690 2068 
Q 947 2378 1403 2484 
z
M 1172 3481 
Q 1172 3119 1398 2916 
Q 1625 2713 2034 2713 
Q 2441 2713 2670 2916 
Q 2900 3119 2900 3481 
Q 2900 3844 2670 4047 
Q 2441 4250 2034 4250 
Q 1625 4250 1398 4047 
Q 1172 3844 1172 3481 
z
" transform="scale(0.015625)"/>
       </defs>
       <use xlink:href="#DejaVuSans-30"/>
       <use xlink:href="#DejaVuSans-2e" x="63.623047"/>
       <use xlink:href="#DejaVuSans-38" x="95.410156"/>
      </g>
     </g>
    </g>
    <g id="xtick_6">
     <g id="line2d_6">
      <g>
       <use xlink:href="#m3d8868c899" x="460.643401" y="471.309" style="stroke: #000000; stroke-width: 2.5"/>
      </g>
     </g>
     <g id="text_6">
      <!-- 1.0 -->
      <g transform="translate(446.648651 500.18225) scale(0.176 -0.176)">
       <defs>
        <path id="DejaVuSans-31" d="M 794 531 
L 1825 531 
L 1825 4091 
L 703 3866 
L 703 4441 
L 1819 4666 
L 2450 4666 
L 2450 531 
L 3481 531 
L 3481 0 
L 794 0 
L 794 531 
z
" transform="scale(0.015625)"/>
       </defs>
       <use xlink:href="#DejaVuSans-31"/>
       <use xlink:href="#DejaVuSans-2e" x="63.623047"/>
       <use xlink:href="#DejaVuSans-30" x="95.410156"/>
      </g>
     </g>
    </g>
    <g id="text_7">
     <!-- False Positive Rate -->
     <g transform="translate(186.965091 522.4315) scale(0.192 -0.192)">
      <defs>
       <path id="DejaVuSans-46" d="M 628 4666 
L 3309 4666 
L 3309 4134 
L 1259 4134 
L 1259 2759 
L 3109 2759 
L 3109 2228 
L 1259 2228 
L 1259 0 
L 628 0 
L 628 4666 
z
" transform="scale(0.015625)"/>
       <path id="DejaVuSans-61" d="M 2194 1759 
Q 1497 1759 1228 1600 
Q 959 1441 959 1056 
Q 959 750 1161 570 
Q 1363 391 1709 391 
Q 2188 391 2477 730 
Q 2766 1069 2766 1631 
L 2766 1759 
L 2194 1759 
z
M 3341 1997 
L 3341 0 
L 2766 0 
L 2766 531 
Q 2569 213 2275 61 
Q 1981 -91 1556 -91 
Q 1019 -91 701 211 
Q 384 513 384 1019 
Q 384 1609 779 1909 
Q 1175 2209 1959 2209 
L 2766 2209 
L 2766 2266 
Q 2766 2663 2505 2880 
Q 2244 3097 1772 3097 
Q 1472 3097 1187 3025 
Q 903 2953 641 2809 
L 641 3341 
Q 956 3463 1253 3523 
Q 1550 3584 1831 3584 
Q 2591 3584 2966 3190 
Q 3341 2797 3341 1997 
z
" transform="scale(0.015625)"/>
       <path id="DejaVuSans-6c" d="M 603 4863 
L 1178 4863 
L 1178 0 
L 603 0 
L 603 4863 
z
" transform="scale(0.015625)"/>
       <path id="DejaVuSans-73" d="M 2834 3397 
L 2834 2853 
Q 2591 2978 2328 3040 
Q 2066 3103 1784 3103 
Q 1356 3103 1142 2972 
Q 928 2841 928 2578 
Q 928 2378 1081 2264 
Q 1234 2150 1697 2047 
L 1894 2003 
Q 2506 1872 2764 1633 
Q 3022 1394 3022 966 
Q 3022 478 2636 193 
Q 2250 -91 1575 -91 
Q 1294 -91 989 -36 
Q 684 19 347 128 
L 347 722 
Q 666 556 975 473 
Q 1284 391 1588 391 
Q 1994 391 2212 530 
Q 2431 669 2431 922 
Q 2431 1156 2273 1281 
Q 2116 1406 1581 1522 
L 1381 1569 
Q 847 1681 609 1914 
Q 372 2147 372 2553 
Q 372 3047 722 3315 
Q 1072 3584 1716 3584 
Q 2034 3584 2315 3537 
Q 2597 3491 2834 3397 
z
" transform="scale(0.015625)"/>
       <path id="DejaVuSans-65" d="M 3597 1894 
L 3597 1613 
L 953 1613 
Q 991 1019 1311 708 
Q 1631 397 2203 397 
Q 2534 397 2845 478 
Q 3156 559 3463 722 
L 3463 178 
Q 3153 47 2828 -22 
Q 2503 -91 2169 -91 
Q 1331 -91 842 396 
Q 353 884 353 1716 
Q 353 2575 817 3079 
Q 1281 3584 2069 3584 
Q 2775 3584 3186 3129 
Q 3597 2675 3597 1894 
z
M 3022 2063 
Q 3016 2534 2758 2815 
Q 2500 3097 2075 3097 
Q 1594 3097 1305 2825 
Q 1016 2553 972 2059 
L 3022 2063 
z
" transform="scale(0.015625)"/>
       <path id="DejaVuSans-20" transform="scale(0.015625)"/>
       <path id="DejaVuSans-50" d="M 1259 4147 
L 1259 2394 
L 2053 2394 
Q 2494 2394 2734 2622 
Q 2975 2850 2975 3272 
Q 2975 3691 2734 3919 
Q 2494 4147 2053 4147 
L 1259 4147 
z
M 628 4666 
L 2053 4666 
Q 2838 4666 3239 4311 
Q 3641 3956 3641 3272 
Q 3641 2581 3239 2228 
Q 2838 1875 2053 1875 
L 1259 1875 
L 1259 0 
L 628 0 
L 628 4666 
z
" transform="scale(0.015625)"/>
       <path id="DejaVuSans-6f" d="M 1959 3097 
Q 1497 3097 1228 2736 
Q 959 2375 959 1747 
Q 959 1119 1226 758 
Q 1494 397 1959 397 
Q 2419 397 2687 759 
Q 2956 1122 2956 1747 
Q 2956 2369 2687 2733 
Q 2419 3097 1959 3097 
z
M 1959 3584 
Q 2709 3584 3137 3096 
Q 3566 2609 3566 1747 
Q 3566 888 3137 398 
Q 2709 -91 1959 -91 
Q 1206 -91 779 398 
Q 353 888 353 1747 
Q 353 2609 779 3096 
Q 1206 3584 1959 3584 
z
" transform="scale(0.015625)"/>
       <path id="DejaVuSans-69" d="M 603 3500 
L 1178 3500 
L 1178 0 
L 603 0 
L 603 3500 
z
M 603 4863 
L 1178 4863 
L 1178 4134 
L 603 4134 
L 603 4863 
z
" transform="scale(0.015625)"/>
       <path id="DejaVuSans-74" d="M 1172 4494 
L 1172 3500 
L 2356 3500 
L 2356 3053 
L 1172 3053 
L 1172 1153 
Q 1172 725 1289 603 
Q 1406 481 1766 481 
L 2356 481 
L 2356 0 
L 1766 0 
Q 1100 0 847 248 
Q 594 497 594 1153 
L 594 3053 
L 172 3053 
L 172 3500 
L 594 3500 
L 594 4494 
L 1172 4494 
z
" transform="scale(0.015625)"/>
       <path id="DejaVuSans-76" d="M 191 3500 
L 800 3500 
L 1894 563 
L 2988 3500 
L 3597 3500 
L 2284 0 
L 1503 0 
L 191 3500 
z
" transform="scale(0.015625)"/>
       <path id="DejaVuSans-52" d="M 2841 2188 
Q 3044 2119 3236 1894 
Q 3428 1669 3622 1275 
L 4263 0 
L 3584 0 
L 2988 1197 
Q 2756 1666 2539 1819 
Q 2322 1972 1947 1972 
L 1259 1972 
L 1259 0 
L 628 0 
L 628 4666 
L 2053 4666 
Q 2853 4666 3247 4331 
Q 3641 3997 3641 3322 
Q 3641 2881 3436 2590 
Q 3231 2300 2841 2188 
z
M 1259 4147 
L 1259 2491 
L 2053 2491 
Q 2509 2491 2742 2702 
Q 2975 2913 2975 3322 
Q 2975 3731 2742 3939 
Q 2509 4147 2053 4147 
L 1259 4147 
z
" transform="scale(0.015625)"/>
      </defs>
      <use xlink:href="#DejaVuSans-46"/>
      <use xlink:href="#DejaVuSans-61" x="48.394531"/>
      <use xlink:href="#DejaVuSans-6c" x="109.673828"/>
      <use xlink:href="#DejaVuSans-73" x="137.457031"/>
      <use xlink:href="#DejaVuSans-65" x="189.556641"/>
      <use xlink:href="#DejaVuSans-20" x="251.080078"/>
      <use xlink:href="#DejaVuSans-50" x="282.867188"/>
      <use xlink:href="#DejaVuSans-6f" x="339.544922"/>
      <use xlink:href="#DejaVuSans-73" x="400.726562"/>
      <use xlink:href="#DejaVuSans-69" x="452.826172"/>
      <use xlink:href="#DejaVuSans-74" x="480.609375"/>
      <use xlink:href="#DejaVuSans-69" x="519.818359"/>
      <use xlink:href="#DejaVuSans-76" x="547.601562"/>
      <use xlink:href="#DejaVuSans-65" x="606.78125"/>
      <use xlink:href="#DejaVuSans-20" x="668.304688"/>
      <use xlink:href="#DejaVuSans-52" x="700.091797"/>
      <use xlink:href="#DejaVuSans-61" x="767.324219"/>
      <use xlink:href="#DejaVuSans-74" x="828.603516"/>
      <use xlink:href="#DejaVuSans-65" x="867.8125"/>
     </g>
    </g>
   </g>
   <g id="matplotlib.axis_2">
    <g id="ytick_1">
     <g id="line2d_7">
      <defs>
       <path id="m7452103625" d="M 0 0 
L -12 0 
" style="stroke: #000000; stroke-width: 2.5"/>
      </defs>
      <g>
       <use xlink:href="#m7452103625" x="73.2715" y="451.149" style="stroke: #000000; stroke-width: 2.5"/>
      </g>
     </g>
     <g id="text_8">
      <!-- 0.0 -->
      <g transform="translate(29.782 457.835625) scale(0.176 -0.176)">
       <use xlink:href="#DejaVuSans-30"/>
       <use xlink:href="#DejaVuSans-2e" x="63.623047"/>
       <use xlink:href="#DejaVuSans-30" x="95.410156"/>
      </g>
     </g>
    </g>
    <g id="ytick_2">
     <g id="line2d_8">
      <g>
       <use xlink:href="#m7452103625" x="73.2715" y="370.509" style="stroke: #000000; stroke-width: 2.5"/>
      </g>
     </g>
     <g id="text_9">
      <!-- 0.2 -->
      <g transform="translate(29.782 377.195625) scale(0.176 -0.176)">
       <use xlink:href="#DejaVuSans-30"/>
       <use xlink:href="#DejaVuSans-2e" x="63.623047"/>
       <use xlink:href="#DejaVuSans-32" x="95.410156"/>
      </g>
     </g>
    </g>
    <g id="ytick_3">
     <g id="line2d_9">
      <g>
       <use xlink:href="#m7452103625" x="73.2715" y="289.869" style="stroke: #000000; stroke-width: 2.5"/>
      </g>
     </g>
     <g id="text_10">
      <!-- 0.4 -->
      <g transform="translate(29.782 296.555625) scale(0.176 -0.176)">
       <use xlink:href="#DejaVuSans-30"/>
       <use xlink:href="#DejaVuSans-2e" x="63.623047"/>
       <use xlink:href="#DejaVuSans-34" x="95.410156"/>
      </g>
     </g>
    </g>
    <g id="ytick_4">
     <g id="line2d_10">
      <g>
       <use xlink:href="#m7452103625" x="73.2715" y="209.229" style="stroke: #000000; stroke-width: 2.5"/>
      </g>
     </g>
     <g id="text_11">
      <!-- 0.6 -->
      <g transform="translate(29.782 215.915625) scale(0.176 -0.176)">
       <use xlink:href="#DejaVuSans-30"/>
       <use xlink:href="#DejaVuSans-2e" x="63.623047"/>
       <use xlink:href="#DejaVuSans-36" x="95.410156"/>
      </g>
     </g>
    </g>
    <g id="ytick_5">
     <g id="line2d_11">
      <g>
       <use xlink:href="#m7452103625" x="73.2715" y="128.589" style="stroke: #000000; stroke-width: 2.5"/>
      </g>
     </g>
     <g id="text_12">
      <!-- 0.8 -->
      <g transform="translate(29.782 135.275625) scale(0.176 -0.176)">
       <use xlink:href="#DejaVuSans-30"/>
       <use xlink:href="#DejaVuSans-2e" x="63.623047"/>
       <use xlink:href="#DejaVuSans-38" x="95.410156"/>
      </g>
     </g>
    </g>
    <g id="ytick_6">
     <g id="line2d_12">
      <g>
       <use xlink:href="#m7452103625" x="73.2715" y="47.949" style="stroke: #000000; stroke-width: 2.5"/>
      </g>
     </g>
     <g id="text_13">
      <!-- 1.0 -->
      <g transform="translate(29.782 54.635625) scale(0.176 -0.176)">
       <use xlink:href="#DejaVuSans-31"/>
       <use xlink:href="#DejaVuSans-2e" x="63.623047"/>
       <use xlink:href="#DejaVuSans-30" x="95.410156"/>
      </g>
     </g>
    </g>
    <g id="text_14">
     <!-- True Positive Rate -->
     <g transform="translate(21.789 335.046) rotate(-90) scale(0.192 -0.192)">
      <defs>
       <path id="DejaVuSans-54" d="M -19 4666 
L 3928 4666 
L 3928 4134 
L 2272 4134 
L 2272 0 
L 1638 0 
L 1638 4134 
L -19 4134 
L -19 4666 
z
" transform="scale(0.015625)"/>
       <path id="DejaVuSans-72" d="M 2631 2963 
Q 2534 3019 2420 3045 
Q 2306 3072 2169 3072 
Q 1681 3072 1420 2755 
Q 1159 2438 1159 1844 
L 1159 0 
L 581 0 
L 581 3500 
L 1159 3500 
L 1159 2956 
Q 1341 3275 1631 3429 
Q 1922 3584 2338 3584 
Q 2397 3584 2469 3576 
Q 2541 3569 2628 3553 
L 2631 2963 
z
" transform="scale(0.015625)"/>
       <path id="DejaVuSans-75" d="M 544 1381 
L 544 3500 
L 1119 3500 
L 1119 1403 
Q 1119 906 1312 657 
Q 1506 409 1894 409 
Q 2359 409 2629 706 
Q 2900 1003 2900 1516 
L 2900 3500 
L 3475 3500 
L 3475 0 
L 2900 0 
L 2900 538 
Q 2691 219 2414 64 
Q 2138 -91 1772 -91 
Q 1169 -91 856 284 
Q 544 659 544 1381 
z
M 1991 3584 
L 1991 3584 
z
" transform="scale(0.015625)"/>
      </defs>
      <use xlink:href="#DejaVuSans-54"/>
      <use xlink:href="#DejaVuSans-72" x="46.333984"/>
      <use xlink:href="#DejaVuSans-75" x="87.447266"/>
      <use xlink:href="#DejaVuSans-65" x="150.826172"/>
      <use xlink:href="#DejaVuSans-20" x="212.349609"/>
      <use xlink:href="#DejaVuSans-50" x="244.136719"/>
      <use xlink:href="#DejaVuSans-6f" x="300.814453"/>
      <use xlink:href="#DejaVuSans-73" x="361.996094"/>
      <use xlink:href="#DejaVuSans-69" x="414.095703"/>
      <use xlink:href="#DejaVuSans-74" x="441.878906"/>
      <use xlink:href="#DejaVuSans-69" x="481.087891"/>
      <use xlink:href="#DejaVuSans-76" x="508.871094"/>
      <use xlink:href="#DejaVuSans-65" x="568.050781"/>
      <use xlink:href="#DejaVuSans-20" x="629.574219"/>
      <use xlink:href="#DejaVuSans-52" x="661.361328"/>
      <use xlink:href="#DejaVuSans-61" x="728.59375"/>
      <use xlink:href="#DejaVuSans-74" x="789.873047"/>
      <use xlink:href="#DejaVuSans-65" x="829.082031"/>
     </g>
    </g>
   </g>
   <g id="line2d_13">
    <path d="M 91.717781 451.149 
L 95.444302 241.933 
L 99.170824 241.933 
L 102.897345 241.933 
L 106.623867 241.933 
L 110.350388 241.933 
L 114.076909 241.933 
L 117.803431 241.933 
L 121.529952 241.933 
L 125.256474 241.933 
L 128.982995 241.933 
L 132.709517 241.933 
L 136.436038 241.933 
L 140.162559 241.933 
L 143.889081 241.933 
L 147.615602 241.933 
L 151.342124 241.933 
L 155.068645 241.933 
L 158.795166 241.933 
L 162.521688 241.933 
L 166.248209 210.573 
L 169.974731 210.573 
L 173.701252 210.573 
L 177.427773 210.573 
L 181.154295 210.573 
L 184.880816 166.221 
L 188.607338 166.221 
L 192.333859 166.221 
L 196.060381 166.221 
L 199.786902 166.221 
L 203.513423 166.221 
L 207.239945 166.221 
L 210.966466 166.221 
L 214.692988 166.221 
L 218.419509 166.221 
L 222.14603 166.221 
L 225.872552 166.221 
L 229.599073 166.221 
L 233.325595 166.221 
L 237.052116 166.221 
L 240.778637 148.301 
L 244.505159 148.301 
L 248.23168 148.301 
L 251.958202 148.301 
L 255.684723 148.301 
L 259.411245 148.301 
L 263.137766 148.301 
L 266.864287 148.301 
L 270.590809 148.301 
L 274.31733 148.301 
L 278.043852 128.141 
L 281.770373 128.141 
L 285.496894 128.141 
L 289.223416 128.141 
L 292.949937 128.141 
L 296.676459 128.141 
L 300.40298 128.141 
L 304.129502 128.141 
L 307.856023 128.141 
L 311.582544 128.141 
L 315.309066 110.221 
L 319.035587 110.221 
L 322.762109 110.221 
L 326.48863 110.221 
L 330.215151 110.221 
L 333.941673 110.221 
L 337.668194 110.221 
L 341.394716 110.221 
L 345.121237 110.221 
L 348.847758 110.221 
L 352.57428 110.221 
L 356.300801 110.221 
L 360.027323 110.221 
L 363.753844 110.221 
L 367.480366 110.221 
L 371.206887 77.965 
L 374.933408 77.965 
L 378.65993 77.965 
L 382.386451 77.965 
L 386.112973 77.965 
L 389.839494 64.525 
L 393.566015 64.525 
L 397.292537 64.525 
L 401.019058 64.525 
L 404.74558 64.525 
L 408.472101 64.525 
L 412.198622 64.525 
L 415.925144 64.525 
L 419.651665 64.525 
L 423.378187 64.525 
L 427.104708 64.525 
L 430.83123 64.525 
L 434.557751 64.525 
L 438.284272 64.525 
L 442.010794 64.525 
L 445.737315 64.525 
L 449.463837 64.525 
L 453.190358 64.525 
L 456.916879 64.525 
L 460.643401 47.949 
" clip-path="url(#pc715b59790)" style="fill: none; stroke: #ffa500; stroke-width: 3; stroke-linecap: square"/>
   </g>
   <g id="line2d_14">
    <path d="M 91.717781 451.149 
L 95.444302 258.119828 
L 99.170824 257.730657 
L 102.897345 257.341485 
L 106.623867 256.952313 
L 110.350388 256.563141 
L 114.076909 256.17397 
L 117.803431 255.784798 
L 121.529952 255.395626 
L 125.256474 255.006455 
L 128.982995 254.617283 
L 132.709517 254.228111 
L 136.436038 253.838939 
L 140.162559 253.449768 
L 143.889081 253.060596 
L 147.615602 252.671424 
L 151.342124 252.282253 
L 155.068645 251.893081 
L 158.795166 251.503909 
L 162.521688 251.114737 
L 166.248209 183.525566 
L 169.974731 183.136394 
L 173.701252 182.747222 
L 177.427773 182.358051 
L 181.154295 181.968879 
L 184.880816 161.37898 
L 188.607338 160.826899 
L 192.333859 160.274818 
L 196.060381 159.722737 
L 199.786902 159.170657 
L 203.513423 158.618576 
L 207.239945 158.066495 
L 210.966466 157.514414 
L 214.692988 156.962333 
L 218.419509 156.410253 
L 222.14603 155.858172 
L 225.872552 155.306091 
L 229.599073 154.75401 
L 233.325595 154.201929 
L 237.052116 153.649848 
L 240.778637 139.476758 
L 244.505159 138.472152 
L 248.23168 137.467545 
L 251.958202 136.462939 
L 255.684723 135.458333 
L 259.411245 134.453727 
L 263.137766 133.449121 
L 266.864287 132.444515 
L 270.590809 131.439909 
L 274.31733 130.435303 
L 278.043852 109.352152 
L 281.770373 108.510455 
L 285.496894 107.668758 
L 289.223416 106.827061 
L 292.949937 105.985364 
L 296.676459 105.143667 
L 300.40298 104.30197 
L 304.129502 103.460273 
L 307.856023 102.618576 
L 311.582544 101.776879 
L 315.309066 83.422455 
L 319.035587 83.259545 
L 322.762109 83.096636 
L 326.48863 82.933727 
L 330.215151 82.770818 
L 333.941673 82.607909 
L 337.668194 82.445 
L 341.394716 82.282091 
L 345.121237 82.119182 
L 348.847758 81.956273 
L 352.57428 81.793364 
L 356.300801 81.630455 
L 360.027323 81.467545 
L 363.753844 81.304636 
L 367.480366 81.141727 
L 371.206887 68.760636 
L 374.933408 68.434818 
L 378.65993 68.109 
L 382.386451 67.783182 
L 386.112973 67.457364 
L 389.839494 67.131545 
L 393.566015 66.805727 
L 397.292537 66.479909 
L 401.019058 66.154091 
L 404.74558 65.828273 
L 408.472101 65.502455 
L 412.198622 65.176636 
L 415.925144 64.850818 
L 419.651665 64.525 
L 423.378187 64.199182 
L 427.104708 63.873364 
L 430.83123 63.547545 
L 434.557751 63.221727 
L 438.284272 62.895909 
L 442.010794 62.570091 
L 445.737315 62.244273 
L 449.463837 61.918455 
L 453.190358 61.592636 
L 456.916879 61.266818 
L 460.643401 47.949 
" clip-path="url(#pc715b59790)" style="fill: none; stroke: #0000ff; stroke-width: 3; stroke-linecap: square"/>
   </g>
   <g id="line2d_15">
    <path d="M 91.717781 451.149 
L 95.444302 296.141 
L 99.170824 296.141 
L 102.897345 296.141 
L 106.623867 296.141 
L 110.350388 296.141 
L 114.076909 296.141 
L 117.803431 296.141 
L 121.529952 296.141 
L 125.256474 296.141 
L 128.982995 296.141 
L 132.709517 296.141 
L 136.436038 296.141 
L 140.162559 296.141 
L 143.889081 296.141 
L 147.615602 296.141 
L 151.342124 296.141 
L 155.068645 296.141 
L 158.795166 296.141 
L 162.521688 296.141 
L 166.248209 237.901 
L 169.974731 237.901 
L 173.701252 237.901 
L 177.427773 237.901 
L 181.154295 237.901 
L 184.880816 201.613 
L 188.607338 201.613 
L 192.333859 201.613 
L 196.060381 201.613 
L 199.786902 201.613 
L 203.513423 201.613 
L 207.239945 201.613 
L 210.966466 201.613 
L 214.692988 201.613 
L 218.419509 201.613 
L 222.14603 201.613 
L 225.872552 201.613 
L 229.599073 201.613 
L 233.325595 201.613 
L 237.052116 201.613 
L 240.778637 147.853 
L 244.505159 147.853 
L 248.23168 147.853 
L 251.958202 147.853 
L 255.684723 147.853 
L 259.411245 147.853 
L 263.137766 147.853 
L 266.864287 147.853 
L 270.590809 147.853 
L 274.31733 147.853 
L 278.043852 115.597 
L 281.770373 115.597 
L 285.496894 115.597 
L 289.223416 115.597 
L 292.949937 115.597 
L 296.676459 115.597 
L 300.40298 115.597 
L 304.129502 115.597 
L 307.856023 115.597 
L 311.582544 115.597 
L 315.309066 93.197 
L 319.035587 93.197 
L 322.762109 93.197 
L 326.48863 93.197 
L 330.215151 93.197 
L 333.941673 93.197 
L 337.668194 93.197 
L 341.394716 93.197 
L 345.121237 93.197 
L 348.847758 93.197 
L 352.57428 93.197 
L 356.300801 93.197 
L 360.027323 93.197 
L 363.753844 93.197 
L 367.480366 93.197 
L 371.206887 64.973 
L 374.933408 64.973 
L 378.65993 64.973 
L 382.386451 64.973 
L 386.112973 64.973 
L 389.839494 60.493 
L 393.566015 60.493 
L 397.292537 60.493 
L 401.019058 60.493 
L 404.74558 60.493 
L 408.472101 60.493 
L 412.198622 60.493 
L 415.925144 60.493 
L 419.651665 60.493 
L 423.378187 60.493 
L 427.104708 60.493 
L 430.83123 60.493 
L 434.557751 60.493 
L 438.284272 60.493 
L 442.010794 60.493 
L 445.737315 60.493 
L 449.463837 60.493 
L 453.190358 60.493 
L 456.916879 60.493 
L 460.643401 47.949 
" clip-path="url(#pc715b59790)" style="fill: none; stroke: #008000; stroke-width: 3; stroke-linecap: square"/>
   </g>
   <g id="line2d_16">
    <path d="M 91.717781 451.149 
L 460.643401 47.949 
" clip-path="url(#pc715b59790)" style="fill: none; stroke-dasharray: 11.1,4.8; stroke-dashoffset: 0; stroke: #000000; stroke-opacity: 0.5; stroke-width: 3"/>
   </g>
   <g id="patch_3">
    <path d="M 73.2715 471.309 
L 73.2715 27.789 
" style="fill: none; stroke: #000000; stroke-width: 2.5; stroke-linejoin: miter; stroke-linecap: square"/>
   </g>
   <g id="patch_4">
    <path d="M 479.089682 471.309 
L 479.089682 27.789 
" style="fill: none; stroke: #000000; stroke-width: 2.5; stroke-linejoin: miter; stroke-linecap: square"/>
   </g>
   <g id="patch_5">
    <path d="M 73.2715 471.309 
L 479.089682 471.309 
" style="fill: none; stroke: #000000; stroke-width: 2.5; stroke-linejoin: miter; stroke-linecap: square"/>
   </g>
   <g id="patch_6">
    <path d="M 73.2715 27.789 
L 479.089682 27.789 
" style="fill: none; stroke: #000000; stroke-width: 2.5; stroke-linejoin: miter; stroke-linecap: square"/>
   </g>
   <g id="text_15">
    <!-- Approach OHE_DI_IS_LIVE -->
    <g transform="translate(152.316591 21.789) scale(0.192 -0.192)">
     <defs>
      <path id="DejaVuSans-41" d="M 2188 4044 
L 1331 1722 
L 3047 1722 
L 2188 4044 
z
M 1831 4666 
L 2547 4666 
L 4325 0 
L 3669 0 
L 3244 1197 
L 1141 1197 
L 716 0 
L 50 0 
L 1831 4666 
z
" transform="scale(0.015625)"/>
      <path id="DejaVuSans-70" d="M 1159 525 
L 1159 -1331 
L 581 -1331 
L 581 3500 
L 1159 3500 
L 1159 2969 
Q 1341 3281 1617 3432 
Q 1894 3584 2278 3584 
Q 2916 3584 3314 3078 
Q 3713 2572 3713 1747 
Q 3713 922 3314 415 
Q 2916 -91 2278 -91 
Q 1894 -91 1617 61 
Q 1341 213 1159 525 
z
M 3116 1747 
Q 3116 2381 2855 2742 
Q 2594 3103 2138 3103 
Q 1681 3103 1420 2742 
Q 1159 2381 1159 1747 
Q 1159 1113 1420 752 
Q 1681 391 2138 391 
Q 2594 391 2855 752 
Q 3116 1113 3116 1747 
z
" transform="scale(0.015625)"/>
      <path id="DejaVuSans-63" d="M 3122 3366 
L 3122 2828 
Q 2878 2963 2633 3030 
Q 2388 3097 2138 3097 
Q 1578 3097 1268 2742 
Q 959 2388 959 1747 
Q 959 1106 1268 751 
Q 1578 397 2138 397 
Q 2388 397 2633 464 
Q 2878 531 3122 666 
L 3122 134 
Q 2881 22 2623 -34 
Q 2366 -91 2075 -91 
Q 1284 -91 818 406 
Q 353 903 353 1747 
Q 353 2603 823 3093 
Q 1294 3584 2113 3584 
Q 2378 3584 2631 3529 
Q 2884 3475 3122 3366 
z
" transform="scale(0.015625)"/>
      <path id="DejaVuSans-68" d="M 3513 2113 
L 3513 0 
L 2938 0 
L 2938 2094 
Q 2938 2591 2744 2837 
Q 2550 3084 2163 3084 
Q 1697 3084 1428 2787 
Q 1159 2491 1159 1978 
L 1159 0 
L 581 0 
L 581 4863 
L 1159 4863 
L 1159 2956 
Q 1366 3272 1645 3428 
Q 1925 3584 2291 3584 
Q 2894 3584 3203 3211 
Q 3513 2838 3513 2113 
z
" transform="scale(0.015625)"/>
      <path id="DejaVuSans-4f" d="M 2522 4238 
Q 1834 4238 1429 3725 
Q 1025 3213 1025 2328 
Q 1025 1447 1429 934 
Q 1834 422 2522 422 
Q 3209 422 3611 934 
Q 4013 1447 4013 2328 
Q 4013 3213 3611 3725 
Q 3209 4238 2522 4238 
z
M 2522 4750 
Q 3503 4750 4090 4092 
Q 4678 3434 4678 2328 
Q 4678 1225 4090 567 
Q 3503 -91 2522 -91 
Q 1538 -91 948 565 
Q 359 1222 359 2328 
Q 359 3434 948 4092 
Q 1538 4750 2522 4750 
z
" transform="scale(0.015625)"/>
      <path id="DejaVuSans-48" d="M 628 4666 
L 1259 4666 
L 1259 2753 
L 3553 2753 
L 3553 4666 
L 4184 4666 
L 4184 0 
L 3553 0 
L 3553 2222 
L 1259 2222 
L 1259 0 
L 628 0 
L 628 4666 
z
" transform="scale(0.015625)"/>
      <path id="DejaVuSans-45" d="M 628 4666 
L 3578 4666 
L 3578 4134 
L 1259 4134 
L 1259 2753 
L 3481 2753 
L 3481 2222 
L 1259 2222 
L 1259 531 
L 3634 531 
L 3634 0 
L 628 0 
L 628 4666 
z
" transform="scale(0.015625)"/>
      <path id="DejaVuSans-5f" d="M 3263 -1063 
L 3263 -1509 
L -63 -1509 
L -63 -1063 
L 3263 -1063 
z
" transform="scale(0.015625)"/>
      <path id="DejaVuSans-44" d="M 1259 4147 
L 1259 519 
L 2022 519 
Q 2988 519 3436 956 
Q 3884 1394 3884 2338 
Q 3884 3275 3436 3711 
Q 2988 4147 2022 4147 
L 1259 4147 
z
M 628 4666 
L 1925 4666 
Q 3281 4666 3915 4102 
Q 4550 3538 4550 2338 
Q 4550 1131 3912 565 
Q 3275 0 1925 0 
L 628 0 
L 628 4666 
z
" transform="scale(0.015625)"/>
      <path id="DejaVuSans-49" d="M 628 4666 
L 1259 4666 
L 1259 0 
L 628 0 
L 628 4666 
z
" transform="scale(0.015625)"/>
      <path id="DejaVuSans-53" d="M 3425 4513 
L 3425 3897 
Q 3066 4069 2747 4153 
Q 2428 4238 2131 4238 
Q 1616 4238 1336 4038 
Q 1056 3838 1056 3469 
Q 1056 3159 1242 3001 
Q 1428 2844 1947 2747 
L 2328 2669 
Q 3034 2534 3370 2195 
Q 3706 1856 3706 1288 
Q 3706 609 3251 259 
Q 2797 -91 1919 -91 
Q 1588 -91 1214 -16 
Q 841 59 441 206 
L 441 856 
Q 825 641 1194 531 
Q 1563 422 1919 422 
Q 2459 422 2753 634 
Q 3047 847 3047 1241 
Q 3047 1584 2836 1778 
Q 2625 1972 2144 2069 
L 1759 2144 
Q 1053 2284 737 2584 
Q 422 2884 422 3419 
Q 422 4038 858 4394 
Q 1294 4750 2059 4750 
Q 2388 4750 2728 4690 
Q 3069 4631 3425 4513 
z
" transform="scale(0.015625)"/>
      <path id="DejaVuSans-4c" d="M 628 4666 
L 1259 4666 
L 1259 531 
L 3531 531 
L 3531 0 
L 628 0 
L 628 4666 
z
" transform="scale(0.015625)"/>
      <path id="DejaVuSans-56" d="M 1831 0 
L 50 4666 
L 709 4666 
L 2188 738 
L 3669 4666 
L 4325 4666 
L 2547 0 
L 1831 0 
z
" transform="scale(0.015625)"/>
     </defs>
     <use xlink:href="#DejaVuSans-41"/>
     <use xlink:href="#DejaVuSans-70" x="68.408203"/>
     <use xlink:href="#DejaVuSans-70" x="131.884766"/>
     <use xlink:href="#DejaVuSans-72" x="195.361328"/>
     <use xlink:href="#DejaVuSans-6f" x="234.224609"/>
     <use xlink:href="#DejaVuSans-61" x="295.40625"/>
     <use xlink:href="#DejaVuSans-63" x="356.685547"/>
     <use xlink:href="#DejaVuSans-68" x="411.666016"/>
     <use xlink:href="#DejaVuSans-20" x="475.044922"/>
     <use xlink:href="#DejaVuSans-4f" x="506.832031"/>
     <use xlink:href="#DejaVuSans-48" x="585.542969"/>
     <use xlink:href="#DejaVuSans-45" x="660.738281"/>
     <use xlink:href="#DejaVuSans-5f" x="723.921875"/>
     <use xlink:href="#DejaVuSans-44" x="773.921875"/>
     <use xlink:href="#DejaVuSans-49" x="850.923828"/>
     <use xlink:href="#DejaVuSans-5f" x="880.416016"/>
     <use xlink:href="#DejaVuSans-49" x="930.416016"/>
     <use xlink:href="#DejaVuSans-53" x="959.908203"/>
     <use xlink:href="#DejaVuSans-5f" x="1023.384766"/>
     <use xlink:href="#DejaVuSans-4c" x="1073.384766"/>
     <use xlink:href="#DejaVuSans-49" x="1129.097656"/>
     <use xlink:href="#DejaVuSans-56" x="1158.589844"/>
     <use xlink:href="#DejaVuSans-45" x="1226.998047"/>
    </g>
   </g>
   <g id="legend_1">
    <g id="patch_7">
     <path d="M 85.5915 119.3695 
L 231.01975 119.3695 
Q 234.53975 119.3695 234.53975 115.8495 
L 234.53975 40.109 
Q 234.53975 36.589 231.01975 36.589 
L 85.5915 36.589 
Q 82.0715 36.589 82.0715 40.109 
L 82.0715 115.8495 
Q 82.0715 119.3695 85.5915 119.3695 
z
" style="fill: #ffffff; opacity: 0.8; stroke: #cccccc; stroke-width: 2; stroke-linejoin: miter"/>
    </g>
    <g id="line2d_17">
     <path d="M 89.1115 50.84225 
L 106.7115 50.84225 
L 124.3115 50.84225 
" style="fill: none; stroke: #ffa500; stroke-width: 3; stroke-linecap: square"/>
    </g>
    <g id="text_16">
     <!-- LR: 0.76 -->
     <g transform="translate(138.3915 57.00225) scale(0.176 -0.176)">
      <defs>
       <path id="DejaVuSans-3a" d="M 750 794 
L 1409 794 
L 1409 0 
L 750 0 
L 750 794 
z
M 750 3309 
L 1409 3309 
L 1409 2516 
L 750 2516 
L 750 3309 
z
" transform="scale(0.015625)"/>
       <path id="DejaVuSans-37" d="M 525 4666 
L 3525 4666 
L 3525 4397 
L 1831 0 
L 1172 0 
L 2766 4134 
L 525 4134 
L 525 4666 
z
" transform="scale(0.015625)"/>
      </defs>
      <use xlink:href="#DejaVuSans-4c"/>
      <use xlink:href="#DejaVuSans-52" x="55.712891"/>
      <use xlink:href="#DejaVuSans-3a" x="122.070312"/>
      <use xlink:href="#DejaVuSans-20" x="155.761719"/>
      <use xlink:href="#DejaVuSans-30" x="187.548828"/>
      <use xlink:href="#DejaVuSans-2e" x="251.171875"/>
      <use xlink:href="#DejaVuSans-37" x="282.958984"/>
      <use xlink:href="#DejaVuSans-36" x="346.582031"/>
     </g>
    </g>
    <g id="line2d_18">
     <path d="M 89.1115 76.67575 
L 106.7115 76.67575 
L 124.3115 76.67575 
" style="fill: none; stroke: #0000ff; stroke-width: 3; stroke-linecap: square"/>
    </g>
    <g id="text_17">
     <!-- RF: 0.78 -->
     <g transform="translate(138.3915 82.83575) scale(0.176 -0.176)">
      <use xlink:href="#DejaVuSans-52"/>
      <use xlink:href="#DejaVuSans-46" x="69.482422"/>
      <use xlink:href="#DejaVuSans-3a" x="119.251953"/>
      <use xlink:href="#DejaVuSans-20" x="152.943359"/>
      <use xlink:href="#DejaVuSans-30" x="184.730469"/>
      <use xlink:href="#DejaVuSans-2e" x="248.353516"/>
      <use xlink:href="#DejaVuSans-37" x="280.140625"/>
      <use xlink:href="#DejaVuSans-38" x="343.763672"/>
     </g>
    </g>
    <g id="line2d_19">
     <path d="M 89.1115 102.50925 
L 106.7115 102.50925 
L 124.3115 102.50925 
" style="fill: none; stroke: #008000; stroke-width: 3; stroke-linecap: square"/>
    </g>
    <g id="text_18">
     <!-- SVM: 0.73 -->
     <g transform="translate(138.3915 108.66925) scale(0.176 -0.176)">
      <defs>
       <path id="DejaVuSans-4d" d="M 628 4666 
L 1569 4666 
L 2759 1491 
L 3956 4666 
L 4897 4666 
L 4897 0 
L 4281 0 
L 4281 4097 
L 3078 897 
L 2444 897 
L 1241 4097 
L 1241 0 
L 628 0 
L 628 4666 
z
" transform="scale(0.015625)"/>
       <path id="DejaVuSans-33" d="M 2597 2516 
Q 3050 2419 3304 2112 
Q 3559 1806 3559 1356 
Q 3559 666 3084 287 
Q 2609 -91 1734 -91 
Q 1441 -91 1130 -33 
Q 819 25 488 141 
L 488 750 
Q 750 597 1062 519 
Q 1375 441 1716 441 
Q 2309 441 2620 675 
Q 2931 909 2931 1356 
Q 2931 1769 2642 2001 
Q 2353 2234 1838 2234 
L 1294 2234 
L 1294 2753 
L 1863 2753 
Q 2328 2753 2575 2939 
Q 2822 3125 2822 3475 
Q 2822 3834 2567 4026 
Q 2313 4219 1838 4219 
Q 1578 4219 1281 4162 
Q 984 4106 628 3988 
L 628 4550 
Q 988 4650 1302 4700 
Q 1616 4750 1894 4750 
Q 2613 4750 3031 4423 
Q 3450 4097 3450 3541 
Q 3450 3153 3228 2886 
Q 3006 2619 2597 2516 
z
" transform="scale(0.015625)"/>
      </defs>
      <use xlink:href="#DejaVuSans-53"/>
      <use xlink:href="#DejaVuSans-56" x="63.476562"/>
      <use xlink:href="#DejaVuSans-4d" x="131.884766"/>
      <use xlink:href="#DejaVuSans-3a" x="218.164062"/>
      <use xlink:href="#DejaVuSans-20" x="251.855469"/>
      <use xlink:href="#DejaVuSans-30" x="283.642578"/>
      <use xlink:href="#DejaVuSans-2e" x="347.265625"/>
      <use xlink:href="#DejaVuSans-37" x="379.052734"/>
      <use xlink:href="#DejaVuSans-33" x="442.675781"/>
     </g>
    </g>
   </g>
  </g>
  <g id="axes_2">
   <g id="patch_8">
    <path d="M 560.253318 471.309 
L 966.0715 471.309 
L 966.0715 27.789 
L 560.253318 27.789 
z
" style="fill: #ffffff"/>
   </g>
   <g id="PolyCollection_4">
    <defs>
     <path id="m107c232fce" d="M 578.699599 -82.4755 
L 578.699599 -82.4755 
L 582.426121 -163.1155 
L 586.152642 -163.1155 
L 589.879163 -163.1155 
L 593.605685 -163.1155 
L 597.332206 -163.1155 
L 601.058728 -163.1155 
L 604.785249 -163.1155 
L 608.51177 -163.1155 
L 612.238292 -163.1155 
L 615.964813 -163.1155 
L 619.691335 -163.1155 
L 623.417856 -163.1155 
L 627.144378 -163.1155 
L 630.870899 -163.1155 
L 634.59742 -163.1155 
L 638.323942 -163.1155 
L 642.050463 -163.1155 
L 645.776985 -163.1155 
L 649.503506 -163.1155 
L 653.230027 -163.1155 
L 656.956549 -163.1155 
L 660.68307 -163.1155 
L 664.409592 -163.1155 
L 668.136113 -163.1155 
L 671.862634 -243.7555 
L 675.589156 -243.7555 
L 679.315677 -243.7555 
L 683.042199 -243.7555 
L 686.76872 -243.7555 
L 690.495242 -243.7555 
L 694.221763 -243.7555 
L 697.948284 -243.7555 
L 701.674806 -243.7555 
L 705.401327 -243.7555 
L 709.127849 -243.7555 
L 712.85437 -243.7555 
L 716.580891 -243.7555 
L 720.307413 -243.7555 
L 724.033934 -243.7555 
L 727.760456 -243.7555 
L 731.486977 -243.7555 
L 735.213498 -243.7555 
L 738.94002 -243.7555 
L 742.666541 -243.7555 
L 746.393063 -243.7555 
L 750.119584 -243.7555 
L 753.846106 -243.7555 
L 757.572627 -243.7555 
L 761.299148 -243.7555 
L 765.02567 -306.4755 
L 768.752191 -306.4755 
L 772.478713 -306.4755 
L 776.205234 -306.4755 
L 779.931755 -306.4755 
L 783.658277 -306.4755 
L 787.384798 -306.4755 
L 791.11132 -306.4755 
L 794.837841 -306.4755 
L 798.564363 -306.4755 
L 802.290884 -351.2755 
L 806.017405 -351.2755 
L 809.743927 -351.2755 
L 813.470448 -351.2755 
L 817.19697 -351.2755 
L 820.923491 -351.2755 
L 824.650012 -351.2755 
L 828.376534 -351.2755 
L 832.103055 -351.2755 
L 835.829577 -351.2755 
L 839.556098 -351.2755 
L 843.282619 -351.2755 
L 847.009141 -351.2755 
L 850.735662 -351.2755 
L 854.462184 -351.2755 
L 858.188705 -351.2755 
L 861.915227 -351.2755 
L 865.641748 -351.2755 
L 869.368269 -351.2755 
L 873.094791 -351.2755 
L 876.821312 -396.0755 
L 880.547834 -396.0755 
L 884.274355 -396.0755 
L 888.000876 -396.0755 
L 891.727398 -396.0755 
L 895.453919 -396.0755 
L 899.180441 -396.0755 
L 902.906962 -396.0755 
L 906.633483 -396.0755 
L 910.360005 -396.0755 
L 914.086526 -396.0755 
L 917.813048 -396.0755 
L 921.539569 -396.0755 
L 925.266091 -396.0755 
L 928.992612 -396.0755 
L 932.719133 -396.0755 
L 936.445655 -396.0755 
L 940.172176 -396.0755 
L 943.898698 -396.0755 
L 947.625219 -485.6755 
L 947.625219 -485.6755 
L 947.625219 -485.6755 
L 943.898698 -485.6755 
L 940.172176 -485.6755 
L 936.445655 -485.6755 
L 932.719133 -485.6755 
L 928.992612 -485.6755 
L 925.266091 -485.6755 
L 921.539569 -485.6755 
L 917.813048 -485.6755 
L 914.086526 -485.6755 
L 910.360005 -485.6755 
L 906.633483 -485.6755 
L 902.906962 -485.6755 
L 899.180441 -485.6755 
L 895.453919 -485.6755 
L 891.727398 -485.6755 
L 888.000876 -485.6755 
L 884.274355 -485.6755 
L 880.547834 -485.6755 
L 876.821312 -485.6755 
L 873.094791 -485.6755 
L 869.368269 -485.6755 
L 865.641748 -485.6755 
L 861.915227 -485.6755 
L 858.188705 -485.6755 
L 854.462184 -485.6755 
L 850.735662 -485.6755 
L 847.009141 -485.6755 
L 843.282619 -485.6755 
L 839.556098 -485.6755 
L 835.829577 -485.6755 
L 832.103055 -485.6755 
L 828.376534 -485.6755 
L 824.650012 -485.6755 
L 820.923491 -485.6755 
L 817.19697 -485.6755 
L 813.470448 -485.6755 
L 809.743927 -485.6755 
L 806.017405 -485.6755 
L 802.290884 -485.6755 
L 798.564363 -485.6755 
L 794.837841 -485.6755 
L 791.11132 -485.6755 
L 787.384798 -485.6755 
L 783.658277 -485.6755 
L 779.931755 -485.6755 
L 776.205234 -485.6755 
L 772.478713 -485.6755 
L 768.752191 -485.6755 
L 765.02567 -485.6755 
L 761.299148 -485.6755 
L 757.572627 -485.6755 
L 753.846106 -485.6755 
L 750.119584 -485.6755 
L 746.393063 -485.6755 
L 742.666541 -485.6755 
L 738.94002 -485.6755 
L 735.213498 -485.6755 
L 731.486977 -485.6755 
L 727.760456 -485.6755 
L 724.033934 -485.6755 
L 720.307413 -485.6755 
L 716.580891 -485.6755 
L 712.85437 -485.6755 
L 709.127849 -485.6755 
L 705.401327 -485.6755 
L 701.674806 -485.6755 
L 697.948284 -485.6755 
L 694.221763 -485.6755 
L 690.495242 -485.6755 
L 686.76872 -485.6755 
L 683.042199 -485.6755 
L 679.315677 -485.6755 
L 675.589156 -485.6755 
L 671.862634 -485.6755 
L 668.136113 -485.6755 
L 664.409592 -485.6755 
L 660.68307 -485.6755 
L 656.956549 -485.6755 
L 653.230027 -485.6755 
L 649.503506 -405.0355 
L 645.776985 -405.0355 
L 642.050463 -405.0355 
L 638.323942 -405.0355 
L 634.59742 -405.0355 
L 630.870899 -405.0355 
L 627.144378 -405.0355 
L 623.417856 -405.0355 
L 619.691335 -405.0355 
L 615.964813 -405.0355 
L 612.238292 -405.0355 
L 608.51177 -405.0355 
L 604.785249 -405.0355 
L 601.058728 -405.0355 
L 597.332206 -405.0355 
L 593.605685 -405.0355 
L 589.879163 -405.0355 
L 586.152642 -405.0355 
L 582.426121 -405.0355 
L 578.699599 -82.4755 
z
" style="stroke: #ffa500; stroke-opacity: 0.2; stroke-width: 2"/>
    </defs>
    <g clip-path="url(#p4d59d3c745)">
     <use xlink:href="#m107c232fce" x="0" y="533.6245" style="fill: #ffa500; fill-opacity: 0.2; stroke: #ffa500; stroke-opacity: 0.2; stroke-width: 2"/>
    </g>
   </g>
   <g id="PolyCollection_5">
    <defs>
     <path id="ma586bba713" d="M 578.699599 -82.4755 
L 578.699599 -82.4755 
L 582.426121 -163.1155 
L 586.152642 -163.1155 
L 589.879163 -163.1155 
L 593.605685 -163.1155 
L 597.332206 -163.1155 
L 601.058728 -163.1155 
L 604.785249 -163.1155 
L 608.51177 -163.1155 
L 612.238292 -163.1155 
L 615.964813 -163.1155 
L 619.691335 -163.1155 
L 623.417856 -163.1155 
L 627.144378 -163.1155 
L 630.870899 -163.1155 
L 634.59742 -163.1155 
L 638.323942 -163.1155 
L 642.050463 -163.1155 
L 645.776985 -163.1155 
L 649.503506 -163.1155 
L 653.230027 -163.1155 
L 656.956549 -163.1155 
L 660.68307 -163.1155 
L 664.409592 -163.1155 
L 668.136113 -163.1155 
L 671.862634 -261.6755 
L 675.589156 -261.6755 
L 679.315677 -261.6755 
L 683.042199 -261.6755 
L 686.76872 -261.6755 
L 690.495242 -261.6755 
L 694.221763 -261.6755 
L 697.948284 -261.6755 
L 701.674806 -261.6755 
L 705.401327 -261.6755 
L 709.127849 -261.6755 
L 712.85437 -261.6755 
L 716.580891 -261.6755 
L 720.307413 -261.6755 
L 724.033934 -261.6755 
L 727.760456 -306.4755 
L 731.486977 -306.4755 
L 735.213498 -306.4755 
L 738.94002 -306.4755 
L 742.666541 -306.4755 
L 746.393063 -306.4755 
L 750.119584 -306.4755 
L 753.846106 -306.4755 
L 757.572627 -306.4755 
L 761.299148 -306.4755 
L 765.02567 -306.4755 
L 768.752191 -306.4755 
L 772.478713 -306.4755 
L 776.205234 -306.4755 
L 779.931755 -306.4755 
L 783.658277 -306.4755 
L 787.384798 -306.4755 
L 791.11132 -306.4755 
L 794.837841 -306.4755 
L 798.564363 -306.4755 
L 802.290884 -364.7155 
L 806.017405 -364.7155 
L 809.743927 -364.7155 
L 813.470448 -364.7155 
L 817.19697 -364.7155 
L 820.923491 -364.7155 
L 824.650012 -364.7155 
L 828.376534 -364.7155 
L 832.103055 -364.7155 
L 835.829577 -364.7155 
L 839.556098 -364.7155 
L 843.282619 -364.7155 
L 847.009141 -364.7155 
L 850.735662 -364.7155 
L 854.462184 -364.7155 
L 858.188705 -396.0755 
L 861.915227 -396.0755 
L 865.641748 -396.0755 
L 869.368269 -396.0755 
L 873.094791 -396.0755 
L 876.821312 -440.8755 
L 880.547834 -440.8755 
L 884.274355 -440.8755 
L 888.000876 -440.8755 
L 891.727398 -440.8755 
L 895.453919 -440.8755 
L 899.180441 -440.8755 
L 902.906962 -440.8755 
L 906.633483 -440.8755 
L 910.360005 -440.8755 
L 914.086526 -440.8755 
L 917.813048 -440.8755 
L 921.539569 -440.8755 
L 925.266091 -440.8755 
L 928.992612 -440.8755 
L 932.719133 -440.8755 
L 936.445655 -440.8755 
L 940.172176 -440.8755 
L 943.898698 -440.8755 
L 947.625219 -485.6755 
L 947.625219 -485.6755 
L 947.625219 -485.6755 
L 943.898698 -485.6755 
L 940.172176 -485.6755 
L 936.445655 -485.6755 
L 932.719133 -485.6755 
L 928.992612 -485.6755 
L 925.266091 -485.6755 
L 921.539569 -485.6755 
L 917.813048 -485.6755 
L 914.086526 -485.6755 
L 910.360005 -485.6755 
L 906.633483 -485.6755 
L 902.906962 -485.6755 
L 899.180441 -485.6755 
L 895.453919 -485.6755 
L 891.727398 -485.6755 
L 888.000876 -485.6755 
L 884.274355 -485.6755 
L 880.547834 -485.6755 
L 876.821312 -485.6755 
L 873.094791 -485.6755 
L 869.368269 -485.6755 
L 865.641748 -485.6755 
L 861.915227 -485.6755 
L 858.188705 -485.6755 
L 854.462184 -485.6755 
L 850.735662 -485.6755 
L 847.009141 -485.6755 
L 843.282619 -485.6755 
L 839.556098 -485.6755 
L 835.829577 -485.6755 
L 832.103055 -485.6755 
L 828.376534 -485.6755 
L 824.650012 -485.6755 
L 820.923491 -485.6755 
L 817.19697 -485.6755 
L 813.470448 -485.6755 
L 809.743927 -485.6755 
L 806.017405 -485.6755 
L 802.290884 -485.6755 
L 798.564363 -485.6755 
L 794.837841 -485.6755 
L 791.11132 -485.6755 
L 787.384798 -485.6755 
L 783.658277 -485.6755 
L 779.931755 -485.6755 
L 776.205234 -485.6755 
L 772.478713 -485.6755 
L 768.752191 -485.6755 
L 765.02567 -485.6755 
L 761.299148 -485.6755 
L 757.572627 -485.6755 
L 753.846106 -485.6755 
L 750.119584 -485.6755 
L 746.393063 -485.6755 
L 742.666541 -485.6755 
L 738.94002 -485.6755 
L 735.213498 -485.6755 
L 731.486977 -485.6755 
L 727.760456 -485.6755 
L 724.033934 -485.6755 
L 720.307413 -485.6755 
L 716.580891 -485.6755 
L 712.85437 -485.6755 
L 709.127849 -485.6755 
L 705.401327 -485.6755 
L 701.674806 -485.6755 
L 697.948284 -485.6755 
L 694.221763 -485.6755 
L 690.495242 -485.6755 
L 686.76872 -485.6755 
L 683.042199 -485.6755 
L 679.315677 -485.6755 
L 675.589156 -485.6755 
L 671.862634 -485.6755 
L 668.136113 -485.6755 
L 664.409592 -485.6755 
L 660.68307 -485.6755 
L 656.956549 -485.6755 
L 653.230027 -485.6755 
L 649.503506 -476.308227 
L 645.776985 -474.679136 
L 642.050463 -473.050045 
L 638.323942 -471.420955 
L 634.59742 -469.791864 
L 630.870899 -468.162773 
L 627.144378 -466.533682 
L 623.417856 -464.904591 
L 619.691335 -463.2755 
L 615.964813 -461.646409 
L 612.238292 -460.017318 
L 608.51177 -458.388227 
L 604.785249 -456.759136 
L 601.058728 -455.130045 
L 597.332206 -453.500955 
L 593.605685 -451.871864 
L 589.879163 -450.242773 
L 586.152642 -448.613682 
L 582.426121 -446.984591 
L 578.699599 -82.4755 
z
" style="stroke: #0000ff; stroke-opacity: 0.2; stroke-width: 2"/>
    </defs>
    <g clip-path="url(#p4d59d3c745)">
     <use xlink:href="#ma586bba713" x="0" y="533.6245" style="fill: #0000ff; fill-opacity: 0.2; stroke: #0000ff; stroke-opacity: 0.2; stroke-width: 2"/>
    </g>
   </g>
   <g id="PolyCollection_6">
    <defs>
     <path id="m5cb896b81b" d="M 578.699599 -82.4755 
L 578.699599 -82.4755 
L 582.426121 -82.4755 
L 586.152642 -82.4755 
L 589.879163 -82.4755 
L 593.605685 -82.4755 
L 597.332206 -82.4755 
L 601.058728 -82.4755 
L 604.785249 -82.4755 
L 608.51177 -82.4755 
L 612.238292 -82.4755 
L 615.964813 -82.4755 
L 619.691335 -82.4755 
L 623.417856 -82.4755 
L 627.144378 -82.4755 
L 630.870899 -82.4755 
L 634.59742 -82.4755 
L 638.323942 -82.4755 
L 642.050463 -82.4755 
L 645.776985 -82.4755 
L 649.503506 -82.4755 
L 653.230027 -203.4355 
L 656.956549 -203.4355 
L 660.68307 -203.4355 
L 664.409592 -203.4355 
L 668.136113 -203.4355 
L 671.862634 -216.8755 
L 675.589156 -216.8755 
L 679.315677 -216.8755 
L 683.042199 -216.8755 
L 686.76872 -216.8755 
L 690.495242 -216.8755 
L 694.221763 -216.8755 
L 697.948284 -216.8755 
L 701.674806 -216.8755 
L 705.401327 -216.8755 
L 709.127849 -216.8755 
L 712.85437 -216.8755 
L 716.580891 -216.8755 
L 720.307413 -216.8755 
L 724.033934 -216.8755 
L 727.760456 -243.7555 
L 731.486977 -243.7555 
L 735.213498 -243.7555 
L 738.94002 -243.7555 
L 742.666541 -243.7555 
L 746.393063 -243.7555 
L 750.119584 -243.7555 
L 753.846106 -243.7555 
L 757.572627 -243.7555 
L 761.299148 -243.7555 
L 765.02567 -306.4755 
L 768.752191 -306.4755 
L 772.478713 -306.4755 
L 776.205234 -306.4755 
L 779.931755 -306.4755 
L 783.658277 -306.4755 
L 787.384798 -306.4755 
L 791.11132 -306.4755 
L 794.837841 -306.4755 
L 798.564363 -306.4755 
L 802.290884 -351.2755 
L 806.017405 -351.2755 
L 809.743927 -351.2755 
L 813.470448 -351.2755 
L 817.19697 -351.2755 
L 820.923491 -351.2755 
L 824.650012 -351.2755 
L 828.376534 -351.2755 
L 832.103055 -351.2755 
L 835.829577 -351.2755 
L 839.556098 -351.2755 
L 843.282619 -351.2755 
L 847.009141 -351.2755 
L 850.735662 -351.2755 
L 854.462184 -351.2755 
L 858.188705 -351.2755 
L 861.915227 -351.2755 
L 865.641748 -351.2755 
L 869.368269 -351.2755 
L 873.094791 -351.2755 
L 876.821312 -440.8755 
L 880.547834 -440.8755 
L 884.274355 -440.8755 
L 888.000876 -440.8755 
L 891.727398 -440.8755 
L 895.453919 -440.8755 
L 899.180441 -440.8755 
L 902.906962 -440.8755 
L 906.633483 -440.8755 
L 910.360005 -440.8755 
L 914.086526 -440.8755 
L 917.813048 -440.8755 
L 921.539569 -440.8755 
L 925.266091 -440.8755 
L 928.992612 -440.8755 
L 932.719133 -440.8755 
L 936.445655 -440.8755 
L 940.172176 -440.8755 
L 943.898698 -440.8755 
L 947.625219 -485.6755 
L 947.625219 -485.6755 
L 947.625219 -485.6755 
L 943.898698 -485.6755 
L 940.172176 -485.6755 
L 936.445655 -485.6755 
L 932.719133 -485.6755 
L 928.992612 -485.6755 
L 925.266091 -485.6755 
L 921.539569 -485.6755 
L 917.813048 -485.6755 
L 914.086526 -485.6755 
L 910.360005 -485.6755 
L 906.633483 -485.6755 
L 902.906962 -485.6755 
L 899.180441 -485.6755 
L 895.453919 -485.6755 
L 891.727398 -485.6755 
L 888.000876 -485.6755 
L 884.274355 -485.6755 
L 880.547834 -485.6755 
L 876.821312 -485.6755 
L 873.094791 -485.6755 
L 869.368269 -485.6755 
L 865.641748 -485.6755 
L 861.915227 -485.6755 
L 858.188705 -485.6755 
L 854.462184 -485.6755 
L 850.735662 -485.6755 
L 847.009141 -485.6755 
L 843.282619 -485.6755 
L 839.556098 -485.6755 
L 835.829577 -485.6755 
L 832.103055 -485.6755 
L 828.376534 -485.6755 
L 824.650012 -485.6755 
L 820.923491 -485.6755 
L 817.19697 -485.6755 
L 813.470448 -485.6755 
L 809.743927 -485.6755 
L 806.017405 -485.6755 
L 802.290884 -485.6755 
L 798.564363 -485.6755 
L 794.837841 -485.6755 
L 791.11132 -485.6755 
L 787.384798 -485.6755 
L 783.658277 -485.6755 
L 779.931755 -485.6755 
L 776.205234 -485.6755 
L 772.478713 -485.6755 
L 768.752191 -485.6755 
L 765.02567 -485.6755 
L 761.299148 -485.6755 
L 757.572627 -485.6755 
L 753.846106 -485.6755 
L 750.119584 -485.6755 
L 746.393063 -485.6755 
L 742.666541 -485.6755 
L 738.94002 -485.6755 
L 735.213498 -485.6755 
L 731.486977 -485.6755 
L 727.760456 -485.6755 
L 724.033934 -485.6755 
L 720.307413 -485.6755 
L 716.580891 -485.6755 
L 712.85437 -485.6755 
L 709.127849 -485.6755 
L 705.401327 -485.6755 
L 701.674806 -485.6755 
L 697.948284 -485.6755 
L 694.221763 -485.6755 
L 690.495242 -485.6755 
L 686.76872 -485.6755 
L 683.042199 -485.6755 
L 679.315677 -485.6755 
L 675.589156 -485.6755 
L 671.862634 -485.6755 
L 668.136113 -440.8755 
L 664.409592 -440.8755 
L 660.68307 -440.8755 
L 656.956549 -440.8755 
L 653.230027 -440.8755 
L 649.503506 -440.8755 
L 645.776985 -440.8755 
L 642.050463 -440.8755 
L 638.323942 -440.8755 
L 634.59742 -440.8755 
L 630.870899 -440.8755 
L 627.144378 -440.8755 
L 623.417856 -440.8755 
L 619.691335 -440.8755 
L 615.964813 -440.8755 
L 612.238292 -440.8755 
L 608.51177 -440.8755 
L 604.785249 -440.8755 
L 601.058728 -440.8755 
L 597.332206 -440.8755 
L 593.605685 -440.8755 
L 589.879163 -440.8755 
L 586.152642 -440.8755 
L 582.426121 -440.8755 
L 578.699599 -82.4755 
z
" style="stroke: #008000; stroke-opacity: 0.2; stroke-width: 2"/>
    </defs>
    <g clip-path="url(#p4d59d3c745)">
     <use xlink:href="#m5cb896b81b" x="0" y="533.6245" style="fill: #008000; fill-opacity: 0.2; stroke: #008000; stroke-opacity: 0.2; stroke-width: 2"/>
    </g>
   </g>
   <g id="matplotlib.axis_3">
    <g id="xtick_7">
     <g id="line2d_20">
      <g>
       <use xlink:href="#m3d8868c899" x="578.699599" y="471.309" style="stroke: #000000; stroke-width: 2.5"/>
      </g>
     </g>
     <g id="text_19">
      <!-- 0.0 -->
      <g transform="translate(564.704849 500.18225) scale(0.176 -0.176)">
       <use xlink:href="#DejaVuSans-30"/>
       <use xlink:href="#DejaVuSans-2e" x="63.623047"/>
       <use xlink:href="#DejaVuSans-30" x="95.410156"/>
      </g>
     </g>
    </g>
    <g id="xtick_8">
     <g id="line2d_21">
      <g>
       <use xlink:href="#m3d8868c899" x="652.484723" y="471.309" style="stroke: #000000; stroke-width: 2.5"/>
      </g>
     </g>
     <g id="text_20">
      <!-- 0.2 -->
      <g transform="translate(638.489973 500.18225) scale(0.176 -0.176)">
       <use xlink:href="#DejaVuSans-30"/>
       <use xlink:href="#DejaVuSans-2e" x="63.623047"/>
       <use xlink:href="#DejaVuSans-32" x="95.410156"/>
      </g>
     </g>
    </g>
    <g id="xtick_9">
     <g id="line2d_22">
      <g>
       <use xlink:href="#m3d8868c899" x="726.269847" y="471.309" style="stroke: #000000; stroke-width: 2.5"/>
      </g>
     </g>
     <g id="text_21">
      <!-- 0.4 -->
      <g transform="translate(712.275097 500.18225) scale(0.176 -0.176)">
       <use xlink:href="#DejaVuSans-30"/>
       <use xlink:href="#DejaVuSans-2e" x="63.623047"/>
       <use xlink:href="#DejaVuSans-34" x="95.410156"/>
      </g>
     </g>
    </g>
    <g id="xtick_10">
     <g id="line2d_23">
      <g>
       <use xlink:href="#m3d8868c899" x="800.054971" y="471.309" style="stroke: #000000; stroke-width: 2.5"/>
      </g>
     </g>
     <g id="text_22">
      <!-- 0.6 -->
      <g transform="translate(786.060221 500.18225) scale(0.176 -0.176)">
       <use xlink:href="#DejaVuSans-30"/>
       <use xlink:href="#DejaVuSans-2e" x="63.623047"/>
       <use xlink:href="#DejaVuSans-36" x="95.410156"/>
      </g>
     </g>
    </g>
    <g id="xtick_11">
     <g id="line2d_24">
      <g>
       <use xlink:href="#m3d8868c899" x="873.840095" y="471.309" style="stroke: #000000; stroke-width: 2.5"/>
      </g>
     </g>
     <g id="text_23">
      <!-- 0.8 -->
      <g transform="translate(859.845345 500.18225) scale(0.176 -0.176)">
       <use xlink:href="#DejaVuSans-30"/>
       <use xlink:href="#DejaVuSans-2e" x="63.623047"/>
       <use xlink:href="#DejaVuSans-38" x="95.410156"/>
      </g>
     </g>
    </g>
    <g id="xtick_12">
     <g id="line2d_25">
      <g>
       <use xlink:href="#m3d8868c899" x="947.625219" y="471.309" style="stroke: #000000; stroke-width: 2.5"/>
      </g>
     </g>
     <g id="text_24">
      <!-- 1.0 -->
      <g transform="translate(933.630469 500.18225) scale(0.176 -0.176)">
       <use xlink:href="#DejaVuSans-31"/>
       <use xlink:href="#DejaVuSans-2e" x="63.623047"/>
       <use xlink:href="#DejaVuSans-30" x="95.410156"/>
      </g>
     </g>
    </g>
    <g id="text_25">
     <!-- False Positive Rate -->
     <g transform="translate(673.946909 522.4315) scale(0.192 -0.192)">
      <use xlink:href="#DejaVuSans-46"/>
      <use xlink:href="#DejaVuSans-61" x="48.394531"/>
      <use xlink:href="#DejaVuSans-6c" x="109.673828"/>
      <use xlink:href="#DejaVuSans-73" x="137.457031"/>
      <use xlink:href="#DejaVuSans-65" x="189.556641"/>
      <use xlink:href="#DejaVuSans-20" x="251.080078"/>
      <use xlink:href="#DejaVuSans-50" x="282.867188"/>
      <use xlink:href="#DejaVuSans-6f" x="339.544922"/>
      <use xlink:href="#DejaVuSans-73" x="400.726562"/>
      <use xlink:href="#DejaVuSans-69" x="452.826172"/>
      <use xlink:href="#DejaVuSans-74" x="480.609375"/>
      <use xlink:href="#DejaVuSans-69" x="519.818359"/>
      <use xlink:href="#DejaVuSans-76" x="547.601562"/>
      <use xlink:href="#DejaVuSans-65" x="606.78125"/>
      <use xlink:href="#DejaVuSans-20" x="668.304688"/>
      <use xlink:href="#DejaVuSans-52" x="700.091797"/>
      <use xlink:href="#DejaVuSans-61" x="767.324219"/>
      <use xlink:href="#DejaVuSans-74" x="828.603516"/>
      <use xlink:href="#DejaVuSans-65" x="867.8125"/>
     </g>
    </g>
   </g>
   <g id="matplotlib.axis_4">
    <g id="ytick_7">
     <g id="line2d_26">
      <g>
       <use xlink:href="#m7452103625" x="560.253318" y="451.149" style="stroke: #000000; stroke-width: 2.5"/>
      </g>
     </g>
     <g id="text_26">
      <!-- 0.0 -->
      <g transform="translate(516.763818 457.835625) scale(0.176 -0.176)">
       <use xlink:href="#DejaVuSans-30"/>
       <use xlink:href="#DejaVuSans-2e" x="63.623047"/>
       <use xlink:href="#DejaVuSans-30" x="95.410156"/>
      </g>
     </g>
    </g>
    <g id="ytick_8">
     <g id="line2d_27">
      <g>
       <use xlink:href="#m7452103625" x="560.253318" y="370.509" style="stroke: #000000; stroke-width: 2.5"/>
      </g>
     </g>
     <g id="text_27">
      <!-- 0.2 -->
      <g transform="translate(516.763818 377.195625) scale(0.176 -0.176)">
       <use xlink:href="#DejaVuSans-30"/>
       <use xlink:href="#DejaVuSans-2e" x="63.623047"/>
       <use xlink:href="#DejaVuSans-32" x="95.410156"/>
      </g>
     </g>
    </g>
    <g id="ytick_9">
     <g id="line2d_28">
      <g>
       <use xlink:href="#m7452103625" x="560.253318" y="289.869" style="stroke: #000000; stroke-width: 2.5"/>
      </g>
     </g>
     <g id="text_28">
      <!-- 0.4 -->
      <g transform="translate(516.763818 296.555625) scale(0.176 -0.176)">
       <use xlink:href="#DejaVuSans-30"/>
       <use xlink:href="#DejaVuSans-2e" x="63.623047"/>
       <use xlink:href="#DejaVuSans-34" x="95.410156"/>
      </g>
     </g>
    </g>
    <g id="ytick_10">
     <g id="line2d_29">
      <g>
       <use xlink:href="#m7452103625" x="560.253318" y="209.229" style="stroke: #000000; stroke-width: 2.5"/>
      </g>
     </g>
     <g id="text_29">
      <!-- 0.6 -->
      <g transform="translate(516.763818 215.915625) scale(0.176 -0.176)">
       <use xlink:href="#DejaVuSans-30"/>
       <use xlink:href="#DejaVuSans-2e" x="63.623047"/>
       <use xlink:href="#DejaVuSans-36" x="95.410156"/>
      </g>
     </g>
    </g>
    <g id="ytick_11">
     <g id="line2d_30">
      <g>
       <use xlink:href="#m7452103625" x="560.253318" y="128.589" style="stroke: #000000; stroke-width: 2.5"/>
      </g>
     </g>
     <g id="text_30">
      <!-- 0.8 -->
      <g transform="translate(516.763818 135.275625) scale(0.176 -0.176)">
       <use xlink:href="#DejaVuSans-30"/>
       <use xlink:href="#DejaVuSans-2e" x="63.623047"/>
       <use xlink:href="#DejaVuSans-38" x="95.410156"/>
      </g>
     </g>
    </g>
    <g id="ytick_12">
     <g id="line2d_31">
      <g>
       <use xlink:href="#m7452103625" x="560.253318" y="47.949" style="stroke: #000000; stroke-width: 2.5"/>
      </g>
     </g>
     <g id="text_31">
      <!-- 1.0 -->
      <g transform="translate(516.763818 54.635625) scale(0.176 -0.176)">
       <use xlink:href="#DejaVuSans-31"/>
       <use xlink:href="#DejaVuSans-2e" x="63.623047"/>
       <use xlink:href="#DejaVuSans-30" x="95.410156"/>
      </g>
     </g>
    </g>
    <g id="text_32">
     <!-- True Positive Rate -->
     <g transform="translate(508.770818 335.046) rotate(-90) scale(0.192 -0.192)">
      <use xlink:href="#DejaVuSans-54"/>
      <use xlink:href="#DejaVuSans-72" x="46.333984"/>
      <use xlink:href="#DejaVuSans-75" x="87.447266"/>
      <use xlink:href="#DejaVuSans-65" x="150.826172"/>
      <use xlink:href="#DejaVuSans-20" x="212.349609"/>
      <use xlink:href="#DejaVuSans-50" x="244.136719"/>
      <use xlink:href="#DejaVuSans-6f" x="300.814453"/>
      <use xlink:href="#DejaVuSans-73" x="361.996094"/>
      <use xlink:href="#DejaVuSans-69" x="414.095703"/>
      <use xlink:href="#DejaVuSans-74" x="441.878906"/>
      <use xlink:href="#DejaVuSans-69" x="481.087891"/>
      <use xlink:href="#DejaVuSans-76" x="508.871094"/>
      <use xlink:href="#DejaVuSans-65" x="568.050781"/>
      <use xlink:href="#DejaVuSans-20" x="629.574219"/>
      <use xlink:href="#DejaVuSans-52" x="661.361328"/>
      <use xlink:href="#DejaVuSans-61" x="728.59375"/>
      <use xlink:href="#DejaVuSans-74" x="789.873047"/>
      <use xlink:href="#DejaVuSans-65" x="829.082031"/>
     </g>
    </g>
   </g>
   <g id="line2d_32">
    <path d="M 578.699599 451.149 
L 582.426121 241.037 
L 586.152642 241.037 
L 589.879163 241.037 
L 593.605685 241.037 
L 597.332206 241.037 
L 601.058728 241.037 
L 604.785249 241.037 
L 608.51177 241.037 
L 612.238292 241.037 
L 615.964813 241.037 
L 619.691335 241.037 
L 623.417856 241.037 
L 627.144378 241.037 
L 630.870899 241.037 
L 634.59742 241.037 
L 638.323942 241.037 
L 642.050463 241.037 
L 645.776985 241.037 
L 649.503506 241.037 
L 653.230027 205.197 
L 656.956549 205.197 
L 660.68307 205.197 
L 664.409592 205.197 
L 668.136113 205.197 
L 671.862634 168.909 
L 675.589156 168.909 
L 679.315677 168.909 
L 683.042199 168.909 
L 686.76872 168.909 
L 690.495242 168.909 
L 694.221763 168.909 
L 697.948284 168.909 
L 701.674806 168.909 
L 705.401327 168.909 
L 709.127849 168.909 
L 712.85437 168.909 
L 716.580891 168.909 
L 720.307413 168.909 
L 724.033934 168.909 
L 727.760456 168.909 
L 731.486977 168.909 
L 735.213498 168.909 
L 738.94002 168.909 
L 742.666541 168.909 
L 746.393063 168.909 
L 750.119584 168.909 
L 753.846106 168.909 
L 757.572627 168.909 
L 761.299148 168.909 
L 765.02567 112.461 
L 768.752191 112.461 
L 772.478713 112.461 
L 776.205234 112.461 
L 779.931755 112.461 
L 783.658277 112.461 
L 787.384798 112.461 
L 791.11132 112.461 
L 794.837841 112.461 
L 798.564363 112.461 
L 802.290884 99.021 
L 806.017405 99.021 
L 809.743927 99.021 
L 813.470448 99.021 
L 817.19697 99.021 
L 820.923491 99.021 
L 824.650012 99.021 
L 828.376534 99.021 
L 832.103055 99.021 
L 835.829577 99.021 
L 839.556098 99.021 
L 843.282619 99.021 
L 847.009141 99.021 
L 850.735662 99.021 
L 854.462184 99.021 
L 858.188705 78.861 
L 861.915227 78.861 
L 865.641748 78.861 
L 869.368269 78.861 
L 873.094791 78.861 
L 876.821312 69.901 
L 880.547834 69.901 
L 884.274355 69.901 
L 888.000876 69.901 
L 891.727398 69.901 
L 895.453919 69.901 
L 899.180441 69.901 
L 902.906962 69.901 
L 906.633483 69.901 
L 910.360005 69.901 
L 914.086526 69.901 
L 917.813048 69.901 
L 921.539569 69.901 
L 925.266091 69.901 
L 928.992612 69.901 
L 932.719133 69.901 
L 936.445655 69.901 
L 940.172176 69.901 
L 943.898698 69.901 
L 947.625219 47.949 
" clip-path="url(#p4d59d3c745)" style="fill: none; stroke: #ffa500; stroke-width: 3; stroke-linecap: square"/>
   </g>
   <g id="line2d_33">
    <path d="M 578.699599 451.149 
L 582.426121 218.691303 
L 586.152642 217.849606 
L 589.879163 217.007909 
L 593.605685 216.166212 
L 597.332206 215.324515 
L 601.058728 214.482818 
L 604.785249 213.641121 
L 608.51177 212.799424 
L 612.238292 211.957727 
L 615.964813 211.11603 
L 619.691335 210.274333 
L 623.417856 209.432636 
L 627.144378 208.590939 
L 630.870899 207.749242 
L 634.59742 206.907545 
L 638.323942 206.065848 
L 642.050463 205.224152 
L 645.776985 204.382455 
L 649.503506 203.540758 
L 653.230027 166.994818 
L 656.956549 166.831909 
L 660.68307 166.669 
L 664.409592 166.506091 
L 668.136113 166.343182 
L 671.862634 133.965 
L 675.589156 133.965 
L 679.315677 133.965 
L 683.042199 133.965 
L 686.76872 133.965 
L 690.495242 133.965 
L 694.221763 133.965 
L 697.948284 133.965 
L 701.674806 133.965 
L 705.401327 133.965 
L 709.127849 133.965 
L 712.85437 133.965 
L 716.580891 133.965 
L 720.307413 133.965 
L 724.033934 133.965 
L 727.760456 111.565 
L 731.486977 111.565 
L 735.213498 111.565 
L 738.94002 111.565 
L 742.666541 111.565 
L 746.393063 111.565 
L 750.119584 111.565 
L 753.846106 111.565 
L 757.572627 111.565 
L 761.299148 111.565 
L 765.02567 107.533 
L 768.752191 107.533 
L 772.478713 107.533 
L 776.205234 107.533 
L 779.931755 107.533 
L 783.658277 107.533 
L 787.384798 107.533 
L 791.11132 107.533 
L 794.837841 107.533 
L 798.564363 107.533 
L 802.290884 89.613 
L 806.017405 89.613 
L 809.743927 89.613 
L 813.470448 89.613 
L 817.19697 89.613 
L 820.923491 89.613 
L 824.650012 89.613 
L 828.376534 89.613 
L 832.103055 89.613 
L 835.829577 89.613 
L 839.556098 89.613 
L 843.282619 89.613 
L 847.009141 89.613 
L 850.735662 89.613 
L 854.462184 89.613 
L 858.188705 65.421 
L 861.915227 65.421 
L 865.641748 65.421 
L 869.368269 65.421 
L 873.094791 65.421 
L 876.821312 56.461 
L 880.547834 56.461 
L 884.274355 56.461 
L 888.000876 56.461 
L 891.727398 56.461 
L 895.453919 56.461 
L 899.180441 56.461 
L 902.906962 56.461 
L 906.633483 56.461 
L 910.360005 56.461 
L 914.086526 56.461 
L 917.813048 56.461 
L 921.539569 56.461 
L 925.266091 56.461 
L 928.992612 56.461 
L 932.719133 56.461 
L 936.445655 56.461 
L 940.172176 56.461 
L 943.898698 56.461 
L 947.625219 47.949 
" clip-path="url(#p4d59d3c745)" style="fill: none; stroke: #0000ff; stroke-width: 3; stroke-linecap: square"/>
   </g>
   <g id="line2d_34">
    <path d="M 578.699599 451.149 
L 582.426121 258.061 
L 586.152642 258.061 
L 589.879163 258.061 
L 593.605685 258.061 
L 597.332206 258.061 
L 601.058728 258.061 
L 604.785249 258.061 
L 608.51177 258.061 
L 612.238292 258.061 
L 615.964813 258.061 
L 619.691335 258.061 
L 623.417856 258.061 
L 627.144378 258.061 
L 630.870899 258.061 
L 634.59742 258.061 
L 638.323942 258.061 
L 642.050463 258.061 
L 645.776985 258.061 
L 649.503506 258.061 
L 653.230027 195.341 
L 656.956549 195.341 
L 660.68307 195.341 
L 664.409592 195.341 
L 668.136113 195.341 
L 671.862634 163.085 
L 675.589156 163.085 
L 679.315677 163.085 
L 683.042199 163.085 
L 686.76872 163.085 
L 690.495242 163.085 
L 694.221763 163.085 
L 697.948284 163.085 
L 701.674806 163.085 
L 705.401327 163.085 
L 709.127849 163.085 
L 712.85437 163.085 
L 716.580891 163.085 
L 720.307413 163.085 
L 724.033934 163.085 
L 727.760456 140.685 
L 731.486977 140.685 
L 735.213498 140.685 
L 738.94002 140.685 
L 742.666541 140.685 
L 746.393063 140.685 
L 750.119584 140.685 
L 753.846106 140.685 
L 757.572627 140.685 
L 761.299148 140.685 
L 765.02567 120.525 
L 768.752191 120.525 
L 772.478713 120.525 
L 776.205234 120.525 
L 779.931755 120.525 
L 783.658277 120.525 
L 787.384798 120.525 
L 791.11132 120.525 
L 794.837841 120.525 
L 798.564363 120.525 
L 802.290884 98.125 
L 806.017405 98.125 
L 809.743927 98.125 
L 813.470448 98.125 
L 817.19697 98.125 
L 820.923491 98.125 
L 824.650012 98.125 
L 828.376534 98.125 
L 832.103055 98.125 
L 835.829577 98.125 
L 839.556098 98.125 
L 843.282619 98.125 
L 847.009141 98.125 
L 850.735662 98.125 
L 854.462184 98.125 
L 858.188705 69.901 
L 861.915227 69.901 
L 865.641748 69.901 
L 869.368269 69.901 
L 873.094791 69.901 
L 876.821312 60.941 
L 880.547834 60.941 
L 884.274355 60.941 
L 888.000876 60.941 
L 891.727398 60.941 
L 895.453919 60.941 
L 899.180441 60.941 
L 902.906962 60.941 
L 906.633483 60.941 
L 910.360005 60.941 
L 914.086526 60.941 
L 917.813048 60.941 
L 921.539569 60.941 
L 925.266091 60.941 
L 928.992612 60.941 
L 932.719133 60.941 
L 936.445655 60.941 
L 940.172176 60.941 
L 943.898698 60.941 
L 947.625219 47.949 
" clip-path="url(#p4d59d3c745)" style="fill: none; stroke: #008000; stroke-width: 3; stroke-linecap: square"/>
   </g>
   <g id="line2d_35">
    <path d="M 578.699599 451.149 
L 947.625219 47.949 
" clip-path="url(#p4d59d3c745)" style="fill: none; stroke-dasharray: 11.1,4.8; stroke-dashoffset: 0; stroke: #000000; stroke-opacity: 0.5; stroke-width: 3"/>
   </g>
   <g id="patch_9">
    <path d="M 560.253318 471.309 
L 560.253318 27.789 
" style="fill: none; stroke: #000000; stroke-width: 2.5; stroke-linejoin: miter; stroke-linecap: square"/>
   </g>
   <g id="patch_10">
    <path d="M 966.0715 471.309 
L 966.0715 27.789 
" style="fill: none; stroke: #000000; stroke-width: 2.5; stroke-linejoin: miter; stroke-linecap: square"/>
   </g>
   <g id="patch_11">
    <path d="M 560.253318 471.309 
L 966.0715 471.309 
" style="fill: none; stroke: #000000; stroke-width: 2.5; stroke-linejoin: miter; stroke-linecap: square"/>
   </g>
   <g id="patch_12">
    <path d="M 560.253318 27.789 
L 966.0715 27.789 
" style="fill: none; stroke: #000000; stroke-width: 2.5; stroke-linejoin: miter; stroke-linecap: square"/>
   </g>
   <g id="text_33">
    <!-- Approach OHE_DI_FI_IS_LIVE -->
    <g transform="translate(626.144909 21.789) scale(0.192 -0.192)">
     <use xlink:href="#DejaVuSans-41"/>
     <use xlink:href="#DejaVuSans-70" x="68.408203"/>
     <use xlink:href="#DejaVuSans-70" x="131.884766"/>
     <use xlink:href="#DejaVuSans-72" x="195.361328"/>
     <use xlink:href="#DejaVuSans-6f" x="234.224609"/>
     <use xlink:href="#DejaVuSans-61" x="295.40625"/>
     <use xlink:href="#DejaVuSans-63" x="356.685547"/>
     <use xlink:href="#DejaVuSans-68" x="411.666016"/>
     <use xlink:href="#DejaVuSans-20" x="475.044922"/>
     <use xlink:href="#DejaVuSans-4f" x="506.832031"/>
     <use xlink:href="#DejaVuSans-48" x="585.542969"/>
     <use xlink:href="#DejaVuSans-45" x="660.738281"/>
     <use xlink:href="#DejaVuSans-5f" x="723.921875"/>
     <use xlink:href="#DejaVuSans-44" x="773.921875"/>
     <use xlink:href="#DejaVuSans-49" x="850.923828"/>
     <use xlink:href="#DejaVuSans-5f" x="880.416016"/>
     <use xlink:href="#DejaVuSans-46" x="930.416016"/>
     <use xlink:href="#DejaVuSans-49" x="987.935547"/>
     <use xlink:href="#DejaVuSans-5f" x="1017.427734"/>
     <use xlink:href="#DejaVuSans-49" x="1067.427734"/>
     <use xlink:href="#DejaVuSans-53" x="1096.919922"/>
     <use xlink:href="#DejaVuSans-5f" x="1160.396484"/>
     <use xlink:href="#DejaVuSans-4c" x="1210.396484"/>
     <use xlink:href="#DejaVuSans-49" x="1266.109375"/>
     <use xlink:href="#DejaVuSans-56" x="1295.601562"/>
     <use xlink:href="#DejaVuSans-45" x="1364.009766"/>
    </g>
   </g>
   <g id="legend_2">
    <g id="patch_13">
     <path d="M 572.573318 119.3695 
L 718.001568 119.3695 
Q 721.521568 119.3695 721.521568 115.8495 
L 721.521568 40.109 
Q 721.521568 36.589 718.001568 36.589 
L 572.573318 36.589 
Q 569.053318 36.589 569.053318 40.109 
L 569.053318 115.8495 
Q 569.053318 119.3695 572.573318 119.3695 
z
" style="fill: #ffffff; opacity: 0.8; stroke: #cccccc; stroke-width: 2; stroke-linejoin: miter"/>
    </g>
    <g id="line2d_36">
     <path d="M 576.093318 50.84225 
L 593.693318 50.84225 
L 611.293318 50.84225 
" style="fill: none; stroke: #ffa500; stroke-width: 3; stroke-linecap: square"/>
    </g>
    <g id="text_34">
     <!-- LR: 0.76 -->
     <g transform="translate(625.373318 57.00225) scale(0.176 -0.176)">
      <use xlink:href="#DejaVuSans-4c"/>
      <use xlink:href="#DejaVuSans-52" x="55.712891"/>
      <use xlink:href="#DejaVuSans-3a" x="122.070312"/>
      <use xlink:href="#DejaVuSans-20" x="155.761719"/>
      <use xlink:href="#DejaVuSans-30" x="187.548828"/>
      <use xlink:href="#DejaVuSans-2e" x="251.171875"/>
      <use xlink:href="#DejaVuSans-37" x="282.958984"/>
      <use xlink:href="#DejaVuSans-36" x="346.582031"/>
     </g>
    </g>
    <g id="line2d_37">
     <path d="M 576.093318 76.67575 
L 593.693318 76.67575 
L 611.293318 76.67575 
" style="fill: none; stroke: #0000ff; stroke-width: 3; stroke-linecap: square"/>
    </g>
    <g id="text_35">
     <!-- RF: 0.82 -->
     <g transform="translate(625.373318 82.83575) scale(0.176 -0.176)">
      <use xlink:href="#DejaVuSans-52"/>
      <use xlink:href="#DejaVuSans-46" x="69.482422"/>
      <use xlink:href="#DejaVuSans-3a" x="119.251953"/>
      <use xlink:href="#DejaVuSans-20" x="152.943359"/>
      <use xlink:href="#DejaVuSans-30" x="184.730469"/>
      <use xlink:href="#DejaVuSans-2e" x="248.353516"/>
      <use xlink:href="#DejaVuSans-38" x="280.140625"/>
      <use xlink:href="#DejaVuSans-32" x="343.763672"/>
     </g>
    </g>
    <g id="line2d_38">
     <path d="M 576.093318 102.50925 
L 593.693318 102.50925 
L 611.293318 102.50925 
" style="fill: none; stroke: #008000; stroke-width: 3; stroke-linecap: square"/>
    </g>
    <g id="text_36">
     <!-- SVM: 0.76 -->
     <g transform="translate(625.373318 108.66925) scale(0.176 -0.176)">
      <use xlink:href="#DejaVuSans-53"/>
      <use xlink:href="#DejaVuSans-56" x="63.476562"/>
      <use xlink:href="#DejaVuSans-4d" x="131.884766"/>
      <use xlink:href="#DejaVuSans-3a" x="218.164062"/>
      <use xlink:href="#DejaVuSans-20" x="251.855469"/>
      <use xlink:href="#DejaVuSans-30" x="283.642578"/>
      <use xlink:href="#DejaVuSans-2e" x="347.265625"/>
      <use xlink:href="#DejaVuSans-37" x="379.052734"/>
      <use xlink:href="#DejaVuSans-36" x="442.675781"/>
     </g>
    </g>
   </g>
  </g>
 </g>
 <defs>
  <clipPath id="pc715b59790">
   <rect x="73.2715" y="27.789" width="405.818182" height="443.52"/>
  </clipPath>
  <clipPath id="p4d59d3c745">
   <rect x="560.253318" y="27.789" width="405.818182" height="443.52"/>
  </clipPath>
 </defs>
</svg>
