<?xml version="1.0" encoding="utf-8" standalone="no"?>
<!DOCTYPE svg PUBLIC "-//W3C//DTD SVG 1.1//EN"
  "http://www.w3.org/Graphics/SVG/1.1/DTD/svg11.dtd">
<svg xmlns:xlink="http://www.w3.org/1999/xlink" width="973.2715pt" height="533.6245pt" viewBox="0 0 973.2715 533.6245" xmlns="http://www.w3.org/2000/svg" version="1.1">
 <metadata>
  <rdf:RDF xmlns:dc="http://purl.org/dc/elements/1.1/" xmlns:cc="http://creativecommons.org/ns#" xmlns:rdf="http://www.w3.org/1999/02/22-rdf-syntax-ns#">
   <cc:Work>
    <dc:type rdf:resource="http://purl.org/dc/dcmitype/StillImage"/>
    <dc:date>2023-05-11T17:15:52.433018</dc:date>
    <dc:format>image/svg+xml</dc:format>
    <dc:creator>
     <cc:Agent>
      <dc:title>Matplotlib v3.6.2, https://matplotlib.org/</dc:title>
     </cc:Agent>
    </dc:creator>
   </cc:Work>
  </rdf:RDF>
 </metadata>
 <defs>
  <style type="text/css">*{stroke-linejoin: round; stroke-linecap: butt}</style>
 </defs>
 <g id="figure_1">
  <g id="patch_1">
   <path d="M 0 533.6245 
L 973.2715 533.6245 
L 973.2715 0 
L 0 0 
z
" style="fill: #ffffff"/>
  </g>
  <g id="axes_1">
   <g id="patch_2">
    <path d="M 73.2715 471.309 
L 479.089682 471.309 
L 479.089682 27.789 
L 73.2715 27.789 
z
" style="fill: #ffffff"/>
   </g>
   <g id="PolyCollection_1">
    <defs>
     <path id="m9ad58183ba" d="M 91.717781 -82.4755 
L 91.717781 -82.4755 
L 95.444302 -82.4755 
L 99.170824 -82.4755 
L 102.897345 -82.4755 
L 106.623867 -82.4755 
L 110.350388 -82.4755 
L 114.076909 -82.4755 
L 117.803431 -82.4755 
L 121.529952 -82.4755 
L 125.256474 -82.4755 
L 128.982995 -82.4755 
L 132.709517 -82.4755 
L 136.436038 -82.4755 
L 140.162559 -82.4755 
L 143.889081 -82.4755 
L 147.615602 -140.0755 
L 151.342124 -140.0755 
L 155.068645 -140.0755 
L 158.795166 -140.0755 
L 162.521688 -140.0755 
L 166.248209 -140.0755 
L 169.974731 -140.0755 
L 173.701252 -140.0755 
L 177.427773 -140.0755 
L 181.154295 -140.0755 
L 184.880816 -140.0755 
L 188.607338 -140.0755 
L 192.333859 -140.0755 
L 196.060381 -140.0755 
L 199.786902 -255.2755 
L 203.513423 -255.2755 
L 207.239945 -255.2755 
L 210.966466 -255.2755 
L 214.692988 -255.2755 
L 218.419509 -255.2755 
L 222.14603 -255.2755 
L 225.872552 -255.2755 
L 229.599073 -255.2755 
L 233.325595 -255.2755 
L 237.052116 -255.2755 
L 240.778637 -255.2755 
L 244.505159 -255.2755 
L 248.23168 -255.2755 
L 251.958202 -312.8755 
L 255.684723 -312.8755 
L 259.411245 -312.8755 
L 263.137766 -312.8755 
L 266.864287 -312.8755 
L 270.590809 -312.8755 
L 274.31733 -312.8755 
L 278.043852 -312.8755 
L 281.770373 -312.8755 
L 285.496894 -312.8755 
L 289.223416 -312.8755 
L 292.949937 -312.8755 
L 296.676459 -312.8755 
L 300.40298 -312.8755 
L 304.129502 -312.8755 
L 307.856023 -312.8755 
L 311.582544 -312.8755 
L 315.309066 -312.8755 
L 319.035587 -312.8755 
L 322.762109 -312.8755 
L 326.48863 -312.8755 
L 330.215151 -312.8755 
L 333.941673 -312.8755 
L 337.668194 -312.8755 
L 341.394716 -312.8755 
L 345.121237 -312.8755 
L 348.847758 -312.8755 
L 352.57428 -312.8755 
L 356.300801 -428.0755 
L 360.027323 -428.0755 
L 363.753844 -428.0755 
L 367.480366 -428.0755 
L 371.206887 -428.0755 
L 374.933408 -428.0755 
L 378.65993 -428.0755 
L 382.386451 -428.0755 
L 386.112973 -428.0755 
L 389.839494 -428.0755 
L 393.566015 -428.0755 
L 397.292537 -428.0755 
L 401.019058 -428.0755 
L 404.74558 -428.0755 
L 408.472101 -485.6755 
L 412.198622 -485.6755 
L 415.925144 -485.6755 
L 419.651665 -485.6755 
L 423.378187 -485.6755 
L 427.104708 -485.6755 
L 430.83123 -485.6755 
L 434.557751 -485.6755 
L 438.284272 -485.6755 
L 442.010794 -485.6755 
L 445.737315 -485.6755 
L 449.463837 -485.6755 
L 453.190358 -485.6755 
L 456.916879 -485.6755 
L 460.643401 -485.6755 
L 460.643401 -485.6755 
L 460.643401 -485.6755 
L 456.916879 -485.6755 
L 453.190358 -485.6755 
L 449.463837 -485.6755 
L 445.737315 -485.6755 
L 442.010794 -485.6755 
L 438.284272 -485.6755 
L 434.557751 -485.6755 
L 430.83123 -485.6755 
L 427.104708 -485.6755 
L 423.378187 -485.6755 
L 419.651665 -485.6755 
L 415.925144 -485.6755 
L 412.198622 -485.6755 
L 408.472101 -485.6755 
L 404.74558 -485.6755 
L 401.019058 -485.6755 
L 397.292537 -485.6755 
L 393.566015 -485.6755 
L 389.839494 -485.6755 
L 386.112973 -485.6755 
L 382.386451 -485.6755 
L 378.65993 -485.6755 
L 374.933408 -485.6755 
L 371.206887 -485.6755 
L 367.480366 -485.6755 
L 363.753844 -485.6755 
L 360.027323 -485.6755 
L 356.300801 -485.6755 
L 352.57428 -485.6755 
L 348.847758 -485.6755 
L 345.121237 -485.6755 
L 341.394716 -485.6755 
L 337.668194 -485.6755 
L 333.941673 -485.6755 
L 330.215151 -485.6755 
L 326.48863 -485.6755 
L 322.762109 -485.6755 
L 319.035587 -485.6755 
L 315.309066 -485.6755 
L 311.582544 -485.6755 
L 307.856023 -485.6755 
L 304.129502 -485.6755 
L 300.40298 -485.6755 
L 296.676459 -485.6755 
L 292.949937 -485.6755 
L 289.223416 -485.6755 
L 285.496894 -485.6755 
L 281.770373 -485.6755 
L 278.043852 -485.6755 
L 274.31733 -485.6755 
L 270.590809 -485.6755 
L 266.864287 -485.6755 
L 263.137766 -485.6755 
L 259.411245 -485.6755 
L 255.684723 -485.6755 
L 251.958202 -485.6755 
L 248.23168 -485.6755 
L 244.505159 -485.6755 
L 240.778637 -485.6755 
L 237.052116 -485.6755 
L 233.325595 -485.6755 
L 229.599073 -485.6755 
L 225.872552 -485.6755 
L 222.14603 -485.6755 
L 218.419509 -485.6755 
L 214.692988 -485.6755 
L 210.966466 -485.6755 
L 207.239945 -485.6755 
L 203.513423 -485.6755 
L 199.786902 -485.6755 
L 196.060381 -428.0755 
L 192.333859 -428.0755 
L 188.607338 -428.0755 
L 184.880816 -428.0755 
L 181.154295 -428.0755 
L 177.427773 -428.0755 
L 173.701252 -428.0755 
L 169.974731 -428.0755 
L 166.248209 -428.0755 
L 162.521688 -428.0755 
L 158.795166 -428.0755 
L 155.068645 -428.0755 
L 151.342124 -428.0755 
L 147.615602 -428.0755 
L 143.889081 -370.4755 
L 140.162559 -370.4755 
L 136.436038 -370.4755 
L 132.709517 -370.4755 
L 128.982995 -370.4755 
L 125.256474 -370.4755 
L 121.529952 -370.4755 
L 117.803431 -370.4755 
L 114.076909 -370.4755 
L 110.350388 -370.4755 
L 106.623867 -370.4755 
L 102.897345 -370.4755 
L 99.170824 -370.4755 
L 95.444302 -370.4755 
L 91.717781 -82.4755 
z
" style="stroke: #ffa500; stroke-opacity: 0.2; stroke-width: 2"/>
    </defs>
    <g clip-path="url(#p5c08f975d3)">
     <use xlink:href="#m9ad58183ba" x="0" y="533.6245" style="fill: #ffa500; fill-opacity: 0.2; stroke: #ffa500; stroke-opacity: 0.2; stroke-width: 2"/>
    </g>
   </g>
   <g id="PolyCollection_2">
    <defs>
     <path id="ma9cf6e53e4" d="M 91.717781 -82.4755 
L 91.717781 -82.4755 
L 95.444302 -312.8755 
L 99.170824 -312.8755 
L 102.897345 -312.8755 
L 106.623867 -312.8755 
L 110.350388 -312.8755 
L 114.076909 -312.8755 
L 117.803431 -312.8755 
L 121.529952 -312.8755 
L 125.256474 -312.8755 
L 128.982995 -312.8755 
L 132.709517 -312.8755 
L 136.436038 -312.8755 
L 140.162559 -312.8755 
L 143.889081 -312.8755 
L 147.615602 -312.8755 
L 151.342124 -312.8755 
L 155.068645 -312.8755 
L 158.795166 -312.8755 
L 162.521688 -312.8755 
L 166.248209 -312.8755 
L 169.974731 -312.8755 
L 173.701252 -312.8755 
L 177.427773 -312.8755 
L 181.154295 -312.8755 
L 184.880816 -312.8755 
L 188.607338 -312.8755 
L 192.333859 -312.8755 
L 196.060381 -312.8755 
L 199.786902 -373.384591 
L 203.513423 -377.457318 
L 207.239945 -381.530045 
L 210.966466 -385.602773 
L 214.692988 -389.6755 
L 218.419509 -393.748227 
L 222.14603 -397.820955 
L 225.872552 -401.893682 
L 229.599073 -405.966409 
L 233.325595 -410.039136 
L 237.052116 -414.111864 
L 240.778637 -418.184591 
L 244.505159 -422.257318 
L 248.23168 -426.330045 
L 251.958202 -428.0755 
L 255.684723 -428.0755 
L 259.411245 -428.0755 
L 263.137766 -428.0755 
L 266.864287 -428.0755 
L 270.590809 -428.0755 
L 274.31733 -428.0755 
L 278.043852 -428.0755 
L 281.770373 -428.0755 
L 285.496894 -428.0755 
L 289.223416 -428.0755 
L 292.949937 -428.0755 
L 296.676459 -428.0755 
L 300.40298 -428.0755 
L 304.129502 -428.0755 
L 307.856023 -428.0755 
L 311.582544 -428.0755 
L 315.309066 -428.0755 
L 319.035587 -428.0755 
L 322.762109 -428.0755 
L 326.48863 -428.0755 
L 330.215151 -428.0755 
L 333.941673 -428.0755 
L 337.668194 -428.0755 
L 341.394716 -428.0755 
L 345.121237 -428.0755 
L 348.847758 -428.0755 
L 352.57428 -428.0755 
L 356.300801 -428.0755 
L 360.027323 -428.0755 
L 363.753844 -428.0755 
L 367.480366 -428.0755 
L 371.206887 -428.0755 
L 374.933408 -428.0755 
L 378.65993 -428.0755 
L 382.386451 -428.0755 
L 386.112973 -428.0755 
L 389.839494 -428.0755 
L 393.566015 -428.0755 
L 397.292537 -428.0755 
L 401.019058 -428.0755 
L 404.74558 -428.0755 
L 408.472101 -485.6755 
L 412.198622 -485.6755 
L 415.925144 -485.6755 
L 419.651665 -485.6755 
L 423.378187 -485.6755 
L 427.104708 -485.6755 
L 430.83123 -485.6755 
L 434.557751 -485.6755 
L 438.284272 -485.6755 
L 442.010794 -485.6755 
L 445.737315 -485.6755 
L 449.463837 -485.6755 
L 453.190358 -485.6755 
L 456.916879 -485.6755 
L 460.643401 -485.6755 
L 460.643401 -485.6755 
L 460.643401 -485.6755 
L 456.916879 -485.6755 
L 453.190358 -485.6755 
L 449.463837 -485.6755 
L 445.737315 -485.6755 
L 442.010794 -485.6755 
L 438.284272 -485.6755 
L 434.557751 -485.6755 
L 430.83123 -485.6755 
L 427.104708 -485.6755 
L 423.378187 -485.6755 
L 419.651665 -485.6755 
L 415.925144 -485.6755 
L 412.198622 -485.6755 
L 408.472101 -485.6755 
L 404.74558 -485.6755 
L 401.019058 -485.6755 
L 397.292537 -485.6755 
L 393.566015 -485.6755 
L 389.839494 -485.6755 
L 386.112973 -485.6755 
L 382.386451 -485.6755 
L 378.65993 -485.6755 
L 374.933408 -485.6755 
L 371.206887 -485.6755 
L 367.480366 -485.6755 
L 363.753844 -485.6755 
L 360.027323 -485.6755 
L 356.300801 -485.6755 
L 352.57428 -485.6755 
L 348.847758 -485.6755 
L 345.121237 -485.6755 
L 341.394716 -485.6755 
L 337.668194 -485.6755 
L 333.941673 -485.6755 
L 330.215151 -485.6755 
L 326.48863 -485.6755 
L 322.762109 -485.6755 
L 319.035587 -485.6755 
L 315.309066 -485.6755 
L 311.582544 -485.6755 
L 307.856023 -485.6755 
L 304.129502 -485.6755 
L 300.40298 -485.6755 
L 296.676459 -485.6755 
L 292.949937 -485.6755 
L 289.223416 -485.6755 
L 285.496894 -485.6755 
L 281.770373 -485.6755 
L 278.043852 -485.6755 
L 274.31733 -485.6755 
L 270.590809 -485.6755 
L 266.864287 -485.6755 
L 263.137766 -485.6755 
L 259.411245 -485.6755 
L 255.684723 -485.6755 
L 251.958202 -485.6755 
L 248.23168 -485.6755 
L 244.505159 -485.6755 
L 240.778637 -485.6755 
L 237.052116 -485.6755 
L 233.325595 -485.6755 
L 229.599073 -485.6755 
L 225.872552 -485.6755 
L 222.14603 -485.6755 
L 218.419509 -485.6755 
L 214.692988 -485.6755 
L 210.966466 -485.6755 
L 207.239945 -485.6755 
L 203.513423 -485.6755 
L 199.786902 -485.6755 
L 196.060381 -485.6755 
L 192.333859 -485.6755 
L 188.607338 -485.6755 
L 184.880816 -485.6755 
L 181.154295 -485.6755 
L 177.427773 -485.6755 
L 173.701252 -485.6755 
L 169.974731 -485.6755 
L 166.248209 -485.6755 
L 162.521688 -485.6755 
L 158.795166 -485.6755 
L 155.068645 -485.6755 
L 151.342124 -485.6755 
L 147.615602 -485.6755 
L 143.889081 -485.093682 
L 140.162559 -481.020955 
L 136.436038 -476.948227 
L 132.709517 -472.8755 
L 128.982995 -468.802773 
L 125.256474 -464.730045 
L 121.529952 -460.657318 
L 117.803431 -456.584591 
L 114.076909 -452.511864 
L 110.350388 -448.439136 
L 106.623867 -444.366409 
L 102.897345 -440.293682 
L 99.170824 -436.220955 
L 95.444302 -432.148227 
L 91.717781 -82.4755 
z
" style="stroke: #0000ff; stroke-opacity: 0.2; stroke-width: 2"/>
    </defs>
    <g clip-path="url(#p5c08f975d3)">
     <use xlink:href="#ma9cf6e53e4" x="0" y="533.6245" style="fill: #0000ff; fill-opacity: 0.2; stroke: #0000ff; stroke-opacity: 0.2; stroke-width: 2"/>
    </g>
   </g>
   <g id="PolyCollection_3">
    <defs>
     <path id="m2fd5f04c8d" d="M 91.717781 -82.4755 
L 91.717781 -82.4755 
L 95.444302 -140.0755 
L 99.170824 -140.0755 
L 102.897345 -140.0755 
L 106.623867 -140.0755 
L 110.350388 -140.0755 
L 114.076909 -140.0755 
L 117.803431 -140.0755 
L 121.529952 -140.0755 
L 125.256474 -140.0755 
L 128.982995 -140.0755 
L 132.709517 -140.0755 
L 136.436038 -140.0755 
L 140.162559 -140.0755 
L 143.889081 -140.0755 
L 147.615602 -255.2755 
L 151.342124 -255.2755 
L 155.068645 -255.2755 
L 158.795166 -255.2755 
L 162.521688 -255.2755 
L 166.248209 -255.2755 
L 169.974731 -255.2755 
L 173.701252 -255.2755 
L 177.427773 -255.2755 
L 181.154295 -255.2755 
L 184.880816 -255.2755 
L 188.607338 -255.2755 
L 192.333859 -255.2755 
L 196.060381 -255.2755 
L 199.786902 -255.2755 
L 203.513423 -255.2755 
L 207.239945 -255.2755 
L 210.966466 -255.2755 
L 214.692988 -255.2755 
L 218.419509 -255.2755 
L 222.14603 -255.2755 
L 225.872552 -255.2755 
L 229.599073 -255.2755 
L 233.325595 -255.2755 
L 237.052116 -255.2755 
L 240.778637 -255.2755 
L 244.505159 -255.2755 
L 248.23168 -255.2755 
L 251.958202 -312.8755 
L 255.684723 -312.8755 
L 259.411245 -312.8755 
L 263.137766 -312.8755 
L 266.864287 -312.8755 
L 270.590809 -312.8755 
L 274.31733 -312.8755 
L 278.043852 -312.8755 
L 281.770373 -312.8755 
L 285.496894 -312.8755 
L 289.223416 -312.8755 
L 292.949937 -312.8755 
L 296.676459 -312.8755 
L 300.40298 -312.8755 
L 304.129502 -370.4755 
L 307.856023 -370.4755 
L 311.582544 -370.4755 
L 315.309066 -370.4755 
L 319.035587 -370.4755 
L 322.762109 -370.4755 
L 326.48863 -370.4755 
L 330.215151 -370.4755 
L 333.941673 -370.4755 
L 337.668194 -370.4755 
L 341.394716 -370.4755 
L 345.121237 -370.4755 
L 348.847758 -370.4755 
L 352.57428 -370.4755 
L 356.300801 -370.4755 
L 360.027323 -370.4755 
L 363.753844 -370.4755 
L 367.480366 -370.4755 
L 371.206887 -370.4755 
L 374.933408 -370.4755 
L 378.65993 -370.4755 
L 382.386451 -370.4755 
L 386.112973 -370.4755 
L 389.839494 -370.4755 
L 393.566015 -370.4755 
L 397.292537 -370.4755 
L 401.019058 -370.4755 
L 404.74558 -370.4755 
L 408.472101 -428.0755 
L 412.198622 -428.0755 
L 415.925144 -428.0755 
L 419.651665 -428.0755 
L 423.378187 -428.0755 
L 427.104708 -428.0755 
L 430.83123 -428.0755 
L 434.557751 -428.0755 
L 438.284272 -428.0755 
L 442.010794 -428.0755 
L 445.737315 -428.0755 
L 449.463837 -428.0755 
L 453.190358 -428.0755 
L 456.916879 -428.0755 
L 460.643401 -485.6755 
L 460.643401 -485.6755 
L 460.643401 -485.6755 
L 456.916879 -485.6755 
L 453.190358 -485.6755 
L 449.463837 -485.6755 
L 445.737315 -485.6755 
L 442.010794 -485.6755 
L 438.284272 -485.6755 
L 434.557751 -485.6755 
L 430.83123 -485.6755 
L 427.104708 -485.6755 
L 423.378187 -485.6755 
L 419.651665 -485.6755 
L 415.925144 -485.6755 
L 412.198622 -485.6755 
L 408.472101 -485.6755 
L 404.74558 -485.6755 
L 401.019058 -485.6755 
L 397.292537 -485.6755 
L 393.566015 -485.6755 
L 389.839494 -485.6755 
L 386.112973 -485.6755 
L 382.386451 -485.6755 
L 378.65993 -485.6755 
L 374.933408 -485.6755 
L 371.206887 -485.6755 
L 367.480366 -485.6755 
L 363.753844 -485.6755 
L 360.027323 -485.6755 
L 356.300801 -485.6755 
L 352.57428 -485.6755 
L 348.847758 -485.6755 
L 345.121237 -485.6755 
L 341.394716 -485.6755 
L 337.668194 -485.6755 
L 333.941673 -485.6755 
L 330.215151 -485.6755 
L 326.48863 -485.6755 
L 322.762109 -485.6755 
L 319.035587 -485.6755 
L 315.309066 -485.6755 
L 311.582544 -485.6755 
L 307.856023 -485.6755 
L 304.129502 -485.6755 
L 300.40298 -485.6755 
L 296.676459 -485.6755 
L 292.949937 -485.6755 
L 289.223416 -485.6755 
L 285.496894 -485.6755 
L 281.770373 -485.6755 
L 278.043852 -485.6755 
L 274.31733 -485.6755 
L 270.590809 -485.6755 
L 266.864287 -485.6755 
L 263.137766 -485.6755 
L 259.411245 -485.6755 
L 255.684723 -485.6755 
L 251.958202 -485.6755 
L 248.23168 -485.6755 
L 244.505159 -485.6755 
L 240.778637 -485.6755 
L 237.052116 -485.6755 
L 233.325595 -485.6755 
L 229.599073 -485.6755 
L 225.872552 -485.6755 
L 222.14603 -485.6755 
L 218.419509 -485.6755 
L 214.692988 -485.6755 
L 210.966466 -485.6755 
L 207.239945 -485.6755 
L 203.513423 -485.6755 
L 199.786902 -485.6755 
L 196.060381 -370.4755 
L 192.333859 -370.4755 
L 188.607338 -370.4755 
L 184.880816 -370.4755 
L 181.154295 -370.4755 
L 177.427773 -370.4755 
L 173.701252 -370.4755 
L 169.974731 -370.4755 
L 166.248209 -370.4755 
L 162.521688 -370.4755 
L 158.795166 -370.4755 
L 155.068645 -370.4755 
L 151.342124 -370.4755 
L 147.615602 -370.4755 
L 143.889081 -312.8755 
L 140.162559 -312.8755 
L 136.436038 -312.8755 
L 132.709517 -312.8755 
L 128.982995 -312.8755 
L 125.256474 -312.8755 
L 121.529952 -312.8755 
L 117.803431 -312.8755 
L 114.076909 -312.8755 
L 110.350388 -312.8755 
L 106.623867 -312.8755 
L 102.897345 -312.8755 
L 99.170824 -312.8755 
L 95.444302 -312.8755 
L 91.717781 -82.4755 
z
" style="stroke: #008000; stroke-opacity: 0.2; stroke-width: 2"/>
    </defs>
    <g clip-path="url(#p5c08f975d3)">
     <use xlink:href="#m2fd5f04c8d" x="0" y="533.6245" style="fill: #008000; fill-opacity: 0.2; stroke: #008000; stroke-opacity: 0.2; stroke-width: 2"/>
    </g>
   </g>
   <g id="matplotlib.axis_1">
    <g id="xtick_1">
     <g id="line2d_1">
      <defs>
       <path id="mfdcb2fa518" d="M 0 0 
L 0 12 
" style="stroke: #000000; stroke-width: 2.5"/>
      </defs>
      <g>
       <use xlink:href="#mfdcb2fa518" x="91.717781" y="471.309" style="stroke: #000000; stroke-width: 2.5"/>
      </g>
     </g>
     <g id="text_1">
      <!-- 0.0 -->
      <g transform="translate(77.723031 500.18225) scale(0.176 -0.176)">
       <defs>
        <path id="DejaVuSans-30" d="M 2034 4250 
Q 1547 4250 1301 3770 
Q 1056 3291 1056 2328 
Q 1056 1369 1301 889 
Q 1547 409 2034 409 
Q 2525 409 2770 889 
Q 3016 1369 3016 2328 
Q 3016 3291 2770 3770 
Q 2525 4250 2034 4250 
z
M 2034 4750 
Q 2819 4750 3233 4129 
Q 3647 3509 3647 2328 
Q 3647 1150 3233 529 
Q 2819 -91 2034 -91 
Q 1250 -91 836 529 
Q 422 1150 422 2328 
Q 422 3509 836 4129 
Q 1250 4750 2034 4750 
z
" transform="scale(0.015625)"/>
        <path id="DejaVuSans-2e" d="M 684 794 
L 1344 794 
L 1344 0 
L 684 0 
L 684 794 
z
" transform="scale(0.015625)"/>
       </defs>
       <use xlink:href="#DejaVuSans-30"/>
       <use xlink:href="#DejaVuSans-2e" x="63.623047"/>
       <use xlink:href="#DejaVuSans-30" x="95.410156"/>
      </g>
     </g>
    </g>
    <g id="xtick_2">
     <g id="line2d_2">
      <g>
       <use xlink:href="#mfdcb2fa518" x="165.502905" y="471.309" style="stroke: #000000; stroke-width: 2.5"/>
      </g>
     </g>
     <g id="text_2">
      <!-- 0.2 -->
      <g transform="translate(151.508155 500.18225) scale(0.176 -0.176)">
       <defs>
        <path id="DejaVuSans-32" d="M 1228 531 
L 3431 531 
L 3431 0 
L 469 0 
L 469 531 
Q 828 903 1448 1529 
Q 2069 2156 2228 2338 
Q 2531 2678 2651 2914 
Q 2772 3150 2772 3378 
Q 2772 3750 2511 3984 
Q 2250 4219 1831 4219 
Q 1534 4219 1204 4116 
Q 875 4013 500 3803 
L 500 4441 
Q 881 4594 1212 4672 
Q 1544 4750 1819 4750 
Q 2544 4750 2975 4387 
Q 3406 4025 3406 3419 
Q 3406 3131 3298 2873 
Q 3191 2616 2906 2266 
Q 2828 2175 2409 1742 
Q 1991 1309 1228 531 
z
" transform="scale(0.015625)"/>
       </defs>
       <use xlink:href="#DejaVuSans-30"/>
       <use xlink:href="#DejaVuSans-2e" x="63.623047"/>
       <use xlink:href="#DejaVuSans-32" x="95.410156"/>
      </g>
     </g>
    </g>
    <g id="xtick_3">
     <g id="line2d_3">
      <g>
       <use xlink:href="#mfdcb2fa518" x="239.288029" y="471.309" style="stroke: #000000; stroke-width: 2.5"/>
      </g>
     </g>
     <g id="text_3">
      <!-- 0.4 -->
      <g transform="translate(225.293279 500.18225) scale(0.176 -0.176)">
       <defs>
        <path id="DejaVuSans-34" d="M 2419 4116 
L 825 1625 
L 2419 1625 
L 2419 4116 
z
M 2253 4666 
L 3047 4666 
L 3047 1625 
L 3713 1625 
L 3713 1100 
L 3047 1100 
L 3047 0 
L 2419 0 
L 2419 1100 
L 313 1100 
L 313 1709 
L 2253 4666 
z
" transform="scale(0.015625)"/>
       </defs>
       <use xlink:href="#DejaVuSans-30"/>
       <use xlink:href="#DejaVuSans-2e" x="63.623047"/>
       <use xlink:href="#DejaVuSans-34" x="95.410156"/>
      </g>
     </g>
    </g>
    <g id="xtick_4">
     <g id="line2d_4">
      <g>
       <use xlink:href="#mfdcb2fa518" x="313.073153" y="471.309" style="stroke: #000000; stroke-width: 2.5"/>
      </g>
     </g>
     <g id="text_4">
      <!-- 0.6 -->
      <g transform="translate(299.078403 500.18225) scale(0.176 -0.176)">
       <defs>
        <path id="DejaVuSans-36" d="M 2113 2584 
Q 1688 2584 1439 2293 
Q 1191 2003 1191 1497 
Q 1191 994 1439 701 
Q 1688 409 2113 409 
Q 2538 409 2786 701 
Q 3034 994 3034 1497 
Q 3034 2003 2786 2293 
Q 2538 2584 2113 2584 
z
M 3366 4563 
L 3366 3988 
Q 3128 4100 2886 4159 
Q 2644 4219 2406 4219 
Q 1781 4219 1451 3797 
Q 1122 3375 1075 2522 
Q 1259 2794 1537 2939 
Q 1816 3084 2150 3084 
Q 2853 3084 3261 2657 
Q 3669 2231 3669 1497 
Q 3669 778 3244 343 
Q 2819 -91 2113 -91 
Q 1303 -91 875 529 
Q 447 1150 447 2328 
Q 447 3434 972 4092 
Q 1497 4750 2381 4750 
Q 2619 4750 2861 4703 
Q 3103 4656 3366 4563 
z
" transform="scale(0.015625)"/>
       </defs>
       <use xlink:href="#DejaVuSans-30"/>
       <use xlink:href="#DejaVuSans-2e" x="63.623047"/>
       <use xlink:href="#DejaVuSans-36" x="95.410156"/>
      </g>
     </g>
    </g>
    <g id="xtick_5">
     <g id="line2d_5">
      <g>
       <use xlink:href="#mfdcb2fa518" x="386.858277" y="471.309" style="stroke: #000000; stroke-width: 2.5"/>
      </g>
     </g>
     <g id="text_5">
      <!-- 0.8 -->
      <g transform="translate(372.863527 500.18225) scale(0.176 -0.176)">
       <defs>
        <path id="DejaVuSans-38" d="M 2034 2216 
Q 1584 2216 1326 1975 
Q 1069 1734 1069 1313 
Q 1069 891 1326 650 
Q 1584 409 2034 409 
Q 2484 409 2743 651 
Q 3003 894 3003 1313 
Q 3003 1734 2745 1975 
Q 2488 2216 2034 2216 
z
M 1403 2484 
Q 997 2584 770 2862 
Q 544 3141 544 3541 
Q 544 4100 942 4425 
Q 1341 4750 2034 4750 
Q 2731 4750 3128 4425 
Q 3525 4100 3525 3541 
Q 3525 3141 3298 2862 
Q 3072 2584 2669 2484 
Q 3125 2378 3379 2068 
Q 3634 1759 3634 1313 
Q 3634 634 3220 271 
Q 2806 -91 2034 -91 
Q 1263 -91 848 271 
Q 434 634 434 1313 
Q 434 1759 690 2068 
Q 947 2378 1403 2484 
z
M 1172 3481 
Q 1172 3119 1398 2916 
Q 1625 2713 2034 2713 
Q 2441 2713 2670 2916 
Q 2900 3119 2900 3481 
Q 2900 3844 2670 4047 
Q 2441 4250 2034 4250 
Q 1625 4250 1398 4047 
Q 1172 3844 1172 3481 
z
" transform="scale(0.015625)"/>
       </defs>
       <use xlink:href="#DejaVuSans-30"/>
       <use xlink:href="#DejaVuSans-2e" x="63.623047"/>
       <use xlink:href="#DejaVuSans-38" x="95.410156"/>
      </g>
     </g>
    </g>
    <g id="xtick_6">
     <g id="line2d_6">
      <g>
       <use xlink:href="#mfdcb2fa518" x="460.643401" y="471.309" style="stroke: #000000; stroke-width: 2.5"/>
      </g>
     </g>
     <g id="text_6">
      <!-- 1.0 -->
      <g transform="translate(446.648651 500.18225) scale(0.176 -0.176)">
       <defs>
        <path id="DejaVuSans-31" d="M 794 531 
L 1825 531 
L 1825 4091 
L 703 3866 
L 703 4441 
L 1819 4666 
L 2450 4666 
L 2450 531 
L 3481 531 
L 3481 0 
L 794 0 
L 794 531 
z
" transform="scale(0.015625)"/>
       </defs>
       <use xlink:href="#DejaVuSans-31"/>
       <use xlink:href="#DejaVuSans-2e" x="63.623047"/>
       <use xlink:href="#DejaVuSans-30" x="95.410156"/>
      </g>
     </g>
    </g>
    <g id="text_7">
     <!-- False Positive Rate -->
     <g transform="translate(186.965091 522.4315) scale(0.192 -0.192)">
      <defs>
       <path id="DejaVuSans-46" d="M 628 4666 
L 3309 4666 
L 3309 4134 
L 1259 4134 
L 1259 2759 
L 3109 2759 
L 3109 2228 
L 1259 2228 
L 1259 0 
L 628 0 
L 628 4666 
z
" transform="scale(0.015625)"/>
       <path id="DejaVuSans-61" d="M 2194 1759 
Q 1497 1759 1228 1600 
Q 959 1441 959 1056 
Q 959 750 1161 570 
Q 1363 391 1709 391 
Q 2188 391 2477 730 
Q 2766 1069 2766 1631 
L 2766 1759 
L 2194 1759 
z
M 3341 1997 
L 3341 0 
L 2766 0 
L 2766 531 
Q 2569 213 2275 61 
Q 1981 -91 1556 -91 
Q 1019 -91 701 211 
Q 384 513 384 1019 
Q 384 1609 779 1909 
Q 1175 2209 1959 2209 
L 2766 2209 
L 2766 2266 
Q 2766 2663 2505 2880 
Q 2244 3097 1772 3097 
Q 1472 3097 1187 3025 
Q 903 2953 641 2809 
L 641 3341 
Q 956 3463 1253 3523 
Q 1550 3584 1831 3584 
Q 2591 3584 2966 3190 
Q 3341 2797 3341 1997 
z
" transform="scale(0.015625)"/>
       <path id="DejaVuSans-6c" d="M 603 4863 
L 1178 4863 
L 1178 0 
L 603 0 
L 603 4863 
z
" transform="scale(0.015625)"/>
       <path id="DejaVuSans-73" d="M 2834 3397 
L 2834 2853 
Q 2591 2978 2328 3040 
Q 2066 3103 1784 3103 
Q 1356 3103 1142 2972 
Q 928 2841 928 2578 
Q 928 2378 1081 2264 
Q 1234 2150 1697 2047 
L 1894 2003 
Q 2506 1872 2764 1633 
Q 3022 1394 3022 966 
Q 3022 478 2636 193 
Q 2250 -91 1575 -91 
Q 1294 -91 989 -36 
Q 684 19 347 128 
L 347 722 
Q 666 556 975 473 
Q 1284 391 1588 391 
Q 1994 391 2212 530 
Q 2431 669 2431 922 
Q 2431 1156 2273 1281 
Q 2116 1406 1581 1522 
L 1381 1569 
Q 847 1681 609 1914 
Q 372 2147 372 2553 
Q 372 3047 722 3315 
Q 1072 3584 1716 3584 
Q 2034 3584 2315 3537 
Q 2597 3491 2834 3397 
z
" transform="scale(0.015625)"/>
       <path id="DejaVuSans-65" d="M 3597 1894 
L 3597 1613 
L 953 1613 
Q 991 1019 1311 708 
Q 1631 397 2203 397 
Q 2534 397 2845 478 
Q 3156 559 3463 722 
L 3463 178 
Q 3153 47 2828 -22 
Q 2503 -91 2169 -91 
Q 1331 -91 842 396 
Q 353 884 353 1716 
Q 353 2575 817 3079 
Q 1281 3584 2069 3584 
Q 2775 3584 3186 3129 
Q 3597 2675 3597 1894 
z
M 3022 2063 
Q 3016 2534 2758 2815 
Q 2500 3097 2075 3097 
Q 1594 3097 1305 2825 
Q 1016 2553 972 2059 
L 3022 2063 
z
" transform="scale(0.015625)"/>
       <path id="DejaVuSans-20" transform="scale(0.015625)"/>
       <path id="DejaVuSans-50" d="M 1259 4147 
L 1259 2394 
L 2053 2394 
Q 2494 2394 2734 2622 
Q 2975 2850 2975 3272 
Q 2975 3691 2734 3919 
Q 2494 4147 2053 4147 
L 1259 4147 
z
M 628 4666 
L 2053 4666 
Q 2838 4666 3239 4311 
Q 3641 3956 3641 3272 
Q 3641 2581 3239 2228 
Q 2838 1875 2053 1875 
L 1259 1875 
L 1259 0 
L 628 0 
L 628 4666 
z
" transform="scale(0.015625)"/>
       <path id="DejaVuSans-6f" d="M 1959 3097 
Q 1497 3097 1228 2736 
Q 959 2375 959 1747 
Q 959 1119 1226 758 
Q 1494 397 1959 397 
Q 2419 397 2687 759 
Q 2956 1122 2956 1747 
Q 2956 2369 2687 2733 
Q 2419 3097 1959 3097 
z
M 1959 3584 
Q 2709 3584 3137 3096 
Q 3566 2609 3566 1747 
Q 3566 888 3137 398 
Q 2709 -91 1959 -91 
Q 1206 -91 779 398 
Q 353 888 353 1747 
Q 353 2609 779 3096 
Q 1206 3584 1959 3584 
z
" transform="scale(0.015625)"/>
       <path id="DejaVuSans-69" d="M 603 3500 
L 1178 3500 
L 1178 0 
L 603 0 
L 603 3500 
z
M 603 4863 
L 1178 4863 
L 1178 4134 
L 603 4134 
L 603 4863 
z
" transform="scale(0.015625)"/>
       <path id="DejaVuSans-74" d="M 1172 4494 
L 1172 3500 
L 2356 3500 
L 2356 3053 
L 1172 3053 
L 1172 1153 
Q 1172 725 1289 603 
Q 1406 481 1766 481 
L 2356 481 
L 2356 0 
L 1766 0 
Q 1100 0 847 248 
Q 594 497 594 1153 
L 594 3053 
L 172 3053 
L 172 3500 
L 594 3500 
L 594 4494 
L 1172 4494 
z
" transform="scale(0.015625)"/>
       <path id="DejaVuSans-76" d="M 191 3500 
L 800 3500 
L 1894 563 
L 2988 3500 
L 3597 3500 
L 2284 0 
L 1503 0 
L 191 3500 
z
" transform="scale(0.015625)"/>
       <path id="DejaVuSans-52" d="M 2841 2188 
Q 3044 2119 3236 1894 
Q 3428 1669 3622 1275 
L 4263 0 
L 3584 0 
L 2988 1197 
Q 2756 1666 2539 1819 
Q 2322 1972 1947 1972 
L 1259 1972 
L 1259 0 
L 628 0 
L 628 4666 
L 2053 4666 
Q 2853 4666 3247 4331 
Q 3641 3997 3641 3322 
Q 3641 2881 3436 2590 
Q 3231 2300 2841 2188 
z
M 1259 4147 
L 1259 2491 
L 2053 2491 
Q 2509 2491 2742 2702 
Q 2975 2913 2975 3322 
Q 2975 3731 2742 3939 
Q 2509 4147 2053 4147 
L 1259 4147 
z
" transform="scale(0.015625)"/>
      </defs>
      <use xlink:href="#DejaVuSans-46"/>
      <use xlink:href="#DejaVuSans-61" x="48.394531"/>
      <use xlink:href="#DejaVuSans-6c" x="109.673828"/>
      <use xlink:href="#DejaVuSans-73" x="137.457031"/>
      <use xlink:href="#DejaVuSans-65" x="189.556641"/>
      <use xlink:href="#DejaVuSans-20" x="251.080078"/>
      <use xlink:href="#DejaVuSans-50" x="282.867188"/>
      <use xlink:href="#DejaVuSans-6f" x="339.544922"/>
      <use xlink:href="#DejaVuSans-73" x="400.726562"/>
      <use xlink:href="#DejaVuSans-69" x="452.826172"/>
      <use xlink:href="#DejaVuSans-74" x="480.609375"/>
      <use xlink:href="#DejaVuSans-69" x="519.818359"/>
      <use xlink:href="#DejaVuSans-76" x="547.601562"/>
      <use xlink:href="#DejaVuSans-65" x="606.78125"/>
      <use xlink:href="#DejaVuSans-20" x="668.304688"/>
      <use xlink:href="#DejaVuSans-52" x="700.091797"/>
      <use xlink:href="#DejaVuSans-61" x="767.324219"/>
      <use xlink:href="#DejaVuSans-74" x="828.603516"/>
      <use xlink:href="#DejaVuSans-65" x="867.8125"/>
     </g>
    </g>
   </g>
   <g id="matplotlib.axis_2">
    <g id="ytick_1">
     <g id="line2d_7">
      <defs>
       <path id="m8b5af14794" d="M 0 0 
L -12 0 
" style="stroke: #000000; stroke-width: 2.5"/>
      </defs>
      <g>
       <use xlink:href="#m8b5af14794" x="73.2715" y="451.149" style="stroke: #000000; stroke-width: 2.5"/>
      </g>
     </g>
     <g id="text_8">
      <!-- 0.0 -->
      <g transform="translate(29.782 457.835625) scale(0.176 -0.176)">
       <use xlink:href="#DejaVuSans-30"/>
       <use xlink:href="#DejaVuSans-2e" x="63.623047"/>
       <use xlink:href="#DejaVuSans-30" x="95.410156"/>
      </g>
     </g>
    </g>
    <g id="ytick_2">
     <g id="line2d_8">
      <g>
       <use xlink:href="#m8b5af14794" x="73.2715" y="370.509" style="stroke: #000000; stroke-width: 2.5"/>
      </g>
     </g>
     <g id="text_9">
      <!-- 0.2 -->
      <g transform="translate(29.782 377.195625) scale(0.176 -0.176)">
       <use xlink:href="#DejaVuSans-30"/>
       <use xlink:href="#DejaVuSans-2e" x="63.623047"/>
       <use xlink:href="#DejaVuSans-32" x="95.410156"/>
      </g>
     </g>
    </g>
    <g id="ytick_3">
     <g id="line2d_9">
      <g>
       <use xlink:href="#m8b5af14794" x="73.2715" y="289.869" style="stroke: #000000; stroke-width: 2.5"/>
      </g>
     </g>
     <g id="text_10">
      <!-- 0.4 -->
      <g transform="translate(29.782 296.555625) scale(0.176 -0.176)">
       <use xlink:href="#DejaVuSans-30"/>
       <use xlink:href="#DejaVuSans-2e" x="63.623047"/>
       <use xlink:href="#DejaVuSans-34" x="95.410156"/>
      </g>
     </g>
    </g>
    <g id="ytick_4">
     <g id="line2d_10">
      <g>
       <use xlink:href="#m8b5af14794" x="73.2715" y="209.229" style="stroke: #000000; stroke-width: 2.5"/>
      </g>
     </g>
     <g id="text_11">
      <!-- 0.6 -->
      <g transform="translate(29.782 215.915625) scale(0.176 -0.176)">
       <use xlink:href="#DejaVuSans-30"/>
       <use xlink:href="#DejaVuSans-2e" x="63.623047"/>
       <use xlink:href="#DejaVuSans-36" x="95.410156"/>
      </g>
     </g>
    </g>
    <g id="ytick_5">
     <g id="line2d_11">
      <g>
       <use xlink:href="#m8b5af14794" x="73.2715" y="128.589" style="stroke: #000000; stroke-width: 2.5"/>
      </g>
     </g>
     <g id="text_12">
      <!-- 0.8 -->
      <g transform="translate(29.782 135.275625) scale(0.176 -0.176)">
       <use xlink:href="#DejaVuSans-30"/>
       <use xlink:href="#DejaVuSans-2e" x="63.623047"/>
       <use xlink:href="#DejaVuSans-38" x="95.410156"/>
      </g>
     </g>
    </g>
    <g id="ytick_6">
     <g id="line2d_12">
      <g>
       <use xlink:href="#m8b5af14794" x="73.2715" y="47.949" style="stroke: #000000; stroke-width: 2.5"/>
      </g>
     </g>
     <g id="text_13">
      <!-- 1.0 -->
      <g transform="translate(29.782 54.635625) scale(0.176 -0.176)">
       <use xlink:href="#DejaVuSans-31"/>
       <use xlink:href="#DejaVuSans-2e" x="63.623047"/>
       <use xlink:href="#DejaVuSans-30" x="95.410156"/>
      </g>
     </g>
    </g>
    <g id="text_14">
     <!-- True Positive Rate -->
     <g transform="translate(21.789 335.046) rotate(-90) scale(0.192 -0.192)">
      <defs>
       <path id="DejaVuSans-54" d="M -19 4666 
L 3928 4666 
L 3928 4134 
L 2272 4134 
L 2272 0 
L 1638 0 
L 1638 4134 
L -19 4134 
L -19 4666 
z
" transform="scale(0.015625)"/>
       <path id="DejaVuSans-72" d="M 2631 2963 
Q 2534 3019 2420 3045 
Q 2306 3072 2169 3072 
Q 1681 3072 1420 2755 
Q 1159 2438 1159 1844 
L 1159 0 
L 581 0 
L 581 3500 
L 1159 3500 
L 1159 2956 
Q 1341 3275 1631 3429 
Q 1922 3584 2338 3584 
Q 2397 3584 2469 3576 
Q 2541 3569 2628 3553 
L 2631 2963 
z
" transform="scale(0.015625)"/>
       <path id="DejaVuSans-75" d="M 544 1381 
L 544 3500 
L 1119 3500 
L 1119 1403 
Q 1119 906 1312 657 
Q 1506 409 1894 409 
Q 2359 409 2629 706 
Q 2900 1003 2900 1516 
L 2900 3500 
L 3475 3500 
L 3475 0 
L 2900 0 
L 2900 538 
Q 2691 219 2414 64 
Q 2138 -91 1772 -91 
Q 1169 -91 856 284 
Q 544 659 544 1381 
z
M 1991 3584 
L 1991 3584 
z
" transform="scale(0.015625)"/>
      </defs>
      <use xlink:href="#DejaVuSans-54"/>
      <use xlink:href="#DejaVuSans-72" x="46.333984"/>
      <use xlink:href="#DejaVuSans-75" x="87.447266"/>
      <use xlink:href="#DejaVuSans-65" x="150.826172"/>
      <use xlink:href="#DejaVuSans-20" x="212.349609"/>
      <use xlink:href="#DejaVuSans-50" x="244.136719"/>
      <use xlink:href="#DejaVuSans-6f" x="300.814453"/>
      <use xlink:href="#DejaVuSans-73" x="361.996094"/>
      <use xlink:href="#DejaVuSans-69" x="414.095703"/>
      <use xlink:href="#DejaVuSans-74" x="441.878906"/>
      <use xlink:href="#DejaVuSans-69" x="481.087891"/>
      <use xlink:href="#DejaVuSans-76" x="508.871094"/>
      <use xlink:href="#DejaVuSans-65" x="568.050781"/>
      <use xlink:href="#DejaVuSans-20" x="629.574219"/>
      <use xlink:href="#DejaVuSans-52" x="661.361328"/>
      <use xlink:href="#DejaVuSans-61" x="728.59375"/>
      <use xlink:href="#DejaVuSans-74" x="789.873047"/>
      <use xlink:href="#DejaVuSans-65" x="829.082031"/>
     </g>
    </g>
   </g>
   <g id="line2d_13">
    <path d="M 91.717781 451.149 
L 95.444302 272.589 
L 99.170824 272.589 
L 102.897345 272.589 
L 106.623867 272.589 
L 110.350388 272.589 
L 114.076909 272.589 
L 117.803431 272.589 
L 121.529952 272.589 
L 125.256474 272.589 
L 128.982995 272.589 
L 132.709517 272.589 
L 136.436038 272.589 
L 140.162559 272.589 
L 143.889081 272.589 
L 147.615602 220.749 
L 151.342124 220.749 
L 155.068645 220.749 
L 158.795166 220.749 
L 162.521688 220.749 
L 166.248209 220.749 
L 169.974731 220.749 
L 173.701252 220.749 
L 177.427773 220.749 
L 181.154295 220.749 
L 184.880816 220.749 
L 188.607338 220.749 
L 192.333859 220.749 
L 196.060381 220.749 
L 199.786902 140.109 
L 203.513423 140.109 
L 207.239945 140.109 
L 210.966466 140.109 
L 214.692988 140.109 
L 218.419509 140.109 
L 222.14603 140.109 
L 225.872552 140.109 
L 229.599073 140.109 
L 233.325595 140.109 
L 237.052116 140.109 
L 240.778637 140.109 
L 244.505159 140.109 
L 248.23168 140.109 
L 251.958202 105.549 
L 255.684723 105.549 
L 259.411245 105.549 
L 263.137766 105.549 
L 266.864287 105.549 
L 270.590809 105.549 
L 274.31733 105.549 
L 278.043852 105.549 
L 281.770373 105.549 
L 285.496894 105.549 
L 289.223416 105.549 
L 292.949937 105.549 
L 296.676459 105.549 
L 300.40298 105.549 
L 304.129502 88.269 
L 307.856023 88.269 
L 311.582544 88.269 
L 315.309066 88.269 
L 319.035587 88.269 
L 322.762109 88.269 
L 326.48863 88.269 
L 330.215151 88.269 
L 333.941673 88.269 
L 337.668194 88.269 
L 341.394716 88.269 
L 345.121237 88.269 
L 348.847758 88.269 
L 352.57428 88.269 
L 356.300801 59.469 
L 360.027323 59.469 
L 363.753844 59.469 
L 367.480366 59.469 
L 371.206887 59.469 
L 374.933408 59.469 
L 378.65993 59.469 
L 382.386451 59.469 
L 386.112973 59.469 
L 389.839494 59.469 
L 393.566015 59.469 
L 397.292537 59.469 
L 401.019058 59.469 
L 404.74558 59.469 
L 408.472101 47.949 
L 412.198622 47.949 
L 415.925144 47.949 
L 419.651665 47.949 
L 423.378187 47.949 
L 427.104708 47.949 
L 430.83123 47.949 
L 434.557751 47.949 
L 438.284272 47.949 
L 442.010794 47.949 
L 445.737315 47.949 
L 449.463837 47.949 
L 453.190358 47.949 
L 456.916879 47.949 
L 460.643401 47.949 
" clip-path="url(#p5c08f975d3)" style="fill: none; stroke: #ffa500; stroke-width: 3; stroke-linecap: square"/>
   </g>
   <g id="line2d_14">
    <path d="M 91.717781 451.149 
L 95.444302 162.334455 
L 99.170824 161.519909 
L 102.897345 160.705364 
L 106.623867 159.890818 
L 110.350388 159.076273 
L 114.076909 158.261727 
L 117.803431 157.447182 
L 121.529952 156.632636 
L 125.256474 155.818091 
L 128.982995 155.003545 
L 132.709517 154.189 
L 136.436038 153.374455 
L 140.162559 152.559909 
L 143.889081 151.745364 
L 147.615602 94.029 
L 151.342124 94.029 
L 155.068645 94.029 
L 158.795166 94.029 
L 162.521688 94.029 
L 166.248209 94.029 
L 169.974731 94.029 
L 173.701252 94.029 
L 177.427773 94.029 
L 181.154295 94.029 
L 184.880816 94.029 
L 188.607338 94.029 
L 192.333859 94.029 
L 196.060381 94.029 
L 199.786902 70.698091 
L 203.513423 70.290818 
L 207.239945 69.883545 
L 210.966466 69.476273 
L 214.692988 69.069 
L 218.419509 68.661727 
L 222.14603 68.254455 
L 225.872552 67.847182 
L 229.599073 67.439909 
L 233.325595 67.032636 
L 237.052116 66.625364 
L 240.778637 66.218091 
L 244.505159 65.810818 
L 248.23168 65.403545 
L 251.958202 53.709 
L 255.684723 53.709 
L 259.411245 53.709 
L 263.137766 53.709 
L 266.864287 53.709 
L 270.590809 53.709 
L 274.31733 53.709 
L 278.043852 53.709 
L 281.770373 53.709 
L 285.496894 53.709 
L 289.223416 53.709 
L 292.949937 53.709 
L 296.676459 53.709 
L 300.40298 53.709 
L 304.129502 53.709 
L 307.856023 53.709 
L 311.582544 53.709 
L 315.309066 53.709 
L 319.035587 53.709 
L 322.762109 53.709 
L 326.48863 53.709 
L 330.215151 53.709 
L 333.941673 53.709 
L 337.668194 53.709 
L 341.394716 53.709 
L 345.121237 53.709 
L 348.847758 53.709 
L 352.57428 53.709 
L 356.300801 53.709 
L 360.027323 53.709 
L 363.753844 53.709 
L 367.480366 53.709 
L 371.206887 53.709 
L 374.933408 53.709 
L 378.65993 53.709 
L 382.386451 53.709 
L 386.112973 53.709 
L 389.839494 53.709 
L 393.566015 53.709 
L 397.292537 53.709 
L 401.019058 53.709 
L 404.74558 53.709 
L 408.472101 47.949 
L 412.198622 47.949 
L 415.925144 47.949 
L 419.651665 47.949 
L 423.378187 47.949 
L 427.104708 47.949 
L 430.83123 47.949 
L 434.557751 47.949 
L 438.284272 47.949 
L 442.010794 47.949 
L 445.737315 47.949 
L 449.463837 47.949 
L 453.190358 47.949 
L 456.916879 47.949 
L 460.643401 47.949 
" clip-path="url(#p5c08f975d3)" style="fill: none; stroke: #0000ff; stroke-width: 3; stroke-linecap: square"/>
   </g>
   <g id="line2d_15">
    <path d="M 91.717781 451.149 
L 95.444302 278.349 
L 99.170824 278.349 
L 102.897345 278.349 
L 106.623867 278.349 
L 110.350388 278.349 
L 114.076909 278.349 
L 117.803431 278.349 
L 121.529952 278.349 
L 125.256474 278.349 
L 128.982995 278.349 
L 132.709517 278.349 
L 136.436038 278.349 
L 140.162559 278.349 
L 143.889081 278.349 
L 147.615602 214.989 
L 151.342124 214.989 
L 155.068645 214.989 
L 158.795166 214.989 
L 162.521688 214.989 
L 166.248209 214.989 
L 169.974731 214.989 
L 173.701252 214.989 
L 177.427773 214.989 
L 181.154295 214.989 
L 184.880816 214.989 
L 188.607338 214.989 
L 192.333859 214.989 
L 196.060381 214.989 
L 199.786902 163.149 
L 203.513423 163.149 
L 207.239945 163.149 
L 210.966466 163.149 
L 214.692988 163.149 
L 218.419509 163.149 
L 222.14603 163.149 
L 225.872552 163.149 
L 229.599073 163.149 
L 233.325595 163.149 
L 237.052116 163.149 
L 240.778637 163.149 
L 244.505159 163.149 
L 248.23168 163.149 
L 251.958202 117.069 
L 255.684723 117.069 
L 259.411245 117.069 
L 263.137766 117.069 
L 266.864287 117.069 
L 270.590809 117.069 
L 274.31733 117.069 
L 278.043852 117.069 
L 281.770373 117.069 
L 285.496894 117.069 
L 289.223416 117.069 
L 292.949937 117.069 
L 296.676459 117.069 
L 300.40298 117.069 
L 304.129502 88.269 
L 307.856023 88.269 
L 311.582544 88.269 
L 315.309066 88.269 
L 319.035587 88.269 
L 322.762109 88.269 
L 326.48863 88.269 
L 330.215151 88.269 
L 333.941673 88.269 
L 337.668194 88.269 
L 341.394716 88.269 
L 345.121237 88.269 
L 348.847758 88.269 
L 352.57428 88.269 
L 356.300801 82.509 
L 360.027323 82.509 
L 363.753844 82.509 
L 367.480366 82.509 
L 371.206887 82.509 
L 374.933408 82.509 
L 378.65993 82.509 
L 382.386451 82.509 
L 386.112973 82.509 
L 389.839494 82.509 
L 393.566015 82.509 
L 397.292537 82.509 
L 401.019058 82.509 
L 404.74558 82.509 
L 408.472101 53.709 
L 412.198622 53.709 
L 415.925144 53.709 
L 419.651665 53.709 
L 423.378187 53.709 
L 427.104708 53.709 
L 430.83123 53.709 
L 434.557751 53.709 
L 438.284272 53.709 
L 442.010794 53.709 
L 445.737315 53.709 
L 449.463837 53.709 
L 453.190358 53.709 
L 456.916879 53.709 
L 460.643401 47.949 
" clip-path="url(#p5c08f975d3)" style="fill: none; stroke: #008000; stroke-width: 3; stroke-linecap: square"/>
   </g>
   <g id="line2d_16">
    <path d="M 91.717781 451.149 
L 460.643401 47.949 
" clip-path="url(#p5c08f975d3)" style="fill: none; stroke-dasharray: 11.1,4.8; stroke-dashoffset: 0; stroke: #000000; stroke-opacity: 0.5; stroke-width: 3"/>
   </g>
   <g id="patch_3">
    <path d="M 73.2715 471.309 
L 73.2715 27.789 
" style="fill: none; stroke: #000000; stroke-width: 2.5; stroke-linejoin: miter; stroke-linecap: square"/>
   </g>
   <g id="patch_4">
    <path d="M 479.089682 471.309 
L 479.089682 27.789 
" style="fill: none; stroke: #000000; stroke-width: 2.5; stroke-linejoin: miter; stroke-linecap: square"/>
   </g>
   <g id="patch_5">
    <path d="M 73.2715 471.309 
L 479.089682 471.309 
" style="fill: none; stroke: #000000; stroke-width: 2.5; stroke-linejoin: miter; stroke-linecap: square"/>
   </g>
   <g id="patch_6">
    <path d="M 73.2715 27.789 
L 479.089682 27.789 
" style="fill: none; stroke: #000000; stroke-width: 2.5; stroke-linejoin: miter; stroke-linecap: square"/>
   </g>
   <g id="text_15">
    <!-- Approach OHE_DI -->
    <g transform="translate(191.657091 21.789) scale(0.192 -0.192)">
     <defs>
      <path id="DejaVuSans-41" d="M 2188 4044 
L 1331 1722 
L 3047 1722 
L 2188 4044 
z
M 1831 4666 
L 2547 4666 
L 4325 0 
L 3669 0 
L 3244 1197 
L 1141 1197 
L 716 0 
L 50 0 
L 1831 4666 
z
" transform="scale(0.015625)"/>
      <path id="DejaVuSans-70" d="M 1159 525 
L 1159 -1331 
L 581 -1331 
L 581 3500 
L 1159 3500 
L 1159 2969 
Q 1341 3281 1617 3432 
Q 1894 3584 2278 3584 
Q 2916 3584 3314 3078 
Q 3713 2572 3713 1747 
Q 3713 922 3314 415 
Q 2916 -91 2278 -91 
Q 1894 -91 1617 61 
Q 1341 213 1159 525 
z
M 3116 1747 
Q 3116 2381 2855 2742 
Q 2594 3103 2138 3103 
Q 1681 3103 1420 2742 
Q 1159 2381 1159 1747 
Q 1159 1113 1420 752 
Q 1681 391 2138 391 
Q 2594 391 2855 752 
Q 3116 1113 3116 1747 
z
" transform="scale(0.015625)"/>
      <path id="DejaVuSans-63" d="M 3122 3366 
L 3122 2828 
Q 2878 2963 2633 3030 
Q 2388 3097 2138 3097 
Q 1578 3097 1268 2742 
Q 959 2388 959 1747 
Q 959 1106 1268 751 
Q 1578 397 2138 397 
Q 2388 397 2633 464 
Q 2878 531 3122 666 
L 3122 134 
Q 2881 22 2623 -34 
Q 2366 -91 2075 -91 
Q 1284 -91 818 406 
Q 353 903 353 1747 
Q 353 2603 823 3093 
Q 1294 3584 2113 3584 
Q 2378 3584 2631 3529 
Q 2884 3475 3122 3366 
z
" transform="scale(0.015625)"/>
      <path id="DejaVuSans-68" d="M 3513 2113 
L 3513 0 
L 2938 0 
L 2938 2094 
Q 2938 2591 2744 2837 
Q 2550 3084 2163 3084 
Q 1697 3084 1428 2787 
Q 1159 2491 1159 1978 
L 1159 0 
L 581 0 
L 581 4863 
L 1159 4863 
L 1159 2956 
Q 1366 3272 1645 3428 
Q 1925 3584 2291 3584 
Q 2894 3584 3203 3211 
Q 3513 2838 3513 2113 
z
" transform="scale(0.015625)"/>
      <path id="DejaVuSans-4f" d="M 2522 4238 
Q 1834 4238 1429 3725 
Q 1025 3213 1025 2328 
Q 1025 1447 1429 934 
Q 1834 422 2522 422 
Q 3209 422 3611 934 
Q 4013 1447 4013 2328 
Q 4013 3213 3611 3725 
Q 3209 4238 2522 4238 
z
M 2522 4750 
Q 3503 4750 4090 4092 
Q 4678 3434 4678 2328 
Q 4678 1225 4090 567 
Q 3503 -91 2522 -91 
Q 1538 -91 948 565 
Q 359 1222 359 2328 
Q 359 3434 948 4092 
Q 1538 4750 2522 4750 
z
" transform="scale(0.015625)"/>
      <path id="DejaVuSans-48" d="M 628 4666 
L 1259 4666 
L 1259 2753 
L 3553 2753 
L 3553 4666 
L 4184 4666 
L 4184 0 
L 3553 0 
L 3553 2222 
L 1259 2222 
L 1259 0 
L 628 0 
L 628 4666 
z
" transform="scale(0.015625)"/>
      <path id="DejaVuSans-45" d="M 628 4666 
L 3578 4666 
L 3578 4134 
L 1259 4134 
L 1259 2753 
L 3481 2753 
L 3481 2222 
L 1259 2222 
L 1259 531 
L 3634 531 
L 3634 0 
L 628 0 
L 628 4666 
z
" transform="scale(0.015625)"/>
      <path id="DejaVuSans-5f" d="M 3263 -1063 
L 3263 -1509 
L -63 -1509 
L -63 -1063 
L 3263 -1063 
z
" transform="scale(0.015625)"/>
      <path id="DejaVuSans-44" d="M 1259 4147 
L 1259 519 
L 2022 519 
Q 2988 519 3436 956 
Q 3884 1394 3884 2338 
Q 3884 3275 3436 3711 
Q 2988 4147 2022 4147 
L 1259 4147 
z
M 628 4666 
L 1925 4666 
Q 3281 4666 3915 4102 
Q 4550 3538 4550 2338 
Q 4550 1131 3912 565 
Q 3275 0 1925 0 
L 628 0 
L 628 4666 
z
" transform="scale(0.015625)"/>
      <path id="DejaVuSans-49" d="M 628 4666 
L 1259 4666 
L 1259 0 
L 628 0 
L 628 4666 
z
" transform="scale(0.015625)"/>
     </defs>
     <use xlink:href="#DejaVuSans-41"/>
     <use xlink:href="#DejaVuSans-70" x="68.408203"/>
     <use xlink:href="#DejaVuSans-70" x="131.884766"/>
     <use xlink:href="#DejaVuSans-72" x="195.361328"/>
     <use xlink:href="#DejaVuSans-6f" x="234.224609"/>
     <use xlink:href="#DejaVuSans-61" x="295.40625"/>
     <use xlink:href="#DejaVuSans-63" x="356.685547"/>
     <use xlink:href="#DejaVuSans-68" x="411.666016"/>
     <use xlink:href="#DejaVuSans-20" x="475.044922"/>
     <use xlink:href="#DejaVuSans-4f" x="506.832031"/>
     <use xlink:href="#DejaVuSans-48" x="585.542969"/>
     <use xlink:href="#DejaVuSans-45" x="660.738281"/>
     <use xlink:href="#DejaVuSans-5f" x="723.921875"/>
     <use xlink:href="#DejaVuSans-44" x="773.921875"/>
     <use xlink:href="#DejaVuSans-49" x="850.923828"/>
    </g>
   </g>
   <g id="legend_1">
    <g id="patch_7">
     <path d="M 321.341432 462.509 
L 466.769682 462.509 
Q 470.289682 462.509 470.289682 458.989 
L 470.289682 383.2485 
Q 470.289682 379.7285 466.769682 379.7285 
L 321.341432 379.7285 
Q 317.821432 379.7285 317.821432 383.2485 
L 317.821432 458.989 
Q 317.821432 462.509 321.341432 462.509 
z
" style="fill: #ffffff; opacity: 0.8; stroke: #cccccc; stroke-width: 2; stroke-linejoin: miter"/>
    </g>
    <g id="line2d_17">
     <path d="M 324.861432 393.98175 
L 342.461432 393.98175 
L 360.061432 393.98175 
" style="fill: none; stroke: #ffa500; stroke-width: 3; stroke-linecap: square"/>
    </g>
    <g id="text_16">
     <!-- LR: 0.78 -->
     <g transform="translate(374.141432 400.14175) scale(0.176 -0.176)">
      <defs>
       <path id="DejaVuSans-4c" d="M 628 4666 
L 1259 4666 
L 1259 531 
L 3531 531 
L 3531 0 
L 628 0 
L 628 4666 
z
" transform="scale(0.015625)"/>
       <path id="DejaVuSans-3a" d="M 750 794 
L 1409 794 
L 1409 0 
L 750 0 
L 750 794 
z
M 750 3309 
L 1409 3309 
L 1409 2516 
L 750 2516 
L 750 3309 
z
" transform="scale(0.015625)"/>
       <path id="DejaVuSans-37" d="M 525 4666 
L 3525 4666 
L 3525 4397 
L 1831 0 
L 1172 0 
L 2766 4134 
L 525 4134 
L 525 4666 
z
" transform="scale(0.015625)"/>
      </defs>
      <use xlink:href="#DejaVuSans-4c"/>
      <use xlink:href="#DejaVuSans-52" x="55.712891"/>
      <use xlink:href="#DejaVuSans-3a" x="122.070312"/>
      <use xlink:href="#DejaVuSans-20" x="155.761719"/>
      <use xlink:href="#DejaVuSans-30" x="187.548828"/>
      <use xlink:href="#DejaVuSans-2e" x="251.171875"/>
      <use xlink:href="#DejaVuSans-37" x="282.958984"/>
      <use xlink:href="#DejaVuSans-38" x="346.582031"/>
     </g>
    </g>
    <g id="line2d_18">
     <path d="M 324.861432 419.81525 
L 342.461432 419.81525 
L 360.061432 419.81525 
" style="fill: none; stroke: #0000ff; stroke-width: 3; stroke-linecap: square"/>
    </g>
    <g id="text_17">
     <!-- RF: 0.93 -->
     <g transform="translate(374.141432 425.97525) scale(0.176 -0.176)">
      <defs>
       <path id="DejaVuSans-39" d="M 703 97 
L 703 672 
Q 941 559 1184 500 
Q 1428 441 1663 441 
Q 2288 441 2617 861 
Q 2947 1281 2994 2138 
Q 2813 1869 2534 1725 
Q 2256 1581 1919 1581 
Q 1219 1581 811 2004 
Q 403 2428 403 3163 
Q 403 3881 828 4315 
Q 1253 4750 1959 4750 
Q 2769 4750 3195 4129 
Q 3622 3509 3622 2328 
Q 3622 1225 3098 567 
Q 2575 -91 1691 -91 
Q 1453 -91 1209 -44 
Q 966 3 703 97 
z
M 1959 2075 
Q 2384 2075 2632 2365 
Q 2881 2656 2881 3163 
Q 2881 3666 2632 3958 
Q 2384 4250 1959 4250 
Q 1534 4250 1286 3958 
Q 1038 3666 1038 3163 
Q 1038 2656 1286 2365 
Q 1534 2075 1959 2075 
z
" transform="scale(0.015625)"/>
       <path id="DejaVuSans-33" d="M 2597 2516 
Q 3050 2419 3304 2112 
Q 3559 1806 3559 1356 
Q 3559 666 3084 287 
Q 2609 -91 1734 -91 
Q 1441 -91 1130 -33 
Q 819 25 488 141 
L 488 750 
Q 750 597 1062 519 
Q 1375 441 1716 441 
Q 2309 441 2620 675 
Q 2931 909 2931 1356 
Q 2931 1769 2642 2001 
Q 2353 2234 1838 2234 
L 1294 2234 
L 1294 2753 
L 1863 2753 
Q 2328 2753 2575 2939 
Q 2822 3125 2822 3475 
Q 2822 3834 2567 4026 
Q 2313 4219 1838 4219 
Q 1578 4219 1281 4162 
Q 984 4106 628 3988 
L 628 4550 
Q 988 4650 1302 4700 
Q 1616 4750 1894 4750 
Q 2613 4750 3031 4423 
Q 3450 4097 3450 3541 
Q 3450 3153 3228 2886 
Q 3006 2619 2597 2516 
z
" transform="scale(0.015625)"/>
      </defs>
      <use xlink:href="#DejaVuSans-52"/>
      <use xlink:href="#DejaVuSans-46" x="69.482422"/>
      <use xlink:href="#DejaVuSans-3a" x="119.251953"/>
      <use xlink:href="#DejaVuSans-20" x="152.943359"/>
      <use xlink:href="#DejaVuSans-30" x="184.730469"/>
      <use xlink:href="#DejaVuSans-2e" x="248.353516"/>
      <use xlink:href="#DejaVuSans-39" x="280.140625"/>
      <use xlink:href="#DejaVuSans-33" x="343.763672"/>
     </g>
    </g>
    <g id="line2d_19">
     <path d="M 324.861432 445.64875 
L 342.461432 445.64875 
L 360.061432 445.64875 
" style="fill: none; stroke: #008000; stroke-width: 3; stroke-linecap: square"/>
    </g>
    <g id="text_18">
     <!-- SVM: 0.76 -->
     <g transform="translate(374.141432 451.80875) scale(0.176 -0.176)">
      <defs>
       <path id="DejaVuSans-53" d="M 3425 4513 
L 3425 3897 
Q 3066 4069 2747 4153 
Q 2428 4238 2131 4238 
Q 1616 4238 1336 4038 
Q 1056 3838 1056 3469 
Q 1056 3159 1242 3001 
Q 1428 2844 1947 2747 
L 2328 2669 
Q 3034 2534 3370 2195 
Q 3706 1856 3706 1288 
Q 3706 609 3251 259 
Q 2797 -91 1919 -91 
Q 1588 -91 1214 -16 
Q 841 59 441 206 
L 441 856 
Q 825 641 1194 531 
Q 1563 422 1919 422 
Q 2459 422 2753 634 
Q 3047 847 3047 1241 
Q 3047 1584 2836 1778 
Q 2625 1972 2144 2069 
L 1759 2144 
Q 1053 2284 737 2584 
Q 422 2884 422 3419 
Q 422 4038 858 4394 
Q 1294 4750 2059 4750 
Q 2388 4750 2728 4690 
Q 3069 4631 3425 4513 
z
" transform="scale(0.015625)"/>
       <path id="DejaVuSans-56" d="M 1831 0 
L 50 4666 
L 709 4666 
L 2188 738 
L 3669 4666 
L 4325 4666 
L 2547 0 
L 1831 0 
z
" transform="scale(0.015625)"/>
       <path id="DejaVuSans-4d" d="M 628 4666 
L 1569 4666 
L 2759 1491 
L 3956 4666 
L 4897 4666 
L 4897 0 
L 4281 0 
L 4281 4097 
L 3078 897 
L 2444 897 
L 1241 4097 
L 1241 0 
L 628 0 
L 628 4666 
z
" transform="scale(0.015625)"/>
      </defs>
      <use xlink:href="#DejaVuSans-53"/>
      <use xlink:href="#DejaVuSans-56" x="63.476562"/>
      <use xlink:href="#DejaVuSans-4d" x="131.884766"/>
      <use xlink:href="#DejaVuSans-3a" x="218.164062"/>
      <use xlink:href="#DejaVuSans-20" x="251.855469"/>
      <use xlink:href="#DejaVuSans-30" x="283.642578"/>
      <use xlink:href="#DejaVuSans-2e" x="347.265625"/>
      <use xlink:href="#DejaVuSans-37" x="379.052734"/>
      <use xlink:href="#DejaVuSans-36" x="442.675781"/>
     </g>
    </g>
   </g>
  </g>
  <g id="axes_2">
   <g id="patch_8">
    <path d="M 560.253318 471.309 
L 966.0715 471.309 
L 966.0715 27.789 
L 560.253318 27.789 
z
" style="fill: #ffffff"/>
   </g>
   <g id="PolyCollection_4">
    <defs>
     <path id="mb2666f8af0" d="M 578.699599 -82.4755 
L 578.699599 -82.4755 
L 582.426121 -140.0755 
L 586.152642 -140.0755 
L 589.879163 -140.0755 
L 593.605685 -140.0755 
L 597.332206 -140.0755 
L 601.058728 -140.0755 
L 604.785249 -140.0755 
L 608.51177 -140.0755 
L 612.238292 -140.0755 
L 615.964813 -140.0755 
L 619.691335 -140.0755 
L 623.417856 -140.0755 
L 627.144378 -140.0755 
L 630.870899 -140.0755 
L 634.59742 -255.2755 
L 638.323942 -255.2755 
L 642.050463 -255.2755 
L 645.776985 -255.2755 
L 649.503506 -255.2755 
L 653.230027 -255.2755 
L 656.956549 -255.2755 
L 660.68307 -255.2755 
L 664.409592 -255.2755 
L 668.136113 -255.2755 
L 671.862634 -255.2755 
L 675.589156 -255.2755 
L 679.315677 -255.2755 
L 683.042199 -255.2755 
L 686.76872 -255.2755 
L 690.495242 -255.2755 
L 694.221763 -255.2755 
L 697.948284 -255.2755 
L 701.674806 -255.2755 
L 705.401327 -255.2755 
L 709.127849 -255.2755 
L 712.85437 -255.2755 
L 716.580891 -255.2755 
L 720.307413 -255.2755 
L 724.033934 -255.2755 
L 727.760456 -255.2755 
L 731.486977 -255.2755 
L 735.213498 -255.2755 
L 738.94002 -370.4755 
L 742.666541 -370.4755 
L 746.393063 -370.4755 
L 750.119584 -370.4755 
L 753.846106 -370.4755 
L 757.572627 -370.4755 
L 761.299148 -370.4755 
L 765.02567 -370.4755 
L 768.752191 -370.4755 
L 772.478713 -370.4755 
L 776.205234 -370.4755 
L 779.931755 -370.4755 
L 783.658277 -370.4755 
L 787.384798 -370.4755 
L 791.11132 -428.0755 
L 794.837841 -428.0755 
L 798.564363 -428.0755 
L 802.290884 -428.0755 
L 806.017405 -428.0755 
L 809.743927 -428.0755 
L 813.470448 -428.0755 
L 817.19697 -428.0755 
L 820.923491 -428.0755 
L 824.650012 -428.0755 
L 828.376534 -428.0755 
L 832.103055 -428.0755 
L 835.829577 -428.0755 
L 839.556098 -428.0755 
L 843.282619 -485.6755 
L 847.009141 -485.6755 
L 850.735662 -485.6755 
L 854.462184 -485.6755 
L 858.188705 -485.6755 
L 861.915227 -485.6755 
L 865.641748 -485.6755 
L 869.368269 -485.6755 
L 873.094791 -485.6755 
L 876.821312 -485.6755 
L 880.547834 -485.6755 
L 884.274355 -485.6755 
L 888.000876 -485.6755 
L 891.727398 -485.6755 
L 895.453919 -485.6755 
L 899.180441 -485.6755 
L 902.906962 -485.6755 
L 906.633483 -485.6755 
L 910.360005 -485.6755 
L 914.086526 -485.6755 
L 917.813048 -485.6755 
L 921.539569 -485.6755 
L 925.266091 -485.6755 
L 928.992612 -485.6755 
L 932.719133 -485.6755 
L 936.445655 -485.6755 
L 940.172176 -485.6755 
L 943.898698 -485.6755 
L 947.625219 -485.6755 
L 947.625219 -485.6755 
L 947.625219 -485.6755 
L 943.898698 -485.6755 
L 940.172176 -485.6755 
L 936.445655 -485.6755 
L 932.719133 -485.6755 
L 928.992612 -485.6755 
L 925.266091 -485.6755 
L 921.539569 -485.6755 
L 917.813048 -485.6755 
L 914.086526 -485.6755 
L 910.360005 -485.6755 
L 906.633483 -485.6755 
L 902.906962 -485.6755 
L 899.180441 -485.6755 
L 895.453919 -485.6755 
L 891.727398 -485.6755 
L 888.000876 -485.6755 
L 884.274355 -485.6755 
L 880.547834 -485.6755 
L 876.821312 -485.6755 
L 873.094791 -485.6755 
L 869.368269 -485.6755 
L 865.641748 -485.6755 
L 861.915227 -485.6755 
L 858.188705 -485.6755 
L 854.462184 -485.6755 
L 850.735662 -485.6755 
L 847.009141 -485.6755 
L 843.282619 -485.6755 
L 839.556098 -485.6755 
L 835.829577 -485.6755 
L 832.103055 -485.6755 
L 828.376534 -485.6755 
L 824.650012 -485.6755 
L 820.923491 -485.6755 
L 817.19697 -485.6755 
L 813.470448 -485.6755 
L 809.743927 -485.6755 
L 806.017405 -485.6755 
L 802.290884 -485.6755 
L 798.564363 -485.6755 
L 794.837841 -485.6755 
L 791.11132 -485.6755 
L 787.384798 -485.6755 
L 783.658277 -485.6755 
L 779.931755 -485.6755 
L 776.205234 -485.6755 
L 772.478713 -485.6755 
L 768.752191 -485.6755 
L 765.02567 -485.6755 
L 761.299148 -485.6755 
L 757.572627 -485.6755 
L 753.846106 -485.6755 
L 750.119584 -485.6755 
L 746.393063 -485.6755 
L 742.666541 -485.6755 
L 738.94002 -485.6755 
L 735.213498 -485.6755 
L 731.486977 -485.6755 
L 727.760456 -485.6755 
L 724.033934 -485.6755 
L 720.307413 -485.6755 
L 716.580891 -485.6755 
L 712.85437 -485.6755 
L 709.127849 -485.6755 
L 705.401327 -485.6755 
L 701.674806 -485.6755 
L 697.948284 -485.6755 
L 694.221763 -485.6755 
L 690.495242 -485.6755 
L 686.76872 -485.6755 
L 683.042199 -485.6755 
L 679.315677 -485.6755 
L 675.589156 -485.6755 
L 671.862634 -485.6755 
L 668.136113 -485.6755 
L 664.409592 -485.6755 
L 660.68307 -485.6755 
L 656.956549 -485.6755 
L 653.230027 -485.6755 
L 649.503506 -485.6755 
L 645.776985 -485.6755 
L 642.050463 -485.6755 
L 638.323942 -485.6755 
L 634.59742 -485.6755 
L 630.870899 -485.6755 
L 627.144378 -485.6755 
L 623.417856 -485.6755 
L 619.691335 -485.6755 
L 615.964813 -485.6755 
L 612.238292 -485.6755 
L 608.51177 -485.6755 
L 604.785249 -485.6755 
L 601.058728 -485.6755 
L 597.332206 -485.6755 
L 593.605685 -485.6755 
L 589.879163 -485.6755 
L 586.152642 -485.6755 
L 582.426121 -485.6755 
L 578.699599 -82.4755 
z
" style="stroke: #ffa500; stroke-opacity: 0.2; stroke-width: 2"/>
    </defs>
    <g clip-path="url(#p8195e5410b)">
     <use xlink:href="#mb2666f8af0" x="0" y="533.6245" style="fill: #ffa500; fill-opacity: 0.2; stroke: #ffa500; stroke-opacity: 0.2; stroke-width: 2"/>
    </g>
   </g>
   <g id="PolyCollection_5">
    <defs>
     <path id="m7d4c6692d2" d="M 578.699599 -82.4755 
L 578.699599 -82.4755 
L 582.426121 -140.0755 
L 586.152642 -140.0755 
L 589.879163 -140.0755 
L 593.605685 -140.0755 
L 597.332206 -140.0755 
L 601.058728 -140.0755 
L 604.785249 -140.0755 
L 608.51177 -140.0755 
L 612.238292 -140.0755 
L 615.964813 -140.0755 
L 619.691335 -140.0755 
L 623.417856 -140.0755 
L 627.144378 -140.0755 
L 630.870899 -140.0755 
L 634.59742 -170.620955 
L 638.323942 -172.657318 
L 642.050463 -174.693682 
L 645.776985 -176.730045 
L 649.503506 -178.766409 
L 653.230027 -180.802773 
L 656.956549 -182.839136 
L 660.68307 -184.8755 
L 664.409592 -186.911864 
L 668.136113 -188.948227 
L 671.862634 -190.984591 
L 675.589156 -193.020955 
L 679.315677 -195.057318 
L 683.042199 -197.093682 
L 686.76872 -206.402773 
L 690.495242 -218.620955 
L 694.221763 -230.839136 
L 697.948284 -243.057318 
L 701.674806 -255.2755 
L 705.401327 -255.2755 
L 709.127849 -255.2755 
L 712.85437 -255.2755 
L 716.580891 -255.2755 
L 720.307413 -255.2755 
L 724.033934 -255.2755 
L 727.760456 -255.2755 
L 731.486977 -255.2755 
L 735.213498 -255.2755 
L 738.94002 -255.2755 
L 742.666541 -255.2755 
L 746.393063 -255.2755 
L 750.119584 -255.2755 
L 753.846106 -255.2755 
L 757.572627 -255.2755 
L 761.299148 -255.2755 
L 765.02567 -255.2755 
L 768.752191 -255.2755 
L 772.478713 -255.2755 
L 776.205234 -255.2755 
L 779.931755 -255.2755 
L 783.658277 -255.2755 
L 787.384798 -255.2755 
L 791.11132 -370.4755 
L 794.837841 -370.4755 
L 798.564363 -370.4755 
L 802.290884 -370.4755 
L 806.017405 -370.4755 
L 809.743927 -370.4755 
L 813.470448 -370.4755 
L 817.19697 -370.4755 
L 820.923491 -370.4755 
L 824.650012 -370.4755 
L 828.376534 -370.4755 
L 832.103055 -370.4755 
L 835.829577 -370.4755 
L 839.556098 -370.4755 
L 843.282619 -370.4755 
L 847.009141 -370.4755 
L 850.735662 -370.4755 
L 854.462184 -370.4755 
L 858.188705 -370.4755 
L 861.915227 -370.4755 
L 865.641748 -370.4755 
L 869.368269 -370.4755 
L 873.094791 -370.4755 
L 876.821312 -370.4755 
L 880.547834 -370.4755 
L 884.274355 -370.4755 
L 888.000876 -370.4755 
L 891.727398 -370.4755 
L 895.453919 -428.0755 
L 899.180441 -428.0755 
L 902.906962 -428.0755 
L 906.633483 -428.0755 
L 910.360005 -428.0755 
L 914.086526 -428.0755 
L 917.813048 -428.0755 
L 921.539569 -428.0755 
L 925.266091 -428.0755 
L 928.992612 -428.0755 
L 932.719133 -428.0755 
L 936.445655 -428.0755 
L 940.172176 -428.0755 
L 943.898698 -428.0755 
L 947.625219 -485.6755 
L 947.625219 -485.6755 
L 947.625219 -485.6755 
L 943.898698 -485.6755 
L 940.172176 -485.6755 
L 936.445655 -485.6755 
L 932.719133 -485.6755 
L 928.992612 -485.6755 
L 925.266091 -485.6755 
L 921.539569 -485.6755 
L 917.813048 -485.6755 
L 914.086526 -485.6755 
L 910.360005 -485.6755 
L 906.633483 -485.6755 
L 902.906962 -485.6755 
L 899.180441 -485.6755 
L 895.453919 -485.6755 
L 891.727398 -485.6755 
L 888.000876 -485.6755 
L 884.274355 -485.6755 
L 880.547834 -485.6755 
L 876.821312 -485.6755 
L 873.094791 -485.6755 
L 869.368269 -485.6755 
L 865.641748 -485.6755 
L 861.915227 -485.6755 
L 858.188705 -485.6755 
L 854.462184 -485.6755 
L 850.735662 -485.6755 
L 847.009141 -485.6755 
L 843.282619 -485.6755 
L 839.556098 -485.6755 
L 835.829577 -485.6755 
L 832.103055 -485.6755 
L 828.376534 -485.6755 
L 824.650012 -485.6755 
L 820.923491 -485.6755 
L 817.19697 -485.6755 
L 813.470448 -485.6755 
L 809.743927 -485.6755 
L 806.017405 -485.6755 
L 802.290884 -485.6755 
L 798.564363 -485.6755 
L 794.837841 -485.6755 
L 791.11132 -485.6755 
L 787.384798 -485.6755 
L 783.658277 -485.6755 
L 779.931755 -485.6755 
L 776.205234 -485.6755 
L 772.478713 -485.6755 
L 768.752191 -485.6755 
L 765.02567 -485.6755 
L 761.299148 -485.6755 
L 757.572627 -485.6755 
L 753.846106 -485.6755 
L 750.119584 -485.6755 
L 746.393063 -485.6755 
L 742.666541 -485.6755 
L 738.94002 -485.6755 
L 735.213498 -485.6755 
L 731.486977 -485.6755 
L 727.760456 -485.6755 
L 724.033934 -485.6755 
L 720.307413 -485.6755 
L 716.580891 -485.6755 
L 712.85437 -485.6755 
L 709.127849 -485.6755 
L 705.401327 -485.6755 
L 701.674806 -485.6755 
L 697.948284 -485.6755 
L 694.221763 -485.6755 
L 690.495242 -485.6755 
L 686.76872 -485.6755 
L 683.042199 -408.099742 
L 679.315677 -405.384591 
L 675.589156 -402.669439 
L 671.862634 -399.954288 
L 668.136113 -397.239136 
L 664.409592 -394.523985 
L 660.68307 -391.808833 
L 656.956549 -389.093682 
L 653.230027 -386.37853 
L 649.503506 -383.663379 
L 645.776985 -380.948227 
L 642.050463 -378.233076 
L 638.323942 -375.517924 
L 634.59742 -372.802773 
L 630.870899 -370.4755 
L 627.144378 -370.4755 
L 623.417856 -370.4755 
L 619.691335 -370.4755 
L 615.964813 -370.4755 
L 612.238292 -370.4755 
L 608.51177 -370.4755 
L 604.785249 -370.4755 
L 601.058728 -370.4755 
L 597.332206 -370.4755 
L 593.605685 -370.4755 
L 589.879163 -370.4755 
L 586.152642 -370.4755 
L 582.426121 -370.4755 
L 578.699599 -82.4755 
z
" style="stroke: #0000ff; stroke-opacity: 0.2; stroke-width: 2"/>
    </defs>
    <g clip-path="url(#p8195e5410b)">
     <use xlink:href="#m7d4c6692d2" x="0" y="533.6245" style="fill: #0000ff; fill-opacity: 0.2; stroke: #0000ff; stroke-opacity: 0.2; stroke-width: 2"/>
    </g>
   </g>
   <g id="PolyCollection_6">
    <defs>
     <path id="mc77792fff0" d="M 578.699599 -82.4755 
L 578.699599 -82.4755 
L 582.426121 -197.6755 
L 586.152642 -197.6755 
L 589.879163 -197.6755 
L 593.605685 -197.6755 
L 597.332206 -197.6755 
L 601.058728 -197.6755 
L 604.785249 -197.6755 
L 608.51177 -197.6755 
L 612.238292 -197.6755 
L 615.964813 -197.6755 
L 619.691335 -197.6755 
L 623.417856 -197.6755 
L 627.144378 -197.6755 
L 630.870899 -197.6755 
L 634.59742 -255.2755 
L 638.323942 -255.2755 
L 642.050463 -255.2755 
L 645.776985 -255.2755 
L 649.503506 -255.2755 
L 653.230027 -255.2755 
L 656.956549 -255.2755 
L 660.68307 -255.2755 
L 664.409592 -255.2755 
L 668.136113 -255.2755 
L 671.862634 -255.2755 
L 675.589156 -255.2755 
L 679.315677 -255.2755 
L 683.042199 -255.2755 
L 686.76872 -312.8755 
L 690.495242 -312.8755 
L 694.221763 -312.8755 
L 697.948284 -312.8755 
L 701.674806 -312.8755 
L 705.401327 -312.8755 
L 709.127849 -312.8755 
L 712.85437 -312.8755 
L 716.580891 -312.8755 
L 720.307413 -312.8755 
L 724.033934 -312.8755 
L 727.760456 -312.8755 
L 731.486977 -312.8755 
L 735.213498 -312.8755 
L 738.94002 -370.4755 
L 742.666541 -370.4755 
L 746.393063 -370.4755 
L 750.119584 -370.4755 
L 753.846106 -370.4755 
L 757.572627 -370.4755 
L 761.299148 -370.4755 
L 765.02567 -370.4755 
L 768.752191 -370.4755 
L 772.478713 -370.4755 
L 776.205234 -370.4755 
L 779.931755 -370.4755 
L 783.658277 -370.4755 
L 787.384798 -370.4755 
L 791.11132 -370.4755 
L 794.837841 -370.4755 
L 798.564363 -370.4755 
L 802.290884 -370.4755 
L 806.017405 -370.4755 
L 809.743927 -370.4755 
L 813.470448 -370.4755 
L 817.19697 -370.4755 
L 820.923491 -370.4755 
L 824.650012 -370.4755 
L 828.376534 -370.4755 
L 832.103055 -370.4755 
L 835.829577 -370.4755 
L 839.556098 -370.4755 
L 843.282619 -428.0755 
L 847.009141 -428.0755 
L 850.735662 -428.0755 
L 854.462184 -428.0755 
L 858.188705 -428.0755 
L 861.915227 -428.0755 
L 865.641748 -428.0755 
L 869.368269 -428.0755 
L 873.094791 -428.0755 
L 876.821312 -428.0755 
L 880.547834 -428.0755 
L 884.274355 -428.0755 
L 888.000876 -428.0755 
L 891.727398 -428.0755 
L 895.453919 -485.6755 
L 899.180441 -485.6755 
L 902.906962 -485.6755 
L 906.633483 -485.6755 
L 910.360005 -485.6755 
L 914.086526 -485.6755 
L 917.813048 -485.6755 
L 921.539569 -485.6755 
L 925.266091 -485.6755 
L 928.992612 -485.6755 
L 932.719133 -485.6755 
L 936.445655 -485.6755 
L 940.172176 -485.6755 
L 943.898698 -485.6755 
L 947.625219 -485.6755 
L 947.625219 -485.6755 
L 947.625219 -485.6755 
L 943.898698 -485.6755 
L 940.172176 -485.6755 
L 936.445655 -485.6755 
L 932.719133 -485.6755 
L 928.992612 -485.6755 
L 925.266091 -485.6755 
L 921.539569 -485.6755 
L 917.813048 -485.6755 
L 914.086526 -485.6755 
L 910.360005 -485.6755 
L 906.633483 -485.6755 
L 902.906962 -485.6755 
L 899.180441 -485.6755 
L 895.453919 -485.6755 
L 891.727398 -485.6755 
L 888.000876 -485.6755 
L 884.274355 -485.6755 
L 880.547834 -485.6755 
L 876.821312 -485.6755 
L 873.094791 -485.6755 
L 869.368269 -485.6755 
L 865.641748 -485.6755 
L 861.915227 -485.6755 
L 858.188705 -485.6755 
L 854.462184 -485.6755 
L 850.735662 -485.6755 
L 847.009141 -485.6755 
L 843.282619 -485.6755 
L 839.556098 -485.6755 
L 835.829577 -485.6755 
L 832.103055 -485.6755 
L 828.376534 -485.6755 
L 824.650012 -485.6755 
L 820.923491 -485.6755 
L 817.19697 -485.6755 
L 813.470448 -485.6755 
L 809.743927 -485.6755 
L 806.017405 -485.6755 
L 802.290884 -485.6755 
L 798.564363 -485.6755 
L 794.837841 -485.6755 
L 791.11132 -485.6755 
L 787.384798 -485.6755 
L 783.658277 -485.6755 
L 779.931755 -485.6755 
L 776.205234 -485.6755 
L 772.478713 -485.6755 
L 768.752191 -485.6755 
L 765.02567 -485.6755 
L 761.299148 -485.6755 
L 757.572627 -485.6755 
L 753.846106 -485.6755 
L 750.119584 -485.6755 
L 746.393063 -485.6755 
L 742.666541 -485.6755 
L 738.94002 -485.6755 
L 735.213498 -485.6755 
L 731.486977 -485.6755 
L 727.760456 -485.6755 
L 724.033934 -485.6755 
L 720.307413 -485.6755 
L 716.580891 -485.6755 
L 712.85437 -485.6755 
L 709.127849 -485.6755 
L 705.401327 -485.6755 
L 701.674806 -485.6755 
L 697.948284 -485.6755 
L 694.221763 -485.6755 
L 690.495242 -485.6755 
L 686.76872 -485.6755 
L 683.042199 -485.6755 
L 679.315677 -485.6755 
L 675.589156 -485.6755 
L 671.862634 -485.6755 
L 668.136113 -485.6755 
L 664.409592 -485.6755 
L 660.68307 -485.6755 
L 656.956549 -485.6755 
L 653.230027 -485.6755 
L 649.503506 -485.6755 
L 645.776985 -485.6755 
L 642.050463 -485.6755 
L 638.323942 -485.6755 
L 634.59742 -485.6755 
L 630.870899 -485.6755 
L 627.144378 -485.6755 
L 623.417856 -485.6755 
L 619.691335 -485.6755 
L 615.964813 -485.6755 
L 612.238292 -485.6755 
L 608.51177 -485.6755 
L 604.785249 -485.6755 
L 601.058728 -485.6755 
L 597.332206 -485.6755 
L 593.605685 -485.6755 
L 589.879163 -485.6755 
L 586.152642 -485.6755 
L 582.426121 -485.6755 
L 578.699599 -82.4755 
z
" style="stroke: #008000; stroke-opacity: 0.2; stroke-width: 2"/>
    </defs>
    <g clip-path="url(#p8195e5410b)">
     <use xlink:href="#mc77792fff0" x="0" y="533.6245" style="fill: #008000; fill-opacity: 0.2; stroke: #008000; stroke-opacity: 0.2; stroke-width: 2"/>
    </g>
   </g>
   <g id="matplotlib.axis_3">
    <g id="xtick_7">
     <g id="line2d_20">
      <g>
       <use xlink:href="#mfdcb2fa518" x="578.699599" y="471.309" style="stroke: #000000; stroke-width: 2.5"/>
      </g>
     </g>
     <g id="text_19">
      <!-- 0.0 -->
      <g transform="translate(564.704849 500.18225) scale(0.176 -0.176)">
       <use xlink:href="#DejaVuSans-30"/>
       <use xlink:href="#DejaVuSans-2e" x="63.623047"/>
       <use xlink:href="#DejaVuSans-30" x="95.410156"/>
      </g>
     </g>
    </g>
    <g id="xtick_8">
     <g id="line2d_21">
      <g>
       <use xlink:href="#mfdcb2fa518" x="652.484723" y="471.309" style="stroke: #000000; stroke-width: 2.5"/>
      </g>
     </g>
     <g id="text_20">
      <!-- 0.2 -->
      <g transform="translate(638.489973 500.18225) scale(0.176 -0.176)">
       <use xlink:href="#DejaVuSans-30"/>
       <use xlink:href="#DejaVuSans-2e" x="63.623047"/>
       <use xlink:href="#DejaVuSans-32" x="95.410156"/>
      </g>
     </g>
    </g>
    <g id="xtick_9">
     <g id="line2d_22">
      <g>
       <use xlink:href="#mfdcb2fa518" x="726.269847" y="471.309" style="stroke: #000000; stroke-width: 2.5"/>
      </g>
     </g>
     <g id="text_21">
      <!-- 0.4 -->
      <g transform="translate(712.275097 500.18225) scale(0.176 -0.176)">
       <use xlink:href="#DejaVuSans-30"/>
       <use xlink:href="#DejaVuSans-2e" x="63.623047"/>
       <use xlink:href="#DejaVuSans-34" x="95.410156"/>
      </g>
     </g>
    </g>
    <g id="xtick_10">
     <g id="line2d_23">
      <g>
       <use xlink:href="#mfdcb2fa518" x="800.054971" y="471.309" style="stroke: #000000; stroke-width: 2.5"/>
      </g>
     </g>
     <g id="text_22">
      <!-- 0.6 -->
      <g transform="translate(786.060221 500.18225) scale(0.176 -0.176)">
       <use xlink:href="#DejaVuSans-30"/>
       <use xlink:href="#DejaVuSans-2e" x="63.623047"/>
       <use xlink:href="#DejaVuSans-36" x="95.410156"/>
      </g>
     </g>
    </g>
    <g id="xtick_11">
     <g id="line2d_24">
      <g>
       <use xlink:href="#mfdcb2fa518" x="873.840095" y="471.309" style="stroke: #000000; stroke-width: 2.5"/>
      </g>
     </g>
     <g id="text_23">
      <!-- 0.8 -->
      <g transform="translate(859.845345 500.18225) scale(0.176 -0.176)">
       <use xlink:href="#DejaVuSans-30"/>
       <use xlink:href="#DejaVuSans-2e" x="63.623047"/>
       <use xlink:href="#DejaVuSans-38" x="95.410156"/>
      </g>
     </g>
    </g>
    <g id="xtick_12">
     <g id="line2d_25">
      <g>
       <use xlink:href="#mfdcb2fa518" x="947.625219" y="471.309" style="stroke: #000000; stroke-width: 2.5"/>
      </g>
     </g>
     <g id="text_24">
      <!-- 1.0 -->
      <g transform="translate(933.630469 500.18225) scale(0.176 -0.176)">
       <use xlink:href="#DejaVuSans-31"/>
       <use xlink:href="#DejaVuSans-2e" x="63.623047"/>
       <use xlink:href="#DejaVuSans-30" x="95.410156"/>
      </g>
     </g>
    </g>
    <g id="text_25">
     <!-- False Positive Rate -->
     <g transform="translate(673.946909 522.4315) scale(0.192 -0.192)">
      <use xlink:href="#DejaVuSans-46"/>
      <use xlink:href="#DejaVuSans-61" x="48.394531"/>
      <use xlink:href="#DejaVuSans-6c" x="109.673828"/>
      <use xlink:href="#DejaVuSans-73" x="137.457031"/>
      <use xlink:href="#DejaVuSans-65" x="189.556641"/>
      <use xlink:href="#DejaVuSans-20" x="251.080078"/>
      <use xlink:href="#DejaVuSans-50" x="282.867188"/>
      <use xlink:href="#DejaVuSans-6f" x="339.544922"/>
      <use xlink:href="#DejaVuSans-73" x="400.726562"/>
      <use xlink:href="#DejaVuSans-69" x="452.826172"/>
      <use xlink:href="#DejaVuSans-74" x="480.609375"/>
      <use xlink:href="#DejaVuSans-69" x="519.818359"/>
      <use xlink:href="#DejaVuSans-76" x="547.601562"/>
      <use xlink:href="#DejaVuSans-65" x="606.78125"/>
      <use xlink:href="#DejaVuSans-20" x="668.304688"/>
      <use xlink:href="#DejaVuSans-52" x="700.091797"/>
      <use xlink:href="#DejaVuSans-61" x="767.324219"/>
      <use xlink:href="#DejaVuSans-74" x="828.603516"/>
      <use xlink:href="#DejaVuSans-65" x="867.8125"/>
     </g>
    </g>
   </g>
   <g id="matplotlib.axis_4">
    <g id="ytick_7">
     <g id="line2d_26">
      <g>
       <use xlink:href="#m8b5af14794" x="560.253318" y="451.149" style="stroke: #000000; stroke-width: 2.5"/>
      </g>
     </g>
     <g id="text_26">
      <!-- 0.0 -->
      <g transform="translate(516.763818 457.835625) scale(0.176 -0.176)">
       <use xlink:href="#DejaVuSans-30"/>
       <use xlink:href="#DejaVuSans-2e" x="63.623047"/>
       <use xlink:href="#DejaVuSans-30" x="95.410156"/>
      </g>
     </g>
    </g>
    <g id="ytick_8">
     <g id="line2d_27">
      <g>
       <use xlink:href="#m8b5af14794" x="560.253318" y="370.509" style="stroke: #000000; stroke-width: 2.5"/>
      </g>
     </g>
     <g id="text_27">
      <!-- 0.2 -->
      <g transform="translate(516.763818 377.195625) scale(0.176 -0.176)">
       <use xlink:href="#DejaVuSans-30"/>
       <use xlink:href="#DejaVuSans-2e" x="63.623047"/>
       <use xlink:href="#DejaVuSans-32" x="95.410156"/>
      </g>
     </g>
    </g>
    <g id="ytick_9">
     <g id="line2d_28">
      <g>
       <use xlink:href="#m8b5af14794" x="560.253318" y="289.869" style="stroke: #000000; stroke-width: 2.5"/>
      </g>
     </g>
     <g id="text_28">
      <!-- 0.4 -->
      <g transform="translate(516.763818 296.555625) scale(0.176 -0.176)">
       <use xlink:href="#DejaVuSans-30"/>
       <use xlink:href="#DejaVuSans-2e" x="63.623047"/>
       <use xlink:href="#DejaVuSans-34" x="95.410156"/>
      </g>
     </g>
    </g>
    <g id="ytick_10">
     <g id="line2d_29">
      <g>
       <use xlink:href="#m8b5af14794" x="560.253318" y="209.229" style="stroke: #000000; stroke-width: 2.5"/>
      </g>
     </g>
     <g id="text_29">
      <!-- 0.6 -->
      <g transform="translate(516.763818 215.915625) scale(0.176 -0.176)">
       <use xlink:href="#DejaVuSans-30"/>
       <use xlink:href="#DejaVuSans-2e" x="63.623047"/>
       <use xlink:href="#DejaVuSans-36" x="95.410156"/>
      </g>
     </g>
    </g>
    <g id="ytick_11">
     <g id="line2d_30">
      <g>
       <use xlink:href="#m8b5af14794" x="560.253318" y="128.589" style="stroke: #000000; stroke-width: 2.5"/>
      </g>
     </g>
     <g id="text_30">
      <!-- 0.8 -->
      <g transform="translate(516.763818 135.275625) scale(0.176 -0.176)">
       <use xlink:href="#DejaVuSans-30"/>
       <use xlink:href="#DejaVuSans-2e" x="63.623047"/>
       <use xlink:href="#DejaVuSans-38" x="95.410156"/>
      </g>
     </g>
    </g>
    <g id="ytick_12">
     <g id="line2d_31">
      <g>
       <use xlink:href="#m8b5af14794" x="560.253318" y="47.949" style="stroke: #000000; stroke-width: 2.5"/>
      </g>
     </g>
     <g id="text_31">
      <!-- 1.0 -->
      <g transform="translate(516.763818 54.635625) scale(0.176 -0.176)">
       <use xlink:href="#DejaVuSans-31"/>
       <use xlink:href="#DejaVuSans-2e" x="63.623047"/>
       <use xlink:href="#DejaVuSans-30" x="95.410156"/>
      </g>
     </g>
    </g>
    <g id="text_32">
     <!-- True Positive Rate -->
     <g transform="translate(508.770818 335.046) rotate(-90) scale(0.192 -0.192)">
      <use xlink:href="#DejaVuSans-54"/>
      <use xlink:href="#DejaVuSans-72" x="46.333984"/>
      <use xlink:href="#DejaVuSans-75" x="87.447266"/>
      <use xlink:href="#DejaVuSans-65" x="150.826172"/>
      <use xlink:href="#DejaVuSans-20" x="212.349609"/>
      <use xlink:href="#DejaVuSans-50" x="244.136719"/>
      <use xlink:href="#DejaVuSans-6f" x="300.814453"/>
      <use xlink:href="#DejaVuSans-73" x="361.996094"/>
      <use xlink:href="#DejaVuSans-69" x="414.095703"/>
      <use xlink:href="#DejaVuSans-74" x="441.878906"/>
      <use xlink:href="#DejaVuSans-69" x="481.087891"/>
      <use xlink:href="#DejaVuSans-76" x="508.871094"/>
      <use xlink:href="#DejaVuSans-65" x="568.050781"/>
      <use xlink:href="#DejaVuSans-20" x="629.574219"/>
      <use xlink:href="#DejaVuSans-52" x="661.361328"/>
      <use xlink:href="#DejaVuSans-61" x="728.59375"/>
      <use xlink:href="#DejaVuSans-74" x="789.873047"/>
      <use xlink:href="#DejaVuSans-65" x="829.082031"/>
     </g>
    </g>
   </g>
   <g id="line2d_32">
    <path d="M 578.699599 451.149 
L 582.426121 238.029 
L 586.152642 238.029 
L 589.879163 238.029 
L 593.605685 238.029 
L 597.332206 238.029 
L 601.058728 238.029 
L 604.785249 238.029 
L 608.51177 238.029 
L 612.238292 238.029 
L 615.964813 238.029 
L 619.691335 238.029 
L 623.417856 238.029 
L 627.144378 238.029 
L 630.870899 238.029 
L 634.59742 157.389 
L 638.323942 157.389 
L 642.050463 157.389 
L 645.776985 157.389 
L 649.503506 157.389 
L 653.230027 157.389 
L 656.956549 157.389 
L 660.68307 157.389 
L 664.409592 157.389 
L 668.136113 157.389 
L 671.862634 157.389 
L 675.589156 157.389 
L 679.315677 157.389 
L 683.042199 157.389 
L 686.76872 122.829 
L 690.495242 122.829 
L 694.221763 122.829 
L 697.948284 122.829 
L 701.674806 122.829 
L 705.401327 122.829 
L 709.127849 122.829 
L 712.85437 122.829 
L 716.580891 122.829 
L 720.307413 122.829 
L 724.033934 122.829 
L 727.760456 122.829 
L 731.486977 122.829 
L 735.213498 122.829 
L 738.94002 76.749 
L 742.666541 76.749 
L 746.393063 76.749 
L 750.119584 76.749 
L 753.846106 76.749 
L 757.572627 76.749 
L 761.299148 76.749 
L 765.02567 76.749 
L 768.752191 76.749 
L 772.478713 76.749 
L 776.205234 76.749 
L 779.931755 76.749 
L 783.658277 76.749 
L 787.384798 76.749 
L 791.11132 59.469 
L 794.837841 59.469 
L 798.564363 59.469 
L 802.290884 59.469 
L 806.017405 59.469 
L 809.743927 59.469 
L 813.470448 59.469 
L 817.19697 59.469 
L 820.923491 59.469 
L 824.650012 59.469 
L 828.376534 59.469 
L 832.103055 59.469 
L 835.829577 59.469 
L 839.556098 59.469 
L 843.282619 47.949 
L 847.009141 47.949 
L 850.735662 47.949 
L 854.462184 47.949 
L 858.188705 47.949 
L 861.915227 47.949 
L 865.641748 47.949 
L 869.368269 47.949 
L 873.094791 47.949 
L 876.821312 47.949 
L 880.547834 47.949 
L 884.274355 47.949 
L 888.000876 47.949 
L 891.727398 47.949 
L 895.453919 47.949 
L 899.180441 47.949 
L 902.906962 47.949 
L 906.633483 47.949 
L 910.360005 47.949 
L 914.086526 47.949 
L 917.813048 47.949 
L 921.539569 47.949 
L 925.266091 47.949 
L 928.992612 47.949 
L 932.719133 47.949 
L 936.445655 47.949 
L 940.172176 47.949 
L 943.898698 47.949 
L 947.625219 47.949 
" clip-path="url(#p8195e5410b)" style="fill: none; stroke: #ffa500; stroke-width: 3; stroke-linecap: square"/>
   </g>
   <g id="line2d_33">
    <path d="M 578.699599 451.149 
L 582.426121 294.610818 
L 586.152642 293.592636 
L 589.879163 292.574455 
L 593.605685 291.556273 
L 597.332206 290.538091 
L 601.058728 289.519909 
L 604.785249 288.501727 
L 608.51177 287.483545 
L 612.238292 286.465364 
L 615.964813 285.447182 
L 619.691335 284.429 
L 623.417856 283.410818 
L 627.144378 282.392636 
L 630.870899 281.374455 
L 634.59742 257.083545 
L 638.323942 255.793848 
L 642.050463 254.504152 
L 645.776985 253.214455 
L 649.503506 251.924758 
L 653.230027 250.635061 
L 656.956549 249.345364 
L 660.68307 248.055667 
L 664.409592 246.76597 
L 668.136113 245.476273 
L 671.862634 244.186576 
L 675.589156 242.896879 
L 679.315677 241.607182 
L 683.042199 240.317485 
L 686.76872 152.482333 
L 690.495242 150.989 
L 694.221763 149.495667 
L 697.948284 148.002333 
L 701.674806 146.509 
L 705.401327 145.015667 
L 709.127849 143.522333 
L 712.85437 142.029 
L 716.580891 140.535667 
L 720.307413 139.042333 
L 724.033934 137.549 
L 727.760456 136.055667 
L 731.486977 134.562333 
L 735.213498 133.069 
L 738.94002 132.041121 
L 742.666541 131.362333 
L 746.393063 130.683545 
L 750.119584 130.004758 
L 753.846106 129.32597 
L 757.572627 128.647182 
L 761.299148 127.968394 
L 765.02567 127.289606 
L 768.752191 126.610818 
L 772.478713 125.93203 
L 776.205234 125.253242 
L 779.931755 124.574455 
L 783.658277 123.895667 
L 787.384798 123.216879 
L 791.11132 76.749 
L 794.837841 76.749 
L 798.564363 76.749 
L 802.290884 76.749 
L 806.017405 76.749 
L 809.743927 76.749 
L 813.470448 76.749 
L 817.19697 76.749 
L 820.923491 76.749 
L 824.650012 76.749 
L 828.376534 76.749 
L 832.103055 76.749 
L 835.829577 76.749 
L 839.556098 76.749 
L 843.282619 70.989 
L 847.009141 70.989 
L 850.735662 70.989 
L 854.462184 70.989 
L 858.188705 70.989 
L 861.915227 70.989 
L 865.641748 70.989 
L 869.368269 70.989 
L 873.094791 70.989 
L 876.821312 70.989 
L 880.547834 70.989 
L 884.274355 70.989 
L 888.000876 70.989 
L 891.727398 70.989 
L 895.453919 59.410818 
L 899.180441 59.003545 
L 902.906962 58.596273 
L 906.633483 58.189 
L 910.360005 57.781727 
L 914.086526 57.374455 
L 917.813048 56.967182 
L 921.539569 56.559909 
L 925.266091 56.152636 
L 928.992612 55.745364 
L 932.719133 55.338091 
L 936.445655 54.930818 
L 940.172176 54.523545 
L 943.898698 54.116273 
L 947.625219 47.949 
" clip-path="url(#p8195e5410b)" style="fill: none; stroke: #0000ff; stroke-width: 3; stroke-linecap: square"/>
   </g>
   <g id="line2d_34">
    <path d="M 578.699599 451.149 
L 582.426121 220.749 
L 586.152642 220.749 
L 589.879163 220.749 
L 593.605685 220.749 
L 597.332206 220.749 
L 601.058728 220.749 
L 604.785249 220.749 
L 608.51177 220.749 
L 612.238292 220.749 
L 615.964813 220.749 
L 619.691335 220.749 
L 623.417856 220.749 
L 627.144378 220.749 
L 630.870899 220.749 
L 634.59742 163.149 
L 638.323942 163.149 
L 642.050463 163.149 
L 645.776985 163.149 
L 649.503506 163.149 
L 653.230027 163.149 
L 656.956549 163.149 
L 660.68307 163.149 
L 664.409592 163.149 
L 668.136113 163.149 
L 671.862634 163.149 
L 675.589156 163.149 
L 679.315677 163.149 
L 683.042199 163.149 
L 686.76872 134.349 
L 690.495242 134.349 
L 694.221763 134.349 
L 697.948284 134.349 
L 701.674806 134.349 
L 705.401327 134.349 
L 709.127849 134.349 
L 712.85437 134.349 
L 716.580891 134.349 
L 720.307413 134.349 
L 724.033934 134.349 
L 727.760456 134.349 
L 731.486977 134.349 
L 735.213498 134.349 
L 738.94002 94.029 
L 742.666541 94.029 
L 746.393063 94.029 
L 750.119584 94.029 
L 753.846106 94.029 
L 757.572627 94.029 
L 761.299148 94.029 
L 765.02567 94.029 
L 768.752191 94.029 
L 772.478713 94.029 
L 776.205234 94.029 
L 779.931755 94.029 
L 783.658277 94.029 
L 787.384798 94.029 
L 791.11132 70.989 
L 794.837841 70.989 
L 798.564363 70.989 
L 802.290884 70.989 
L 806.017405 70.989 
L 809.743927 70.989 
L 813.470448 70.989 
L 817.19697 70.989 
L 820.923491 70.989 
L 824.650012 70.989 
L 828.376534 70.989 
L 832.103055 70.989 
L 835.829577 70.989 
L 839.556098 70.989 
L 843.282619 53.709 
L 847.009141 53.709 
L 850.735662 53.709 
L 854.462184 53.709 
L 858.188705 53.709 
L 861.915227 53.709 
L 865.641748 53.709 
L 869.368269 53.709 
L 873.094791 53.709 
L 876.821312 53.709 
L 880.547834 53.709 
L 884.274355 53.709 
L 888.000876 53.709 
L 891.727398 53.709 
L 895.453919 47.949 
L 899.180441 47.949 
L 902.906962 47.949 
L 906.633483 47.949 
L 910.360005 47.949 
L 914.086526 47.949 
L 917.813048 47.949 
L 921.539569 47.949 
L 925.266091 47.949 
L 928.992612 47.949 
L 932.719133 47.949 
L 936.445655 47.949 
L 940.172176 47.949 
L 943.898698 47.949 
L 947.625219 47.949 
" clip-path="url(#p8195e5410b)" style="fill: none; stroke: #008000; stroke-width: 3; stroke-linecap: square"/>
   </g>
   <g id="line2d_35">
    <path d="M 578.699599 451.149 
L 947.625219 47.949 
" clip-path="url(#p8195e5410b)" style="fill: none; stroke-dasharray: 11.1,4.8; stroke-dashoffset: 0; stroke: #000000; stroke-opacity: 0.5; stroke-width: 3"/>
   </g>
   <g id="patch_9">
    <path d="M 560.253318 471.309 
L 560.253318 27.789 
" style="fill: none; stroke: #000000; stroke-width: 2.5; stroke-linejoin: miter; stroke-linecap: square"/>
   </g>
   <g id="patch_10">
    <path d="M 966.0715 471.309 
L 966.0715 27.789 
" style="fill: none; stroke: #000000; stroke-width: 2.5; stroke-linejoin: miter; stroke-linecap: square"/>
   </g>
   <g id="patch_11">
    <path d="M 560.253318 471.309 
L 966.0715 471.309 
" style="fill: none; stroke: #000000; stroke-width: 2.5; stroke-linejoin: miter; stroke-linecap: square"/>
   </g>
   <g id="patch_12">
    <path d="M 560.253318 27.789 
L 966.0715 27.789 
" style="fill: none; stroke: #000000; stroke-width: 2.5; stroke-linejoin: miter; stroke-linecap: square"/>
   </g>
   <g id="text_33">
    <!-- Approach OHE_DI_FI -->
    <g transform="translate(665.485409 21.789) scale(0.192 -0.192)">
     <use xlink:href="#DejaVuSans-41"/>
     <use xlink:href="#DejaVuSans-70" x="68.408203"/>
     <use xlink:href="#DejaVuSans-70" x="131.884766"/>
     <use xlink:href="#DejaVuSans-72" x="195.361328"/>
     <use xlink:href="#DejaVuSans-6f" x="234.224609"/>
     <use xlink:href="#DejaVuSans-61" x="295.40625"/>
     <use xlink:href="#DejaVuSans-63" x="356.685547"/>
     <use xlink:href="#DejaVuSans-68" x="411.666016"/>
     <use xlink:href="#DejaVuSans-20" x="475.044922"/>
     <use xlink:href="#DejaVuSans-4f" x="506.832031"/>
     <use xlink:href="#DejaVuSans-48" x="585.542969"/>
     <use xlink:href="#DejaVuSans-45" x="660.738281"/>
     <use xlink:href="#DejaVuSans-5f" x="723.921875"/>
     <use xlink:href="#DejaVuSans-44" x="773.921875"/>
     <use xlink:href="#DejaVuSans-49" x="850.923828"/>
     <use xlink:href="#DejaVuSans-5f" x="880.416016"/>
     <use xlink:href="#DejaVuSans-46" x="930.416016"/>
     <use xlink:href="#DejaVuSans-49" x="987.935547"/>
    </g>
   </g>
   <g id="legend_2">
    <g id="patch_13">
     <path d="M 572.573318 119.3695 
L 718.001568 119.3695 
Q 721.521568 119.3695 721.521568 115.8495 
L 721.521568 40.109 
Q 721.521568 36.589 718.001568 36.589 
L 572.573318 36.589 
Q 569.053318 36.589 569.053318 40.109 
L 569.053318 115.8495 
Q 569.053318 119.3695 572.573318 119.3695 
z
" style="fill: #ffffff; opacity: 0.8; stroke: #cccccc; stroke-width: 2; stroke-linejoin: miter"/>
    </g>
    <g id="line2d_36">
     <path d="M 576.093318 50.84225 
L 593.693318 50.84225 
L 611.293318 50.84225 
" style="fill: none; stroke: #ffa500; stroke-width: 3; stroke-linecap: square"/>
    </g>
    <g id="text_34">
     <!-- LR: 0.85 -->
     <g transform="translate(625.373318 57.00225) scale(0.176 -0.176)">
      <defs>
       <path id="DejaVuSans-35" d="M 691 4666 
L 3169 4666 
L 3169 4134 
L 1269 4134 
L 1269 2991 
Q 1406 3038 1543 3061 
Q 1681 3084 1819 3084 
Q 2600 3084 3056 2656 
Q 3513 2228 3513 1497 
Q 3513 744 3044 326 
Q 2575 -91 1722 -91 
Q 1428 -91 1123 -41 
Q 819 9 494 109 
L 494 744 
Q 775 591 1075 516 
Q 1375 441 1709 441 
Q 2250 441 2565 725 
Q 2881 1009 2881 1497 
Q 2881 1984 2565 2268 
Q 2250 2553 1709 2553 
Q 1456 2553 1204 2497 
Q 953 2441 691 2322 
L 691 4666 
z
" transform="scale(0.015625)"/>
      </defs>
      <use xlink:href="#DejaVuSans-4c"/>
      <use xlink:href="#DejaVuSans-52" x="55.712891"/>
      <use xlink:href="#DejaVuSans-3a" x="122.070312"/>
      <use xlink:href="#DejaVuSans-20" x="155.761719"/>
      <use xlink:href="#DejaVuSans-30" x="187.548828"/>
      <use xlink:href="#DejaVuSans-2e" x="251.171875"/>
      <use xlink:href="#DejaVuSans-38" x="282.958984"/>
      <use xlink:href="#DejaVuSans-35" x="346.582031"/>
     </g>
    </g>
    <g id="line2d_37">
     <path d="M 576.093318 76.67575 
L 593.693318 76.67575 
L 611.293318 76.67575 
" style="fill: none; stroke: #0000ff; stroke-width: 3; stroke-linecap: square"/>
    </g>
    <g id="text_35">
     <!-- RF: 0.76 -->
     <g transform="translate(625.373318 82.83575) scale(0.176 -0.176)">
      <use xlink:href="#DejaVuSans-52"/>
      <use xlink:href="#DejaVuSans-46" x="69.482422"/>
      <use xlink:href="#DejaVuSans-3a" x="119.251953"/>
      <use xlink:href="#DejaVuSans-20" x="152.943359"/>
      <use xlink:href="#DejaVuSans-30" x="184.730469"/>
      <use xlink:href="#DejaVuSans-2e" x="248.353516"/>
      <use xlink:href="#DejaVuSans-37" x="280.140625"/>
      <use xlink:href="#DejaVuSans-36" x="343.763672"/>
     </g>
    </g>
    <g id="line2d_38">
     <path d="M 576.093318 102.50925 
L 593.693318 102.50925 
L 611.293318 102.50925 
" style="fill: none; stroke: #008000; stroke-width: 3; stroke-linecap: square"/>
    </g>
    <g id="text_36">
     <!-- SVM: 0.84 -->
     <g transform="translate(625.373318 108.66925) scale(0.176 -0.176)">
      <use xlink:href="#DejaVuSans-53"/>
      <use xlink:href="#DejaVuSans-56" x="63.476562"/>
      <use xlink:href="#DejaVuSans-4d" x="131.884766"/>
      <use xlink:href="#DejaVuSans-3a" x="218.164062"/>
      <use xlink:href="#DejaVuSans-20" x="251.855469"/>
      <use xlink:href="#DejaVuSans-30" x="283.642578"/>
      <use xlink:href="#DejaVuSans-2e" x="347.265625"/>
      <use xlink:href="#DejaVuSans-38" x="379.052734"/>
      <use xlink:href="#DejaVuSans-34" x="442.675781"/>
     </g>
    </g>
   </g>
  </g>
 </g>
 <defs>
  <clipPath id="p5c08f975d3">
   <rect x="73.2715" y="27.789" width="405.818182" height="443.52"/>
  </clipPath>
  <clipPath id="p8195e5410b">
   <rect x="560.253318" y="27.789" width="405.818182" height="443.52"/>
  </clipPath>
 </defs>
</svg>
