<?xml version="1.0" encoding="utf-8" standalone="no"?>
<!DOCTYPE svg PUBLIC "-//W3C//DTD SVG 1.1//EN"
  "http://www.w3.org/Graphics/SVG/1.1/DTD/svg11.dtd">
<svg xmlns:xlink="http://www.w3.org/1999/xlink" width="973.2715pt" height="533.6245pt" viewBox="0 0 973.2715 533.6245" xmlns="http://www.w3.org/2000/svg" version="1.1">
 <metadata>
  <rdf:RDF xmlns:dc="http://purl.org/dc/elements/1.1/" xmlns:cc="http://creativecommons.org/ns#" xmlns:rdf="http://www.w3.org/1999/02/22-rdf-syntax-ns#">
   <cc:Work>
    <dc:type rdf:resource="http://purl.org/dc/dcmitype/StillImage"/>
    <dc:date>2023-05-11T17:16:14.446498</dc:date>
    <dc:format>image/svg+xml</dc:format>
    <dc:creator>
     <cc:Agent>
      <dc:title>Matplotlib v3.6.2, https://matplotlib.org/</dc:title>
     </cc:Agent>
    </dc:creator>
   </cc:Work>
  </rdf:RDF>
 </metadata>
 <defs>
  <style type="text/css">*{stroke-linejoin: round; stroke-linecap: butt}</style>
 </defs>
 <g id="figure_1">
  <g id="patch_1">
   <path d="M 0 533.6245 
L 973.2715 533.6245 
L 973.2715 0 
L 0 0 
z
" style="fill: #ffffff"/>
  </g>
  <g id="axes_1">
   <g id="patch_2">
    <path d="M 73.2715 471.309 
L 479.089682 471.309 
L 479.089682 27.789 
L 73.2715 27.789 
z
" style="fill: #ffffff"/>
   </g>
   <g id="PolyCollection_1">
    <defs>
     <path id="m622ee847b4" d="M 91.717781 -82.4755 
L 91.717781 -82.4755 
L 95.444302 -82.4755 
L 99.170824 -82.4755 
L 102.897345 -82.4755 
L 106.623867 -82.4755 
L 110.350388 -82.4755 
L 114.076909 -82.4755 
L 117.803431 -82.4755 
L 121.529952 -82.4755 
L 125.256474 -82.4755 
L 128.982995 -82.4755 
L 132.709517 -82.4755 
L 136.436038 -82.4755 
L 140.162559 -82.4755 
L 143.889081 -82.4755 
L 147.615602 -82.4755 
L 151.342124 -82.4755 
L 155.068645 -82.4755 
L 158.795166 -82.4755 
L 162.521688 -82.4755 
L 166.248209 -82.4755 
L 169.974731 -82.4755 
L 173.701252 -82.4755 
L 177.427773 -82.4755 
L 181.154295 -82.4755 
L 184.880816 -82.4755 
L 188.607338 -82.4755 
L 192.333859 -82.4755 
L 196.060381 -82.4755 
L 199.786902 -82.4755 
L 203.513423 -82.4755 
L 207.239945 -82.4755 
L 210.966466 -82.4755 
L 214.692988 -82.4755 
L 218.419509 -82.4755 
L 222.14603 -82.4755 
L 225.872552 -82.4755 
L 229.599073 -82.4755 
L 233.325595 -82.4755 
L 237.052116 -82.4755 
L 240.778637 -82.4755 
L 244.505159 -82.4755 
L 248.23168 -82.4755 
L 251.958202 -82.4755 
L 255.684723 -82.4755 
L 259.411245 -82.4755 
L 263.137766 -82.4755 
L 266.864287 -82.4755 
L 270.590809 -82.4755 
L 274.31733 -82.4755 
L 278.043852 -216.8755 
L 281.770373 -216.8755 
L 285.496894 -216.8755 
L 289.223416 -216.8755 
L 292.949937 -216.8755 
L 296.676459 -216.8755 
L 300.40298 -216.8755 
L 304.129502 -216.8755 
L 307.856023 -216.8755 
L 311.582544 -216.8755 
L 315.309066 -216.8755 
L 319.035587 -216.8755 
L 322.762109 -216.8755 
L 326.48863 -216.8755 
L 330.215151 -216.8755 
L 333.941673 -216.8755 
L 337.668194 -216.8755 
L 341.394716 -216.8755 
L 345.121237 -216.8755 
L 348.847758 -216.8755 
L 352.57428 -216.8755 
L 356.300801 -216.8755 
L 360.027323 -216.8755 
L 363.753844 -216.8755 
L 367.480366 -216.8755 
L 371.206887 -284.0755 
L 374.933408 -284.0755 
L 378.65993 -284.0755 
L 382.386451 -284.0755 
L 386.112973 -284.0755 
L 389.839494 -284.0755 
L 393.566015 -284.0755 
L 397.292537 -284.0755 
L 401.019058 -284.0755 
L 404.74558 -284.0755 
L 408.472101 -284.0755 
L 412.198622 -284.0755 
L 415.925144 -284.0755 
L 419.651665 -284.0755 
L 423.378187 -284.0755 
L 427.104708 -284.0755 
L 430.83123 -284.0755 
L 434.557751 -284.0755 
L 438.284272 -284.0755 
L 442.010794 -284.0755 
L 445.737315 -284.0755 
L 449.463837 -284.0755 
L 453.190358 -284.0755 
L 456.916879 -284.0755 
L 460.643401 -485.6755 
L 460.643401 -485.6755 
L 460.643401 -485.6755 
L 456.916879 -485.6755 
L 453.190358 -485.6755 
L 449.463837 -485.6755 
L 445.737315 -485.6755 
L 442.010794 -485.6755 
L 438.284272 -485.6755 
L 434.557751 -485.6755 
L 430.83123 -485.6755 
L 427.104708 -485.6755 
L 423.378187 -485.6755 
L 419.651665 -485.6755 
L 415.925144 -485.6755 
L 412.198622 -485.6755 
L 408.472101 -485.6755 
L 404.74558 -485.6755 
L 401.019058 -485.6755 
L 397.292537 -485.6755 
L 393.566015 -485.6755 
L 389.839494 -485.6755 
L 386.112973 -485.6755 
L 382.386451 -485.6755 
L 378.65993 -485.6755 
L 374.933408 -485.6755 
L 371.206887 -485.6755 
L 367.480366 -485.6755 
L 363.753844 -485.6755 
L 360.027323 -485.6755 
L 356.300801 -485.6755 
L 352.57428 -485.6755 
L 348.847758 -485.6755 
L 345.121237 -485.6755 
L 341.394716 -485.6755 
L 337.668194 -485.6755 
L 333.941673 -485.6755 
L 330.215151 -485.6755 
L 326.48863 -485.6755 
L 322.762109 -485.6755 
L 319.035587 -485.6755 
L 315.309066 -485.6755 
L 311.582544 -485.6755 
L 307.856023 -485.6755 
L 304.129502 -485.6755 
L 300.40298 -485.6755 
L 296.676459 -485.6755 
L 292.949937 -485.6755 
L 289.223416 -485.6755 
L 285.496894 -485.6755 
L 281.770373 -485.6755 
L 278.043852 -485.6755 
L 274.31733 -485.6755 
L 270.590809 -485.6755 
L 266.864287 -485.6755 
L 263.137766 -485.6755 
L 259.411245 -485.6755 
L 255.684723 -485.6755 
L 251.958202 -485.6755 
L 248.23168 -485.6755 
L 244.505159 -485.6755 
L 240.778637 -485.6755 
L 237.052116 -485.6755 
L 233.325595 -485.6755 
L 229.599073 -485.6755 
L 225.872552 -485.6755 
L 222.14603 -485.6755 
L 218.419509 -485.6755 
L 214.692988 -485.6755 
L 210.966466 -485.6755 
L 207.239945 -485.6755 
L 203.513423 -485.6755 
L 199.786902 -485.6755 
L 196.060381 -485.6755 
L 192.333859 -485.6755 
L 188.607338 -485.6755 
L 184.880816 -485.6755 
L 181.154295 -351.2755 
L 177.427773 -351.2755 
L 173.701252 -351.2755 
L 169.974731 -351.2755 
L 166.248209 -351.2755 
L 162.521688 -351.2755 
L 158.795166 -351.2755 
L 155.068645 -351.2755 
L 151.342124 -351.2755 
L 147.615602 -351.2755 
L 143.889081 -351.2755 
L 140.162559 -351.2755 
L 136.436038 -351.2755 
L 132.709517 -351.2755 
L 128.982995 -351.2755 
L 125.256474 -351.2755 
L 121.529952 -351.2755 
L 117.803431 -351.2755 
L 114.076909 -351.2755 
L 110.350388 -351.2755 
L 106.623867 -351.2755 
L 102.897345 -351.2755 
L 99.170824 -351.2755 
L 95.444302 -351.2755 
L 91.717781 -82.4755 
z
" style="stroke: #ffa500; stroke-opacity: 0.2; stroke-width: 2"/>
    </defs>
    <g clip-path="url(#pb45648f06b)">
     <use xlink:href="#m622ee847b4" x="0" y="533.6245" style="fill: #ffa500; fill-opacity: 0.2; stroke: #ffa500; stroke-opacity: 0.2; stroke-width: 2"/>
    </g>
   </g>
   <g id="PolyCollection_2">
    <defs>
     <path id="me03ecb270e" d="M 91.717781 -82.4755 
L 91.717781 -82.4755 
L 95.444302 -82.4755 
L 99.170824 -82.4755 
L 102.897345 -82.4755 
L 106.623867 -82.4755 
L 110.350388 -82.4755 
L 114.076909 -82.4755 
L 117.803431 -82.4755 
L 121.529952 -82.4755 
L 125.256474 -82.4755 
L 128.982995 -82.4755 
L 132.709517 -82.4755 
L 136.436038 -82.4755 
L 140.162559 -82.4755 
L 143.889081 -82.4755 
L 147.615602 -82.4755 
L 151.342124 -82.4755 
L 155.068645 -82.4755 
L 158.795166 -82.4755 
L 162.521688 -82.4755 
L 166.248209 -82.4755 
L 169.974731 -82.4755 
L 173.701252 -82.4755 
L 177.427773 -82.4755 
L 181.154295 -82.4755 
L 184.880816 -82.4755 
L 188.607338 -82.4755 
L 192.333859 -82.4755 
L 196.060381 -82.4755 
L 199.786902 -82.4755 
L 203.513423 -82.4755 
L 207.239945 -82.4755 
L 210.966466 -82.4755 
L 214.692988 -82.4755 
L 218.419509 -82.4755 
L 222.14603 -82.4755 
L 225.872552 -82.4755 
L 229.599073 -82.4755 
L 233.325595 -82.4755 
L 237.052116 -82.4755 
L 240.778637 -82.4755 
L 244.505159 -82.4755 
L 248.23168 -82.4755 
L 251.958202 -82.4755 
L 255.684723 -82.4755 
L 259.411245 -82.4755 
L 263.137766 -82.4755 
L 266.864287 -82.4755 
L 270.590809 -82.4755 
L 274.31733 -82.4755 
L 278.043852 -82.4755 
L 281.770373 -82.4755 
L 285.496894 -82.4755 
L 289.223416 -82.4755 
L 292.949937 -82.4755 
L 296.676459 -82.4755 
L 300.40298 -82.4755 
L 304.129502 -82.4755 
L 307.856023 -82.4755 
L 311.582544 -82.4755 
L 315.309066 -82.4755 
L 319.035587 -82.4755 
L 322.762109 -82.4755 
L 326.48863 -82.4755 
L 330.215151 -82.4755 
L 333.941673 -82.4755 
L 337.668194 -82.4755 
L 341.394716 -82.4755 
L 345.121237 -82.4755 
L 348.847758 -82.4755 
L 352.57428 -82.4755 
L 356.300801 -82.4755 
L 360.027323 -82.4755 
L 363.753844 -82.4755 
L 367.480366 -82.4755 
L 371.206887 -284.0755 
L 374.933408 -284.0755 
L 378.65993 -284.0755 
L 382.386451 -284.0755 
L 386.112973 -284.0755 
L 389.839494 -284.0755 
L 393.566015 -284.0755 
L 397.292537 -284.0755 
L 401.019058 -284.0755 
L 404.74558 -284.0755 
L 408.472101 -284.0755 
L 412.198622 -284.0755 
L 415.925144 -284.0755 
L 419.651665 -284.0755 
L 423.378187 -284.0755 
L 427.104708 -284.0755 
L 430.83123 -284.0755 
L 434.557751 -284.0755 
L 438.284272 -284.0755 
L 442.010794 -284.0755 
L 445.737315 -284.0755 
L 449.463837 -284.0755 
L 453.190358 -284.0755 
L 456.916879 -284.0755 
L 460.643401 -485.6755 
L 460.643401 -485.6755 
L 460.643401 -485.6755 
L 456.916879 -485.6755 
L 453.190358 -485.6755 
L 449.463837 -485.6755 
L 445.737315 -485.6755 
L 442.010794 -485.6755 
L 438.284272 -485.6755 
L 434.557751 -485.6755 
L 430.83123 -485.6755 
L 427.104708 -485.6755 
L 423.378187 -485.6755 
L 419.651665 -485.6755 
L 415.925144 -485.6755 
L 412.198622 -485.6755 
L 408.472101 -485.6755 
L 404.74558 -485.6755 
L 401.019058 -485.6755 
L 397.292537 -485.6755 
L 393.566015 -485.6755 
L 389.839494 -485.6755 
L 386.112973 -485.6755 
L 382.386451 -485.6755 
L 378.65993 -485.6755 
L 374.933408 -485.6755 
L 371.206887 -485.6755 
L 367.480366 -485.6755 
L 363.753844 -485.6755 
L 360.027323 -485.6755 
L 356.300801 -485.6755 
L 352.57428 -485.6755 
L 348.847758 -485.6755 
L 345.121237 -485.6755 
L 341.394716 -485.6755 
L 337.668194 -485.6755 
L 333.941673 -485.6755 
L 330.215151 -485.6755 
L 326.48863 -485.6755 
L 322.762109 -485.6755 
L 319.035587 -485.6755 
L 315.309066 -485.6755 
L 311.582544 -485.6755 
L 307.856023 -485.6755 
L 304.129502 -485.6755 
L 300.40298 -485.6755 
L 296.676459 -485.6755 
L 292.949937 -485.6755 
L 289.223416 -485.6755 
L 285.496894 -485.6755 
L 281.770373 -485.6755 
L 278.043852 -485.6755 
L 274.31733 -351.2755 
L 270.590809 -351.2755 
L 266.864287 -351.2755 
L 263.137766 -351.2755 
L 259.411245 -351.2755 
L 255.684723 -351.2755 
L 251.958202 -351.2755 
L 248.23168 -351.2755 
L 244.505159 -351.2755 
L 240.778637 -351.2755 
L 237.052116 -351.2755 
L 233.325595 -351.2755 
L 229.599073 -351.2755 
L 225.872552 -351.2755 
L 222.14603 -351.2755 
L 218.419509 -351.2755 
L 214.692988 -351.2755 
L 210.966466 -351.2755 
L 207.239945 -351.2755 
L 203.513423 -351.2755 
L 199.786902 -351.2755 
L 196.060381 -351.2755 
L 192.333859 -351.2755 
L 188.607338 -351.2755 
L 184.880816 -351.2755 
L 181.154295 -351.2755 
L 177.427773 -351.2755 
L 173.701252 -351.2755 
L 169.974731 -351.2755 
L 166.248209 -351.2755 
L 162.521688 -351.2755 
L 158.795166 -351.2755 
L 155.068645 -351.2755 
L 151.342124 -351.2755 
L 147.615602 -351.2755 
L 143.889081 -351.2755 
L 140.162559 -351.2755 
L 136.436038 -351.2755 
L 132.709517 -351.2755 
L 128.982995 -351.2755 
L 125.256474 -351.2755 
L 121.529952 -351.2755 
L 117.803431 -351.2755 
L 114.076909 -351.2755 
L 110.350388 -351.2755 
L 106.623867 -351.2755 
L 102.897345 -351.2755 
L 99.170824 -351.2755 
L 95.444302 -351.2755 
L 91.717781 -82.4755 
z
" style="stroke: #0000ff; stroke-opacity: 0.2; stroke-width: 2"/>
    </defs>
    <g clip-path="url(#pb45648f06b)">
     <use xlink:href="#me03ecb270e" x="0" y="533.6245" style="fill: #0000ff; fill-opacity: 0.2; stroke: #0000ff; stroke-opacity: 0.2; stroke-width: 2"/>
    </g>
   </g>
   <g id="PolyCollection_3">
    <defs>
     <path id="mded137f2c7" d="M 91.717781 -82.4755 
L 91.717781 -82.4755 
L 95.444302 -82.4755 
L 99.170824 -82.4755 
L 102.897345 -82.4755 
L 106.623867 -82.4755 
L 110.350388 -82.4755 
L 114.076909 -82.4755 
L 117.803431 -82.4755 
L 121.529952 -82.4755 
L 125.256474 -82.4755 
L 128.982995 -82.4755 
L 132.709517 -82.4755 
L 136.436038 -82.4755 
L 140.162559 -82.4755 
L 143.889081 -82.4755 
L 147.615602 -82.4755 
L 151.342124 -82.4755 
L 155.068645 -82.4755 
L 158.795166 -82.4755 
L 162.521688 -82.4755 
L 166.248209 -82.4755 
L 169.974731 -82.4755 
L 173.701252 -82.4755 
L 177.427773 -82.4755 
L 181.154295 -82.4755 
L 184.880816 -82.4755 
L 188.607338 -82.4755 
L 192.333859 -82.4755 
L 196.060381 -82.4755 
L 199.786902 -82.4755 
L 203.513423 -82.4755 
L 207.239945 -82.4755 
L 210.966466 -82.4755 
L 214.692988 -82.4755 
L 218.419509 -82.4755 
L 222.14603 -82.4755 
L 225.872552 -82.4755 
L 229.599073 -82.4755 
L 233.325595 -82.4755 
L 237.052116 -82.4755 
L 240.778637 -82.4755 
L 244.505159 -82.4755 
L 248.23168 -82.4755 
L 251.958202 -82.4755 
L 255.684723 -82.4755 
L 259.411245 -82.4755 
L 263.137766 -82.4755 
L 266.864287 -82.4755 
L 270.590809 -82.4755 
L 274.31733 -82.4755 
L 278.043852 -82.4755 
L 281.770373 -82.4755 
L 285.496894 -82.4755 
L 289.223416 -82.4755 
L 292.949937 -82.4755 
L 296.676459 -82.4755 
L 300.40298 -82.4755 
L 304.129502 -82.4755 
L 307.856023 -82.4755 
L 311.582544 -82.4755 
L 315.309066 -82.4755 
L 319.035587 -82.4755 
L 322.762109 -82.4755 
L 326.48863 -82.4755 
L 330.215151 -82.4755 
L 333.941673 -82.4755 
L 337.668194 -82.4755 
L 341.394716 -82.4755 
L 345.121237 -82.4755 
L 348.847758 -82.4755 
L 352.57428 -82.4755 
L 356.300801 -82.4755 
L 360.027323 -82.4755 
L 363.753844 -82.4755 
L 367.480366 -82.4755 
L 371.206887 -82.4755 
L 374.933408 -82.4755 
L 378.65993 -82.4755 
L 382.386451 -82.4755 
L 386.112973 -82.4755 
L 389.839494 -284.0755 
L 393.566015 -284.0755 
L 397.292537 -284.0755 
L 401.019058 -284.0755 
L 404.74558 -284.0755 
L 408.472101 -284.0755 
L 412.198622 -284.0755 
L 415.925144 -284.0755 
L 419.651665 -284.0755 
L 423.378187 -284.0755 
L 427.104708 -284.0755 
L 430.83123 -284.0755 
L 434.557751 -284.0755 
L 438.284272 -284.0755 
L 442.010794 -284.0755 
L 445.737315 -284.0755 
L 449.463837 -284.0755 
L 453.190358 -284.0755 
L 456.916879 -284.0755 
L 460.643401 -485.6755 
L 460.643401 -485.6755 
L 460.643401 -485.6755 
L 456.916879 -485.6755 
L 453.190358 -485.6755 
L 449.463837 -485.6755 
L 445.737315 -485.6755 
L 442.010794 -485.6755 
L 438.284272 -485.6755 
L 434.557751 -485.6755 
L 430.83123 -485.6755 
L 427.104708 -485.6755 
L 423.378187 -485.6755 
L 419.651665 -485.6755 
L 415.925144 -485.6755 
L 412.198622 -485.6755 
L 408.472101 -485.6755 
L 404.74558 -485.6755 
L 401.019058 -485.6755 
L 397.292537 -485.6755 
L 393.566015 -485.6755 
L 389.839494 -485.6755 
L 386.112973 -485.6755 
L 382.386451 -485.6755 
L 378.65993 -485.6755 
L 374.933408 -485.6755 
L 371.206887 -485.6755 
L 367.480366 -485.6755 
L 363.753844 -485.6755 
L 360.027323 -485.6755 
L 356.300801 -485.6755 
L 352.57428 -485.6755 
L 348.847758 -485.6755 
L 345.121237 -485.6755 
L 341.394716 -485.6755 
L 337.668194 -485.6755 
L 333.941673 -485.6755 
L 330.215151 -485.6755 
L 326.48863 -485.6755 
L 322.762109 -485.6755 
L 319.035587 -485.6755 
L 315.309066 -485.6755 
L 311.582544 -485.6755 
L 307.856023 -485.6755 
L 304.129502 -485.6755 
L 300.40298 -485.6755 
L 296.676459 -485.6755 
L 292.949937 -485.6755 
L 289.223416 -485.6755 
L 285.496894 -485.6755 
L 281.770373 -485.6755 
L 278.043852 -485.6755 
L 274.31733 -284.0755 
L 270.590809 -284.0755 
L 266.864287 -284.0755 
L 263.137766 -284.0755 
L 259.411245 -284.0755 
L 255.684723 -284.0755 
L 251.958202 -284.0755 
L 248.23168 -284.0755 
L 244.505159 -284.0755 
L 240.778637 -284.0755 
L 237.052116 -284.0755 
L 233.325595 -284.0755 
L 229.599073 -284.0755 
L 225.872552 -284.0755 
L 222.14603 -284.0755 
L 218.419509 -284.0755 
L 214.692988 -284.0755 
L 210.966466 -284.0755 
L 207.239945 -284.0755 
L 203.513423 -284.0755 
L 199.786902 -284.0755 
L 196.060381 -284.0755 
L 192.333859 -284.0755 
L 188.607338 -284.0755 
L 184.880816 -284.0755 
L 181.154295 -284.0755 
L 177.427773 -284.0755 
L 173.701252 -284.0755 
L 169.974731 -284.0755 
L 166.248209 -284.0755 
L 162.521688 -82.4755 
L 158.795166 -82.4755 
L 155.068645 -82.4755 
L 151.342124 -82.4755 
L 147.615602 -82.4755 
L 143.889081 -82.4755 
L 140.162559 -82.4755 
L 136.436038 -82.4755 
L 132.709517 -82.4755 
L 128.982995 -82.4755 
L 125.256474 -82.4755 
L 121.529952 -82.4755 
L 117.803431 -82.4755 
L 114.076909 -82.4755 
L 110.350388 -82.4755 
L 106.623867 -82.4755 
L 102.897345 -82.4755 
L 99.170824 -82.4755 
L 95.444302 -82.4755 
L 91.717781 -82.4755 
z
" style="stroke: #008000; stroke-opacity: 0.2; stroke-width: 2"/>
    </defs>
    <g clip-path="url(#pb45648f06b)">
     <use xlink:href="#mded137f2c7" x="0" y="533.6245" style="fill: #008000; fill-opacity: 0.2; stroke: #008000; stroke-opacity: 0.2; stroke-width: 2"/>
    </g>
   </g>
   <g id="matplotlib.axis_1">
    <g id="xtick_1">
     <g id="line2d_1">
      <defs>
       <path id="mc7eb38505d" d="M 0 0 
L 0 12 
" style="stroke: #000000; stroke-width: 2.5"/>
      </defs>
      <g>
       <use xlink:href="#mc7eb38505d" x="91.717781" y="471.309" style="stroke: #000000; stroke-width: 2.5"/>
      </g>
     </g>
     <g id="text_1">
      <!-- 0.0 -->
      <g transform="translate(77.723031 500.18225) scale(0.176 -0.176)">
       <defs>
        <path id="DejaVuSans-30" d="M 2034 4250 
Q 1547 4250 1301 3770 
Q 1056 3291 1056 2328 
Q 1056 1369 1301 889 
Q 1547 409 2034 409 
Q 2525 409 2770 889 
Q 3016 1369 3016 2328 
Q 3016 3291 2770 3770 
Q 2525 4250 2034 4250 
z
M 2034 4750 
Q 2819 4750 3233 4129 
Q 3647 3509 3647 2328 
Q 3647 1150 3233 529 
Q 2819 -91 2034 -91 
Q 1250 -91 836 529 
Q 422 1150 422 2328 
Q 422 3509 836 4129 
Q 1250 4750 2034 4750 
z
" transform="scale(0.015625)"/>
        <path id="DejaVuSans-2e" d="M 684 794 
L 1344 794 
L 1344 0 
L 684 0 
L 684 794 
z
" transform="scale(0.015625)"/>
       </defs>
       <use xlink:href="#DejaVuSans-30"/>
       <use xlink:href="#DejaVuSans-2e" x="63.623047"/>
       <use xlink:href="#DejaVuSans-30" x="95.410156"/>
      </g>
     </g>
    </g>
    <g id="xtick_2">
     <g id="line2d_2">
      <g>
       <use xlink:href="#mc7eb38505d" x="165.502905" y="471.309" style="stroke: #000000; stroke-width: 2.5"/>
      </g>
     </g>
     <g id="text_2">
      <!-- 0.2 -->
      <g transform="translate(151.508155 500.18225) scale(0.176 -0.176)">
       <defs>
        <path id="DejaVuSans-32" d="M 1228 531 
L 3431 531 
L 3431 0 
L 469 0 
L 469 531 
Q 828 903 1448 1529 
Q 2069 2156 2228 2338 
Q 2531 2678 2651 2914 
Q 2772 3150 2772 3378 
Q 2772 3750 2511 3984 
Q 2250 4219 1831 4219 
Q 1534 4219 1204 4116 
Q 875 4013 500 3803 
L 500 4441 
Q 881 4594 1212 4672 
Q 1544 4750 1819 4750 
Q 2544 4750 2975 4387 
Q 3406 4025 3406 3419 
Q 3406 3131 3298 2873 
Q 3191 2616 2906 2266 
Q 2828 2175 2409 1742 
Q 1991 1309 1228 531 
z
" transform="scale(0.015625)"/>
       </defs>
       <use xlink:href="#DejaVuSans-30"/>
       <use xlink:href="#DejaVuSans-2e" x="63.623047"/>
       <use xlink:href="#DejaVuSans-32" x="95.410156"/>
      </g>
     </g>
    </g>
    <g id="xtick_3">
     <g id="line2d_3">
      <g>
       <use xlink:href="#mc7eb38505d" x="239.288029" y="471.309" style="stroke: #000000; stroke-width: 2.5"/>
      </g>
     </g>
     <g id="text_3">
      <!-- 0.4 -->
      <g transform="translate(225.293279 500.18225) scale(0.176 -0.176)">
       <defs>
        <path id="DejaVuSans-34" d="M 2419 4116 
L 825 1625 
L 2419 1625 
L 2419 4116 
z
M 2253 4666 
L 3047 4666 
L 3047 1625 
L 3713 1625 
L 3713 1100 
L 3047 1100 
L 3047 0 
L 2419 0 
L 2419 1100 
L 313 1100 
L 313 1709 
L 2253 4666 
z
" transform="scale(0.015625)"/>
       </defs>
       <use xlink:href="#DejaVuSans-30"/>
       <use xlink:href="#DejaVuSans-2e" x="63.623047"/>
       <use xlink:href="#DejaVuSans-34" x="95.410156"/>
      </g>
     </g>
    </g>
    <g id="xtick_4">
     <g id="line2d_4">
      <g>
       <use xlink:href="#mc7eb38505d" x="313.073153" y="471.309" style="stroke: #000000; stroke-width: 2.5"/>
      </g>
     </g>
     <g id="text_4">
      <!-- 0.6 -->
      <g transform="translate(299.078403 500.18225) scale(0.176 -0.176)">
       <defs>
        <path id="DejaVuSans-36" d="M 2113 2584 
Q 1688 2584 1439 2293 
Q 1191 2003 1191 1497 
Q 1191 994 1439 701 
Q 1688 409 2113 409 
Q 2538 409 2786 701 
Q 3034 994 3034 1497 
Q 3034 2003 2786 2293 
Q 2538 2584 2113 2584 
z
M 3366 4563 
L 3366 3988 
Q 3128 4100 2886 4159 
Q 2644 4219 2406 4219 
Q 1781 4219 1451 3797 
Q 1122 3375 1075 2522 
Q 1259 2794 1537 2939 
Q 1816 3084 2150 3084 
Q 2853 3084 3261 2657 
Q 3669 2231 3669 1497 
Q 3669 778 3244 343 
Q 2819 -91 2113 -91 
Q 1303 -91 875 529 
Q 447 1150 447 2328 
Q 447 3434 972 4092 
Q 1497 4750 2381 4750 
Q 2619 4750 2861 4703 
Q 3103 4656 3366 4563 
z
" transform="scale(0.015625)"/>
       </defs>
       <use xlink:href="#DejaVuSans-30"/>
       <use xlink:href="#DejaVuSans-2e" x="63.623047"/>
       <use xlink:href="#DejaVuSans-36" x="95.410156"/>
      </g>
     </g>
    </g>
    <g id="xtick_5">
     <g id="line2d_5">
      <g>
       <use xlink:href="#mc7eb38505d" x="386.858277" y="471.309" style="stroke: #000000; stroke-width: 2.5"/>
      </g>
     </g>
     <g id="text_5">
      <!-- 0.8 -->
      <g transform="translate(372.863527 500.18225) scale(0.176 -0.176)">
       <defs>
        <path id="DejaVuSans-38" d="M 2034 2216 
Q 1584 2216 1326 1975 
Q 1069 1734 1069 1313 
Q 1069 891 1326 650 
Q 1584 409 2034 409 
Q 2484 409 2743 651 
Q 3003 894 3003 1313 
Q 3003 1734 2745 1975 
Q 2488 2216 2034 2216 
z
M 1403 2484 
Q 997 2584 770 2862 
Q 544 3141 544 3541 
Q 544 4100 942 4425 
Q 1341 4750 2034 4750 
Q 2731 4750 3128 4425 
Q 3525 4100 3525 3541 
Q 3525 3141 3298 2862 
Q 3072 2584 2669 2484 
Q 3125 2378 3379 2068 
Q 3634 1759 3634 1313 
Q 3634 634 3220 271 
Q 2806 -91 2034 -91 
Q 1263 -91 848 271 
Q 434 634 434 1313 
Q 434 1759 690 2068 
Q 947 2378 1403 2484 
z
M 1172 3481 
Q 1172 3119 1398 2916 
Q 1625 2713 2034 2713 
Q 2441 2713 2670 2916 
Q 2900 3119 2900 3481 
Q 2900 3844 2670 4047 
Q 2441 4250 2034 4250 
Q 1625 4250 1398 4047 
Q 1172 3844 1172 3481 
z
" transform="scale(0.015625)"/>
       </defs>
       <use xlink:href="#DejaVuSans-30"/>
       <use xlink:href="#DejaVuSans-2e" x="63.623047"/>
       <use xlink:href="#DejaVuSans-38" x="95.410156"/>
      </g>
     </g>
    </g>
    <g id="xtick_6">
     <g id="line2d_6">
      <g>
       <use xlink:href="#mc7eb38505d" x="460.643401" y="471.309" style="stroke: #000000; stroke-width: 2.5"/>
      </g>
     </g>
     <g id="text_6">
      <!-- 1.0 -->
      <g transform="translate(446.648651 500.18225) scale(0.176 -0.176)">
       <defs>
        <path id="DejaVuSans-31" d="M 794 531 
L 1825 531 
L 1825 4091 
L 703 3866 
L 703 4441 
L 1819 4666 
L 2450 4666 
L 2450 531 
L 3481 531 
L 3481 0 
L 794 0 
L 794 531 
z
" transform="scale(0.015625)"/>
       </defs>
       <use xlink:href="#DejaVuSans-31"/>
       <use xlink:href="#DejaVuSans-2e" x="63.623047"/>
       <use xlink:href="#DejaVuSans-30" x="95.410156"/>
      </g>
     </g>
    </g>
    <g id="text_7">
     <!-- False Positive Rate -->
     <g transform="translate(186.965091 522.4315) scale(0.192 -0.192)">
      <defs>
       <path id="DejaVuSans-46" d="M 628 4666 
L 3309 4666 
L 3309 4134 
L 1259 4134 
L 1259 2759 
L 3109 2759 
L 3109 2228 
L 1259 2228 
L 1259 0 
L 628 0 
L 628 4666 
z
" transform="scale(0.015625)"/>
       <path id="DejaVuSans-61" d="M 2194 1759 
Q 1497 1759 1228 1600 
Q 959 1441 959 1056 
Q 959 750 1161 570 
Q 1363 391 1709 391 
Q 2188 391 2477 730 
Q 2766 1069 2766 1631 
L 2766 1759 
L 2194 1759 
z
M 3341 1997 
L 3341 0 
L 2766 0 
L 2766 531 
Q 2569 213 2275 61 
Q 1981 -91 1556 -91 
Q 1019 -91 701 211 
Q 384 513 384 1019 
Q 384 1609 779 1909 
Q 1175 2209 1959 2209 
L 2766 2209 
L 2766 2266 
Q 2766 2663 2505 2880 
Q 2244 3097 1772 3097 
Q 1472 3097 1187 3025 
Q 903 2953 641 2809 
L 641 3341 
Q 956 3463 1253 3523 
Q 1550 3584 1831 3584 
Q 2591 3584 2966 3190 
Q 3341 2797 3341 1997 
z
" transform="scale(0.015625)"/>
       <path id="DejaVuSans-6c" d="M 603 4863 
L 1178 4863 
L 1178 0 
L 603 0 
L 603 4863 
z
" transform="scale(0.015625)"/>
       <path id="DejaVuSans-73" d="M 2834 3397 
L 2834 2853 
Q 2591 2978 2328 3040 
Q 2066 3103 1784 3103 
Q 1356 3103 1142 2972 
Q 928 2841 928 2578 
Q 928 2378 1081 2264 
Q 1234 2150 1697 2047 
L 1894 2003 
Q 2506 1872 2764 1633 
Q 3022 1394 3022 966 
Q 3022 478 2636 193 
Q 2250 -91 1575 -91 
Q 1294 -91 989 -36 
Q 684 19 347 128 
L 347 722 
Q 666 556 975 473 
Q 1284 391 1588 391 
Q 1994 391 2212 530 
Q 2431 669 2431 922 
Q 2431 1156 2273 1281 
Q 2116 1406 1581 1522 
L 1381 1569 
Q 847 1681 609 1914 
Q 372 2147 372 2553 
Q 372 3047 722 3315 
Q 1072 3584 1716 3584 
Q 2034 3584 2315 3537 
Q 2597 3491 2834 3397 
z
" transform="scale(0.015625)"/>
       <path id="DejaVuSans-65" d="M 3597 1894 
L 3597 1613 
L 953 1613 
Q 991 1019 1311 708 
Q 1631 397 2203 397 
Q 2534 397 2845 478 
Q 3156 559 3463 722 
L 3463 178 
Q 3153 47 2828 -22 
Q 2503 -91 2169 -91 
Q 1331 -91 842 396 
Q 353 884 353 1716 
Q 353 2575 817 3079 
Q 1281 3584 2069 3584 
Q 2775 3584 3186 3129 
Q 3597 2675 3597 1894 
z
M 3022 2063 
Q 3016 2534 2758 2815 
Q 2500 3097 2075 3097 
Q 1594 3097 1305 2825 
Q 1016 2553 972 2059 
L 3022 2063 
z
" transform="scale(0.015625)"/>
       <path id="DejaVuSans-20" transform="scale(0.015625)"/>
       <path id="DejaVuSans-50" d="M 1259 4147 
L 1259 2394 
L 2053 2394 
Q 2494 2394 2734 2622 
Q 2975 2850 2975 3272 
Q 2975 3691 2734 3919 
Q 2494 4147 2053 4147 
L 1259 4147 
z
M 628 4666 
L 2053 4666 
Q 2838 4666 3239 4311 
Q 3641 3956 3641 3272 
Q 3641 2581 3239 2228 
Q 2838 1875 2053 1875 
L 1259 1875 
L 1259 0 
L 628 0 
L 628 4666 
z
" transform="scale(0.015625)"/>
       <path id="DejaVuSans-6f" d="M 1959 3097 
Q 1497 3097 1228 2736 
Q 959 2375 959 1747 
Q 959 1119 1226 758 
Q 1494 397 1959 397 
Q 2419 397 2687 759 
Q 2956 1122 2956 1747 
Q 2956 2369 2687 2733 
Q 2419 3097 1959 3097 
z
M 1959 3584 
Q 2709 3584 3137 3096 
Q 3566 2609 3566 1747 
Q 3566 888 3137 398 
Q 2709 -91 1959 -91 
Q 1206 -91 779 398 
Q 353 888 353 1747 
Q 353 2609 779 3096 
Q 1206 3584 1959 3584 
z
" transform="scale(0.015625)"/>
       <path id="DejaVuSans-69" d="M 603 3500 
L 1178 3500 
L 1178 0 
L 603 0 
L 603 3500 
z
M 603 4863 
L 1178 4863 
L 1178 4134 
L 603 4134 
L 603 4863 
z
" transform="scale(0.015625)"/>
       <path id="DejaVuSans-74" d="M 1172 4494 
L 1172 3500 
L 2356 3500 
L 2356 3053 
L 1172 3053 
L 1172 1153 
Q 1172 725 1289 603 
Q 1406 481 1766 481 
L 2356 481 
L 2356 0 
L 1766 0 
Q 1100 0 847 248 
Q 594 497 594 1153 
L 594 3053 
L 172 3053 
L 172 3500 
L 594 3500 
L 594 4494 
L 1172 4494 
z
" transform="scale(0.015625)"/>
       <path id="DejaVuSans-76" d="M 191 3500 
L 800 3500 
L 1894 563 
L 2988 3500 
L 3597 3500 
L 2284 0 
L 1503 0 
L 191 3500 
z
" transform="scale(0.015625)"/>
       <path id="DejaVuSans-52" d="M 2841 2188 
Q 3044 2119 3236 1894 
Q 3428 1669 3622 1275 
L 4263 0 
L 3584 0 
L 2988 1197 
Q 2756 1666 2539 1819 
Q 2322 1972 1947 1972 
L 1259 1972 
L 1259 0 
L 628 0 
L 628 4666 
L 2053 4666 
Q 2853 4666 3247 4331 
Q 3641 3997 3641 3322 
Q 3641 2881 3436 2590 
Q 3231 2300 2841 2188 
z
M 1259 4147 
L 1259 2491 
L 2053 2491 
Q 2509 2491 2742 2702 
Q 2975 2913 2975 3322 
Q 2975 3731 2742 3939 
Q 2509 4147 2053 4147 
L 1259 4147 
z
" transform="scale(0.015625)"/>
      </defs>
      <use xlink:href="#DejaVuSans-46"/>
      <use xlink:href="#DejaVuSans-61" x="48.394531"/>
      <use xlink:href="#DejaVuSans-6c" x="109.673828"/>
      <use xlink:href="#DejaVuSans-73" x="137.457031"/>
      <use xlink:href="#DejaVuSans-65" x="189.556641"/>
      <use xlink:href="#DejaVuSans-20" x="251.080078"/>
      <use xlink:href="#DejaVuSans-50" x="282.867188"/>
      <use xlink:href="#DejaVuSans-6f" x="339.544922"/>
      <use xlink:href="#DejaVuSans-73" x="400.726562"/>
      <use xlink:href="#DejaVuSans-69" x="452.826172"/>
      <use xlink:href="#DejaVuSans-74" x="480.609375"/>
      <use xlink:href="#DejaVuSans-69" x="519.818359"/>
      <use xlink:href="#DejaVuSans-76" x="547.601562"/>
      <use xlink:href="#DejaVuSans-65" x="606.78125"/>
      <use xlink:href="#DejaVuSans-20" x="668.304688"/>
      <use xlink:href="#DejaVuSans-52" x="700.091797"/>
      <use xlink:href="#DejaVuSans-61" x="767.324219"/>
      <use xlink:href="#DejaVuSans-74" x="828.603516"/>
      <use xlink:href="#DejaVuSans-65" x="867.8125"/>
     </g>
    </g>
   </g>
   <g id="matplotlib.axis_2">
    <g id="ytick_1">
     <g id="line2d_7">
      <defs>
       <path id="m69556e13e4" d="M 0 0 
L -12 0 
" style="stroke: #000000; stroke-width: 2.5"/>
      </defs>
      <g>
       <use xlink:href="#m69556e13e4" x="73.2715" y="451.149" style="stroke: #000000; stroke-width: 2.5"/>
      </g>
     </g>
     <g id="text_8">
      <!-- 0.0 -->
      <g transform="translate(29.782 457.835625) scale(0.176 -0.176)">
       <use xlink:href="#DejaVuSans-30"/>
       <use xlink:href="#DejaVuSans-2e" x="63.623047"/>
       <use xlink:href="#DejaVuSans-30" x="95.410156"/>
      </g>
     </g>
    </g>
    <g id="ytick_2">
     <g id="line2d_8">
      <g>
       <use xlink:href="#m69556e13e4" x="73.2715" y="370.509" style="stroke: #000000; stroke-width: 2.5"/>
      </g>
     </g>
     <g id="text_9">
      <!-- 0.2 -->
      <g transform="translate(29.782 377.195625) scale(0.176 -0.176)">
       <use xlink:href="#DejaVuSans-30"/>
       <use xlink:href="#DejaVuSans-2e" x="63.623047"/>
       <use xlink:href="#DejaVuSans-32" x="95.410156"/>
      </g>
     </g>
    </g>
    <g id="ytick_3">
     <g id="line2d_9">
      <g>
       <use xlink:href="#m69556e13e4" x="73.2715" y="289.869" style="stroke: #000000; stroke-width: 2.5"/>
      </g>
     </g>
     <g id="text_10">
      <!-- 0.4 -->
      <g transform="translate(29.782 296.555625) scale(0.176 -0.176)">
       <use xlink:href="#DejaVuSans-30"/>
       <use xlink:href="#DejaVuSans-2e" x="63.623047"/>
       <use xlink:href="#DejaVuSans-34" x="95.410156"/>
      </g>
     </g>
    </g>
    <g id="ytick_4">
     <g id="line2d_10">
      <g>
       <use xlink:href="#m69556e13e4" x="73.2715" y="209.229" style="stroke: #000000; stroke-width: 2.5"/>
      </g>
     </g>
     <g id="text_11">
      <!-- 0.6 -->
      <g transform="translate(29.782 215.915625) scale(0.176 -0.176)">
       <use xlink:href="#DejaVuSans-30"/>
       <use xlink:href="#DejaVuSans-2e" x="63.623047"/>
       <use xlink:href="#DejaVuSans-36" x="95.410156"/>
      </g>
     </g>
    </g>
    <g id="ytick_5">
     <g id="line2d_11">
      <g>
       <use xlink:href="#m69556e13e4" x="73.2715" y="128.589" style="stroke: #000000; stroke-width: 2.5"/>
      </g>
     </g>
     <g id="text_12">
      <!-- 0.8 -->
      <g transform="translate(29.782 135.275625) scale(0.176 -0.176)">
       <use xlink:href="#DejaVuSans-30"/>
       <use xlink:href="#DejaVuSans-2e" x="63.623047"/>
       <use xlink:href="#DejaVuSans-38" x="95.410156"/>
      </g>
     </g>
    </g>
    <g id="ytick_6">
     <g id="line2d_12">
      <g>
       <use xlink:href="#m69556e13e4" x="73.2715" y="47.949" style="stroke: #000000; stroke-width: 2.5"/>
      </g>
     </g>
     <g id="text_13">
      <!-- 1.0 -->
      <g transform="translate(29.782 54.635625) scale(0.176 -0.176)">
       <use xlink:href="#DejaVuSans-31"/>
       <use xlink:href="#DejaVuSans-2e" x="63.623047"/>
       <use xlink:href="#DejaVuSans-30" x="95.410156"/>
      </g>
     </g>
    </g>
    <g id="text_14">
     <!-- True Positive Rate -->
     <g transform="translate(21.789 335.046) rotate(-90) scale(0.192 -0.192)">
      <defs>
       <path id="DejaVuSans-54" d="M -19 4666 
L 3928 4666 
L 3928 4134 
L 2272 4134 
L 2272 0 
L 1638 0 
L 1638 4134 
L -19 4134 
L -19 4666 
z
" transform="scale(0.015625)"/>
       <path id="DejaVuSans-72" d="M 2631 2963 
Q 2534 3019 2420 3045 
Q 2306 3072 2169 3072 
Q 1681 3072 1420 2755 
Q 1159 2438 1159 1844 
L 1159 0 
L 581 0 
L 581 3500 
L 1159 3500 
L 1159 2956 
Q 1341 3275 1631 3429 
Q 1922 3584 2338 3584 
Q 2397 3584 2469 3576 
Q 2541 3569 2628 3553 
L 2631 2963 
z
" transform="scale(0.015625)"/>
       <path id="DejaVuSans-75" d="M 544 1381 
L 544 3500 
L 1119 3500 
L 1119 1403 
Q 1119 906 1312 657 
Q 1506 409 1894 409 
Q 2359 409 2629 706 
Q 2900 1003 2900 1516 
L 2900 3500 
L 3475 3500 
L 3475 0 
L 2900 0 
L 2900 538 
Q 2691 219 2414 64 
Q 2138 -91 1772 -91 
Q 1169 -91 856 284 
Q 544 659 544 1381 
z
M 1991 3584 
L 1991 3584 
z
" transform="scale(0.015625)"/>
      </defs>
      <use xlink:href="#DejaVuSans-54"/>
      <use xlink:href="#DejaVuSans-72" x="46.333984"/>
      <use xlink:href="#DejaVuSans-75" x="87.447266"/>
      <use xlink:href="#DejaVuSans-65" x="150.826172"/>
      <use xlink:href="#DejaVuSans-20" x="212.349609"/>
      <use xlink:href="#DejaVuSans-50" x="244.136719"/>
      <use xlink:href="#DejaVuSans-6f" x="300.814453"/>
      <use xlink:href="#DejaVuSans-73" x="361.996094"/>
      <use xlink:href="#DejaVuSans-69" x="414.095703"/>
      <use xlink:href="#DejaVuSans-74" x="441.878906"/>
      <use xlink:href="#DejaVuSans-69" x="481.087891"/>
      <use xlink:href="#DejaVuSans-76" x="508.871094"/>
      <use xlink:href="#DejaVuSans-65" x="568.050781"/>
      <use xlink:href="#DejaVuSans-20" x="629.574219"/>
      <use xlink:href="#DejaVuSans-52" x="661.361328"/>
      <use xlink:href="#DejaVuSans-61" x="728.59375"/>
      <use xlink:href="#DejaVuSans-74" x="789.873047"/>
      <use xlink:href="#DejaVuSans-65" x="829.082031"/>
     </g>
    </g>
   </g>
   <g id="line2d_13">
    <path d="M 91.717781 451.149 
L 95.444302 357.069 
L 99.170824 357.069 
L 102.897345 357.069 
L 106.623867 357.069 
L 110.350388 357.069 
L 114.076909 357.069 
L 117.803431 357.069 
L 121.529952 357.069 
L 125.256474 357.069 
L 128.982995 357.069 
L 132.709517 357.069 
L 136.436038 357.069 
L 140.162559 357.069 
L 143.889081 357.069 
L 147.615602 357.069 
L 151.342124 357.069 
L 155.068645 357.069 
L 158.795166 357.069 
L 162.521688 357.069 
L 166.248209 357.069 
L 169.974731 357.069 
L 173.701252 357.069 
L 177.427773 357.069 
L 181.154295 357.069 
L 184.880816 276.429 
L 188.607338 276.429 
L 192.333859 276.429 
L 196.060381 276.429 
L 199.786902 276.429 
L 203.513423 276.429 
L 207.239945 276.429 
L 210.966466 276.429 
L 214.692988 276.429 
L 218.419509 276.429 
L 222.14603 276.429 
L 225.872552 276.429 
L 229.599073 276.429 
L 233.325595 276.429 
L 237.052116 276.429 
L 240.778637 215.949 
L 244.505159 215.949 
L 248.23168 215.949 
L 251.958202 215.949 
L 255.684723 215.949 
L 259.411245 215.949 
L 263.137766 215.949 
L 266.864287 215.949 
L 270.590809 215.949 
L 274.31733 215.949 
L 278.043852 148.749 
L 281.770373 148.749 
L 285.496894 148.749 
L 289.223416 148.749 
L 292.949937 148.749 
L 296.676459 148.749 
L 300.40298 148.749 
L 304.129502 148.749 
L 307.856023 148.749 
L 311.582544 148.749 
L 315.309066 148.749 
L 319.035587 148.749 
L 322.762109 148.749 
L 326.48863 148.749 
L 330.215151 148.749 
L 333.941673 148.749 
L 337.668194 148.749 
L 341.394716 148.749 
L 345.121237 148.749 
L 348.847758 148.749 
L 352.57428 148.749 
L 356.300801 148.749 
L 360.027323 148.749 
L 363.753844 148.749 
L 367.480366 148.749 
L 371.206887 94.989 
L 374.933408 94.989 
L 378.65993 94.989 
L 382.386451 94.989 
L 386.112973 94.989 
L 389.839494 94.989 
L 393.566015 94.989 
L 397.292537 94.989 
L 401.019058 94.989 
L 404.74558 94.989 
L 408.472101 94.989 
L 412.198622 94.989 
L 415.925144 94.989 
L 419.651665 94.989 
L 423.378187 94.989 
L 427.104708 94.989 
L 430.83123 94.989 
L 434.557751 94.989 
L 438.284272 94.989 
L 442.010794 94.989 
L 445.737315 94.989 
L 449.463837 94.989 
L 453.190358 94.989 
L 456.916879 94.989 
L 460.643401 47.949 
" clip-path="url(#pb45648f06b)" style="fill: none; stroke: #ffa500; stroke-width: 3; stroke-linecap: square"/>
   </g>
   <g id="line2d_14">
    <path d="M 91.717781 451.149 
L 95.444302 383.949 
L 99.170824 383.949 
L 102.897345 383.949 
L 106.623867 383.949 
L 110.350388 383.949 
L 114.076909 383.949 
L 117.803431 383.949 
L 121.529952 383.949 
L 125.256474 383.949 
L 128.982995 383.949 
L 132.709517 383.949 
L 136.436038 383.949 
L 140.162559 383.949 
L 143.889081 383.949 
L 147.615602 383.949 
L 151.342124 383.949 
L 155.068645 383.949 
L 158.795166 383.949 
L 162.521688 383.949 
L 166.248209 363.789 
L 169.974731 363.789 
L 173.701252 363.789 
L 177.427773 363.789 
L 181.154295 363.789 
L 184.880816 336.909 
L 188.607338 336.909 
L 192.333859 336.909 
L 196.060381 336.909 
L 199.786902 336.909 
L 203.513423 336.909 
L 207.239945 336.909 
L 210.966466 336.909 
L 214.692988 336.909 
L 218.419509 336.909 
L 222.14603 336.909 
L 225.872552 336.909 
L 229.599073 336.909 
L 233.325595 336.909 
L 237.052116 336.909 
L 240.778637 316.749 
L 244.505159 316.749 
L 248.23168 316.749 
L 251.958202 316.749 
L 255.684723 316.749 
L 259.411245 316.749 
L 263.137766 316.749 
L 266.864287 316.749 
L 270.590809 316.749 
L 274.31733 316.749 
L 278.043852 262.310212 
L 281.770373 260.952636 
L 285.496894 259.595061 
L 289.223416 258.237485 
L 292.949937 256.879909 
L 296.676459 255.522333 
L 300.40298 254.164758 
L 304.129502 252.807182 
L 307.856023 251.449606 
L 311.582544 250.09203 
L 315.309066 207.803545 
L 319.035587 205.427788 
L 322.762109 203.05203 
L 326.48863 200.676273 
L 330.215151 198.300515 
L 333.941673 195.924758 
L 337.668194 193.549 
L 341.394716 191.173242 
L 345.121237 188.797485 
L 348.847758 186.421727 
L 352.57428 184.04597 
L 356.300801 181.670212 
L 360.027323 179.294455 
L 363.753844 176.918697 
L 367.480366 174.542939 
L 371.206887 78.901727 
L 374.933408 77.61203 
L 378.65993 76.322333 
L 382.386451 75.032636 
L 386.112973 73.742939 
L 389.839494 73.267788 
L 393.566015 72.996273 
L 397.292537 72.724758 
L 401.019058 72.453242 
L 404.74558 72.181727 
L 408.472101 71.910212 
L 412.198622 71.638697 
L 415.925144 71.367182 
L 419.651665 71.095667 
L 423.378187 70.824152 
L 427.104708 70.552636 
L 430.83123 70.281121 
L 434.557751 70.009606 
L 438.284272 69.738091 
L 442.010794 69.466576 
L 445.737315 69.195061 
L 449.463837 68.923545 
L 453.190358 68.65203 
L 456.916879 68.380515 
L 460.643401 47.949 
" clip-path="url(#pb45648f06b)" style="fill: none; stroke: #0000ff; stroke-width: 3; stroke-linecap: square"/>
   </g>
   <g id="line2d_15">
    <path d="M 91.717781 451.149 
L 95.444302 451.149 
L 99.170824 451.149 
L 102.897345 451.149 
L 106.623867 451.149 
L 110.350388 451.149 
L 114.076909 451.149 
L 117.803431 451.149 
L 121.529952 451.149 
L 125.256474 451.149 
L 128.982995 451.149 
L 132.709517 451.149 
L 136.436038 451.149 
L 140.162559 451.149 
L 143.889081 451.149 
L 147.615602 451.149 
L 151.342124 451.149 
L 155.068645 451.149 
L 158.795166 451.149 
L 162.521688 451.149 
L 166.248209 430.989 
L 169.974731 430.989 
L 173.701252 430.989 
L 177.427773 430.989 
L 181.154295 430.989 
L 184.880816 377.229 
L 188.607338 377.229 
L 192.333859 377.229 
L 196.060381 377.229 
L 199.786902 377.229 
L 203.513423 377.229 
L 207.239945 377.229 
L 210.966466 377.229 
L 214.692988 377.229 
L 218.419509 377.229 
L 222.14603 377.229 
L 225.872552 377.229 
L 229.599073 377.229 
L 233.325595 377.229 
L 237.052116 377.229 
L 240.778637 377.229 
L 244.505159 377.229 
L 248.23168 377.229 
L 251.958202 377.229 
L 255.684723 377.229 
L 259.411245 377.229 
L 263.137766 377.229 
L 266.864287 377.229 
L 270.590809 377.229 
L 274.31733 377.229 
L 278.043852 269.709 
L 281.770373 269.709 
L 285.496894 269.709 
L 289.223416 269.709 
L 292.949937 269.709 
L 296.676459 269.709 
L 300.40298 269.709 
L 304.129502 269.709 
L 307.856023 269.709 
L 311.582544 269.709 
L 315.309066 229.389 
L 319.035587 229.389 
L 322.762109 229.389 
L 326.48863 229.389 
L 330.215151 229.389 
L 333.941673 229.389 
L 337.668194 229.389 
L 341.394716 229.389 
L 345.121237 229.389 
L 348.847758 229.389 
L 352.57428 229.389 
L 356.300801 229.389 
L 360.027323 229.389 
L 363.753844 229.389 
L 367.480366 229.389 
L 371.206887 135.309 
L 374.933408 135.309 
L 378.65993 135.309 
L 382.386451 135.309 
L 386.112973 135.309 
L 389.839494 94.989 
L 393.566015 94.989 
L 397.292537 94.989 
L 401.019058 94.989 
L 404.74558 94.989 
L 408.472101 94.989 
L 412.198622 94.989 
L 415.925144 94.989 
L 419.651665 94.989 
L 423.378187 94.989 
L 427.104708 94.989 
L 430.83123 94.989 
L 434.557751 94.989 
L 438.284272 94.989 
L 442.010794 94.989 
L 445.737315 94.989 
L 449.463837 94.989 
L 453.190358 94.989 
L 456.916879 94.989 
L 460.643401 47.949 
" clip-path="url(#pb45648f06b)" style="fill: none; stroke: #008000; stroke-width: 3; stroke-linecap: square"/>
   </g>
   <g id="line2d_16">
    <path d="M 91.717781 451.149 
L 460.643401 47.949 
" clip-path="url(#pb45648f06b)" style="fill: none; stroke-dasharray: 11.1,4.8; stroke-dashoffset: 0; stroke: #000000; stroke-opacity: 0.5; stroke-width: 3"/>
   </g>
   <g id="patch_3">
    <path d="M 73.2715 471.309 
L 73.2715 27.789 
" style="fill: none; stroke: #000000; stroke-width: 2.5; stroke-linejoin: miter; stroke-linecap: square"/>
   </g>
   <g id="patch_4">
    <path d="M 479.089682 471.309 
L 479.089682 27.789 
" style="fill: none; stroke: #000000; stroke-width: 2.5; stroke-linejoin: miter; stroke-linecap: square"/>
   </g>
   <g id="patch_5">
    <path d="M 73.2715 471.309 
L 479.089682 471.309 
" style="fill: none; stroke: #000000; stroke-width: 2.5; stroke-linejoin: miter; stroke-linecap: square"/>
   </g>
   <g id="patch_6">
    <path d="M 73.2715 27.789 
L 479.089682 27.789 
" style="fill: none; stroke: #000000; stroke-width: 2.5; stroke-linejoin: miter; stroke-linecap: square"/>
   </g>
   <g id="text_15">
    <!-- Approach CDT_DI_LIVE_MONTH_108 -->
    <g transform="translate(102.897591 21.789) scale(0.192 -0.192)">
     <defs>
      <path id="DejaVuSans-41" d="M 2188 4044 
L 1331 1722 
L 3047 1722 
L 2188 4044 
z
M 1831 4666 
L 2547 4666 
L 4325 0 
L 3669 0 
L 3244 1197 
L 1141 1197 
L 716 0 
L 50 0 
L 1831 4666 
z
" transform="scale(0.015625)"/>
      <path id="DejaVuSans-70" d="M 1159 525 
L 1159 -1331 
L 581 -1331 
L 581 3500 
L 1159 3500 
L 1159 2969 
Q 1341 3281 1617 3432 
Q 1894 3584 2278 3584 
Q 2916 3584 3314 3078 
Q 3713 2572 3713 1747 
Q 3713 922 3314 415 
Q 2916 -91 2278 -91 
Q 1894 -91 1617 61 
Q 1341 213 1159 525 
z
M 3116 1747 
Q 3116 2381 2855 2742 
Q 2594 3103 2138 3103 
Q 1681 3103 1420 2742 
Q 1159 2381 1159 1747 
Q 1159 1113 1420 752 
Q 1681 391 2138 391 
Q 2594 391 2855 752 
Q 3116 1113 3116 1747 
z
" transform="scale(0.015625)"/>
      <path id="DejaVuSans-63" d="M 3122 3366 
L 3122 2828 
Q 2878 2963 2633 3030 
Q 2388 3097 2138 3097 
Q 1578 3097 1268 2742 
Q 959 2388 959 1747 
Q 959 1106 1268 751 
Q 1578 397 2138 397 
Q 2388 397 2633 464 
Q 2878 531 3122 666 
L 3122 134 
Q 2881 22 2623 -34 
Q 2366 -91 2075 -91 
Q 1284 -91 818 406 
Q 353 903 353 1747 
Q 353 2603 823 3093 
Q 1294 3584 2113 3584 
Q 2378 3584 2631 3529 
Q 2884 3475 3122 3366 
z
" transform="scale(0.015625)"/>
      <path id="DejaVuSans-68" d="M 3513 2113 
L 3513 0 
L 2938 0 
L 2938 2094 
Q 2938 2591 2744 2837 
Q 2550 3084 2163 3084 
Q 1697 3084 1428 2787 
Q 1159 2491 1159 1978 
L 1159 0 
L 581 0 
L 581 4863 
L 1159 4863 
L 1159 2956 
Q 1366 3272 1645 3428 
Q 1925 3584 2291 3584 
Q 2894 3584 3203 3211 
Q 3513 2838 3513 2113 
z
" transform="scale(0.015625)"/>
      <path id="DejaVuSans-43" d="M 4122 4306 
L 4122 3641 
Q 3803 3938 3442 4084 
Q 3081 4231 2675 4231 
Q 1875 4231 1450 3742 
Q 1025 3253 1025 2328 
Q 1025 1406 1450 917 
Q 1875 428 2675 428 
Q 3081 428 3442 575 
Q 3803 722 4122 1019 
L 4122 359 
Q 3791 134 3420 21 
Q 3050 -91 2638 -91 
Q 1578 -91 968 557 
Q 359 1206 359 2328 
Q 359 3453 968 4101 
Q 1578 4750 2638 4750 
Q 3056 4750 3426 4639 
Q 3797 4528 4122 4306 
z
" transform="scale(0.015625)"/>
      <path id="DejaVuSans-44" d="M 1259 4147 
L 1259 519 
L 2022 519 
Q 2988 519 3436 956 
Q 3884 1394 3884 2338 
Q 3884 3275 3436 3711 
Q 2988 4147 2022 4147 
L 1259 4147 
z
M 628 4666 
L 1925 4666 
Q 3281 4666 3915 4102 
Q 4550 3538 4550 2338 
Q 4550 1131 3912 565 
Q 3275 0 1925 0 
L 628 0 
L 628 4666 
z
" transform="scale(0.015625)"/>
      <path id="DejaVuSans-5f" d="M 3263 -1063 
L 3263 -1509 
L -63 -1509 
L -63 -1063 
L 3263 -1063 
z
" transform="scale(0.015625)"/>
      <path id="DejaVuSans-49" d="M 628 4666 
L 1259 4666 
L 1259 0 
L 628 0 
L 628 4666 
z
" transform="scale(0.015625)"/>
      <path id="DejaVuSans-4c" d="M 628 4666 
L 1259 4666 
L 1259 531 
L 3531 531 
L 3531 0 
L 628 0 
L 628 4666 
z
" transform="scale(0.015625)"/>
      <path id="DejaVuSans-56" d="M 1831 0 
L 50 4666 
L 709 4666 
L 2188 738 
L 3669 4666 
L 4325 4666 
L 2547 0 
L 1831 0 
z
" transform="scale(0.015625)"/>
      <path id="DejaVuSans-45" d="M 628 4666 
L 3578 4666 
L 3578 4134 
L 1259 4134 
L 1259 2753 
L 3481 2753 
L 3481 2222 
L 1259 2222 
L 1259 531 
L 3634 531 
L 3634 0 
L 628 0 
L 628 4666 
z
" transform="scale(0.015625)"/>
      <path id="DejaVuSans-4d" d="M 628 4666 
L 1569 4666 
L 2759 1491 
L 3956 4666 
L 4897 4666 
L 4897 0 
L 4281 0 
L 4281 4097 
L 3078 897 
L 2444 897 
L 1241 4097 
L 1241 0 
L 628 0 
L 628 4666 
z
" transform="scale(0.015625)"/>
      <path id="DejaVuSans-4f" d="M 2522 4238 
Q 1834 4238 1429 3725 
Q 1025 3213 1025 2328 
Q 1025 1447 1429 934 
Q 1834 422 2522 422 
Q 3209 422 3611 934 
Q 4013 1447 4013 2328 
Q 4013 3213 3611 3725 
Q 3209 4238 2522 4238 
z
M 2522 4750 
Q 3503 4750 4090 4092 
Q 4678 3434 4678 2328 
Q 4678 1225 4090 567 
Q 3503 -91 2522 -91 
Q 1538 -91 948 565 
Q 359 1222 359 2328 
Q 359 3434 948 4092 
Q 1538 4750 2522 4750 
z
" transform="scale(0.015625)"/>
      <path id="DejaVuSans-4e" d="M 628 4666 
L 1478 4666 
L 3547 763 
L 3547 4666 
L 4159 4666 
L 4159 0 
L 3309 0 
L 1241 3903 
L 1241 0 
L 628 0 
L 628 4666 
z
" transform="scale(0.015625)"/>
      <path id="DejaVuSans-48" d="M 628 4666 
L 1259 4666 
L 1259 2753 
L 3553 2753 
L 3553 4666 
L 4184 4666 
L 4184 0 
L 3553 0 
L 3553 2222 
L 1259 2222 
L 1259 0 
L 628 0 
L 628 4666 
z
" transform="scale(0.015625)"/>
     </defs>
     <use xlink:href="#DejaVuSans-41"/>
     <use xlink:href="#DejaVuSans-70" x="68.408203"/>
     <use xlink:href="#DejaVuSans-70" x="131.884766"/>
     <use xlink:href="#DejaVuSans-72" x="195.361328"/>
     <use xlink:href="#DejaVuSans-6f" x="234.224609"/>
     <use xlink:href="#DejaVuSans-61" x="295.40625"/>
     <use xlink:href="#DejaVuSans-63" x="356.685547"/>
     <use xlink:href="#DejaVuSans-68" x="411.666016"/>
     <use xlink:href="#DejaVuSans-20" x="475.044922"/>
     <use xlink:href="#DejaVuSans-43" x="506.832031"/>
     <use xlink:href="#DejaVuSans-44" x="576.65625"/>
     <use xlink:href="#DejaVuSans-54" x="653.658203"/>
     <use xlink:href="#DejaVuSans-5f" x="714.742188"/>
     <use xlink:href="#DejaVuSans-44" x="764.742188"/>
     <use xlink:href="#DejaVuSans-49" x="841.744141"/>
     <use xlink:href="#DejaVuSans-5f" x="871.236328"/>
     <use xlink:href="#DejaVuSans-4c" x="921.236328"/>
     <use xlink:href="#DejaVuSans-49" x="976.949219"/>
     <use xlink:href="#DejaVuSans-56" x="1006.441406"/>
     <use xlink:href="#DejaVuSans-45" x="1074.849609"/>
     <use xlink:href="#DejaVuSans-5f" x="1138.033203"/>
     <use xlink:href="#DejaVuSans-4d" x="1188.033203"/>
     <use xlink:href="#DejaVuSans-4f" x="1274.3125"/>
     <use xlink:href="#DejaVuSans-4e" x="1353.023438"/>
     <use xlink:href="#DejaVuSans-54" x="1427.828125"/>
     <use xlink:href="#DejaVuSans-48" x="1488.912109"/>
     <use xlink:href="#DejaVuSans-5f" x="1564.107422"/>
     <use xlink:href="#DejaVuSans-31" x="1614.107422"/>
     <use xlink:href="#DejaVuSans-30" x="1677.730469"/>
     <use xlink:href="#DejaVuSans-38" x="1741.353516"/>
    </g>
   </g>
   <g id="legend_1">
    <g id="patch_7">
     <path d="M 85.5915 119.3695 
L 231.01975 119.3695 
Q 234.53975 119.3695 234.53975 115.8495 
L 234.53975 40.109 
Q 234.53975 36.589 231.01975 36.589 
L 85.5915 36.589 
Q 82.0715 36.589 82.0715 40.109 
L 82.0715 115.8495 
Q 82.0715 119.3695 85.5915 119.3695 
z
" style="fill: #ffffff; opacity: 0.8; stroke: #cccccc; stroke-width: 2; stroke-linejoin: miter"/>
    </g>
    <g id="line2d_17">
     <path d="M 89.1115 50.84225 
L 106.7115 50.84225 
L 124.3115 50.84225 
" style="fill: none; stroke: #ffa500; stroke-width: 3; stroke-linecap: square"/>
    </g>
    <g id="text_16">
     <!-- LR: 0.59 -->
     <g transform="translate(138.3915 57.00225) scale(0.176 -0.176)">
      <defs>
       <path id="DejaVuSans-3a" d="M 750 794 
L 1409 794 
L 1409 0 
L 750 0 
L 750 794 
z
M 750 3309 
L 1409 3309 
L 1409 2516 
L 750 2516 
L 750 3309 
z
" transform="scale(0.015625)"/>
       <path id="DejaVuSans-35" d="M 691 4666 
L 3169 4666 
L 3169 4134 
L 1269 4134 
L 1269 2991 
Q 1406 3038 1543 3061 
Q 1681 3084 1819 3084 
Q 2600 3084 3056 2656 
Q 3513 2228 3513 1497 
Q 3513 744 3044 326 
Q 2575 -91 1722 -91 
Q 1428 -91 1123 -41 
Q 819 9 494 109 
L 494 744 
Q 775 591 1075 516 
Q 1375 441 1709 441 
Q 2250 441 2565 725 
Q 2881 1009 2881 1497 
Q 2881 1984 2565 2268 
Q 2250 2553 1709 2553 
Q 1456 2553 1204 2497 
Q 953 2441 691 2322 
L 691 4666 
z
" transform="scale(0.015625)"/>
       <path id="DejaVuSans-39" d="M 703 97 
L 703 672 
Q 941 559 1184 500 
Q 1428 441 1663 441 
Q 2288 441 2617 861 
Q 2947 1281 2994 2138 
Q 2813 1869 2534 1725 
Q 2256 1581 1919 1581 
Q 1219 1581 811 2004 
Q 403 2428 403 3163 
Q 403 3881 828 4315 
Q 1253 4750 1959 4750 
Q 2769 4750 3195 4129 
Q 3622 3509 3622 2328 
Q 3622 1225 3098 567 
Q 2575 -91 1691 -91 
Q 1453 -91 1209 -44 
Q 966 3 703 97 
z
M 1959 2075 
Q 2384 2075 2632 2365 
Q 2881 2656 2881 3163 
Q 2881 3666 2632 3958 
Q 2384 4250 1959 4250 
Q 1534 4250 1286 3958 
Q 1038 3666 1038 3163 
Q 1038 2656 1286 2365 
Q 1534 2075 1959 2075 
z
" transform="scale(0.015625)"/>
      </defs>
      <use xlink:href="#DejaVuSans-4c"/>
      <use xlink:href="#DejaVuSans-52" x="55.712891"/>
      <use xlink:href="#DejaVuSans-3a" x="122.070312"/>
      <use xlink:href="#DejaVuSans-20" x="155.761719"/>
      <use xlink:href="#DejaVuSans-30" x="187.548828"/>
      <use xlink:href="#DejaVuSans-2e" x="251.171875"/>
      <use xlink:href="#DejaVuSans-35" x="282.958984"/>
      <use xlink:href="#DejaVuSans-39" x="346.582031"/>
     </g>
    </g>
    <g id="line2d_18">
     <path d="M 89.1115 76.67575 
L 106.7115 76.67575 
L 124.3115 76.67575 
" style="fill: none; stroke: #0000ff; stroke-width: 3; stroke-linecap: square"/>
    </g>
    <g id="text_17">
     <!-- RF: 0.5 -->
     <g transform="translate(138.3915 82.83575) scale(0.176 -0.176)">
      <use xlink:href="#DejaVuSans-52"/>
      <use xlink:href="#DejaVuSans-46" x="69.482422"/>
      <use xlink:href="#DejaVuSans-3a" x="119.251953"/>
      <use xlink:href="#DejaVuSans-20" x="152.943359"/>
      <use xlink:href="#DejaVuSans-30" x="184.730469"/>
      <use xlink:href="#DejaVuSans-2e" x="248.353516"/>
      <use xlink:href="#DejaVuSans-35" x="280.140625"/>
     </g>
    </g>
    <g id="line2d_19">
     <path d="M 89.1115 102.50925 
L 106.7115 102.50925 
L 124.3115 102.50925 
" style="fill: none; stroke: #008000; stroke-width: 3; stroke-linecap: square"/>
    </g>
    <g id="text_18">
     <!-- SVM: 0.39 -->
     <g transform="translate(138.3915 108.66925) scale(0.176 -0.176)">
      <defs>
       <path id="DejaVuSans-53" d="M 3425 4513 
L 3425 3897 
Q 3066 4069 2747 4153 
Q 2428 4238 2131 4238 
Q 1616 4238 1336 4038 
Q 1056 3838 1056 3469 
Q 1056 3159 1242 3001 
Q 1428 2844 1947 2747 
L 2328 2669 
Q 3034 2534 3370 2195 
Q 3706 1856 3706 1288 
Q 3706 609 3251 259 
Q 2797 -91 1919 -91 
Q 1588 -91 1214 -16 
Q 841 59 441 206 
L 441 856 
Q 825 641 1194 531 
Q 1563 422 1919 422 
Q 2459 422 2753 634 
Q 3047 847 3047 1241 
Q 3047 1584 2836 1778 
Q 2625 1972 2144 2069 
L 1759 2144 
Q 1053 2284 737 2584 
Q 422 2884 422 3419 
Q 422 4038 858 4394 
Q 1294 4750 2059 4750 
Q 2388 4750 2728 4690 
Q 3069 4631 3425 4513 
z
" transform="scale(0.015625)"/>
       <path id="DejaVuSans-33" d="M 2597 2516 
Q 3050 2419 3304 2112 
Q 3559 1806 3559 1356 
Q 3559 666 3084 287 
Q 2609 -91 1734 -91 
Q 1441 -91 1130 -33 
Q 819 25 488 141 
L 488 750 
Q 750 597 1062 519 
Q 1375 441 1716 441 
Q 2309 441 2620 675 
Q 2931 909 2931 1356 
Q 2931 1769 2642 2001 
Q 2353 2234 1838 2234 
L 1294 2234 
L 1294 2753 
L 1863 2753 
Q 2328 2753 2575 2939 
Q 2822 3125 2822 3475 
Q 2822 3834 2567 4026 
Q 2313 4219 1838 4219 
Q 1578 4219 1281 4162 
Q 984 4106 628 3988 
L 628 4550 
Q 988 4650 1302 4700 
Q 1616 4750 1894 4750 
Q 2613 4750 3031 4423 
Q 3450 4097 3450 3541 
Q 3450 3153 3228 2886 
Q 3006 2619 2597 2516 
z
" transform="scale(0.015625)"/>
      </defs>
      <use xlink:href="#DejaVuSans-53"/>
      <use xlink:href="#DejaVuSans-56" x="63.476562"/>
      <use xlink:href="#DejaVuSans-4d" x="131.884766"/>
      <use xlink:href="#DejaVuSans-3a" x="218.164062"/>
      <use xlink:href="#DejaVuSans-20" x="251.855469"/>
      <use xlink:href="#DejaVuSans-30" x="283.642578"/>
      <use xlink:href="#DejaVuSans-2e" x="347.265625"/>
      <use xlink:href="#DejaVuSans-33" x="379.052734"/>
      <use xlink:href="#DejaVuSans-39" x="442.675781"/>
     </g>
    </g>
   </g>
  </g>
  <g id="axes_2">
   <g id="patch_8">
    <path d="M 560.253318 471.309 
L 966.0715 471.309 
L 966.0715 27.789 
L 560.253318 27.789 
z
" style="fill: #ffffff"/>
   </g>
   <g id="PolyCollection_4">
    <defs>
     <path id="m761bb99f14" d="M 578.699599 -82.4755 
L 578.699599 -82.4755 
L 582.426121 -82.4755 
L 586.152642 -82.4755 
L 589.879163 -82.4755 
L 593.605685 -82.4755 
L 597.332206 -82.4755 
L 601.058728 -82.4755 
L 604.785249 -82.4755 
L 608.51177 -82.4755 
L 612.238292 -82.4755 
L 615.964813 -82.4755 
L 619.691335 -82.4755 
L 623.417856 -82.4755 
L 627.144378 -82.4755 
L 630.870899 -82.4755 
L 634.59742 -82.4755 
L 638.323942 -82.4755 
L 642.050463 -82.4755 
L 645.776985 -82.4755 
L 649.503506 -82.4755 
L 653.230027 -82.4755 
L 656.956549 -82.4755 
L 660.68307 -82.4755 
L 664.409592 -82.4755 
L 668.136113 -82.4755 
L 671.862634 -82.4755 
L 675.589156 -82.4755 
L 679.315677 -82.4755 
L 683.042199 -82.4755 
L 686.76872 -82.4755 
L 690.495242 -82.4755 
L 694.221763 -82.4755 
L 697.948284 -82.4755 
L 701.674806 -82.4755 
L 705.401327 -82.4755 
L 709.127849 -82.4755 
L 712.85437 -82.4755 
L 716.580891 -82.4755 
L 720.307413 -82.4755 
L 724.033934 -82.4755 
L 727.760456 -82.4755 
L 731.486977 -82.4755 
L 735.213498 -82.4755 
L 738.94002 -82.4755 
L 742.666541 -82.4755 
L 746.393063 -82.4755 
L 750.119584 -82.4755 
L 753.846106 -82.4755 
L 757.572627 -82.4755 
L 761.299148 -82.4755 
L 765.02567 -284.0755 
L 768.752191 -284.0755 
L 772.478713 -284.0755 
L 776.205234 -284.0755 
L 779.931755 -284.0755 
L 783.658277 -284.0755 
L 787.384798 -284.0755 
L 791.11132 -284.0755 
L 794.837841 -284.0755 
L 798.564363 -284.0755 
L 802.290884 -284.0755 
L 806.017405 -284.0755 
L 809.743927 -284.0755 
L 813.470448 -284.0755 
L 817.19697 -284.0755 
L 820.923491 -284.0755 
L 824.650012 -284.0755 
L 828.376534 -284.0755 
L 832.103055 -284.0755 
L 835.829577 -284.0755 
L 839.556098 -284.0755 
L 843.282619 -284.0755 
L 847.009141 -284.0755 
L 850.735662 -284.0755 
L 854.462184 -284.0755 
L 858.188705 -284.0755 
L 861.915227 -284.0755 
L 865.641748 -284.0755 
L 869.368269 -284.0755 
L 873.094791 -284.0755 
L 876.821312 -284.0755 
L 880.547834 -284.0755 
L 884.274355 -284.0755 
L 888.000876 -284.0755 
L 891.727398 -284.0755 
L 895.453919 -284.0755 
L 899.180441 -284.0755 
L 902.906962 -284.0755 
L 906.633483 -284.0755 
L 910.360005 -284.0755 
L 914.086526 -284.0755 
L 917.813048 -284.0755 
L 921.539569 -284.0755 
L 925.266091 -284.0755 
L 928.992612 -284.0755 
L 932.719133 -284.0755 
L 936.445655 -284.0755 
L 940.172176 -284.0755 
L 943.898698 -284.0755 
L 947.625219 -485.6755 
L 947.625219 -485.6755 
L 947.625219 -485.6755 
L 943.898698 -485.6755 
L 940.172176 -485.6755 
L 936.445655 -485.6755 
L 932.719133 -485.6755 
L 928.992612 -485.6755 
L 925.266091 -485.6755 
L 921.539569 -485.6755 
L 917.813048 -485.6755 
L 914.086526 -485.6755 
L 910.360005 -485.6755 
L 906.633483 -485.6755 
L 902.906962 -485.6755 
L 899.180441 -485.6755 
L 895.453919 -485.6755 
L 891.727398 -485.6755 
L 888.000876 -485.6755 
L 884.274355 -485.6755 
L 880.547834 -485.6755 
L 876.821312 -485.6755 
L 873.094791 -485.6755 
L 869.368269 -485.6755 
L 865.641748 -485.6755 
L 861.915227 -485.6755 
L 858.188705 -485.6755 
L 854.462184 -485.6755 
L 850.735662 -485.6755 
L 847.009141 -485.6755 
L 843.282619 -485.6755 
L 839.556098 -485.6755 
L 835.829577 -485.6755 
L 832.103055 -485.6755 
L 828.376534 -485.6755 
L 824.650012 -485.6755 
L 820.923491 -485.6755 
L 817.19697 -485.6755 
L 813.470448 -485.6755 
L 809.743927 -485.6755 
L 806.017405 -485.6755 
L 802.290884 -485.6755 
L 798.564363 -485.6755 
L 794.837841 -485.6755 
L 791.11132 -485.6755 
L 787.384798 -485.6755 
L 783.658277 -485.6755 
L 779.931755 -485.6755 
L 776.205234 -485.6755 
L 772.478713 -485.6755 
L 768.752191 -485.6755 
L 765.02567 -485.6755 
L 761.299148 -351.2755 
L 757.572627 -351.2755 
L 753.846106 -351.2755 
L 750.119584 -351.2755 
L 746.393063 -351.2755 
L 742.666541 -351.2755 
L 738.94002 -351.2755 
L 735.213498 -351.2755 
L 731.486977 -351.2755 
L 727.760456 -351.2755 
L 724.033934 -351.2755 
L 720.307413 -351.2755 
L 716.580891 -351.2755 
L 712.85437 -351.2755 
L 709.127849 -351.2755 
L 705.401327 -351.2755 
L 701.674806 -351.2755 
L 697.948284 -351.2755 
L 694.221763 -351.2755 
L 690.495242 -351.2755 
L 686.76872 -351.2755 
L 683.042199 -351.2755 
L 679.315677 -351.2755 
L 675.589156 -351.2755 
L 671.862634 -351.2755 
L 668.136113 -351.2755 
L 664.409592 -351.2755 
L 660.68307 -351.2755 
L 656.956549 -351.2755 
L 653.230027 -351.2755 
L 649.503506 -351.2755 
L 645.776985 -351.2755 
L 642.050463 -351.2755 
L 638.323942 -351.2755 
L 634.59742 -351.2755 
L 630.870899 -351.2755 
L 627.144378 -351.2755 
L 623.417856 -351.2755 
L 619.691335 -351.2755 
L 615.964813 -351.2755 
L 612.238292 -351.2755 
L 608.51177 -351.2755 
L 604.785249 -351.2755 
L 601.058728 -351.2755 
L 597.332206 -351.2755 
L 593.605685 -351.2755 
L 589.879163 -351.2755 
L 586.152642 -351.2755 
L 582.426121 -351.2755 
L 578.699599 -82.4755 
z
" style="stroke: #ffa500; stroke-opacity: 0.2; stroke-width: 2"/>
    </defs>
    <g clip-path="url(#p29a6f77200)">
     <use xlink:href="#m761bb99f14" x="0" y="533.6245" style="fill: #ffa500; fill-opacity: 0.2; stroke: #ffa500; stroke-opacity: 0.2; stroke-width: 2"/>
    </g>
   </g>
   <g id="PolyCollection_5">
    <defs>
     <path id="mb5755e0c20" d="M 578.699599 -82.4755 
L 578.699599 -82.4755 
L 582.426121 -82.4755 
L 586.152642 -82.4755 
L 589.879163 -82.4755 
L 593.605685 -82.4755 
L 597.332206 -82.4755 
L 601.058728 -82.4755 
L 604.785249 -82.4755 
L 608.51177 -82.4755 
L 612.238292 -82.4755 
L 615.964813 -82.4755 
L 619.691335 -82.4755 
L 623.417856 -82.4755 
L 627.144378 -82.4755 
L 630.870899 -82.4755 
L 634.59742 -82.4755 
L 638.323942 -82.4755 
L 642.050463 -82.4755 
L 645.776985 -82.4755 
L 649.503506 -82.4755 
L 653.230027 -82.4755 
L 656.956549 -82.4755 
L 660.68307 -82.4755 
L 664.409592 -82.4755 
L 668.136113 -82.4755 
L 671.862634 -82.4755 
L 675.589156 -82.4755 
L 679.315677 -82.4755 
L 683.042199 -82.4755 
L 686.76872 -82.4755 
L 690.495242 -82.4755 
L 694.221763 -82.4755 
L 697.948284 -82.4755 
L 701.674806 -82.4755 
L 705.401327 -82.4755 
L 709.127849 -82.4755 
L 712.85437 -82.4755 
L 716.580891 -82.4755 
L 720.307413 -82.4755 
L 724.033934 -82.4755 
L 727.760456 -82.4755 
L 731.486977 -82.4755 
L 735.213498 -82.4755 
L 738.94002 -82.4755 
L 742.666541 -82.4755 
L 746.393063 -82.4755 
L 750.119584 -82.4755 
L 753.846106 -82.4755 
L 757.572627 -82.4755 
L 761.299148 -82.4755 
L 765.02567 -82.4755 
L 768.752191 -82.4755 
L 772.478713 -82.4755 
L 776.205234 -82.4755 
L 779.931755 -82.4755 
L 783.658277 -82.4755 
L 787.384798 -82.4755 
L 791.11132 -82.4755 
L 794.837841 -82.4755 
L 798.564363 -82.4755 
L 802.290884 -82.4755 
L 806.017405 -82.4755 
L 809.743927 -82.4755 
L 813.470448 -82.4755 
L 817.19697 -82.4755 
L 820.923491 -82.4755 
L 824.650012 -82.4755 
L 828.376534 -82.4755 
L 832.103055 -82.4755 
L 835.829577 -82.4755 
L 839.556098 -82.4755 
L 843.282619 -82.4755 
L 847.009141 -82.4755 
L 850.735662 -82.4755 
L 854.462184 -82.4755 
L 858.188705 -241.311864 
L 861.915227 -251.493682 
L 865.641748 -261.6755 
L 869.368269 -271.857318 
L 873.094791 -282.039136 
L 876.821312 -284.0755 
L 880.547834 -284.0755 
L 884.274355 -284.0755 
L 888.000876 -284.0755 
L 891.727398 -284.0755 
L 895.453919 -284.0755 
L 899.180441 -284.0755 
L 902.906962 -284.0755 
L 906.633483 -284.0755 
L 910.360005 -284.0755 
L 914.086526 -284.0755 
L 917.813048 -284.0755 
L 921.539569 -284.0755 
L 925.266091 -284.0755 
L 928.992612 -284.0755 
L 932.719133 -284.0755 
L 936.445655 -284.0755 
L 940.172176 -284.0755 
L 943.898698 -284.0755 
L 947.625219 -485.6755 
L 947.625219 -485.6755 
L 947.625219 -485.6755 
L 943.898698 -485.6755 
L 940.172176 -485.6755 
L 936.445655 -485.6755 
L 932.719133 -485.6755 
L 928.992612 -485.6755 
L 925.266091 -485.6755 
L 921.539569 -485.6755 
L 917.813048 -485.6755 
L 914.086526 -485.6755 
L 910.360005 -485.6755 
L 906.633483 -485.6755 
L 902.906962 -485.6755 
L 899.180441 -485.6755 
L 895.453919 -485.6755 
L 891.727398 -485.6755 
L 888.000876 -485.6755 
L 884.274355 -485.6755 
L 880.547834 -485.6755 
L 876.821312 -485.6755 
L 873.094791 -485.6755 
L 869.368269 -485.6755 
L 865.641748 -485.6755 
L 861.915227 -485.6755 
L 858.188705 -485.6755 
L 854.462184 -485.6755 
L 850.735662 -485.6755 
L 847.009141 -485.6755 
L 843.282619 -485.6755 
L 839.556098 -485.6755 
L 835.829577 -485.6755 
L 832.103055 -485.6755 
L 828.376534 -485.6755 
L 824.650012 -485.6755 
L 820.923491 -485.6755 
L 817.19697 -485.6755 
L 813.470448 -485.6755 
L 809.743927 -485.6755 
L 806.017405 -485.6755 
L 802.290884 -485.6755 
L 798.564363 -485.6755 
L 794.837841 -485.6755 
L 791.11132 -485.6755 
L 787.384798 -485.6755 
L 783.658277 -485.6755 
L 779.931755 -485.6755 
L 776.205234 -485.6755 
L 772.478713 -485.6755 
L 768.752191 -485.6755 
L 765.02567 -485.6755 
L 761.299148 -485.6755 
L 757.572627 -485.6755 
L 753.846106 -485.6755 
L 750.119584 -485.6755 
L 746.393063 -485.6755 
L 742.666541 -485.6755 
L 738.94002 -485.6755 
L 735.213498 -485.6755 
L 731.486977 -485.6755 
L 727.760456 -485.6755 
L 724.033934 -485.6755 
L 720.307413 -485.6755 
L 716.580891 -485.6755 
L 712.85437 -485.6755 
L 709.127849 -485.6755 
L 705.401327 -485.6755 
L 701.674806 -485.6755 
L 697.948284 -485.6755 
L 694.221763 -485.6755 
L 690.495242 -485.6755 
L 686.76872 -485.6755 
L 683.042199 -485.6755 
L 679.315677 -485.6755 
L 675.589156 -485.6755 
L 671.862634 -485.6755 
L 668.136113 -284.0755 
L 664.409592 -284.0755 
L 660.68307 -284.0755 
L 656.956549 -284.0755 
L 653.230027 -284.0755 
L 649.503506 -284.0755 
L 645.776985 -284.0755 
L 642.050463 -284.0755 
L 638.323942 -284.0755 
L 634.59742 -284.0755 
L 630.870899 -284.0755 
L 627.144378 -284.0755 
L 623.417856 -284.0755 
L 619.691335 -284.0755 
L 615.964813 -284.0755 
L 612.238292 -284.0755 
L 608.51177 -284.0755 
L 604.785249 -284.0755 
L 601.058728 -284.0755 
L 597.332206 -284.0755 
L 593.605685 -284.0755 
L 589.879163 -284.0755 
L 586.152642 -284.0755 
L 582.426121 -284.0755 
L 578.699599 -82.4755 
z
" style="stroke: #0000ff; stroke-opacity: 0.2; stroke-width: 2"/>
    </defs>
    <g clip-path="url(#p29a6f77200)">
     <use xlink:href="#mb5755e0c20" x="0" y="533.6245" style="fill: #0000ff; fill-opacity: 0.2; stroke: #0000ff; stroke-opacity: 0.2; stroke-width: 2"/>
    </g>
   </g>
   <g id="PolyCollection_6">
    <defs>
     <path id="me2315bb7cb" d="M 578.699599 -82.4755 
L 578.699599 -82.4755 
L 582.426121 -82.4755 
L 586.152642 -82.4755 
L 589.879163 -82.4755 
L 593.605685 -82.4755 
L 597.332206 -82.4755 
L 601.058728 -82.4755 
L 604.785249 -82.4755 
L 608.51177 -82.4755 
L 612.238292 -82.4755 
L 615.964813 -82.4755 
L 619.691335 -82.4755 
L 623.417856 -82.4755 
L 627.144378 -82.4755 
L 630.870899 -82.4755 
L 634.59742 -82.4755 
L 638.323942 -82.4755 
L 642.050463 -82.4755 
L 645.776985 -82.4755 
L 649.503506 -82.4755 
L 653.230027 -82.4755 
L 656.956549 -82.4755 
L 660.68307 -82.4755 
L 664.409592 -82.4755 
L 668.136113 -82.4755 
L 671.862634 -82.4755 
L 675.589156 -82.4755 
L 679.315677 -82.4755 
L 683.042199 -82.4755 
L 686.76872 -82.4755 
L 690.495242 -82.4755 
L 694.221763 -82.4755 
L 697.948284 -82.4755 
L 701.674806 -82.4755 
L 705.401327 -82.4755 
L 709.127849 -82.4755 
L 712.85437 -82.4755 
L 716.580891 -82.4755 
L 720.307413 -82.4755 
L 724.033934 -82.4755 
L 727.760456 -82.4755 
L 731.486977 -82.4755 
L 735.213498 -82.4755 
L 738.94002 -82.4755 
L 742.666541 -82.4755 
L 746.393063 -82.4755 
L 750.119584 -82.4755 
L 753.846106 -82.4755 
L 757.572627 -82.4755 
L 761.299148 -82.4755 
L 765.02567 -82.4755 
L 768.752191 -82.4755 
L 772.478713 -82.4755 
L 776.205234 -82.4755 
L 779.931755 -82.4755 
L 783.658277 -82.4755 
L 787.384798 -82.4755 
L 791.11132 -82.4755 
L 794.837841 -82.4755 
L 798.564363 -82.4755 
L 802.290884 -82.4755 
L 806.017405 -82.4755 
L 809.743927 -82.4755 
L 813.470448 -82.4755 
L 817.19697 -82.4755 
L 820.923491 -82.4755 
L 824.650012 -82.4755 
L 828.376534 -82.4755 
L 832.103055 -82.4755 
L 835.829577 -82.4755 
L 839.556098 -82.4755 
L 843.282619 -82.4755 
L 847.009141 -82.4755 
L 850.735662 -82.4755 
L 854.462184 -82.4755 
L 858.188705 -82.4755 
L 861.915227 -82.4755 
L 865.641748 -82.4755 
L 869.368269 -82.4755 
L 873.094791 -82.4755 
L 876.821312 -82.4755 
L 880.547834 -82.4755 
L 884.274355 -82.4755 
L 888.000876 -82.4755 
L 891.727398 -82.4755 
L 895.453919 -82.4755 
L 899.180441 -82.4755 
L 902.906962 -82.4755 
L 906.633483 -82.4755 
L 910.360005 -82.4755 
L 914.086526 -82.4755 
L 917.813048 -82.4755 
L 921.539569 -82.4755 
L 925.266091 -82.4755 
L 928.992612 -82.4755 
L 932.719133 -82.4755 
L 936.445655 -82.4755 
L 940.172176 -82.4755 
L 943.898698 -82.4755 
L 947.625219 -485.6755 
L 947.625219 -485.6755 
L 947.625219 -485.6755 
L 943.898698 -485.6755 
L 940.172176 -485.6755 
L 936.445655 -485.6755 
L 932.719133 -485.6755 
L 928.992612 -485.6755 
L 925.266091 -485.6755 
L 921.539569 -485.6755 
L 917.813048 -485.6755 
L 914.086526 -485.6755 
L 910.360005 -485.6755 
L 906.633483 -485.6755 
L 902.906962 -485.6755 
L 899.180441 -485.6755 
L 895.453919 -485.6755 
L 891.727398 -485.6755 
L 888.000876 -485.6755 
L 884.274355 -485.6755 
L 880.547834 -485.6755 
L 876.821312 -485.6755 
L 873.094791 -485.6755 
L 869.368269 -485.6755 
L 865.641748 -485.6755 
L 861.915227 -485.6755 
L 858.188705 -485.6755 
L 854.462184 -485.6755 
L 850.735662 -485.6755 
L 847.009141 -485.6755 
L 843.282619 -485.6755 
L 839.556098 -485.6755 
L 835.829577 -485.6755 
L 832.103055 -485.6755 
L 828.376534 -485.6755 
L 824.650012 -485.6755 
L 820.923491 -485.6755 
L 817.19697 -485.6755 
L 813.470448 -485.6755 
L 809.743927 -485.6755 
L 806.017405 -485.6755 
L 802.290884 -485.6755 
L 798.564363 -485.6755 
L 794.837841 -485.6755 
L 791.11132 -485.6755 
L 787.384798 -485.6755 
L 783.658277 -485.6755 
L 779.931755 -485.6755 
L 776.205234 -485.6755 
L 772.478713 -485.6755 
L 768.752191 -485.6755 
L 765.02567 -485.6755 
L 761.299148 -485.6755 
L 757.572627 -485.6755 
L 753.846106 -485.6755 
L 750.119584 -485.6755 
L 746.393063 -485.6755 
L 742.666541 -485.6755 
L 738.94002 -485.6755 
L 735.213498 -485.6755 
L 731.486977 -485.6755 
L 727.760456 -485.6755 
L 724.033934 -485.6755 
L 720.307413 -485.6755 
L 716.580891 -485.6755 
L 712.85437 -485.6755 
L 709.127849 -485.6755 
L 705.401327 -485.6755 
L 701.674806 -485.6755 
L 697.948284 -485.6755 
L 694.221763 -485.6755 
L 690.495242 -485.6755 
L 686.76872 -485.6755 
L 683.042199 -485.6755 
L 679.315677 -485.6755 
L 675.589156 -485.6755 
L 671.862634 -485.6755 
L 668.136113 -485.6755 
L 664.409592 -485.6755 
L 660.68307 -485.6755 
L 656.956549 -485.6755 
L 653.230027 -485.6755 
L 649.503506 -284.0755 
L 645.776985 -284.0755 
L 642.050463 -284.0755 
L 638.323942 -284.0755 
L 634.59742 -284.0755 
L 630.870899 -284.0755 
L 627.144378 -284.0755 
L 623.417856 -284.0755 
L 619.691335 -284.0755 
L 615.964813 -284.0755 
L 612.238292 -284.0755 
L 608.51177 -284.0755 
L 604.785249 -284.0755 
L 601.058728 -284.0755 
L 597.332206 -284.0755 
L 593.605685 -284.0755 
L 589.879163 -284.0755 
L 586.152642 -284.0755 
L 582.426121 -284.0755 
L 578.699599 -82.4755 
z
" style="stroke: #008000; stroke-opacity: 0.2; stroke-width: 2"/>
    </defs>
    <g clip-path="url(#p29a6f77200)">
     <use xlink:href="#me2315bb7cb" x="0" y="533.6245" style="fill: #008000; fill-opacity: 0.2; stroke: #008000; stroke-opacity: 0.2; stroke-width: 2"/>
    </g>
   </g>
   <g id="matplotlib.axis_3">
    <g id="xtick_7">
     <g id="line2d_20">
      <g>
       <use xlink:href="#mc7eb38505d" x="578.699599" y="471.309" style="stroke: #000000; stroke-width: 2.5"/>
      </g>
     </g>
     <g id="text_19">
      <!-- 0.0 -->
      <g transform="translate(564.704849 500.18225) scale(0.176 -0.176)">
       <use xlink:href="#DejaVuSans-30"/>
       <use xlink:href="#DejaVuSans-2e" x="63.623047"/>
       <use xlink:href="#DejaVuSans-30" x="95.410156"/>
      </g>
     </g>
    </g>
    <g id="xtick_8">
     <g id="line2d_21">
      <g>
       <use xlink:href="#mc7eb38505d" x="652.484723" y="471.309" style="stroke: #000000; stroke-width: 2.5"/>
      </g>
     </g>
     <g id="text_20">
      <!-- 0.2 -->
      <g transform="translate(638.489973 500.18225) scale(0.176 -0.176)">
       <use xlink:href="#DejaVuSans-30"/>
       <use xlink:href="#DejaVuSans-2e" x="63.623047"/>
       <use xlink:href="#DejaVuSans-32" x="95.410156"/>
      </g>
     </g>
    </g>
    <g id="xtick_9">
     <g id="line2d_22">
      <g>
       <use xlink:href="#mc7eb38505d" x="726.269847" y="471.309" style="stroke: #000000; stroke-width: 2.5"/>
      </g>
     </g>
     <g id="text_21">
      <!-- 0.4 -->
      <g transform="translate(712.275097 500.18225) scale(0.176 -0.176)">
       <use xlink:href="#DejaVuSans-30"/>
       <use xlink:href="#DejaVuSans-2e" x="63.623047"/>
       <use xlink:href="#DejaVuSans-34" x="95.410156"/>
      </g>
     </g>
    </g>
    <g id="xtick_10">
     <g id="line2d_23">
      <g>
       <use xlink:href="#mc7eb38505d" x="800.054971" y="471.309" style="stroke: #000000; stroke-width: 2.5"/>
      </g>
     </g>
     <g id="text_22">
      <!-- 0.6 -->
      <g transform="translate(786.060221 500.18225) scale(0.176 -0.176)">
       <use xlink:href="#DejaVuSans-30"/>
       <use xlink:href="#DejaVuSans-2e" x="63.623047"/>
       <use xlink:href="#DejaVuSans-36" x="95.410156"/>
      </g>
     </g>
    </g>
    <g id="xtick_11">
     <g id="line2d_24">
      <g>
       <use xlink:href="#mc7eb38505d" x="873.840095" y="471.309" style="stroke: #000000; stroke-width: 2.5"/>
      </g>
     </g>
     <g id="text_23">
      <!-- 0.8 -->
      <g transform="translate(859.845345 500.18225) scale(0.176 -0.176)">
       <use xlink:href="#DejaVuSans-30"/>
       <use xlink:href="#DejaVuSans-2e" x="63.623047"/>
       <use xlink:href="#DejaVuSans-38" x="95.410156"/>
      </g>
     </g>
    </g>
    <g id="xtick_12">
     <g id="line2d_25">
      <g>
       <use xlink:href="#mc7eb38505d" x="947.625219" y="471.309" style="stroke: #000000; stroke-width: 2.5"/>
      </g>
     </g>
     <g id="text_24">
      <!-- 1.0 -->
      <g transform="translate(933.630469 500.18225) scale(0.176 -0.176)">
       <use xlink:href="#DejaVuSans-31"/>
       <use xlink:href="#DejaVuSans-2e" x="63.623047"/>
       <use xlink:href="#DejaVuSans-30" x="95.410156"/>
      </g>
     </g>
    </g>
    <g id="text_25">
     <!-- False Positive Rate -->
     <g transform="translate(673.946909 522.4315) scale(0.192 -0.192)">
      <use xlink:href="#DejaVuSans-46"/>
      <use xlink:href="#DejaVuSans-61" x="48.394531"/>
      <use xlink:href="#DejaVuSans-6c" x="109.673828"/>
      <use xlink:href="#DejaVuSans-73" x="137.457031"/>
      <use xlink:href="#DejaVuSans-65" x="189.556641"/>
      <use xlink:href="#DejaVuSans-20" x="251.080078"/>
      <use xlink:href="#DejaVuSans-50" x="282.867188"/>
      <use xlink:href="#DejaVuSans-6f" x="339.544922"/>
      <use xlink:href="#DejaVuSans-73" x="400.726562"/>
      <use xlink:href="#DejaVuSans-69" x="452.826172"/>
      <use xlink:href="#DejaVuSans-74" x="480.609375"/>
      <use xlink:href="#DejaVuSans-69" x="519.818359"/>
      <use xlink:href="#DejaVuSans-76" x="547.601562"/>
      <use xlink:href="#DejaVuSans-65" x="606.78125"/>
      <use xlink:href="#DejaVuSans-20" x="668.304688"/>
      <use xlink:href="#DejaVuSans-52" x="700.091797"/>
      <use xlink:href="#DejaVuSans-61" x="767.324219"/>
      <use xlink:href="#DejaVuSans-74" x="828.603516"/>
      <use xlink:href="#DejaVuSans-65" x="867.8125"/>
     </g>
    </g>
   </g>
   <g id="matplotlib.axis_4">
    <g id="ytick_7">
     <g id="line2d_26">
      <g>
       <use xlink:href="#m69556e13e4" x="560.253318" y="451.149" style="stroke: #000000; stroke-width: 2.5"/>
      </g>
     </g>
     <g id="text_26">
      <!-- 0.0 -->
      <g transform="translate(516.763818 457.835625) scale(0.176 -0.176)">
       <use xlink:href="#DejaVuSans-30"/>
       <use xlink:href="#DejaVuSans-2e" x="63.623047"/>
       <use xlink:href="#DejaVuSans-30" x="95.410156"/>
      </g>
     </g>
    </g>
    <g id="ytick_8">
     <g id="line2d_27">
      <g>
       <use xlink:href="#m69556e13e4" x="560.253318" y="370.509" style="stroke: #000000; stroke-width: 2.5"/>
      </g>
     </g>
     <g id="text_27">
      <!-- 0.2 -->
      <g transform="translate(516.763818 377.195625) scale(0.176 -0.176)">
       <use xlink:href="#DejaVuSans-30"/>
       <use xlink:href="#DejaVuSans-2e" x="63.623047"/>
       <use xlink:href="#DejaVuSans-32" x="95.410156"/>
      </g>
     </g>
    </g>
    <g id="ytick_9">
     <g id="line2d_28">
      <g>
       <use xlink:href="#m69556e13e4" x="560.253318" y="289.869" style="stroke: #000000; stroke-width: 2.5"/>
      </g>
     </g>
     <g id="text_28">
      <!-- 0.4 -->
      <g transform="translate(516.763818 296.555625) scale(0.176 -0.176)">
       <use xlink:href="#DejaVuSans-30"/>
       <use xlink:href="#DejaVuSans-2e" x="63.623047"/>
       <use xlink:href="#DejaVuSans-34" x="95.410156"/>
      </g>
     </g>
    </g>
    <g id="ytick_10">
     <g id="line2d_29">
      <g>
       <use xlink:href="#m69556e13e4" x="560.253318" y="209.229" style="stroke: #000000; stroke-width: 2.5"/>
      </g>
     </g>
     <g id="text_29">
      <!-- 0.6 -->
      <g transform="translate(516.763818 215.915625) scale(0.176 -0.176)">
       <use xlink:href="#DejaVuSans-30"/>
       <use xlink:href="#DejaVuSans-2e" x="63.623047"/>
       <use xlink:href="#DejaVuSans-36" x="95.410156"/>
      </g>
     </g>
    </g>
    <g id="ytick_11">
     <g id="line2d_30">
      <g>
       <use xlink:href="#m69556e13e4" x="560.253318" y="128.589" style="stroke: #000000; stroke-width: 2.5"/>
      </g>
     </g>
     <g id="text_30">
      <!-- 0.8 -->
      <g transform="translate(516.763818 135.275625) scale(0.176 -0.176)">
       <use xlink:href="#DejaVuSans-30"/>
       <use xlink:href="#DejaVuSans-2e" x="63.623047"/>
       <use xlink:href="#DejaVuSans-38" x="95.410156"/>
      </g>
     </g>
    </g>
    <g id="ytick_12">
     <g id="line2d_31">
      <g>
       <use xlink:href="#m69556e13e4" x="560.253318" y="47.949" style="stroke: #000000; stroke-width: 2.5"/>
      </g>
     </g>
     <g id="text_31">
      <!-- 1.0 -->
      <g transform="translate(516.763818 54.635625) scale(0.176 -0.176)">
       <use xlink:href="#DejaVuSans-31"/>
       <use xlink:href="#DejaVuSans-2e" x="63.623047"/>
       <use xlink:href="#DejaVuSans-30" x="95.410156"/>
      </g>
     </g>
    </g>
    <g id="text_32">
     <!-- True Positive Rate -->
     <g transform="translate(508.770818 335.046) rotate(-90) scale(0.192 -0.192)">
      <use xlink:href="#DejaVuSans-54"/>
      <use xlink:href="#DejaVuSans-72" x="46.333984"/>
      <use xlink:href="#DejaVuSans-75" x="87.447266"/>
      <use xlink:href="#DejaVuSans-65" x="150.826172"/>
      <use xlink:href="#DejaVuSans-20" x="212.349609"/>
      <use xlink:href="#DejaVuSans-50" x="244.136719"/>
      <use xlink:href="#DejaVuSans-6f" x="300.814453"/>
      <use xlink:href="#DejaVuSans-73" x="361.996094"/>
      <use xlink:href="#DejaVuSans-69" x="414.095703"/>
      <use xlink:href="#DejaVuSans-74" x="441.878906"/>
      <use xlink:href="#DejaVuSans-69" x="481.087891"/>
      <use xlink:href="#DejaVuSans-76" x="508.871094"/>
      <use xlink:href="#DejaVuSans-65" x="568.050781"/>
      <use xlink:href="#DejaVuSans-20" x="629.574219"/>
      <use xlink:href="#DejaVuSans-52" x="661.361328"/>
      <use xlink:href="#DejaVuSans-61" x="728.59375"/>
      <use xlink:href="#DejaVuSans-74" x="789.873047"/>
      <use xlink:href="#DejaVuSans-65" x="829.082031"/>
     </g>
    </g>
   </g>
   <g id="line2d_32">
    <path d="M 578.699599 451.149 
L 582.426121 390.669 
L 586.152642 390.669 
L 589.879163 390.669 
L 593.605685 390.669 
L 597.332206 390.669 
L 601.058728 390.669 
L 604.785249 390.669 
L 608.51177 390.669 
L 612.238292 390.669 
L 615.964813 390.669 
L 619.691335 390.669 
L 623.417856 390.669 
L 627.144378 390.669 
L 630.870899 390.669 
L 634.59742 390.669 
L 638.323942 390.669 
L 642.050463 390.669 
L 645.776985 390.669 
L 649.503506 390.669 
L 653.230027 390.669 
L 656.956549 390.669 
L 660.68307 390.669 
L 664.409592 390.669 
L 668.136113 390.669 
L 671.862634 336.909 
L 675.589156 336.909 
L 679.315677 336.909 
L 683.042199 336.909 
L 686.76872 336.909 
L 690.495242 336.909 
L 694.221763 336.909 
L 697.948284 336.909 
L 701.674806 336.909 
L 705.401327 336.909 
L 709.127849 336.909 
L 712.85437 336.909 
L 716.580891 336.909 
L 720.307413 336.909 
L 724.033934 336.909 
L 727.760456 296.589 
L 731.486977 296.589 
L 735.213498 296.589 
L 738.94002 296.589 
L 742.666541 296.589 
L 746.393063 296.589 
L 750.119584 296.589 
L 753.846106 296.589 
L 757.572627 296.589 
L 761.299148 296.589 
L 765.02567 175.629 
L 768.752191 175.629 
L 772.478713 175.629 
L 776.205234 175.629 
L 779.931755 175.629 
L 783.658277 175.629 
L 787.384798 175.629 
L 791.11132 175.629 
L 794.837841 175.629 
L 798.564363 175.629 
L 802.290884 155.469 
L 806.017405 155.469 
L 809.743927 155.469 
L 813.470448 155.469 
L 817.19697 155.469 
L 820.923491 155.469 
L 824.650012 155.469 
L 828.376534 155.469 
L 832.103055 155.469 
L 835.829577 155.469 
L 839.556098 155.469 
L 843.282619 155.469 
L 847.009141 155.469 
L 850.735662 155.469 
L 854.462184 155.469 
L 858.188705 115.149 
L 861.915227 115.149 
L 865.641748 115.149 
L 869.368269 115.149 
L 873.094791 115.149 
L 876.821312 94.989 
L 880.547834 94.989 
L 884.274355 94.989 
L 888.000876 94.989 
L 891.727398 94.989 
L 895.453919 94.989 
L 899.180441 94.989 
L 902.906962 94.989 
L 906.633483 94.989 
L 910.360005 94.989 
L 914.086526 94.989 
L 917.813048 94.989 
L 921.539569 94.989 
L 925.266091 94.989 
L 928.992612 94.989 
L 932.719133 94.989 
L 936.445655 94.989 
L 940.172176 94.989 
L 943.898698 94.989 
L 947.625219 47.949 
" clip-path="url(#p29a6f77200)" style="fill: none; stroke: #ffa500; stroke-width: 3; stroke-linecap: square"/>
   </g>
   <g id="line2d_33">
    <path d="M 578.699599 451.149 
L 582.426121 403.294455 
L 586.152642 402.479909 
L 589.879163 401.665364 
L 593.605685 400.850818 
L 597.332206 400.036273 
L 601.058728 399.221727 
L 604.785249 398.407182 
L 608.51177 397.592636 
L 612.238292 396.778091 
L 615.964813 395.963545 
L 619.691335 395.149 
L 623.417856 394.334455 
L 627.144378 393.519909 
L 630.870899 392.705364 
L 634.59742 391.890818 
L 638.323942 391.076273 
L 642.050463 390.261727 
L 645.776985 389.447182 
L 649.503506 388.632636 
L 653.230027 367.658091 
L 656.956549 366.843545 
L 660.68307 366.029 
L 664.409592 365.214455 
L 668.136113 364.399909 
L 671.862634 309.825364 
L 675.589156 309.010818 
L 679.315677 308.196273 
L 683.042199 307.381727 
L 686.76872 306.567182 
L 690.495242 305.752636 
L 694.221763 304.938091 
L 697.948284 304.123545 
L 701.674806 303.309 
L 705.401327 302.494455 
L 709.127849 301.679909 
L 712.85437 300.865364 
L 716.580891 300.050818 
L 720.307413 299.236273 
L 724.033934 298.421727 
L 727.760456 297.607182 
L 731.486977 296.792636 
L 735.213498 295.978091 
L 738.94002 295.163545 
L 742.666541 294.349 
L 746.393063 293.534455 
L 750.119584 292.719909 
L 753.846106 291.905364 
L 757.572627 291.090818 
L 761.299148 290.276273 
L 765.02567 276.429 
L 768.752191 276.429 
L 772.478713 276.429 
L 776.205234 276.429 
L 779.931755 276.429 
L 783.658277 276.429 
L 787.384798 276.429 
L 791.11132 276.429 
L 794.837841 276.429 
L 798.564363 276.429 
L 802.290884 255.658091 
L 806.017405 254.639909 
L 809.743927 253.621727 
L 813.470448 252.603545 
L 817.19697 251.585364 
L 820.923491 250.567182 
L 824.650012 249.549 
L 828.376534 248.530818 
L 832.103055 247.512636 
L 835.829577 246.494455 
L 839.556098 245.476273 
L 843.282619 244.458091 
L 847.009141 243.439909 
L 850.735662 242.421727 
L 854.462184 241.403545 
L 858.188705 132.458091 
L 861.915227 130.896879 
L 865.641748 129.335667 
L 869.368269 127.774455 
L 873.094791 126.213242 
L 876.821312 125.466576 
L 880.547834 124.923545 
L 884.274355 124.380515 
L 888.000876 123.837485 
L 891.727398 123.294455 
L 895.453919 122.751424 
L 899.180441 122.208394 
L 902.906962 121.665364 
L 906.633483 121.122333 
L 910.360005 120.579303 
L 914.086526 120.036273 
L 917.813048 119.493242 
L 921.539569 118.950212 
L 925.266091 118.407182 
L 928.992612 117.864152 
L 932.719133 117.321121 
L 936.445655 116.778091 
L 940.172176 116.235061 
L 943.898698 115.69203 
L 947.625219 47.949 
" clip-path="url(#p29a6f77200)" style="fill: none; stroke: #0000ff; stroke-width: 3; stroke-linecap: square"/>
   </g>
   <g id="line2d_34">
    <path d="M 578.699599 451.149 
L 582.426121 390.669 
L 586.152642 390.669 
L 589.879163 390.669 
L 593.605685 390.669 
L 597.332206 390.669 
L 601.058728 390.669 
L 604.785249 390.669 
L 608.51177 390.669 
L 612.238292 390.669 
L 615.964813 390.669 
L 619.691335 390.669 
L 623.417856 390.669 
L 627.144378 390.669 
L 630.870899 390.669 
L 634.59742 390.669 
L 638.323942 390.669 
L 642.050463 390.669 
L 645.776985 390.669 
L 649.503506 390.669 
L 653.230027 350.349 
L 656.956549 350.349 
L 660.68307 350.349 
L 664.409592 350.349 
L 668.136113 350.349 
L 671.862634 323.469 
L 675.589156 323.469 
L 679.315677 323.469 
L 683.042199 323.469 
L 686.76872 323.469 
L 690.495242 323.469 
L 694.221763 323.469 
L 697.948284 323.469 
L 701.674806 323.469 
L 705.401327 323.469 
L 709.127849 323.469 
L 712.85437 323.469 
L 716.580891 323.469 
L 720.307413 323.469 
L 724.033934 323.469 
L 727.760456 303.309 
L 731.486977 303.309 
L 735.213498 303.309 
L 738.94002 303.309 
L 742.666541 303.309 
L 746.393063 303.309 
L 750.119584 303.309 
L 753.846106 303.309 
L 757.572627 303.309 
L 761.299148 303.309 
L 765.02567 209.229 
L 768.752191 209.229 
L 772.478713 209.229 
L 776.205234 209.229 
L 779.931755 209.229 
L 783.658277 209.229 
L 787.384798 209.229 
L 791.11132 209.229 
L 794.837841 209.229 
L 798.564363 209.229 
L 802.290884 189.069 
L 806.017405 189.069 
L 809.743927 189.069 
L 813.470448 189.069 
L 817.19697 189.069 
L 820.923491 189.069 
L 824.650012 189.069 
L 828.376534 189.069 
L 832.103055 189.069 
L 835.829577 189.069 
L 839.556098 189.069 
L 843.282619 189.069 
L 847.009141 189.069 
L 850.735662 189.069 
L 854.462184 189.069 
L 858.188705 148.749 
L 861.915227 148.749 
L 865.641748 148.749 
L 869.368269 148.749 
L 873.094791 148.749 
L 876.821312 128.589 
L 880.547834 128.589 
L 884.274355 128.589 
L 888.000876 128.589 
L 891.727398 128.589 
L 895.453919 128.589 
L 899.180441 128.589 
L 902.906962 128.589 
L 906.633483 128.589 
L 910.360005 128.589 
L 914.086526 128.589 
L 917.813048 128.589 
L 921.539569 128.589 
L 925.266091 128.589 
L 928.992612 128.589 
L 932.719133 128.589 
L 936.445655 128.589 
L 940.172176 128.589 
L 943.898698 128.589 
L 947.625219 47.949 
" clip-path="url(#p29a6f77200)" style="fill: none; stroke: #008000; stroke-width: 3; stroke-linecap: square"/>
   </g>
   <g id="line2d_35">
    <path d="M 578.699599 451.149 
L 947.625219 47.949 
" clip-path="url(#p29a6f77200)" style="fill: none; stroke-dasharray: 11.1,4.8; stroke-dashoffset: 0; stroke: #000000; stroke-opacity: 0.5; stroke-width: 3"/>
   </g>
   <g id="patch_9">
    <path d="M 560.253318 471.309 
L 560.253318 27.789 
" style="fill: none; stroke: #000000; stroke-width: 2.5; stroke-linejoin: miter; stroke-linecap: square"/>
   </g>
   <g id="patch_10">
    <path d="M 966.0715 471.309 
L 966.0715 27.789 
" style="fill: none; stroke: #000000; stroke-width: 2.5; stroke-linejoin: miter; stroke-linecap: square"/>
   </g>
   <g id="patch_11">
    <path d="M 560.253318 471.309 
L 966.0715 471.309 
" style="fill: none; stroke: #000000; stroke-width: 2.5; stroke-linejoin: miter; stroke-linecap: square"/>
   </g>
   <g id="patch_12">
    <path d="M 560.253318 27.789 
L 966.0715 27.789 
" style="fill: none; stroke: #000000; stroke-width: 2.5; stroke-linejoin: miter; stroke-linecap: square"/>
   </g>
   <g id="text_33">
    <!-- Approach CDT_DI_FI_LIVE_MONTH_108 -->
    <g transform="translate(576.725909 21.789) scale(0.192 -0.192)">
     <use xlink:href="#DejaVuSans-41"/>
     <use xlink:href="#DejaVuSans-70" x="68.408203"/>
     <use xlink:href="#DejaVuSans-70" x="131.884766"/>
     <use xlink:href="#DejaVuSans-72" x="195.361328"/>
     <use xlink:href="#DejaVuSans-6f" x="234.224609"/>
     <use xlink:href="#DejaVuSans-61" x="295.40625"/>
     <use xlink:href="#DejaVuSans-63" x="356.685547"/>
     <use xlink:href="#DejaVuSans-68" x="411.666016"/>
     <use xlink:href="#DejaVuSans-20" x="475.044922"/>
     <use xlink:href="#DejaVuSans-43" x="506.832031"/>
     <use xlink:href="#DejaVuSans-44" x="576.65625"/>
     <use xlink:href="#DejaVuSans-54" x="653.658203"/>
     <use xlink:href="#DejaVuSans-5f" x="714.742188"/>
     <use xlink:href="#DejaVuSans-44" x="764.742188"/>
     <use xlink:href="#DejaVuSans-49" x="841.744141"/>
     <use xlink:href="#DejaVuSans-5f" x="871.236328"/>
     <use xlink:href="#DejaVuSans-46" x="921.236328"/>
     <use xlink:href="#DejaVuSans-49" x="978.755859"/>
     <use xlink:href="#DejaVuSans-5f" x="1008.248047"/>
     <use xlink:href="#DejaVuSans-4c" x="1058.248047"/>
     <use xlink:href="#DejaVuSans-49" x="1113.960938"/>
     <use xlink:href="#DejaVuSans-56" x="1143.453125"/>
     <use xlink:href="#DejaVuSans-45" x="1211.861328"/>
     <use xlink:href="#DejaVuSans-5f" x="1275.044922"/>
     <use xlink:href="#DejaVuSans-4d" x="1325.044922"/>
     <use xlink:href="#DejaVuSans-4f" x="1411.324219"/>
     <use xlink:href="#DejaVuSans-4e" x="1490.035156"/>
     <use xlink:href="#DejaVuSans-54" x="1564.839844"/>
     <use xlink:href="#DejaVuSans-48" x="1625.923828"/>
     <use xlink:href="#DejaVuSans-5f" x="1701.119141"/>
     <use xlink:href="#DejaVuSans-31" x="1751.119141"/>
     <use xlink:href="#DejaVuSans-30" x="1814.742188"/>
     <use xlink:href="#DejaVuSans-38" x="1878.365234"/>
    </g>
   </g>
   <g id="legend_2">
    <g id="patch_13">
     <path d="M 572.573318 119.3695 
L 718.001568 119.3695 
Q 721.521568 119.3695 721.521568 115.8495 
L 721.521568 40.109 
Q 721.521568 36.589 718.001568 36.589 
L 572.573318 36.589 
Q 569.053318 36.589 569.053318 40.109 
L 569.053318 115.8495 
Q 569.053318 119.3695 572.573318 119.3695 
z
" style="fill: #ffffff; opacity: 0.8; stroke: #cccccc; stroke-width: 2; stroke-linejoin: miter"/>
    </g>
    <g id="line2d_36">
     <path d="M 576.093318 50.84225 
L 593.693318 50.84225 
L 611.293318 50.84225 
" style="fill: none; stroke: #ffa500; stroke-width: 3; stroke-linecap: square"/>
    </g>
    <g id="text_34">
     <!-- LR: 0.51 -->
     <g transform="translate(625.373318 57.00225) scale(0.176 -0.176)">
      <use xlink:href="#DejaVuSans-4c"/>
      <use xlink:href="#DejaVuSans-52" x="55.712891"/>
      <use xlink:href="#DejaVuSans-3a" x="122.070312"/>
      <use xlink:href="#DejaVuSans-20" x="155.761719"/>
      <use xlink:href="#DejaVuSans-30" x="187.548828"/>
      <use xlink:href="#DejaVuSans-2e" x="251.171875"/>
      <use xlink:href="#DejaVuSans-35" x="282.958984"/>
      <use xlink:href="#DejaVuSans-31" x="346.582031"/>
     </g>
    </g>
    <g id="line2d_37">
     <path d="M 576.093318 76.67575 
L 593.693318 76.67575 
L 611.293318 76.67575 
" style="fill: none; stroke: #0000ff; stroke-width: 3; stroke-linecap: square"/>
    </g>
    <g id="text_35">
     <!-- RF: 0.45 -->
     <g transform="translate(625.373318 82.83575) scale(0.176 -0.176)">
      <use xlink:href="#DejaVuSans-52"/>
      <use xlink:href="#DejaVuSans-46" x="69.482422"/>
      <use xlink:href="#DejaVuSans-3a" x="119.251953"/>
      <use xlink:href="#DejaVuSans-20" x="152.943359"/>
      <use xlink:href="#DejaVuSans-30" x="184.730469"/>
      <use xlink:href="#DejaVuSans-2e" x="248.353516"/>
      <use xlink:href="#DejaVuSans-34" x="280.140625"/>
      <use xlink:href="#DejaVuSans-35" x="343.763672"/>
     </g>
    </g>
    <g id="line2d_38">
     <path d="M 576.093318 102.50925 
L 593.693318 102.50925 
L 611.293318 102.50925 
" style="fill: none; stroke: #008000; stroke-width: 3; stroke-linecap: square"/>
    </g>
    <g id="text_36">
     <!-- SVM: 0.48 -->
     <g transform="translate(625.373318 108.66925) scale(0.176 -0.176)">
      <use xlink:href="#DejaVuSans-53"/>
      <use xlink:href="#DejaVuSans-56" x="63.476562"/>
      <use xlink:href="#DejaVuSans-4d" x="131.884766"/>
      <use xlink:href="#DejaVuSans-3a" x="218.164062"/>
      <use xlink:href="#DejaVuSans-20" x="251.855469"/>
      <use xlink:href="#DejaVuSans-30" x="283.642578"/>
      <use xlink:href="#DejaVuSans-2e" x="347.265625"/>
      <use xlink:href="#DejaVuSans-34" x="379.052734"/>
      <use xlink:href="#DejaVuSans-38" x="442.675781"/>
     </g>
    </g>
   </g>
  </g>
 </g>
 <defs>
  <clipPath id="pb45648f06b">
   <rect x="73.2715" y="27.789" width="405.818182" height="443.52"/>
  </clipPath>
  <clipPath id="p29a6f77200">
   <rect x="560.253318" y="27.789" width="405.818182" height="443.52"/>
  </clipPath>
 </defs>
</svg>
