<?xml version="1.0" encoding="utf-8" standalone="no"?>
<!DOCTYPE svg PUBLIC "-//W3C//DTD SVG 1.1//EN"
  "http://www.w3.org/Graphics/SVG/1.1/DTD/svg11.dtd">
<svg xmlns:xlink="http://www.w3.org/1999/xlink" width="973.2715pt" height="533.6245pt" viewBox="0 0 973.2715 533.6245" xmlns="http://www.w3.org/2000/svg" version="1.1">
 <metadata>
  <rdf:RDF xmlns:dc="http://purl.org/dc/elements/1.1/" xmlns:cc="http://creativecommons.org/ns#" xmlns:rdf="http://www.w3.org/1999/02/22-rdf-syntax-ns#">
   <cc:Work>
    <dc:type rdf:resource="http://purl.org/dc/dcmitype/StillImage"/>
    <dc:date>2023-05-11T17:16:11.606529</dc:date>
    <dc:format>image/svg+xml</dc:format>
    <dc:creator>
     <cc:Agent>
      <dc:title>Matplotlib v3.6.2, https://matplotlib.org/</dc:title>
     </cc:Agent>
    </dc:creator>
   </cc:Work>
  </rdf:RDF>
 </metadata>
 <defs>
  <style type="text/css">*{stroke-linejoin: round; stroke-linecap: butt}</style>
 </defs>
 <g id="figure_1">
  <g id="patch_1">
   <path d="M 0 533.6245 
L 973.2715 533.6245 
L 973.2715 0 
L 0 0 
z
" style="fill: #ffffff"/>
  </g>
  <g id="axes_1">
   <g id="patch_2">
    <path d="M 73.2715 471.309 
L 479.089682 471.309 
L 479.089682 27.789 
L 73.2715 27.789 
z
" style="fill: #ffffff"/>
   </g>
   <g id="PolyCollection_1">
    <defs>
     <path id="mc78f119e6a" d="M 91.717781 -82.4755 
L 91.717781 -82.4755 
L 95.444302 -82.4755 
L 99.170824 -82.4755 
L 102.897345 -82.4755 
L 106.623867 -82.4755 
L 110.350388 -82.4755 
L 114.076909 -82.4755 
L 117.803431 -82.4755 
L 121.529952 -82.4755 
L 125.256474 -82.4755 
L 128.982995 -82.4755 
L 132.709517 -82.4755 
L 136.436038 -82.4755 
L 140.162559 -82.4755 
L 143.889081 -82.4755 
L 147.615602 -82.4755 
L 151.342124 -82.4755 
L 155.068645 -82.4755 
L 158.795166 -82.4755 
L 162.521688 -82.4755 
L 166.248209 -82.4755 
L 169.974731 -82.4755 
L 173.701252 -82.4755 
L 177.427773 -82.4755 
L 181.154295 -82.4755 
L 184.880816 -82.4755 
L 188.607338 -82.4755 
L 192.333859 -82.4755 
L 196.060381 -82.4755 
L 199.786902 -82.4755 
L 203.513423 -82.4755 
L 207.239945 -82.4755 
L 210.966466 -82.4755 
L 214.692988 -324.3955 
L 218.419509 -324.3955 
L 222.14603 -324.3955 
L 225.872552 -324.3955 
L 229.599073 -324.3955 
L 233.325595 -324.3955 
L 237.052116 -324.3955 
L 240.778637 -324.3955 
L 244.505159 -324.3955 
L 248.23168 -324.3955 
L 251.958202 -324.3955 
L 255.684723 -324.3955 
L 259.411245 -324.3955 
L 263.137766 -324.3955 
L 266.864287 -324.3955 
L 270.590809 -324.3955 
L 274.31733 -324.3955 
L 278.043852 -384.8755 
L 281.770373 -384.8755 
L 285.496894 -384.8755 
L 289.223416 -384.8755 
L 292.949937 -384.8755 
L 296.676459 -384.8755 
L 300.40298 -384.8755 
L 304.129502 -384.8755 
L 307.856023 -384.8755 
L 311.582544 -384.8755 
L 315.309066 -384.8755 
L 319.035587 -384.8755 
L 322.762109 -384.8755 
L 326.48863 -384.8755 
L 330.215151 -384.8755 
L 333.941673 -384.8755 
L 337.668194 -384.8755 
L 341.394716 -384.8755 
L 345.121237 -384.8755 
L 348.847758 -384.8755 
L 352.57428 -384.8755 
L 356.300801 -384.8755 
L 360.027323 -384.8755 
L 363.753844 -384.8755 
L 367.480366 -384.8755 
L 371.206887 -384.8755 
L 374.933408 -384.8755 
L 378.65993 -384.8755 
L 382.386451 -384.8755 
L 386.112973 -384.8755 
L 389.839494 -384.8755 
L 393.566015 -384.8755 
L 397.292537 -384.8755 
L 401.019058 -384.8755 
L 404.74558 -384.8755 
L 408.472101 -384.8755 
L 412.198622 -384.8755 
L 415.925144 -384.8755 
L 419.651665 -384.8755 
L 423.378187 -384.8755 
L 427.104708 -384.8755 
L 430.83123 -384.8755 
L 434.557751 -384.8755 
L 438.284272 -384.8755 
L 442.010794 -384.8755 
L 445.737315 -384.8755 
L 449.463837 -384.8755 
L 453.190358 -384.8755 
L 456.916879 -384.8755 
L 460.643401 -485.6755 
L 460.643401 -485.6755 
L 460.643401 -485.6755 
L 456.916879 -485.6755 
L 453.190358 -485.6755 
L 449.463837 -485.6755 
L 445.737315 -485.6755 
L 442.010794 -485.6755 
L 438.284272 -485.6755 
L 434.557751 -485.6755 
L 430.83123 -485.6755 
L 427.104708 -485.6755 
L 423.378187 -485.6755 
L 419.651665 -485.6755 
L 415.925144 -485.6755 
L 412.198622 -485.6755 
L 408.472101 -485.6755 
L 404.74558 -485.6755 
L 401.019058 -485.6755 
L 397.292537 -485.6755 
L 393.566015 -485.6755 
L 389.839494 -485.6755 
L 386.112973 -485.6755 
L 382.386451 -485.6755 
L 378.65993 -485.6755 
L 374.933408 -485.6755 
L 371.206887 -485.6755 
L 367.480366 -485.6755 
L 363.753844 -485.6755 
L 360.027323 -485.6755 
L 356.300801 -485.6755 
L 352.57428 -485.6755 
L 348.847758 -485.6755 
L 345.121237 -485.6755 
L 341.394716 -485.6755 
L 337.668194 -485.6755 
L 333.941673 -485.6755 
L 330.215151 -485.6755 
L 326.48863 -485.6755 
L 322.762109 -485.6755 
L 319.035587 -485.6755 
L 315.309066 -485.6755 
L 311.582544 -485.6755 
L 307.856023 -485.6755 
L 304.129502 -485.6755 
L 300.40298 -485.6755 
L 296.676459 -485.6755 
L 292.949937 -485.6755 
L 289.223416 -485.6755 
L 285.496894 -485.6755 
L 281.770373 -485.6755 
L 278.043852 -485.6755 
L 274.31733 -485.6755 
L 270.590809 -485.6755 
L 266.864287 -485.6755 
L 263.137766 -485.6755 
L 259.411245 -485.6755 
L 255.684723 -485.6755 
L 251.958202 -485.6755 
L 248.23168 -485.6755 
L 244.505159 -485.6755 
L 240.778637 -485.6755 
L 237.052116 -485.6755 
L 233.325595 -485.6755 
L 229.599073 -485.6755 
L 225.872552 -485.6755 
L 222.14603 -485.6755 
L 218.419509 -485.6755 
L 214.692988 -485.6755 
L 210.966466 -485.6755 
L 207.239945 -485.6755 
L 203.513423 -485.6755 
L 199.786902 -485.6755 
L 196.060381 -485.6755 
L 192.333859 -485.6755 
L 188.607338 -485.6755 
L 184.880816 -485.6755 
L 181.154295 -485.6755 
L 177.427773 -485.6755 
L 173.701252 -485.6755 
L 169.974731 -485.6755 
L 166.248209 -485.6755 
L 162.521688 -485.6755 
L 158.795166 -485.6755 
L 155.068645 -485.6755 
L 151.342124 -485.6755 
L 147.615602 -485.6755 
L 143.889081 -485.6755 
L 140.162559 -485.6755 
L 136.436038 -485.6755 
L 132.709517 -485.6755 
L 128.982995 -485.6755 
L 125.256474 -485.6755 
L 121.529952 -485.6755 
L 117.803431 -485.6755 
L 114.076909 -485.6755 
L 110.350388 -485.6755 
L 106.623867 -485.6755 
L 102.897345 -485.6755 
L 99.170824 -485.6755 
L 95.444302 -485.6755 
L 91.717781 -82.4755 
z
" style="stroke: #ffa500; stroke-opacity: 0.2; stroke-width: 2"/>
    </defs>
    <g clip-path="url(#p9493b53bea)">
     <use xlink:href="#mc78f119e6a" x="0" y="533.6245" style="fill: #ffa500; fill-opacity: 0.2; stroke: #ffa500; stroke-opacity: 0.2; stroke-width: 2"/>
    </g>
   </g>
   <g id="PolyCollection_2">
    <defs>
     <path id="m6b5846f2d8" d="M 91.717781 -82.4755 
L 91.717781 -82.4755 
L 95.444302 -82.4755 
L 99.170824 -82.4755 
L 102.897345 -82.4755 
L 106.623867 -82.4755 
L 110.350388 -82.4755 
L 114.076909 -82.4755 
L 117.803431 -82.4755 
L 121.529952 -82.4755 
L 125.256474 -82.4755 
L 128.982995 -82.4755 
L 132.709517 -82.4755 
L 136.436038 -82.4755 
L 140.162559 -82.4755 
L 143.889081 -82.4755 
L 147.615602 -82.4755 
L 151.342124 -82.4755 
L 155.068645 -82.4755 
L 158.795166 -82.4755 
L 162.521688 -82.4755 
L 166.248209 -82.4755 
L 169.974731 -82.4755 
L 173.701252 -82.4755 
L 177.427773 -82.4755 
L 181.154295 -82.4755 
L 184.880816 -82.4755 
L 188.607338 -82.4755 
L 192.333859 -82.4755 
L 196.060381 -82.4755 
L 199.786902 -82.4755 
L 203.513423 -82.4755 
L 207.239945 -82.4755 
L 210.966466 -82.4755 
L 214.692988 -82.4755 
L 218.419509 -82.4755 
L 222.14603 -82.4755 
L 225.872552 -82.4755 
L 229.599073 -82.4755 
L 233.325595 -82.4755 
L 237.052116 -82.4755 
L 240.778637 -82.4755 
L 244.505159 -82.4755 
L 248.23168 -82.4755 
L 251.958202 -82.4755 
L 255.684723 -82.4755 
L 259.411245 -82.4755 
L 263.137766 -82.4755 
L 266.864287 -82.4755 
L 270.590809 -82.4755 
L 274.31733 -82.4755 
L 278.043852 -82.4755 
L 281.770373 -82.4755 
L 285.496894 -82.4755 
L 289.223416 -82.4755 
L 292.949937 -82.4755 
L 296.676459 -82.4755 
L 300.40298 -82.4755 
L 304.129502 -82.4755 
L 307.856023 -82.4755 
L 311.582544 -82.4755 
L 315.309066 -82.4755 
L 319.035587 -82.4755 
L 322.762109 -82.4755 
L 326.48863 -82.4755 
L 330.215151 -82.4755 
L 333.941673 -82.4755 
L 337.668194 -183.2755 
L 341.394716 -183.2755 
L 345.121237 -183.2755 
L 348.847758 -183.2755 
L 352.57428 -183.2755 
L 356.300801 -183.2755 
L 360.027323 -183.2755 
L 363.753844 -183.2755 
L 367.480366 -183.2755 
L 371.206887 -183.2755 
L 374.933408 -183.2755 
L 378.65993 -183.2755 
L 382.386451 -183.2755 
L 386.112973 -183.2755 
L 389.839494 -183.2755 
L 393.566015 -183.2755 
L 397.292537 -183.2755 
L 401.019058 -183.2755 
L 404.74558 -183.2755 
L 408.472101 -183.2755 
L 412.198622 -183.2755 
L 415.925144 -183.2755 
L 419.651665 -183.2755 
L 423.378187 -183.2755 
L 427.104708 -183.2755 
L 430.83123 -183.2755 
L 434.557751 -183.2755 
L 438.284272 -183.2755 
L 442.010794 -183.2755 
L 445.737315 -183.2755 
L 449.463837 -183.2755 
L 453.190358 -183.2755 
L 456.916879 -183.2755 
L 460.643401 -485.6755 
L 460.643401 -485.6755 
L 460.643401 -485.6755 
L 456.916879 -485.6755 
L 453.190358 -485.6755 
L 449.463837 -485.6755 
L 445.737315 -485.6755 
L 442.010794 -485.6755 
L 438.284272 -485.6755 
L 434.557751 -485.6755 
L 430.83123 -485.6755 
L 427.104708 -485.6755 
L 423.378187 -485.6755 
L 419.651665 -485.6755 
L 415.925144 -485.6755 
L 412.198622 -485.6755 
L 408.472101 -485.6755 
L 404.74558 -485.6755 
L 401.019058 -485.6755 
L 397.292537 -485.6755 
L 393.566015 -485.6755 
L 389.839494 -485.6755 
L 386.112973 -485.6755 
L 382.386451 -485.6755 
L 378.65993 -485.6755 
L 374.933408 -485.6755 
L 371.206887 -485.6755 
L 367.480366 -485.6755 
L 363.753844 -485.6755 
L 360.027323 -485.6755 
L 356.300801 -485.6755 
L 352.57428 -485.6755 
L 348.847758 -485.6755 
L 345.121237 -485.6755 
L 341.394716 -485.6755 
L 337.668194 -485.6755 
L 333.941673 -485.6755 
L 330.215151 -485.6755 
L 326.48863 -485.6755 
L 322.762109 -485.6755 
L 319.035587 -485.6755 
L 315.309066 -485.6755 
L 311.582544 -485.6755 
L 307.856023 -485.6755 
L 304.129502 -485.6755 
L 300.40298 -485.6755 
L 296.676459 -485.6755 
L 292.949937 -485.6755 
L 289.223416 -485.6755 
L 285.496894 -485.6755 
L 281.770373 -485.6755 
L 278.043852 -485.6755 
L 274.31733 -485.6755 
L 270.590809 -485.6755 
L 266.864287 -485.6755 
L 263.137766 -485.6755 
L 259.411245 -485.6755 
L 255.684723 -485.6755 
L 251.958202 -485.6755 
L 248.23168 -485.6755 
L 244.505159 -485.6755 
L 240.778637 -485.6755 
L 237.052116 -485.6755 
L 233.325595 -485.6755 
L 229.599073 -485.6755 
L 225.872552 -485.6755 
L 222.14603 -485.6755 
L 218.419509 -485.6755 
L 214.692988 -485.6755 
L 210.966466 -485.6755 
L 207.239945 -485.6755 
L 203.513423 -485.6755 
L 199.786902 -485.6755 
L 196.060381 -485.6755 
L 192.333859 -485.6755 
L 188.607338 -485.6755 
L 184.880816 -485.6755 
L 181.154295 -485.6755 
L 177.427773 -485.6755 
L 173.701252 -485.6755 
L 169.974731 -485.6755 
L 166.248209 -485.6755 
L 162.521688 -485.6755 
L 158.795166 -485.6755 
L 155.068645 -485.6755 
L 151.342124 -485.6755 
L 147.615602 -485.6755 
L 143.889081 -485.6755 
L 140.162559 -485.6755 
L 136.436038 -485.6755 
L 132.709517 -485.6755 
L 128.982995 -485.6755 
L 125.256474 -485.6755 
L 121.529952 -485.6755 
L 117.803431 -485.6755 
L 114.076909 -485.6755 
L 110.350388 -485.6755 
L 106.623867 -485.6755 
L 102.897345 -485.6755 
L 99.170824 -485.6755 
L 95.444302 -485.6755 
L 91.717781 -82.4755 
z
" style="stroke: #0000ff; stroke-opacity: 0.2; stroke-width: 2"/>
    </defs>
    <g clip-path="url(#p9493b53bea)">
     <use xlink:href="#m6b5846f2d8" x="0" y="533.6245" style="fill: #0000ff; fill-opacity: 0.2; stroke: #0000ff; stroke-opacity: 0.2; stroke-width: 2"/>
    </g>
   </g>
   <g id="PolyCollection_3">
    <defs>
     <path id="med057b8174" d="M 91.717781 -82.4755 
L 91.717781 -82.4755 
L 95.444302 -82.4755 
L 99.170824 -82.4755 
L 102.897345 -82.4755 
L 106.623867 -82.4755 
L 110.350388 -82.4755 
L 114.076909 -82.4755 
L 117.803431 -82.4755 
L 121.529952 -82.4755 
L 125.256474 -82.4755 
L 128.982995 -82.4755 
L 132.709517 -82.4755 
L 136.436038 -82.4755 
L 140.162559 -82.4755 
L 143.889081 -82.4755 
L 147.615602 -82.4755 
L 151.342124 -82.4755 
L 155.068645 -82.4755 
L 158.795166 -82.4755 
L 162.521688 -82.4755 
L 166.248209 -82.4755 
L 169.974731 -82.4755 
L 173.701252 -82.4755 
L 177.427773 -82.4755 
L 181.154295 -82.4755 
L 184.880816 -82.4755 
L 188.607338 -82.4755 
L 192.333859 -82.4755 
L 196.060381 -82.4755 
L 199.786902 -82.4755 
L 203.513423 -82.4755 
L 207.239945 -82.4755 
L 210.966466 -82.4755 
L 214.692988 -82.4755 
L 218.419509 -82.4755 
L 222.14603 -82.4755 
L 225.872552 -82.4755 
L 229.599073 -82.4755 
L 233.325595 -82.4755 
L 237.052116 -82.4755 
L 240.778637 -82.4755 
L 244.505159 -82.4755 
L 248.23168 -82.4755 
L 251.958202 -82.4755 
L 255.684723 -82.4755 
L 259.411245 -82.4755 
L 263.137766 -82.4755 
L 266.864287 -82.4755 
L 270.590809 -82.4755 
L 274.31733 -82.4755 
L 278.043852 -82.4755 
L 281.770373 -82.4755 
L 285.496894 -82.4755 
L 289.223416 -82.4755 
L 292.949937 -82.4755 
L 296.676459 -82.4755 
L 300.40298 -82.4755 
L 304.129502 -82.4755 
L 307.856023 -82.4755 
L 311.582544 -82.4755 
L 315.309066 -82.4755 
L 319.035587 -82.4755 
L 322.762109 -82.4755 
L 326.48863 -82.4755 
L 330.215151 -82.4755 
L 333.941673 -82.4755 
L 337.668194 -183.2755 
L 341.394716 -183.2755 
L 345.121237 -183.2755 
L 348.847758 -183.2755 
L 352.57428 -183.2755 
L 356.300801 -183.2755 
L 360.027323 -183.2755 
L 363.753844 -183.2755 
L 367.480366 -183.2755 
L 371.206887 -183.2755 
L 374.933408 -183.2755 
L 378.65993 -183.2755 
L 382.386451 -183.2755 
L 386.112973 -183.2755 
L 389.839494 -183.2755 
L 393.566015 -183.2755 
L 397.292537 -183.2755 
L 401.019058 -183.2755 
L 404.74558 -183.2755 
L 408.472101 -183.2755 
L 412.198622 -183.2755 
L 415.925144 -183.2755 
L 419.651665 -183.2755 
L 423.378187 -183.2755 
L 427.104708 -183.2755 
L 430.83123 -183.2755 
L 434.557751 -183.2755 
L 438.284272 -183.2755 
L 442.010794 -183.2755 
L 445.737315 -183.2755 
L 449.463837 -183.2755 
L 453.190358 -183.2755 
L 456.916879 -183.2755 
L 460.643401 -485.6755 
L 460.643401 -485.6755 
L 460.643401 -485.6755 
L 456.916879 -485.6755 
L 453.190358 -485.6755 
L 449.463837 -485.6755 
L 445.737315 -485.6755 
L 442.010794 -485.6755 
L 438.284272 -485.6755 
L 434.557751 -485.6755 
L 430.83123 -485.6755 
L 427.104708 -485.6755 
L 423.378187 -485.6755 
L 419.651665 -485.6755 
L 415.925144 -485.6755 
L 412.198622 -485.6755 
L 408.472101 -485.6755 
L 404.74558 -485.6755 
L 401.019058 -485.6755 
L 397.292537 -485.6755 
L 393.566015 -485.6755 
L 389.839494 -485.6755 
L 386.112973 -485.6755 
L 382.386451 -485.6755 
L 378.65993 -485.6755 
L 374.933408 -485.6755 
L 371.206887 -485.6755 
L 367.480366 -485.6755 
L 363.753844 -485.6755 
L 360.027323 -485.6755 
L 356.300801 -485.6755 
L 352.57428 -485.6755 
L 348.847758 -485.6755 
L 345.121237 -485.6755 
L 341.394716 -485.6755 
L 337.668194 -485.6755 
L 333.941673 -485.6755 
L 330.215151 -485.6755 
L 326.48863 -485.6755 
L 322.762109 -485.6755 
L 319.035587 -485.6755 
L 315.309066 -485.6755 
L 311.582544 -485.6755 
L 307.856023 -485.6755 
L 304.129502 -485.6755 
L 300.40298 -485.6755 
L 296.676459 -485.6755 
L 292.949937 -485.6755 
L 289.223416 -485.6755 
L 285.496894 -485.6755 
L 281.770373 -485.6755 
L 278.043852 -485.6755 
L 274.31733 -485.6755 
L 270.590809 -485.6755 
L 266.864287 -485.6755 
L 263.137766 -485.6755 
L 259.411245 -485.6755 
L 255.684723 -485.6755 
L 251.958202 -485.6755 
L 248.23168 -485.6755 
L 244.505159 -485.6755 
L 240.778637 -485.6755 
L 237.052116 -485.6755 
L 233.325595 -485.6755 
L 229.599073 -485.6755 
L 225.872552 -485.6755 
L 222.14603 -485.6755 
L 218.419509 -485.6755 
L 214.692988 -485.6755 
L 210.966466 -384.8755 
L 207.239945 -384.8755 
L 203.513423 -384.8755 
L 199.786902 -384.8755 
L 196.060381 -384.8755 
L 192.333859 -384.8755 
L 188.607338 -384.8755 
L 184.880816 -384.8755 
L 181.154295 -384.8755 
L 177.427773 -384.8755 
L 173.701252 -384.8755 
L 169.974731 -384.8755 
L 166.248209 -384.8755 
L 162.521688 -384.8755 
L 158.795166 -384.8755 
L 155.068645 -384.8755 
L 151.342124 -384.8755 
L 147.615602 -384.8755 
L 143.889081 -384.8755 
L 140.162559 -384.8755 
L 136.436038 -384.8755 
L 132.709517 -384.8755 
L 128.982995 -384.8755 
L 125.256474 -384.8755 
L 121.529952 -384.8755 
L 117.803431 -384.8755 
L 114.076909 -384.8755 
L 110.350388 -384.8755 
L 106.623867 -384.8755 
L 102.897345 -384.8755 
L 99.170824 -384.8755 
L 95.444302 -384.8755 
L 91.717781 -82.4755 
z
" style="stroke: #008000; stroke-opacity: 0.2; stroke-width: 2"/>
    </defs>
    <g clip-path="url(#p9493b53bea)">
     <use xlink:href="#med057b8174" x="0" y="533.6245" style="fill: #008000; fill-opacity: 0.2; stroke: #008000; stroke-opacity: 0.2; stroke-width: 2"/>
    </g>
   </g>
   <g id="matplotlib.axis_1">
    <g id="xtick_1">
     <g id="line2d_1">
      <defs>
       <path id="md10b053230" d="M 0 0 
L 0 12 
" style="stroke: #000000; stroke-width: 2.5"/>
      </defs>
      <g>
       <use xlink:href="#md10b053230" x="91.717781" y="471.309" style="stroke: #000000; stroke-width: 2.5"/>
      </g>
     </g>
     <g id="text_1">
      <!-- 0.0 -->
      <g transform="translate(77.723031 500.18225) scale(0.176 -0.176)">
       <defs>
        <path id="DejaVuSans-30" d="M 2034 4250 
Q 1547 4250 1301 3770 
Q 1056 3291 1056 2328 
Q 1056 1369 1301 889 
Q 1547 409 2034 409 
Q 2525 409 2770 889 
Q 3016 1369 3016 2328 
Q 3016 3291 2770 3770 
Q 2525 4250 2034 4250 
z
M 2034 4750 
Q 2819 4750 3233 4129 
Q 3647 3509 3647 2328 
Q 3647 1150 3233 529 
Q 2819 -91 2034 -91 
Q 1250 -91 836 529 
Q 422 1150 422 2328 
Q 422 3509 836 4129 
Q 1250 4750 2034 4750 
z
" transform="scale(0.015625)"/>
        <path id="DejaVuSans-2e" d="M 684 794 
L 1344 794 
L 1344 0 
L 684 0 
L 684 794 
z
" transform="scale(0.015625)"/>
       </defs>
       <use xlink:href="#DejaVuSans-30"/>
       <use xlink:href="#DejaVuSans-2e" x="63.623047"/>
       <use xlink:href="#DejaVuSans-30" x="95.410156"/>
      </g>
     </g>
    </g>
    <g id="xtick_2">
     <g id="line2d_2">
      <g>
       <use xlink:href="#md10b053230" x="165.502905" y="471.309" style="stroke: #000000; stroke-width: 2.5"/>
      </g>
     </g>
     <g id="text_2">
      <!-- 0.2 -->
      <g transform="translate(151.508155 500.18225) scale(0.176 -0.176)">
       <defs>
        <path id="DejaVuSans-32" d="M 1228 531 
L 3431 531 
L 3431 0 
L 469 0 
L 469 531 
Q 828 903 1448 1529 
Q 2069 2156 2228 2338 
Q 2531 2678 2651 2914 
Q 2772 3150 2772 3378 
Q 2772 3750 2511 3984 
Q 2250 4219 1831 4219 
Q 1534 4219 1204 4116 
Q 875 4013 500 3803 
L 500 4441 
Q 881 4594 1212 4672 
Q 1544 4750 1819 4750 
Q 2544 4750 2975 4387 
Q 3406 4025 3406 3419 
Q 3406 3131 3298 2873 
Q 3191 2616 2906 2266 
Q 2828 2175 2409 1742 
Q 1991 1309 1228 531 
z
" transform="scale(0.015625)"/>
       </defs>
       <use xlink:href="#DejaVuSans-30"/>
       <use xlink:href="#DejaVuSans-2e" x="63.623047"/>
       <use xlink:href="#DejaVuSans-32" x="95.410156"/>
      </g>
     </g>
    </g>
    <g id="xtick_3">
     <g id="line2d_3">
      <g>
       <use xlink:href="#md10b053230" x="239.288029" y="471.309" style="stroke: #000000; stroke-width: 2.5"/>
      </g>
     </g>
     <g id="text_3">
      <!-- 0.4 -->
      <g transform="translate(225.293279 500.18225) scale(0.176 -0.176)">
       <defs>
        <path id="DejaVuSans-34" d="M 2419 4116 
L 825 1625 
L 2419 1625 
L 2419 4116 
z
M 2253 4666 
L 3047 4666 
L 3047 1625 
L 3713 1625 
L 3713 1100 
L 3047 1100 
L 3047 0 
L 2419 0 
L 2419 1100 
L 313 1100 
L 313 1709 
L 2253 4666 
z
" transform="scale(0.015625)"/>
       </defs>
       <use xlink:href="#DejaVuSans-30"/>
       <use xlink:href="#DejaVuSans-2e" x="63.623047"/>
       <use xlink:href="#DejaVuSans-34" x="95.410156"/>
      </g>
     </g>
    </g>
    <g id="xtick_4">
     <g id="line2d_4">
      <g>
       <use xlink:href="#md10b053230" x="313.073153" y="471.309" style="stroke: #000000; stroke-width: 2.5"/>
      </g>
     </g>
     <g id="text_4">
      <!-- 0.6 -->
      <g transform="translate(299.078403 500.18225) scale(0.176 -0.176)">
       <defs>
        <path id="DejaVuSans-36" d="M 2113 2584 
Q 1688 2584 1439 2293 
Q 1191 2003 1191 1497 
Q 1191 994 1439 701 
Q 1688 409 2113 409 
Q 2538 409 2786 701 
Q 3034 994 3034 1497 
Q 3034 2003 2786 2293 
Q 2538 2584 2113 2584 
z
M 3366 4563 
L 3366 3988 
Q 3128 4100 2886 4159 
Q 2644 4219 2406 4219 
Q 1781 4219 1451 3797 
Q 1122 3375 1075 2522 
Q 1259 2794 1537 2939 
Q 1816 3084 2150 3084 
Q 2853 3084 3261 2657 
Q 3669 2231 3669 1497 
Q 3669 778 3244 343 
Q 2819 -91 2113 -91 
Q 1303 -91 875 529 
Q 447 1150 447 2328 
Q 447 3434 972 4092 
Q 1497 4750 2381 4750 
Q 2619 4750 2861 4703 
Q 3103 4656 3366 4563 
z
" transform="scale(0.015625)"/>
       </defs>
       <use xlink:href="#DejaVuSans-30"/>
       <use xlink:href="#DejaVuSans-2e" x="63.623047"/>
       <use xlink:href="#DejaVuSans-36" x="95.410156"/>
      </g>
     </g>
    </g>
    <g id="xtick_5">
     <g id="line2d_5">
      <g>
       <use xlink:href="#md10b053230" x="386.858277" y="471.309" style="stroke: #000000; stroke-width: 2.5"/>
      </g>
     </g>
     <g id="text_5">
      <!-- 0.8 -->
      <g transform="translate(372.863527 500.18225) scale(0.176 -0.176)">
       <defs>
        <path id="DejaVuSans-38" d="M 2034 2216 
Q 1584 2216 1326 1975 
Q 1069 1734 1069 1313 
Q 1069 891 1326 650 
Q 1584 409 2034 409 
Q 2484 409 2743 651 
Q 3003 894 3003 1313 
Q 3003 1734 2745 1975 
Q 2488 2216 2034 2216 
z
M 1403 2484 
Q 997 2584 770 2862 
Q 544 3141 544 3541 
Q 544 4100 942 4425 
Q 1341 4750 2034 4750 
Q 2731 4750 3128 4425 
Q 3525 4100 3525 3541 
Q 3525 3141 3298 2862 
Q 3072 2584 2669 2484 
Q 3125 2378 3379 2068 
Q 3634 1759 3634 1313 
Q 3634 634 3220 271 
Q 2806 -91 2034 -91 
Q 1263 -91 848 271 
Q 434 634 434 1313 
Q 434 1759 690 2068 
Q 947 2378 1403 2484 
z
M 1172 3481 
Q 1172 3119 1398 2916 
Q 1625 2713 2034 2713 
Q 2441 2713 2670 2916 
Q 2900 3119 2900 3481 
Q 2900 3844 2670 4047 
Q 2441 4250 2034 4250 
Q 1625 4250 1398 4047 
Q 1172 3844 1172 3481 
z
" transform="scale(0.015625)"/>
       </defs>
       <use xlink:href="#DejaVuSans-30"/>
       <use xlink:href="#DejaVuSans-2e" x="63.623047"/>
       <use xlink:href="#DejaVuSans-38" x="95.410156"/>
      </g>
     </g>
    </g>
    <g id="xtick_6">
     <g id="line2d_6">
      <g>
       <use xlink:href="#md10b053230" x="460.643401" y="471.309" style="stroke: #000000; stroke-width: 2.5"/>
      </g>
     </g>
     <g id="text_6">
      <!-- 1.0 -->
      <g transform="translate(446.648651 500.18225) scale(0.176 -0.176)">
       <defs>
        <path id="DejaVuSans-31" d="M 794 531 
L 1825 531 
L 1825 4091 
L 703 3866 
L 703 4441 
L 1819 4666 
L 2450 4666 
L 2450 531 
L 3481 531 
L 3481 0 
L 794 0 
L 794 531 
z
" transform="scale(0.015625)"/>
       </defs>
       <use xlink:href="#DejaVuSans-31"/>
       <use xlink:href="#DejaVuSans-2e" x="63.623047"/>
       <use xlink:href="#DejaVuSans-30" x="95.410156"/>
      </g>
     </g>
    </g>
    <g id="text_7">
     <!-- False Positive Rate -->
     <g transform="translate(186.965091 522.4315) scale(0.192 -0.192)">
      <defs>
       <path id="DejaVuSans-46" d="M 628 4666 
L 3309 4666 
L 3309 4134 
L 1259 4134 
L 1259 2759 
L 3109 2759 
L 3109 2228 
L 1259 2228 
L 1259 0 
L 628 0 
L 628 4666 
z
" transform="scale(0.015625)"/>
       <path id="DejaVuSans-61" d="M 2194 1759 
Q 1497 1759 1228 1600 
Q 959 1441 959 1056 
Q 959 750 1161 570 
Q 1363 391 1709 391 
Q 2188 391 2477 730 
Q 2766 1069 2766 1631 
L 2766 1759 
L 2194 1759 
z
M 3341 1997 
L 3341 0 
L 2766 0 
L 2766 531 
Q 2569 213 2275 61 
Q 1981 -91 1556 -91 
Q 1019 -91 701 211 
Q 384 513 384 1019 
Q 384 1609 779 1909 
Q 1175 2209 1959 2209 
L 2766 2209 
L 2766 2266 
Q 2766 2663 2505 2880 
Q 2244 3097 1772 3097 
Q 1472 3097 1187 3025 
Q 903 2953 641 2809 
L 641 3341 
Q 956 3463 1253 3523 
Q 1550 3584 1831 3584 
Q 2591 3584 2966 3190 
Q 3341 2797 3341 1997 
z
" transform="scale(0.015625)"/>
       <path id="DejaVuSans-6c" d="M 603 4863 
L 1178 4863 
L 1178 0 
L 603 0 
L 603 4863 
z
" transform="scale(0.015625)"/>
       <path id="DejaVuSans-73" d="M 2834 3397 
L 2834 2853 
Q 2591 2978 2328 3040 
Q 2066 3103 1784 3103 
Q 1356 3103 1142 2972 
Q 928 2841 928 2578 
Q 928 2378 1081 2264 
Q 1234 2150 1697 2047 
L 1894 2003 
Q 2506 1872 2764 1633 
Q 3022 1394 3022 966 
Q 3022 478 2636 193 
Q 2250 -91 1575 -91 
Q 1294 -91 989 -36 
Q 684 19 347 128 
L 347 722 
Q 666 556 975 473 
Q 1284 391 1588 391 
Q 1994 391 2212 530 
Q 2431 669 2431 922 
Q 2431 1156 2273 1281 
Q 2116 1406 1581 1522 
L 1381 1569 
Q 847 1681 609 1914 
Q 372 2147 372 2553 
Q 372 3047 722 3315 
Q 1072 3584 1716 3584 
Q 2034 3584 2315 3537 
Q 2597 3491 2834 3397 
z
" transform="scale(0.015625)"/>
       <path id="DejaVuSans-65" d="M 3597 1894 
L 3597 1613 
L 953 1613 
Q 991 1019 1311 708 
Q 1631 397 2203 397 
Q 2534 397 2845 478 
Q 3156 559 3463 722 
L 3463 178 
Q 3153 47 2828 -22 
Q 2503 -91 2169 -91 
Q 1331 -91 842 396 
Q 353 884 353 1716 
Q 353 2575 817 3079 
Q 1281 3584 2069 3584 
Q 2775 3584 3186 3129 
Q 3597 2675 3597 1894 
z
M 3022 2063 
Q 3016 2534 2758 2815 
Q 2500 3097 2075 3097 
Q 1594 3097 1305 2825 
Q 1016 2553 972 2059 
L 3022 2063 
z
" transform="scale(0.015625)"/>
       <path id="DejaVuSans-20" transform="scale(0.015625)"/>
       <path id="DejaVuSans-50" d="M 1259 4147 
L 1259 2394 
L 2053 2394 
Q 2494 2394 2734 2622 
Q 2975 2850 2975 3272 
Q 2975 3691 2734 3919 
Q 2494 4147 2053 4147 
L 1259 4147 
z
M 628 4666 
L 2053 4666 
Q 2838 4666 3239 4311 
Q 3641 3956 3641 3272 
Q 3641 2581 3239 2228 
Q 2838 1875 2053 1875 
L 1259 1875 
L 1259 0 
L 628 0 
L 628 4666 
z
" transform="scale(0.015625)"/>
       <path id="DejaVuSans-6f" d="M 1959 3097 
Q 1497 3097 1228 2736 
Q 959 2375 959 1747 
Q 959 1119 1226 758 
Q 1494 397 1959 397 
Q 2419 397 2687 759 
Q 2956 1122 2956 1747 
Q 2956 2369 2687 2733 
Q 2419 3097 1959 3097 
z
M 1959 3584 
Q 2709 3584 3137 3096 
Q 3566 2609 3566 1747 
Q 3566 888 3137 398 
Q 2709 -91 1959 -91 
Q 1206 -91 779 398 
Q 353 888 353 1747 
Q 353 2609 779 3096 
Q 1206 3584 1959 3584 
z
" transform="scale(0.015625)"/>
       <path id="DejaVuSans-69" d="M 603 3500 
L 1178 3500 
L 1178 0 
L 603 0 
L 603 3500 
z
M 603 4863 
L 1178 4863 
L 1178 4134 
L 603 4134 
L 603 4863 
z
" transform="scale(0.015625)"/>
       <path id="DejaVuSans-74" d="M 1172 4494 
L 1172 3500 
L 2356 3500 
L 2356 3053 
L 1172 3053 
L 1172 1153 
Q 1172 725 1289 603 
Q 1406 481 1766 481 
L 2356 481 
L 2356 0 
L 1766 0 
Q 1100 0 847 248 
Q 594 497 594 1153 
L 594 3053 
L 172 3053 
L 172 3500 
L 594 3500 
L 594 4494 
L 1172 4494 
z
" transform="scale(0.015625)"/>
       <path id="DejaVuSans-76" d="M 191 3500 
L 800 3500 
L 1894 563 
L 2988 3500 
L 3597 3500 
L 2284 0 
L 1503 0 
L 191 3500 
z
" transform="scale(0.015625)"/>
       <path id="DejaVuSans-52" d="M 2841 2188 
Q 3044 2119 3236 1894 
Q 3428 1669 3622 1275 
L 4263 0 
L 3584 0 
L 2988 1197 
Q 2756 1666 2539 1819 
Q 2322 1972 1947 1972 
L 1259 1972 
L 1259 0 
L 628 0 
L 628 4666 
L 2053 4666 
Q 2853 4666 3247 4331 
Q 3641 3997 3641 3322 
Q 3641 2881 3436 2590 
Q 3231 2300 2841 2188 
z
M 1259 4147 
L 1259 2491 
L 2053 2491 
Q 2509 2491 2742 2702 
Q 2975 2913 2975 3322 
Q 2975 3731 2742 3939 
Q 2509 4147 2053 4147 
L 1259 4147 
z
" transform="scale(0.015625)"/>
      </defs>
      <use xlink:href="#DejaVuSans-46"/>
      <use xlink:href="#DejaVuSans-61" x="48.394531"/>
      <use xlink:href="#DejaVuSans-6c" x="109.673828"/>
      <use xlink:href="#DejaVuSans-73" x="137.457031"/>
      <use xlink:href="#DejaVuSans-65" x="189.556641"/>
      <use xlink:href="#DejaVuSans-20" x="251.080078"/>
      <use xlink:href="#DejaVuSans-50" x="282.867188"/>
      <use xlink:href="#DejaVuSans-6f" x="339.544922"/>
      <use xlink:href="#DejaVuSans-73" x="400.726562"/>
      <use xlink:href="#DejaVuSans-69" x="452.826172"/>
      <use xlink:href="#DejaVuSans-74" x="480.609375"/>
      <use xlink:href="#DejaVuSans-69" x="519.818359"/>
      <use xlink:href="#DejaVuSans-76" x="547.601562"/>
      <use xlink:href="#DejaVuSans-65" x="606.78125"/>
      <use xlink:href="#DejaVuSans-20" x="668.304688"/>
      <use xlink:href="#DejaVuSans-52" x="700.091797"/>
      <use xlink:href="#DejaVuSans-61" x="767.324219"/>
      <use xlink:href="#DejaVuSans-74" x="828.603516"/>
      <use xlink:href="#DejaVuSans-65" x="867.8125"/>
     </g>
    </g>
   </g>
   <g id="matplotlib.axis_2">
    <g id="ytick_1">
     <g id="line2d_7">
      <defs>
       <path id="mfc69554664" d="M 0 0 
L -12 0 
" style="stroke: #000000; stroke-width: 2.5"/>
      </defs>
      <g>
       <use xlink:href="#mfc69554664" x="73.2715" y="451.149" style="stroke: #000000; stroke-width: 2.5"/>
      </g>
     </g>
     <g id="text_8">
      <!-- 0.0 -->
      <g transform="translate(29.782 457.835625) scale(0.176 -0.176)">
       <use xlink:href="#DejaVuSans-30"/>
       <use xlink:href="#DejaVuSans-2e" x="63.623047"/>
       <use xlink:href="#DejaVuSans-30" x="95.410156"/>
      </g>
     </g>
    </g>
    <g id="ytick_2">
     <g id="line2d_8">
      <g>
       <use xlink:href="#mfc69554664" x="73.2715" y="370.509" style="stroke: #000000; stroke-width: 2.5"/>
      </g>
     </g>
     <g id="text_9">
      <!-- 0.2 -->
      <g transform="translate(29.782 377.195625) scale(0.176 -0.176)">
       <use xlink:href="#DejaVuSans-30"/>
       <use xlink:href="#DejaVuSans-2e" x="63.623047"/>
       <use xlink:href="#DejaVuSans-32" x="95.410156"/>
      </g>
     </g>
    </g>
    <g id="ytick_3">
     <g id="line2d_9">
      <g>
       <use xlink:href="#mfc69554664" x="73.2715" y="289.869" style="stroke: #000000; stroke-width: 2.5"/>
      </g>
     </g>
     <g id="text_10">
      <!-- 0.4 -->
      <g transform="translate(29.782 296.555625) scale(0.176 -0.176)">
       <use xlink:href="#DejaVuSans-30"/>
       <use xlink:href="#DejaVuSans-2e" x="63.623047"/>
       <use xlink:href="#DejaVuSans-34" x="95.410156"/>
      </g>
     </g>
    </g>
    <g id="ytick_4">
     <g id="line2d_10">
      <g>
       <use xlink:href="#mfc69554664" x="73.2715" y="209.229" style="stroke: #000000; stroke-width: 2.5"/>
      </g>
     </g>
     <g id="text_11">
      <!-- 0.6 -->
      <g transform="translate(29.782 215.915625) scale(0.176 -0.176)">
       <use xlink:href="#DejaVuSans-30"/>
       <use xlink:href="#DejaVuSans-2e" x="63.623047"/>
       <use xlink:href="#DejaVuSans-36" x="95.410156"/>
      </g>
     </g>
    </g>
    <g id="ytick_5">
     <g id="line2d_11">
      <g>
       <use xlink:href="#mfc69554664" x="73.2715" y="128.589" style="stroke: #000000; stroke-width: 2.5"/>
      </g>
     </g>
     <g id="text_12">
      <!-- 0.8 -->
      <g transform="translate(29.782 135.275625) scale(0.176 -0.176)">
       <use xlink:href="#DejaVuSans-30"/>
       <use xlink:href="#DejaVuSans-2e" x="63.623047"/>
       <use xlink:href="#DejaVuSans-38" x="95.410156"/>
      </g>
     </g>
    </g>
    <g id="ytick_6">
     <g id="line2d_12">
      <g>
       <use xlink:href="#mfc69554664" x="73.2715" y="47.949" style="stroke: #000000; stroke-width: 2.5"/>
      </g>
     </g>
     <g id="text_13">
      <!-- 1.0 -->
      <g transform="translate(29.782 54.635625) scale(0.176 -0.176)">
       <use xlink:href="#DejaVuSans-31"/>
       <use xlink:href="#DejaVuSans-2e" x="63.623047"/>
       <use xlink:href="#DejaVuSans-30" x="95.410156"/>
      </g>
     </g>
    </g>
    <g id="text_14">
     <!-- True Positive Rate -->
     <g transform="translate(21.789 335.046) rotate(-90) scale(0.192 -0.192)">
      <defs>
       <path id="DejaVuSans-54" d="M -19 4666 
L 3928 4666 
L 3928 4134 
L 2272 4134 
L 2272 0 
L 1638 0 
L 1638 4134 
L -19 4134 
L -19 4666 
z
" transform="scale(0.015625)"/>
       <path id="DejaVuSans-72" d="M 2631 2963 
Q 2534 3019 2420 3045 
Q 2306 3072 2169 3072 
Q 1681 3072 1420 2755 
Q 1159 2438 1159 1844 
L 1159 0 
L 581 0 
L 581 3500 
L 1159 3500 
L 1159 2956 
Q 1341 3275 1631 3429 
Q 1922 3584 2338 3584 
Q 2397 3584 2469 3576 
Q 2541 3569 2628 3553 
L 2631 2963 
z
" transform="scale(0.015625)"/>
       <path id="DejaVuSans-75" d="M 544 1381 
L 544 3500 
L 1119 3500 
L 1119 1403 
Q 1119 906 1312 657 
Q 1506 409 1894 409 
Q 2359 409 2629 706 
Q 2900 1003 2900 1516 
L 2900 3500 
L 3475 3500 
L 3475 0 
L 2900 0 
L 2900 538 
Q 2691 219 2414 64 
Q 2138 -91 1772 -91 
Q 1169 -91 856 284 
Q 544 659 544 1381 
z
M 1991 3584 
L 1991 3584 
z
" transform="scale(0.015625)"/>
      </defs>
      <use xlink:href="#DejaVuSans-54"/>
      <use xlink:href="#DejaVuSans-72" x="46.333984"/>
      <use xlink:href="#DejaVuSans-75" x="87.447266"/>
      <use xlink:href="#DejaVuSans-65" x="150.826172"/>
      <use xlink:href="#DejaVuSans-20" x="212.349609"/>
      <use xlink:href="#DejaVuSans-50" x="244.136719"/>
      <use xlink:href="#DejaVuSans-6f" x="300.814453"/>
      <use xlink:href="#DejaVuSans-73" x="361.996094"/>
      <use xlink:href="#DejaVuSans-69" x="414.095703"/>
      <use xlink:href="#DejaVuSans-74" x="441.878906"/>
      <use xlink:href="#DejaVuSans-69" x="481.087891"/>
      <use xlink:href="#DejaVuSans-76" x="508.871094"/>
      <use xlink:href="#DejaVuSans-65" x="568.050781"/>
      <use xlink:href="#DejaVuSans-20" x="629.574219"/>
      <use xlink:href="#DejaVuSans-52" x="661.361328"/>
      <use xlink:href="#DejaVuSans-61" x="728.59375"/>
      <use xlink:href="#DejaVuSans-74" x="789.873047"/>
      <use xlink:href="#DejaVuSans-65" x="829.082031"/>
     </g>
    </g>
   </g>
   <g id="line2d_13">
    <path d="M 91.717781 451.149 
L 95.444302 255.597 
L 99.170824 255.597 
L 102.897345 255.597 
L 106.623867 255.597 
L 110.350388 255.597 
L 114.076909 255.597 
L 117.803431 255.597 
L 121.529952 255.597 
L 125.256474 255.597 
L 128.982995 255.597 
L 132.709517 255.597 
L 136.436038 255.597 
L 140.162559 255.597 
L 143.889081 255.597 
L 147.615602 255.597 
L 151.342124 255.597 
L 155.068645 255.597 
L 158.795166 255.597 
L 162.521688 255.597 
L 166.248209 255.597 
L 169.974731 255.597 
L 173.701252 255.597 
L 177.427773 255.597 
L 181.154295 255.597 
L 184.880816 255.597 
L 188.607338 255.597 
L 192.333859 255.597 
L 196.060381 255.597 
L 199.786902 255.597 
L 203.513423 255.597 
L 207.239945 255.597 
L 210.966466 255.597 
L 214.692988 114.477 
L 218.419509 114.477 
L 222.14603 114.477 
L 225.872552 114.477 
L 229.599073 114.477 
L 233.325595 114.477 
L 237.052116 114.477 
L 240.778637 114.477 
L 244.505159 114.477 
L 248.23168 114.477 
L 251.958202 114.477 
L 255.684723 114.477 
L 259.411245 114.477 
L 263.137766 114.477 
L 266.864287 114.477 
L 270.590809 114.477 
L 274.31733 114.477 
L 278.043852 98.349 
L 281.770373 98.349 
L 285.496894 98.349 
L 289.223416 98.349 
L 292.949937 98.349 
L 296.676459 98.349 
L 300.40298 98.349 
L 304.129502 98.349 
L 307.856023 98.349 
L 311.582544 98.349 
L 315.309066 98.349 
L 319.035587 98.349 
L 322.762109 98.349 
L 326.48863 98.349 
L 330.215151 98.349 
L 333.941673 98.349 
L 337.668194 98.349 
L 341.394716 98.349 
L 345.121237 98.349 
L 348.847758 98.349 
L 352.57428 98.349 
L 356.300801 98.349 
L 360.027323 98.349 
L 363.753844 98.349 
L 367.480366 98.349 
L 371.206887 98.349 
L 374.933408 98.349 
L 378.65993 98.349 
L 382.386451 98.349 
L 386.112973 98.349 
L 389.839494 98.349 
L 393.566015 98.349 
L 397.292537 98.349 
L 401.019058 98.349 
L 404.74558 98.349 
L 408.472101 98.349 
L 412.198622 98.349 
L 415.925144 98.349 
L 419.651665 98.349 
L 423.378187 98.349 
L 427.104708 98.349 
L 430.83123 98.349 
L 434.557751 98.349 
L 438.284272 98.349 
L 442.010794 98.349 
L 445.737315 98.349 
L 449.463837 98.349 
L 453.190358 98.349 
L 456.916879 98.349 
L 460.643401 47.949 
" clip-path="url(#p9493b53bea)" style="fill: none; stroke: #ffa500; stroke-width: 3; stroke-linecap: square"/>
   </g>
   <g id="line2d_14">
    <path d="M 91.717781 451.149 
L 95.444302 334.058091 
L 99.170824 333.895182 
L 102.897345 333.732273 
L 106.623867 333.569364 
L 110.350388 333.406455 
L 114.076909 333.243545 
L 117.803431 333.080636 
L 121.529952 332.917727 
L 125.256474 332.754818 
L 128.982995 332.591909 
L 132.709517 332.429 
L 136.436038 332.266091 
L 140.162559 332.103182 
L 143.889081 331.940273 
L 147.615602 331.777364 
L 151.342124 331.614455 
L 155.068645 331.451545 
L 158.795166 331.288636 
L 162.521688 331.125727 
L 166.248209 330.962818 
L 169.974731 330.799909 
L 173.701252 330.637 
L 177.427773 330.474091 
L 181.154295 330.311182 
L 184.880816 330.148273 
L 188.607338 329.985364 
L 192.333859 329.822455 
L 196.060381 329.659545 
L 199.786902 329.496636 
L 203.513423 329.333727 
L 207.239945 329.170818 
L 210.966466 329.007909 
L 214.692988 238.125 
L 218.419509 237.809364 
L 222.14603 237.493727 
L 225.872552 237.178091 
L 229.599073 236.862455 
L 233.325595 236.546818 
L 237.052116 236.231182 
L 240.778637 235.915545 
L 244.505159 235.599909 
L 248.23168 235.284273 
L 251.958202 234.968636 
L 255.684723 234.653 
L 259.411245 234.337364 
L 263.137766 234.021727 
L 266.864287 233.706091 
L 270.590809 233.390455 
L 274.31733 233.074818 
L 278.043852 232.759182 
L 281.770373 232.443545 
L 285.496894 232.127909 
L 289.223416 231.812273 
L 292.949937 231.496636 
L 296.676459 231.181 
L 300.40298 230.865364 
L 304.129502 230.549727 
L 307.856023 230.234091 
L 311.582544 229.918455 
L 315.309066 229.602818 
L 319.035587 229.287182 
L 322.762109 228.971545 
L 326.48863 228.655909 
L 330.215151 228.340273 
L 333.941673 228.024636 
L 337.668194 167.229 
L 341.394716 166.913364 
L 345.121237 166.597727 
L 348.847758 166.282091 
L 352.57428 165.966455 
L 356.300801 165.650818 
L 360.027323 165.335182 
L 363.753844 165.019545 
L 367.480366 164.703909 
L 371.206887 164.388273 
L 374.933408 164.072636 
L 378.65993 163.757 
L 382.386451 163.441364 
L 386.112973 163.125727 
L 389.839494 162.810091 
L 393.566015 162.494455 
L 397.292537 162.178818 
L 401.019058 161.863182 
L 404.74558 161.547545 
L 408.472101 161.231909 
L 412.198622 160.916273 
L 415.925144 160.600636 
L 419.651665 160.285 
L 423.378187 159.969364 
L 427.104708 159.653727 
L 430.83123 159.338091 
L 434.557751 159.022455 
L 438.284272 158.706818 
L 442.010794 158.391182 
L 445.737315 158.075545 
L 449.463837 157.759909 
L 453.190358 157.444273 
L 456.916879 157.128636 
L 460.643401 47.949 
" clip-path="url(#p9493b53bea)" style="fill: none; stroke: #0000ff; stroke-width: 3; stroke-linecap: square"/>
   </g>
   <g id="line2d_15">
    <path d="M 91.717781 451.149 
L 95.444302 293.901 
L 99.170824 293.901 
L 102.897345 293.901 
L 106.623867 293.901 
L 110.350388 293.901 
L 114.076909 293.901 
L 117.803431 293.901 
L 121.529952 293.901 
L 125.256474 293.901 
L 128.982995 293.901 
L 132.709517 293.901 
L 136.436038 293.901 
L 140.162559 293.901 
L 143.889081 293.901 
L 147.615602 293.901 
L 151.342124 293.901 
L 155.068645 293.901 
L 158.795166 293.901 
L 162.521688 293.901 
L 166.248209 293.901 
L 169.974731 293.901 
L 173.701252 293.901 
L 177.427773 293.901 
L 181.154295 293.901 
L 184.880816 293.901 
L 188.607338 293.901 
L 192.333859 293.901 
L 196.060381 293.901 
L 199.786902 293.901 
L 203.513423 293.901 
L 207.239945 293.901 
L 210.966466 293.901 
L 214.692988 203.181 
L 218.419509 203.181 
L 222.14603 203.181 
L 225.872552 203.181 
L 229.599073 203.181 
L 233.325595 203.181 
L 237.052116 203.181 
L 240.778637 203.181 
L 244.505159 203.181 
L 248.23168 203.181 
L 251.958202 203.181 
L 255.684723 203.181 
L 259.411245 203.181 
L 263.137766 203.181 
L 266.864287 203.181 
L 270.590809 203.181 
L 274.31733 203.181 
L 278.043852 187.053 
L 281.770373 187.053 
L 285.496894 187.053 
L 289.223416 187.053 
L 292.949937 187.053 
L 296.676459 187.053 
L 300.40298 187.053 
L 304.129502 187.053 
L 307.856023 187.053 
L 311.582544 187.053 
L 315.309066 187.053 
L 319.035587 187.053 
L 322.762109 187.053 
L 326.48863 187.053 
L 330.215151 187.053 
L 333.941673 187.053 
L 337.668194 126.573 
L 341.394716 126.573 
L 345.121237 126.573 
L 348.847758 126.573 
L 352.57428 126.573 
L 356.300801 126.573 
L 360.027323 126.573 
L 363.753844 126.573 
L 367.480366 126.573 
L 371.206887 126.573 
L 374.933408 126.573 
L 378.65993 126.573 
L 382.386451 126.573 
L 386.112973 126.573 
L 389.839494 126.573 
L 393.566015 126.573 
L 397.292537 126.573 
L 401.019058 126.573 
L 404.74558 126.573 
L 408.472101 126.573 
L 412.198622 126.573 
L 415.925144 126.573 
L 419.651665 126.573 
L 423.378187 126.573 
L 427.104708 126.573 
L 430.83123 126.573 
L 434.557751 126.573 
L 438.284272 126.573 
L 442.010794 126.573 
L 445.737315 126.573 
L 449.463837 126.573 
L 453.190358 126.573 
L 456.916879 126.573 
L 460.643401 47.949 
" clip-path="url(#p9493b53bea)" style="fill: none; stroke: #008000; stroke-width: 3; stroke-linecap: square"/>
   </g>
   <g id="line2d_16">
    <path d="M 91.717781 451.149 
L 460.643401 47.949 
" clip-path="url(#p9493b53bea)" style="fill: none; stroke-dasharray: 11.1,4.8; stroke-dashoffset: 0; stroke: #000000; stroke-opacity: 0.5; stroke-width: 3"/>
   </g>
   <g id="patch_3">
    <path d="M 73.2715 471.309 
L 73.2715 27.789 
" style="fill: none; stroke: #000000; stroke-width: 2.5; stroke-linejoin: miter; stroke-linecap: square"/>
   </g>
   <g id="patch_4">
    <path d="M 479.089682 471.309 
L 479.089682 27.789 
" style="fill: none; stroke: #000000; stroke-width: 2.5; stroke-linejoin: miter; stroke-linecap: square"/>
   </g>
   <g id="patch_5">
    <path d="M 73.2715 471.309 
L 479.089682 471.309 
" style="fill: none; stroke: #000000; stroke-width: 2.5; stroke-linejoin: miter; stroke-linecap: square"/>
   </g>
   <g id="patch_6">
    <path d="M 73.2715 27.789 
L 479.089682 27.789 
" style="fill: none; stroke: #000000; stroke-width: 2.5; stroke-linejoin: miter; stroke-linecap: square"/>
   </g>
   <g id="text_15">
    <!-- Approach CDT_DI_LIVE_MONTH_54 -->
    <g transform="translate(109.005591 21.789) scale(0.192 -0.192)">
     <defs>
      <path id="DejaVuSans-41" d="M 2188 4044 
L 1331 1722 
L 3047 1722 
L 2188 4044 
z
M 1831 4666 
L 2547 4666 
L 4325 0 
L 3669 0 
L 3244 1197 
L 1141 1197 
L 716 0 
L 50 0 
L 1831 4666 
z
" transform="scale(0.015625)"/>
      <path id="DejaVuSans-70" d="M 1159 525 
L 1159 -1331 
L 581 -1331 
L 581 3500 
L 1159 3500 
L 1159 2969 
Q 1341 3281 1617 3432 
Q 1894 3584 2278 3584 
Q 2916 3584 3314 3078 
Q 3713 2572 3713 1747 
Q 3713 922 3314 415 
Q 2916 -91 2278 -91 
Q 1894 -91 1617 61 
Q 1341 213 1159 525 
z
M 3116 1747 
Q 3116 2381 2855 2742 
Q 2594 3103 2138 3103 
Q 1681 3103 1420 2742 
Q 1159 2381 1159 1747 
Q 1159 1113 1420 752 
Q 1681 391 2138 391 
Q 2594 391 2855 752 
Q 3116 1113 3116 1747 
z
" transform="scale(0.015625)"/>
      <path id="DejaVuSans-63" d="M 3122 3366 
L 3122 2828 
Q 2878 2963 2633 3030 
Q 2388 3097 2138 3097 
Q 1578 3097 1268 2742 
Q 959 2388 959 1747 
Q 959 1106 1268 751 
Q 1578 397 2138 397 
Q 2388 397 2633 464 
Q 2878 531 3122 666 
L 3122 134 
Q 2881 22 2623 -34 
Q 2366 -91 2075 -91 
Q 1284 -91 818 406 
Q 353 903 353 1747 
Q 353 2603 823 3093 
Q 1294 3584 2113 3584 
Q 2378 3584 2631 3529 
Q 2884 3475 3122 3366 
z
" transform="scale(0.015625)"/>
      <path id="DejaVuSans-68" d="M 3513 2113 
L 3513 0 
L 2938 0 
L 2938 2094 
Q 2938 2591 2744 2837 
Q 2550 3084 2163 3084 
Q 1697 3084 1428 2787 
Q 1159 2491 1159 1978 
L 1159 0 
L 581 0 
L 581 4863 
L 1159 4863 
L 1159 2956 
Q 1366 3272 1645 3428 
Q 1925 3584 2291 3584 
Q 2894 3584 3203 3211 
Q 3513 2838 3513 2113 
z
" transform="scale(0.015625)"/>
      <path id="DejaVuSans-43" d="M 4122 4306 
L 4122 3641 
Q 3803 3938 3442 4084 
Q 3081 4231 2675 4231 
Q 1875 4231 1450 3742 
Q 1025 3253 1025 2328 
Q 1025 1406 1450 917 
Q 1875 428 2675 428 
Q 3081 428 3442 575 
Q 3803 722 4122 1019 
L 4122 359 
Q 3791 134 3420 21 
Q 3050 -91 2638 -91 
Q 1578 -91 968 557 
Q 359 1206 359 2328 
Q 359 3453 968 4101 
Q 1578 4750 2638 4750 
Q 3056 4750 3426 4639 
Q 3797 4528 4122 4306 
z
" transform="scale(0.015625)"/>
      <path id="DejaVuSans-44" d="M 1259 4147 
L 1259 519 
L 2022 519 
Q 2988 519 3436 956 
Q 3884 1394 3884 2338 
Q 3884 3275 3436 3711 
Q 2988 4147 2022 4147 
L 1259 4147 
z
M 628 4666 
L 1925 4666 
Q 3281 4666 3915 4102 
Q 4550 3538 4550 2338 
Q 4550 1131 3912 565 
Q 3275 0 1925 0 
L 628 0 
L 628 4666 
z
" transform="scale(0.015625)"/>
      <path id="DejaVuSans-5f" d="M 3263 -1063 
L 3263 -1509 
L -63 -1509 
L -63 -1063 
L 3263 -1063 
z
" transform="scale(0.015625)"/>
      <path id="DejaVuSans-49" d="M 628 4666 
L 1259 4666 
L 1259 0 
L 628 0 
L 628 4666 
z
" transform="scale(0.015625)"/>
      <path id="DejaVuSans-4c" d="M 628 4666 
L 1259 4666 
L 1259 531 
L 3531 531 
L 3531 0 
L 628 0 
L 628 4666 
z
" transform="scale(0.015625)"/>
      <path id="DejaVuSans-56" d="M 1831 0 
L 50 4666 
L 709 4666 
L 2188 738 
L 3669 4666 
L 4325 4666 
L 2547 0 
L 1831 0 
z
" transform="scale(0.015625)"/>
      <path id="DejaVuSans-45" d="M 628 4666 
L 3578 4666 
L 3578 4134 
L 1259 4134 
L 1259 2753 
L 3481 2753 
L 3481 2222 
L 1259 2222 
L 1259 531 
L 3634 531 
L 3634 0 
L 628 0 
L 628 4666 
z
" transform="scale(0.015625)"/>
      <path id="DejaVuSans-4d" d="M 628 4666 
L 1569 4666 
L 2759 1491 
L 3956 4666 
L 4897 4666 
L 4897 0 
L 4281 0 
L 4281 4097 
L 3078 897 
L 2444 897 
L 1241 4097 
L 1241 0 
L 628 0 
L 628 4666 
z
" transform="scale(0.015625)"/>
      <path id="DejaVuSans-4f" d="M 2522 4238 
Q 1834 4238 1429 3725 
Q 1025 3213 1025 2328 
Q 1025 1447 1429 934 
Q 1834 422 2522 422 
Q 3209 422 3611 934 
Q 4013 1447 4013 2328 
Q 4013 3213 3611 3725 
Q 3209 4238 2522 4238 
z
M 2522 4750 
Q 3503 4750 4090 4092 
Q 4678 3434 4678 2328 
Q 4678 1225 4090 567 
Q 3503 -91 2522 -91 
Q 1538 -91 948 565 
Q 359 1222 359 2328 
Q 359 3434 948 4092 
Q 1538 4750 2522 4750 
z
" transform="scale(0.015625)"/>
      <path id="DejaVuSans-4e" d="M 628 4666 
L 1478 4666 
L 3547 763 
L 3547 4666 
L 4159 4666 
L 4159 0 
L 3309 0 
L 1241 3903 
L 1241 0 
L 628 0 
L 628 4666 
z
" transform="scale(0.015625)"/>
      <path id="DejaVuSans-48" d="M 628 4666 
L 1259 4666 
L 1259 2753 
L 3553 2753 
L 3553 4666 
L 4184 4666 
L 4184 0 
L 3553 0 
L 3553 2222 
L 1259 2222 
L 1259 0 
L 628 0 
L 628 4666 
z
" transform="scale(0.015625)"/>
      <path id="DejaVuSans-35" d="M 691 4666 
L 3169 4666 
L 3169 4134 
L 1269 4134 
L 1269 2991 
Q 1406 3038 1543 3061 
Q 1681 3084 1819 3084 
Q 2600 3084 3056 2656 
Q 3513 2228 3513 1497 
Q 3513 744 3044 326 
Q 2575 -91 1722 -91 
Q 1428 -91 1123 -41 
Q 819 9 494 109 
L 494 744 
Q 775 591 1075 516 
Q 1375 441 1709 441 
Q 2250 441 2565 725 
Q 2881 1009 2881 1497 
Q 2881 1984 2565 2268 
Q 2250 2553 1709 2553 
Q 1456 2553 1204 2497 
Q 953 2441 691 2322 
L 691 4666 
z
" transform="scale(0.015625)"/>
     </defs>
     <use xlink:href="#DejaVuSans-41"/>
     <use xlink:href="#DejaVuSans-70" x="68.408203"/>
     <use xlink:href="#DejaVuSans-70" x="131.884766"/>
     <use xlink:href="#DejaVuSans-72" x="195.361328"/>
     <use xlink:href="#DejaVuSans-6f" x="234.224609"/>
     <use xlink:href="#DejaVuSans-61" x="295.40625"/>
     <use xlink:href="#DejaVuSans-63" x="356.685547"/>
     <use xlink:href="#DejaVuSans-68" x="411.666016"/>
     <use xlink:href="#DejaVuSans-20" x="475.044922"/>
     <use xlink:href="#DejaVuSans-43" x="506.832031"/>
     <use xlink:href="#DejaVuSans-44" x="576.65625"/>
     <use xlink:href="#DejaVuSans-54" x="653.658203"/>
     <use xlink:href="#DejaVuSans-5f" x="714.742188"/>
     <use xlink:href="#DejaVuSans-44" x="764.742188"/>
     <use xlink:href="#DejaVuSans-49" x="841.744141"/>
     <use xlink:href="#DejaVuSans-5f" x="871.236328"/>
     <use xlink:href="#DejaVuSans-4c" x="921.236328"/>
     <use xlink:href="#DejaVuSans-49" x="976.949219"/>
     <use xlink:href="#DejaVuSans-56" x="1006.441406"/>
     <use xlink:href="#DejaVuSans-45" x="1074.849609"/>
     <use xlink:href="#DejaVuSans-5f" x="1138.033203"/>
     <use xlink:href="#DejaVuSans-4d" x="1188.033203"/>
     <use xlink:href="#DejaVuSans-4f" x="1274.3125"/>
     <use xlink:href="#DejaVuSans-4e" x="1353.023438"/>
     <use xlink:href="#DejaVuSans-54" x="1427.828125"/>
     <use xlink:href="#DejaVuSans-48" x="1488.912109"/>
     <use xlink:href="#DejaVuSans-5f" x="1564.107422"/>
     <use xlink:href="#DejaVuSans-35" x="1614.107422"/>
     <use xlink:href="#DejaVuSans-34" x="1677.730469"/>
    </g>
   </g>
   <g id="legend_1">
    <g id="patch_7">
     <path d="M 321.341432 462.509 
L 466.769682 462.509 
Q 470.289682 462.509 470.289682 458.989 
L 470.289682 383.2485 
Q 470.289682 379.7285 466.769682 379.7285 
L 321.341432 379.7285 
Q 317.821432 379.7285 317.821432 383.2485 
L 317.821432 458.989 
Q 317.821432 462.509 321.341432 462.509 
z
" style="fill: #ffffff; opacity: 0.8; stroke: #cccccc; stroke-width: 2; stroke-linejoin: miter"/>
    </g>
    <g id="line2d_17">
     <path d="M 324.861432 393.98175 
L 342.461432 393.98175 
L 360.061432 393.98175 
" style="fill: none; stroke: #ffa500; stroke-width: 3; stroke-linecap: square"/>
    </g>
    <g id="text_16">
     <!-- LR: 0.74 -->
     <g transform="translate(374.141432 400.14175) scale(0.176 -0.176)">
      <defs>
       <path id="DejaVuSans-3a" d="M 750 794 
L 1409 794 
L 1409 0 
L 750 0 
L 750 794 
z
M 750 3309 
L 1409 3309 
L 1409 2516 
L 750 2516 
L 750 3309 
z
" transform="scale(0.015625)"/>
       <path id="DejaVuSans-37" d="M 525 4666 
L 3525 4666 
L 3525 4397 
L 1831 0 
L 1172 0 
L 2766 4134 
L 525 4134 
L 525 4666 
z
" transform="scale(0.015625)"/>
      </defs>
      <use xlink:href="#DejaVuSans-4c"/>
      <use xlink:href="#DejaVuSans-52" x="55.712891"/>
      <use xlink:href="#DejaVuSans-3a" x="122.070312"/>
      <use xlink:href="#DejaVuSans-20" x="155.761719"/>
      <use xlink:href="#DejaVuSans-30" x="187.548828"/>
      <use xlink:href="#DejaVuSans-2e" x="251.171875"/>
      <use xlink:href="#DejaVuSans-37" x="282.958984"/>
      <use xlink:href="#DejaVuSans-34" x="346.582031"/>
     </g>
    </g>
    <g id="line2d_18">
     <path d="M 324.861432 419.81525 
L 342.461432 419.81525 
L 360.061432 419.81525 
" style="fill: none; stroke: #0000ff; stroke-width: 3; stroke-linecap: square"/>
    </g>
    <g id="text_17">
     <!-- RF: 0.52 -->
     <g transform="translate(374.141432 425.97525) scale(0.176 -0.176)">
      <use xlink:href="#DejaVuSans-52"/>
      <use xlink:href="#DejaVuSans-46" x="69.482422"/>
      <use xlink:href="#DejaVuSans-3a" x="119.251953"/>
      <use xlink:href="#DejaVuSans-20" x="152.943359"/>
      <use xlink:href="#DejaVuSans-30" x="184.730469"/>
      <use xlink:href="#DejaVuSans-2e" x="248.353516"/>
      <use xlink:href="#DejaVuSans-35" x="280.140625"/>
      <use xlink:href="#DejaVuSans-32" x="343.763672"/>
     </g>
    </g>
    <g id="line2d_19">
     <path d="M 324.861432 445.64875 
L 342.461432 445.64875 
L 360.061432 445.64875 
" style="fill: none; stroke: #008000; stroke-width: 3; stroke-linecap: square"/>
    </g>
    <g id="text_18">
     <!-- SVM: 0.61 -->
     <g transform="translate(374.141432 451.80875) scale(0.176 -0.176)">
      <defs>
       <path id="DejaVuSans-53" d="M 3425 4513 
L 3425 3897 
Q 3066 4069 2747 4153 
Q 2428 4238 2131 4238 
Q 1616 4238 1336 4038 
Q 1056 3838 1056 3469 
Q 1056 3159 1242 3001 
Q 1428 2844 1947 2747 
L 2328 2669 
Q 3034 2534 3370 2195 
Q 3706 1856 3706 1288 
Q 3706 609 3251 259 
Q 2797 -91 1919 -91 
Q 1588 -91 1214 -16 
Q 841 59 441 206 
L 441 856 
Q 825 641 1194 531 
Q 1563 422 1919 422 
Q 2459 422 2753 634 
Q 3047 847 3047 1241 
Q 3047 1584 2836 1778 
Q 2625 1972 2144 2069 
L 1759 2144 
Q 1053 2284 737 2584 
Q 422 2884 422 3419 
Q 422 4038 858 4394 
Q 1294 4750 2059 4750 
Q 2388 4750 2728 4690 
Q 3069 4631 3425 4513 
z
" transform="scale(0.015625)"/>
      </defs>
      <use xlink:href="#DejaVuSans-53"/>
      <use xlink:href="#DejaVuSans-56" x="63.476562"/>
      <use xlink:href="#DejaVuSans-4d" x="131.884766"/>
      <use xlink:href="#DejaVuSans-3a" x="218.164062"/>
      <use xlink:href="#DejaVuSans-20" x="251.855469"/>
      <use xlink:href="#DejaVuSans-30" x="283.642578"/>
      <use xlink:href="#DejaVuSans-2e" x="347.265625"/>
      <use xlink:href="#DejaVuSans-36" x="379.052734"/>
      <use xlink:href="#DejaVuSans-31" x="442.675781"/>
     </g>
    </g>
   </g>
  </g>
  <g id="axes_2">
   <g id="patch_8">
    <path d="M 560.253318 471.309 
L 966.0715 471.309 
L 966.0715 27.789 
L 560.253318 27.789 
z
" style="fill: #ffffff"/>
   </g>
   <g id="PolyCollection_4">
    <defs>
     <path id="ma257ee9735" d="M 578.699599 -82.4755 
L 578.699599 -82.4755 
L 582.426121 -183.2755 
L 586.152642 -183.2755 
L 589.879163 -183.2755 
L 593.605685 -183.2755 
L 597.332206 -183.2755 
L 601.058728 -183.2755 
L 604.785249 -183.2755 
L 608.51177 -183.2755 
L 612.238292 -183.2755 
L 615.964813 -183.2755 
L 619.691335 -183.2755 
L 623.417856 -183.2755 
L 627.144378 -183.2755 
L 630.870899 -183.2755 
L 634.59742 -183.2755 
L 638.323942 -183.2755 
L 642.050463 -183.2755 
L 645.776985 -183.2755 
L 649.503506 -183.2755 
L 653.230027 -183.2755 
L 656.956549 -183.2755 
L 660.68307 -183.2755 
L 664.409592 -183.2755 
L 668.136113 -183.2755 
L 671.862634 -183.2755 
L 675.589156 -183.2755 
L 679.315677 -183.2755 
L 683.042199 -183.2755 
L 686.76872 -183.2755 
L 690.495242 -183.2755 
L 694.221763 -183.2755 
L 697.948284 -183.2755 
L 701.674806 -183.2755 
L 705.401327 -183.2755 
L 709.127849 -183.2755 
L 712.85437 -183.2755 
L 716.580891 -183.2755 
L 720.307413 -183.2755 
L 724.033934 -183.2755 
L 727.760456 -183.2755 
L 731.486977 -183.2755 
L 735.213498 -183.2755 
L 738.94002 -183.2755 
L 742.666541 -183.2755 
L 746.393063 -183.2755 
L 750.119584 -183.2755 
L 753.846106 -183.2755 
L 757.572627 -183.2755 
L 761.299148 -183.2755 
L 765.02567 -183.2755 
L 768.752191 -183.2755 
L 772.478713 -183.2755 
L 776.205234 -183.2755 
L 779.931755 -183.2755 
L 783.658277 -183.2755 
L 787.384798 -183.2755 
L 791.11132 -183.2755 
L 794.837841 -183.2755 
L 798.564363 -183.2755 
L 802.290884 -183.2755 
L 806.017405 -183.2755 
L 809.743927 -183.2755 
L 813.470448 -183.2755 
L 817.19697 -183.2755 
L 820.923491 -183.2755 
L 824.650012 -284.0755 
L 828.376534 -284.0755 
L 832.103055 -284.0755 
L 835.829577 -284.0755 
L 839.556098 -284.0755 
L 843.282619 -284.0755 
L 847.009141 -284.0755 
L 850.735662 -284.0755 
L 854.462184 -284.0755 
L 858.188705 -284.0755 
L 861.915227 -284.0755 
L 865.641748 -284.0755 
L 869.368269 -284.0755 
L 873.094791 -284.0755 
L 876.821312 -284.0755 
L 880.547834 -284.0755 
L 884.274355 -284.0755 
L 888.000876 -284.0755 
L 891.727398 -284.0755 
L 895.453919 -284.0755 
L 899.180441 -284.0755 
L 902.906962 -284.0755 
L 906.633483 -284.0755 
L 910.360005 -284.0755 
L 914.086526 -284.0755 
L 917.813048 -284.0755 
L 921.539569 -284.0755 
L 925.266091 -284.0755 
L 928.992612 -284.0755 
L 932.719133 -284.0755 
L 936.445655 -284.0755 
L 940.172176 -284.0755 
L 943.898698 -284.0755 
L 947.625219 -485.6755 
L 947.625219 -485.6755 
L 947.625219 -485.6755 
L 943.898698 -485.6755 
L 940.172176 -485.6755 
L 936.445655 -485.6755 
L 932.719133 -485.6755 
L 928.992612 -485.6755 
L 925.266091 -485.6755 
L 921.539569 -485.6755 
L 917.813048 -485.6755 
L 914.086526 -485.6755 
L 910.360005 -485.6755 
L 906.633483 -485.6755 
L 902.906962 -485.6755 
L 899.180441 -485.6755 
L 895.453919 -485.6755 
L 891.727398 -485.6755 
L 888.000876 -485.6755 
L 884.274355 -485.6755 
L 880.547834 -485.6755 
L 876.821312 -485.6755 
L 873.094791 -485.6755 
L 869.368269 -485.6755 
L 865.641748 -485.6755 
L 861.915227 -485.6755 
L 858.188705 -485.6755 
L 854.462184 -485.6755 
L 850.735662 -485.6755 
L 847.009141 -485.6755 
L 843.282619 -485.6755 
L 839.556098 -485.6755 
L 835.829577 -485.6755 
L 832.103055 -485.6755 
L 828.376534 -485.6755 
L 824.650012 -485.6755 
L 820.923491 -485.6755 
L 817.19697 -485.6755 
L 813.470448 -485.6755 
L 809.743927 -485.6755 
L 806.017405 -485.6755 
L 802.290884 -485.6755 
L 798.564363 -485.6755 
L 794.837841 -485.6755 
L 791.11132 -485.6755 
L 787.384798 -485.6755 
L 783.658277 -485.6755 
L 779.931755 -485.6755 
L 776.205234 -485.6755 
L 772.478713 -485.6755 
L 768.752191 -485.6755 
L 765.02567 -485.6755 
L 761.299148 -485.6755 
L 757.572627 -485.6755 
L 753.846106 -485.6755 
L 750.119584 -485.6755 
L 746.393063 -485.6755 
L 742.666541 -485.6755 
L 738.94002 -485.6755 
L 735.213498 -485.6755 
L 731.486977 -485.6755 
L 727.760456 -485.6755 
L 724.033934 -485.6755 
L 720.307413 -485.6755 
L 716.580891 -485.6755 
L 712.85437 -485.6755 
L 709.127849 -485.6755 
L 705.401327 -485.6755 
L 701.674806 -485.6755 
L 697.948284 -485.6755 
L 694.221763 -485.6755 
L 690.495242 -485.6755 
L 686.76872 -485.6755 
L 683.042199 -485.6755 
L 679.315677 -485.6755 
L 675.589156 -485.6755 
L 671.862634 -485.6755 
L 668.136113 -485.6755 
L 664.409592 -485.6755 
L 660.68307 -485.6755 
L 656.956549 -485.6755 
L 653.230027 -485.6755 
L 649.503506 -485.6755 
L 645.776985 -485.6755 
L 642.050463 -485.6755 
L 638.323942 -485.6755 
L 634.59742 -485.6755 
L 630.870899 -485.6755 
L 627.144378 -485.6755 
L 623.417856 -485.6755 
L 619.691335 -485.6755 
L 615.964813 -485.6755 
L 612.238292 -485.6755 
L 608.51177 -485.6755 
L 604.785249 -485.6755 
L 601.058728 -485.6755 
L 597.332206 -485.6755 
L 593.605685 -485.6755 
L 589.879163 -485.6755 
L 586.152642 -485.6755 
L 582.426121 -485.6755 
L 578.699599 -82.4755 
z
" style="stroke: #ffa500; stroke-opacity: 0.2; stroke-width: 2"/>
    </defs>
    <g clip-path="url(#p2bc2387890)">
     <use xlink:href="#ma257ee9735" x="0" y="533.6245" style="fill: #ffa500; fill-opacity: 0.2; stroke: #ffa500; stroke-opacity: 0.2; stroke-width: 2"/>
    </g>
   </g>
   <g id="PolyCollection_5">
    <defs>
     <path id="m4477b27c6b" d="M 578.699599 -82.4755 
L 578.699599 -82.4755 
L 582.426121 -82.4755 
L 586.152642 -82.4755 
L 589.879163 -82.4755 
L 593.605685 -82.4755 
L 597.332206 -82.4755 
L 601.058728 -82.4755 
L 604.785249 -82.4755 
L 608.51177 -82.4755 
L 612.238292 -82.4755 
L 615.964813 -82.4755 
L 619.691335 -82.4755 
L 623.417856 -82.4755 
L 627.144378 -82.4755 
L 630.870899 -82.4755 
L 634.59742 -82.4755 
L 638.323942 -82.4755 
L 642.050463 -82.4755 
L 645.776985 -82.4755 
L 649.503506 -82.4755 
L 653.230027 -82.4755 
L 656.956549 -82.4755 
L 660.68307 -82.4755 
L 664.409592 -82.4755 
L 668.136113 -82.4755 
L 671.862634 -82.4755 
L 675.589156 -82.4755 
L 679.315677 -82.4755 
L 683.042199 -82.4755 
L 686.76872 -82.4755 
L 690.495242 -82.4755 
L 694.221763 -82.4755 
L 697.948284 -82.4755 
L 701.674806 -82.4755 
L 705.401327 -84.002773 
L 709.127849 -85.530045 
L 712.85437 -87.057318 
L 716.580891 -88.584591 
L 720.307413 -90.111864 
L 724.033934 -91.639136 
L 727.760456 -93.166409 
L 731.486977 -94.693682 
L 735.213498 -96.220955 
L 738.94002 -97.748227 
L 742.666541 -99.2755 
L 746.393063 -100.802773 
L 750.119584 -102.330045 
L 753.846106 -103.857318 
L 757.572627 -105.384591 
L 761.299148 -106.911864 
L 765.02567 -108.439136 
L 768.752191 -109.966409 
L 772.478713 -111.493682 
L 776.205234 -113.020955 
L 779.931755 -114.548227 
L 783.658277 -116.0755 
L 787.384798 -117.602773 
L 791.11132 -119.130045 
L 794.837841 -120.657318 
L 798.564363 -122.184591 
L 802.290884 -123.711864 
L 806.017405 -125.239136 
L 809.743927 -126.766409 
L 813.470448 -128.293682 
L 817.19697 -129.820955 
L 820.923491 -131.348227 
L 824.650012 -132.8755 
L 828.376534 -134.402773 
L 832.103055 -135.930045 
L 835.829577 -137.457318 
L 839.556098 -138.984591 
L 843.282619 -140.511864 
L 847.009141 -142.039136 
L 850.735662 -143.566409 
L 854.462184 -145.093682 
L 858.188705 -146.620955 
L 861.915227 -148.148227 
L 865.641748 -149.6755 
L 869.368269 -151.202773 
L 873.094791 -152.730045 
L 876.821312 -154.257318 
L 880.547834 -155.784591 
L 884.274355 -157.311864 
L 888.000876 -158.839136 
L 891.727398 -160.366409 
L 895.453919 -161.893682 
L 899.180441 -163.420955 
L 902.906962 -164.948227 
L 906.633483 -166.4755 
L 910.360005 -168.002773 
L 914.086526 -169.530045 
L 917.813048 -171.057318 
L 921.539569 -172.584591 
L 925.266091 -174.111864 
L 928.992612 -175.639136 
L 932.719133 -177.166409 
L 936.445655 -178.693682 
L 940.172176 -180.220955 
L 943.898698 -181.748227 
L 947.625219 -485.6755 
L 947.625219 -485.6755 
L 947.625219 -485.6755 
L 943.898698 -485.6755 
L 940.172176 -485.6755 
L 936.445655 -485.6755 
L 932.719133 -485.6755 
L 928.992612 -485.6755 
L 925.266091 -485.6755 
L 921.539569 -485.6755 
L 917.813048 -485.6755 
L 914.086526 -485.6755 
L 910.360005 -485.6755 
L 906.633483 -485.6755 
L 902.906962 -485.6755 
L 899.180441 -485.6755 
L 895.453919 -485.6755 
L 891.727398 -485.6755 
L 888.000876 -485.6755 
L 884.274355 -485.6755 
L 880.547834 -485.6755 
L 876.821312 -485.6755 
L 873.094791 -485.6755 
L 869.368269 -485.6755 
L 865.641748 -485.6755 
L 861.915227 -485.6755 
L 858.188705 -485.6755 
L 854.462184 -485.6755 
L 850.735662 -485.6755 
L 847.009141 -485.6755 
L 843.282619 -485.6755 
L 839.556098 -485.6755 
L 835.829577 -485.6755 
L 832.103055 -485.6755 
L 828.376534 -485.6755 
L 824.650012 -485.6755 
L 820.923491 -485.6755 
L 817.19697 -485.6755 
L 813.470448 -485.6755 
L 809.743927 -485.6755 
L 806.017405 -485.6755 
L 802.290884 -485.6755 
L 798.564363 -485.6755 
L 794.837841 -485.6755 
L 791.11132 -485.6755 
L 787.384798 -485.6755 
L 783.658277 -485.6755 
L 779.931755 -485.6755 
L 776.205234 -485.6755 
L 772.478713 -485.6755 
L 768.752191 -485.6755 
L 765.02567 -485.6755 
L 761.299148 -485.6755 
L 757.572627 -485.6755 
L 753.846106 -485.6755 
L 750.119584 -485.6755 
L 746.393063 -485.6755 
L 742.666541 -485.6755 
L 738.94002 -485.6755 
L 735.213498 -485.6755 
L 731.486977 -485.6755 
L 727.760456 -485.6755 
L 724.033934 -485.6755 
L 720.307413 -485.6755 
L 716.580891 -485.6755 
L 712.85437 -485.6755 
L 709.127849 -485.6755 
L 705.401327 -485.6755 
L 701.674806 -485.6755 
L 697.948284 -485.6755 
L 694.221763 -485.6755 
L 690.495242 -485.6755 
L 686.76872 -485.6755 
L 683.042199 -485.6755 
L 679.315677 -485.6755 
L 675.589156 -485.6755 
L 671.862634 -485.6755 
L 668.136113 -485.6755 
L 664.409592 -485.6755 
L 660.68307 -485.6755 
L 656.956549 -485.6755 
L 653.230027 -485.6755 
L 649.503506 -485.6755 
L 645.776985 -485.6755 
L 642.050463 -485.6755 
L 638.323942 -485.6755 
L 634.59742 -485.6755 
L 630.870899 -485.6755 
L 627.144378 -485.6755 
L 623.417856 -485.6755 
L 619.691335 -485.6755 
L 615.964813 -485.6755 
L 612.238292 -485.6755 
L 608.51177 -485.6755 
L 604.785249 -485.6755 
L 601.058728 -485.6755 
L 597.332206 -485.6755 
L 593.605685 -485.6755 
L 589.879163 -485.6755 
L 586.152642 -485.6755 
L 582.426121 -485.6755 
L 578.699599 -82.4755 
z
" style="stroke: #0000ff; stroke-opacity: 0.2; stroke-width: 2"/>
    </defs>
    <g clip-path="url(#p2bc2387890)">
     <use xlink:href="#m4477b27c6b" x="0" y="533.6245" style="fill: #0000ff; fill-opacity: 0.2; stroke: #0000ff; stroke-opacity: 0.2; stroke-width: 2"/>
    </g>
   </g>
   <g id="PolyCollection_6">
    <defs>
     <path id="m09f1c0e9bf" d="M 578.699599 -82.4755 
L 578.699599 -82.4755 
L 582.426121 -82.4755 
L 586.152642 -82.4755 
L 589.879163 -82.4755 
L 593.605685 -82.4755 
L 597.332206 -82.4755 
L 601.058728 -82.4755 
L 604.785249 -82.4755 
L 608.51177 -82.4755 
L 612.238292 -82.4755 
L 615.964813 -82.4755 
L 619.691335 -82.4755 
L 623.417856 -82.4755 
L 627.144378 -82.4755 
L 630.870899 -82.4755 
L 634.59742 -82.4755 
L 638.323942 -82.4755 
L 642.050463 -82.4755 
L 645.776985 -82.4755 
L 649.503506 -82.4755 
L 653.230027 -82.4755 
L 656.956549 -82.4755 
L 660.68307 -82.4755 
L 664.409592 -82.4755 
L 668.136113 -82.4755 
L 671.862634 -82.4755 
L 675.589156 -82.4755 
L 679.315677 -82.4755 
L 683.042199 -82.4755 
L 686.76872 -82.4755 
L 690.495242 -82.4755 
L 694.221763 -82.4755 
L 697.948284 -82.4755 
L 701.674806 -284.0755 
L 705.401327 -284.0755 
L 709.127849 -284.0755 
L 712.85437 -284.0755 
L 716.580891 -284.0755 
L 720.307413 -284.0755 
L 724.033934 -284.0755 
L 727.760456 -284.0755 
L 731.486977 -284.0755 
L 735.213498 -284.0755 
L 738.94002 -284.0755 
L 742.666541 -284.0755 
L 746.393063 -284.0755 
L 750.119584 -284.0755 
L 753.846106 -284.0755 
L 757.572627 -284.0755 
L 761.299148 -284.0755 
L 765.02567 -284.0755 
L 768.752191 -284.0755 
L 772.478713 -284.0755 
L 776.205234 -284.0755 
L 779.931755 -284.0755 
L 783.658277 -284.0755 
L 787.384798 -284.0755 
L 791.11132 -284.0755 
L 794.837841 -284.0755 
L 798.564363 -284.0755 
L 802.290884 -284.0755 
L 806.017405 -284.0755 
L 809.743927 -284.0755 
L 813.470448 -284.0755 
L 817.19697 -284.0755 
L 820.923491 -284.0755 
L 824.650012 -384.8755 
L 828.376534 -384.8755 
L 832.103055 -384.8755 
L 835.829577 -384.8755 
L 839.556098 -384.8755 
L 843.282619 -384.8755 
L 847.009141 -384.8755 
L 850.735662 -384.8755 
L 854.462184 -384.8755 
L 858.188705 -384.8755 
L 861.915227 -384.8755 
L 865.641748 -384.8755 
L 869.368269 -384.8755 
L 873.094791 -384.8755 
L 876.821312 -384.8755 
L 880.547834 -384.8755 
L 884.274355 -384.8755 
L 888.000876 -384.8755 
L 891.727398 -384.8755 
L 895.453919 -384.8755 
L 899.180441 -384.8755 
L 902.906962 -384.8755 
L 906.633483 -384.8755 
L 910.360005 -384.8755 
L 914.086526 -384.8755 
L 917.813048 -384.8755 
L 921.539569 -384.8755 
L 925.266091 -384.8755 
L 928.992612 -384.8755 
L 932.719133 -384.8755 
L 936.445655 -384.8755 
L 940.172176 -384.8755 
L 943.898698 -384.8755 
L 947.625219 -485.6755 
L 947.625219 -485.6755 
L 947.625219 -485.6755 
L 943.898698 -485.6755 
L 940.172176 -485.6755 
L 936.445655 -485.6755 
L 932.719133 -485.6755 
L 928.992612 -485.6755 
L 925.266091 -485.6755 
L 921.539569 -485.6755 
L 917.813048 -485.6755 
L 914.086526 -485.6755 
L 910.360005 -485.6755 
L 906.633483 -485.6755 
L 902.906962 -485.6755 
L 899.180441 -485.6755 
L 895.453919 -485.6755 
L 891.727398 -485.6755 
L 888.000876 -485.6755 
L 884.274355 -485.6755 
L 880.547834 -485.6755 
L 876.821312 -485.6755 
L 873.094791 -485.6755 
L 869.368269 -485.6755 
L 865.641748 -485.6755 
L 861.915227 -485.6755 
L 858.188705 -485.6755 
L 854.462184 -485.6755 
L 850.735662 -485.6755 
L 847.009141 -485.6755 
L 843.282619 -485.6755 
L 839.556098 -485.6755 
L 835.829577 -485.6755 
L 832.103055 -485.6755 
L 828.376534 -485.6755 
L 824.650012 -485.6755 
L 820.923491 -485.6755 
L 817.19697 -485.6755 
L 813.470448 -485.6755 
L 809.743927 -485.6755 
L 806.017405 -485.6755 
L 802.290884 -485.6755 
L 798.564363 -485.6755 
L 794.837841 -485.6755 
L 791.11132 -485.6755 
L 787.384798 -485.6755 
L 783.658277 -485.6755 
L 779.931755 -485.6755 
L 776.205234 -485.6755 
L 772.478713 -485.6755 
L 768.752191 -485.6755 
L 765.02567 -485.6755 
L 761.299148 -485.6755 
L 757.572627 -485.6755 
L 753.846106 -485.6755 
L 750.119584 -485.6755 
L 746.393063 -485.6755 
L 742.666541 -485.6755 
L 738.94002 -485.6755 
L 735.213498 -485.6755 
L 731.486977 -485.6755 
L 727.760456 -485.6755 
L 724.033934 -485.6755 
L 720.307413 -485.6755 
L 716.580891 -485.6755 
L 712.85437 -485.6755 
L 709.127849 -485.6755 
L 705.401327 -485.6755 
L 701.674806 -485.6755 
L 697.948284 -485.6755 
L 694.221763 -485.6755 
L 690.495242 -485.6755 
L 686.76872 -485.6755 
L 683.042199 -485.6755 
L 679.315677 -485.6755 
L 675.589156 -485.6755 
L 671.862634 -485.6755 
L 668.136113 -485.6755 
L 664.409592 -485.6755 
L 660.68307 -485.6755 
L 656.956549 -485.6755 
L 653.230027 -485.6755 
L 649.503506 -485.6755 
L 645.776985 -485.6755 
L 642.050463 -485.6755 
L 638.323942 -485.6755 
L 634.59742 -485.6755 
L 630.870899 -485.6755 
L 627.144378 -485.6755 
L 623.417856 -485.6755 
L 619.691335 -485.6755 
L 615.964813 -485.6755 
L 612.238292 -485.6755 
L 608.51177 -485.6755 
L 604.785249 -485.6755 
L 601.058728 -485.6755 
L 597.332206 -485.6755 
L 593.605685 -485.6755 
L 589.879163 -485.6755 
L 586.152642 -485.6755 
L 582.426121 -485.6755 
L 578.699599 -82.4755 
z
" style="stroke: #008000; stroke-opacity: 0.2; stroke-width: 2"/>
    </defs>
    <g clip-path="url(#p2bc2387890)">
     <use xlink:href="#m09f1c0e9bf" x="0" y="533.6245" style="fill: #008000; fill-opacity: 0.2; stroke: #008000; stroke-opacity: 0.2; stroke-width: 2"/>
    </g>
   </g>
   <g id="matplotlib.axis_3">
    <g id="xtick_7">
     <g id="line2d_20">
      <g>
       <use xlink:href="#md10b053230" x="578.699599" y="471.309" style="stroke: #000000; stroke-width: 2.5"/>
      </g>
     </g>
     <g id="text_19">
      <!-- 0.0 -->
      <g transform="translate(564.704849 500.18225) scale(0.176 -0.176)">
       <use xlink:href="#DejaVuSans-30"/>
       <use xlink:href="#DejaVuSans-2e" x="63.623047"/>
       <use xlink:href="#DejaVuSans-30" x="95.410156"/>
      </g>
     </g>
    </g>
    <g id="xtick_8">
     <g id="line2d_21">
      <g>
       <use xlink:href="#md10b053230" x="652.484723" y="471.309" style="stroke: #000000; stroke-width: 2.5"/>
      </g>
     </g>
     <g id="text_20">
      <!-- 0.2 -->
      <g transform="translate(638.489973 500.18225) scale(0.176 -0.176)">
       <use xlink:href="#DejaVuSans-30"/>
       <use xlink:href="#DejaVuSans-2e" x="63.623047"/>
       <use xlink:href="#DejaVuSans-32" x="95.410156"/>
      </g>
     </g>
    </g>
    <g id="xtick_9">
     <g id="line2d_22">
      <g>
       <use xlink:href="#md10b053230" x="726.269847" y="471.309" style="stroke: #000000; stroke-width: 2.5"/>
      </g>
     </g>
     <g id="text_21">
      <!-- 0.4 -->
      <g transform="translate(712.275097 500.18225) scale(0.176 -0.176)">
       <use xlink:href="#DejaVuSans-30"/>
       <use xlink:href="#DejaVuSans-2e" x="63.623047"/>
       <use xlink:href="#DejaVuSans-34" x="95.410156"/>
      </g>
     </g>
    </g>
    <g id="xtick_10">
     <g id="line2d_23">
      <g>
       <use xlink:href="#md10b053230" x="800.054971" y="471.309" style="stroke: #000000; stroke-width: 2.5"/>
      </g>
     </g>
     <g id="text_22">
      <!-- 0.6 -->
      <g transform="translate(786.060221 500.18225) scale(0.176 -0.176)">
       <use xlink:href="#DejaVuSans-30"/>
       <use xlink:href="#DejaVuSans-2e" x="63.623047"/>
       <use xlink:href="#DejaVuSans-36" x="95.410156"/>
      </g>
     </g>
    </g>
    <g id="xtick_11">
     <g id="line2d_24">
      <g>
       <use xlink:href="#md10b053230" x="873.840095" y="471.309" style="stroke: #000000; stroke-width: 2.5"/>
      </g>
     </g>
     <g id="text_23">
      <!-- 0.8 -->
      <g transform="translate(859.845345 500.18225) scale(0.176 -0.176)">
       <use xlink:href="#DejaVuSans-30"/>
       <use xlink:href="#DejaVuSans-2e" x="63.623047"/>
       <use xlink:href="#DejaVuSans-38" x="95.410156"/>
      </g>
     </g>
    </g>
    <g id="xtick_12">
     <g id="line2d_25">
      <g>
       <use xlink:href="#md10b053230" x="947.625219" y="471.309" style="stroke: #000000; stroke-width: 2.5"/>
      </g>
     </g>
     <g id="text_24">
      <!-- 1.0 -->
      <g transform="translate(933.630469 500.18225) scale(0.176 -0.176)">
       <use xlink:href="#DejaVuSans-31"/>
       <use xlink:href="#DejaVuSans-2e" x="63.623047"/>
       <use xlink:href="#DejaVuSans-30" x="95.410156"/>
      </g>
     </g>
    </g>
    <g id="text_25">
     <!-- False Positive Rate -->
     <g transform="translate(673.946909 522.4315) scale(0.192 -0.192)">
      <use xlink:href="#DejaVuSans-46"/>
      <use xlink:href="#DejaVuSans-61" x="48.394531"/>
      <use xlink:href="#DejaVuSans-6c" x="109.673828"/>
      <use xlink:href="#DejaVuSans-73" x="137.457031"/>
      <use xlink:href="#DejaVuSans-65" x="189.556641"/>
      <use xlink:href="#DejaVuSans-20" x="251.080078"/>
      <use xlink:href="#DejaVuSans-50" x="282.867188"/>
      <use xlink:href="#DejaVuSans-6f" x="339.544922"/>
      <use xlink:href="#DejaVuSans-73" x="400.726562"/>
      <use xlink:href="#DejaVuSans-69" x="452.826172"/>
      <use xlink:href="#DejaVuSans-74" x="480.609375"/>
      <use xlink:href="#DejaVuSans-69" x="519.818359"/>
      <use xlink:href="#DejaVuSans-76" x="547.601562"/>
      <use xlink:href="#DejaVuSans-65" x="606.78125"/>
      <use xlink:href="#DejaVuSans-20" x="668.304688"/>
      <use xlink:href="#DejaVuSans-52" x="700.091797"/>
      <use xlink:href="#DejaVuSans-61" x="767.324219"/>
      <use xlink:href="#DejaVuSans-74" x="828.603516"/>
      <use xlink:href="#DejaVuSans-65" x="867.8125"/>
     </g>
    </g>
   </g>
   <g id="matplotlib.axis_4">
    <g id="ytick_7">
     <g id="line2d_26">
      <g>
       <use xlink:href="#mfc69554664" x="560.253318" y="451.149" style="stroke: #000000; stroke-width: 2.5"/>
      </g>
     </g>
     <g id="text_26">
      <!-- 0.0 -->
      <g transform="translate(516.763818 457.835625) scale(0.176 -0.176)">
       <use xlink:href="#DejaVuSans-30"/>
       <use xlink:href="#DejaVuSans-2e" x="63.623047"/>
       <use xlink:href="#DejaVuSans-30" x="95.410156"/>
      </g>
     </g>
    </g>
    <g id="ytick_8">
     <g id="line2d_27">
      <g>
       <use xlink:href="#mfc69554664" x="560.253318" y="370.509" style="stroke: #000000; stroke-width: 2.5"/>
      </g>
     </g>
     <g id="text_27">
      <!-- 0.2 -->
      <g transform="translate(516.763818 377.195625) scale(0.176 -0.176)">
       <use xlink:href="#DejaVuSans-30"/>
       <use xlink:href="#DejaVuSans-2e" x="63.623047"/>
       <use xlink:href="#DejaVuSans-32" x="95.410156"/>
      </g>
     </g>
    </g>
    <g id="ytick_9">
     <g id="line2d_28">
      <g>
       <use xlink:href="#mfc69554664" x="560.253318" y="289.869" style="stroke: #000000; stroke-width: 2.5"/>
      </g>
     </g>
     <g id="text_28">
      <!-- 0.4 -->
      <g transform="translate(516.763818 296.555625) scale(0.176 -0.176)">
       <use xlink:href="#DejaVuSans-30"/>
       <use xlink:href="#DejaVuSans-2e" x="63.623047"/>
       <use xlink:href="#DejaVuSans-34" x="95.410156"/>
      </g>
     </g>
    </g>
    <g id="ytick_10">
     <g id="line2d_29">
      <g>
       <use xlink:href="#mfc69554664" x="560.253318" y="209.229" style="stroke: #000000; stroke-width: 2.5"/>
      </g>
     </g>
     <g id="text_29">
      <!-- 0.6 -->
      <g transform="translate(516.763818 215.915625) scale(0.176 -0.176)">
       <use xlink:href="#DejaVuSans-30"/>
       <use xlink:href="#DejaVuSans-2e" x="63.623047"/>
       <use xlink:href="#DejaVuSans-36" x="95.410156"/>
      </g>
     </g>
    </g>
    <g id="ytick_11">
     <g id="line2d_30">
      <g>
       <use xlink:href="#mfc69554664" x="560.253318" y="128.589" style="stroke: #000000; stroke-width: 2.5"/>
      </g>
     </g>
     <g id="text_30">
      <!-- 0.8 -->
      <g transform="translate(516.763818 135.275625) scale(0.176 -0.176)">
       <use xlink:href="#DejaVuSans-30"/>
       <use xlink:href="#DejaVuSans-2e" x="63.623047"/>
       <use xlink:href="#DejaVuSans-38" x="95.410156"/>
      </g>
     </g>
    </g>
    <g id="ytick_12">
     <g id="line2d_31">
      <g>
       <use xlink:href="#mfc69554664" x="560.253318" y="47.949" style="stroke: #000000; stroke-width: 2.5"/>
      </g>
     </g>
     <g id="text_31">
      <!-- 1.0 -->
      <g transform="translate(516.763818 54.635625) scale(0.176 -0.176)">
       <use xlink:href="#DejaVuSans-31"/>
       <use xlink:href="#DejaVuSans-2e" x="63.623047"/>
       <use xlink:href="#DejaVuSans-30" x="95.410156"/>
      </g>
     </g>
    </g>
    <g id="text_32">
     <!-- True Positive Rate -->
     <g transform="translate(508.770818 335.046) rotate(-90) scale(0.192 -0.192)">
      <use xlink:href="#DejaVuSans-54"/>
      <use xlink:href="#DejaVuSans-72" x="46.333984"/>
      <use xlink:href="#DejaVuSans-75" x="87.447266"/>
      <use xlink:href="#DejaVuSans-65" x="150.826172"/>
      <use xlink:href="#DejaVuSans-20" x="212.349609"/>
      <use xlink:href="#DejaVuSans-50" x="244.136719"/>
      <use xlink:href="#DejaVuSans-6f" x="300.814453"/>
      <use xlink:href="#DejaVuSans-73" x="361.996094"/>
      <use xlink:href="#DejaVuSans-69" x="414.095703"/>
      <use xlink:href="#DejaVuSans-74" x="441.878906"/>
      <use xlink:href="#DejaVuSans-69" x="481.087891"/>
      <use xlink:href="#DejaVuSans-76" x="508.871094"/>
      <use xlink:href="#DejaVuSans-65" x="568.050781"/>
      <use xlink:href="#DejaVuSans-20" x="629.574219"/>
      <use xlink:href="#DejaVuSans-52" x="661.361328"/>
      <use xlink:href="#DejaVuSans-61" x="728.59375"/>
      <use xlink:href="#DejaVuSans-74" x="789.873047"/>
      <use xlink:href="#DejaVuSans-65" x="829.082031"/>
     </g>
    </g>
   </g>
   <g id="line2d_32">
    <path d="M 578.699599 451.149 
L 582.426121 237.453 
L 586.152642 237.453 
L 589.879163 237.453 
L 593.605685 237.453 
L 597.332206 237.453 
L 601.058728 237.453 
L 604.785249 237.453 
L 608.51177 237.453 
L 612.238292 237.453 
L 615.964813 237.453 
L 619.691335 237.453 
L 623.417856 237.453 
L 627.144378 237.453 
L 630.870899 237.453 
L 634.59742 237.453 
L 638.323942 237.453 
L 642.050463 237.453 
L 645.776985 237.453 
L 649.503506 237.453 
L 653.230027 237.453 
L 656.956549 237.453 
L 660.68307 237.453 
L 664.409592 237.453 
L 668.136113 237.453 
L 671.862634 237.453 
L 675.589156 237.453 
L 679.315677 237.453 
L 683.042199 237.453 
L 686.76872 237.453 
L 690.495242 237.453 
L 694.221763 237.453 
L 697.948284 237.453 
L 701.674806 156.813 
L 705.401327 156.813 
L 709.127849 156.813 
L 712.85437 156.813 
L 716.580891 156.813 
L 720.307413 156.813 
L 724.033934 156.813 
L 727.760456 156.813 
L 731.486977 156.813 
L 735.213498 156.813 
L 738.94002 156.813 
L 742.666541 156.813 
L 746.393063 156.813 
L 750.119584 156.813 
L 753.846106 156.813 
L 757.572627 156.813 
L 761.299148 156.813 
L 765.02567 156.813 
L 768.752191 156.813 
L 772.478713 156.813 
L 776.205234 156.813 
L 779.931755 156.813 
L 783.658277 156.813 
L 787.384798 156.813 
L 791.11132 156.813 
L 794.837841 156.813 
L 798.564363 156.813 
L 802.290884 156.813 
L 806.017405 156.813 
L 809.743927 156.813 
L 813.470448 156.813 
L 817.19697 156.813 
L 820.923491 156.813 
L 824.650012 116.493 
L 828.376534 116.493 
L 832.103055 116.493 
L 835.829577 116.493 
L 839.556098 116.493 
L 843.282619 116.493 
L 847.009141 116.493 
L 850.735662 116.493 
L 854.462184 116.493 
L 858.188705 116.493 
L 861.915227 116.493 
L 865.641748 116.493 
L 869.368269 116.493 
L 873.094791 116.493 
L 876.821312 116.493 
L 880.547834 116.493 
L 884.274355 116.493 
L 888.000876 116.493 
L 891.727398 116.493 
L 895.453919 116.493 
L 899.180441 116.493 
L 902.906962 116.493 
L 906.633483 116.493 
L 910.360005 116.493 
L 914.086526 116.493 
L 917.813048 116.493 
L 921.539569 116.493 
L 925.266091 116.493 
L 928.992612 116.493 
L 932.719133 116.493 
L 936.445655 116.493 
L 940.172176 116.493 
L 943.898698 116.493 
L 947.625219 47.949 
" clip-path="url(#p2bc2387890)" style="fill: none; stroke: #ffa500; stroke-width: 3; stroke-linecap: square"/>
   </g>
   <g id="line2d_33">
    <path d="M 578.699599 451.149 
L 582.426121 277.467545 
L 586.152642 277.162091 
L 589.879163 276.856636 
L 593.605685 276.551182 
L 597.332206 276.245727 
L 601.058728 275.940273 
L 604.785249 275.634818 
L 608.51177 275.329364 
L 612.238292 275.023909 
L 615.964813 274.718455 
L 619.691335 274.413 
L 623.417856 274.107545 
L 627.144378 273.802091 
L 630.870899 273.496636 
L 634.59742 273.191182 
L 638.323942 272.885727 
L 642.050463 272.580273 
L 645.776985 272.274818 
L 649.503506 271.969364 
L 653.230027 271.663909 
L 656.956549 271.358455 
L 660.68307 271.053 
L 664.409592 270.747545 
L 668.136113 270.442091 
L 671.862634 270.136636 
L 675.589156 269.831182 
L 679.315677 269.525727 
L 683.042199 269.220273 
L 686.76872 268.914818 
L 690.495242 268.609364 
L 694.221763 268.303909 
L 697.948284 267.998455 
L 701.674806 156.813 
L 705.401327 156.660273 
L 709.127849 156.507545 
L 712.85437 156.354818 
L 716.580891 156.202091 
L 720.307413 156.049364 
L 724.033934 155.896636 
L 727.760456 155.743909 
L 731.486977 155.591182 
L 735.213498 155.438455 
L 738.94002 155.285727 
L 742.666541 155.133 
L 746.393063 154.980273 
L 750.119584 154.827545 
L 753.846106 154.674818 
L 757.572627 154.522091 
L 761.299148 154.369364 
L 765.02567 154.216636 
L 768.752191 154.063909 
L 772.478713 153.911182 
L 776.205234 153.758455 
L 779.931755 153.605727 
L 783.658277 153.453 
L 787.384798 153.300273 
L 791.11132 153.147545 
L 794.837841 152.994818 
L 798.564363 152.842091 
L 802.290884 152.689364 
L 806.017405 152.536636 
L 809.743927 152.383909 
L 813.470448 152.231182 
L 817.19697 152.078455 
L 820.923491 151.925727 
L 824.650012 121.533 
L 828.376534 121.380273 
L 832.103055 121.227545 
L 835.829577 121.074818 
L 839.556098 120.922091 
L 843.282619 120.769364 
L 847.009141 120.616636 
L 850.735662 120.463909 
L 854.462184 120.311182 
L 858.188705 120.158455 
L 861.915227 120.005727 
L 865.641748 119.853 
L 869.368269 119.700273 
L 873.094791 119.547545 
L 876.821312 119.394818 
L 880.547834 119.242091 
L 884.274355 119.089364 
L 888.000876 118.936636 
L 891.727398 118.783909 
L 895.453919 118.631182 
L 899.180441 118.478455 
L 902.906962 118.325727 
L 906.633483 118.173 
L 910.360005 118.020273 
L 914.086526 117.867545 
L 917.813048 117.714818 
L 921.539569 117.562091 
L 925.266091 117.409364 
L 928.992612 117.256636 
L 932.719133 117.103909 
L 936.445655 116.951182 
L 940.172176 116.798455 
L 943.898698 116.645727 
L 947.625219 47.949 
" clip-path="url(#p2bc2387890)" style="fill: none; stroke: #0000ff; stroke-width: 3; stroke-linecap: square"/>
   </g>
   <g id="line2d_34">
    <path d="M 578.699599 451.149 
L 582.426121 245.517 
L 586.152642 245.517 
L 589.879163 245.517 
L 593.605685 245.517 
L 597.332206 245.517 
L 601.058728 245.517 
L 604.785249 245.517 
L 608.51177 245.517 
L 612.238292 245.517 
L 615.964813 245.517 
L 619.691335 245.517 
L 623.417856 245.517 
L 627.144378 245.517 
L 630.870899 245.517 
L 634.59742 245.517 
L 638.323942 245.517 
L 642.050463 245.517 
L 645.776985 245.517 
L 649.503506 245.517 
L 653.230027 245.517 
L 656.956549 245.517 
L 660.68307 245.517 
L 664.409592 245.517 
L 668.136113 245.517 
L 671.862634 245.517 
L 675.589156 245.517 
L 679.315677 245.517 
L 683.042199 245.517 
L 686.76872 245.517 
L 690.495242 245.517 
L 694.221763 245.517 
L 697.948284 245.517 
L 701.674806 114.477 
L 705.401327 114.477 
L 709.127849 114.477 
L 712.85437 114.477 
L 716.580891 114.477 
L 720.307413 114.477 
L 724.033934 114.477 
L 727.760456 114.477 
L 731.486977 114.477 
L 735.213498 114.477 
L 738.94002 114.477 
L 742.666541 114.477 
L 746.393063 114.477 
L 750.119584 114.477 
L 753.846106 114.477 
L 757.572627 114.477 
L 761.299148 114.477 
L 765.02567 106.413 
L 768.752191 106.413 
L 772.478713 106.413 
L 776.205234 106.413 
L 779.931755 106.413 
L 783.658277 106.413 
L 787.384798 106.413 
L 791.11132 106.413 
L 794.837841 106.413 
L 798.564363 106.413 
L 802.290884 106.413 
L 806.017405 106.413 
L 809.743927 106.413 
L 813.470448 106.413 
L 817.19697 106.413 
L 820.923491 106.413 
L 824.650012 86.253 
L 828.376534 86.253 
L 832.103055 86.253 
L 835.829577 86.253 
L 839.556098 86.253 
L 843.282619 86.253 
L 847.009141 86.253 
L 850.735662 86.253 
L 854.462184 86.253 
L 858.188705 86.253 
L 861.915227 86.253 
L 865.641748 86.253 
L 869.368269 86.253 
L 873.094791 86.253 
L 876.821312 86.253 
L 880.547834 86.253 
L 884.274355 86.253 
L 888.000876 86.253 
L 891.727398 86.253 
L 895.453919 86.253 
L 899.180441 86.253 
L 902.906962 86.253 
L 906.633483 86.253 
L 910.360005 86.253 
L 914.086526 86.253 
L 917.813048 86.253 
L 921.539569 86.253 
L 925.266091 86.253 
L 928.992612 86.253 
L 932.719133 86.253 
L 936.445655 86.253 
L 940.172176 86.253 
L 943.898698 86.253 
L 947.625219 47.949 
" clip-path="url(#p2bc2387890)" style="fill: none; stroke: #008000; stroke-width: 3; stroke-linecap: square"/>
   </g>
   <g id="line2d_35">
    <path d="M 578.699599 451.149 
L 947.625219 47.949 
" clip-path="url(#p2bc2387890)" style="fill: none; stroke-dasharray: 11.1,4.8; stroke-dashoffset: 0; stroke: #000000; stroke-opacity: 0.5; stroke-width: 3"/>
   </g>
   <g id="patch_9">
    <path d="M 560.253318 471.309 
L 560.253318 27.789 
" style="fill: none; stroke: #000000; stroke-width: 2.5; stroke-linejoin: miter; stroke-linecap: square"/>
   </g>
   <g id="patch_10">
    <path d="M 966.0715 471.309 
L 966.0715 27.789 
" style="fill: none; stroke: #000000; stroke-width: 2.5; stroke-linejoin: miter; stroke-linecap: square"/>
   </g>
   <g id="patch_11">
    <path d="M 560.253318 471.309 
L 966.0715 471.309 
" style="fill: none; stroke: #000000; stroke-width: 2.5; stroke-linejoin: miter; stroke-linecap: square"/>
   </g>
   <g id="patch_12">
    <path d="M 560.253318 27.789 
L 966.0715 27.789 
" style="fill: none; stroke: #000000; stroke-width: 2.5; stroke-linejoin: miter; stroke-linecap: square"/>
   </g>
   <g id="text_33">
    <!-- Approach CDT_DI_FI_LIVE_MONTH_54 -->
    <g transform="translate(582.833909 21.789) scale(0.192 -0.192)">
     <use xlink:href="#DejaVuSans-41"/>
     <use xlink:href="#DejaVuSans-70" x="68.408203"/>
     <use xlink:href="#DejaVuSans-70" x="131.884766"/>
     <use xlink:href="#DejaVuSans-72" x="195.361328"/>
     <use xlink:href="#DejaVuSans-6f" x="234.224609"/>
     <use xlink:href="#DejaVuSans-61" x="295.40625"/>
     <use xlink:href="#DejaVuSans-63" x="356.685547"/>
     <use xlink:href="#DejaVuSans-68" x="411.666016"/>
     <use xlink:href="#DejaVuSans-20" x="475.044922"/>
     <use xlink:href="#DejaVuSans-43" x="506.832031"/>
     <use xlink:href="#DejaVuSans-44" x="576.65625"/>
     <use xlink:href="#DejaVuSans-54" x="653.658203"/>
     <use xlink:href="#DejaVuSans-5f" x="714.742188"/>
     <use xlink:href="#DejaVuSans-44" x="764.742188"/>
     <use xlink:href="#DejaVuSans-49" x="841.744141"/>
     <use xlink:href="#DejaVuSans-5f" x="871.236328"/>
     <use xlink:href="#DejaVuSans-46" x="921.236328"/>
     <use xlink:href="#DejaVuSans-49" x="978.755859"/>
     <use xlink:href="#DejaVuSans-5f" x="1008.248047"/>
     <use xlink:href="#DejaVuSans-4c" x="1058.248047"/>
     <use xlink:href="#DejaVuSans-49" x="1113.960938"/>
     <use xlink:href="#DejaVuSans-56" x="1143.453125"/>
     <use xlink:href="#DejaVuSans-45" x="1211.861328"/>
     <use xlink:href="#DejaVuSans-5f" x="1275.044922"/>
     <use xlink:href="#DejaVuSans-4d" x="1325.044922"/>
     <use xlink:href="#DejaVuSans-4f" x="1411.324219"/>
     <use xlink:href="#DejaVuSans-4e" x="1490.035156"/>
     <use xlink:href="#DejaVuSans-54" x="1564.839844"/>
     <use xlink:href="#DejaVuSans-48" x="1625.923828"/>
     <use xlink:href="#DejaVuSans-5f" x="1701.119141"/>
     <use xlink:href="#DejaVuSans-35" x="1751.119141"/>
     <use xlink:href="#DejaVuSans-34" x="1814.742188"/>
    </g>
   </g>
   <g id="legend_2">
    <g id="patch_13">
     <path d="M 808.32325 462.509 
L 953.7515 462.509 
Q 957.2715 462.509 957.2715 458.989 
L 957.2715 383.2485 
Q 957.2715 379.7285 953.7515 379.7285 
L 808.32325 379.7285 
Q 804.80325 379.7285 804.80325 383.2485 
L 804.80325 458.989 
Q 804.80325 462.509 808.32325 462.509 
z
" style="fill: #ffffff; opacity: 0.8; stroke: #cccccc; stroke-width: 2; stroke-linejoin: miter"/>
    </g>
    <g id="line2d_36">
     <path d="M 811.84325 393.98175 
L 829.44325 393.98175 
L 847.04325 393.98175 
" style="fill: none; stroke: #ffa500; stroke-width: 3; stroke-linecap: square"/>
    </g>
    <g id="text_34">
     <!-- LR: 0.7 -->
     <g transform="translate(861.12325 400.14175) scale(0.176 -0.176)">
      <use xlink:href="#DejaVuSans-4c"/>
      <use xlink:href="#DejaVuSans-52" x="55.712891"/>
      <use xlink:href="#DejaVuSans-3a" x="122.070312"/>
      <use xlink:href="#DejaVuSans-20" x="155.761719"/>
      <use xlink:href="#DejaVuSans-30" x="187.548828"/>
      <use xlink:href="#DejaVuSans-2e" x="251.171875"/>
      <use xlink:href="#DejaVuSans-37" x="282.958984"/>
     </g>
    </g>
    <g id="line2d_37">
     <path d="M 811.84325 419.81525 
L 829.44325 419.81525 
L 847.04325 419.81525 
" style="fill: none; stroke: #0000ff; stroke-width: 3; stroke-linecap: square"/>
    </g>
    <g id="text_35">
     <!-- RF: 0.67 -->
     <g transform="translate(861.12325 425.97525) scale(0.176 -0.176)">
      <use xlink:href="#DejaVuSans-52"/>
      <use xlink:href="#DejaVuSans-46" x="69.482422"/>
      <use xlink:href="#DejaVuSans-3a" x="119.251953"/>
      <use xlink:href="#DejaVuSans-20" x="152.943359"/>
      <use xlink:href="#DejaVuSans-30" x="184.730469"/>
      <use xlink:href="#DejaVuSans-2e" x="248.353516"/>
      <use xlink:href="#DejaVuSans-36" x="280.140625"/>
      <use xlink:href="#DejaVuSans-37" x="343.763672"/>
     </g>
    </g>
    <g id="line2d_38">
     <path d="M 811.84325 445.64875 
L 829.44325 445.64875 
L 847.04325 445.64875 
" style="fill: none; stroke: #008000; stroke-width: 3; stroke-linecap: square"/>
    </g>
    <g id="text_36">
     <!-- SVM: 0.75 -->
     <g transform="translate(861.12325 451.80875) scale(0.176 -0.176)">
      <use xlink:href="#DejaVuSans-53"/>
      <use xlink:href="#DejaVuSans-56" x="63.476562"/>
      <use xlink:href="#DejaVuSans-4d" x="131.884766"/>
      <use xlink:href="#DejaVuSans-3a" x="218.164062"/>
      <use xlink:href="#DejaVuSans-20" x="251.855469"/>
      <use xlink:href="#DejaVuSans-30" x="283.642578"/>
      <use xlink:href="#DejaVuSans-2e" x="347.265625"/>
      <use xlink:href="#DejaVuSans-37" x="379.052734"/>
      <use xlink:href="#DejaVuSans-35" x="442.675781"/>
     </g>
    </g>
   </g>
  </g>
 </g>
 <defs>
  <clipPath id="p9493b53bea">
   <rect x="73.2715" y="27.789" width="405.818182" height="443.52"/>
  </clipPath>
  <clipPath id="p2bc2387890">
   <rect x="560.253318" y="27.789" width="405.818182" height="443.52"/>
  </clipPath>
 </defs>
</svg>
