<?xml version="1.0" encoding="utf-8" standalone="no"?>
<!DOCTYPE svg PUBLIC "-//W3C//DTD SVG 1.1//EN"
  "http://www.w3.org/Graphics/SVG/1.1/DTD/svg11.dtd">
<svg xmlns:xlink="http://www.w3.org/1999/xlink" width="973.2715pt" height="533.6245pt" viewBox="0 0 973.2715 533.6245" xmlns="http://www.w3.org/2000/svg" version="1.1">
 <metadata>
  <rdf:RDF xmlns:dc="http://purl.org/dc/elements/1.1/" xmlns:cc="http://creativecommons.org/ns#" xmlns:rdf="http://www.w3.org/1999/02/22-rdf-syntax-ns#">
   <cc:Work>
    <dc:type rdf:resource="http://purl.org/dc/dcmitype/StillImage"/>
    <dc:date>2023-05-10T22:31:02.574594</dc:date>
    <dc:format>image/svg+xml</dc:format>
    <dc:creator>
     <cc:Agent>
      <dc:title>Matplotlib v3.6.2, https://matplotlib.org/</dc:title>
     </cc:Agent>
    </dc:creator>
   </cc:Work>
  </rdf:RDF>
 </metadata>
 <defs>
  <style type="text/css">*{stroke-linejoin: round; stroke-linecap: butt}</style>
 </defs>
 <g id="figure_1">
  <g id="patch_1">
   <path d="M 0 533.6245 
L 973.2715 533.6245 
L 973.2715 0 
L 0 0 
z
" style="fill: #ffffff"/>
  </g>
  <g id="axes_1">
   <g id="patch_2">
    <path d="M 73.2715 471.309 
L 479.089682 471.309 
L 479.089682 27.789 
L 73.2715 27.789 
z
" style="fill: #ffffff"/>
   </g>
   <g id="PolyCollection_1">
    <defs>
     <path id="me09b6172e4" d="M 91.717781 -82.4755 
L 91.717781 -82.4755 
L 95.444302 -82.4755 
L 99.170824 -82.4755 
L 102.897345 -82.4755 
L 106.623867 -82.4755 
L 110.350388 -82.4755 
L 114.076909 -82.4755 
L 117.803431 -82.4755 
L 121.529952 -82.4755 
L 125.256474 -82.4755 
L 128.982995 -82.4755 
L 132.709517 -82.4755 
L 136.436038 -82.4755 
L 140.162559 -82.4755 
L 143.889081 -82.4755 
L 147.615602 -82.4755 
L 151.342124 -82.4755 
L 155.068645 -82.4755 
L 158.795166 -82.4755 
L 162.521688 -82.4755 
L 166.248209 -82.4755 
L 169.974731 -82.4755 
L 173.701252 -82.4755 
L 177.427773 -82.4755 
L 181.154295 -82.4755 
L 184.880816 -82.4755 
L 188.607338 -82.4755 
L 192.333859 -82.4755 
L 196.060381 -82.4755 
L 199.786902 -82.4755 
L 203.513423 -82.4755 
L 207.239945 -82.4755 
L 210.966466 -82.4755 
L 214.692988 -183.2755 
L 218.419509 -183.2755 
L 222.14603 -183.2755 
L 225.872552 -183.2755 
L 229.599073 -183.2755 
L 233.325595 -183.2755 
L 237.052116 -183.2755 
L 240.778637 -183.2755 
L 244.505159 -183.2755 
L 248.23168 -183.2755 
L 251.958202 -183.2755 
L 255.684723 -183.2755 
L 259.411245 -183.2755 
L 263.137766 -183.2755 
L 266.864287 -183.2755 
L 270.590809 -183.2755 
L 274.31733 -183.2755 
L 278.043852 -183.2755 
L 281.770373 -183.2755 
L 285.496894 -183.2755 
L 289.223416 -183.2755 
L 292.949937 -183.2755 
L 296.676459 -183.2755 
L 300.40298 -183.2755 
L 304.129502 -183.2755 
L 307.856023 -183.2755 
L 311.582544 -183.2755 
L 315.309066 -183.2755 
L 319.035587 -183.2755 
L 322.762109 -183.2755 
L 326.48863 -183.2755 
L 330.215151 -183.2755 
L 333.941673 -183.2755 
L 337.668194 -324.3955 
L 341.394716 -324.3955 
L 345.121237 -324.3955 
L 348.847758 -324.3955 
L 352.57428 -324.3955 
L 356.300801 -324.3955 
L 360.027323 -324.3955 
L 363.753844 -324.3955 
L 367.480366 -324.3955 
L 371.206887 -324.3955 
L 374.933408 -324.3955 
L 378.65993 -324.3955 
L 382.386451 -324.3955 
L 386.112973 -324.3955 
L 389.839494 -324.3955 
L 393.566015 -324.3955 
L 397.292537 -324.3955 
L 401.019058 -324.3955 
L 404.74558 -324.3955 
L 408.472101 -324.3955 
L 412.198622 -324.3955 
L 415.925144 -324.3955 
L 419.651665 -324.3955 
L 423.378187 -324.3955 
L 427.104708 -324.3955 
L 430.83123 -324.3955 
L 434.557751 -324.3955 
L 438.284272 -324.3955 
L 442.010794 -324.3955 
L 445.737315 -324.3955 
L 449.463837 -324.3955 
L 453.190358 -324.3955 
L 456.916879 -324.3955 
L 460.643401 -485.6755 
L 460.643401 -485.6755 
L 460.643401 -485.6755 
L 456.916879 -485.6755 
L 453.190358 -485.6755 
L 449.463837 -485.6755 
L 445.737315 -485.6755 
L 442.010794 -485.6755 
L 438.284272 -485.6755 
L 434.557751 -485.6755 
L 430.83123 -485.6755 
L 427.104708 -485.6755 
L 423.378187 -485.6755 
L 419.651665 -485.6755 
L 415.925144 -485.6755 
L 412.198622 -485.6755 
L 408.472101 -485.6755 
L 404.74558 -485.6755 
L 401.019058 -485.6755 
L 397.292537 -485.6755 
L 393.566015 -485.6755 
L 389.839494 -485.6755 
L 386.112973 -485.6755 
L 382.386451 -485.6755 
L 378.65993 -485.6755 
L 374.933408 -485.6755 
L 371.206887 -485.6755 
L 367.480366 -485.6755 
L 363.753844 -485.6755 
L 360.027323 -485.6755 
L 356.300801 -485.6755 
L 352.57428 -485.6755 
L 348.847758 -485.6755 
L 345.121237 -485.6755 
L 341.394716 -485.6755 
L 337.668194 -485.6755 
L 333.941673 -485.6755 
L 330.215151 -485.6755 
L 326.48863 -485.6755 
L 322.762109 -485.6755 
L 319.035587 -485.6755 
L 315.309066 -485.6755 
L 311.582544 -485.6755 
L 307.856023 -485.6755 
L 304.129502 -485.6755 
L 300.40298 -485.6755 
L 296.676459 -485.6755 
L 292.949937 -485.6755 
L 289.223416 -485.6755 
L 285.496894 -485.6755 
L 281.770373 -485.6755 
L 278.043852 -485.6755 
L 274.31733 -485.6755 
L 270.590809 -485.6755 
L 266.864287 -485.6755 
L 263.137766 -485.6755 
L 259.411245 -485.6755 
L 255.684723 -485.6755 
L 251.958202 -485.6755 
L 248.23168 -485.6755 
L 244.505159 -485.6755 
L 240.778637 -485.6755 
L 237.052116 -485.6755 
L 233.325595 -485.6755 
L 229.599073 -485.6755 
L 225.872552 -485.6755 
L 222.14603 -485.6755 
L 218.419509 -485.6755 
L 214.692988 -485.6755 
L 210.966466 -405.0355 
L 207.239945 -405.0355 
L 203.513423 -405.0355 
L 199.786902 -405.0355 
L 196.060381 -405.0355 
L 192.333859 -405.0355 
L 188.607338 -405.0355 
L 184.880816 -405.0355 
L 181.154295 -405.0355 
L 177.427773 -405.0355 
L 173.701252 -405.0355 
L 169.974731 -405.0355 
L 166.248209 -405.0355 
L 162.521688 -405.0355 
L 158.795166 -405.0355 
L 155.068645 -405.0355 
L 151.342124 -405.0355 
L 147.615602 -405.0355 
L 143.889081 -405.0355 
L 140.162559 -405.0355 
L 136.436038 -405.0355 
L 132.709517 -405.0355 
L 128.982995 -405.0355 
L 125.256474 -405.0355 
L 121.529952 -405.0355 
L 117.803431 -405.0355 
L 114.076909 -405.0355 
L 110.350388 -405.0355 
L 106.623867 -405.0355 
L 102.897345 -405.0355 
L 99.170824 -405.0355 
L 95.444302 -405.0355 
L 91.717781 -82.4755 
z
" style="stroke: #ffa500; stroke-opacity: 0.2; stroke-width: 2"/>
    </defs>
    <g clip-path="url(#pfb7222c820)">
     <use xlink:href="#me09b6172e4" x="0" y="533.6245" style="fill: #ffa500; fill-opacity: 0.2; stroke: #ffa500; stroke-opacity: 0.2; stroke-width: 2"/>
    </g>
   </g>
   <g id="PolyCollection_2">
    <defs>
     <path id="m4341f0fc81" d="M 91.717781 -82.4755 
L 91.717781 -82.4755 
L 95.444302 -82.4755 
L 99.170824 -82.4755 
L 102.897345 -82.4755 
L 106.623867 -82.4755 
L 110.350388 -82.4755 
L 114.076909 -82.4755 
L 117.803431 -82.4755 
L 121.529952 -82.4755 
L 125.256474 -82.4755 
L 128.982995 -82.4755 
L 132.709517 -82.4755 
L 136.436038 -82.4755 
L 140.162559 -82.4755 
L 143.889081 -82.4755 
L 147.615602 -82.4755 
L 151.342124 -82.4755 
L 155.068645 -82.4755 
L 158.795166 -82.4755 
L 162.521688 -82.4755 
L 166.248209 -82.4755 
L 169.974731 -82.4755 
L 173.701252 -82.4755 
L 177.427773 -82.4755 
L 181.154295 -82.4755 
L 184.880816 -82.4755 
L 188.607338 -82.4755 
L 192.333859 -82.4755 
L 196.060381 -82.4755 
L 199.786902 -82.4755 
L 203.513423 -82.4755 
L 207.239945 -82.4755 
L 210.966466 -82.4755 
L 214.692988 -82.4755 
L 218.419509 -85.530045 
L 222.14603 -88.584591 
L 225.872552 -91.639136 
L 229.599073 -94.693682 
L 233.325595 -97.748227 
L 237.052116 -100.802773 
L 240.778637 -103.857318 
L 244.505159 -106.911864 
L 248.23168 -109.966409 
L 251.958202 -113.020955 
L 255.684723 -116.0755 
L 259.411245 -119.130045 
L 263.137766 -122.184591 
L 266.864287 -125.239136 
L 270.590809 -128.293682 
L 274.31733 -131.348227 
L 278.043852 -134.402773 
L 281.770373 -137.457318 
L 285.496894 -140.511864 
L 289.223416 -143.566409 
L 292.949937 -146.620955 
L 296.676459 -149.6755 
L 300.40298 -152.730045 
L 304.129502 -155.784591 
L 307.856023 -158.839136 
L 311.582544 -161.893682 
L 315.309066 -164.948227 
L 319.035587 -168.002773 
L 322.762109 -171.057318 
L 326.48863 -174.111864 
L 330.215151 -177.166409 
L 333.941673 -180.220955 
L 337.668194 -183.2755 
L 341.394716 -189.384591 
L 345.121237 -195.493682 
L 348.847758 -201.602773 
L 352.57428 -207.711864 
L 356.300801 -213.820955 
L 360.027323 -219.930045 
L 363.753844 -226.039136 
L 367.480366 -232.148227 
L 371.206887 -238.257318 
L 374.933408 -244.366409 
L 378.65993 -250.4755 
L 382.386451 -256.584591 
L 386.112973 -262.693682 
L 389.839494 -268.802773 
L 393.566015 -274.911864 
L 397.292537 -281.020955 
L 401.019058 -287.130045 
L 404.74558 -293.239136 
L 408.472101 -299.348227 
L 412.198622 -305.457318 
L 415.925144 -311.566409 
L 419.651665 -317.6755 
L 423.378187 -323.784591 
L 427.104708 -324.3955 
L 430.83123 -324.3955 
L 434.557751 -324.3955 
L 438.284272 -324.3955 
L 442.010794 -324.3955 
L 445.737315 -324.3955 
L 449.463837 -324.3955 
L 453.190358 -324.3955 
L 456.916879 -324.3955 
L 460.643401 -485.6755 
L 460.643401 -485.6755 
L 460.643401 -485.6755 
L 456.916879 -485.6755 
L 453.190358 -485.6755 
L 449.463837 -485.6755 
L 445.737315 -485.6755 
L 442.010794 -485.6755 
L 438.284272 -485.6755 
L 434.557751 -485.6755 
L 430.83123 -485.6755 
L 427.104708 -485.6755 
L 423.378187 -485.6755 
L 419.651665 -485.6755 
L 415.925144 -485.6755 
L 412.198622 -485.6755 
L 408.472101 -485.6755 
L 404.74558 -485.6755 
L 401.019058 -485.6755 
L 397.292537 -485.6755 
L 393.566015 -485.6755 
L 389.839494 -485.6755 
L 386.112973 -485.6755 
L 382.386451 -485.6755 
L 378.65993 -485.6755 
L 374.933408 -485.6755 
L 371.206887 -485.6755 
L 367.480366 -485.6755 
L 363.753844 -485.6755 
L 360.027323 -485.6755 
L 356.300801 -485.6755 
L 352.57428 -485.6755 
L 348.847758 -485.6755 
L 345.121237 -485.6755 
L 341.394716 -485.6755 
L 337.668194 -485.6755 
L 333.941673 -485.6755 
L 330.215151 -485.6755 
L 326.48863 -485.6755 
L 322.762109 -485.6755 
L 319.035587 -485.6755 
L 315.309066 -485.6755 
L 311.582544 -485.6755 
L 307.856023 -485.6755 
L 304.129502 -485.6755 
L 300.40298 -485.6755 
L 296.676459 -485.6755 
L 292.949937 -485.6755 
L 289.223416 -485.6755 
L 285.496894 -485.6755 
L 281.770373 -485.6755 
L 278.043852 -485.6755 
L 274.31733 -485.6755 
L 270.590809 -485.6755 
L 266.864287 -485.6755 
L 263.137766 -485.6755 
L 259.411245 -485.6755 
L 255.684723 -485.6755 
L 251.958202 -485.6755 
L 248.23168 -485.6755 
L 244.505159 -485.6755 
L 240.778637 -485.6755 
L 237.052116 -485.6755 
L 233.325595 -485.6755 
L 229.599073 -485.6755 
L 225.872552 -485.6755 
L 222.14603 -485.6755 
L 218.419509 -485.6755 
L 214.692988 -485.6755 
L 210.966466 -485.6755 
L 207.239945 -485.6755 
L 203.513423 -485.6755 
L 199.786902 -485.6755 
L 196.060381 -485.6755 
L 192.333859 -485.6755 
L 188.607338 -485.6755 
L 184.880816 -485.6755 
L 181.154295 -485.6755 
L 177.427773 -485.6755 
L 173.701252 -485.6755 
L 169.974731 -485.6755 
L 166.248209 -485.6755 
L 162.521688 -485.6755 
L 158.795166 -485.6755 
L 155.068645 -485.6755 
L 151.342124 -485.6755 
L 147.615602 -485.6755 
L 143.889081 -485.6755 
L 140.162559 -485.6755 
L 136.436038 -485.6755 
L 132.709517 -485.6755 
L 128.982995 -485.6755 
L 125.256474 -485.6755 
L 121.529952 -485.6755 
L 117.803431 -485.6755 
L 114.076909 -485.6755 
L 110.350388 -485.6755 
L 106.623867 -485.6755 
L 102.897345 -485.6755 
L 99.170824 -485.6755 
L 95.444302 -485.6755 
L 91.717781 -82.4755 
z
" style="stroke: #0000ff; stroke-opacity: 0.2; stroke-width: 2"/>
    </defs>
    <g clip-path="url(#pfb7222c820)">
     <use xlink:href="#m4341f0fc81" x="0" y="533.6245" style="fill: #0000ff; fill-opacity: 0.2; stroke: #0000ff; stroke-opacity: 0.2; stroke-width: 2"/>
    </g>
   </g>
   <g id="PolyCollection_3">
    <defs>
     <path id="ma8b53730b5" d="M 91.717781 -82.4755 
L 91.717781 -82.4755 
L 95.444302 -82.4755 
L 99.170824 -82.4755 
L 102.897345 -82.4755 
L 106.623867 -82.4755 
L 110.350388 -82.4755 
L 114.076909 -82.4755 
L 117.803431 -82.4755 
L 121.529952 -82.4755 
L 125.256474 -82.4755 
L 128.982995 -82.4755 
L 132.709517 -82.4755 
L 136.436038 -82.4755 
L 140.162559 -82.4755 
L 143.889081 -82.4755 
L 147.615602 -82.4755 
L 151.342124 -82.4755 
L 155.068645 -82.4755 
L 158.795166 -82.4755 
L 162.521688 -82.4755 
L 166.248209 -82.4755 
L 169.974731 -82.4755 
L 173.701252 -82.4755 
L 177.427773 -82.4755 
L 181.154295 -82.4755 
L 184.880816 -82.4755 
L 188.607338 -82.4755 
L 192.333859 -82.4755 
L 196.060381 -82.4755 
L 199.786902 -82.4755 
L 203.513423 -82.4755 
L 207.239945 -82.4755 
L 210.966466 -82.4755 
L 214.692988 -82.4755 
L 218.419509 -82.4755 
L 222.14603 -82.4755 
L 225.872552 -82.4755 
L 229.599073 -82.4755 
L 233.325595 -82.4755 
L 237.052116 -82.4755 
L 240.778637 -82.4755 
L 244.505159 -82.4755 
L 248.23168 -82.4755 
L 251.958202 -82.4755 
L 255.684723 -82.4755 
L 259.411245 -82.4755 
L 263.137766 -82.4755 
L 266.864287 -82.4755 
L 270.590809 -82.4755 
L 274.31733 -82.4755 
L 278.043852 -82.4755 
L 281.770373 -82.4755 
L 285.496894 -82.4755 
L 289.223416 -82.4755 
L 292.949937 -82.4755 
L 296.676459 -82.4755 
L 300.40298 -82.4755 
L 304.129502 -82.4755 
L 307.856023 -82.4755 
L 311.582544 -82.4755 
L 315.309066 -82.4755 
L 319.035587 -82.4755 
L 322.762109 -82.4755 
L 326.48863 -82.4755 
L 330.215151 -82.4755 
L 333.941673 -82.4755 
L 337.668194 -243.7555 
L 341.394716 -243.7555 
L 345.121237 -243.7555 
L 348.847758 -243.7555 
L 352.57428 -243.7555 
L 356.300801 -243.7555 
L 360.027323 -243.7555 
L 363.753844 -243.7555 
L 367.480366 -243.7555 
L 371.206887 -243.7555 
L 374.933408 -243.7555 
L 378.65993 -243.7555 
L 382.386451 -243.7555 
L 386.112973 -243.7555 
L 389.839494 -243.7555 
L 393.566015 -243.7555 
L 397.292537 -243.7555 
L 401.019058 -243.7555 
L 404.74558 -243.7555 
L 408.472101 -243.7555 
L 412.198622 -243.7555 
L 415.925144 -243.7555 
L 419.651665 -243.7555 
L 423.378187 -243.7555 
L 427.104708 -243.7555 
L 430.83123 -243.7555 
L 434.557751 -243.7555 
L 438.284272 -243.7555 
L 442.010794 -243.7555 
L 445.737315 -243.7555 
L 449.463837 -243.7555 
L 453.190358 -243.7555 
L 456.916879 -243.7555 
L 460.643401 -485.6755 
L 460.643401 -485.6755 
L 460.643401 -485.6755 
L 456.916879 -485.6755 
L 453.190358 -485.6755 
L 449.463837 -485.6755 
L 445.737315 -485.6755 
L 442.010794 -485.6755 
L 438.284272 -485.6755 
L 434.557751 -485.6755 
L 430.83123 -485.6755 
L 427.104708 -485.6755 
L 423.378187 -485.6755 
L 419.651665 -485.6755 
L 415.925144 -485.6755 
L 412.198622 -485.6755 
L 408.472101 -485.6755 
L 404.74558 -485.6755 
L 401.019058 -485.6755 
L 397.292537 -485.6755 
L 393.566015 -485.6755 
L 389.839494 -485.6755 
L 386.112973 -485.6755 
L 382.386451 -485.6755 
L 378.65993 -485.6755 
L 374.933408 -485.6755 
L 371.206887 -485.6755 
L 367.480366 -485.6755 
L 363.753844 -485.6755 
L 360.027323 -485.6755 
L 356.300801 -485.6755 
L 352.57428 -485.6755 
L 348.847758 -485.6755 
L 345.121237 -485.6755 
L 341.394716 -485.6755 
L 337.668194 -485.6755 
L 333.941673 -485.6755 
L 330.215151 -485.6755 
L 326.48863 -485.6755 
L 322.762109 -485.6755 
L 319.035587 -485.6755 
L 315.309066 -485.6755 
L 311.582544 -485.6755 
L 307.856023 -485.6755 
L 304.129502 -485.6755 
L 300.40298 -485.6755 
L 296.676459 -485.6755 
L 292.949937 -485.6755 
L 289.223416 -485.6755 
L 285.496894 -485.6755 
L 281.770373 -485.6755 
L 278.043852 -485.6755 
L 274.31733 -405.0355 
L 270.590809 -405.0355 
L 266.864287 -405.0355 
L 263.137766 -405.0355 
L 259.411245 -405.0355 
L 255.684723 -405.0355 
L 251.958202 -405.0355 
L 248.23168 -405.0355 
L 244.505159 -405.0355 
L 240.778637 -405.0355 
L 237.052116 -405.0355 
L 233.325595 -405.0355 
L 229.599073 -405.0355 
L 225.872552 -405.0355 
L 222.14603 -405.0355 
L 218.419509 -405.0355 
L 214.692988 -405.0355 
L 210.966466 -405.0355 
L 207.239945 -405.0355 
L 203.513423 -405.0355 
L 199.786902 -405.0355 
L 196.060381 -405.0355 
L 192.333859 -405.0355 
L 188.607338 -405.0355 
L 184.880816 -405.0355 
L 181.154295 -405.0355 
L 177.427773 -405.0355 
L 173.701252 -405.0355 
L 169.974731 -405.0355 
L 166.248209 -405.0355 
L 162.521688 -405.0355 
L 158.795166 -405.0355 
L 155.068645 -405.0355 
L 151.342124 -405.0355 
L 147.615602 -405.0355 
L 143.889081 -405.0355 
L 140.162559 -405.0355 
L 136.436038 -405.0355 
L 132.709517 -405.0355 
L 128.982995 -405.0355 
L 125.256474 -405.0355 
L 121.529952 -405.0355 
L 117.803431 -405.0355 
L 114.076909 -405.0355 
L 110.350388 -405.0355 
L 106.623867 -405.0355 
L 102.897345 -405.0355 
L 99.170824 -405.0355 
L 95.444302 -405.0355 
L 91.717781 -82.4755 
z
" style="stroke: #008000; stroke-opacity: 0.2; stroke-width: 2"/>
    </defs>
    <g clip-path="url(#pfb7222c820)">
     <use xlink:href="#ma8b53730b5" x="0" y="533.6245" style="fill: #008000; fill-opacity: 0.2; stroke: #008000; stroke-opacity: 0.2; stroke-width: 2"/>
    </g>
   </g>
   <g id="matplotlib.axis_1">
    <g id="xtick_1">
     <g id="line2d_1">
      <defs>
       <path id="m9872017e1e" d="M 0 0 
L 0 12 
" style="stroke: #000000; stroke-width: 2.5"/>
      </defs>
      <g>
       <use xlink:href="#m9872017e1e" x="91.717781" y="471.309" style="stroke: #000000; stroke-width: 2.5"/>
      </g>
     </g>
     <g id="text_1">
      <!-- 0.0 -->
      <g transform="translate(77.723031 500.18225) scale(0.176 -0.176)">
       <defs>
        <path id="DejaVuSans-30" d="M 2034 4250 
Q 1547 4250 1301 3770 
Q 1056 3291 1056 2328 
Q 1056 1369 1301 889 
Q 1547 409 2034 409 
Q 2525 409 2770 889 
Q 3016 1369 3016 2328 
Q 3016 3291 2770 3770 
Q 2525 4250 2034 4250 
z
M 2034 4750 
Q 2819 4750 3233 4129 
Q 3647 3509 3647 2328 
Q 3647 1150 3233 529 
Q 2819 -91 2034 -91 
Q 1250 -91 836 529 
Q 422 1150 422 2328 
Q 422 3509 836 4129 
Q 1250 4750 2034 4750 
z
" transform="scale(0.015625)"/>
        <path id="DejaVuSans-2e" d="M 684 794 
L 1344 794 
L 1344 0 
L 684 0 
L 684 794 
z
" transform="scale(0.015625)"/>
       </defs>
       <use xlink:href="#DejaVuSans-30"/>
       <use xlink:href="#DejaVuSans-2e" x="63.623047"/>
       <use xlink:href="#DejaVuSans-30" x="95.410156"/>
      </g>
     </g>
    </g>
    <g id="xtick_2">
     <g id="line2d_2">
      <g>
       <use xlink:href="#m9872017e1e" x="165.502905" y="471.309" style="stroke: #000000; stroke-width: 2.5"/>
      </g>
     </g>
     <g id="text_2">
      <!-- 0.2 -->
      <g transform="translate(151.508155 500.18225) scale(0.176 -0.176)">
       <defs>
        <path id="DejaVuSans-32" d="M 1228 531 
L 3431 531 
L 3431 0 
L 469 0 
L 469 531 
Q 828 903 1448 1529 
Q 2069 2156 2228 2338 
Q 2531 2678 2651 2914 
Q 2772 3150 2772 3378 
Q 2772 3750 2511 3984 
Q 2250 4219 1831 4219 
Q 1534 4219 1204 4116 
Q 875 4013 500 3803 
L 500 4441 
Q 881 4594 1212 4672 
Q 1544 4750 1819 4750 
Q 2544 4750 2975 4387 
Q 3406 4025 3406 3419 
Q 3406 3131 3298 2873 
Q 3191 2616 2906 2266 
Q 2828 2175 2409 1742 
Q 1991 1309 1228 531 
z
" transform="scale(0.015625)"/>
       </defs>
       <use xlink:href="#DejaVuSans-30"/>
       <use xlink:href="#DejaVuSans-2e" x="63.623047"/>
       <use xlink:href="#DejaVuSans-32" x="95.410156"/>
      </g>
     </g>
    </g>
    <g id="xtick_3">
     <g id="line2d_3">
      <g>
       <use xlink:href="#m9872017e1e" x="239.288029" y="471.309" style="stroke: #000000; stroke-width: 2.5"/>
      </g>
     </g>
     <g id="text_3">
      <!-- 0.4 -->
      <g transform="translate(225.293279 500.18225) scale(0.176 -0.176)">
       <defs>
        <path id="DejaVuSans-34" d="M 2419 4116 
L 825 1625 
L 2419 1625 
L 2419 4116 
z
M 2253 4666 
L 3047 4666 
L 3047 1625 
L 3713 1625 
L 3713 1100 
L 3047 1100 
L 3047 0 
L 2419 0 
L 2419 1100 
L 313 1100 
L 313 1709 
L 2253 4666 
z
" transform="scale(0.015625)"/>
       </defs>
       <use xlink:href="#DejaVuSans-30"/>
       <use xlink:href="#DejaVuSans-2e" x="63.623047"/>
       <use xlink:href="#DejaVuSans-34" x="95.410156"/>
      </g>
     </g>
    </g>
    <g id="xtick_4">
     <g id="line2d_4">
      <g>
       <use xlink:href="#m9872017e1e" x="313.073153" y="471.309" style="stroke: #000000; stroke-width: 2.5"/>
      </g>
     </g>
     <g id="text_4">
      <!-- 0.6 -->
      <g transform="translate(299.078403 500.18225) scale(0.176 -0.176)">
       <defs>
        <path id="DejaVuSans-36" d="M 2113 2584 
Q 1688 2584 1439 2293 
Q 1191 2003 1191 1497 
Q 1191 994 1439 701 
Q 1688 409 2113 409 
Q 2538 409 2786 701 
Q 3034 994 3034 1497 
Q 3034 2003 2786 2293 
Q 2538 2584 2113 2584 
z
M 3366 4563 
L 3366 3988 
Q 3128 4100 2886 4159 
Q 2644 4219 2406 4219 
Q 1781 4219 1451 3797 
Q 1122 3375 1075 2522 
Q 1259 2794 1537 2939 
Q 1816 3084 2150 3084 
Q 2853 3084 3261 2657 
Q 3669 2231 3669 1497 
Q 3669 778 3244 343 
Q 2819 -91 2113 -91 
Q 1303 -91 875 529 
Q 447 1150 447 2328 
Q 447 3434 972 4092 
Q 1497 4750 2381 4750 
Q 2619 4750 2861 4703 
Q 3103 4656 3366 4563 
z
" transform="scale(0.015625)"/>
       </defs>
       <use xlink:href="#DejaVuSans-30"/>
       <use xlink:href="#DejaVuSans-2e" x="63.623047"/>
       <use xlink:href="#DejaVuSans-36" x="95.410156"/>
      </g>
     </g>
    </g>
    <g id="xtick_5">
     <g id="line2d_5">
      <g>
       <use xlink:href="#m9872017e1e" x="386.858277" y="471.309" style="stroke: #000000; stroke-width: 2.5"/>
      </g>
     </g>
     <g id="text_5">
      <!-- 0.8 -->
      <g transform="translate(372.863527 500.18225) scale(0.176 -0.176)">
       <defs>
        <path id="DejaVuSans-38" d="M 2034 2216 
Q 1584 2216 1326 1975 
Q 1069 1734 1069 1313 
Q 1069 891 1326 650 
Q 1584 409 2034 409 
Q 2484 409 2743 651 
Q 3003 894 3003 1313 
Q 3003 1734 2745 1975 
Q 2488 2216 2034 2216 
z
M 1403 2484 
Q 997 2584 770 2862 
Q 544 3141 544 3541 
Q 544 4100 942 4425 
Q 1341 4750 2034 4750 
Q 2731 4750 3128 4425 
Q 3525 4100 3525 3541 
Q 3525 3141 3298 2862 
Q 3072 2584 2669 2484 
Q 3125 2378 3379 2068 
Q 3634 1759 3634 1313 
Q 3634 634 3220 271 
Q 2806 -91 2034 -91 
Q 1263 -91 848 271 
Q 434 634 434 1313 
Q 434 1759 690 2068 
Q 947 2378 1403 2484 
z
M 1172 3481 
Q 1172 3119 1398 2916 
Q 1625 2713 2034 2713 
Q 2441 2713 2670 2916 
Q 2900 3119 2900 3481 
Q 2900 3844 2670 4047 
Q 2441 4250 2034 4250 
Q 1625 4250 1398 4047 
Q 1172 3844 1172 3481 
z
" transform="scale(0.015625)"/>
       </defs>
       <use xlink:href="#DejaVuSans-30"/>
       <use xlink:href="#DejaVuSans-2e" x="63.623047"/>
       <use xlink:href="#DejaVuSans-38" x="95.410156"/>
      </g>
     </g>
    </g>
    <g id="xtick_6">
     <g id="line2d_6">
      <g>
       <use xlink:href="#m9872017e1e" x="460.643401" y="471.309" style="stroke: #000000; stroke-width: 2.5"/>
      </g>
     </g>
     <g id="text_6">
      <!-- 1.0 -->
      <g transform="translate(446.648651 500.18225) scale(0.176 -0.176)">
       <defs>
        <path id="DejaVuSans-31" d="M 794 531 
L 1825 531 
L 1825 4091 
L 703 3866 
L 703 4441 
L 1819 4666 
L 2450 4666 
L 2450 531 
L 3481 531 
L 3481 0 
L 794 0 
L 794 531 
z
" transform="scale(0.015625)"/>
       </defs>
       <use xlink:href="#DejaVuSans-31"/>
       <use xlink:href="#DejaVuSans-2e" x="63.623047"/>
       <use xlink:href="#DejaVuSans-30" x="95.410156"/>
      </g>
     </g>
    </g>
    <g id="text_7">
     <!-- False Positive Rate -->
     <g transform="translate(186.965091 522.4315) scale(0.192 -0.192)">
      <defs>
       <path id="DejaVuSans-46" d="M 628 4666 
L 3309 4666 
L 3309 4134 
L 1259 4134 
L 1259 2759 
L 3109 2759 
L 3109 2228 
L 1259 2228 
L 1259 0 
L 628 0 
L 628 4666 
z
" transform="scale(0.015625)"/>
       <path id="DejaVuSans-61" d="M 2194 1759 
Q 1497 1759 1228 1600 
Q 959 1441 959 1056 
Q 959 750 1161 570 
Q 1363 391 1709 391 
Q 2188 391 2477 730 
Q 2766 1069 2766 1631 
L 2766 1759 
L 2194 1759 
z
M 3341 1997 
L 3341 0 
L 2766 0 
L 2766 531 
Q 2569 213 2275 61 
Q 1981 -91 1556 -91 
Q 1019 -91 701 211 
Q 384 513 384 1019 
Q 384 1609 779 1909 
Q 1175 2209 1959 2209 
L 2766 2209 
L 2766 2266 
Q 2766 2663 2505 2880 
Q 2244 3097 1772 3097 
Q 1472 3097 1187 3025 
Q 903 2953 641 2809 
L 641 3341 
Q 956 3463 1253 3523 
Q 1550 3584 1831 3584 
Q 2591 3584 2966 3190 
Q 3341 2797 3341 1997 
z
" transform="scale(0.015625)"/>
       <path id="DejaVuSans-6c" d="M 603 4863 
L 1178 4863 
L 1178 0 
L 603 0 
L 603 4863 
z
" transform="scale(0.015625)"/>
       <path id="DejaVuSans-73" d="M 2834 3397 
L 2834 2853 
Q 2591 2978 2328 3040 
Q 2066 3103 1784 3103 
Q 1356 3103 1142 2972 
Q 928 2841 928 2578 
Q 928 2378 1081 2264 
Q 1234 2150 1697 2047 
L 1894 2003 
Q 2506 1872 2764 1633 
Q 3022 1394 3022 966 
Q 3022 478 2636 193 
Q 2250 -91 1575 -91 
Q 1294 -91 989 -36 
Q 684 19 347 128 
L 347 722 
Q 666 556 975 473 
Q 1284 391 1588 391 
Q 1994 391 2212 530 
Q 2431 669 2431 922 
Q 2431 1156 2273 1281 
Q 2116 1406 1581 1522 
L 1381 1569 
Q 847 1681 609 1914 
Q 372 2147 372 2553 
Q 372 3047 722 3315 
Q 1072 3584 1716 3584 
Q 2034 3584 2315 3537 
Q 2597 3491 2834 3397 
z
" transform="scale(0.015625)"/>
       <path id="DejaVuSans-65" d="M 3597 1894 
L 3597 1613 
L 953 1613 
Q 991 1019 1311 708 
Q 1631 397 2203 397 
Q 2534 397 2845 478 
Q 3156 559 3463 722 
L 3463 178 
Q 3153 47 2828 -22 
Q 2503 -91 2169 -91 
Q 1331 -91 842 396 
Q 353 884 353 1716 
Q 353 2575 817 3079 
Q 1281 3584 2069 3584 
Q 2775 3584 3186 3129 
Q 3597 2675 3597 1894 
z
M 3022 2063 
Q 3016 2534 2758 2815 
Q 2500 3097 2075 3097 
Q 1594 3097 1305 2825 
Q 1016 2553 972 2059 
L 3022 2063 
z
" transform="scale(0.015625)"/>
       <path id="DejaVuSans-20" transform="scale(0.015625)"/>
       <path id="DejaVuSans-50" d="M 1259 4147 
L 1259 2394 
L 2053 2394 
Q 2494 2394 2734 2622 
Q 2975 2850 2975 3272 
Q 2975 3691 2734 3919 
Q 2494 4147 2053 4147 
L 1259 4147 
z
M 628 4666 
L 2053 4666 
Q 2838 4666 3239 4311 
Q 3641 3956 3641 3272 
Q 3641 2581 3239 2228 
Q 2838 1875 2053 1875 
L 1259 1875 
L 1259 0 
L 628 0 
L 628 4666 
z
" transform="scale(0.015625)"/>
       <path id="DejaVuSans-6f" d="M 1959 3097 
Q 1497 3097 1228 2736 
Q 959 2375 959 1747 
Q 959 1119 1226 758 
Q 1494 397 1959 397 
Q 2419 397 2687 759 
Q 2956 1122 2956 1747 
Q 2956 2369 2687 2733 
Q 2419 3097 1959 3097 
z
M 1959 3584 
Q 2709 3584 3137 3096 
Q 3566 2609 3566 1747 
Q 3566 888 3137 398 
Q 2709 -91 1959 -91 
Q 1206 -91 779 398 
Q 353 888 353 1747 
Q 353 2609 779 3096 
Q 1206 3584 1959 3584 
z
" transform="scale(0.015625)"/>
       <path id="DejaVuSans-69" d="M 603 3500 
L 1178 3500 
L 1178 0 
L 603 0 
L 603 3500 
z
M 603 4863 
L 1178 4863 
L 1178 4134 
L 603 4134 
L 603 4863 
z
" transform="scale(0.015625)"/>
       <path id="DejaVuSans-74" d="M 1172 4494 
L 1172 3500 
L 2356 3500 
L 2356 3053 
L 1172 3053 
L 1172 1153 
Q 1172 725 1289 603 
Q 1406 481 1766 481 
L 2356 481 
L 2356 0 
L 1766 0 
Q 1100 0 847 248 
Q 594 497 594 1153 
L 594 3053 
L 172 3053 
L 172 3500 
L 594 3500 
L 594 4494 
L 1172 4494 
z
" transform="scale(0.015625)"/>
       <path id="DejaVuSans-76" d="M 191 3500 
L 800 3500 
L 1894 563 
L 2988 3500 
L 3597 3500 
L 2284 0 
L 1503 0 
L 191 3500 
z
" transform="scale(0.015625)"/>
       <path id="DejaVuSans-52" d="M 2841 2188 
Q 3044 2119 3236 1894 
Q 3428 1669 3622 1275 
L 4263 0 
L 3584 0 
L 2988 1197 
Q 2756 1666 2539 1819 
Q 2322 1972 1947 1972 
L 1259 1972 
L 1259 0 
L 628 0 
L 628 4666 
L 2053 4666 
Q 2853 4666 3247 4331 
Q 3641 3997 3641 3322 
Q 3641 2881 3436 2590 
Q 3231 2300 2841 2188 
z
M 1259 4147 
L 1259 2491 
L 2053 2491 
Q 2509 2491 2742 2702 
Q 2975 2913 2975 3322 
Q 2975 3731 2742 3939 
Q 2509 4147 2053 4147 
L 1259 4147 
z
" transform="scale(0.015625)"/>
      </defs>
      <use xlink:href="#DejaVuSans-46"/>
      <use xlink:href="#DejaVuSans-61" x="48.394531"/>
      <use xlink:href="#DejaVuSans-6c" x="109.673828"/>
      <use xlink:href="#DejaVuSans-73" x="137.457031"/>
      <use xlink:href="#DejaVuSans-65" x="189.556641"/>
      <use xlink:href="#DejaVuSans-20" x="251.080078"/>
      <use xlink:href="#DejaVuSans-50" x="282.867188"/>
      <use xlink:href="#DejaVuSans-6f" x="339.544922"/>
      <use xlink:href="#DejaVuSans-73" x="400.726562"/>
      <use xlink:href="#DejaVuSans-69" x="452.826172"/>
      <use xlink:href="#DejaVuSans-74" x="480.609375"/>
      <use xlink:href="#DejaVuSans-69" x="519.818359"/>
      <use xlink:href="#DejaVuSans-76" x="547.601562"/>
      <use xlink:href="#DejaVuSans-65" x="606.78125"/>
      <use xlink:href="#DejaVuSans-20" x="668.304688"/>
      <use xlink:href="#DejaVuSans-52" x="700.091797"/>
      <use xlink:href="#DejaVuSans-61" x="767.324219"/>
      <use xlink:href="#DejaVuSans-74" x="828.603516"/>
      <use xlink:href="#DejaVuSans-65" x="867.8125"/>
     </g>
    </g>
   </g>
   <g id="matplotlib.axis_2">
    <g id="ytick_1">
     <g id="line2d_7">
      <defs>
       <path id="m2acb856b2a" d="M 0 0 
L -12 0 
" style="stroke: #000000; stroke-width: 2.5"/>
      </defs>
      <g>
       <use xlink:href="#m2acb856b2a" x="73.2715" y="451.149" style="stroke: #000000; stroke-width: 2.5"/>
      </g>
     </g>
     <g id="text_8">
      <!-- 0.0 -->
      <g transform="translate(29.782 457.835625) scale(0.176 -0.176)">
       <use xlink:href="#DejaVuSans-30"/>
       <use xlink:href="#DejaVuSans-2e" x="63.623047"/>
       <use xlink:href="#DejaVuSans-30" x="95.410156"/>
      </g>
     </g>
    </g>
    <g id="ytick_2">
     <g id="line2d_8">
      <g>
       <use xlink:href="#m2acb856b2a" x="73.2715" y="370.509" style="stroke: #000000; stroke-width: 2.5"/>
      </g>
     </g>
     <g id="text_9">
      <!-- 0.2 -->
      <g transform="translate(29.782 377.195625) scale(0.176 -0.176)">
       <use xlink:href="#DejaVuSans-30"/>
       <use xlink:href="#DejaVuSans-2e" x="63.623047"/>
       <use xlink:href="#DejaVuSans-32" x="95.410156"/>
      </g>
     </g>
    </g>
    <g id="ytick_3">
     <g id="line2d_9">
      <g>
       <use xlink:href="#m2acb856b2a" x="73.2715" y="289.869" style="stroke: #000000; stroke-width: 2.5"/>
      </g>
     </g>
     <g id="text_10">
      <!-- 0.4 -->
      <g transform="translate(29.782 296.555625) scale(0.176 -0.176)">
       <use xlink:href="#DejaVuSans-30"/>
       <use xlink:href="#DejaVuSans-2e" x="63.623047"/>
       <use xlink:href="#DejaVuSans-34" x="95.410156"/>
      </g>
     </g>
    </g>
    <g id="ytick_4">
     <g id="line2d_10">
      <g>
       <use xlink:href="#m2acb856b2a" x="73.2715" y="209.229" style="stroke: #000000; stroke-width: 2.5"/>
      </g>
     </g>
     <g id="text_11">
      <!-- 0.6 -->
      <g transform="translate(29.782 215.915625) scale(0.176 -0.176)">
       <use xlink:href="#DejaVuSans-30"/>
       <use xlink:href="#DejaVuSans-2e" x="63.623047"/>
       <use xlink:href="#DejaVuSans-36" x="95.410156"/>
      </g>
     </g>
    </g>
    <g id="ytick_5">
     <g id="line2d_11">
      <g>
       <use xlink:href="#m2acb856b2a" x="73.2715" y="128.589" style="stroke: #000000; stroke-width: 2.5"/>
      </g>
     </g>
     <g id="text_12">
      <!-- 0.8 -->
      <g transform="translate(29.782 135.275625) scale(0.176 -0.176)">
       <use xlink:href="#DejaVuSans-30"/>
       <use xlink:href="#DejaVuSans-2e" x="63.623047"/>
       <use xlink:href="#DejaVuSans-38" x="95.410156"/>
      </g>
     </g>
    </g>
    <g id="ytick_6">
     <g id="line2d_12">
      <g>
       <use xlink:href="#m2acb856b2a" x="73.2715" y="47.949" style="stroke: #000000; stroke-width: 2.5"/>
      </g>
     </g>
     <g id="text_13">
      <!-- 1.0 -->
      <g transform="translate(29.782 54.635625) scale(0.176 -0.176)">
       <use xlink:href="#DejaVuSans-31"/>
       <use xlink:href="#DejaVuSans-2e" x="63.623047"/>
       <use xlink:href="#DejaVuSans-30" x="95.410156"/>
      </g>
     </g>
    </g>
    <g id="text_14">
     <!-- True Positive Rate -->
     <g transform="translate(21.789 335.046) rotate(-90) scale(0.192 -0.192)">
      <defs>
       <path id="DejaVuSans-54" d="M -19 4666 
L 3928 4666 
L 3928 4134 
L 2272 4134 
L 2272 0 
L 1638 0 
L 1638 4134 
L -19 4134 
L -19 4666 
z
" transform="scale(0.015625)"/>
       <path id="DejaVuSans-72" d="M 2631 2963 
Q 2534 3019 2420 3045 
Q 2306 3072 2169 3072 
Q 1681 3072 1420 2755 
Q 1159 2438 1159 1844 
L 1159 0 
L 581 0 
L 581 3500 
L 1159 3500 
L 1159 2956 
Q 1341 3275 1631 3429 
Q 1922 3584 2338 3584 
Q 2397 3584 2469 3576 
Q 2541 3569 2628 3553 
L 2631 2963 
z
" transform="scale(0.015625)"/>
       <path id="DejaVuSans-75" d="M 544 1381 
L 544 3500 
L 1119 3500 
L 1119 1403 
Q 1119 906 1312 657 
Q 1506 409 1894 409 
Q 2359 409 2629 706 
Q 2900 1003 2900 1516 
L 2900 3500 
L 3475 3500 
L 3475 0 
L 2900 0 
L 2900 538 
Q 2691 219 2414 64 
Q 2138 -91 1772 -91 
Q 1169 -91 856 284 
Q 544 659 544 1381 
z
M 1991 3584 
L 1991 3584 
z
" transform="scale(0.015625)"/>
      </defs>
      <use xlink:href="#DejaVuSans-54"/>
      <use xlink:href="#DejaVuSans-72" x="46.333984"/>
      <use xlink:href="#DejaVuSans-75" x="87.447266"/>
      <use xlink:href="#DejaVuSans-65" x="150.826172"/>
      <use xlink:href="#DejaVuSans-20" x="212.349609"/>
      <use xlink:href="#DejaVuSans-50" x="244.136719"/>
      <use xlink:href="#DejaVuSans-6f" x="300.814453"/>
      <use xlink:href="#DejaVuSans-73" x="361.996094"/>
      <use xlink:href="#DejaVuSans-69" x="414.095703"/>
      <use xlink:href="#DejaVuSans-74" x="441.878906"/>
      <use xlink:href="#DejaVuSans-69" x="481.087891"/>
      <use xlink:href="#DejaVuSans-76" x="508.871094"/>
      <use xlink:href="#DejaVuSans-65" x="568.050781"/>
      <use xlink:href="#DejaVuSans-20" x="629.574219"/>
      <use xlink:href="#DejaVuSans-52" x="661.361328"/>
      <use xlink:href="#DejaVuSans-61" x="728.59375"/>
      <use xlink:href="#DejaVuSans-74" x="789.873047"/>
      <use xlink:href="#DejaVuSans-65" x="829.082031"/>
     </g>
    </g>
   </g>
   <g id="line2d_13">
    <path d="M 91.717781 451.149 
L 95.444302 241.485 
L 99.170824 241.485 
L 102.897345 241.485 
L 106.623867 241.485 
L 110.350388 241.485 
L 114.076909 241.485 
L 117.803431 241.485 
L 121.529952 241.485 
L 125.256474 241.485 
L 128.982995 241.485 
L 132.709517 241.485 
L 136.436038 241.485 
L 140.162559 241.485 
L 143.889081 241.485 
L 147.615602 241.485 
L 151.342124 241.485 
L 155.068645 241.485 
L 158.795166 241.485 
L 162.521688 241.485 
L 166.248209 241.485 
L 169.974731 241.485 
L 173.701252 241.485 
L 177.427773 241.485 
L 181.154295 241.485 
L 184.880816 241.485 
L 188.607338 241.485 
L 192.333859 241.485 
L 196.060381 241.485 
L 199.786902 241.485 
L 203.513423 241.485 
L 207.239945 241.485 
L 210.966466 241.485 
L 214.692988 191.085 
L 218.419509 191.085 
L 222.14603 191.085 
L 225.872552 191.085 
L 229.599073 191.085 
L 233.325595 191.085 
L 237.052116 191.085 
L 240.778637 191.085 
L 244.505159 191.085 
L 248.23168 191.085 
L 251.958202 191.085 
L 255.684723 191.085 
L 259.411245 191.085 
L 263.137766 191.085 
L 266.864287 191.085 
L 270.590809 191.085 
L 274.31733 191.085 
L 278.043852 150.765 
L 281.770373 150.765 
L 285.496894 150.765 
L 289.223416 150.765 
L 292.949937 150.765 
L 296.676459 150.765 
L 300.40298 150.765 
L 304.129502 150.765 
L 307.856023 150.765 
L 311.582544 150.765 
L 315.309066 150.765 
L 319.035587 150.765 
L 322.762109 150.765 
L 326.48863 150.765 
L 330.215151 150.765 
L 333.941673 150.765 
L 337.668194 110.445 
L 341.394716 110.445 
L 345.121237 110.445 
L 348.847758 110.445 
L 352.57428 110.445 
L 356.300801 110.445 
L 360.027323 110.445 
L 363.753844 110.445 
L 367.480366 110.445 
L 371.206887 110.445 
L 374.933408 110.445 
L 378.65993 110.445 
L 382.386451 110.445 
L 386.112973 110.445 
L 389.839494 110.445 
L 393.566015 110.445 
L 397.292537 110.445 
L 401.019058 110.445 
L 404.74558 110.445 
L 408.472101 110.445 
L 412.198622 110.445 
L 415.925144 110.445 
L 419.651665 110.445 
L 423.378187 110.445 
L 427.104708 110.445 
L 430.83123 110.445 
L 434.557751 110.445 
L 438.284272 110.445 
L 442.010794 110.445 
L 445.737315 110.445 
L 449.463837 110.445 
L 453.190358 110.445 
L 456.916879 110.445 
L 460.643401 47.949 
" clip-path="url(#pfb7222c820)" style="fill: none; stroke: #ffa500; stroke-width: 3; stroke-linecap: square"/>
   </g>
   <g id="line2d_14">
    <path d="M 91.717781 451.149 
L 95.444302 263.172273 
L 99.170824 262.683545 
L 102.897345 262.194818 
L 106.623867 261.706091 
L 110.350388 261.217364 
L 114.076909 260.728636 
L 117.803431 260.239909 
L 121.529952 259.751182 
L 125.256474 259.262455 
L 128.982995 258.773727 
L 132.709517 258.285 
L 136.436038 257.796273 
L 140.162559 257.307545 
L 143.889081 256.818818 
L 147.615602 256.330091 
L 151.342124 255.841364 
L 155.068645 255.352636 
L 158.795166 254.863909 
L 162.521688 254.375182 
L 166.248209 253.886455 
L 169.974731 253.397727 
L 173.701252 252.909 
L 177.427773 252.420273 
L 181.154295 251.931545 
L 184.880816 251.442818 
L 188.607338 250.954091 
L 192.333859 250.465364 
L 196.060381 249.976636 
L 199.786902 249.487909 
L 203.513423 248.999182 
L 207.239945 248.510455 
L 210.966466 248.021727 
L 214.692988 237.453 
L 218.419509 235.742455 
L 222.14603 234.031909 
L 225.872552 232.321364 
L 229.599073 230.610818 
L 233.325595 228.900273 
L 237.052116 227.189727 
L 240.778637 225.479182 
L 244.505159 223.768636 
L 248.23168 222.058091 
L 251.958202 220.347545 
L 255.684723 218.637 
L 259.411245 216.926455 
L 263.137766 215.215909 
L 266.864287 213.505364 
L 270.590809 211.794818 
L 274.31733 210.084273 
L 278.043852 168.053727 
L 281.770373 166.343182 
L 285.496894 164.632636 
L 289.223416 162.922091 
L 292.949937 161.211545 
L 296.676459 159.501 
L 300.40298 157.790455 
L 304.129502 156.079909 
L 307.856023 154.369364 
L 311.582544 152.658818 
L 315.309066 150.948273 
L 319.035587 149.237727 
L 322.762109 147.527182 
L 326.48863 145.816636 
L 330.215151 144.106091 
L 333.941673 142.395545 
L 337.668194 120.525 
L 341.394716 119.425364 
L 345.121237 118.325727 
L 348.847758 117.226091 
L 352.57428 116.126455 
L 356.300801 115.026818 
L 360.027323 113.927182 
L 363.753844 112.827545 
L 367.480366 111.727909 
L 371.206887 110.628273 
L 374.933408 109.528636 
L 378.65993 108.429 
L 382.386451 107.329364 
L 386.112973 106.229727 
L 389.839494 105.130091 
L 393.566015 104.030455 
L 397.292537 102.930818 
L 401.019058 101.831182 
L 404.74558 100.731545 
L 408.472101 99.631909 
L 412.198622 98.532273 
L 415.925144 97.432636 
L 419.651665 96.333 
L 423.378187 95.233364 
L 427.104708 94.133727 
L 430.83123 93.034091 
L 434.557751 91.934455 
L 438.284272 90.834818 
L 442.010794 89.735182 
L 445.737315 88.635545 
L 449.463837 87.535909 
L 453.190358 86.436273 
L 456.916879 85.336636 
L 460.643401 47.949 
" clip-path="url(#pfb7222c820)" style="fill: none; stroke: #0000ff; stroke-width: 3; stroke-linecap: square"/>
   </g>
   <g id="line2d_15">
    <path d="M 91.717781 451.149 
L 95.444302 293.901 
L 99.170824 293.901 
L 102.897345 293.901 
L 106.623867 293.901 
L 110.350388 293.901 
L 114.076909 293.901 
L 117.803431 293.901 
L 121.529952 293.901 
L 125.256474 293.901 
L 128.982995 293.901 
L 132.709517 293.901 
L 136.436038 293.901 
L 140.162559 293.901 
L 143.889081 293.901 
L 147.615602 293.901 
L 151.342124 293.901 
L 155.068645 293.901 
L 158.795166 293.901 
L 162.521688 293.901 
L 166.248209 293.901 
L 169.974731 293.901 
L 173.701252 293.901 
L 177.427773 293.901 
L 181.154295 293.901 
L 184.880816 293.901 
L 188.607338 293.901 
L 192.333859 293.901 
L 196.060381 293.901 
L 199.786902 293.901 
L 203.513423 293.901 
L 207.239945 293.901 
L 210.966466 293.901 
L 214.692988 263.661 
L 218.419509 263.661 
L 222.14603 263.661 
L 225.872552 263.661 
L 229.599073 263.661 
L 233.325595 263.661 
L 237.052116 263.661 
L 240.778637 263.661 
L 244.505159 263.661 
L 248.23168 263.661 
L 251.958202 263.661 
L 255.684723 263.661 
L 259.411245 263.661 
L 263.137766 263.661 
L 266.864287 263.661 
L 270.590809 263.661 
L 274.31733 263.661 
L 278.043852 215.277 
L 281.770373 215.277 
L 285.496894 215.277 
L 289.223416 215.277 
L 292.949937 215.277 
L 296.676459 215.277 
L 300.40298 215.277 
L 304.129502 215.277 
L 307.856023 215.277 
L 311.582544 215.277 
L 315.309066 215.277 
L 319.035587 215.277 
L 322.762109 215.277 
L 326.48863 215.277 
L 330.215151 215.277 
L 333.941673 215.277 
L 337.668194 154.797 
L 341.394716 154.797 
L 345.121237 154.797 
L 348.847758 154.797 
L 352.57428 154.797 
L 356.300801 154.797 
L 360.027323 154.797 
L 363.753844 154.797 
L 367.480366 154.797 
L 371.206887 154.797 
L 374.933408 154.797 
L 378.65993 154.797 
L 382.386451 154.797 
L 386.112973 154.797 
L 389.839494 154.797 
L 393.566015 154.797 
L 397.292537 154.797 
L 401.019058 154.797 
L 404.74558 154.797 
L 408.472101 154.797 
L 412.198622 154.797 
L 415.925144 154.797 
L 419.651665 154.797 
L 423.378187 154.797 
L 427.104708 154.797 
L 430.83123 154.797 
L 434.557751 154.797 
L 438.284272 154.797 
L 442.010794 154.797 
L 445.737315 154.797 
L 449.463837 154.797 
L 453.190358 154.797 
L 456.916879 154.797 
L 460.643401 47.949 
" clip-path="url(#pfb7222c820)" style="fill: none; stroke: #008000; stroke-width: 3; stroke-linecap: square"/>
   </g>
   <g id="line2d_16">
    <path d="M 91.717781 451.149 
L 460.643401 47.949 
" clip-path="url(#pfb7222c820)" style="fill: none; stroke-dasharray: 11.1,4.8; stroke-dashoffset: 0; stroke: #000000; stroke-opacity: 0.5; stroke-width: 3"/>
   </g>
   <g id="patch_3">
    <path d="M 73.2715 471.309 
L 73.2715 27.789 
" style="fill: none; stroke: #000000; stroke-width: 2.5; stroke-linejoin: miter; stroke-linecap: square"/>
   </g>
   <g id="patch_4">
    <path d="M 479.089682 471.309 
L 479.089682 27.789 
" style="fill: none; stroke: #000000; stroke-width: 2.5; stroke-linejoin: miter; stroke-linecap: square"/>
   </g>
   <g id="patch_5">
    <path d="M 73.2715 471.309 
L 479.089682 471.309 
" style="fill: none; stroke: #000000; stroke-width: 2.5; stroke-linejoin: miter; stroke-linecap: square"/>
   </g>
   <g id="patch_6">
    <path d="M 73.2715 27.789 
L 479.089682 27.789 
" style="fill: none; stroke: #000000; stroke-width: 2.5; stroke-linejoin: miter; stroke-linecap: square"/>
   </g>
   <g id="text_15">
    <!-- Approach CDT_DI_OHE_LIVE_MONTH -->
    <g transform="translate(100.379091 21.789) scale(0.192 -0.192)">
     <defs>
      <path id="DejaVuSans-41" d="M 2188 4044 
L 1331 1722 
L 3047 1722 
L 2188 4044 
z
M 1831 4666 
L 2547 4666 
L 4325 0 
L 3669 0 
L 3244 1197 
L 1141 1197 
L 716 0 
L 50 0 
L 1831 4666 
z
" transform="scale(0.015625)"/>
      <path id="DejaVuSans-70" d="M 1159 525 
L 1159 -1331 
L 581 -1331 
L 581 3500 
L 1159 3500 
L 1159 2969 
Q 1341 3281 1617 3432 
Q 1894 3584 2278 3584 
Q 2916 3584 3314 3078 
Q 3713 2572 3713 1747 
Q 3713 922 3314 415 
Q 2916 -91 2278 -91 
Q 1894 -91 1617 61 
Q 1341 213 1159 525 
z
M 3116 1747 
Q 3116 2381 2855 2742 
Q 2594 3103 2138 3103 
Q 1681 3103 1420 2742 
Q 1159 2381 1159 1747 
Q 1159 1113 1420 752 
Q 1681 391 2138 391 
Q 2594 391 2855 752 
Q 3116 1113 3116 1747 
z
" transform="scale(0.015625)"/>
      <path id="DejaVuSans-63" d="M 3122 3366 
L 3122 2828 
Q 2878 2963 2633 3030 
Q 2388 3097 2138 3097 
Q 1578 3097 1268 2742 
Q 959 2388 959 1747 
Q 959 1106 1268 751 
Q 1578 397 2138 397 
Q 2388 397 2633 464 
Q 2878 531 3122 666 
L 3122 134 
Q 2881 22 2623 -34 
Q 2366 -91 2075 -91 
Q 1284 -91 818 406 
Q 353 903 353 1747 
Q 353 2603 823 3093 
Q 1294 3584 2113 3584 
Q 2378 3584 2631 3529 
Q 2884 3475 3122 3366 
z
" transform="scale(0.015625)"/>
      <path id="DejaVuSans-68" d="M 3513 2113 
L 3513 0 
L 2938 0 
L 2938 2094 
Q 2938 2591 2744 2837 
Q 2550 3084 2163 3084 
Q 1697 3084 1428 2787 
Q 1159 2491 1159 1978 
L 1159 0 
L 581 0 
L 581 4863 
L 1159 4863 
L 1159 2956 
Q 1366 3272 1645 3428 
Q 1925 3584 2291 3584 
Q 2894 3584 3203 3211 
Q 3513 2838 3513 2113 
z
" transform="scale(0.015625)"/>
      <path id="DejaVuSans-43" d="M 4122 4306 
L 4122 3641 
Q 3803 3938 3442 4084 
Q 3081 4231 2675 4231 
Q 1875 4231 1450 3742 
Q 1025 3253 1025 2328 
Q 1025 1406 1450 917 
Q 1875 428 2675 428 
Q 3081 428 3442 575 
Q 3803 722 4122 1019 
L 4122 359 
Q 3791 134 3420 21 
Q 3050 -91 2638 -91 
Q 1578 -91 968 557 
Q 359 1206 359 2328 
Q 359 3453 968 4101 
Q 1578 4750 2638 4750 
Q 3056 4750 3426 4639 
Q 3797 4528 4122 4306 
z
" transform="scale(0.015625)"/>
      <path id="DejaVuSans-44" d="M 1259 4147 
L 1259 519 
L 2022 519 
Q 2988 519 3436 956 
Q 3884 1394 3884 2338 
Q 3884 3275 3436 3711 
Q 2988 4147 2022 4147 
L 1259 4147 
z
M 628 4666 
L 1925 4666 
Q 3281 4666 3915 4102 
Q 4550 3538 4550 2338 
Q 4550 1131 3912 565 
Q 3275 0 1925 0 
L 628 0 
L 628 4666 
z
" transform="scale(0.015625)"/>
      <path id="DejaVuSans-5f" d="M 3263 -1063 
L 3263 -1509 
L -63 -1509 
L -63 -1063 
L 3263 -1063 
z
" transform="scale(0.015625)"/>
      <path id="DejaVuSans-49" d="M 628 4666 
L 1259 4666 
L 1259 0 
L 628 0 
L 628 4666 
z
" transform="scale(0.015625)"/>
      <path id="DejaVuSans-4f" d="M 2522 4238 
Q 1834 4238 1429 3725 
Q 1025 3213 1025 2328 
Q 1025 1447 1429 934 
Q 1834 422 2522 422 
Q 3209 422 3611 934 
Q 4013 1447 4013 2328 
Q 4013 3213 3611 3725 
Q 3209 4238 2522 4238 
z
M 2522 4750 
Q 3503 4750 4090 4092 
Q 4678 3434 4678 2328 
Q 4678 1225 4090 567 
Q 3503 -91 2522 -91 
Q 1538 -91 948 565 
Q 359 1222 359 2328 
Q 359 3434 948 4092 
Q 1538 4750 2522 4750 
z
" transform="scale(0.015625)"/>
      <path id="DejaVuSans-48" d="M 628 4666 
L 1259 4666 
L 1259 2753 
L 3553 2753 
L 3553 4666 
L 4184 4666 
L 4184 0 
L 3553 0 
L 3553 2222 
L 1259 2222 
L 1259 0 
L 628 0 
L 628 4666 
z
" transform="scale(0.015625)"/>
      <path id="DejaVuSans-45" d="M 628 4666 
L 3578 4666 
L 3578 4134 
L 1259 4134 
L 1259 2753 
L 3481 2753 
L 3481 2222 
L 1259 2222 
L 1259 531 
L 3634 531 
L 3634 0 
L 628 0 
L 628 4666 
z
" transform="scale(0.015625)"/>
      <path id="DejaVuSans-4c" d="M 628 4666 
L 1259 4666 
L 1259 531 
L 3531 531 
L 3531 0 
L 628 0 
L 628 4666 
z
" transform="scale(0.015625)"/>
      <path id="DejaVuSans-56" d="M 1831 0 
L 50 4666 
L 709 4666 
L 2188 738 
L 3669 4666 
L 4325 4666 
L 2547 0 
L 1831 0 
z
" transform="scale(0.015625)"/>
      <path id="DejaVuSans-4d" d="M 628 4666 
L 1569 4666 
L 2759 1491 
L 3956 4666 
L 4897 4666 
L 4897 0 
L 4281 0 
L 4281 4097 
L 3078 897 
L 2444 897 
L 1241 4097 
L 1241 0 
L 628 0 
L 628 4666 
z
" transform="scale(0.015625)"/>
      <path id="DejaVuSans-4e" d="M 628 4666 
L 1478 4666 
L 3547 763 
L 3547 4666 
L 4159 4666 
L 4159 0 
L 3309 0 
L 1241 3903 
L 1241 0 
L 628 0 
L 628 4666 
z
" transform="scale(0.015625)"/>
     </defs>
     <use xlink:href="#DejaVuSans-41"/>
     <use xlink:href="#DejaVuSans-70" x="68.408203"/>
     <use xlink:href="#DejaVuSans-70" x="131.884766"/>
     <use xlink:href="#DejaVuSans-72" x="195.361328"/>
     <use xlink:href="#DejaVuSans-6f" x="234.224609"/>
     <use xlink:href="#DejaVuSans-61" x="295.40625"/>
     <use xlink:href="#DejaVuSans-63" x="356.685547"/>
     <use xlink:href="#DejaVuSans-68" x="411.666016"/>
     <use xlink:href="#DejaVuSans-20" x="475.044922"/>
     <use xlink:href="#DejaVuSans-43" x="506.832031"/>
     <use xlink:href="#DejaVuSans-44" x="576.65625"/>
     <use xlink:href="#DejaVuSans-54" x="653.658203"/>
     <use xlink:href="#DejaVuSans-5f" x="714.742188"/>
     <use xlink:href="#DejaVuSans-44" x="764.742188"/>
     <use xlink:href="#DejaVuSans-49" x="841.744141"/>
     <use xlink:href="#DejaVuSans-5f" x="871.236328"/>
     <use xlink:href="#DejaVuSans-4f" x="921.236328"/>
     <use xlink:href="#DejaVuSans-48" x="999.947266"/>
     <use xlink:href="#DejaVuSans-45" x="1075.142578"/>
     <use xlink:href="#DejaVuSans-5f" x="1138.326172"/>
     <use xlink:href="#DejaVuSans-4c" x="1188.326172"/>
     <use xlink:href="#DejaVuSans-49" x="1244.039062"/>
     <use xlink:href="#DejaVuSans-56" x="1273.53125"/>
     <use xlink:href="#DejaVuSans-45" x="1341.939453"/>
     <use xlink:href="#DejaVuSans-5f" x="1405.123047"/>
     <use xlink:href="#DejaVuSans-4d" x="1455.123047"/>
     <use xlink:href="#DejaVuSans-4f" x="1541.402344"/>
     <use xlink:href="#DejaVuSans-4e" x="1620.113281"/>
     <use xlink:href="#DejaVuSans-54" x="1694.917969"/>
     <use xlink:href="#DejaVuSans-48" x="1756.001953"/>
    </g>
   </g>
   <g id="legend_1">
    <g id="patch_7">
     <path d="M 85.5915 119.3695 
L 231.01975 119.3695 
Q 234.53975 119.3695 234.53975 115.8495 
L 234.53975 40.109 
Q 234.53975 36.589 231.01975 36.589 
L 85.5915 36.589 
Q 82.0715 36.589 82.0715 40.109 
L 82.0715 115.8495 
Q 82.0715 119.3695 85.5915 119.3695 
z
" style="fill: #ffffff; opacity: 0.8; stroke: #cccccc; stroke-width: 2; stroke-linejoin: miter"/>
    </g>
    <g id="line2d_17">
     <path d="M 89.1115 50.84225 
L 106.7115 50.84225 
L 124.3115 50.84225 
" style="fill: none; stroke: #ffa500; stroke-width: 3; stroke-linecap: square"/>
    </g>
    <g id="text_16">
     <!-- LR: 0.69 -->
     <g transform="translate(138.3915 57.00225) scale(0.176 -0.176)">
      <defs>
       <path id="DejaVuSans-3a" d="M 750 794 
L 1409 794 
L 1409 0 
L 750 0 
L 750 794 
z
M 750 3309 
L 1409 3309 
L 1409 2516 
L 750 2516 
L 750 3309 
z
" transform="scale(0.015625)"/>
       <path id="DejaVuSans-39" d="M 703 97 
L 703 672 
Q 941 559 1184 500 
Q 1428 441 1663 441 
Q 2288 441 2617 861 
Q 2947 1281 2994 2138 
Q 2813 1869 2534 1725 
Q 2256 1581 1919 1581 
Q 1219 1581 811 2004 
Q 403 2428 403 3163 
Q 403 3881 828 4315 
Q 1253 4750 1959 4750 
Q 2769 4750 3195 4129 
Q 3622 3509 3622 2328 
Q 3622 1225 3098 567 
Q 2575 -91 1691 -91 
Q 1453 -91 1209 -44 
Q 966 3 703 97 
z
M 1959 2075 
Q 2384 2075 2632 2365 
Q 2881 2656 2881 3163 
Q 2881 3666 2632 3958 
Q 2384 4250 1959 4250 
Q 1534 4250 1286 3958 
Q 1038 3666 1038 3163 
Q 1038 2656 1286 2365 
Q 1534 2075 1959 2075 
z
" transform="scale(0.015625)"/>
      </defs>
      <use xlink:href="#DejaVuSans-4c"/>
      <use xlink:href="#DejaVuSans-52" x="55.712891"/>
      <use xlink:href="#DejaVuSans-3a" x="122.070312"/>
      <use xlink:href="#DejaVuSans-20" x="155.761719"/>
      <use xlink:href="#DejaVuSans-30" x="187.548828"/>
      <use xlink:href="#DejaVuSans-2e" x="251.171875"/>
      <use xlink:href="#DejaVuSans-36" x="282.958984"/>
      <use xlink:href="#DejaVuSans-39" x="346.582031"/>
     </g>
    </g>
    <g id="line2d_18">
     <path d="M 89.1115 76.67575 
L 106.7115 76.67575 
L 124.3115 76.67575 
" style="fill: none; stroke: #0000ff; stroke-width: 3; stroke-linecap: square"/>
    </g>
    <g id="text_17">
     <!-- RF: 0.67 -->
     <g transform="translate(138.3915 82.83575) scale(0.176 -0.176)">
      <defs>
       <path id="DejaVuSans-37" d="M 525 4666 
L 3525 4666 
L 3525 4397 
L 1831 0 
L 1172 0 
L 2766 4134 
L 525 4134 
L 525 4666 
z
" transform="scale(0.015625)"/>
      </defs>
      <use xlink:href="#DejaVuSans-52"/>
      <use xlink:href="#DejaVuSans-46" x="69.482422"/>
      <use xlink:href="#DejaVuSans-3a" x="119.251953"/>
      <use xlink:href="#DejaVuSans-20" x="152.943359"/>
      <use xlink:href="#DejaVuSans-30" x="184.730469"/>
      <use xlink:href="#DejaVuSans-2e" x="248.353516"/>
      <use xlink:href="#DejaVuSans-36" x="280.140625"/>
      <use xlink:href="#DejaVuSans-37" x="343.763672"/>
     </g>
    </g>
    <g id="line2d_19">
     <path d="M 89.1115 102.50925 
L 106.7115 102.50925 
L 124.3115 102.50925 
" style="fill: none; stroke: #008000; stroke-width: 3; stroke-linecap: square"/>
    </g>
    <g id="text_18">
     <!-- SVM: 0.55 -->
     <g transform="translate(138.3915 108.66925) scale(0.176 -0.176)">
      <defs>
       <path id="DejaVuSans-53" d="M 3425 4513 
L 3425 3897 
Q 3066 4069 2747 4153 
Q 2428 4238 2131 4238 
Q 1616 4238 1336 4038 
Q 1056 3838 1056 3469 
Q 1056 3159 1242 3001 
Q 1428 2844 1947 2747 
L 2328 2669 
Q 3034 2534 3370 2195 
Q 3706 1856 3706 1288 
Q 3706 609 3251 259 
Q 2797 -91 1919 -91 
Q 1588 -91 1214 -16 
Q 841 59 441 206 
L 441 856 
Q 825 641 1194 531 
Q 1563 422 1919 422 
Q 2459 422 2753 634 
Q 3047 847 3047 1241 
Q 3047 1584 2836 1778 
Q 2625 1972 2144 2069 
L 1759 2144 
Q 1053 2284 737 2584 
Q 422 2884 422 3419 
Q 422 4038 858 4394 
Q 1294 4750 2059 4750 
Q 2388 4750 2728 4690 
Q 3069 4631 3425 4513 
z
" transform="scale(0.015625)"/>
       <path id="DejaVuSans-35" d="M 691 4666 
L 3169 4666 
L 3169 4134 
L 1269 4134 
L 1269 2991 
Q 1406 3038 1543 3061 
Q 1681 3084 1819 3084 
Q 2600 3084 3056 2656 
Q 3513 2228 3513 1497 
Q 3513 744 3044 326 
Q 2575 -91 1722 -91 
Q 1428 -91 1123 -41 
Q 819 9 494 109 
L 494 744 
Q 775 591 1075 516 
Q 1375 441 1709 441 
Q 2250 441 2565 725 
Q 2881 1009 2881 1497 
Q 2881 1984 2565 2268 
Q 2250 2553 1709 2553 
Q 1456 2553 1204 2497 
Q 953 2441 691 2322 
L 691 4666 
z
" transform="scale(0.015625)"/>
      </defs>
      <use xlink:href="#DejaVuSans-53"/>
      <use xlink:href="#DejaVuSans-56" x="63.476562"/>
      <use xlink:href="#DejaVuSans-4d" x="131.884766"/>
      <use xlink:href="#DejaVuSans-3a" x="218.164062"/>
      <use xlink:href="#DejaVuSans-20" x="251.855469"/>
      <use xlink:href="#DejaVuSans-30" x="283.642578"/>
      <use xlink:href="#DejaVuSans-2e" x="347.265625"/>
      <use xlink:href="#DejaVuSans-35" x="379.052734"/>
      <use xlink:href="#DejaVuSans-35" x="442.675781"/>
     </g>
    </g>
   </g>
  </g>
  <g id="axes_2">
   <g id="patch_8">
    <path d="M 560.253318 471.309 
L 966.0715 471.309 
L 966.0715 27.789 
L 560.253318 27.789 
z
" style="fill: #ffffff"/>
   </g>
   <g id="PolyCollection_4">
    <defs>
     <path id="m3c3ec9b871" d="M 578.699599 -82.4755 
L 578.699599 -82.4755 
L 582.426121 -82.4755 
L 586.152642 -82.4755 
L 589.879163 -82.4755 
L 593.605685 -82.4755 
L 597.332206 -82.4755 
L 601.058728 -82.4755 
L 604.785249 -82.4755 
L 608.51177 -82.4755 
L 612.238292 -82.4755 
L 615.964813 -82.4755 
L 619.691335 -82.4755 
L 623.417856 -82.4755 
L 627.144378 -82.4755 
L 630.870899 -82.4755 
L 634.59742 -82.4755 
L 638.323942 -82.4755 
L 642.050463 -82.4755 
L 645.776985 -82.4755 
L 649.503506 -82.4755 
L 653.230027 -82.4755 
L 656.956549 -82.4755 
L 660.68307 -82.4755 
L 664.409592 -82.4755 
L 668.136113 -82.4755 
L 671.862634 -82.4755 
L 675.589156 -82.4755 
L 679.315677 -82.4755 
L 683.042199 -82.4755 
L 686.76872 -82.4755 
L 690.495242 -82.4755 
L 694.221763 -82.4755 
L 697.948284 -82.4755 
L 701.674806 -82.4755 
L 705.401327 -82.4755 
L 709.127849 -82.4755 
L 712.85437 -82.4755 
L 716.580891 -82.4755 
L 720.307413 -82.4755 
L 724.033934 -82.4755 
L 727.760456 -82.4755 
L 731.486977 -82.4755 
L 735.213498 -82.4755 
L 738.94002 -82.4755 
L 742.666541 -82.4755 
L 746.393063 -82.4755 
L 750.119584 -82.4755 
L 753.846106 -82.4755 
L 757.572627 -82.4755 
L 761.299148 -82.4755 
L 765.02567 -183.2755 
L 768.752191 -183.2755 
L 772.478713 -183.2755 
L 776.205234 -183.2755 
L 779.931755 -183.2755 
L 783.658277 -183.2755 
L 787.384798 -183.2755 
L 791.11132 -183.2755 
L 794.837841 -183.2755 
L 798.564363 -183.2755 
L 802.290884 -183.2755 
L 806.017405 -183.2755 
L 809.743927 -183.2755 
L 813.470448 -183.2755 
L 817.19697 -183.2755 
L 820.923491 -183.2755 
L 824.650012 -243.7555 
L 828.376534 -243.7555 
L 832.103055 -243.7555 
L 835.829577 -243.7555 
L 839.556098 -243.7555 
L 843.282619 -243.7555 
L 847.009141 -243.7555 
L 850.735662 -243.7555 
L 854.462184 -243.7555 
L 858.188705 -243.7555 
L 861.915227 -243.7555 
L 865.641748 -243.7555 
L 869.368269 -243.7555 
L 873.094791 -243.7555 
L 876.821312 -243.7555 
L 880.547834 -243.7555 
L 884.274355 -243.7555 
L 888.000876 -243.7555 
L 891.727398 -243.7555 
L 895.453919 -243.7555 
L 899.180441 -243.7555 
L 902.906962 -243.7555 
L 906.633483 -243.7555 
L 910.360005 -243.7555 
L 914.086526 -243.7555 
L 917.813048 -243.7555 
L 921.539569 -243.7555 
L 925.266091 -243.7555 
L 928.992612 -243.7555 
L 932.719133 -243.7555 
L 936.445655 -243.7555 
L 940.172176 -243.7555 
L 943.898698 -243.7555 
L 947.625219 -485.6755 
L 947.625219 -485.6755 
L 947.625219 -485.6755 
L 943.898698 -485.6755 
L 940.172176 -485.6755 
L 936.445655 -485.6755 
L 932.719133 -485.6755 
L 928.992612 -485.6755 
L 925.266091 -485.6755 
L 921.539569 -485.6755 
L 917.813048 -485.6755 
L 914.086526 -485.6755 
L 910.360005 -485.6755 
L 906.633483 -485.6755 
L 902.906962 -485.6755 
L 899.180441 -485.6755 
L 895.453919 -485.6755 
L 891.727398 -485.6755 
L 888.000876 -485.6755 
L 884.274355 -485.6755 
L 880.547834 -485.6755 
L 876.821312 -485.6755 
L 873.094791 -485.6755 
L 869.368269 -485.6755 
L 865.641748 -485.6755 
L 861.915227 -485.6755 
L 858.188705 -485.6755 
L 854.462184 -485.6755 
L 850.735662 -485.6755 
L 847.009141 -485.6755 
L 843.282619 -485.6755 
L 839.556098 -485.6755 
L 835.829577 -485.6755 
L 832.103055 -485.6755 
L 828.376534 -485.6755 
L 824.650012 -485.6755 
L 820.923491 -485.6755 
L 817.19697 -485.6755 
L 813.470448 -485.6755 
L 809.743927 -485.6755 
L 806.017405 -485.6755 
L 802.290884 -485.6755 
L 798.564363 -485.6755 
L 794.837841 -485.6755 
L 791.11132 -485.6755 
L 787.384798 -485.6755 
L 783.658277 -485.6755 
L 779.931755 -485.6755 
L 776.205234 -485.6755 
L 772.478713 -485.6755 
L 768.752191 -485.6755 
L 765.02567 -485.6755 
L 761.299148 -485.6755 
L 757.572627 -485.6755 
L 753.846106 -485.6755 
L 750.119584 -485.6755 
L 746.393063 -485.6755 
L 742.666541 -485.6755 
L 738.94002 -485.6755 
L 735.213498 -485.6755 
L 731.486977 -485.6755 
L 727.760456 -485.6755 
L 724.033934 -485.6755 
L 720.307413 -485.6755 
L 716.580891 -485.6755 
L 712.85437 -485.6755 
L 709.127849 -485.6755 
L 705.401327 -485.6755 
L 701.674806 -485.6755 
L 697.948284 -384.8755 
L 694.221763 -384.8755 
L 690.495242 -384.8755 
L 686.76872 -384.8755 
L 683.042199 -384.8755 
L 679.315677 -384.8755 
L 675.589156 -384.8755 
L 671.862634 -384.8755 
L 668.136113 -384.8755 
L 664.409592 -384.8755 
L 660.68307 -384.8755 
L 656.956549 -384.8755 
L 653.230027 -384.8755 
L 649.503506 -384.8755 
L 645.776985 -384.8755 
L 642.050463 -384.8755 
L 638.323942 -384.8755 
L 634.59742 -384.8755 
L 630.870899 -384.8755 
L 627.144378 -384.8755 
L 623.417856 -384.8755 
L 619.691335 -384.8755 
L 615.964813 -384.8755 
L 612.238292 -384.8755 
L 608.51177 -384.8755 
L 604.785249 -384.8755 
L 601.058728 -384.8755 
L 597.332206 -384.8755 
L 593.605685 -384.8755 
L 589.879163 -384.8755 
L 586.152642 -384.8755 
L 582.426121 -384.8755 
L 578.699599 -82.4755 
z
" style="stroke: #ffa500; stroke-opacity: 0.2; stroke-width: 2"/>
    </defs>
    <g clip-path="url(#p31cc676cd4)">
     <use xlink:href="#m3c3ec9b871" x="0" y="533.6245" style="fill: #ffa500; fill-opacity: 0.2; stroke: #ffa500; stroke-opacity: 0.2; stroke-width: 2"/>
    </g>
   </g>
   <g id="PolyCollection_5">
    <defs>
     <path id="md3022bcef4" d="M 578.699599 -82.4755 
L 578.699599 -82.4755 
L 582.426121 -82.4755 
L 586.152642 -82.4755 
L 589.879163 -82.4755 
L 593.605685 -82.4755 
L 597.332206 -82.4755 
L 601.058728 -82.4755 
L 604.785249 -82.4755 
L 608.51177 -82.4755 
L 612.238292 -82.4755 
L 615.964813 -82.4755 
L 619.691335 -82.4755 
L 623.417856 -82.4755 
L 627.144378 -82.4755 
L 630.870899 -82.4755 
L 634.59742 -82.4755 
L 638.323942 -82.4755 
L 642.050463 -82.4755 
L 645.776985 -82.4755 
L 649.503506 -82.4755 
L 653.230027 -82.4755 
L 656.956549 -82.4755 
L 660.68307 -82.4755 
L 664.409592 -82.4755 
L 668.136113 -82.4755 
L 671.862634 -82.4755 
L 675.589156 -82.4755 
L 679.315677 -82.4755 
L 683.042199 -82.4755 
L 686.76872 -82.4755 
L 690.495242 -82.4755 
L 694.221763 -82.4755 
L 697.948284 -82.4755 
L 701.674806 -183.2755 
L 705.401327 -183.2755 
L 709.127849 -183.2755 
L 712.85437 -183.2755 
L 716.580891 -183.2755 
L 720.307413 -183.2755 
L 724.033934 -183.2755 
L 727.760456 -183.2755 
L 731.486977 -183.2755 
L 735.213498 -183.2755 
L 738.94002 -183.2755 
L 742.666541 -183.2755 
L 746.393063 -183.2755 
L 750.119584 -183.2755 
L 753.846106 -183.2755 
L 757.572627 -183.2755 
L 761.299148 -183.2755 
L 765.02567 -183.2755 
L 768.752191 -183.2755 
L 772.478713 -183.2755 
L 776.205234 -183.2755 
L 779.931755 -183.2755 
L 783.658277 -183.2755 
L 787.384798 -183.2755 
L 791.11132 -183.2755 
L 794.837841 -183.2755 
L 798.564363 -183.2755 
L 802.290884 -183.2755 
L 806.017405 -183.2755 
L 809.743927 -183.2755 
L 813.470448 -183.2755 
L 817.19697 -183.2755 
L 820.923491 -183.2755 
L 824.650012 -243.7555 
L 828.376534 -243.7555 
L 832.103055 -243.7555 
L 835.829577 -243.7555 
L 839.556098 -243.7555 
L 843.282619 -243.7555 
L 847.009141 -243.7555 
L 850.735662 -243.7555 
L 854.462184 -243.7555 
L 858.188705 -243.7555 
L 861.915227 -243.7555 
L 865.641748 -243.7555 
L 869.368269 -243.7555 
L 873.094791 -243.7555 
L 876.821312 -243.7555 
L 880.547834 -243.7555 
L 884.274355 -243.7555 
L 888.000876 -243.7555 
L 891.727398 -243.7555 
L 895.453919 -243.7555 
L 899.180441 -243.7555 
L 902.906962 -243.7555 
L 906.633483 -243.7555 
L 910.360005 -243.7555 
L 914.086526 -243.7555 
L 917.813048 -243.7555 
L 921.539569 -243.7555 
L 925.266091 -243.7555 
L 928.992612 -243.7555 
L 932.719133 -243.7555 
L 936.445655 -243.7555 
L 940.172176 -243.7555 
L 943.898698 -243.7555 
L 947.625219 -485.6755 
L 947.625219 -485.6755 
L 947.625219 -485.6755 
L 943.898698 -485.6755 
L 940.172176 -485.6755 
L 936.445655 -485.6755 
L 932.719133 -485.6755 
L 928.992612 -485.6755 
L 925.266091 -485.6755 
L 921.539569 -485.6755 
L 917.813048 -485.6755 
L 914.086526 -485.6755 
L 910.360005 -485.6755 
L 906.633483 -485.6755 
L 902.906962 -485.6755 
L 899.180441 -485.6755 
L 895.453919 -485.6755 
L 891.727398 -485.6755 
L 888.000876 -485.6755 
L 884.274355 -485.6755 
L 880.547834 -485.6755 
L 876.821312 -485.6755 
L 873.094791 -485.6755 
L 869.368269 -485.6755 
L 865.641748 -485.6755 
L 861.915227 -485.6755 
L 858.188705 -485.6755 
L 854.462184 -485.6755 
L 850.735662 -485.6755 
L 847.009141 -485.6755 
L 843.282619 -485.6755 
L 839.556098 -485.6755 
L 835.829577 -485.6755 
L 832.103055 -485.6755 
L 828.376534 -485.6755 
L 824.650012 -485.6755 
L 820.923491 -485.6755 
L 817.19697 -485.6755 
L 813.470448 -485.6755 
L 809.743927 -485.6755 
L 806.017405 -485.6755 
L 802.290884 -485.6755 
L 798.564363 -485.6755 
L 794.837841 -485.6755 
L 791.11132 -485.6755 
L 787.384798 -485.6755 
L 783.658277 -485.6755 
L 779.931755 -485.6755 
L 776.205234 -485.6755 
L 772.478713 -485.6755 
L 768.752191 -485.6755 
L 765.02567 -485.6755 
L 761.299148 -384.8755 
L 757.572627 -384.8755 
L 753.846106 -384.8755 
L 750.119584 -384.8755 
L 746.393063 -384.8755 
L 742.666541 -384.8755 
L 738.94002 -384.8755 
L 735.213498 -384.8755 
L 731.486977 -384.8755 
L 727.760456 -384.8755 
L 724.033934 -384.8755 
L 720.307413 -384.8755 
L 716.580891 -384.8755 
L 712.85437 -384.8755 
L 709.127849 -384.8755 
L 705.401327 -384.8755 
L 701.674806 -384.8755 
L 697.948284 -384.8755 
L 694.221763 -384.8755 
L 690.495242 -384.8755 
L 686.76872 -384.8755 
L 683.042199 -384.8755 
L 679.315677 -384.8755 
L 675.589156 -384.8755 
L 671.862634 -384.8755 
L 668.136113 -384.8755 
L 664.409592 -384.8755 
L 660.68307 -384.8755 
L 656.956549 -384.8755 
L 653.230027 -384.8755 
L 649.503506 -384.8755 
L 645.776985 -384.8755 
L 642.050463 -384.8755 
L 638.323942 -384.8755 
L 634.59742 -384.8755 
L 630.870899 -384.8755 
L 627.144378 -384.8755 
L 623.417856 -384.8755 
L 619.691335 -384.8755 
L 615.964813 -384.8755 
L 612.238292 -384.8755 
L 608.51177 -384.8755 
L 604.785249 -384.8755 
L 601.058728 -384.8755 
L 597.332206 -384.8755 
L 593.605685 -384.8755 
L 589.879163 -384.8755 
L 586.152642 -384.8755 
L 582.426121 -384.8755 
L 578.699599 -82.4755 
z
" style="stroke: #0000ff; stroke-opacity: 0.2; stroke-width: 2"/>
    </defs>
    <g clip-path="url(#p31cc676cd4)">
     <use xlink:href="#md3022bcef4" x="0" y="533.6245" style="fill: #0000ff; fill-opacity: 0.2; stroke: #0000ff; stroke-opacity: 0.2; stroke-width: 2"/>
    </g>
   </g>
   <g id="PolyCollection_6">
    <defs>
     <path id="ma17265c349" d="M 578.699599 -82.4755 
L 578.699599 -82.4755 
L 582.426121 -82.4755 
L 586.152642 -82.4755 
L 589.879163 -82.4755 
L 593.605685 -82.4755 
L 597.332206 -82.4755 
L 601.058728 -82.4755 
L 604.785249 -82.4755 
L 608.51177 -82.4755 
L 612.238292 -82.4755 
L 615.964813 -82.4755 
L 619.691335 -82.4755 
L 623.417856 -82.4755 
L 627.144378 -82.4755 
L 630.870899 -82.4755 
L 634.59742 -82.4755 
L 638.323942 -82.4755 
L 642.050463 -82.4755 
L 645.776985 -82.4755 
L 649.503506 -82.4755 
L 653.230027 -82.4755 
L 656.956549 -82.4755 
L 660.68307 -82.4755 
L 664.409592 -82.4755 
L 668.136113 -82.4755 
L 671.862634 -82.4755 
L 675.589156 -82.4755 
L 679.315677 -82.4755 
L 683.042199 -82.4755 
L 686.76872 -82.4755 
L 690.495242 -82.4755 
L 694.221763 -82.4755 
L 697.948284 -82.4755 
L 701.674806 -82.4755 
L 705.401327 -82.4755 
L 709.127849 -82.4755 
L 712.85437 -82.4755 
L 716.580891 -82.4755 
L 720.307413 -82.4755 
L 724.033934 -82.4755 
L 727.760456 -82.4755 
L 731.486977 -82.4755 
L 735.213498 -82.4755 
L 738.94002 -82.4755 
L 742.666541 -82.4755 
L 746.393063 -82.4755 
L 750.119584 -82.4755 
L 753.846106 -82.4755 
L 757.572627 -82.4755 
L 761.299148 -82.4755 
L 765.02567 -82.4755 
L 768.752191 -82.4755 
L 772.478713 -82.4755 
L 776.205234 -82.4755 
L 779.931755 -82.4755 
L 783.658277 -82.4755 
L 787.384798 -82.4755 
L 791.11132 -82.4755 
L 794.837841 -82.4755 
L 798.564363 -82.4755 
L 802.290884 -82.4755 
L 806.017405 -82.4755 
L 809.743927 -82.4755 
L 813.470448 -82.4755 
L 817.19697 -82.4755 
L 820.923491 -82.4755 
L 824.650012 -82.4755 
L 828.376534 -82.4755 
L 832.103055 -82.4755 
L 835.829577 -82.4755 
L 839.556098 -82.4755 
L 843.282619 -82.4755 
L 847.009141 -82.4755 
L 850.735662 -82.4755 
L 854.462184 -82.4755 
L 858.188705 -82.4755 
L 861.915227 -82.4755 
L 865.641748 -82.4755 
L 869.368269 -82.4755 
L 873.094791 -82.4755 
L 876.821312 -82.4755 
L 880.547834 -82.4755 
L 884.274355 -82.4755 
L 888.000876 -82.4755 
L 891.727398 -82.4755 
L 895.453919 -82.4755 
L 899.180441 -82.4755 
L 902.906962 -82.4755 
L 906.633483 -82.4755 
L 910.360005 -82.4755 
L 914.086526 -82.4755 
L 917.813048 -82.4755 
L 921.539569 -82.4755 
L 925.266091 -82.4755 
L 928.992612 -82.4755 
L 932.719133 -82.4755 
L 936.445655 -82.4755 
L 940.172176 -82.4755 
L 943.898698 -82.4755 
L 947.625219 -485.6755 
L 947.625219 -485.6755 
L 947.625219 -485.6755 
L 943.898698 -485.6755 
L 940.172176 -485.6755 
L 936.445655 -485.6755 
L 932.719133 -485.6755 
L 928.992612 -485.6755 
L 925.266091 -485.6755 
L 921.539569 -485.6755 
L 917.813048 -485.6755 
L 914.086526 -485.6755 
L 910.360005 -485.6755 
L 906.633483 -485.6755 
L 902.906962 -485.6755 
L 899.180441 -485.6755 
L 895.453919 -485.6755 
L 891.727398 -485.6755 
L 888.000876 -485.6755 
L 884.274355 -485.6755 
L 880.547834 -485.6755 
L 876.821312 -485.6755 
L 873.094791 -485.6755 
L 869.368269 -485.6755 
L 865.641748 -485.6755 
L 861.915227 -485.6755 
L 858.188705 -485.6755 
L 854.462184 -485.6755 
L 850.735662 -485.6755 
L 847.009141 -485.6755 
L 843.282619 -485.6755 
L 839.556098 -485.6755 
L 835.829577 -485.6755 
L 832.103055 -485.6755 
L 828.376534 -485.6755 
L 824.650012 -485.6755 
L 820.923491 -405.0355 
L 817.19697 -405.0355 
L 813.470448 -405.0355 
L 809.743927 -405.0355 
L 806.017405 -405.0355 
L 802.290884 -405.0355 
L 798.564363 -405.0355 
L 794.837841 -405.0355 
L 791.11132 -405.0355 
L 787.384798 -405.0355 
L 783.658277 -405.0355 
L 779.931755 -405.0355 
L 776.205234 -405.0355 
L 772.478713 -405.0355 
L 768.752191 -405.0355 
L 765.02567 -405.0355 
L 761.299148 -405.0355 
L 757.572627 -405.0355 
L 753.846106 -405.0355 
L 750.119584 -405.0355 
L 746.393063 -405.0355 
L 742.666541 -405.0355 
L 738.94002 -405.0355 
L 735.213498 -405.0355 
L 731.486977 -405.0355 
L 727.760456 -405.0355 
L 724.033934 -405.0355 
L 720.307413 -405.0355 
L 716.580891 -405.0355 
L 712.85437 -405.0355 
L 709.127849 -405.0355 
L 705.401327 -405.0355 
L 701.674806 -405.0355 
L 697.948284 -405.0355 
L 694.221763 -405.0355 
L 690.495242 -405.0355 
L 686.76872 -405.0355 
L 683.042199 -405.0355 
L 679.315677 -405.0355 
L 675.589156 -405.0355 
L 671.862634 -405.0355 
L 668.136113 -405.0355 
L 664.409592 -405.0355 
L 660.68307 -405.0355 
L 656.956549 -405.0355 
L 653.230027 -405.0355 
L 649.503506 -405.0355 
L 645.776985 -405.0355 
L 642.050463 -405.0355 
L 638.323942 -405.0355 
L 634.59742 -405.0355 
L 630.870899 -405.0355 
L 627.144378 -405.0355 
L 623.417856 -405.0355 
L 619.691335 -405.0355 
L 615.964813 -405.0355 
L 612.238292 -405.0355 
L 608.51177 -405.0355 
L 604.785249 -405.0355 
L 601.058728 -405.0355 
L 597.332206 -405.0355 
L 593.605685 -405.0355 
L 589.879163 -405.0355 
L 586.152642 -405.0355 
L 582.426121 -405.0355 
L 578.699599 -82.4755 
z
" style="stroke: #008000; stroke-opacity: 0.2; stroke-width: 2"/>
    </defs>
    <g clip-path="url(#p31cc676cd4)">
     <use xlink:href="#ma17265c349" x="0" y="533.6245" style="fill: #008000; fill-opacity: 0.2; stroke: #008000; stroke-opacity: 0.2; stroke-width: 2"/>
    </g>
   </g>
   <g id="matplotlib.axis_3">
    <g id="xtick_7">
     <g id="line2d_20">
      <g>
       <use xlink:href="#m9872017e1e" x="578.699599" y="471.309" style="stroke: #000000; stroke-width: 2.5"/>
      </g>
     </g>
     <g id="text_19">
      <!-- 0.0 -->
      <g transform="translate(564.704849 500.18225) scale(0.176 -0.176)">
       <use xlink:href="#DejaVuSans-30"/>
       <use xlink:href="#DejaVuSans-2e" x="63.623047"/>
       <use xlink:href="#DejaVuSans-30" x="95.410156"/>
      </g>
     </g>
    </g>
    <g id="xtick_8">
     <g id="line2d_21">
      <g>
       <use xlink:href="#m9872017e1e" x="652.484723" y="471.309" style="stroke: #000000; stroke-width: 2.5"/>
      </g>
     </g>
     <g id="text_20">
      <!-- 0.2 -->
      <g transform="translate(638.489973 500.18225) scale(0.176 -0.176)">
       <use xlink:href="#DejaVuSans-30"/>
       <use xlink:href="#DejaVuSans-2e" x="63.623047"/>
       <use xlink:href="#DejaVuSans-32" x="95.410156"/>
      </g>
     </g>
    </g>
    <g id="xtick_9">
     <g id="line2d_22">
      <g>
       <use xlink:href="#m9872017e1e" x="726.269847" y="471.309" style="stroke: #000000; stroke-width: 2.5"/>
      </g>
     </g>
     <g id="text_21">
      <!-- 0.4 -->
      <g transform="translate(712.275097 500.18225) scale(0.176 -0.176)">
       <use xlink:href="#DejaVuSans-30"/>
       <use xlink:href="#DejaVuSans-2e" x="63.623047"/>
       <use xlink:href="#DejaVuSans-34" x="95.410156"/>
      </g>
     </g>
    </g>
    <g id="xtick_10">
     <g id="line2d_23">
      <g>
       <use xlink:href="#m9872017e1e" x="800.054971" y="471.309" style="stroke: #000000; stroke-width: 2.5"/>
      </g>
     </g>
     <g id="text_22">
      <!-- 0.6 -->
      <g transform="translate(786.060221 500.18225) scale(0.176 -0.176)">
       <use xlink:href="#DejaVuSans-30"/>
       <use xlink:href="#DejaVuSans-2e" x="63.623047"/>
       <use xlink:href="#DejaVuSans-36" x="95.410156"/>
      </g>
     </g>
    </g>
    <g id="xtick_11">
     <g id="line2d_24">
      <g>
       <use xlink:href="#m9872017e1e" x="873.840095" y="471.309" style="stroke: #000000; stroke-width: 2.5"/>
      </g>
     </g>
     <g id="text_23">
      <!-- 0.8 -->
      <g transform="translate(859.845345 500.18225) scale(0.176 -0.176)">
       <use xlink:href="#DejaVuSans-30"/>
       <use xlink:href="#DejaVuSans-2e" x="63.623047"/>
       <use xlink:href="#DejaVuSans-38" x="95.410156"/>
      </g>
     </g>
    </g>
    <g id="xtick_12">
     <g id="line2d_25">
      <g>
       <use xlink:href="#m9872017e1e" x="947.625219" y="471.309" style="stroke: #000000; stroke-width: 2.5"/>
      </g>
     </g>
     <g id="text_24">
      <!-- 1.0 -->
      <g transform="translate(933.630469 500.18225) scale(0.176 -0.176)">
       <use xlink:href="#DejaVuSans-31"/>
       <use xlink:href="#DejaVuSans-2e" x="63.623047"/>
       <use xlink:href="#DejaVuSans-30" x="95.410156"/>
      </g>
     </g>
    </g>
    <g id="text_25">
     <!-- False Positive Rate -->
     <g transform="translate(673.946909 522.4315) scale(0.192 -0.192)">
      <use xlink:href="#DejaVuSans-46"/>
      <use xlink:href="#DejaVuSans-61" x="48.394531"/>
      <use xlink:href="#DejaVuSans-6c" x="109.673828"/>
      <use xlink:href="#DejaVuSans-73" x="137.457031"/>
      <use xlink:href="#DejaVuSans-65" x="189.556641"/>
      <use xlink:href="#DejaVuSans-20" x="251.080078"/>
      <use xlink:href="#DejaVuSans-50" x="282.867188"/>
      <use xlink:href="#DejaVuSans-6f" x="339.544922"/>
      <use xlink:href="#DejaVuSans-73" x="400.726562"/>
      <use xlink:href="#DejaVuSans-69" x="452.826172"/>
      <use xlink:href="#DejaVuSans-74" x="480.609375"/>
      <use xlink:href="#DejaVuSans-69" x="519.818359"/>
      <use xlink:href="#DejaVuSans-76" x="547.601562"/>
      <use xlink:href="#DejaVuSans-65" x="606.78125"/>
      <use xlink:href="#DejaVuSans-20" x="668.304688"/>
      <use xlink:href="#DejaVuSans-52" x="700.091797"/>
      <use xlink:href="#DejaVuSans-61" x="767.324219"/>
      <use xlink:href="#DejaVuSans-74" x="828.603516"/>
      <use xlink:href="#DejaVuSans-65" x="867.8125"/>
     </g>
    </g>
   </g>
   <g id="matplotlib.axis_4">
    <g id="ytick_7">
     <g id="line2d_26">
      <g>
       <use xlink:href="#m2acb856b2a" x="560.253318" y="451.149" style="stroke: #000000; stroke-width: 2.5"/>
      </g>
     </g>
     <g id="text_26">
      <!-- 0.0 -->
      <g transform="translate(516.763818 457.835625) scale(0.176 -0.176)">
       <use xlink:href="#DejaVuSans-30"/>
       <use xlink:href="#DejaVuSans-2e" x="63.623047"/>
       <use xlink:href="#DejaVuSans-30" x="95.410156"/>
      </g>
     </g>
    </g>
    <g id="ytick_8">
     <g id="line2d_27">
      <g>
       <use xlink:href="#m2acb856b2a" x="560.253318" y="370.509" style="stroke: #000000; stroke-width: 2.5"/>
      </g>
     </g>
     <g id="text_27">
      <!-- 0.2 -->
      <g transform="translate(516.763818 377.195625) scale(0.176 -0.176)">
       <use xlink:href="#DejaVuSans-30"/>
       <use xlink:href="#DejaVuSans-2e" x="63.623047"/>
       <use xlink:href="#DejaVuSans-32" x="95.410156"/>
      </g>
     </g>
    </g>
    <g id="ytick_9">
     <g id="line2d_28">
      <g>
       <use xlink:href="#m2acb856b2a" x="560.253318" y="289.869" style="stroke: #000000; stroke-width: 2.5"/>
      </g>
     </g>
     <g id="text_28">
      <!-- 0.4 -->
      <g transform="translate(516.763818 296.555625) scale(0.176 -0.176)">
       <use xlink:href="#DejaVuSans-30"/>
       <use xlink:href="#DejaVuSans-2e" x="63.623047"/>
       <use xlink:href="#DejaVuSans-34" x="95.410156"/>
      </g>
     </g>
    </g>
    <g id="ytick_10">
     <g id="line2d_29">
      <g>
       <use xlink:href="#m2acb856b2a" x="560.253318" y="209.229" style="stroke: #000000; stroke-width: 2.5"/>
      </g>
     </g>
     <g id="text_29">
      <!-- 0.6 -->
      <g transform="translate(516.763818 215.915625) scale(0.176 -0.176)">
       <use xlink:href="#DejaVuSans-30"/>
       <use xlink:href="#DejaVuSans-2e" x="63.623047"/>
       <use xlink:href="#DejaVuSans-36" x="95.410156"/>
      </g>
     </g>
    </g>
    <g id="ytick_11">
     <g id="line2d_30">
      <g>
       <use xlink:href="#m2acb856b2a" x="560.253318" y="128.589" style="stroke: #000000; stroke-width: 2.5"/>
      </g>
     </g>
     <g id="text_30">
      <!-- 0.8 -->
      <g transform="translate(516.763818 135.275625) scale(0.176 -0.176)">
       <use xlink:href="#DejaVuSans-30"/>
       <use xlink:href="#DejaVuSans-2e" x="63.623047"/>
       <use xlink:href="#DejaVuSans-38" x="95.410156"/>
      </g>
     </g>
    </g>
    <g id="ytick_12">
     <g id="line2d_31">
      <g>
       <use xlink:href="#m2acb856b2a" x="560.253318" y="47.949" style="stroke: #000000; stroke-width: 2.5"/>
      </g>
     </g>
     <g id="text_31">
      <!-- 1.0 -->
      <g transform="translate(516.763818 54.635625) scale(0.176 -0.176)">
       <use xlink:href="#DejaVuSans-31"/>
       <use xlink:href="#DejaVuSans-2e" x="63.623047"/>
       <use xlink:href="#DejaVuSans-30" x="95.410156"/>
      </g>
     </g>
    </g>
    <g id="text_32">
     <!-- True Positive Rate -->
     <g transform="translate(508.770818 335.046) rotate(-90) scale(0.192 -0.192)">
      <use xlink:href="#DejaVuSans-54"/>
      <use xlink:href="#DejaVuSans-72" x="46.333984"/>
      <use xlink:href="#DejaVuSans-75" x="87.447266"/>
      <use xlink:href="#DejaVuSans-65" x="150.826172"/>
      <use xlink:href="#DejaVuSans-20" x="212.349609"/>
      <use xlink:href="#DejaVuSans-50" x="244.136719"/>
      <use xlink:href="#DejaVuSans-6f" x="300.814453"/>
      <use xlink:href="#DejaVuSans-73" x="361.996094"/>
      <use xlink:href="#DejaVuSans-69" x="414.095703"/>
      <use xlink:href="#DejaVuSans-74" x="441.878906"/>
      <use xlink:href="#DejaVuSans-69" x="481.087891"/>
      <use xlink:href="#DejaVuSans-76" x="508.871094"/>
      <use xlink:href="#DejaVuSans-65" x="568.050781"/>
      <use xlink:href="#DejaVuSans-20" x="629.574219"/>
      <use xlink:href="#DejaVuSans-52" x="661.361328"/>
      <use xlink:href="#DejaVuSans-61" x="728.59375"/>
      <use xlink:href="#DejaVuSans-74" x="789.873047"/>
      <use xlink:href="#DejaVuSans-65" x="829.082031"/>
     </g>
    </g>
   </g>
   <g id="line2d_32">
    <path d="M 578.699599 451.149 
L 582.426121 269.709 
L 586.152642 269.709 
L 589.879163 269.709 
L 593.605685 269.709 
L 597.332206 269.709 
L 601.058728 269.709 
L 604.785249 269.709 
L 608.51177 269.709 
L 612.238292 269.709 
L 615.964813 269.709 
L 619.691335 269.709 
L 623.417856 269.709 
L 627.144378 269.709 
L 630.870899 269.709 
L 634.59742 269.709 
L 638.323942 269.709 
L 642.050463 269.709 
L 645.776985 269.709 
L 649.503506 269.709 
L 653.230027 269.709 
L 656.956549 269.709 
L 660.68307 269.709 
L 664.409592 269.709 
L 668.136113 269.709 
L 671.862634 269.709 
L 675.589156 269.709 
L 679.315677 269.709 
L 683.042199 269.709 
L 686.76872 269.709 
L 690.495242 269.709 
L 694.221763 269.709 
L 697.948284 269.709 
L 701.674806 249.549 
L 705.401327 249.549 
L 709.127849 249.549 
L 712.85437 249.549 
L 716.580891 249.549 
L 720.307413 249.549 
L 724.033934 249.549 
L 727.760456 249.549 
L 731.486977 249.549 
L 735.213498 249.549 
L 738.94002 249.549 
L 742.666541 249.549 
L 746.393063 249.549 
L 750.119584 249.549 
L 753.846106 249.549 
L 757.572627 249.549 
L 761.299148 249.549 
L 765.02567 201.165 
L 768.752191 201.165 
L 772.478713 201.165 
L 776.205234 201.165 
L 779.931755 201.165 
L 783.658277 201.165 
L 787.384798 201.165 
L 791.11132 201.165 
L 794.837841 201.165 
L 798.564363 201.165 
L 802.290884 201.165 
L 806.017405 201.165 
L 809.743927 201.165 
L 813.470448 201.165 
L 817.19697 201.165 
L 820.923491 201.165 
L 824.650012 170.925 
L 828.376534 170.925 
L 832.103055 170.925 
L 835.829577 170.925 
L 839.556098 170.925 
L 843.282619 170.925 
L 847.009141 170.925 
L 850.735662 170.925 
L 854.462184 170.925 
L 858.188705 170.925 
L 861.915227 170.925 
L 865.641748 170.925 
L 869.368269 170.925 
L 873.094791 170.925 
L 876.821312 170.925 
L 880.547834 170.925 
L 884.274355 170.925 
L 888.000876 170.925 
L 891.727398 170.925 
L 895.453919 170.925 
L 899.180441 170.925 
L 902.906962 170.925 
L 906.633483 170.925 
L 910.360005 170.925 
L 914.086526 170.925 
L 917.813048 170.925 
L 921.539569 170.925 
L 925.266091 170.925 
L 928.992612 170.925 
L 932.719133 170.925 
L 936.445655 170.925 
L 940.172176 170.925 
L 943.898698 170.925 
L 947.625219 47.949 
" clip-path="url(#p31cc676cd4)" style="fill: none; stroke: #ffa500; stroke-width: 3; stroke-linecap: square"/>
   </g>
   <g id="line2d_33">
    <path d="M 578.699599 451.149 
L 582.426121 289.869 
L 586.152642 289.869 
L 589.879163 289.869 
L 593.605685 289.869 
L 597.332206 289.869 
L 601.058728 289.869 
L 604.785249 289.869 
L 608.51177 289.869 
L 612.238292 289.869 
L 615.964813 289.869 
L 619.691335 289.869 
L 623.417856 289.869 
L 627.144378 289.869 
L 630.870899 289.869 
L 634.59742 289.869 
L 638.323942 289.869 
L 642.050463 289.869 
L 645.776985 289.869 
L 649.503506 289.869 
L 653.230027 289.869 
L 656.956549 289.869 
L 660.68307 289.869 
L 664.409592 289.869 
L 668.136113 289.869 
L 671.862634 289.869 
L 675.589156 289.869 
L 679.315677 289.869 
L 683.042199 289.869 
L 686.76872 289.869 
L 690.495242 289.869 
L 694.221763 289.869 
L 697.948284 289.869 
L 701.674806 259.629 
L 705.401327 259.629 
L 709.127849 259.629 
L 712.85437 259.629 
L 716.580891 259.629 
L 720.307413 259.629 
L 724.033934 259.629 
L 727.760456 259.629 
L 731.486977 259.629 
L 735.213498 259.629 
L 738.94002 259.629 
L 742.666541 259.629 
L 746.393063 259.629 
L 750.119584 259.629 
L 753.846106 259.629 
L 757.572627 259.629 
L 761.299148 259.629 
L 765.02567 219.227545 
L 768.752191 219.064636 
L 772.478713 218.901727 
L 776.205234 218.738818 
L 779.931755 218.575909 
L 783.658277 218.413 
L 787.384798 218.250091 
L 791.11132 218.087182 
L 794.837841 217.924273 
L 798.564363 217.761364 
L 802.290884 217.598455 
L 806.017405 217.435545 
L 809.743927 217.272636 
L 813.470448 217.109727 
L 817.19697 216.946818 
L 820.923491 216.783909 
L 824.650012 156.141 
L 828.376534 155.978091 
L 832.103055 155.815182 
L 835.829577 155.652273 
L 839.556098 155.489364 
L 843.282619 155.326455 
L 847.009141 155.163545 
L 850.735662 155.000636 
L 854.462184 154.837727 
L 858.188705 154.674818 
L 861.915227 154.511909 
L 865.641748 154.349 
L 869.368269 154.186091 
L 873.094791 154.023182 
L 876.821312 153.860273 
L 880.547834 153.697364 
L 884.274355 153.534455 
L 888.000876 153.371545 
L 891.727398 153.208636 
L 895.453919 153.045727 
L 899.180441 152.882818 
L 902.906962 152.719909 
L 906.633483 152.557 
L 910.360005 152.394091 
L 914.086526 152.231182 
L 917.813048 152.068273 
L 921.539569 151.905364 
L 925.266091 151.742455 
L 928.992612 151.579545 
L 932.719133 151.416636 
L 936.445655 151.253727 
L 940.172176 151.090818 
L 943.898698 150.927909 
L 947.625219 47.949 
" clip-path="url(#p31cc676cd4)" style="fill: none; stroke: #0000ff; stroke-width: 3; stroke-linecap: square"/>
   </g>
   <g id="line2d_34">
    <path d="M 578.699599 451.149 
L 582.426121 303.981 
L 586.152642 303.981 
L 589.879163 303.981 
L 593.605685 303.981 
L 597.332206 303.981 
L 601.058728 303.981 
L 604.785249 303.981 
L 608.51177 303.981 
L 612.238292 303.981 
L 615.964813 303.981 
L 619.691335 303.981 
L 623.417856 303.981 
L 627.144378 303.981 
L 630.870899 303.981 
L 634.59742 303.981 
L 638.323942 303.981 
L 642.050463 303.981 
L 645.776985 303.981 
L 649.503506 303.981 
L 653.230027 303.981 
L 656.956549 303.981 
L 660.68307 303.981 
L 664.409592 303.981 
L 668.136113 303.981 
L 671.862634 303.981 
L 675.589156 303.981 
L 679.315677 303.981 
L 683.042199 303.981 
L 686.76872 303.981 
L 690.495242 303.981 
L 694.221763 303.981 
L 697.948284 303.981 
L 701.674806 263.661 
L 705.401327 263.661 
L 709.127849 263.661 
L 712.85437 263.661 
L 716.580891 263.661 
L 720.307413 263.661 
L 724.033934 263.661 
L 727.760456 263.661 
L 731.486977 263.661 
L 735.213498 263.661 
L 738.94002 263.661 
L 742.666541 263.661 
L 746.393063 263.661 
L 750.119584 263.661 
L 753.846106 263.661 
L 757.572627 263.661 
L 761.299148 263.661 
L 765.02567 247.533 
L 768.752191 247.533 
L 772.478713 247.533 
L 776.205234 247.533 
L 779.931755 247.533 
L 783.658277 247.533 
L 787.384798 247.533 
L 791.11132 247.533 
L 794.837841 247.533 
L 798.564363 247.533 
L 802.290884 247.533 
L 806.017405 247.533 
L 809.743927 247.533 
L 813.470448 247.533 
L 817.19697 247.533 
L 820.923491 247.533 
L 824.650012 217.293 
L 828.376534 217.293 
L 832.103055 217.293 
L 835.829577 217.293 
L 839.556098 217.293 
L 843.282619 217.293 
L 847.009141 217.293 
L 850.735662 217.293 
L 854.462184 217.293 
L 858.188705 217.293 
L 861.915227 217.293 
L 865.641748 217.293 
L 869.368269 217.293 
L 873.094791 217.293 
L 876.821312 217.293 
L 880.547834 217.293 
L 884.274355 217.293 
L 888.000876 217.293 
L 891.727398 217.293 
L 895.453919 217.293 
L 899.180441 217.293 
L 902.906962 217.293 
L 906.633483 217.293 
L 910.360005 217.293 
L 914.086526 217.293 
L 917.813048 217.293 
L 921.539569 217.293 
L 925.266091 217.293 
L 928.992612 217.293 
L 932.719133 217.293 
L 936.445655 217.293 
L 940.172176 217.293 
L 943.898698 217.293 
L 947.625219 47.949 
" clip-path="url(#p31cc676cd4)" style="fill: none; stroke: #008000; stroke-width: 3; stroke-linecap: square"/>
   </g>
   <g id="line2d_35">
    <path d="M 578.699599 451.149 
L 947.625219 47.949 
" clip-path="url(#p31cc676cd4)" style="fill: none; stroke-dasharray: 11.1,4.8; stroke-dashoffset: 0; stroke: #000000; stroke-opacity: 0.5; stroke-width: 3"/>
   </g>
   <g id="patch_9">
    <path d="M 560.253318 471.309 
L 560.253318 27.789 
" style="fill: none; stroke: #000000; stroke-width: 2.5; stroke-linejoin: miter; stroke-linecap: square"/>
   </g>
   <g id="patch_10">
    <path d="M 966.0715 471.309 
L 966.0715 27.789 
" style="fill: none; stroke: #000000; stroke-width: 2.5; stroke-linejoin: miter; stroke-linecap: square"/>
   </g>
   <g id="patch_11">
    <path d="M 560.253318 471.309 
L 966.0715 471.309 
" style="fill: none; stroke: #000000; stroke-width: 2.5; stroke-linejoin: miter; stroke-linecap: square"/>
   </g>
   <g id="patch_12">
    <path d="M 560.253318 27.789 
L 966.0715 27.789 
" style="fill: none; stroke: #000000; stroke-width: 2.5; stroke-linejoin: miter; stroke-linecap: square"/>
   </g>
   <g id="text_33">
    <!-- Approach CDT_DI_FI_OHE_LIVE_MONTH -->
    <g transform="translate(574.207409 21.789) scale(0.192 -0.192)">
     <use xlink:href="#DejaVuSans-41"/>
     <use xlink:href="#DejaVuSans-70" x="68.408203"/>
     <use xlink:href="#DejaVuSans-70" x="131.884766"/>
     <use xlink:href="#DejaVuSans-72" x="195.361328"/>
     <use xlink:href="#DejaVuSans-6f" x="234.224609"/>
     <use xlink:href="#DejaVuSans-61" x="295.40625"/>
     <use xlink:href="#DejaVuSans-63" x="356.685547"/>
     <use xlink:href="#DejaVuSans-68" x="411.666016"/>
     <use xlink:href="#DejaVuSans-20" x="475.044922"/>
     <use xlink:href="#DejaVuSans-43" x="506.832031"/>
     <use xlink:href="#DejaVuSans-44" x="576.65625"/>
     <use xlink:href="#DejaVuSans-54" x="653.658203"/>
     <use xlink:href="#DejaVuSans-5f" x="714.742188"/>
     <use xlink:href="#DejaVuSans-44" x="764.742188"/>
     <use xlink:href="#DejaVuSans-49" x="841.744141"/>
     <use xlink:href="#DejaVuSans-5f" x="871.236328"/>
     <use xlink:href="#DejaVuSans-46" x="921.236328"/>
     <use xlink:href="#DejaVuSans-49" x="978.755859"/>
     <use xlink:href="#DejaVuSans-5f" x="1008.248047"/>
     <use xlink:href="#DejaVuSans-4f" x="1058.248047"/>
     <use xlink:href="#DejaVuSans-48" x="1136.958984"/>
     <use xlink:href="#DejaVuSans-45" x="1212.154297"/>
     <use xlink:href="#DejaVuSans-5f" x="1275.337891"/>
     <use xlink:href="#DejaVuSans-4c" x="1325.337891"/>
     <use xlink:href="#DejaVuSans-49" x="1381.050781"/>
     <use xlink:href="#DejaVuSans-56" x="1410.542969"/>
     <use xlink:href="#DejaVuSans-45" x="1478.951172"/>
     <use xlink:href="#DejaVuSans-5f" x="1542.134766"/>
     <use xlink:href="#DejaVuSans-4d" x="1592.134766"/>
     <use xlink:href="#DejaVuSans-4f" x="1678.414062"/>
     <use xlink:href="#DejaVuSans-4e" x="1757.125"/>
     <use xlink:href="#DejaVuSans-54" x="1831.929688"/>
     <use xlink:href="#DejaVuSans-48" x="1893.013672"/>
    </g>
   </g>
   <g id="legend_2">
    <g id="patch_13">
     <path d="M 572.573318 119.3695 
L 718.001568 119.3695 
Q 721.521568 119.3695 721.521568 115.8495 
L 721.521568 40.109 
Q 721.521568 36.589 718.001568 36.589 
L 572.573318 36.589 
Q 569.053318 36.589 569.053318 40.109 
L 569.053318 115.8495 
Q 569.053318 119.3695 572.573318 119.3695 
z
" style="fill: #ffffff; opacity: 0.8; stroke: #cccccc; stroke-width: 2; stroke-linejoin: miter"/>
    </g>
    <g id="line2d_36">
     <path d="M 576.093318 50.84225 
L 593.693318 50.84225 
L 611.293318 50.84225 
" style="fill: none; stroke: #ffa500; stroke-width: 3; stroke-linecap: square"/>
    </g>
    <g id="text_34">
     <!-- LR: 0.57 -->
     <g transform="translate(625.373318 57.00225) scale(0.176 -0.176)">
      <use xlink:href="#DejaVuSans-4c"/>
      <use xlink:href="#DejaVuSans-52" x="55.712891"/>
      <use xlink:href="#DejaVuSans-3a" x="122.070312"/>
      <use xlink:href="#DejaVuSans-20" x="155.761719"/>
      <use xlink:href="#DejaVuSans-30" x="187.548828"/>
      <use xlink:href="#DejaVuSans-2e" x="251.171875"/>
      <use xlink:href="#DejaVuSans-35" x="282.958984"/>
      <use xlink:href="#DejaVuSans-37" x="346.582031"/>
     </g>
    </g>
    <g id="line2d_37">
     <path d="M 576.093318 76.67575 
L 593.693318 76.67575 
L 611.293318 76.67575 
" style="fill: none; stroke: #0000ff; stroke-width: 3; stroke-linecap: square"/>
    </g>
    <g id="text_35">
     <!-- RF: 0.56 -->
     <g transform="translate(625.373318 82.83575) scale(0.176 -0.176)">
      <use xlink:href="#DejaVuSans-52"/>
      <use xlink:href="#DejaVuSans-46" x="69.482422"/>
      <use xlink:href="#DejaVuSans-3a" x="119.251953"/>
      <use xlink:href="#DejaVuSans-20" x="152.943359"/>
      <use xlink:href="#DejaVuSans-30" x="184.730469"/>
      <use xlink:href="#DejaVuSans-2e" x="248.353516"/>
      <use xlink:href="#DejaVuSans-35" x="280.140625"/>
      <use xlink:href="#DejaVuSans-36" x="343.763672"/>
     </g>
    </g>
    <g id="line2d_38">
     <path d="M 576.093318 102.50925 
L 593.693318 102.50925 
L 611.293318 102.50925 
" style="fill: none; stroke: #008000; stroke-width: 3; stroke-linecap: square"/>
    </g>
    <g id="text_36">
     <!-- SVM: 0.48 -->
     <g transform="translate(625.373318 108.66925) scale(0.176 -0.176)">
      <use xlink:href="#DejaVuSans-53"/>
      <use xlink:href="#DejaVuSans-56" x="63.476562"/>
      <use xlink:href="#DejaVuSans-4d" x="131.884766"/>
      <use xlink:href="#DejaVuSans-3a" x="218.164062"/>
      <use xlink:href="#DejaVuSans-20" x="251.855469"/>
      <use xlink:href="#DejaVuSans-30" x="283.642578"/>
      <use xlink:href="#DejaVuSans-2e" x="347.265625"/>
      <use xlink:href="#DejaVuSans-34" x="379.052734"/>
      <use xlink:href="#DejaVuSans-38" x="442.675781"/>
     </g>
    </g>
   </g>
  </g>
 </g>
 <defs>
  <clipPath id="pfb7222c820">
   <rect x="73.2715" y="27.789" width="405.818182" height="443.52"/>
  </clipPath>
  <clipPath id="p31cc676cd4">
   <rect x="560.253318" y="27.789" width="405.818182" height="443.52"/>
  </clipPath>
 </defs>
</svg>
