<?xml version="1.0" encoding="utf-8" standalone="no"?>
<!DOCTYPE svg PUBLIC "-//W3C//DTD SVG 1.1//EN"
  "http://www.w3.org/Graphics/SVG/1.1/DTD/svg11.dtd">
<svg xmlns:xlink="http://www.w3.org/1999/xlink" width="973.2715pt" height="533.6245pt" viewBox="0 0 973.2715 533.6245" xmlns="http://www.w3.org/2000/svg" version="1.1">
 <metadata>
  <rdf:RDF xmlns:dc="http://purl.org/dc/elements/1.1/" xmlns:cc="http://creativecommons.org/ns#" xmlns:rdf="http://www.w3.org/1999/02/22-rdf-syntax-ns#">
   <cc:Work>
    <dc:type rdf:resource="http://purl.org/dc/dcmitype/StillImage"/>
    <dc:date>2023-05-11T17:16:00.962114</dc:date>
    <dc:format>image/svg+xml</dc:format>
    <dc:creator>
     <cc:Agent>
      <dc:title>Matplotlib v3.6.2, https://matplotlib.org/</dc:title>
     </cc:Agent>
    </dc:creator>
   </cc:Work>
  </rdf:RDF>
 </metadata>
 <defs>
  <style type="text/css">*{stroke-linejoin: round; stroke-linecap: butt}</style>
 </defs>
 <g id="figure_1">
  <g id="patch_1">
   <path d="M 0 533.6245 
L 973.2715 533.6245 
L 973.2715 0 
L 0 0 
z
" style="fill: #ffffff"/>
  </g>
  <g id="axes_1">
   <g id="patch_2">
    <path d="M 73.2715 471.309 
L 479.089682 471.309 
L 479.089682 27.789 
L 73.2715 27.789 
z
" style="fill: #ffffff"/>
   </g>
   <g id="PolyCollection_1">
    <defs>
     <path id="m59dfd7f782" d="M 91.717781 -82.4755 
L 91.717781 -82.4755 
L 95.444302 -127.2755 
L 99.170824 -127.2755 
L 102.897345 -127.2755 
L 106.623867 -127.2755 
L 110.350388 -127.2755 
L 114.076909 -127.2755 
L 117.803431 -127.2755 
L 121.529952 -127.2755 
L 125.256474 -127.2755 
L 128.982995 -127.2755 
L 132.709517 -127.2755 
L 136.436038 -127.2755 
L 140.162559 -127.2755 
L 143.889081 -127.2755 
L 147.615602 -127.2755 
L 151.342124 -127.2755 
L 155.068645 -127.2755 
L 158.795166 -127.2755 
L 162.521688 -127.2755 
L 166.248209 -163.1155 
L 169.974731 -163.1155 
L 173.701252 -163.1155 
L 177.427773 -163.1155 
L 181.154295 -163.1155 
L 184.880816 -306.4755 
L 188.607338 -306.4755 
L 192.333859 -306.4755 
L 196.060381 -306.4755 
L 199.786902 -306.4755 
L 203.513423 -306.4755 
L 207.239945 -306.4755 
L 210.966466 -306.4755 
L 214.692988 -306.4755 
L 218.419509 -306.4755 
L 222.14603 -306.4755 
L 225.872552 -306.4755 
L 229.599073 -306.4755 
L 233.325595 -306.4755 
L 237.052116 -306.4755 
L 240.778637 -306.4755 
L 244.505159 -306.4755 
L 248.23168 -306.4755 
L 251.958202 -306.4755 
L 255.684723 -306.4755 
L 259.411245 -306.4755 
L 263.137766 -306.4755 
L 266.864287 -306.4755 
L 270.590809 -306.4755 
L 274.31733 -306.4755 
L 278.043852 -306.4755 
L 281.770373 -306.4755 
L 285.496894 -306.4755 
L 289.223416 -306.4755 
L 292.949937 -306.4755 
L 296.676459 -306.4755 
L 300.40298 -306.4755 
L 304.129502 -306.4755 
L 307.856023 -306.4755 
L 311.582544 -306.4755 
L 315.309066 -364.7155 
L 319.035587 -364.7155 
L 322.762109 -364.7155 
L 326.48863 -364.7155 
L 330.215151 -364.7155 
L 333.941673 -364.7155 
L 337.668194 -364.7155 
L 341.394716 -364.7155 
L 345.121237 -364.7155 
L 348.847758 -364.7155 
L 352.57428 -364.7155 
L 356.300801 -364.7155 
L 360.027323 -364.7155 
L 363.753844 -364.7155 
L 367.480366 -364.7155 
L 371.206887 -364.7155 
L 374.933408 -364.7155 
L 378.65993 -364.7155 
L 382.386451 -364.7155 
L 386.112973 -364.7155 
L 389.839494 -364.7155 
L 393.566015 -364.7155 
L 397.292537 -364.7155 
L 401.019058 -364.7155 
L 404.74558 -364.7155 
L 408.472101 -364.7155 
L 412.198622 -364.7155 
L 415.925144 -364.7155 
L 419.651665 -364.7155 
L 423.378187 -364.7155 
L 427.104708 -364.7155 
L 430.83123 -364.7155 
L 434.557751 -364.7155 
L 438.284272 -364.7155 
L 442.010794 -364.7155 
L 445.737315 -364.7155 
L 449.463837 -364.7155 
L 453.190358 -364.7155 
L 456.916879 -364.7155 
L 460.643401 -485.6755 
L 460.643401 -485.6755 
L 460.643401 -485.6755 
L 456.916879 -485.6755 
L 453.190358 -485.6755 
L 449.463837 -485.6755 
L 445.737315 -485.6755 
L 442.010794 -485.6755 
L 438.284272 -485.6755 
L 434.557751 -485.6755 
L 430.83123 -485.6755 
L 427.104708 -485.6755 
L 423.378187 -485.6755 
L 419.651665 -485.6755 
L 415.925144 -485.6755 
L 412.198622 -485.6755 
L 408.472101 -485.6755 
L 404.74558 -485.6755 
L 401.019058 -485.6755 
L 397.292537 -485.6755 
L 393.566015 -485.6755 
L 389.839494 -485.6755 
L 386.112973 -485.6755 
L 382.386451 -485.6755 
L 378.65993 -485.6755 
L 374.933408 -485.6755 
L 371.206887 -485.6755 
L 367.480366 -485.6755 
L 363.753844 -485.6755 
L 360.027323 -485.6755 
L 356.300801 -485.6755 
L 352.57428 -485.6755 
L 348.847758 -485.6755 
L 345.121237 -485.6755 
L 341.394716 -485.6755 
L 337.668194 -485.6755 
L 333.941673 -485.6755 
L 330.215151 -485.6755 
L 326.48863 -485.6755 
L 322.762109 -485.6755 
L 319.035587 -485.6755 
L 315.309066 -485.6755 
L 311.582544 -485.6755 
L 307.856023 -485.6755 
L 304.129502 -485.6755 
L 300.40298 -485.6755 
L 296.676459 -485.6755 
L 292.949937 -485.6755 
L 289.223416 -485.6755 
L 285.496894 -485.6755 
L 281.770373 -485.6755 
L 278.043852 -485.6755 
L 274.31733 -445.3555 
L 270.590809 -445.3555 
L 266.864287 -445.3555 
L 263.137766 -445.3555 
L 259.411245 -445.3555 
L 255.684723 -445.3555 
L 251.958202 -445.3555 
L 248.23168 -445.3555 
L 244.505159 -445.3555 
L 240.778637 -445.3555 
L 237.052116 -445.3555 
L 233.325595 -445.3555 
L 229.599073 -445.3555 
L 225.872552 -445.3555 
L 222.14603 -445.3555 
L 218.419509 -445.3555 
L 214.692988 -445.3555 
L 210.966466 -445.3555 
L 207.239945 -445.3555 
L 203.513423 -445.3555 
L 199.786902 -445.3555 
L 196.060381 -445.3555 
L 192.333859 -445.3555 
L 188.607338 -445.3555 
L 184.880816 -445.3555 
L 181.154295 -440.8755 
L 177.427773 -440.8755 
L 173.701252 -440.8755 
L 169.974731 -440.8755 
L 166.248209 -440.8755 
L 162.521688 -440.8755 
L 158.795166 -440.8755 
L 155.068645 -440.8755 
L 151.342124 -440.8755 
L 147.615602 -440.8755 
L 143.889081 -440.8755 
L 140.162559 -440.8755 
L 136.436038 -440.8755 
L 132.709517 -440.8755 
L 128.982995 -440.8755 
L 125.256474 -440.8755 
L 121.529952 -440.8755 
L 117.803431 -440.8755 
L 114.076909 -440.8755 
L 110.350388 -440.8755 
L 106.623867 -440.8755 
L 102.897345 -440.8755 
L 99.170824 -440.8755 
L 95.444302 -440.8755 
L 91.717781 -82.4755 
z
" style="stroke: #ffa500; stroke-opacity: 0.2; stroke-width: 2"/>
    </defs>
    <g clip-path="url(#pe383bc30fd)">
     <use xlink:href="#m59dfd7f782" x="0" y="533.6245" style="fill: #ffa500; fill-opacity: 0.2; stroke: #ffa500; stroke-opacity: 0.2; stroke-width: 2"/>
    </g>
   </g>
   <g id="PolyCollection_2">
    <defs>
     <path id="m01786fab90" d="M 91.717781 -82.4755 
L 91.717781 -82.4755 
L 95.444302 -85.733682 
L 99.170824 -88.991864 
L 102.897345 -92.250045 
L 106.623867 -95.508227 
L 110.350388 -98.766409 
L 114.076909 -102.024591 
L 117.803431 -105.282773 
L 121.529952 -108.540955 
L 125.256474 -111.799136 
L 128.982995 -115.057318 
L 132.709517 -118.3155 
L 136.436038 -121.573682 
L 140.162559 -124.831864 
L 143.889081 -128.090045 
L 147.615602 -131.348227 
L 151.342124 -134.606409 
L 155.068645 -137.864591 
L 158.795166 -141.122773 
L 162.521688 -144.380955 
L 166.248209 -147.639136 
L 169.974731 -150.897318 
L 173.701252 -154.1555 
L 177.427773 -157.413682 
L 181.154295 -160.671864 
L 184.880816 -183.841157 
L 188.607338 -186.103783 
L 192.333859 -188.366409 
L 196.060381 -190.629035 
L 199.786902 -192.891662 
L 203.513423 -195.154288 
L 207.239945 -197.416914 
L 210.966466 -199.67954 
L 214.692988 -201.942167 
L 218.419509 -204.204793 
L 222.14603 -206.467419 
L 225.872552 -208.730045 
L 229.599073 -210.992672 
L 233.325595 -213.255298 
L 237.052116 -215.517924 
L 240.778637 -245.384591 
L 244.505159 -249.457318 
L 248.23168 -253.530045 
L 251.958202 -257.602773 
L 255.684723 -261.6755 
L 259.411245 -261.6755 
L 263.137766 -261.6755 
L 266.864287 -261.6755 
L 270.590809 -261.6755 
L 274.31733 -261.6755 
L 278.043852 -261.6755 
L 281.770373 -261.6755 
L 285.496894 -261.6755 
L 289.223416 -261.6755 
L 292.949937 -261.6755 
L 296.676459 -261.6755 
L 300.40298 -261.6755 
L 304.129502 -261.6755 
L 307.856023 -261.6755 
L 311.582544 -261.6755 
L 315.309066 -312.788227 
L 319.035587 -313.602773 
L 322.762109 -314.417318 
L 326.48863 -315.231864 
L 330.215151 -316.046409 
L 333.941673 -316.860955 
L 337.668194 -317.6755 
L 341.394716 -318.490045 
L 345.121237 -319.304591 
L 348.847758 -320.119136 
L 352.57428 -320.933682 
L 356.300801 -321.748227 
L 360.027323 -322.562773 
L 363.753844 -323.377318 
L 367.480366 -324.191864 
L 371.206887 -325.617318 
L 374.933408 -327.246409 
L 378.65993 -328.8755 
L 382.386451 -330.504591 
L 386.112973 -332.133682 
L 389.839494 -333.762773 
L 393.566015 -335.391864 
L 397.292537 -337.020955 
L 401.019058 -338.650045 
L 404.74558 -340.279136 
L 408.472101 -341.908227 
L 412.198622 -343.537318 
L 415.925144 -345.166409 
L 419.651665 -346.7955 
L 423.378187 -348.424591 
L 427.104708 -350.053682 
L 430.83123 -351.682773 
L 434.557751 -353.311864 
L 438.284272 -354.940955 
L 442.010794 -356.570045 
L 445.737315 -358.199136 
L 449.463837 -359.828227 
L 453.190358 -361.457318 
L 456.916879 -363.086409 
L 460.643401 -485.6755 
L 460.643401 -485.6755 
L 460.643401 -485.6755 
L 456.916879 -485.6755 
L 453.190358 -485.6755 
L 449.463837 -485.6755 
L 445.737315 -485.6755 
L 442.010794 -485.6755 
L 438.284272 -485.6755 
L 434.557751 -485.6755 
L 430.83123 -485.6755 
L 427.104708 -485.6755 
L 423.378187 -485.6755 
L 419.651665 -485.6755 
L 415.925144 -485.6755 
L 412.198622 -485.6755 
L 408.472101 -485.6755 
L 404.74558 -485.6755 
L 401.019058 -485.6755 
L 397.292537 -485.6755 
L 393.566015 -485.6755 
L 389.839494 -485.6755 
L 386.112973 -485.6755 
L 382.386451 -485.6755 
L 378.65993 -485.6755 
L 374.933408 -485.6755 
L 371.206887 -485.6755 
L 367.480366 -485.6755 
L 363.753844 -485.6755 
L 360.027323 -485.6755 
L 356.300801 -485.6755 
L 352.57428 -485.6755 
L 348.847758 -485.6755 
L 345.121237 -485.6755 
L 341.394716 -485.6755 
L 337.668194 -485.6755 
L 333.941673 -485.6755 
L 330.215151 -485.6755 
L 326.48863 -485.6755 
L 322.762109 -485.6755 
L 319.035587 -485.6755 
L 315.309066 -485.6755 
L 311.582544 -485.6755 
L 307.856023 -485.6755 
L 304.129502 -485.6755 
L 300.40298 -485.6755 
L 296.676459 -485.6755 
L 292.949937 -485.6755 
L 289.223416 -485.6755 
L 285.496894 -485.6755 
L 281.770373 -485.6755 
L 278.043852 -485.6755 
L 274.31733 -485.6755 
L 270.590809 -485.6755 
L 266.864287 -485.6755 
L 263.137766 -485.6755 
L 259.411245 -485.6755 
L 255.684723 -485.6755 
L 251.958202 -485.6755 
L 248.23168 -485.6755 
L 244.505159 -485.6755 
L 240.778637 -485.6755 
L 237.052116 -485.6755 
L 233.325595 -485.6755 
L 229.599073 -485.6755 
L 225.872552 -485.6755 
L 222.14603 -485.6755 
L 218.419509 -485.6755 
L 214.692988 -485.6755 
L 210.966466 -485.6755 
L 207.239945 -485.6755 
L 203.513423 -485.6755 
L 199.786902 -485.6755 
L 196.060381 -485.6755 
L 192.333859 -485.6755 
L 188.607338 -485.6755 
L 184.880816 -485.6755 
L 181.154295 -485.6755 
L 177.427773 -485.6755 
L 173.701252 -485.6755 
L 169.974731 -485.6755 
L 166.248209 -485.6755 
L 162.521688 -440.8755 
L 158.795166 -440.8755 
L 155.068645 -440.8755 
L 151.342124 -440.8755 
L 147.615602 -440.8755 
L 143.889081 -440.8755 
L 140.162559 -440.8755 
L 136.436038 -440.8755 
L 132.709517 -440.8755 
L 128.982995 -440.8755 
L 125.256474 -440.8755 
L 121.529952 -440.8755 
L 117.803431 -440.8755 
L 114.076909 -440.8755 
L 110.350388 -440.8755 
L 106.623867 -440.8755 
L 102.897345 -440.8755 
L 99.170824 -440.8755 
L 95.444302 -440.8755 
L 91.717781 -82.4755 
z
" style="stroke: #0000ff; stroke-opacity: 0.2; stroke-width: 2"/>
    </defs>
    <g clip-path="url(#pe383bc30fd)">
     <use xlink:href="#m01786fab90" x="0" y="533.6245" style="fill: #0000ff; fill-opacity: 0.2; stroke: #0000ff; stroke-opacity: 0.2; stroke-width: 2"/>
    </g>
   </g>
   <g id="PolyCollection_3">
    <defs>
     <path id="mc2bc94802f" d="M 91.717781 -82.4755 
L 91.717781 -82.4755 
L 95.444302 -127.2755 
L 99.170824 -127.2755 
L 102.897345 -127.2755 
L 106.623867 -127.2755 
L 110.350388 -127.2755 
L 114.076909 -127.2755 
L 117.803431 -127.2755 
L 121.529952 -127.2755 
L 125.256474 -127.2755 
L 128.982995 -127.2755 
L 132.709517 -127.2755 
L 136.436038 -127.2755 
L 140.162559 -127.2755 
L 143.889081 -127.2755 
L 147.615602 -127.2755 
L 151.342124 -127.2755 
L 155.068645 -127.2755 
L 158.795166 -127.2755 
L 162.521688 -127.2755 
L 166.248209 -163.1155 
L 169.974731 -163.1155 
L 173.701252 -163.1155 
L 177.427773 -163.1155 
L 181.154295 -163.1155 
L 184.880816 -306.4755 
L 188.607338 -306.4755 
L 192.333859 -306.4755 
L 196.060381 -306.4755 
L 199.786902 -306.4755 
L 203.513423 -306.4755 
L 207.239945 -306.4755 
L 210.966466 -306.4755 
L 214.692988 -306.4755 
L 218.419509 -306.4755 
L 222.14603 -306.4755 
L 225.872552 -306.4755 
L 229.599073 -306.4755 
L 233.325595 -306.4755 
L 237.052116 -306.4755 
L 240.778637 -306.4755 
L 244.505159 -306.4755 
L 248.23168 -306.4755 
L 251.958202 -306.4755 
L 255.684723 -306.4755 
L 259.411245 -306.4755 
L 263.137766 -306.4755 
L 266.864287 -306.4755 
L 270.590809 -306.4755 
L 274.31733 -306.4755 
L 278.043852 -306.4755 
L 281.770373 -306.4755 
L 285.496894 -306.4755 
L 289.223416 -306.4755 
L 292.949937 -306.4755 
L 296.676459 -306.4755 
L 300.40298 -306.4755 
L 304.129502 -306.4755 
L 307.856023 -306.4755 
L 311.582544 -306.4755 
L 315.309066 -364.7155 
L 319.035587 -364.7155 
L 322.762109 -364.7155 
L 326.48863 -364.7155 
L 330.215151 -364.7155 
L 333.941673 -364.7155 
L 337.668194 -364.7155 
L 341.394716 -364.7155 
L 345.121237 -364.7155 
L 348.847758 -364.7155 
L 352.57428 -364.7155 
L 356.300801 -364.7155 
L 360.027323 -364.7155 
L 363.753844 -364.7155 
L 367.480366 -364.7155 
L 371.206887 -364.7155 
L 374.933408 -364.7155 
L 378.65993 -364.7155 
L 382.386451 -364.7155 
L 386.112973 -364.7155 
L 389.839494 -364.7155 
L 393.566015 -364.7155 
L 397.292537 -364.7155 
L 401.019058 -364.7155 
L 404.74558 -364.7155 
L 408.472101 -364.7155 
L 412.198622 -364.7155 
L 415.925144 -364.7155 
L 419.651665 -364.7155 
L 423.378187 -364.7155 
L 427.104708 -364.7155 
L 430.83123 -364.7155 
L 434.557751 -364.7155 
L 438.284272 -364.7155 
L 442.010794 -364.7155 
L 445.737315 -364.7155 
L 449.463837 -364.7155 
L 453.190358 -364.7155 
L 456.916879 -364.7155 
L 460.643401 -485.6755 
L 460.643401 -485.6755 
L 460.643401 -485.6755 
L 456.916879 -485.6755 
L 453.190358 -485.6755 
L 449.463837 -485.6755 
L 445.737315 -485.6755 
L 442.010794 -485.6755 
L 438.284272 -485.6755 
L 434.557751 -485.6755 
L 430.83123 -485.6755 
L 427.104708 -485.6755 
L 423.378187 -485.6755 
L 419.651665 -485.6755 
L 415.925144 -485.6755 
L 412.198622 -485.6755 
L 408.472101 -485.6755 
L 404.74558 -485.6755 
L 401.019058 -485.6755 
L 397.292537 -485.6755 
L 393.566015 -485.6755 
L 389.839494 -485.6755 
L 386.112973 -485.6755 
L 382.386451 -485.6755 
L 378.65993 -485.6755 
L 374.933408 -485.6755 
L 371.206887 -485.6755 
L 367.480366 -485.6755 
L 363.753844 -485.6755 
L 360.027323 -485.6755 
L 356.300801 -485.6755 
L 352.57428 -485.6755 
L 348.847758 -485.6755 
L 345.121237 -485.6755 
L 341.394716 -485.6755 
L 337.668194 -485.6755 
L 333.941673 -485.6755 
L 330.215151 -485.6755 
L 326.48863 -485.6755 
L 322.762109 -485.6755 
L 319.035587 -485.6755 
L 315.309066 -485.6755 
L 311.582544 -485.6755 
L 307.856023 -485.6755 
L 304.129502 -485.6755 
L 300.40298 -485.6755 
L 296.676459 -485.6755 
L 292.949937 -485.6755 
L 289.223416 -485.6755 
L 285.496894 -485.6755 
L 281.770373 -485.6755 
L 278.043852 -485.6755 
L 274.31733 -485.6755 
L 270.590809 -485.6755 
L 266.864287 -485.6755 
L 263.137766 -485.6755 
L 259.411245 -485.6755 
L 255.684723 -485.6755 
L 251.958202 -485.6755 
L 248.23168 -485.6755 
L 244.505159 -485.6755 
L 240.778637 -485.6755 
L 237.052116 -485.6755 
L 233.325595 -485.6755 
L 229.599073 -485.6755 
L 225.872552 -485.6755 
L 222.14603 -485.6755 
L 218.419509 -485.6755 
L 214.692988 -485.6755 
L 210.966466 -485.6755 
L 207.239945 -485.6755 
L 203.513423 -485.6755 
L 199.786902 -485.6755 
L 196.060381 -485.6755 
L 192.333859 -485.6755 
L 188.607338 -485.6755 
L 184.880816 -485.6755 
L 181.154295 -485.6755 
L 177.427773 -485.6755 
L 173.701252 -485.6755 
L 169.974731 -485.6755 
L 166.248209 -485.6755 
L 162.521688 -485.6755 
L 158.795166 -485.6755 
L 155.068645 -485.6755 
L 151.342124 -485.6755 
L 147.615602 -485.6755 
L 143.889081 -485.6755 
L 140.162559 -485.6755 
L 136.436038 -485.6755 
L 132.709517 -485.6755 
L 128.982995 -485.6755 
L 125.256474 -485.6755 
L 121.529952 -485.6755 
L 117.803431 -485.6755 
L 114.076909 -485.6755 
L 110.350388 -485.6755 
L 106.623867 -485.6755 
L 102.897345 -485.6755 
L 99.170824 -485.6755 
L 95.444302 -485.6755 
L 91.717781 -82.4755 
z
" style="stroke: #008000; stroke-opacity: 0.2; stroke-width: 2"/>
    </defs>
    <g clip-path="url(#pe383bc30fd)">
     <use xlink:href="#mc2bc94802f" x="0" y="533.6245" style="fill: #008000; fill-opacity: 0.2; stroke: #008000; stroke-opacity: 0.2; stroke-width: 2"/>
    </g>
   </g>
   <g id="matplotlib.axis_1">
    <g id="xtick_1">
     <g id="line2d_1">
      <defs>
       <path id="mdf000ab82a" d="M 0 0 
L 0 12 
" style="stroke: #000000; stroke-width: 2.5"/>
      </defs>
      <g>
       <use xlink:href="#mdf000ab82a" x="91.717781" y="471.309" style="stroke: #000000; stroke-width: 2.5"/>
      </g>
     </g>
     <g id="text_1">
      <!-- 0.0 -->
      <g transform="translate(77.723031 500.18225) scale(0.176 -0.176)">
       <defs>
        <path id="DejaVuSans-30" d="M 2034 4250 
Q 1547 4250 1301 3770 
Q 1056 3291 1056 2328 
Q 1056 1369 1301 889 
Q 1547 409 2034 409 
Q 2525 409 2770 889 
Q 3016 1369 3016 2328 
Q 3016 3291 2770 3770 
Q 2525 4250 2034 4250 
z
M 2034 4750 
Q 2819 4750 3233 4129 
Q 3647 3509 3647 2328 
Q 3647 1150 3233 529 
Q 2819 -91 2034 -91 
Q 1250 -91 836 529 
Q 422 1150 422 2328 
Q 422 3509 836 4129 
Q 1250 4750 2034 4750 
z
" transform="scale(0.015625)"/>
        <path id="DejaVuSans-2e" d="M 684 794 
L 1344 794 
L 1344 0 
L 684 0 
L 684 794 
z
" transform="scale(0.015625)"/>
       </defs>
       <use xlink:href="#DejaVuSans-30"/>
       <use xlink:href="#DejaVuSans-2e" x="63.623047"/>
       <use xlink:href="#DejaVuSans-30" x="95.410156"/>
      </g>
     </g>
    </g>
    <g id="xtick_2">
     <g id="line2d_2">
      <g>
       <use xlink:href="#mdf000ab82a" x="165.502905" y="471.309" style="stroke: #000000; stroke-width: 2.5"/>
      </g>
     </g>
     <g id="text_2">
      <!-- 0.2 -->
      <g transform="translate(151.508155 500.18225) scale(0.176 -0.176)">
       <defs>
        <path id="DejaVuSans-32" d="M 1228 531 
L 3431 531 
L 3431 0 
L 469 0 
L 469 531 
Q 828 903 1448 1529 
Q 2069 2156 2228 2338 
Q 2531 2678 2651 2914 
Q 2772 3150 2772 3378 
Q 2772 3750 2511 3984 
Q 2250 4219 1831 4219 
Q 1534 4219 1204 4116 
Q 875 4013 500 3803 
L 500 4441 
Q 881 4594 1212 4672 
Q 1544 4750 1819 4750 
Q 2544 4750 2975 4387 
Q 3406 4025 3406 3419 
Q 3406 3131 3298 2873 
Q 3191 2616 2906 2266 
Q 2828 2175 2409 1742 
Q 1991 1309 1228 531 
z
" transform="scale(0.015625)"/>
       </defs>
       <use xlink:href="#DejaVuSans-30"/>
       <use xlink:href="#DejaVuSans-2e" x="63.623047"/>
       <use xlink:href="#DejaVuSans-32" x="95.410156"/>
      </g>
     </g>
    </g>
    <g id="xtick_3">
     <g id="line2d_3">
      <g>
       <use xlink:href="#mdf000ab82a" x="239.288029" y="471.309" style="stroke: #000000; stroke-width: 2.5"/>
      </g>
     </g>
     <g id="text_3">
      <!-- 0.4 -->
      <g transform="translate(225.293279 500.18225) scale(0.176 -0.176)">
       <defs>
        <path id="DejaVuSans-34" d="M 2419 4116 
L 825 1625 
L 2419 1625 
L 2419 4116 
z
M 2253 4666 
L 3047 4666 
L 3047 1625 
L 3713 1625 
L 3713 1100 
L 3047 1100 
L 3047 0 
L 2419 0 
L 2419 1100 
L 313 1100 
L 313 1709 
L 2253 4666 
z
" transform="scale(0.015625)"/>
       </defs>
       <use xlink:href="#DejaVuSans-30"/>
       <use xlink:href="#DejaVuSans-2e" x="63.623047"/>
       <use xlink:href="#DejaVuSans-34" x="95.410156"/>
      </g>
     </g>
    </g>
    <g id="xtick_4">
     <g id="line2d_4">
      <g>
       <use xlink:href="#mdf000ab82a" x="313.073153" y="471.309" style="stroke: #000000; stroke-width: 2.5"/>
      </g>
     </g>
     <g id="text_4">
      <!-- 0.6 -->
      <g transform="translate(299.078403 500.18225) scale(0.176 -0.176)">
       <defs>
        <path id="DejaVuSans-36" d="M 2113 2584 
Q 1688 2584 1439 2293 
Q 1191 2003 1191 1497 
Q 1191 994 1439 701 
Q 1688 409 2113 409 
Q 2538 409 2786 701 
Q 3034 994 3034 1497 
Q 3034 2003 2786 2293 
Q 2538 2584 2113 2584 
z
M 3366 4563 
L 3366 3988 
Q 3128 4100 2886 4159 
Q 2644 4219 2406 4219 
Q 1781 4219 1451 3797 
Q 1122 3375 1075 2522 
Q 1259 2794 1537 2939 
Q 1816 3084 2150 3084 
Q 2853 3084 3261 2657 
Q 3669 2231 3669 1497 
Q 3669 778 3244 343 
Q 2819 -91 2113 -91 
Q 1303 -91 875 529 
Q 447 1150 447 2328 
Q 447 3434 972 4092 
Q 1497 4750 2381 4750 
Q 2619 4750 2861 4703 
Q 3103 4656 3366 4563 
z
" transform="scale(0.015625)"/>
       </defs>
       <use xlink:href="#DejaVuSans-30"/>
       <use xlink:href="#DejaVuSans-2e" x="63.623047"/>
       <use xlink:href="#DejaVuSans-36" x="95.410156"/>
      </g>
     </g>
    </g>
    <g id="xtick_5">
     <g id="line2d_5">
      <g>
       <use xlink:href="#mdf000ab82a" x="386.858277" y="471.309" style="stroke: #000000; stroke-width: 2.5"/>
      </g>
     </g>
     <g id="text_5">
      <!-- 0.8 -->
      <g transform="translate(372.863527 500.18225) scale(0.176 -0.176)">
       <defs>
        <path id="DejaVuSans-38" d="M 2034 2216 
Q 1584 2216 1326 1975 
Q 1069 1734 1069 1313 
Q 1069 891 1326 650 
Q 1584 409 2034 409 
Q 2484 409 2743 651 
Q 3003 894 3003 1313 
Q 3003 1734 2745 1975 
Q 2488 2216 2034 2216 
z
M 1403 2484 
Q 997 2584 770 2862 
Q 544 3141 544 3541 
Q 544 4100 942 4425 
Q 1341 4750 2034 4750 
Q 2731 4750 3128 4425 
Q 3525 4100 3525 3541 
Q 3525 3141 3298 2862 
Q 3072 2584 2669 2484 
Q 3125 2378 3379 2068 
Q 3634 1759 3634 1313 
Q 3634 634 3220 271 
Q 2806 -91 2034 -91 
Q 1263 -91 848 271 
Q 434 634 434 1313 
Q 434 1759 690 2068 
Q 947 2378 1403 2484 
z
M 1172 3481 
Q 1172 3119 1398 2916 
Q 1625 2713 2034 2713 
Q 2441 2713 2670 2916 
Q 2900 3119 2900 3481 
Q 2900 3844 2670 4047 
Q 2441 4250 2034 4250 
Q 1625 4250 1398 4047 
Q 1172 3844 1172 3481 
z
" transform="scale(0.015625)"/>
       </defs>
       <use xlink:href="#DejaVuSans-30"/>
       <use xlink:href="#DejaVuSans-2e" x="63.623047"/>
       <use xlink:href="#DejaVuSans-38" x="95.410156"/>
      </g>
     </g>
    </g>
    <g id="xtick_6">
     <g id="line2d_6">
      <g>
       <use xlink:href="#mdf000ab82a" x="460.643401" y="471.309" style="stroke: #000000; stroke-width: 2.5"/>
      </g>
     </g>
     <g id="text_6">
      <!-- 1.0 -->
      <g transform="translate(446.648651 500.18225) scale(0.176 -0.176)">
       <defs>
        <path id="DejaVuSans-31" d="M 794 531 
L 1825 531 
L 1825 4091 
L 703 3866 
L 703 4441 
L 1819 4666 
L 2450 4666 
L 2450 531 
L 3481 531 
L 3481 0 
L 794 0 
L 794 531 
z
" transform="scale(0.015625)"/>
       </defs>
       <use xlink:href="#DejaVuSans-31"/>
       <use xlink:href="#DejaVuSans-2e" x="63.623047"/>
       <use xlink:href="#DejaVuSans-30" x="95.410156"/>
      </g>
     </g>
    </g>
    <g id="text_7">
     <!-- False Positive Rate -->
     <g transform="translate(186.965091 522.4315) scale(0.192 -0.192)">
      <defs>
       <path id="DejaVuSans-46" d="M 628 4666 
L 3309 4666 
L 3309 4134 
L 1259 4134 
L 1259 2759 
L 3109 2759 
L 3109 2228 
L 1259 2228 
L 1259 0 
L 628 0 
L 628 4666 
z
" transform="scale(0.015625)"/>
       <path id="DejaVuSans-61" d="M 2194 1759 
Q 1497 1759 1228 1600 
Q 959 1441 959 1056 
Q 959 750 1161 570 
Q 1363 391 1709 391 
Q 2188 391 2477 730 
Q 2766 1069 2766 1631 
L 2766 1759 
L 2194 1759 
z
M 3341 1997 
L 3341 0 
L 2766 0 
L 2766 531 
Q 2569 213 2275 61 
Q 1981 -91 1556 -91 
Q 1019 -91 701 211 
Q 384 513 384 1019 
Q 384 1609 779 1909 
Q 1175 2209 1959 2209 
L 2766 2209 
L 2766 2266 
Q 2766 2663 2505 2880 
Q 2244 3097 1772 3097 
Q 1472 3097 1187 3025 
Q 903 2953 641 2809 
L 641 3341 
Q 956 3463 1253 3523 
Q 1550 3584 1831 3584 
Q 2591 3584 2966 3190 
Q 3341 2797 3341 1997 
z
" transform="scale(0.015625)"/>
       <path id="DejaVuSans-6c" d="M 603 4863 
L 1178 4863 
L 1178 0 
L 603 0 
L 603 4863 
z
" transform="scale(0.015625)"/>
       <path id="DejaVuSans-73" d="M 2834 3397 
L 2834 2853 
Q 2591 2978 2328 3040 
Q 2066 3103 1784 3103 
Q 1356 3103 1142 2972 
Q 928 2841 928 2578 
Q 928 2378 1081 2264 
Q 1234 2150 1697 2047 
L 1894 2003 
Q 2506 1872 2764 1633 
Q 3022 1394 3022 966 
Q 3022 478 2636 193 
Q 2250 -91 1575 -91 
Q 1294 -91 989 -36 
Q 684 19 347 128 
L 347 722 
Q 666 556 975 473 
Q 1284 391 1588 391 
Q 1994 391 2212 530 
Q 2431 669 2431 922 
Q 2431 1156 2273 1281 
Q 2116 1406 1581 1522 
L 1381 1569 
Q 847 1681 609 1914 
Q 372 2147 372 2553 
Q 372 3047 722 3315 
Q 1072 3584 1716 3584 
Q 2034 3584 2315 3537 
Q 2597 3491 2834 3397 
z
" transform="scale(0.015625)"/>
       <path id="DejaVuSans-65" d="M 3597 1894 
L 3597 1613 
L 953 1613 
Q 991 1019 1311 708 
Q 1631 397 2203 397 
Q 2534 397 2845 478 
Q 3156 559 3463 722 
L 3463 178 
Q 3153 47 2828 -22 
Q 2503 -91 2169 -91 
Q 1331 -91 842 396 
Q 353 884 353 1716 
Q 353 2575 817 3079 
Q 1281 3584 2069 3584 
Q 2775 3584 3186 3129 
Q 3597 2675 3597 1894 
z
M 3022 2063 
Q 3016 2534 2758 2815 
Q 2500 3097 2075 3097 
Q 1594 3097 1305 2825 
Q 1016 2553 972 2059 
L 3022 2063 
z
" transform="scale(0.015625)"/>
       <path id="DejaVuSans-20" transform="scale(0.015625)"/>
       <path id="DejaVuSans-50" d="M 1259 4147 
L 1259 2394 
L 2053 2394 
Q 2494 2394 2734 2622 
Q 2975 2850 2975 3272 
Q 2975 3691 2734 3919 
Q 2494 4147 2053 4147 
L 1259 4147 
z
M 628 4666 
L 2053 4666 
Q 2838 4666 3239 4311 
Q 3641 3956 3641 3272 
Q 3641 2581 3239 2228 
Q 2838 1875 2053 1875 
L 1259 1875 
L 1259 0 
L 628 0 
L 628 4666 
z
" transform="scale(0.015625)"/>
       <path id="DejaVuSans-6f" d="M 1959 3097 
Q 1497 3097 1228 2736 
Q 959 2375 959 1747 
Q 959 1119 1226 758 
Q 1494 397 1959 397 
Q 2419 397 2687 759 
Q 2956 1122 2956 1747 
Q 2956 2369 2687 2733 
Q 2419 3097 1959 3097 
z
M 1959 3584 
Q 2709 3584 3137 3096 
Q 3566 2609 3566 1747 
Q 3566 888 3137 398 
Q 2709 -91 1959 -91 
Q 1206 -91 779 398 
Q 353 888 353 1747 
Q 353 2609 779 3096 
Q 1206 3584 1959 3584 
z
" transform="scale(0.015625)"/>
       <path id="DejaVuSans-69" d="M 603 3500 
L 1178 3500 
L 1178 0 
L 603 0 
L 603 3500 
z
M 603 4863 
L 1178 4863 
L 1178 4134 
L 603 4134 
L 603 4863 
z
" transform="scale(0.015625)"/>
       <path id="DejaVuSans-74" d="M 1172 4494 
L 1172 3500 
L 2356 3500 
L 2356 3053 
L 1172 3053 
L 1172 1153 
Q 1172 725 1289 603 
Q 1406 481 1766 481 
L 2356 481 
L 2356 0 
L 1766 0 
Q 1100 0 847 248 
Q 594 497 594 1153 
L 594 3053 
L 172 3053 
L 172 3500 
L 594 3500 
L 594 4494 
L 1172 4494 
z
" transform="scale(0.015625)"/>
       <path id="DejaVuSans-76" d="M 191 3500 
L 800 3500 
L 1894 563 
L 2988 3500 
L 3597 3500 
L 2284 0 
L 1503 0 
L 191 3500 
z
" transform="scale(0.015625)"/>
       <path id="DejaVuSans-52" d="M 2841 2188 
Q 3044 2119 3236 1894 
Q 3428 1669 3622 1275 
L 4263 0 
L 3584 0 
L 2988 1197 
Q 2756 1666 2539 1819 
Q 2322 1972 1947 1972 
L 1259 1972 
L 1259 0 
L 628 0 
L 628 4666 
L 2053 4666 
Q 2853 4666 3247 4331 
Q 3641 3997 3641 3322 
Q 3641 2881 3436 2590 
Q 3231 2300 2841 2188 
z
M 1259 4147 
L 1259 2491 
L 2053 2491 
Q 2509 2491 2742 2702 
Q 2975 2913 2975 3322 
Q 2975 3731 2742 3939 
Q 2509 4147 2053 4147 
L 1259 4147 
z
" transform="scale(0.015625)"/>
      </defs>
      <use xlink:href="#DejaVuSans-46"/>
      <use xlink:href="#DejaVuSans-61" x="48.394531"/>
      <use xlink:href="#DejaVuSans-6c" x="109.673828"/>
      <use xlink:href="#DejaVuSans-73" x="137.457031"/>
      <use xlink:href="#DejaVuSans-65" x="189.556641"/>
      <use xlink:href="#DejaVuSans-20" x="251.080078"/>
      <use xlink:href="#DejaVuSans-50" x="282.867188"/>
      <use xlink:href="#DejaVuSans-6f" x="339.544922"/>
      <use xlink:href="#DejaVuSans-73" x="400.726562"/>
      <use xlink:href="#DejaVuSans-69" x="452.826172"/>
      <use xlink:href="#DejaVuSans-74" x="480.609375"/>
      <use xlink:href="#DejaVuSans-69" x="519.818359"/>
      <use xlink:href="#DejaVuSans-76" x="547.601562"/>
      <use xlink:href="#DejaVuSans-65" x="606.78125"/>
      <use xlink:href="#DejaVuSans-20" x="668.304688"/>
      <use xlink:href="#DejaVuSans-52" x="700.091797"/>
      <use xlink:href="#DejaVuSans-61" x="767.324219"/>
      <use xlink:href="#DejaVuSans-74" x="828.603516"/>
      <use xlink:href="#DejaVuSans-65" x="867.8125"/>
     </g>
    </g>
   </g>
   <g id="matplotlib.axis_2">
    <g id="ytick_1">
     <g id="line2d_7">
      <defs>
       <path id="m5209c09c7a" d="M 0 0 
L -12 0 
" style="stroke: #000000; stroke-width: 2.5"/>
      </defs>
      <g>
       <use xlink:href="#m5209c09c7a" x="73.2715" y="451.149" style="stroke: #000000; stroke-width: 2.5"/>
      </g>
     </g>
     <g id="text_8">
      <!-- 0.0 -->
      <g transform="translate(29.782 457.835625) scale(0.176 -0.176)">
       <use xlink:href="#DejaVuSans-30"/>
       <use xlink:href="#DejaVuSans-2e" x="63.623047"/>
       <use xlink:href="#DejaVuSans-30" x="95.410156"/>
      </g>
     </g>
    </g>
    <g id="ytick_2">
     <g id="line2d_8">
      <g>
       <use xlink:href="#m5209c09c7a" x="73.2715" y="370.509" style="stroke: #000000; stroke-width: 2.5"/>
      </g>
     </g>
     <g id="text_9">
      <!-- 0.2 -->
      <g transform="translate(29.782 377.195625) scale(0.176 -0.176)">
       <use xlink:href="#DejaVuSans-30"/>
       <use xlink:href="#DejaVuSans-2e" x="63.623047"/>
       <use xlink:href="#DejaVuSans-32" x="95.410156"/>
      </g>
     </g>
    </g>
    <g id="ytick_3">
     <g id="line2d_9">
      <g>
       <use xlink:href="#m5209c09c7a" x="73.2715" y="289.869" style="stroke: #000000; stroke-width: 2.5"/>
      </g>
     </g>
     <g id="text_10">
      <!-- 0.4 -->
      <g transform="translate(29.782 296.555625) scale(0.176 -0.176)">
       <use xlink:href="#DejaVuSans-30"/>
       <use xlink:href="#DejaVuSans-2e" x="63.623047"/>
       <use xlink:href="#DejaVuSans-34" x="95.410156"/>
      </g>
     </g>
    </g>
    <g id="ytick_4">
     <g id="line2d_10">
      <g>
       <use xlink:href="#m5209c09c7a" x="73.2715" y="209.229" style="stroke: #000000; stroke-width: 2.5"/>
      </g>
     </g>
     <g id="text_11">
      <!-- 0.6 -->
      <g transform="translate(29.782 215.915625) scale(0.176 -0.176)">
       <use xlink:href="#DejaVuSans-30"/>
       <use xlink:href="#DejaVuSans-2e" x="63.623047"/>
       <use xlink:href="#DejaVuSans-36" x="95.410156"/>
      </g>
     </g>
    </g>
    <g id="ytick_5">
     <g id="line2d_11">
      <g>
       <use xlink:href="#m5209c09c7a" x="73.2715" y="128.589" style="stroke: #000000; stroke-width: 2.5"/>
      </g>
     </g>
     <g id="text_12">
      <!-- 0.8 -->
      <g transform="translate(29.782 135.275625) scale(0.176 -0.176)">
       <use xlink:href="#DejaVuSans-30"/>
       <use xlink:href="#DejaVuSans-2e" x="63.623047"/>
       <use xlink:href="#DejaVuSans-38" x="95.410156"/>
      </g>
     </g>
    </g>
    <g id="ytick_6">
     <g id="line2d_12">
      <g>
       <use xlink:href="#m5209c09c7a" x="73.2715" y="47.949" style="stroke: #000000; stroke-width: 2.5"/>
      </g>
     </g>
     <g id="text_13">
      <!-- 1.0 -->
      <g transform="translate(29.782 54.635625) scale(0.176 -0.176)">
       <use xlink:href="#DejaVuSans-31"/>
       <use xlink:href="#DejaVuSans-2e" x="63.623047"/>
       <use xlink:href="#DejaVuSans-30" x="95.410156"/>
      </g>
     </g>
    </g>
    <g id="text_14">
     <!-- True Positive Rate -->
     <g transform="translate(21.789 335.046) rotate(-90) scale(0.192 -0.192)">
      <defs>
       <path id="DejaVuSans-54" d="M -19 4666 
L 3928 4666 
L 3928 4134 
L 2272 4134 
L 2272 0 
L 1638 0 
L 1638 4134 
L -19 4134 
L -19 4666 
z
" transform="scale(0.015625)"/>
       <path id="DejaVuSans-72" d="M 2631 2963 
Q 2534 3019 2420 3045 
Q 2306 3072 2169 3072 
Q 1681 3072 1420 2755 
Q 1159 2438 1159 1844 
L 1159 0 
L 581 0 
L 581 3500 
L 1159 3500 
L 1159 2956 
Q 1341 3275 1631 3429 
Q 1922 3584 2338 3584 
Q 2397 3584 2469 3576 
Q 2541 3569 2628 3553 
L 2631 2963 
z
" transform="scale(0.015625)"/>
       <path id="DejaVuSans-75" d="M 544 1381 
L 544 3500 
L 1119 3500 
L 1119 1403 
Q 1119 906 1312 657 
Q 1506 409 1894 409 
Q 2359 409 2629 706 
Q 2900 1003 2900 1516 
L 2900 3500 
L 3475 3500 
L 3475 0 
L 2900 0 
L 2900 538 
Q 2691 219 2414 64 
Q 2138 -91 1772 -91 
Q 1169 -91 856 284 
Q 544 659 544 1381 
z
M 1991 3584 
L 1991 3584 
z
" transform="scale(0.015625)"/>
      </defs>
      <use xlink:href="#DejaVuSans-54"/>
      <use xlink:href="#DejaVuSans-72" x="46.333984"/>
      <use xlink:href="#DejaVuSans-75" x="87.447266"/>
      <use xlink:href="#DejaVuSans-65" x="150.826172"/>
      <use xlink:href="#DejaVuSans-20" x="212.349609"/>
      <use xlink:href="#DejaVuSans-50" x="244.136719"/>
      <use xlink:href="#DejaVuSans-6f" x="300.814453"/>
      <use xlink:href="#DejaVuSans-73" x="361.996094"/>
      <use xlink:href="#DejaVuSans-69" x="414.095703"/>
      <use xlink:href="#DejaVuSans-74" x="441.878906"/>
      <use xlink:href="#DejaVuSans-69" x="481.087891"/>
      <use xlink:href="#DejaVuSans-76" x="508.871094"/>
      <use xlink:href="#DejaVuSans-65" x="568.050781"/>
      <use xlink:href="#DejaVuSans-20" x="629.574219"/>
      <use xlink:href="#DejaVuSans-52" x="661.361328"/>
      <use xlink:href="#DejaVuSans-61" x="728.59375"/>
      <use xlink:href="#DejaVuSans-74" x="789.873047"/>
      <use xlink:href="#DejaVuSans-65" x="829.082031"/>
     </g>
    </g>
   </g>
   <g id="line2d_13">
    <path d="M 91.717781 451.149 
L 95.444302 217.293 
L 99.170824 217.293 
L 102.897345 217.293 
L 106.623867 217.293 
L 110.350388 217.293 
L 114.076909 217.293 
L 117.803431 217.293 
L 121.529952 217.293 
L 125.256474 217.293 
L 128.982995 217.293 
L 132.709517 217.293 
L 136.436038 217.293 
L 140.162559 217.293 
L 143.889081 217.293 
L 147.615602 217.293 
L 151.342124 217.293 
L 155.068645 217.293 
L 158.795166 217.293 
L 162.521688 217.293 
L 166.248209 176.973 
L 169.974731 176.973 
L 173.701252 176.973 
L 177.427773 176.973 
L 181.154295 176.973 
L 184.880816 136.653 
L 188.607338 136.653 
L 192.333859 136.653 
L 196.060381 136.653 
L 199.786902 136.653 
L 203.513423 136.653 
L 207.239945 136.653 
L 210.966466 136.653 
L 214.692988 136.653 
L 218.419509 136.653 
L 222.14603 136.653 
L 225.872552 136.653 
L 229.599073 136.653 
L 233.325595 136.653 
L 237.052116 136.653 
L 240.778637 132.173 
L 244.505159 132.173 
L 248.23168 132.173 
L 251.958202 132.173 
L 255.684723 132.173 
L 259.411245 132.173 
L 263.137766 132.173 
L 266.864287 132.173 
L 270.590809 132.173 
L 274.31733 132.173 
L 278.043852 99.917 
L 281.770373 99.917 
L 285.496894 99.917 
L 289.223416 99.917 
L 292.949937 99.917 
L 296.676459 99.917 
L 300.40298 99.917 
L 304.129502 99.917 
L 307.856023 99.917 
L 311.582544 99.917 
L 315.309066 77.517 
L 319.035587 77.517 
L 322.762109 77.517 
L 326.48863 77.517 
L 330.215151 77.517 
L 333.941673 77.517 
L 337.668194 77.517 
L 341.394716 77.517 
L 345.121237 77.517 
L 348.847758 77.517 
L 352.57428 77.517 
L 356.300801 77.517 
L 360.027323 77.517 
L 363.753844 77.517 
L 367.480366 77.517 
L 371.206887 73.485 
L 374.933408 73.485 
L 378.65993 73.485 
L 382.386451 73.485 
L 386.112973 73.485 
L 389.839494 69.005 
L 393.566015 69.005 
L 397.292537 69.005 
L 401.019058 69.005 
L 404.74558 69.005 
L 408.472101 69.005 
L 412.198622 69.005 
L 415.925144 69.005 
L 419.651665 69.005 
L 423.378187 69.005 
L 427.104708 69.005 
L 430.83123 69.005 
L 434.557751 69.005 
L 438.284272 69.005 
L 442.010794 69.005 
L 445.737315 69.005 
L 449.463837 69.005 
L 453.190358 69.005 
L 456.916879 69.005 
L 460.643401 47.949 
" clip-path="url(#pe383bc30fd)" style="fill: none; stroke: #ffa500; stroke-width: 3; stroke-linecap: square"/>
   </g>
   <g id="line2d_14">
    <path d="M 91.717781 451.149 
L 95.444302 279.614778 
L 99.170824 277.424556 
L 102.897345 275.234333 
L 106.623867 273.044111 
L 110.350388 270.853889 
L 114.076909 268.663667 
L 117.803431 266.473444 
L 121.529952 264.283222 
L 125.256474 262.093 
L 128.982995 259.902778 
L 132.709517 257.712556 
L 136.436038 255.522333 
L 140.162559 253.332111 
L 143.889081 251.141889 
L 147.615602 248.951667 
L 151.342124 246.761444 
L 155.068645 244.571222 
L 158.795166 242.381 
L 162.521688 240.190778 
L 166.248209 211.211061 
L 169.974731 209.473364 
L 173.701252 207.735667 
L 177.427773 205.99797 
L 181.154295 204.260273 
L 184.880816 186.537121 
L 188.607338 185.369606 
L 192.333859 184.202091 
L 196.060381 183.034576 
L 199.786902 181.867061 
L 203.513423 180.699545 
L 207.239945 179.53203 
L 210.966466 178.364515 
L 214.692988 177.197 
L 218.419509 176.029485 
L 222.14603 174.86197 
L 225.872552 173.694455 
L 229.599073 172.526939 
L 233.325595 171.359424 
L 237.052116 170.191909 
L 240.778637 146.895909 
L 244.505159 146.407182 
L 248.23168 145.918455 
L 251.958202 145.429727 
L 255.684723 144.941 
L 259.411245 144.452273 
L 263.137766 143.963545 
L 266.864287 143.474818 
L 270.590809 142.986091 
L 274.31733 142.497364 
L 278.043852 121.970818 
L 281.770373 121.726455 
L 285.496894 121.482091 
L 289.223416 121.237727 
L 292.949937 120.993364 
L 296.676459 120.749 
L 300.40298 120.504636 
L 304.129502 120.260273 
L 307.856023 120.015909 
L 311.582544 119.771545 
L 315.309066 96.991424 
L 319.035587 96.520798 
L 322.762109 96.050172 
L 326.48863 95.579545 
L 330.215151 95.108919 
L 333.941673 94.638293 
L 337.668194 94.167667 
L 341.394716 93.69704 
L 345.121237 93.226414 
L 348.847758 92.755788 
L 352.57428 92.285162 
L 356.300801 91.814535 
L 360.027323 91.343909 
L 363.753844 90.873283 
L 367.480366 90.402657 
L 371.206887 81.806939 
L 374.933408 81.254859 
L 378.65993 80.702778 
L 382.386451 80.150697 
L 386.112973 79.598616 
L 389.839494 79.227545 
L 393.566015 78.901727 
L 397.292537 78.575909 
L 401.019058 78.250091 
L 404.74558 77.924273 
L 408.472101 77.598455 
L 412.198622 77.272636 
L 415.925144 76.946818 
L 419.651665 76.621 
L 423.378187 76.295182 
L 427.104708 75.969364 
L 430.83123 75.643545 
L 434.557751 75.317727 
L 438.284272 74.991909 
L 442.010794 74.666091 
L 445.737315 74.340273 
L 449.463837 74.014455 
L 453.190358 73.688636 
L 456.916879 73.362818 
L 460.643401 47.949 
" clip-path="url(#pe383bc30fd)" style="fill: none; stroke: #0000ff; stroke-width: 3; stroke-linecap: square"/>
   </g>
   <g id="line2d_15">
    <path d="M 91.717781 451.149 
L 95.444302 216.397 
L 99.170824 216.397 
L 102.897345 216.397 
L 106.623867 216.397 
L 110.350388 216.397 
L 114.076909 216.397 
L 117.803431 216.397 
L 121.529952 216.397 
L 125.256474 216.397 
L 128.982995 216.397 
L 132.709517 216.397 
L 136.436038 216.397 
L 140.162559 216.397 
L 143.889081 216.397 
L 147.615602 216.397 
L 151.342124 216.397 
L 155.068645 216.397 
L 158.795166 216.397 
L 162.521688 216.397 
L 166.248209 180.557 
L 169.974731 180.557 
L 173.701252 180.557 
L 177.427773 180.557 
L 181.154295 180.557 
L 184.880816 132.173 
L 188.607338 132.173 
L 192.333859 132.173 
L 196.060381 132.173 
L 199.786902 132.173 
L 203.513423 132.173 
L 207.239945 132.173 
L 210.966466 132.173 
L 214.692988 132.173 
L 218.419509 132.173 
L 222.14603 132.173 
L 225.872552 132.173 
L 229.599073 132.173 
L 233.325595 132.173 
L 237.052116 132.173 
L 240.778637 132.173 
L 244.505159 132.173 
L 248.23168 132.173 
L 251.958202 132.173 
L 255.684723 132.173 
L 259.411245 132.173 
L 263.137766 132.173 
L 266.864287 132.173 
L 270.590809 132.173 
L 274.31733 132.173 
L 278.043852 95.885 
L 281.770373 95.885 
L 285.496894 95.885 
L 289.223416 95.885 
L 292.949937 95.885 
L 296.676459 95.885 
L 300.40298 95.885 
L 304.129502 95.885 
L 307.856023 95.885 
L 311.582544 95.885 
L 315.309066 73.485 
L 319.035587 73.485 
L 322.762109 73.485 
L 326.48863 73.485 
L 330.215151 73.485 
L 333.941673 73.485 
L 337.668194 73.485 
L 341.394716 73.485 
L 345.121237 73.485 
L 348.847758 73.485 
L 352.57428 73.485 
L 356.300801 73.485 
L 360.027323 73.485 
L 363.753844 73.485 
L 367.480366 73.485 
L 371.206887 73.485 
L 374.933408 73.485 
L 378.65993 73.485 
L 382.386451 73.485 
L 386.112973 73.485 
L 389.839494 69.005 
L 393.566015 69.005 
L 397.292537 69.005 
L 401.019058 69.005 
L 404.74558 69.005 
L 408.472101 69.005 
L 412.198622 69.005 
L 415.925144 69.005 
L 419.651665 69.005 
L 423.378187 69.005 
L 427.104708 69.005 
L 430.83123 69.005 
L 434.557751 69.005 
L 438.284272 69.005 
L 442.010794 69.005 
L 445.737315 69.005 
L 449.463837 69.005 
L 453.190358 69.005 
L 456.916879 69.005 
L 460.643401 47.949 
" clip-path="url(#pe383bc30fd)" style="fill: none; stroke: #008000; stroke-width: 3; stroke-linecap: square"/>
   </g>
   <g id="line2d_16">
    <path d="M 91.717781 451.149 
L 460.643401 47.949 
" clip-path="url(#pe383bc30fd)" style="fill: none; stroke-dasharray: 11.1,4.8; stroke-dashoffset: 0; stroke: #000000; stroke-opacity: 0.5; stroke-width: 3"/>
   </g>
   <g id="patch_3">
    <path d="M 73.2715 471.309 
L 73.2715 27.789 
" style="fill: none; stroke: #000000; stroke-width: 2.5; stroke-linejoin: miter; stroke-linecap: square"/>
   </g>
   <g id="patch_4">
    <path d="M 479.089682 471.309 
L 479.089682 27.789 
" style="fill: none; stroke: #000000; stroke-width: 2.5; stroke-linejoin: miter; stroke-linecap: square"/>
   </g>
   <g id="patch_5">
    <path d="M 73.2715 471.309 
L 479.089682 471.309 
" style="fill: none; stroke: #000000; stroke-width: 2.5; stroke-linejoin: miter; stroke-linecap: square"/>
   </g>
   <g id="patch_6">
    <path d="M 73.2715 27.789 
L 479.089682 27.789 
" style="fill: none; stroke: #000000; stroke-width: 2.5; stroke-linejoin: miter; stroke-linecap: square"/>
   </g>
   <g id="text_15">
    <!-- Approach CDT_DI_OHE_IS_LIVE -->
    <g transform="translate(127.557591 21.789) scale(0.192 -0.192)">
     <defs>
      <path id="DejaVuSans-41" d="M 2188 4044 
L 1331 1722 
L 3047 1722 
L 2188 4044 
z
M 1831 4666 
L 2547 4666 
L 4325 0 
L 3669 0 
L 3244 1197 
L 1141 1197 
L 716 0 
L 50 0 
L 1831 4666 
z
" transform="scale(0.015625)"/>
      <path id="DejaVuSans-70" d="M 1159 525 
L 1159 -1331 
L 581 -1331 
L 581 3500 
L 1159 3500 
L 1159 2969 
Q 1341 3281 1617 3432 
Q 1894 3584 2278 3584 
Q 2916 3584 3314 3078 
Q 3713 2572 3713 1747 
Q 3713 922 3314 415 
Q 2916 -91 2278 -91 
Q 1894 -91 1617 61 
Q 1341 213 1159 525 
z
M 3116 1747 
Q 3116 2381 2855 2742 
Q 2594 3103 2138 3103 
Q 1681 3103 1420 2742 
Q 1159 2381 1159 1747 
Q 1159 1113 1420 752 
Q 1681 391 2138 391 
Q 2594 391 2855 752 
Q 3116 1113 3116 1747 
z
" transform="scale(0.015625)"/>
      <path id="DejaVuSans-63" d="M 3122 3366 
L 3122 2828 
Q 2878 2963 2633 3030 
Q 2388 3097 2138 3097 
Q 1578 3097 1268 2742 
Q 959 2388 959 1747 
Q 959 1106 1268 751 
Q 1578 397 2138 397 
Q 2388 397 2633 464 
Q 2878 531 3122 666 
L 3122 134 
Q 2881 22 2623 -34 
Q 2366 -91 2075 -91 
Q 1284 -91 818 406 
Q 353 903 353 1747 
Q 353 2603 823 3093 
Q 1294 3584 2113 3584 
Q 2378 3584 2631 3529 
Q 2884 3475 3122 3366 
z
" transform="scale(0.015625)"/>
      <path id="DejaVuSans-68" d="M 3513 2113 
L 3513 0 
L 2938 0 
L 2938 2094 
Q 2938 2591 2744 2837 
Q 2550 3084 2163 3084 
Q 1697 3084 1428 2787 
Q 1159 2491 1159 1978 
L 1159 0 
L 581 0 
L 581 4863 
L 1159 4863 
L 1159 2956 
Q 1366 3272 1645 3428 
Q 1925 3584 2291 3584 
Q 2894 3584 3203 3211 
Q 3513 2838 3513 2113 
z
" transform="scale(0.015625)"/>
      <path id="DejaVuSans-43" d="M 4122 4306 
L 4122 3641 
Q 3803 3938 3442 4084 
Q 3081 4231 2675 4231 
Q 1875 4231 1450 3742 
Q 1025 3253 1025 2328 
Q 1025 1406 1450 917 
Q 1875 428 2675 428 
Q 3081 428 3442 575 
Q 3803 722 4122 1019 
L 4122 359 
Q 3791 134 3420 21 
Q 3050 -91 2638 -91 
Q 1578 -91 968 557 
Q 359 1206 359 2328 
Q 359 3453 968 4101 
Q 1578 4750 2638 4750 
Q 3056 4750 3426 4639 
Q 3797 4528 4122 4306 
z
" transform="scale(0.015625)"/>
      <path id="DejaVuSans-44" d="M 1259 4147 
L 1259 519 
L 2022 519 
Q 2988 519 3436 956 
Q 3884 1394 3884 2338 
Q 3884 3275 3436 3711 
Q 2988 4147 2022 4147 
L 1259 4147 
z
M 628 4666 
L 1925 4666 
Q 3281 4666 3915 4102 
Q 4550 3538 4550 2338 
Q 4550 1131 3912 565 
Q 3275 0 1925 0 
L 628 0 
L 628 4666 
z
" transform="scale(0.015625)"/>
      <path id="DejaVuSans-5f" d="M 3263 -1063 
L 3263 -1509 
L -63 -1509 
L -63 -1063 
L 3263 -1063 
z
" transform="scale(0.015625)"/>
      <path id="DejaVuSans-49" d="M 628 4666 
L 1259 4666 
L 1259 0 
L 628 0 
L 628 4666 
z
" transform="scale(0.015625)"/>
      <path id="DejaVuSans-4f" d="M 2522 4238 
Q 1834 4238 1429 3725 
Q 1025 3213 1025 2328 
Q 1025 1447 1429 934 
Q 1834 422 2522 422 
Q 3209 422 3611 934 
Q 4013 1447 4013 2328 
Q 4013 3213 3611 3725 
Q 3209 4238 2522 4238 
z
M 2522 4750 
Q 3503 4750 4090 4092 
Q 4678 3434 4678 2328 
Q 4678 1225 4090 567 
Q 3503 -91 2522 -91 
Q 1538 -91 948 565 
Q 359 1222 359 2328 
Q 359 3434 948 4092 
Q 1538 4750 2522 4750 
z
" transform="scale(0.015625)"/>
      <path id="DejaVuSans-48" d="M 628 4666 
L 1259 4666 
L 1259 2753 
L 3553 2753 
L 3553 4666 
L 4184 4666 
L 4184 0 
L 3553 0 
L 3553 2222 
L 1259 2222 
L 1259 0 
L 628 0 
L 628 4666 
z
" transform="scale(0.015625)"/>
      <path id="DejaVuSans-45" d="M 628 4666 
L 3578 4666 
L 3578 4134 
L 1259 4134 
L 1259 2753 
L 3481 2753 
L 3481 2222 
L 1259 2222 
L 1259 531 
L 3634 531 
L 3634 0 
L 628 0 
L 628 4666 
z
" transform="scale(0.015625)"/>
      <path id="DejaVuSans-53" d="M 3425 4513 
L 3425 3897 
Q 3066 4069 2747 4153 
Q 2428 4238 2131 4238 
Q 1616 4238 1336 4038 
Q 1056 3838 1056 3469 
Q 1056 3159 1242 3001 
Q 1428 2844 1947 2747 
L 2328 2669 
Q 3034 2534 3370 2195 
Q 3706 1856 3706 1288 
Q 3706 609 3251 259 
Q 2797 -91 1919 -91 
Q 1588 -91 1214 -16 
Q 841 59 441 206 
L 441 856 
Q 825 641 1194 531 
Q 1563 422 1919 422 
Q 2459 422 2753 634 
Q 3047 847 3047 1241 
Q 3047 1584 2836 1778 
Q 2625 1972 2144 2069 
L 1759 2144 
Q 1053 2284 737 2584 
Q 422 2884 422 3419 
Q 422 4038 858 4394 
Q 1294 4750 2059 4750 
Q 2388 4750 2728 4690 
Q 3069 4631 3425 4513 
z
" transform="scale(0.015625)"/>
      <path id="DejaVuSans-4c" d="M 628 4666 
L 1259 4666 
L 1259 531 
L 3531 531 
L 3531 0 
L 628 0 
L 628 4666 
z
" transform="scale(0.015625)"/>
      <path id="DejaVuSans-56" d="M 1831 0 
L 50 4666 
L 709 4666 
L 2188 738 
L 3669 4666 
L 4325 4666 
L 2547 0 
L 1831 0 
z
" transform="scale(0.015625)"/>
     </defs>
     <use xlink:href="#DejaVuSans-41"/>
     <use xlink:href="#DejaVuSans-70" x="68.408203"/>
     <use xlink:href="#DejaVuSans-70" x="131.884766"/>
     <use xlink:href="#DejaVuSans-72" x="195.361328"/>
     <use xlink:href="#DejaVuSans-6f" x="234.224609"/>
     <use xlink:href="#DejaVuSans-61" x="295.40625"/>
     <use xlink:href="#DejaVuSans-63" x="356.685547"/>
     <use xlink:href="#DejaVuSans-68" x="411.666016"/>
     <use xlink:href="#DejaVuSans-20" x="475.044922"/>
     <use xlink:href="#DejaVuSans-43" x="506.832031"/>
     <use xlink:href="#DejaVuSans-44" x="576.65625"/>
     <use xlink:href="#DejaVuSans-54" x="653.658203"/>
     <use xlink:href="#DejaVuSans-5f" x="714.742188"/>
     <use xlink:href="#DejaVuSans-44" x="764.742188"/>
     <use xlink:href="#DejaVuSans-49" x="841.744141"/>
     <use xlink:href="#DejaVuSans-5f" x="871.236328"/>
     <use xlink:href="#DejaVuSans-4f" x="921.236328"/>
     <use xlink:href="#DejaVuSans-48" x="999.947266"/>
     <use xlink:href="#DejaVuSans-45" x="1075.142578"/>
     <use xlink:href="#DejaVuSans-5f" x="1138.326172"/>
     <use xlink:href="#DejaVuSans-49" x="1188.326172"/>
     <use xlink:href="#DejaVuSans-53" x="1217.818359"/>
     <use xlink:href="#DejaVuSans-5f" x="1281.294922"/>
     <use xlink:href="#DejaVuSans-4c" x="1331.294922"/>
     <use xlink:href="#DejaVuSans-49" x="1387.007812"/>
     <use xlink:href="#DejaVuSans-56" x="1416.5"/>
     <use xlink:href="#DejaVuSans-45" x="1484.908203"/>
    </g>
   </g>
   <g id="legend_1">
    <g id="patch_7">
     <path d="M 85.5915 119.3695 
L 231.01975 119.3695 
Q 234.53975 119.3695 234.53975 115.8495 
L 234.53975 40.109 
Q 234.53975 36.589 231.01975 36.589 
L 85.5915 36.589 
Q 82.0715 36.589 82.0715 40.109 
L 82.0715 115.8495 
Q 82.0715 119.3695 85.5915 119.3695 
z
" style="fill: #ffffff; opacity: 0.8; stroke: #cccccc; stroke-width: 2; stroke-linejoin: miter"/>
    </g>
    <g id="line2d_17">
     <path d="M 89.1115 50.84225 
L 106.7115 50.84225 
L 124.3115 50.84225 
" style="fill: none; stroke: #ffa500; stroke-width: 3; stroke-linecap: square"/>
    </g>
    <g id="text_16">
     <!-- LR: 0.81 -->
     <g transform="translate(138.3915 57.00225) scale(0.176 -0.176)">
      <defs>
       <path id="DejaVuSans-3a" d="M 750 794 
L 1409 794 
L 1409 0 
L 750 0 
L 750 794 
z
M 750 3309 
L 1409 3309 
L 1409 2516 
L 750 2516 
L 750 3309 
z
" transform="scale(0.015625)"/>
      </defs>
      <use xlink:href="#DejaVuSans-4c"/>
      <use xlink:href="#DejaVuSans-52" x="55.712891"/>
      <use xlink:href="#DejaVuSans-3a" x="122.070312"/>
      <use xlink:href="#DejaVuSans-20" x="155.761719"/>
      <use xlink:href="#DejaVuSans-30" x="187.548828"/>
      <use xlink:href="#DejaVuSans-2e" x="251.171875"/>
      <use xlink:href="#DejaVuSans-38" x="282.958984"/>
      <use xlink:href="#DejaVuSans-31" x="346.582031"/>
     </g>
    </g>
    <g id="line2d_18">
     <path d="M 89.1115 76.67575 
L 106.7115 76.67575 
L 124.3115 76.67575 
" style="fill: none; stroke: #0000ff; stroke-width: 3; stroke-linecap: square"/>
    </g>
    <g id="text_17">
     <!-- RF: 0.75 -->
     <g transform="translate(138.3915 82.83575) scale(0.176 -0.176)">
      <defs>
       <path id="DejaVuSans-37" d="M 525 4666 
L 3525 4666 
L 3525 4397 
L 1831 0 
L 1172 0 
L 2766 4134 
L 525 4134 
L 525 4666 
z
" transform="scale(0.015625)"/>
       <path id="DejaVuSans-35" d="M 691 4666 
L 3169 4666 
L 3169 4134 
L 1269 4134 
L 1269 2991 
Q 1406 3038 1543 3061 
Q 1681 3084 1819 3084 
Q 2600 3084 3056 2656 
Q 3513 2228 3513 1497 
Q 3513 744 3044 326 
Q 2575 -91 1722 -91 
Q 1428 -91 1123 -41 
Q 819 9 494 109 
L 494 744 
Q 775 591 1075 516 
Q 1375 441 1709 441 
Q 2250 441 2565 725 
Q 2881 1009 2881 1497 
Q 2881 1984 2565 2268 
Q 2250 2553 1709 2553 
Q 1456 2553 1204 2497 
Q 953 2441 691 2322 
L 691 4666 
z
" transform="scale(0.015625)"/>
      </defs>
      <use xlink:href="#DejaVuSans-52"/>
      <use xlink:href="#DejaVuSans-46" x="69.482422"/>
      <use xlink:href="#DejaVuSans-3a" x="119.251953"/>
      <use xlink:href="#DejaVuSans-20" x="152.943359"/>
      <use xlink:href="#DejaVuSans-30" x="184.730469"/>
      <use xlink:href="#DejaVuSans-2e" x="248.353516"/>
      <use xlink:href="#DejaVuSans-37" x="280.140625"/>
      <use xlink:href="#DejaVuSans-35" x="343.763672"/>
     </g>
    </g>
    <g id="line2d_19">
     <path d="M 89.1115 102.50925 
L 106.7115 102.50925 
L 124.3115 102.50925 
" style="fill: none; stroke: #008000; stroke-width: 3; stroke-linecap: square"/>
    </g>
    <g id="text_18">
     <!-- SVM: 0.81 -->
     <g transform="translate(138.3915 108.66925) scale(0.176 -0.176)">
      <defs>
       <path id="DejaVuSans-4d" d="M 628 4666 
L 1569 4666 
L 2759 1491 
L 3956 4666 
L 4897 4666 
L 4897 0 
L 4281 0 
L 4281 4097 
L 3078 897 
L 2444 897 
L 1241 4097 
L 1241 0 
L 628 0 
L 628 4666 
z
" transform="scale(0.015625)"/>
      </defs>
      <use xlink:href="#DejaVuSans-53"/>
      <use xlink:href="#DejaVuSans-56" x="63.476562"/>
      <use xlink:href="#DejaVuSans-4d" x="131.884766"/>
      <use xlink:href="#DejaVuSans-3a" x="218.164062"/>
      <use xlink:href="#DejaVuSans-20" x="251.855469"/>
      <use xlink:href="#DejaVuSans-30" x="283.642578"/>
      <use xlink:href="#DejaVuSans-2e" x="347.265625"/>
      <use xlink:href="#DejaVuSans-38" x="379.052734"/>
      <use xlink:href="#DejaVuSans-31" x="442.675781"/>
     </g>
    </g>
   </g>
  </g>
  <g id="axes_2">
   <g id="patch_8">
    <path d="M 560.253318 471.309 
L 966.0715 471.309 
L 966.0715 27.789 
L 560.253318 27.789 
z
" style="fill: #ffffff"/>
   </g>
   <g id="PolyCollection_4">
    <defs>
     <path id="ma5d305a8d7" d="M 578.699599 -82.4755 
L 578.699599 -82.4755 
L 582.426121 -82.4755 
L 586.152642 -82.4755 
L 589.879163 -82.4755 
L 593.605685 -82.4755 
L 597.332206 -82.4755 
L 601.058728 -82.4755 
L 604.785249 -82.4755 
L 608.51177 -82.4755 
L 612.238292 -82.4755 
L 615.964813 -82.4755 
L 619.691335 -82.4755 
L 623.417856 -82.4755 
L 627.144378 -82.4755 
L 630.870899 -82.4755 
L 634.59742 -82.4755 
L 638.323942 -82.4755 
L 642.050463 -82.4755 
L 645.776985 -82.4755 
L 649.503506 -82.4755 
L 653.230027 -82.4755 
L 656.956549 -82.4755 
L 660.68307 -82.4755 
L 664.409592 -82.4755 
L 668.136113 -82.4755 
L 671.862634 -203.4355 
L 675.589156 -203.4355 
L 679.315677 -203.4355 
L 683.042199 -203.4355 
L 686.76872 -203.4355 
L 690.495242 -203.4355 
L 694.221763 -203.4355 
L 697.948284 -203.4355 
L 701.674806 -203.4355 
L 705.401327 -203.4355 
L 709.127849 -203.4355 
L 712.85437 -203.4355 
L 716.580891 -203.4355 
L 720.307413 -203.4355 
L 724.033934 -203.4355 
L 727.760456 -203.4355 
L 731.486977 -203.4355 
L 735.213498 -203.4355 
L 738.94002 -203.4355 
L 742.666541 -203.4355 
L 746.393063 -203.4355 
L 750.119584 -203.4355 
L 753.846106 -203.4355 
L 757.572627 -203.4355 
L 761.299148 -203.4355 
L 765.02567 -243.7555 
L 768.752191 -243.7555 
L 772.478713 -243.7555 
L 776.205234 -243.7555 
L 779.931755 -243.7555 
L 783.658277 -243.7555 
L 787.384798 -243.7555 
L 791.11132 -243.7555 
L 794.837841 -243.7555 
L 798.564363 -243.7555 
L 802.290884 -243.7555 
L 806.017405 -243.7555 
L 809.743927 -243.7555 
L 813.470448 -243.7555 
L 817.19697 -243.7555 
L 820.923491 -243.7555 
L 824.650012 -243.7555 
L 828.376534 -243.7555 
L 832.103055 -243.7555 
L 835.829577 -243.7555 
L 839.556098 -243.7555 
L 843.282619 -243.7555 
L 847.009141 -243.7555 
L 850.735662 -243.7555 
L 854.462184 -243.7555 
L 858.188705 -396.0755 
L 861.915227 -396.0755 
L 865.641748 -396.0755 
L 869.368269 -396.0755 
L 873.094791 -396.0755 
L 876.821312 -396.0755 
L 880.547834 -396.0755 
L 884.274355 -396.0755 
L 888.000876 -396.0755 
L 891.727398 -396.0755 
L 895.453919 -396.0755 
L 899.180441 -396.0755 
L 902.906962 -396.0755 
L 906.633483 -396.0755 
L 910.360005 -396.0755 
L 914.086526 -396.0755 
L 917.813048 -396.0755 
L 921.539569 -396.0755 
L 925.266091 -396.0755 
L 928.992612 -396.0755 
L 932.719133 -396.0755 
L 936.445655 -396.0755 
L 940.172176 -396.0755 
L 943.898698 -396.0755 
L 947.625219 -485.6755 
L 947.625219 -485.6755 
L 947.625219 -485.6755 
L 943.898698 -485.6755 
L 940.172176 -485.6755 
L 936.445655 -485.6755 
L 932.719133 -485.6755 
L 928.992612 -485.6755 
L 925.266091 -485.6755 
L 921.539569 -485.6755 
L 917.813048 -485.6755 
L 914.086526 -485.6755 
L 910.360005 -485.6755 
L 906.633483 -485.6755 
L 902.906962 -485.6755 
L 899.180441 -485.6755 
L 895.453919 -485.6755 
L 891.727398 -485.6755 
L 888.000876 -485.6755 
L 884.274355 -485.6755 
L 880.547834 -485.6755 
L 876.821312 -485.6755 
L 873.094791 -485.6755 
L 869.368269 -485.6755 
L 865.641748 -485.6755 
L 861.915227 -485.6755 
L 858.188705 -485.6755 
L 854.462184 -485.6755 
L 850.735662 -485.6755 
L 847.009141 -485.6755 
L 843.282619 -485.6755 
L 839.556098 -485.6755 
L 835.829577 -485.6755 
L 832.103055 -485.6755 
L 828.376534 -485.6755 
L 824.650012 -485.6755 
L 820.923491 -485.6755 
L 817.19697 -485.6755 
L 813.470448 -485.6755 
L 809.743927 -485.6755 
L 806.017405 -485.6755 
L 802.290884 -485.6755 
L 798.564363 -485.6755 
L 794.837841 -485.6755 
L 791.11132 -485.6755 
L 787.384798 -485.6755 
L 783.658277 -485.6755 
L 779.931755 -485.6755 
L 776.205234 -485.6755 
L 772.478713 -485.6755 
L 768.752191 -485.6755 
L 765.02567 -485.6755 
L 761.299148 -485.6755 
L 757.572627 -485.6755 
L 753.846106 -485.6755 
L 750.119584 -485.6755 
L 746.393063 -485.6755 
L 742.666541 -485.6755 
L 738.94002 -485.6755 
L 735.213498 -485.6755 
L 731.486977 -485.6755 
L 727.760456 -485.6755 
L 724.033934 -485.6755 
L 720.307413 -485.6755 
L 716.580891 -485.6755 
L 712.85437 -485.6755 
L 709.127849 -485.6755 
L 705.401327 -485.6755 
L 701.674806 -485.6755 
L 697.948284 -485.6755 
L 694.221763 -485.6755 
L 690.495242 -485.6755 
L 686.76872 -485.6755 
L 683.042199 -485.6755 
L 679.315677 -485.6755 
L 675.589156 -485.6755 
L 671.862634 -485.6755 
L 668.136113 -485.6755 
L 664.409592 -485.6755 
L 660.68307 -485.6755 
L 656.956549 -485.6755 
L 653.230027 -485.6755 
L 649.503506 -405.0355 
L 645.776985 -405.0355 
L 642.050463 -405.0355 
L 638.323942 -405.0355 
L 634.59742 -405.0355 
L 630.870899 -405.0355 
L 627.144378 -405.0355 
L 623.417856 -405.0355 
L 619.691335 -405.0355 
L 615.964813 -405.0355 
L 612.238292 -405.0355 
L 608.51177 -405.0355 
L 604.785249 -405.0355 
L 601.058728 -405.0355 
L 597.332206 -405.0355 
L 593.605685 -405.0355 
L 589.879163 -405.0355 
L 586.152642 -405.0355 
L 582.426121 -405.0355 
L 578.699599 -82.4755 
z
" style="stroke: #ffa500; stroke-opacity: 0.2; stroke-width: 2"/>
    </defs>
    <g clip-path="url(#pdf8d087b2a)">
     <use xlink:href="#ma5d305a8d7" x="0" y="533.6245" style="fill: #ffa500; fill-opacity: 0.2; stroke: #ffa500; stroke-opacity: 0.2; stroke-width: 2"/>
    </g>
   </g>
   <g id="PolyCollection_5">
    <defs>
     <path id="mb58191c236" d="M 578.699599 -82.4755 
L 578.699599 -82.4755 
L 582.426121 -82.4755 
L 586.152642 -82.4755 
L 589.879163 -82.4755 
L 593.605685 -82.4755 
L 597.332206 -82.4755 
L 601.058728 -82.4755 
L 604.785249 -82.4755 
L 608.51177 -82.4755 
L 612.238292 -82.4755 
L 615.964813 -82.4755 
L 619.691335 -82.4755 
L 623.417856 -82.4755 
L 627.144378 -82.4755 
L 630.870899 -82.4755 
L 634.59742 -82.4755 
L 638.323942 -82.4755 
L 642.050463 -82.4755 
L 645.776985 -82.4755 
L 649.503506 -82.4755 
L 653.230027 -122.7955 
L 656.956549 -122.7955 
L 660.68307 -122.7955 
L 664.409592 -122.7955 
L 668.136113 -122.7955 
L 671.862634 -122.7955 
L 675.589156 -122.7955 
L 679.315677 -122.7955 
L 683.042199 -122.7955 
L 686.76872 -122.7955 
L 690.495242 -122.7955 
L 694.221763 -122.7955 
L 697.948284 -122.7955 
L 701.674806 -122.7955 
L 705.401327 -122.7955 
L 709.127849 -122.7955 
L 712.85437 -122.7955 
L 716.580891 -122.7955 
L 720.307413 -122.7955 
L 724.033934 -122.7955 
L 727.760456 -122.7955 
L 731.486977 -122.7955 
L 735.213498 -122.7955 
L 738.94002 -122.7955 
L 742.666541 -122.7955 
L 746.393063 -122.7955 
L 750.119584 -122.7955 
L 753.846106 -122.7955 
L 757.572627 -122.7955 
L 761.299148 -122.7955 
L 765.02567 -261.6755 
L 768.752191 -261.6755 
L 772.478713 -261.6755 
L 776.205234 -261.6755 
L 779.931755 -261.6755 
L 783.658277 -261.6755 
L 787.384798 -261.6755 
L 791.11132 -261.6755 
L 794.837841 -261.6755 
L 798.564363 -261.6755 
L 802.290884 -396.0755 
L 806.017405 -396.0755 
L 809.743927 -396.0755 
L 813.470448 -396.0755 
L 817.19697 -396.0755 
L 820.923491 -396.0755 
L 824.650012 -396.0755 
L 828.376534 -396.0755 
L 832.103055 -396.0755 
L 835.829577 -396.0755 
L 839.556098 -396.0755 
L 843.282619 -396.0755 
L 847.009141 -396.0755 
L 850.735662 -396.0755 
L 854.462184 -396.0755 
L 858.188705 -396.0755 
L 861.915227 -396.0755 
L 865.641748 -396.0755 
L 869.368269 -396.0755 
L 873.094791 -396.0755 
L 876.821312 -396.0755 
L 880.547834 -396.0755 
L 884.274355 -396.0755 
L 888.000876 -396.0755 
L 891.727398 -396.0755 
L 895.453919 -396.0755 
L 899.180441 -396.0755 
L 902.906962 -396.0755 
L 906.633483 -396.0755 
L 910.360005 -396.0755 
L 914.086526 -396.0755 
L 917.813048 -396.0755 
L 921.539569 -396.0755 
L 925.266091 -396.0755 
L 928.992612 -396.0755 
L 932.719133 -396.0755 
L 936.445655 -396.0755 
L 940.172176 -396.0755 
L 943.898698 -396.0755 
L 947.625219 -485.6755 
L 947.625219 -485.6755 
L 947.625219 -485.6755 
L 943.898698 -485.6755 
L 940.172176 -485.6755 
L 936.445655 -485.6755 
L 932.719133 -485.6755 
L 928.992612 -485.6755 
L 925.266091 -485.6755 
L 921.539569 -485.6755 
L 917.813048 -485.6755 
L 914.086526 -485.6755 
L 910.360005 -485.6755 
L 906.633483 -485.6755 
L 902.906962 -485.6755 
L 899.180441 -485.6755 
L 895.453919 -485.6755 
L 891.727398 -485.6755 
L 888.000876 -485.6755 
L 884.274355 -485.6755 
L 880.547834 -485.6755 
L 876.821312 -485.6755 
L 873.094791 -485.6755 
L 869.368269 -485.6755 
L 865.641748 -485.6755 
L 861.915227 -485.6755 
L 858.188705 -485.6755 
L 854.462184 -485.6755 
L 850.735662 -485.6755 
L 847.009141 -485.6755 
L 843.282619 -485.6755 
L 839.556098 -485.6755 
L 835.829577 -485.6755 
L 832.103055 -485.6755 
L 828.376534 -485.6755 
L 824.650012 -485.6755 
L 820.923491 -485.6755 
L 817.19697 -485.6755 
L 813.470448 -485.6755 
L 809.743927 -485.6755 
L 806.017405 -485.6755 
L 802.290884 -485.6755 
L 798.564363 -485.6755 
L 794.837841 -485.6755 
L 791.11132 -485.6755 
L 787.384798 -485.6755 
L 783.658277 -485.6755 
L 779.931755 -485.6755 
L 776.205234 -485.6755 
L 772.478713 -485.6755 
L 768.752191 -485.6755 
L 765.02567 -485.6755 
L 761.299148 -485.6755 
L 757.572627 -485.6755 
L 753.846106 -485.6755 
L 750.119584 -485.6755 
L 746.393063 -485.6755 
L 742.666541 -485.6755 
L 738.94002 -485.6755 
L 735.213498 -485.6755 
L 731.486977 -485.6755 
L 727.760456 -485.6755 
L 724.033934 -445.3555 
L 720.307413 -445.3555 
L 716.580891 -445.3555 
L 712.85437 -445.3555 
L 709.127849 -445.3555 
L 705.401327 -445.3555 
L 701.674806 -445.3555 
L 697.948284 -445.3555 
L 694.221763 -445.3555 
L 690.495242 -445.3555 
L 686.76872 -445.3555 
L 683.042199 -445.3555 
L 679.315677 -445.3555 
L 675.589156 -445.3555 
L 671.862634 -445.3555 
L 668.136113 -405.57853 
L 664.409592 -405.0355 
L 660.68307 -405.0355 
L 656.956549 -405.0355 
L 653.230027 -405.0355 
L 649.503506 -405.0355 
L 645.776985 -405.0355 
L 642.050463 -405.0355 
L 638.323942 -405.0355 
L 634.59742 -405.0355 
L 630.870899 -405.0355 
L 627.144378 -405.0355 
L 623.417856 -405.0355 
L 619.691335 -405.0355 
L 615.964813 -405.0355 
L 612.238292 -405.0355 
L 608.51177 -405.0355 
L 604.785249 -405.0355 
L 601.058728 -405.0355 
L 597.332206 -405.0355 
L 593.605685 -405.0355 
L 589.879163 -405.0355 
L 586.152642 -405.0355 
L 582.426121 -405.0355 
L 578.699599 -82.4755 
z
" style="stroke: #0000ff; stroke-opacity: 0.2; stroke-width: 2"/>
    </defs>
    <g clip-path="url(#pdf8d087b2a)">
     <use xlink:href="#mb58191c236" x="0" y="533.6245" style="fill: #0000ff; fill-opacity: 0.2; stroke: #0000ff; stroke-opacity: 0.2; stroke-width: 2"/>
    </g>
   </g>
   <g id="PolyCollection_6">
    <defs>
     <path id="m40aec01e89" d="M 578.699599 -82.4755 
L 578.699599 -82.4755 
L 582.426121 -82.4755 
L 586.152642 -82.4755 
L 589.879163 -82.4755 
L 593.605685 -82.4755 
L 597.332206 -82.4755 
L 601.058728 -82.4755 
L 604.785249 -82.4755 
L 608.51177 -82.4755 
L 612.238292 -82.4755 
L 615.964813 -82.4755 
L 619.691335 -82.4755 
L 623.417856 -82.4755 
L 627.144378 -82.4755 
L 630.870899 -82.4755 
L 634.59742 -82.4755 
L 638.323942 -82.4755 
L 642.050463 -82.4755 
L 645.776985 -82.4755 
L 649.503506 -82.4755 
L 653.230027 -163.1155 
L 656.956549 -163.1155 
L 660.68307 -163.1155 
L 664.409592 -163.1155 
L 668.136113 -163.1155 
L 671.862634 -203.4355 
L 675.589156 -203.4355 
L 679.315677 -203.4355 
L 683.042199 -203.4355 
L 686.76872 -203.4355 
L 690.495242 -203.4355 
L 694.221763 -203.4355 
L 697.948284 -203.4355 
L 701.674806 -203.4355 
L 705.401327 -203.4355 
L 709.127849 -203.4355 
L 712.85437 -203.4355 
L 716.580891 -203.4355 
L 720.307413 -203.4355 
L 724.033934 -203.4355 
L 727.760456 -203.4355 
L 731.486977 -203.4355 
L 735.213498 -203.4355 
L 738.94002 -203.4355 
L 742.666541 -203.4355 
L 746.393063 -203.4355 
L 750.119584 -203.4355 
L 753.846106 -203.4355 
L 757.572627 -203.4355 
L 761.299148 -203.4355 
L 765.02567 -261.6755 
L 768.752191 -261.6755 
L 772.478713 -261.6755 
L 776.205234 -261.6755 
L 779.931755 -261.6755 
L 783.658277 -261.6755 
L 787.384798 -261.6755 
L 791.11132 -261.6755 
L 794.837841 -261.6755 
L 798.564363 -261.6755 
L 802.290884 -351.2755 
L 806.017405 -351.2755 
L 809.743927 -351.2755 
L 813.470448 -351.2755 
L 817.19697 -351.2755 
L 820.923491 -351.2755 
L 824.650012 -351.2755 
L 828.376534 -351.2755 
L 832.103055 -351.2755 
L 835.829577 -351.2755 
L 839.556098 -351.2755 
L 843.282619 -351.2755 
L 847.009141 -351.2755 
L 850.735662 -351.2755 
L 854.462184 -351.2755 
L 858.188705 -351.2755 
L 861.915227 -351.2755 
L 865.641748 -351.2755 
L 869.368269 -351.2755 
L 873.094791 -351.2755 
L 876.821312 -396.0755 
L 880.547834 -396.0755 
L 884.274355 -396.0755 
L 888.000876 -396.0755 
L 891.727398 -396.0755 
L 895.453919 -396.0755 
L 899.180441 -396.0755 
L 902.906962 -396.0755 
L 906.633483 -396.0755 
L 910.360005 -396.0755 
L 914.086526 -396.0755 
L 917.813048 -396.0755 
L 921.539569 -396.0755 
L 925.266091 -396.0755 
L 928.992612 -396.0755 
L 932.719133 -396.0755 
L 936.445655 -396.0755 
L 940.172176 -396.0755 
L 943.898698 -396.0755 
L 947.625219 -485.6755 
L 947.625219 -485.6755 
L 947.625219 -485.6755 
L 943.898698 -485.6755 
L 940.172176 -485.6755 
L 936.445655 -485.6755 
L 932.719133 -485.6755 
L 928.992612 -485.6755 
L 925.266091 -485.6755 
L 921.539569 -485.6755 
L 917.813048 -485.6755 
L 914.086526 -485.6755 
L 910.360005 -485.6755 
L 906.633483 -485.6755 
L 902.906962 -485.6755 
L 899.180441 -485.6755 
L 895.453919 -485.6755 
L 891.727398 -485.6755 
L 888.000876 -485.6755 
L 884.274355 -485.6755 
L 880.547834 -485.6755 
L 876.821312 -485.6755 
L 873.094791 -485.6755 
L 869.368269 -485.6755 
L 865.641748 -485.6755 
L 861.915227 -485.6755 
L 858.188705 -485.6755 
L 854.462184 -485.6755 
L 850.735662 -485.6755 
L 847.009141 -485.6755 
L 843.282619 -485.6755 
L 839.556098 -485.6755 
L 835.829577 -485.6755 
L 832.103055 -485.6755 
L 828.376534 -485.6755 
L 824.650012 -485.6755 
L 820.923491 -485.6755 
L 817.19697 -485.6755 
L 813.470448 -485.6755 
L 809.743927 -485.6755 
L 806.017405 -485.6755 
L 802.290884 -485.6755 
L 798.564363 -485.6755 
L 794.837841 -485.6755 
L 791.11132 -485.6755 
L 787.384798 -485.6755 
L 783.658277 -485.6755 
L 779.931755 -485.6755 
L 776.205234 -485.6755 
L 772.478713 -485.6755 
L 768.752191 -485.6755 
L 765.02567 -485.6755 
L 761.299148 -485.6755 
L 757.572627 -485.6755 
L 753.846106 -485.6755 
L 750.119584 -485.6755 
L 746.393063 -485.6755 
L 742.666541 -485.6755 
L 738.94002 -485.6755 
L 735.213498 -485.6755 
L 731.486977 -485.6755 
L 727.760456 -485.6755 
L 724.033934 -485.6755 
L 720.307413 -485.6755 
L 716.580891 -485.6755 
L 712.85437 -485.6755 
L 709.127849 -485.6755 
L 705.401327 -485.6755 
L 701.674806 -485.6755 
L 697.948284 -485.6755 
L 694.221763 -485.6755 
L 690.495242 -485.6755 
L 686.76872 -485.6755 
L 683.042199 -485.6755 
L 679.315677 -485.6755 
L 675.589156 -485.6755 
L 671.862634 -485.6755 
L 668.136113 -485.6755 
L 664.409592 -485.6755 
L 660.68307 -485.6755 
L 656.956549 -485.6755 
L 653.230027 -485.6755 
L 649.503506 -405.0355 
L 645.776985 -405.0355 
L 642.050463 -405.0355 
L 638.323942 -405.0355 
L 634.59742 -405.0355 
L 630.870899 -405.0355 
L 627.144378 -405.0355 
L 623.417856 -405.0355 
L 619.691335 -405.0355 
L 615.964813 -405.0355 
L 612.238292 -405.0355 
L 608.51177 -405.0355 
L 604.785249 -405.0355 
L 601.058728 -405.0355 
L 597.332206 -405.0355 
L 593.605685 -405.0355 
L 589.879163 -405.0355 
L 586.152642 -405.0355 
L 582.426121 -405.0355 
L 578.699599 -82.4755 
z
" style="stroke: #008000; stroke-opacity: 0.2; stroke-width: 2"/>
    </defs>
    <g clip-path="url(#pdf8d087b2a)">
     <use xlink:href="#m40aec01e89" x="0" y="533.6245" style="fill: #008000; fill-opacity: 0.2; stroke: #008000; stroke-opacity: 0.2; stroke-width: 2"/>
    </g>
   </g>
   <g id="matplotlib.axis_3">
    <g id="xtick_7">
     <g id="line2d_20">
      <g>
       <use xlink:href="#mdf000ab82a" x="578.699599" y="471.309" style="stroke: #000000; stroke-width: 2.5"/>
      </g>
     </g>
     <g id="text_19">
      <!-- 0.0 -->
      <g transform="translate(564.704849 500.18225) scale(0.176 -0.176)">
       <use xlink:href="#DejaVuSans-30"/>
       <use xlink:href="#DejaVuSans-2e" x="63.623047"/>
       <use xlink:href="#DejaVuSans-30" x="95.410156"/>
      </g>
     </g>
    </g>
    <g id="xtick_8">
     <g id="line2d_21">
      <g>
       <use xlink:href="#mdf000ab82a" x="652.484723" y="471.309" style="stroke: #000000; stroke-width: 2.5"/>
      </g>
     </g>
     <g id="text_20">
      <!-- 0.2 -->
      <g transform="translate(638.489973 500.18225) scale(0.176 -0.176)">
       <use xlink:href="#DejaVuSans-30"/>
       <use xlink:href="#DejaVuSans-2e" x="63.623047"/>
       <use xlink:href="#DejaVuSans-32" x="95.410156"/>
      </g>
     </g>
    </g>
    <g id="xtick_9">
     <g id="line2d_22">
      <g>
       <use xlink:href="#mdf000ab82a" x="726.269847" y="471.309" style="stroke: #000000; stroke-width: 2.5"/>
      </g>
     </g>
     <g id="text_21">
      <!-- 0.4 -->
      <g transform="translate(712.275097 500.18225) scale(0.176 -0.176)">
       <use xlink:href="#DejaVuSans-30"/>
       <use xlink:href="#DejaVuSans-2e" x="63.623047"/>
       <use xlink:href="#DejaVuSans-34" x="95.410156"/>
      </g>
     </g>
    </g>
    <g id="xtick_10">
     <g id="line2d_23">
      <g>
       <use xlink:href="#mdf000ab82a" x="800.054971" y="471.309" style="stroke: #000000; stroke-width: 2.5"/>
      </g>
     </g>
     <g id="text_22">
      <!-- 0.6 -->
      <g transform="translate(786.060221 500.18225) scale(0.176 -0.176)">
       <use xlink:href="#DejaVuSans-30"/>
       <use xlink:href="#DejaVuSans-2e" x="63.623047"/>
       <use xlink:href="#DejaVuSans-36" x="95.410156"/>
      </g>
     </g>
    </g>
    <g id="xtick_11">
     <g id="line2d_24">
      <g>
       <use xlink:href="#mdf000ab82a" x="873.840095" y="471.309" style="stroke: #000000; stroke-width: 2.5"/>
      </g>
     </g>
     <g id="text_23">
      <!-- 0.8 -->
      <g transform="translate(859.845345 500.18225) scale(0.176 -0.176)">
       <use xlink:href="#DejaVuSans-30"/>
       <use xlink:href="#DejaVuSans-2e" x="63.623047"/>
       <use xlink:href="#DejaVuSans-38" x="95.410156"/>
      </g>
     </g>
    </g>
    <g id="xtick_12">
     <g id="line2d_25">
      <g>
       <use xlink:href="#mdf000ab82a" x="947.625219" y="471.309" style="stroke: #000000; stroke-width: 2.5"/>
      </g>
     </g>
     <g id="text_24">
      <!-- 1.0 -->
      <g transform="translate(933.630469 500.18225) scale(0.176 -0.176)">
       <use xlink:href="#DejaVuSans-31"/>
       <use xlink:href="#DejaVuSans-2e" x="63.623047"/>
       <use xlink:href="#DejaVuSans-30" x="95.410156"/>
      </g>
     </g>
    </g>
    <g id="text_25">
     <!-- False Positive Rate -->
     <g transform="translate(673.946909 522.4315) scale(0.192 -0.192)">
      <use xlink:href="#DejaVuSans-46"/>
      <use xlink:href="#DejaVuSans-61" x="48.394531"/>
      <use xlink:href="#DejaVuSans-6c" x="109.673828"/>
      <use xlink:href="#DejaVuSans-73" x="137.457031"/>
      <use xlink:href="#DejaVuSans-65" x="189.556641"/>
      <use xlink:href="#DejaVuSans-20" x="251.080078"/>
      <use xlink:href="#DejaVuSans-50" x="282.867188"/>
      <use xlink:href="#DejaVuSans-6f" x="339.544922"/>
      <use xlink:href="#DejaVuSans-73" x="400.726562"/>
      <use xlink:href="#DejaVuSans-69" x="452.826172"/>
      <use xlink:href="#DejaVuSans-74" x="480.609375"/>
      <use xlink:href="#DejaVuSans-69" x="519.818359"/>
      <use xlink:href="#DejaVuSans-76" x="547.601562"/>
      <use xlink:href="#DejaVuSans-65" x="606.78125"/>
      <use xlink:href="#DejaVuSans-20" x="668.304688"/>
      <use xlink:href="#DejaVuSans-52" x="700.091797"/>
      <use xlink:href="#DejaVuSans-61" x="767.324219"/>
      <use xlink:href="#DejaVuSans-74" x="828.603516"/>
      <use xlink:href="#DejaVuSans-65" x="867.8125"/>
     </g>
    </g>
   </g>
   <g id="matplotlib.axis_4">
    <g id="ytick_7">
     <g id="line2d_26">
      <g>
       <use xlink:href="#m5209c09c7a" x="560.253318" y="451.149" style="stroke: #000000; stroke-width: 2.5"/>
      </g>
     </g>
     <g id="text_26">
      <!-- 0.0 -->
      <g transform="translate(516.763818 457.835625) scale(0.176 -0.176)">
       <use xlink:href="#DejaVuSans-30"/>
       <use xlink:href="#DejaVuSans-2e" x="63.623047"/>
       <use xlink:href="#DejaVuSans-30" x="95.410156"/>
      </g>
     </g>
    </g>
    <g id="ytick_8">
     <g id="line2d_27">
      <g>
       <use xlink:href="#m5209c09c7a" x="560.253318" y="370.509" style="stroke: #000000; stroke-width: 2.5"/>
      </g>
     </g>
     <g id="text_27">
      <!-- 0.2 -->
      <g transform="translate(516.763818 377.195625) scale(0.176 -0.176)">
       <use xlink:href="#DejaVuSans-30"/>
       <use xlink:href="#DejaVuSans-2e" x="63.623047"/>
       <use xlink:href="#DejaVuSans-32" x="95.410156"/>
      </g>
     </g>
    </g>
    <g id="ytick_9">
     <g id="line2d_28">
      <g>
       <use xlink:href="#m5209c09c7a" x="560.253318" y="289.869" style="stroke: #000000; stroke-width: 2.5"/>
      </g>
     </g>
     <g id="text_28">
      <!-- 0.4 -->
      <g transform="translate(516.763818 296.555625) scale(0.176 -0.176)">
       <use xlink:href="#DejaVuSans-30"/>
       <use xlink:href="#DejaVuSans-2e" x="63.623047"/>
       <use xlink:href="#DejaVuSans-34" x="95.410156"/>
      </g>
     </g>
    </g>
    <g id="ytick_10">
     <g id="line2d_29">
      <g>
       <use xlink:href="#m5209c09c7a" x="560.253318" y="209.229" style="stroke: #000000; stroke-width: 2.5"/>
      </g>
     </g>
     <g id="text_29">
      <!-- 0.6 -->
      <g transform="translate(516.763818 215.915625) scale(0.176 -0.176)">
       <use xlink:href="#DejaVuSans-30"/>
       <use xlink:href="#DejaVuSans-2e" x="63.623047"/>
       <use xlink:href="#DejaVuSans-36" x="95.410156"/>
      </g>
     </g>
    </g>
    <g id="ytick_11">
     <g id="line2d_30">
      <g>
       <use xlink:href="#m5209c09c7a" x="560.253318" y="128.589" style="stroke: #000000; stroke-width: 2.5"/>
      </g>
     </g>
     <g id="text_30">
      <!-- 0.8 -->
      <g transform="translate(516.763818 135.275625) scale(0.176 -0.176)">
       <use xlink:href="#DejaVuSans-30"/>
       <use xlink:href="#DejaVuSans-2e" x="63.623047"/>
       <use xlink:href="#DejaVuSans-38" x="95.410156"/>
      </g>
     </g>
    </g>
    <g id="ytick_12">
     <g id="line2d_31">
      <g>
       <use xlink:href="#m5209c09c7a" x="560.253318" y="47.949" style="stroke: #000000; stroke-width: 2.5"/>
      </g>
     </g>
     <g id="text_31">
      <!-- 1.0 -->
      <g transform="translate(516.763818 54.635625) scale(0.176 -0.176)">
       <use xlink:href="#DejaVuSans-31"/>
       <use xlink:href="#DejaVuSans-2e" x="63.623047"/>
       <use xlink:href="#DejaVuSans-30" x="95.410156"/>
      </g>
     </g>
    </g>
    <g id="text_32">
     <!-- True Positive Rate -->
     <g transform="translate(508.770818 335.046) rotate(-90) scale(0.192 -0.192)">
      <use xlink:href="#DejaVuSans-54"/>
      <use xlink:href="#DejaVuSans-72" x="46.333984"/>
      <use xlink:href="#DejaVuSans-75" x="87.447266"/>
      <use xlink:href="#DejaVuSans-65" x="150.826172"/>
      <use xlink:href="#DejaVuSans-20" x="212.349609"/>
      <use xlink:href="#DejaVuSans-50" x="244.136719"/>
      <use xlink:href="#DejaVuSans-6f" x="300.814453"/>
      <use xlink:href="#DejaVuSans-73" x="361.996094"/>
      <use xlink:href="#DejaVuSans-69" x="414.095703"/>
      <use xlink:href="#DejaVuSans-74" x="441.878906"/>
      <use xlink:href="#DejaVuSans-69" x="481.087891"/>
      <use xlink:href="#DejaVuSans-76" x="508.871094"/>
      <use xlink:href="#DejaVuSans-65" x="568.050781"/>
      <use xlink:href="#DejaVuSans-20" x="629.574219"/>
      <use xlink:href="#DejaVuSans-52" x="661.361328"/>
      <use xlink:href="#DejaVuSans-61" x="728.59375"/>
      <use xlink:href="#DejaVuSans-74" x="789.873047"/>
      <use xlink:href="#DejaVuSans-65" x="829.082031"/>
     </g>
    </g>
   </g>
   <g id="line2d_32">
    <path d="M 578.699599 451.149 
L 582.426121 259.405 
L 586.152642 259.405 
L 589.879163 259.405 
L 593.605685 259.405 
L 597.332206 259.405 
L 601.058728 259.405 
L 604.785249 259.405 
L 608.51177 259.405 
L 612.238292 259.405 
L 615.964813 259.405 
L 619.691335 259.405 
L 623.417856 259.405 
L 627.144378 259.405 
L 630.870899 259.405 
L 634.59742 259.405 
L 638.323942 259.405 
L 642.050463 259.405 
L 645.776985 259.405 
L 649.503506 259.405 
L 653.230027 219.085 
L 656.956549 219.085 
L 660.68307 219.085 
L 664.409592 219.085 
L 668.136113 219.085 
L 671.862634 178.765 
L 675.589156 178.765 
L 679.315677 178.765 
L 683.042199 178.765 
L 686.76872 178.765 
L 690.495242 178.765 
L 694.221763 178.765 
L 697.948284 178.765 
L 701.674806 178.765 
L 705.401327 178.765 
L 709.127849 178.765 
L 712.85437 178.765 
L 716.580891 178.765 
L 720.307413 178.765 
L 724.033934 178.765 
L 727.760456 151.885 
L 731.486977 151.885 
L 735.213498 151.885 
L 738.94002 151.885 
L 742.666541 151.885 
L 746.393063 151.885 
L 750.119584 151.885 
L 753.846106 151.885 
L 757.572627 151.885 
L 761.299148 151.885 
L 765.02567 111.565 
L 768.752191 111.565 
L 772.478713 111.565 
L 776.205234 111.565 
L 779.931755 111.565 
L 783.658277 111.565 
L 787.384798 111.565 
L 791.11132 111.565 
L 794.837841 111.565 
L 798.564363 111.565 
L 802.290884 98.125 
L 806.017405 98.125 
L 809.743927 98.125 
L 813.470448 98.125 
L 817.19697 98.125 
L 820.923491 98.125 
L 824.650012 98.125 
L 828.376534 98.125 
L 832.103055 98.125 
L 835.829577 98.125 
L 839.556098 98.125 
L 843.282619 98.125 
L 847.009141 98.125 
L 850.735662 98.125 
L 854.462184 98.125 
L 858.188705 65.869 
L 861.915227 65.869 
L 865.641748 65.869 
L 869.368269 65.869 
L 873.094791 65.869 
L 876.821312 56.909 
L 880.547834 56.909 
L 884.274355 56.909 
L 888.000876 56.909 
L 891.727398 56.909 
L 895.453919 56.909 
L 899.180441 56.909 
L 902.906962 56.909 
L 906.633483 56.909 
L 910.360005 56.909 
L 914.086526 56.909 
L 917.813048 56.909 
L 921.539569 56.909 
L 925.266091 56.909 
L 928.992612 56.909 
L 932.719133 56.909 
L 936.445655 56.909 
L 940.172176 56.909 
L 943.898698 56.909 
L 947.625219 47.949 
" clip-path="url(#pdf8d087b2a)" style="fill: none; stroke: #ffa500; stroke-width: 3; stroke-linecap: square"/>
   </g>
   <g id="line2d_33">
    <path d="M 578.699599 451.149 
L 582.426121 279.239182 
L 586.152642 278.913364 
L 589.879163 278.587545 
L 593.605685 278.261727 
L 597.332206 277.935909 
L 601.058728 277.610091 
L 604.785249 277.284273 
L 608.51177 276.958455 
L 612.238292 276.632636 
L 615.964813 276.306818 
L 619.691335 275.981 
L 623.417856 275.655182 
L 627.144378 275.329364 
L 630.870899 275.003545 
L 634.59742 274.677727 
L 638.323942 274.351909 
L 642.050463 274.026091 
L 645.776985 273.700273 
L 649.503506 273.374455 
L 653.230027 241.643384 
L 656.956549 241.091303 
L 660.68307 240.539222 
L 664.409592 239.987141 
L 668.136113 239.435061 
L 671.862634 210.618253 
L 675.589156 209.903263 
L 679.315677 209.188273 
L 683.042199 208.473283 
L 686.76872 207.758293 
L 690.495242 207.043303 
L 694.221763 206.328313 
L 697.948284 205.613323 
L 701.674806 204.898333 
L 705.401327 204.183343 
L 709.127849 203.468354 
L 712.85437 202.753364 
L 716.580891 202.038374 
L 720.307413 201.323384 
L 724.033934 200.608394 
L 727.760456 177.493404 
L 731.486977 176.778414 
L 735.213498 176.063424 
L 738.94002 175.348434 
L 742.666541 174.633444 
L 746.393063 173.918455 
L 750.119584 173.203465 
L 753.846106 172.488475 
L 757.572627 171.773485 
L 761.299148 171.058495 
L 765.02567 113.97696 
L 768.752191 113.424879 
L 772.478713 112.872798 
L 776.205234 112.320717 
L 779.931755 111.768636 
L 783.658277 111.216556 
L 787.384798 110.664475 
L 791.11132 110.112394 
L 794.837841 109.560313 
L 798.564363 109.008232 
L 802.290884 90.671909 
L 806.017405 90.346091 
L 809.743927 90.020273 
L 813.470448 89.694455 
L 817.19697 89.368636 
L 820.923491 89.042818 
L 824.650012 88.717 
L 828.376534 88.391182 
L 832.103055 88.065364 
L 835.829577 87.739545 
L 839.556098 87.413727 
L 843.282619 87.087909 
L 847.009141 86.762091 
L 850.735662 86.436273 
L 854.462184 86.110455 
L 858.188705 69.778818 
L 861.915227 69.615909 
L 865.641748 69.453 
L 869.368269 69.290091 
L 873.094791 69.127182 
L 876.821312 60.004273 
L 880.547834 59.841364 
L 884.274355 59.678455 
L 888.000876 59.515545 
L 891.727398 59.352636 
L 895.453919 59.189727 
L 899.180441 59.026818 
L 902.906962 58.863909 
L 906.633483 58.701 
L 910.360005 58.538091 
L 914.086526 58.375182 
L 917.813048 58.212273 
L 921.539569 58.049364 
L 925.266091 57.886455 
L 928.992612 57.723545 
L 932.719133 57.560636 
L 936.445655 57.397727 
L 940.172176 57.234818 
L 943.898698 57.071909 
L 947.625219 47.949 
" clip-path="url(#pdf8d087b2a)" style="fill: none; stroke: #0000ff; stroke-width: 3; stroke-linecap: square"/>
   </g>
   <g id="line2d_34">
    <path d="M 578.699599 451.149 
L 582.426121 244.173 
L 586.152642 244.173 
L 589.879163 244.173 
L 593.605685 244.173 
L 597.332206 244.173 
L 601.058728 244.173 
L 604.785249 244.173 
L 608.51177 244.173 
L 612.238292 244.173 
L 615.964813 244.173 
L 619.691335 244.173 
L 623.417856 244.173 
L 627.144378 244.173 
L 630.870899 244.173 
L 634.59742 244.173 
L 638.323942 244.173 
L 642.050463 244.173 
L 645.776985 244.173 
L 649.503506 244.173 
L 653.230027 176.973 
L 656.956549 176.973 
L 660.68307 176.973 
L 664.409592 176.973 
L 668.136113 176.973 
L 671.862634 140.685 
L 675.589156 140.685 
L 679.315677 140.685 
L 683.042199 140.685 
L 686.76872 140.685 
L 690.495242 140.685 
L 694.221763 140.685 
L 697.948284 140.685 
L 701.674806 140.685 
L 705.401327 140.685 
L 709.127849 140.685 
L 712.85437 140.685 
L 716.580891 140.685 
L 720.307413 140.685 
L 724.033934 140.685 
L 727.760456 140.685 
L 731.486977 140.685 
L 735.213498 140.685 
L 738.94002 140.685 
L 742.666541 140.685 
L 746.393063 140.685 
L 750.119584 140.685 
L 753.846106 140.685 
L 757.572627 140.685 
L 761.299148 140.685 
L 765.02567 100.365 
L 768.752191 100.365 
L 772.478713 100.365 
L 776.205234 100.365 
L 779.931755 100.365 
L 783.658277 100.365 
L 787.384798 100.365 
L 791.11132 100.365 
L 794.837841 100.365 
L 798.564363 100.365 
L 802.290884 86.925 
L 806.017405 86.925 
L 809.743927 86.925 
L 813.470448 86.925 
L 817.19697 86.925 
L 820.923491 86.925 
L 824.650012 86.925 
L 828.376534 86.925 
L 832.103055 86.925 
L 835.829577 86.925 
L 839.556098 86.925 
L 843.282619 86.925 
L 847.009141 86.925 
L 850.735662 86.925 
L 854.462184 86.925 
L 858.188705 74.829 
L 861.915227 74.829 
L 865.641748 74.829 
L 869.368269 74.829 
L 873.094791 74.829 
L 876.821312 56.909 
L 880.547834 56.909 
L 884.274355 56.909 
L 888.000876 56.909 
L 891.727398 56.909 
L 895.453919 56.909 
L 899.180441 56.909 
L 902.906962 56.909 
L 906.633483 56.909 
L 910.360005 56.909 
L 914.086526 56.909 
L 917.813048 56.909 
L 921.539569 56.909 
L 925.266091 56.909 
L 928.992612 56.909 
L 932.719133 56.909 
L 936.445655 56.909 
L 940.172176 56.909 
L 943.898698 56.909 
L 947.625219 47.949 
" clip-path="url(#pdf8d087b2a)" style="fill: none; stroke: #008000; stroke-width: 3; stroke-linecap: square"/>
   </g>
   <g id="line2d_35">
    <path d="M 578.699599 451.149 
L 947.625219 47.949 
" clip-path="url(#pdf8d087b2a)" style="fill: none; stroke-dasharray: 11.1,4.8; stroke-dashoffset: 0; stroke: #000000; stroke-opacity: 0.5; stroke-width: 3"/>
   </g>
   <g id="patch_9">
    <path d="M 560.253318 471.309 
L 560.253318 27.789 
" style="fill: none; stroke: #000000; stroke-width: 2.5; stroke-linejoin: miter; stroke-linecap: square"/>
   </g>
   <g id="patch_10">
    <path d="M 966.0715 471.309 
L 966.0715 27.789 
" style="fill: none; stroke: #000000; stroke-width: 2.5; stroke-linejoin: miter; stroke-linecap: square"/>
   </g>
   <g id="patch_11">
    <path d="M 560.253318 471.309 
L 966.0715 471.309 
" style="fill: none; stroke: #000000; stroke-width: 2.5; stroke-linejoin: miter; stroke-linecap: square"/>
   </g>
   <g id="patch_12">
    <path d="M 560.253318 27.789 
L 966.0715 27.789 
" style="fill: none; stroke: #000000; stroke-width: 2.5; stroke-linejoin: miter; stroke-linecap: square"/>
   </g>
   <g id="text_33">
    <!-- Approach CDT_DI_FI_OHE_IS_LIVE -->
    <g transform="translate(601.385909 21.789) scale(0.192 -0.192)">
     <use xlink:href="#DejaVuSans-41"/>
     <use xlink:href="#DejaVuSans-70" x="68.408203"/>
     <use xlink:href="#DejaVuSans-70" x="131.884766"/>
     <use xlink:href="#DejaVuSans-72" x="195.361328"/>
     <use xlink:href="#DejaVuSans-6f" x="234.224609"/>
     <use xlink:href="#DejaVuSans-61" x="295.40625"/>
     <use xlink:href="#DejaVuSans-63" x="356.685547"/>
     <use xlink:href="#DejaVuSans-68" x="411.666016"/>
     <use xlink:href="#DejaVuSans-20" x="475.044922"/>
     <use xlink:href="#DejaVuSans-43" x="506.832031"/>
     <use xlink:href="#DejaVuSans-44" x="576.65625"/>
     <use xlink:href="#DejaVuSans-54" x="653.658203"/>
     <use xlink:href="#DejaVuSans-5f" x="714.742188"/>
     <use xlink:href="#DejaVuSans-44" x="764.742188"/>
     <use xlink:href="#DejaVuSans-49" x="841.744141"/>
     <use xlink:href="#DejaVuSans-5f" x="871.236328"/>
     <use xlink:href="#DejaVuSans-46" x="921.236328"/>
     <use xlink:href="#DejaVuSans-49" x="978.755859"/>
     <use xlink:href="#DejaVuSans-5f" x="1008.248047"/>
     <use xlink:href="#DejaVuSans-4f" x="1058.248047"/>
     <use xlink:href="#DejaVuSans-48" x="1136.958984"/>
     <use xlink:href="#DejaVuSans-45" x="1212.154297"/>
     <use xlink:href="#DejaVuSans-5f" x="1275.337891"/>
     <use xlink:href="#DejaVuSans-49" x="1325.337891"/>
     <use xlink:href="#DejaVuSans-53" x="1354.830078"/>
     <use xlink:href="#DejaVuSans-5f" x="1418.306641"/>
     <use xlink:href="#DejaVuSans-4c" x="1468.306641"/>
     <use xlink:href="#DejaVuSans-49" x="1524.019531"/>
     <use xlink:href="#DejaVuSans-56" x="1553.511719"/>
     <use xlink:href="#DejaVuSans-45" x="1621.919922"/>
    </g>
   </g>
   <g id="legend_2">
    <g id="patch_13">
     <path d="M 572.573318 119.3695 
L 718.001568 119.3695 
Q 721.521568 119.3695 721.521568 115.8495 
L 721.521568 40.109 
Q 721.521568 36.589 718.001568 36.589 
L 572.573318 36.589 
Q 569.053318 36.589 569.053318 40.109 
L 569.053318 115.8495 
Q 569.053318 119.3695 572.573318 119.3695 
z
" style="fill: #ffffff; opacity: 0.8; stroke: #cccccc; stroke-width: 2; stroke-linejoin: miter"/>
    </g>
    <g id="line2d_36">
     <path d="M 576.093318 50.84225 
L 593.693318 50.84225 
L 611.293318 50.84225 
" style="fill: none; stroke: #ffa500; stroke-width: 3; stroke-linecap: square"/>
    </g>
    <g id="text_34">
     <!-- LR: 0.76 -->
     <g transform="translate(625.373318 57.00225) scale(0.176 -0.176)">
      <use xlink:href="#DejaVuSans-4c"/>
      <use xlink:href="#DejaVuSans-52" x="55.712891"/>
      <use xlink:href="#DejaVuSans-3a" x="122.070312"/>
      <use xlink:href="#DejaVuSans-20" x="155.761719"/>
      <use xlink:href="#DejaVuSans-30" x="187.548828"/>
      <use xlink:href="#DejaVuSans-2e" x="251.171875"/>
      <use xlink:href="#DejaVuSans-37" x="282.958984"/>
      <use xlink:href="#DejaVuSans-36" x="346.582031"/>
     </g>
    </g>
    <g id="line2d_37">
     <path d="M 576.093318 76.67575 
L 593.693318 76.67575 
L 611.293318 76.67575 
" style="fill: none; stroke: #0000ff; stroke-width: 3; stroke-linecap: square"/>
    </g>
    <g id="text_35">
     <!-- RF: 0.73 -->
     <g transform="translate(625.373318 82.83575) scale(0.176 -0.176)">
      <defs>
       <path id="DejaVuSans-33" d="M 2597 2516 
Q 3050 2419 3304 2112 
Q 3559 1806 3559 1356 
Q 3559 666 3084 287 
Q 2609 -91 1734 -91 
Q 1441 -91 1130 -33 
Q 819 25 488 141 
L 488 750 
Q 750 597 1062 519 
Q 1375 441 1716 441 
Q 2309 441 2620 675 
Q 2931 909 2931 1356 
Q 2931 1769 2642 2001 
Q 2353 2234 1838 2234 
L 1294 2234 
L 1294 2753 
L 1863 2753 
Q 2328 2753 2575 2939 
Q 2822 3125 2822 3475 
Q 2822 3834 2567 4026 
Q 2313 4219 1838 4219 
Q 1578 4219 1281 4162 
Q 984 4106 628 3988 
L 628 4550 
Q 988 4650 1302 4700 
Q 1616 4750 1894 4750 
Q 2613 4750 3031 4423 
Q 3450 4097 3450 3541 
Q 3450 3153 3228 2886 
Q 3006 2619 2597 2516 
z
" transform="scale(0.015625)"/>
      </defs>
      <use xlink:href="#DejaVuSans-52"/>
      <use xlink:href="#DejaVuSans-46" x="69.482422"/>
      <use xlink:href="#DejaVuSans-3a" x="119.251953"/>
      <use xlink:href="#DejaVuSans-20" x="152.943359"/>
      <use xlink:href="#DejaVuSans-30" x="184.730469"/>
      <use xlink:href="#DejaVuSans-2e" x="248.353516"/>
      <use xlink:href="#DejaVuSans-37" x="280.140625"/>
      <use xlink:href="#DejaVuSans-33" x="343.763672"/>
     </g>
    </g>
    <g id="line2d_38">
     <path d="M 576.093318 102.50925 
L 593.693318 102.50925 
L 611.293318 102.50925 
" style="fill: none; stroke: #008000; stroke-width: 3; stroke-linecap: square"/>
    </g>
    <g id="text_36">
     <!-- SVM: 0.79 -->
     <g transform="translate(625.373318 108.66925) scale(0.176 -0.176)">
      <defs>
       <path id="DejaVuSans-39" d="M 703 97 
L 703 672 
Q 941 559 1184 500 
Q 1428 441 1663 441 
Q 2288 441 2617 861 
Q 2947 1281 2994 2138 
Q 2813 1869 2534 1725 
Q 2256 1581 1919 1581 
Q 1219 1581 811 2004 
Q 403 2428 403 3163 
Q 403 3881 828 4315 
Q 1253 4750 1959 4750 
Q 2769 4750 3195 4129 
Q 3622 3509 3622 2328 
Q 3622 1225 3098 567 
Q 2575 -91 1691 -91 
Q 1453 -91 1209 -44 
Q 966 3 703 97 
z
M 1959 2075 
Q 2384 2075 2632 2365 
Q 2881 2656 2881 3163 
Q 2881 3666 2632 3958 
Q 2384 4250 1959 4250 
Q 1534 4250 1286 3958 
Q 1038 3666 1038 3163 
Q 1038 2656 1286 2365 
Q 1534 2075 1959 2075 
z
" transform="scale(0.015625)"/>
      </defs>
      <use xlink:href="#DejaVuSans-53"/>
      <use xlink:href="#DejaVuSans-56" x="63.476562"/>
      <use xlink:href="#DejaVuSans-4d" x="131.884766"/>
      <use xlink:href="#DejaVuSans-3a" x="218.164062"/>
      <use xlink:href="#DejaVuSans-20" x="251.855469"/>
      <use xlink:href="#DejaVuSans-30" x="283.642578"/>
      <use xlink:href="#DejaVuSans-2e" x="347.265625"/>
      <use xlink:href="#DejaVuSans-37" x="379.052734"/>
      <use xlink:href="#DejaVuSans-39" x="442.675781"/>
     </g>
    </g>
   </g>
  </g>
 </g>
 <defs>
  <clipPath id="pe383bc30fd">
   <rect x="73.2715" y="27.789" width="405.818182" height="443.52"/>
  </clipPath>
  <clipPath id="pdf8d087b2a">
   <rect x="560.253318" y="27.789" width="405.818182" height="443.52"/>
  </clipPath>
 </defs>
</svg>
