<?xml version="1.0" encoding="utf-8" standalone="no"?>
<!DOCTYPE svg PUBLIC "-//W3C//DTD SVG 1.1//EN"
  "http://www.w3.org/Graphics/SVG/1.1/DTD/svg11.dtd">
<svg xmlns:xlink="http://www.w3.org/1999/xlink" width="526.8715pt" height="533.6245pt" viewBox="0 0 526.8715 533.6245" xmlns="http://www.w3.org/2000/svg" version="1.1">
 <metadata>
  <rdf:RDF xmlns:dc="http://purl.org/dc/elements/1.1/" xmlns:cc="http://creativecommons.org/ns#" xmlns:rdf="http://www.w3.org/1999/02/22-rdf-syntax-ns#">
   <cc:Work>
    <dc:type rdf:resource="http://purl.org/dc/dcmitype/StillImage"/>
    <dc:date>2023-05-14T10:06:34.467375</dc:date>
    <dc:format>image/svg+xml</dc:format>
    <dc:creator>
     <cc:Agent>
      <dc:title>Matplotlib v3.6.2, https://matplotlib.org/</dc:title>
     </cc:Agent>
    </dc:creator>
   </cc:Work>
  </rdf:RDF>
 </metadata>
 <defs>
  <style type="text/css">*{stroke-linejoin: round; stroke-linecap: butt}</style>
 </defs>
 <g id="figure_1">
  <g id="patch_1">
   <path d="M 0 533.6245 
L 526.8715 533.6245 
L 526.8715 0 
L 0 0 
z
" style="fill: #ffffff"/>
  </g>
  <g id="axes_1">
   <g id="patch_2">
    <path d="M 73.2715 471.309 
L 519.6715 471.309 
L 519.6715 27.789 
L 73.2715 27.789 
z
" style="fill: #ffffff"/>
   </g>
   <g id="PolyCollection_1">
    <defs>
     <path id="m9ce5ef45ce" d="M 93.562409 -82.4755 
L 93.562409 -82.4755 
L 97.661583 -82.4755 
L 101.760756 -82.4755 
L 105.85993 -82.4755 
L 109.959103 -82.4755 
L 114.058277 -82.4755 
L 118.15745 -82.4755 
L 122.256624 -82.4755 
L 126.355798 -82.4755 
L 130.454971 -82.4755 
L 134.554145 -82.4755 
L 138.653318 -82.4755 
L 142.752492 -82.4755 
L 146.851665 -82.4755 
L 150.950839 -82.4755 
L 155.050012 -82.4755 
L 159.149186 -82.4755 
L 163.24836 -82.4755 
L 167.347533 -82.4755 
L 171.446707 -82.4755 
L 175.54588 -82.4755 
L 179.645054 -82.4755 
L 183.744227 -82.4755 
L 187.843401 -82.4755 
L 191.942574 -82.4755 
L 196.041748 -82.4755 
L 200.140921 -82.4755 
L 204.240095 -82.4755 
L 208.339269 -82.4755 
L 212.438442 -82.4755 
L 216.537616 -82.4755 
L 220.636789 -82.4755 
L 224.735963 -82.4755 
L 228.835136 -82.4755 
L 232.93431 -82.4755 
L 237.033483 -82.4755 
L 241.132657 -82.4755 
L 245.231831 -82.4755 
L 249.331004 -82.4755 
L 253.430178 -82.4755 
L 257.529351 -82.4755 
L 261.628525 -82.4755 
L 265.727698 -82.4755 
L 269.826872 -82.4755 
L 273.926045 -82.4755 
L 278.025219 -82.4755 
L 282.124393 -82.4755 
L 286.223566 -82.4755 
L 290.32274 -82.4755 
L 294.421913 -82.4755 
L 298.521087 -82.4755 
L 302.62026 -82.4755 
L 306.719434 -82.4755 
L 310.818607 -82.4755 
L 314.917781 -82.4755 
L 319.016955 -82.4755 
L 323.116128 -82.4755 
L 327.215302 -82.4755 
L 331.314475 -82.4755 
L 335.413649 -82.4755 
L 339.512822 -82.4755 
L 343.611996 -82.4755 
L 347.711169 -82.4755 
L 351.810343 -82.4755 
L 355.909517 -82.4755 
L 360.00869 -82.4755 
L 364.107864 -82.4755 
L 368.207037 -82.4755 
L 372.306211 -82.4755 
L 376.405384 -82.4755 
L 380.504558 -82.4755 
L 384.603731 -82.4755 
L 388.702905 -82.4755 
L 392.802079 -82.4755 
L 396.901252 -82.4755 
L 401.000426 -82.4755 
L 405.099599 -82.4755 
L 409.198773 -82.4755 
L 413.297946 -82.4755 
L 417.39712 -82.4755 
L 421.496293 -82.4755 
L 425.595467 -82.4755 
L 429.69464 -82.4755 
L 433.793814 -82.4755 
L 437.892988 -82.4755 
L 441.992161 -82.4755 
L 446.091335 -82.4755 
L 450.190508 -82.4755 
L 454.289682 -82.4755 
L 458.388855 -82.4755 
L 462.488029 -82.4755 
L 466.587202 -82.4755 
L 470.686376 -82.4755 
L 474.78555 -82.4755 
L 478.884723 -82.4755 
L 482.983897 -82.4755 
L 487.08307 -82.4755 
L 491.182244 -82.4755 
L 495.281417 -82.4755 
L 499.380591 -485.6755 
L 499.380591 -485.6755 
L 499.380591 -485.6755 
L 495.281417 -485.6755 
L 491.182244 -485.6755 
L 487.08307 -485.6755 
L 482.983897 -485.6755 
L 478.884723 -485.6755 
L 474.78555 -485.6755 
L 470.686376 -485.6755 
L 466.587202 -485.6755 
L 462.488029 -485.6755 
L 458.388855 -485.6755 
L 454.289682 -485.6755 
L 450.190508 -485.6755 
L 446.091335 -485.6755 
L 441.992161 -485.6755 
L 437.892988 -485.6755 
L 433.793814 -485.6755 
L 429.69464 -485.6755 
L 425.595467 -485.6755 
L 421.496293 -485.6755 
L 417.39712 -485.6755 
L 413.297946 -485.6755 
L 409.198773 -485.6755 
L 405.099599 -485.6755 
L 401.000426 -485.6755 
L 396.901252 -485.6755 
L 392.802079 -485.6755 
L 388.702905 -485.6755 
L 384.603731 -485.6755 
L 380.504558 -485.6755 
L 376.405384 -485.6755 
L 372.306211 -485.6755 
L 368.207037 -485.6755 
L 364.107864 -485.6755 
L 360.00869 -485.6755 
L 355.909517 -485.6755 
L 351.810343 -485.6755 
L 347.711169 -485.6755 
L 343.611996 -485.6755 
L 339.512822 -485.6755 
L 335.413649 -485.6755 
L 331.314475 -485.6755 
L 327.215302 -485.6755 
L 323.116128 -485.6755 
L 319.016955 -485.6755 
L 314.917781 -485.6755 
L 310.818607 -485.6755 
L 306.719434 -485.6755 
L 302.62026 -485.6755 
L 298.521087 -485.6755 
L 294.421913 -485.6755 
L 290.32274 -485.6755 
L 286.223566 -485.6755 
L 282.124393 -485.6755 
L 278.025219 -485.6755 
L 273.926045 -485.6755 
L 269.826872 -485.6755 
L 265.727698 -485.6755 
L 261.628525 -485.6755 
L 257.529351 -485.6755 
L 253.430178 -485.6755 
L 249.331004 -485.6755 
L 245.231831 -485.6755 
L 241.132657 -485.6755 
L 237.033483 -485.6755 
L 232.93431 -485.6755 
L 228.835136 -485.6755 
L 224.735963 -485.6755 
L 220.636789 -485.6755 
L 216.537616 -485.6755 
L 212.438442 -485.6755 
L 208.339269 -485.6755 
L 204.240095 -485.6755 
L 200.140921 -485.6755 
L 196.041748 -485.6755 
L 191.942574 -485.6755 
L 187.843401 -485.6755 
L 183.744227 -485.6755 
L 179.645054 -485.6755 
L 175.54588 -485.6755 
L 171.446707 -485.6755 
L 167.347533 -485.6755 
L 163.24836 -485.6755 
L 159.149186 -485.6755 
L 155.050012 -485.6755 
L 150.950839 -485.6755 
L 146.851665 -485.6755 
L 142.752492 -485.6755 
L 138.653318 -485.6755 
L 134.554145 -485.6755 
L 130.454971 -485.6755 
L 126.355798 -485.6755 
L 122.256624 -485.6755 
L 118.15745 -485.6755 
L 114.058277 -485.6755 
L 109.959103 -485.6755 
L 105.85993 -485.6755 
L 101.760756 -485.6755 
L 97.661583 -485.6755 
L 93.562409 -82.4755 
z
" style="stroke: #ffa500; stroke-opacity: 0.2; stroke-width: 2"/>
    </defs>
    <g clip-path="url(#p812db9a743)">
     <use xlink:href="#m9ce5ef45ce" x="0" y="533.6245" style="fill: #ffa500; fill-opacity: 0.2; stroke: #ffa500; stroke-opacity: 0.2; stroke-width: 2"/>
    </g>
   </g>
   <g id="PolyCollection_2">
    <defs>
     <path id="m80074e654c" d="M 93.562409 -82.4755 
L 93.562409 -82.4755 
L 97.661583 -82.4755 
L 101.760756 -82.4755 
L 105.85993 -82.4755 
L 109.959103 -82.4755 
L 114.058277 -82.4755 
L 118.15745 -82.4755 
L 122.256624 -82.4755 
L 126.355798 -82.4755 
L 130.454971 -82.4755 
L 134.554145 -82.4755 
L 138.653318 -82.4755 
L 142.752492 -82.4755 
L 146.851665 -82.4755 
L 150.950839 -82.4755 
L 155.050012 -82.4755 
L 159.149186 -82.4755 
L 163.24836 -82.4755 
L 167.347533 -82.4755 
L 171.446707 -82.4755 
L 175.54588 -82.4755 
L 179.645054 -82.4755 
L 183.744227 -82.4755 
L 187.843401 -82.4755 
L 191.942574 -82.4755 
L 196.041748 -82.4755 
L 200.140921 -82.4755 
L 204.240095 -82.4755 
L 208.339269 -82.4755 
L 212.438442 -82.4755 
L 216.537616 -82.4755 
L 220.636789 -82.4755 
L 224.735963 -82.4755 
L 228.835136 -82.4755 
L 232.93431 -82.4755 
L 237.033483 -82.4755 
L 241.132657 -82.4755 
L 245.231831 -82.4755 
L 249.331004 -82.4755 
L 253.430178 -82.4755 
L 257.529351 -82.4755 
L 261.628525 -82.4755 
L 265.727698 -82.4755 
L 269.826872 -82.4755 
L 273.926045 -82.4755 
L 278.025219 -82.4755 
L 282.124393 -82.4755 
L 286.223566 -82.4755 
L 290.32274 -82.4755 
L 294.421913 -82.4755 
L 298.521087 -82.4755 
L 302.62026 -82.4755 
L 306.719434 -82.4755 
L 310.818607 -82.4755 
L 314.917781 -82.4755 
L 319.016955 -82.4755 
L 323.116128 -82.4755 
L 327.215302 -82.4755 
L 331.314475 -82.4755 
L 335.413649 -82.4755 
L 339.512822 -82.4755 
L 343.611996 -82.4755 
L 347.711169 -82.4755 
L 351.810343 -82.4755 
L 355.909517 -82.4755 
L 360.00869 -82.4755 
L 364.107864 -82.4755 
L 368.207037 -82.4755 
L 372.306211 -82.4755 
L 376.405384 -82.4755 
L 380.504558 -82.4755 
L 384.603731 -82.4755 
L 388.702905 -82.4755 
L 392.802079 -82.4755 
L 396.901252 -82.4755 
L 401.000426 -82.4755 
L 405.099599 -82.4755 
L 409.198773 -82.4755 
L 413.297946 -82.4755 
L 417.39712 -82.4755 
L 421.496293 -82.4755 
L 425.595467 -82.4755 
L 429.69464 -82.4755 
L 433.793814 -82.4755 
L 437.892988 -82.4755 
L 441.992161 -82.4755 
L 446.091335 -82.4755 
L 450.190508 -82.4755 
L 454.289682 -82.4755 
L 458.388855 -82.4755 
L 462.488029 -82.4755 
L 466.587202 -82.4755 
L 470.686376 -82.4755 
L 474.78555 -82.4755 
L 478.884723 -82.4755 
L 482.983897 -82.4755 
L 487.08307 -82.4755 
L 491.182244 -82.4755 
L 495.281417 -82.4755 
L 499.380591 -485.6755 
L 499.380591 -485.6755 
L 499.380591 -485.6755 
L 495.281417 -485.6755 
L 491.182244 -485.6755 
L 487.08307 -485.6755 
L 482.983897 -485.6755 
L 478.884723 -485.6755 
L 474.78555 -485.6755 
L 470.686376 -485.6755 
L 466.587202 -485.6755 
L 462.488029 -485.6755 
L 458.388855 -485.6755 
L 454.289682 -485.6755 
L 450.190508 -485.6755 
L 446.091335 -485.6755 
L 441.992161 -485.6755 
L 437.892988 -485.6755 
L 433.793814 -485.6755 
L 429.69464 -485.6755 
L 425.595467 -485.6755 
L 421.496293 -485.6755 
L 417.39712 -485.6755 
L 413.297946 -485.6755 
L 409.198773 -485.6755 
L 405.099599 -485.6755 
L 401.000426 -485.6755 
L 396.901252 -485.6755 
L 392.802079 -485.6755 
L 388.702905 -485.6755 
L 384.603731 -485.6755 
L 380.504558 -485.6755 
L 376.405384 -485.6755 
L 372.306211 -485.6755 
L 368.207037 -485.6755 
L 364.107864 -485.6755 
L 360.00869 -485.6755 
L 355.909517 -485.6755 
L 351.810343 -485.6755 
L 347.711169 -485.6755 
L 343.611996 -485.6755 
L 339.512822 -485.6755 
L 335.413649 -485.6755 
L 331.314475 -485.6755 
L 327.215302 -485.6755 
L 323.116128 -485.6755 
L 319.016955 -485.6755 
L 314.917781 -485.6755 
L 310.818607 -485.6755 
L 306.719434 -485.6755 
L 302.62026 -485.6755 
L 298.521087 -485.6755 
L 294.421913 -485.6755 
L 290.32274 -485.6755 
L 286.223566 -485.6755 
L 282.124393 -485.6755 
L 278.025219 -485.6755 
L 273.926045 -485.6755 
L 269.826872 -485.6755 
L 265.727698 -485.6755 
L 261.628525 -485.6755 
L 257.529351 -485.6755 
L 253.430178 -485.6755 
L 249.331004 -485.6755 
L 245.231831 -485.6755 
L 241.132657 -485.6755 
L 237.033483 -485.6755 
L 232.93431 -485.6755 
L 228.835136 -485.6755 
L 224.735963 -485.6755 
L 220.636789 -485.6755 
L 216.537616 -485.6755 
L 212.438442 -485.6755 
L 208.339269 -485.6755 
L 204.240095 -485.6755 
L 200.140921 -485.6755 
L 196.041748 -485.6755 
L 191.942574 -485.6755 
L 187.843401 -485.6755 
L 183.744227 -485.6755 
L 179.645054 -485.6755 
L 175.54588 -485.6755 
L 171.446707 -485.6755 
L 167.347533 -485.6755 
L 163.24836 -485.6755 
L 159.149186 -485.6755 
L 155.050012 -485.6755 
L 150.950839 -485.6755 
L 146.851665 -485.6755 
L 142.752492 -485.6755 
L 138.653318 -485.6755 
L 134.554145 -485.6755 
L 130.454971 -485.6755 
L 126.355798 -485.6755 
L 122.256624 -485.6755 
L 118.15745 -485.6755 
L 114.058277 -485.6755 
L 109.959103 -485.6755 
L 105.85993 -485.6755 
L 101.760756 -485.6755 
L 97.661583 -485.6755 
L 93.562409 -82.4755 
z
" style="stroke: #0000ff; stroke-opacity: 0.2; stroke-width: 2"/>
    </defs>
    <g clip-path="url(#p812db9a743)">
     <use xlink:href="#m80074e654c" x="0" y="533.6245" style="fill: #0000ff; fill-opacity: 0.2; stroke: #0000ff; stroke-opacity: 0.2; stroke-width: 2"/>
    </g>
   </g>
   <g id="PolyCollection_3">
    <defs>
     <path id="mf26aae5d86" d="M 93.562409 -82.4755 
L 93.562409 -82.4755 
L 97.661583 -82.4755 
L 101.760756 -82.4755 
L 105.85993 -82.4755 
L 109.959103 -82.4755 
L 114.058277 -82.4755 
L 118.15745 -82.4755 
L 122.256624 -82.4755 
L 126.355798 -82.4755 
L 130.454971 -82.4755 
L 134.554145 -82.4755 
L 138.653318 -82.4755 
L 142.752492 -82.4755 
L 146.851665 -82.4755 
L 150.950839 -82.4755 
L 155.050012 -82.4755 
L 159.149186 -82.4755 
L 163.24836 -82.4755 
L 167.347533 -82.4755 
L 171.446707 -82.4755 
L 175.54588 -82.4755 
L 179.645054 -82.4755 
L 183.744227 -82.4755 
L 187.843401 -82.4755 
L 191.942574 -82.4755 
L 196.041748 -82.4755 
L 200.140921 -82.4755 
L 204.240095 -82.4755 
L 208.339269 -82.4755 
L 212.438442 -82.4755 
L 216.537616 -82.4755 
L 220.636789 -82.4755 
L 224.735963 -82.4755 
L 228.835136 -82.4755 
L 232.93431 -82.4755 
L 237.033483 -82.4755 
L 241.132657 -82.4755 
L 245.231831 -82.4755 
L 249.331004 -82.4755 
L 253.430178 -82.4755 
L 257.529351 -82.4755 
L 261.628525 -82.4755 
L 265.727698 -82.4755 
L 269.826872 -82.4755 
L 273.926045 -82.4755 
L 278.025219 -82.4755 
L 282.124393 -82.4755 
L 286.223566 -82.4755 
L 290.32274 -82.4755 
L 294.421913 -82.4755 
L 298.521087 -82.4755 
L 302.62026 -82.4755 
L 306.719434 -82.4755 
L 310.818607 -82.4755 
L 314.917781 -82.4755 
L 319.016955 -82.4755 
L 323.116128 -82.4755 
L 327.215302 -82.4755 
L 331.314475 -82.4755 
L 335.413649 -82.4755 
L 339.512822 -82.4755 
L 343.611996 -82.4755 
L 347.711169 -82.4755 
L 351.810343 -82.4755 
L 355.909517 -82.4755 
L 360.00869 -82.4755 
L 364.107864 -82.4755 
L 368.207037 -82.4755 
L 372.306211 -82.4755 
L 376.405384 -82.4755 
L 380.504558 -82.4755 
L 384.603731 -82.4755 
L 388.702905 -82.4755 
L 392.802079 -82.4755 
L 396.901252 -82.4755 
L 401.000426 -82.4755 
L 405.099599 -82.4755 
L 409.198773 -82.4755 
L 413.297946 -82.4755 
L 417.39712 -82.4755 
L 421.496293 -82.4755 
L 425.595467 -82.4755 
L 429.69464 -82.4755 
L 433.793814 -82.4755 
L 437.892988 -82.4755 
L 441.992161 -82.4755 
L 446.091335 -82.4755 
L 450.190508 -82.4755 
L 454.289682 -82.4755 
L 458.388855 -82.4755 
L 462.488029 -82.4755 
L 466.587202 -82.4755 
L 470.686376 -82.4755 
L 474.78555 -82.4755 
L 478.884723 -82.4755 
L 482.983897 -82.4755 
L 487.08307 -82.4755 
L 491.182244 -82.4755 
L 495.281417 -82.4755 
L 499.380591 -485.6755 
L 499.380591 -485.6755 
L 499.380591 -485.6755 
L 495.281417 -485.6755 
L 491.182244 -485.6755 
L 487.08307 -485.6755 
L 482.983897 -485.6755 
L 478.884723 -485.6755 
L 474.78555 -485.6755 
L 470.686376 -485.6755 
L 466.587202 -485.6755 
L 462.488029 -485.6755 
L 458.388855 -485.6755 
L 454.289682 -485.6755 
L 450.190508 -485.6755 
L 446.091335 -485.6755 
L 441.992161 -485.6755 
L 437.892988 -485.6755 
L 433.793814 -485.6755 
L 429.69464 -485.6755 
L 425.595467 -485.6755 
L 421.496293 -485.6755 
L 417.39712 -485.6755 
L 413.297946 -485.6755 
L 409.198773 -485.6755 
L 405.099599 -485.6755 
L 401.000426 -485.6755 
L 396.901252 -485.6755 
L 392.802079 -485.6755 
L 388.702905 -485.6755 
L 384.603731 -485.6755 
L 380.504558 -485.6755 
L 376.405384 -485.6755 
L 372.306211 -485.6755 
L 368.207037 -485.6755 
L 364.107864 -485.6755 
L 360.00869 -485.6755 
L 355.909517 -485.6755 
L 351.810343 -485.6755 
L 347.711169 -485.6755 
L 343.611996 -485.6755 
L 339.512822 -485.6755 
L 335.413649 -485.6755 
L 331.314475 -485.6755 
L 327.215302 -485.6755 
L 323.116128 -485.6755 
L 319.016955 -485.6755 
L 314.917781 -485.6755 
L 310.818607 -485.6755 
L 306.719434 -485.6755 
L 302.62026 -485.6755 
L 298.521087 -485.6755 
L 294.421913 -485.6755 
L 290.32274 -485.6755 
L 286.223566 -485.6755 
L 282.124393 -485.6755 
L 278.025219 -485.6755 
L 273.926045 -485.6755 
L 269.826872 -485.6755 
L 265.727698 -485.6755 
L 261.628525 -485.6755 
L 257.529351 -485.6755 
L 253.430178 -485.6755 
L 249.331004 -485.6755 
L 245.231831 -485.6755 
L 241.132657 -485.6755 
L 237.033483 -485.6755 
L 232.93431 -485.6755 
L 228.835136 -485.6755 
L 224.735963 -485.6755 
L 220.636789 -485.6755 
L 216.537616 -485.6755 
L 212.438442 -485.6755 
L 208.339269 -485.6755 
L 204.240095 -485.6755 
L 200.140921 -485.6755 
L 196.041748 -485.6755 
L 191.942574 -485.6755 
L 187.843401 -485.6755 
L 183.744227 -485.6755 
L 179.645054 -485.6755 
L 175.54588 -485.6755 
L 171.446707 -485.6755 
L 167.347533 -485.6755 
L 163.24836 -485.6755 
L 159.149186 -485.6755 
L 155.050012 -485.6755 
L 150.950839 -485.6755 
L 146.851665 -485.6755 
L 142.752492 -485.6755 
L 138.653318 -485.6755 
L 134.554145 -485.6755 
L 130.454971 -485.6755 
L 126.355798 -485.6755 
L 122.256624 -485.6755 
L 118.15745 -485.6755 
L 114.058277 -485.6755 
L 109.959103 -485.6755 
L 105.85993 -485.6755 
L 101.760756 -485.6755 
L 97.661583 -485.6755 
L 93.562409 -82.4755 
z
" style="stroke: #008000; stroke-opacity: 0.2; stroke-width: 2"/>
    </defs>
    <g clip-path="url(#p812db9a743)">
     <use xlink:href="#mf26aae5d86" x="0" y="533.6245" style="fill: #008000; fill-opacity: 0.2; stroke: #008000; stroke-opacity: 0.2; stroke-width: 2"/>
    </g>
   </g>
   <g id="matplotlib.axis_1">
    <g id="xtick_1">
     <g id="line2d_1">
      <defs>
       <path id="m200b2d8e59" d="M 0 0 
L 0 12 
" style="stroke: #000000; stroke-width: 2.5"/>
      </defs>
      <g>
       <use xlink:href="#m200b2d8e59" x="93.562409" y="471.309" style="stroke: #000000; stroke-width: 2.5"/>
      </g>
     </g>
     <g id="text_1">
      <!-- 0.0 -->
      <g transform="translate(79.567659 500.18225) scale(0.176 -0.176)">
       <defs>
        <path id="DejaVuSans-30" d="M 2034 4250 
Q 1547 4250 1301 3770 
Q 1056 3291 1056 2328 
Q 1056 1369 1301 889 
Q 1547 409 2034 409 
Q 2525 409 2770 889 
Q 3016 1369 3016 2328 
Q 3016 3291 2770 3770 
Q 2525 4250 2034 4250 
z
M 2034 4750 
Q 2819 4750 3233 4129 
Q 3647 3509 3647 2328 
Q 3647 1150 3233 529 
Q 2819 -91 2034 -91 
Q 1250 -91 836 529 
Q 422 1150 422 2328 
Q 422 3509 836 4129 
Q 1250 4750 2034 4750 
z
" transform="scale(0.015625)"/>
        <path id="DejaVuSans-2e" d="M 684 794 
L 1344 794 
L 1344 0 
L 684 0 
L 684 794 
z
" transform="scale(0.015625)"/>
       </defs>
       <use xlink:href="#DejaVuSans-30"/>
       <use xlink:href="#DejaVuSans-2e" x="63.623047"/>
       <use xlink:href="#DejaVuSans-30" x="95.410156"/>
      </g>
     </g>
    </g>
    <g id="xtick_2">
     <g id="line2d_2">
      <g>
       <use xlink:href="#m200b2d8e59" x="174.726045" y="471.309" style="stroke: #000000; stroke-width: 2.5"/>
      </g>
     </g>
     <g id="text_2">
      <!-- 0.2 -->
      <g transform="translate(160.731295 500.18225) scale(0.176 -0.176)">
       <defs>
        <path id="DejaVuSans-32" d="M 1228 531 
L 3431 531 
L 3431 0 
L 469 0 
L 469 531 
Q 828 903 1448 1529 
Q 2069 2156 2228 2338 
Q 2531 2678 2651 2914 
Q 2772 3150 2772 3378 
Q 2772 3750 2511 3984 
Q 2250 4219 1831 4219 
Q 1534 4219 1204 4116 
Q 875 4013 500 3803 
L 500 4441 
Q 881 4594 1212 4672 
Q 1544 4750 1819 4750 
Q 2544 4750 2975 4387 
Q 3406 4025 3406 3419 
Q 3406 3131 3298 2873 
Q 3191 2616 2906 2266 
Q 2828 2175 2409 1742 
Q 1991 1309 1228 531 
z
" transform="scale(0.015625)"/>
       </defs>
       <use xlink:href="#DejaVuSans-30"/>
       <use xlink:href="#DejaVuSans-2e" x="63.623047"/>
       <use xlink:href="#DejaVuSans-32" x="95.410156"/>
      </g>
     </g>
    </g>
    <g id="xtick_3">
     <g id="line2d_3">
      <g>
       <use xlink:href="#m200b2d8e59" x="255.889682" y="471.309" style="stroke: #000000; stroke-width: 2.5"/>
      </g>
     </g>
     <g id="text_3">
      <!-- 0.4 -->
      <g transform="translate(241.894932 500.18225) scale(0.176 -0.176)">
       <defs>
        <path id="DejaVuSans-34" d="M 2419 4116 
L 825 1625 
L 2419 1625 
L 2419 4116 
z
M 2253 4666 
L 3047 4666 
L 3047 1625 
L 3713 1625 
L 3713 1100 
L 3047 1100 
L 3047 0 
L 2419 0 
L 2419 1100 
L 313 1100 
L 313 1709 
L 2253 4666 
z
" transform="scale(0.015625)"/>
       </defs>
       <use xlink:href="#DejaVuSans-30"/>
       <use xlink:href="#DejaVuSans-2e" x="63.623047"/>
       <use xlink:href="#DejaVuSans-34" x="95.410156"/>
      </g>
     </g>
    </g>
    <g id="xtick_4">
     <g id="line2d_4">
      <g>
       <use xlink:href="#m200b2d8e59" x="337.053318" y="471.309" style="stroke: #000000; stroke-width: 2.5"/>
      </g>
     </g>
     <g id="text_4">
      <!-- 0.6 -->
      <g transform="translate(323.058568 500.18225) scale(0.176 -0.176)">
       <defs>
        <path id="DejaVuSans-36" d="M 2113 2584 
Q 1688 2584 1439 2293 
Q 1191 2003 1191 1497 
Q 1191 994 1439 701 
Q 1688 409 2113 409 
Q 2538 409 2786 701 
Q 3034 994 3034 1497 
Q 3034 2003 2786 2293 
Q 2538 2584 2113 2584 
z
M 3366 4563 
L 3366 3988 
Q 3128 4100 2886 4159 
Q 2644 4219 2406 4219 
Q 1781 4219 1451 3797 
Q 1122 3375 1075 2522 
Q 1259 2794 1537 2939 
Q 1816 3084 2150 3084 
Q 2853 3084 3261 2657 
Q 3669 2231 3669 1497 
Q 3669 778 3244 343 
Q 2819 -91 2113 -91 
Q 1303 -91 875 529 
Q 447 1150 447 2328 
Q 447 3434 972 4092 
Q 1497 4750 2381 4750 
Q 2619 4750 2861 4703 
Q 3103 4656 3366 4563 
z
" transform="scale(0.015625)"/>
       </defs>
       <use xlink:href="#DejaVuSans-30"/>
       <use xlink:href="#DejaVuSans-2e" x="63.623047"/>
       <use xlink:href="#DejaVuSans-36" x="95.410156"/>
      </g>
     </g>
    </g>
    <g id="xtick_5">
     <g id="line2d_5">
      <g>
       <use xlink:href="#m200b2d8e59" x="418.216955" y="471.309" style="stroke: #000000; stroke-width: 2.5"/>
      </g>
     </g>
     <g id="text_5">
      <!-- 0.8 -->
      <g transform="translate(404.222205 500.18225) scale(0.176 -0.176)">
       <defs>
        <path id="DejaVuSans-38" d="M 2034 2216 
Q 1584 2216 1326 1975 
Q 1069 1734 1069 1313 
Q 1069 891 1326 650 
Q 1584 409 2034 409 
Q 2484 409 2743 651 
Q 3003 894 3003 1313 
Q 3003 1734 2745 1975 
Q 2488 2216 2034 2216 
z
M 1403 2484 
Q 997 2584 770 2862 
Q 544 3141 544 3541 
Q 544 4100 942 4425 
Q 1341 4750 2034 4750 
Q 2731 4750 3128 4425 
Q 3525 4100 3525 3541 
Q 3525 3141 3298 2862 
Q 3072 2584 2669 2484 
Q 3125 2378 3379 2068 
Q 3634 1759 3634 1313 
Q 3634 634 3220 271 
Q 2806 -91 2034 -91 
Q 1263 -91 848 271 
Q 434 634 434 1313 
Q 434 1759 690 2068 
Q 947 2378 1403 2484 
z
M 1172 3481 
Q 1172 3119 1398 2916 
Q 1625 2713 2034 2713 
Q 2441 2713 2670 2916 
Q 2900 3119 2900 3481 
Q 2900 3844 2670 4047 
Q 2441 4250 2034 4250 
Q 1625 4250 1398 4047 
Q 1172 3844 1172 3481 
z
" transform="scale(0.015625)"/>
       </defs>
       <use xlink:href="#DejaVuSans-30"/>
       <use xlink:href="#DejaVuSans-2e" x="63.623047"/>
       <use xlink:href="#DejaVuSans-38" x="95.410156"/>
      </g>
     </g>
    </g>
    <g id="xtick_6">
     <g id="line2d_6">
      <g>
       <use xlink:href="#m200b2d8e59" x="499.380591" y="471.309" style="stroke: #000000; stroke-width: 2.5"/>
      </g>
     </g>
     <g id="text_6">
      <!-- 1.0 -->
      <g transform="translate(485.385841 500.18225) scale(0.176 -0.176)">
       <defs>
        <path id="DejaVuSans-31" d="M 794 531 
L 1825 531 
L 1825 4091 
L 703 3866 
L 703 4441 
L 1819 4666 
L 2450 4666 
L 2450 531 
L 3481 531 
L 3481 0 
L 794 0 
L 794 531 
z
" transform="scale(0.015625)"/>
       </defs>
       <use xlink:href="#DejaVuSans-31"/>
       <use xlink:href="#DejaVuSans-2e" x="63.623047"/>
       <use xlink:href="#DejaVuSans-30" x="95.410156"/>
      </g>
     </g>
    </g>
    <g id="text_7">
     <!-- False Positive Rate -->
     <g transform="translate(207.256 522.4315) scale(0.192 -0.192)">
      <defs>
       <path id="DejaVuSans-46" d="M 628 4666 
L 3309 4666 
L 3309 4134 
L 1259 4134 
L 1259 2759 
L 3109 2759 
L 3109 2228 
L 1259 2228 
L 1259 0 
L 628 0 
L 628 4666 
z
" transform="scale(0.015625)"/>
       <path id="DejaVuSans-61" d="M 2194 1759 
Q 1497 1759 1228 1600 
Q 959 1441 959 1056 
Q 959 750 1161 570 
Q 1363 391 1709 391 
Q 2188 391 2477 730 
Q 2766 1069 2766 1631 
L 2766 1759 
L 2194 1759 
z
M 3341 1997 
L 3341 0 
L 2766 0 
L 2766 531 
Q 2569 213 2275 61 
Q 1981 -91 1556 -91 
Q 1019 -91 701 211 
Q 384 513 384 1019 
Q 384 1609 779 1909 
Q 1175 2209 1959 2209 
L 2766 2209 
L 2766 2266 
Q 2766 2663 2505 2880 
Q 2244 3097 1772 3097 
Q 1472 3097 1187 3025 
Q 903 2953 641 2809 
L 641 3341 
Q 956 3463 1253 3523 
Q 1550 3584 1831 3584 
Q 2591 3584 2966 3190 
Q 3341 2797 3341 1997 
z
" transform="scale(0.015625)"/>
       <path id="DejaVuSans-6c" d="M 603 4863 
L 1178 4863 
L 1178 0 
L 603 0 
L 603 4863 
z
" transform="scale(0.015625)"/>
       <path id="DejaVuSans-73" d="M 2834 3397 
L 2834 2853 
Q 2591 2978 2328 3040 
Q 2066 3103 1784 3103 
Q 1356 3103 1142 2972 
Q 928 2841 928 2578 
Q 928 2378 1081 2264 
Q 1234 2150 1697 2047 
L 1894 2003 
Q 2506 1872 2764 1633 
Q 3022 1394 3022 966 
Q 3022 478 2636 193 
Q 2250 -91 1575 -91 
Q 1294 -91 989 -36 
Q 684 19 347 128 
L 347 722 
Q 666 556 975 473 
Q 1284 391 1588 391 
Q 1994 391 2212 530 
Q 2431 669 2431 922 
Q 2431 1156 2273 1281 
Q 2116 1406 1581 1522 
L 1381 1569 
Q 847 1681 609 1914 
Q 372 2147 372 2553 
Q 372 3047 722 3315 
Q 1072 3584 1716 3584 
Q 2034 3584 2315 3537 
Q 2597 3491 2834 3397 
z
" transform="scale(0.015625)"/>
       <path id="DejaVuSans-65" d="M 3597 1894 
L 3597 1613 
L 953 1613 
Q 991 1019 1311 708 
Q 1631 397 2203 397 
Q 2534 397 2845 478 
Q 3156 559 3463 722 
L 3463 178 
Q 3153 47 2828 -22 
Q 2503 -91 2169 -91 
Q 1331 -91 842 396 
Q 353 884 353 1716 
Q 353 2575 817 3079 
Q 1281 3584 2069 3584 
Q 2775 3584 3186 3129 
Q 3597 2675 3597 1894 
z
M 3022 2063 
Q 3016 2534 2758 2815 
Q 2500 3097 2075 3097 
Q 1594 3097 1305 2825 
Q 1016 2553 972 2059 
L 3022 2063 
z
" transform="scale(0.015625)"/>
       <path id="DejaVuSans-20" transform="scale(0.015625)"/>
       <path id="DejaVuSans-50" d="M 1259 4147 
L 1259 2394 
L 2053 2394 
Q 2494 2394 2734 2622 
Q 2975 2850 2975 3272 
Q 2975 3691 2734 3919 
Q 2494 4147 2053 4147 
L 1259 4147 
z
M 628 4666 
L 2053 4666 
Q 2838 4666 3239 4311 
Q 3641 3956 3641 3272 
Q 3641 2581 3239 2228 
Q 2838 1875 2053 1875 
L 1259 1875 
L 1259 0 
L 628 0 
L 628 4666 
z
" transform="scale(0.015625)"/>
       <path id="DejaVuSans-6f" d="M 1959 3097 
Q 1497 3097 1228 2736 
Q 959 2375 959 1747 
Q 959 1119 1226 758 
Q 1494 397 1959 397 
Q 2419 397 2687 759 
Q 2956 1122 2956 1747 
Q 2956 2369 2687 2733 
Q 2419 3097 1959 3097 
z
M 1959 3584 
Q 2709 3584 3137 3096 
Q 3566 2609 3566 1747 
Q 3566 888 3137 398 
Q 2709 -91 1959 -91 
Q 1206 -91 779 398 
Q 353 888 353 1747 
Q 353 2609 779 3096 
Q 1206 3584 1959 3584 
z
" transform="scale(0.015625)"/>
       <path id="DejaVuSans-69" d="M 603 3500 
L 1178 3500 
L 1178 0 
L 603 0 
L 603 3500 
z
M 603 4863 
L 1178 4863 
L 1178 4134 
L 603 4134 
L 603 4863 
z
" transform="scale(0.015625)"/>
       <path id="DejaVuSans-74" d="M 1172 4494 
L 1172 3500 
L 2356 3500 
L 2356 3053 
L 1172 3053 
L 1172 1153 
Q 1172 725 1289 603 
Q 1406 481 1766 481 
L 2356 481 
L 2356 0 
L 1766 0 
Q 1100 0 847 248 
Q 594 497 594 1153 
L 594 3053 
L 172 3053 
L 172 3500 
L 594 3500 
L 594 4494 
L 1172 4494 
z
" transform="scale(0.015625)"/>
       <path id="DejaVuSans-76" d="M 191 3500 
L 800 3500 
L 1894 563 
L 2988 3500 
L 3597 3500 
L 2284 0 
L 1503 0 
L 191 3500 
z
" transform="scale(0.015625)"/>
       <path id="DejaVuSans-52" d="M 2841 2188 
Q 3044 2119 3236 1894 
Q 3428 1669 3622 1275 
L 4263 0 
L 3584 0 
L 2988 1197 
Q 2756 1666 2539 1819 
Q 2322 1972 1947 1972 
L 1259 1972 
L 1259 0 
L 628 0 
L 628 4666 
L 2053 4666 
Q 2853 4666 3247 4331 
Q 3641 3997 3641 3322 
Q 3641 2881 3436 2590 
Q 3231 2300 2841 2188 
z
M 1259 4147 
L 1259 2491 
L 2053 2491 
Q 2509 2491 2742 2702 
Q 2975 2913 2975 3322 
Q 2975 3731 2742 3939 
Q 2509 4147 2053 4147 
L 1259 4147 
z
" transform="scale(0.015625)"/>
      </defs>
      <use xlink:href="#DejaVuSans-46"/>
      <use xlink:href="#DejaVuSans-61" x="48.394531"/>
      <use xlink:href="#DejaVuSans-6c" x="109.673828"/>
      <use xlink:href="#DejaVuSans-73" x="137.457031"/>
      <use xlink:href="#DejaVuSans-65" x="189.556641"/>
      <use xlink:href="#DejaVuSans-20" x="251.080078"/>
      <use xlink:href="#DejaVuSans-50" x="282.867188"/>
      <use xlink:href="#DejaVuSans-6f" x="339.544922"/>
      <use xlink:href="#DejaVuSans-73" x="400.726562"/>
      <use xlink:href="#DejaVuSans-69" x="452.826172"/>
      <use xlink:href="#DejaVuSans-74" x="480.609375"/>
      <use xlink:href="#DejaVuSans-69" x="519.818359"/>
      <use xlink:href="#DejaVuSans-76" x="547.601562"/>
      <use xlink:href="#DejaVuSans-65" x="606.78125"/>
      <use xlink:href="#DejaVuSans-20" x="668.304688"/>
      <use xlink:href="#DejaVuSans-52" x="700.091797"/>
      <use xlink:href="#DejaVuSans-61" x="767.324219"/>
      <use xlink:href="#DejaVuSans-74" x="828.603516"/>
      <use xlink:href="#DejaVuSans-65" x="867.8125"/>
     </g>
    </g>
   </g>
   <g id="matplotlib.axis_2">
    <g id="ytick_1">
     <g id="line2d_7">
      <defs>
       <path id="m73ee20b600" d="M 0 0 
L -12 0 
" style="stroke: #000000; stroke-width: 2.5"/>
      </defs>
      <g>
       <use xlink:href="#m73ee20b600" x="73.2715" y="451.149" style="stroke: #000000; stroke-width: 2.5"/>
      </g>
     </g>
     <g id="text_8">
      <!-- 0.0 -->
      <g transform="translate(29.782 457.835625) scale(0.176 -0.176)">
       <use xlink:href="#DejaVuSans-30"/>
       <use xlink:href="#DejaVuSans-2e" x="63.623047"/>
       <use xlink:href="#DejaVuSans-30" x="95.410156"/>
      </g>
     </g>
    </g>
    <g id="ytick_2">
     <g id="line2d_8">
      <g>
       <use xlink:href="#m73ee20b600" x="73.2715" y="370.509" style="stroke: #000000; stroke-width: 2.5"/>
      </g>
     </g>
     <g id="text_9">
      <!-- 0.2 -->
      <g transform="translate(29.782 377.195625) scale(0.176 -0.176)">
       <use xlink:href="#DejaVuSans-30"/>
       <use xlink:href="#DejaVuSans-2e" x="63.623047"/>
       <use xlink:href="#DejaVuSans-32" x="95.410156"/>
      </g>
     </g>
    </g>
    <g id="ytick_3">
     <g id="line2d_9">
      <g>
       <use xlink:href="#m73ee20b600" x="73.2715" y="289.869" style="stroke: #000000; stroke-width: 2.5"/>
      </g>
     </g>
     <g id="text_10">
      <!-- 0.4 -->
      <g transform="translate(29.782 296.555625) scale(0.176 -0.176)">
       <use xlink:href="#DejaVuSans-30"/>
       <use xlink:href="#DejaVuSans-2e" x="63.623047"/>
       <use xlink:href="#DejaVuSans-34" x="95.410156"/>
      </g>
     </g>
    </g>
    <g id="ytick_4">
     <g id="line2d_10">
      <g>
       <use xlink:href="#m73ee20b600" x="73.2715" y="209.229" style="stroke: #000000; stroke-width: 2.5"/>
      </g>
     </g>
     <g id="text_11">
      <!-- 0.6 -->
      <g transform="translate(29.782 215.915625) scale(0.176 -0.176)">
       <use xlink:href="#DejaVuSans-30"/>
       <use xlink:href="#DejaVuSans-2e" x="63.623047"/>
       <use xlink:href="#DejaVuSans-36" x="95.410156"/>
      </g>
     </g>
    </g>
    <g id="ytick_5">
     <g id="line2d_11">
      <g>
       <use xlink:href="#m73ee20b600" x="73.2715" y="128.589" style="stroke: #000000; stroke-width: 2.5"/>
      </g>
     </g>
     <g id="text_12">
      <!-- 0.8 -->
      <g transform="translate(29.782 135.275625) scale(0.176 -0.176)">
       <use xlink:href="#DejaVuSans-30"/>
       <use xlink:href="#DejaVuSans-2e" x="63.623047"/>
       <use xlink:href="#DejaVuSans-38" x="95.410156"/>
      </g>
     </g>
    </g>
    <g id="ytick_6">
     <g id="line2d_12">
      <g>
       <use xlink:href="#m73ee20b600" x="73.2715" y="47.949" style="stroke: #000000; stroke-width: 2.5"/>
      </g>
     </g>
     <g id="text_13">
      <!-- 1.0 -->
      <g transform="translate(29.782 54.635625) scale(0.176 -0.176)">
       <use xlink:href="#DejaVuSans-31"/>
       <use xlink:href="#DejaVuSans-2e" x="63.623047"/>
       <use xlink:href="#DejaVuSans-30" x="95.410156"/>
      </g>
     </g>
    </g>
    <g id="text_14">
     <!-- True Positive Rate -->
     <g transform="translate(21.789 335.046) rotate(-90) scale(0.192 -0.192)">
      <defs>
       <path id="DejaVuSans-54" d="M -19 4666 
L 3928 4666 
L 3928 4134 
L 2272 4134 
L 2272 0 
L 1638 0 
L 1638 4134 
L -19 4134 
L -19 4666 
z
" transform="scale(0.015625)"/>
       <path id="DejaVuSans-72" d="M 2631 2963 
Q 2534 3019 2420 3045 
Q 2306 3072 2169 3072 
Q 1681 3072 1420 2755 
Q 1159 2438 1159 1844 
L 1159 0 
L 581 0 
L 581 3500 
L 1159 3500 
L 1159 2956 
Q 1341 3275 1631 3429 
Q 1922 3584 2338 3584 
Q 2397 3584 2469 3576 
Q 2541 3569 2628 3553 
L 2631 2963 
z
" transform="scale(0.015625)"/>
       <path id="DejaVuSans-75" d="M 544 1381 
L 544 3500 
L 1119 3500 
L 1119 1403 
Q 1119 906 1312 657 
Q 1506 409 1894 409 
Q 2359 409 2629 706 
Q 2900 1003 2900 1516 
L 2900 3500 
L 3475 3500 
L 3475 0 
L 2900 0 
L 2900 538 
Q 2691 219 2414 64 
Q 2138 -91 1772 -91 
Q 1169 -91 856 284 
Q 544 659 544 1381 
z
M 1991 3584 
L 1991 3584 
z
" transform="scale(0.015625)"/>
      </defs>
      <use xlink:href="#DejaVuSans-54"/>
      <use xlink:href="#DejaVuSans-72" x="46.333984"/>
      <use xlink:href="#DejaVuSans-75" x="87.447266"/>
      <use xlink:href="#DejaVuSans-65" x="150.826172"/>
      <use xlink:href="#DejaVuSans-20" x="212.349609"/>
      <use xlink:href="#DejaVuSans-50" x="244.136719"/>
      <use xlink:href="#DejaVuSans-6f" x="300.814453"/>
      <use xlink:href="#DejaVuSans-73" x="361.996094"/>
      <use xlink:href="#DejaVuSans-69" x="414.095703"/>
      <use xlink:href="#DejaVuSans-74" x="441.878906"/>
      <use xlink:href="#DejaVuSans-69" x="481.087891"/>
      <use xlink:href="#DejaVuSans-76" x="508.871094"/>
      <use xlink:href="#DejaVuSans-65" x="568.050781"/>
      <use xlink:href="#DejaVuSans-20" x="629.574219"/>
      <use xlink:href="#DejaVuSans-52" x="661.361328"/>
      <use xlink:href="#DejaVuSans-61" x="728.59375"/>
      <use xlink:href="#DejaVuSans-74" x="789.873047"/>
      <use xlink:href="#DejaVuSans-65" x="829.082031"/>
     </g>
    </g>
   </g>
   <g id="line2d_13">
    <path d="M 93.562409 451.149 
L 97.661583 233.421 
L 101.760756 233.421 
L 105.85993 233.421 
L 109.959103 233.421 
L 114.058277 233.421 
L 118.15745 233.421 
L 122.256624 233.421 
L 126.355798 233.421 
L 130.454971 233.421 
L 134.554145 233.421 
L 138.653318 233.421 
L 142.752492 233.421 
L 146.851665 233.421 
L 150.950839 233.421 
L 155.050012 233.421 
L 159.149186 233.421 
L 163.24836 233.421 
L 167.347533 233.421 
L 171.446707 233.421 
L 175.54588 233.421 
L 179.645054 233.421 
L 183.744227 233.421 
L 187.843401 233.421 
L 191.942574 233.421 
L 196.041748 233.421 
L 200.140921 233.421 
L 204.240095 233.421 
L 208.339269 233.421 
L 212.438442 233.421 
L 216.537616 233.421 
L 220.636789 233.421 
L 224.735963 233.421 
L 228.835136 233.421 
L 232.93431 233.421 
L 237.033483 233.421 
L 241.132657 233.421 
L 245.231831 233.421 
L 249.331004 233.421 
L 253.430178 233.421 
L 257.529351 233.421 
L 261.628525 233.421 
L 265.727698 233.421 
L 269.826872 233.421 
L 273.926045 233.421 
L 278.025219 233.421 
L 282.124393 233.421 
L 286.223566 233.421 
L 290.32274 233.421 
L 294.421913 233.421 
L 298.521087 225.357 
L 302.62026 225.357 
L 306.719434 225.357 
L 310.818607 225.357 
L 314.917781 225.357 
L 319.016955 225.357 
L 323.116128 225.357 
L 327.215302 225.357 
L 331.314475 225.357 
L 335.413649 225.357 
L 339.512822 225.357 
L 343.611996 225.357 
L 347.711169 225.357 
L 351.810343 225.357 
L 355.909517 225.357 
L 360.00869 225.357 
L 364.107864 225.357 
L 368.207037 225.357 
L 372.306211 225.357 
L 376.405384 225.357 
L 380.504558 225.357 
L 384.603731 225.357 
L 388.702905 225.357 
L 392.802079 225.357 
L 396.901252 225.357 
L 401.000426 225.357 
L 405.099599 225.357 
L 409.198773 225.357 
L 413.297946 225.357 
L 417.39712 225.357 
L 421.496293 225.357 
L 425.595467 225.357 
L 429.69464 225.357 
L 433.793814 225.357 
L 437.892988 225.357 
L 441.992161 225.357 
L 446.091335 225.357 
L 450.190508 225.357 
L 454.289682 225.357 
L 458.388855 225.357 
L 462.488029 225.357 
L 466.587202 225.357 
L 470.686376 225.357 
L 474.78555 225.357 
L 478.884723 225.357 
L 482.983897 225.357 
L 487.08307 225.357 
L 491.182244 225.357 
L 495.281417 225.357 
L 499.380591 47.949 
" clip-path="url(#p812db9a743)" style="fill: none; stroke: #ffa500; stroke-width: 3; stroke-linecap: square"/>
   </g>
   <g id="line2d_14">
    <path d="M 93.562409 451.149 
L 97.661583 251.748273 
L 101.760756 251.259545 
L 105.85993 250.770818 
L 109.959103 250.282091 
L 114.058277 249.793364 
L 118.15745 249.304636 
L 122.256624 248.815909 
L 126.355798 248.327182 
L 130.454971 247.838455 
L 134.554145 247.349727 
L 138.653318 246.861 
L 142.752492 246.372273 
L 146.851665 245.883545 
L 150.950839 245.394818 
L 155.050012 244.906091 
L 159.149186 244.417364 
L 163.24836 243.928636 
L 167.347533 243.439909 
L 171.446707 242.951182 
L 175.54588 242.462455 
L 179.645054 241.973727 
L 183.744227 241.485 
L 187.843401 240.996273 
L 191.942574 240.507545 
L 196.041748 240.018818 
L 200.140921 239.530091 
L 204.240095 239.041364 
L 208.339269 238.552636 
L 212.438442 238.063909 
L 216.537616 237.575182 
L 220.636789 237.086455 
L 224.735963 236.597727 
L 228.835136 236.109 
L 232.93431 235.620273 
L 237.033483 235.131545 
L 241.132657 234.642818 
L 245.231831 234.154091 
L 249.331004 233.665364 
L 253.430178 233.176636 
L 257.529351 232.687909 
L 261.628525 232.199182 
L 265.727698 231.710455 
L 269.826872 231.221727 
L 273.926045 230.733 
L 278.025219 230.244273 
L 282.124393 229.755545 
L 286.223566 229.266818 
L 290.32274 228.778091 
L 294.421913 228.289364 
L 298.521087 219.899545 
L 302.62026 219.736636 
L 306.719434 219.573727 
L 310.818607 219.410818 
L 314.917781 219.247909 
L 319.016955 219.085 
L 323.116128 218.922091 
L 327.215302 218.759182 
L 331.314475 218.596273 
L 335.413649 218.433364 
L 339.512822 218.270455 
L 343.611996 218.107545 
L 347.711169 217.944636 
L 351.810343 217.781727 
L 355.909517 217.618818 
L 360.00869 217.455909 
L 364.107864 217.293 
L 368.207037 217.130091 
L 372.306211 216.967182 
L 376.405384 216.804273 
L 380.504558 216.641364 
L 384.603731 216.478455 
L 388.702905 216.315545 
L 392.802079 216.152636 
L 396.901252 215.989727 
L 401.000426 215.826818 
L 405.099599 215.663909 
L 409.198773 215.501 
L 413.297946 215.338091 
L 417.39712 215.175182 
L 421.496293 215.012273 
L 425.595467 214.849364 
L 429.69464 214.686455 
L 433.793814 214.523545 
L 437.892988 214.360636 
L 441.992161 214.197727 
L 446.091335 214.034818 
L 450.190508 213.871909 
L 454.289682 213.709 
L 458.388855 213.546091 
L 462.488029 213.383182 
L 466.587202 213.220273 
L 470.686376 213.057364 
L 474.78555 212.894455 
L 478.884723 212.731545 
L 482.983897 212.568636 
L 487.08307 212.405727 
L 491.182244 212.242818 
L 495.281417 212.079909 
L 499.380591 47.949 
" clip-path="url(#p812db9a743)" style="fill: none; stroke: #0000ff; stroke-width: 3; stroke-linecap: square"/>
   </g>
   <g id="line2d_15">
    <path d="M 93.562409 451.149 
L 97.661583 297.933 
L 101.760756 297.933 
L 105.85993 297.933 
L 109.959103 297.933 
L 114.058277 297.933 
L 118.15745 297.933 
L 122.256624 297.933 
L 126.355798 297.933 
L 130.454971 297.933 
L 134.554145 297.933 
L 138.653318 297.933 
L 142.752492 297.933 
L 146.851665 297.933 
L 150.950839 297.933 
L 155.050012 297.933 
L 159.149186 297.933 
L 163.24836 297.933 
L 167.347533 297.933 
L 171.446707 297.933 
L 175.54588 297.933 
L 179.645054 297.933 
L 183.744227 297.933 
L 187.843401 297.933 
L 191.942574 297.933 
L 196.041748 297.933 
L 200.140921 297.933 
L 204.240095 297.933 
L 208.339269 297.933 
L 212.438442 297.933 
L 216.537616 297.933 
L 220.636789 297.933 
L 224.735963 297.933 
L 228.835136 297.933 
L 232.93431 297.933 
L 237.033483 297.933 
L 241.132657 297.933 
L 245.231831 297.933 
L 249.331004 297.933 
L 253.430178 297.933 
L 257.529351 297.933 
L 261.628525 297.933 
L 265.727698 297.933 
L 269.826872 297.933 
L 273.926045 297.933 
L 278.025219 297.933 
L 282.124393 297.933 
L 286.223566 297.933 
L 290.32274 297.933 
L 294.421913 297.933 
L 298.521087 257.613 
L 302.62026 257.613 
L 306.719434 257.613 
L 310.818607 257.613 
L 314.917781 257.613 
L 319.016955 257.613 
L 323.116128 257.613 
L 327.215302 257.613 
L 331.314475 257.613 
L 335.413649 257.613 
L 339.512822 257.613 
L 343.611996 257.613 
L 347.711169 257.613 
L 351.810343 257.613 
L 355.909517 257.613 
L 360.00869 257.613 
L 364.107864 257.613 
L 368.207037 257.613 
L 372.306211 257.613 
L 376.405384 257.613 
L 380.504558 257.613 
L 384.603731 257.613 
L 388.702905 257.613 
L 392.802079 257.613 
L 396.901252 257.613 
L 401.000426 257.613 
L 405.099599 257.613 
L 409.198773 257.613 
L 413.297946 257.613 
L 417.39712 257.613 
L 421.496293 257.613 
L 425.595467 257.613 
L 429.69464 257.613 
L 433.793814 257.613 
L 437.892988 257.613 
L 441.992161 257.613 
L 446.091335 257.613 
L 450.190508 257.613 
L 454.289682 257.613 
L 458.388855 257.613 
L 462.488029 257.613 
L 466.587202 257.613 
L 470.686376 257.613 
L 474.78555 257.613 
L 478.884723 257.613 
L 482.983897 257.613 
L 487.08307 257.613 
L 491.182244 257.613 
L 495.281417 257.613 
L 499.380591 47.949 
" clip-path="url(#p812db9a743)" style="fill: none; stroke: #008000; stroke-width: 3; stroke-linecap: square"/>
   </g>
   <g id="line2d_16">
    <path d="M 93.562409 451.149 
L 499.380591 47.949 
" clip-path="url(#p812db9a743)" style="fill: none; stroke-dasharray: 11.1,4.8; stroke-dashoffset: 0; stroke: #000000; stroke-opacity: 0.5; stroke-width: 3"/>
   </g>
   <g id="patch_3">
    <path d="M 73.2715 471.309 
L 73.2715 27.789 
" style="fill: none; stroke: #000000; stroke-width: 2.5; stroke-linejoin: miter; stroke-linecap: square"/>
   </g>
   <g id="patch_4">
    <path d="M 519.6715 471.309 
L 519.6715 27.789 
" style="fill: none; stroke: #000000; stroke-width: 2.5; stroke-linejoin: miter; stroke-linecap: square"/>
   </g>
   <g id="patch_5">
    <path d="M 73.2715 471.309 
L 519.6715 471.309 
" style="fill: none; stroke: #000000; stroke-width: 2.5; stroke-linejoin: miter; stroke-linecap: square"/>
   </g>
   <g id="patch_6">
    <path d="M 73.2715 27.789 
L 519.6715 27.789 
" style="fill: none; stroke: #000000; stroke-width: 2.5; stroke-linejoin: miter; stroke-linecap: square"/>
   </g>
   <g id="text_15">
    <!-- Approach CDT_DI_FI_OHE_LIVE_MONTH_18 -->
    <g transform="translate(90.5005 21.789) scale(0.192 -0.192)">
     <defs>
      <path id="DejaVuSans-41" d="M 2188 4044 
L 1331 1722 
L 3047 1722 
L 2188 4044 
z
M 1831 4666 
L 2547 4666 
L 4325 0 
L 3669 0 
L 3244 1197 
L 1141 1197 
L 716 0 
L 50 0 
L 1831 4666 
z
" transform="scale(0.015625)"/>
      <path id="DejaVuSans-70" d="M 1159 525 
L 1159 -1331 
L 581 -1331 
L 581 3500 
L 1159 3500 
L 1159 2969 
Q 1341 3281 1617 3432 
Q 1894 3584 2278 3584 
Q 2916 3584 3314 3078 
Q 3713 2572 3713 1747 
Q 3713 922 3314 415 
Q 2916 -91 2278 -91 
Q 1894 -91 1617 61 
Q 1341 213 1159 525 
z
M 3116 1747 
Q 3116 2381 2855 2742 
Q 2594 3103 2138 3103 
Q 1681 3103 1420 2742 
Q 1159 2381 1159 1747 
Q 1159 1113 1420 752 
Q 1681 391 2138 391 
Q 2594 391 2855 752 
Q 3116 1113 3116 1747 
z
" transform="scale(0.015625)"/>
      <path id="DejaVuSans-63" d="M 3122 3366 
L 3122 2828 
Q 2878 2963 2633 3030 
Q 2388 3097 2138 3097 
Q 1578 3097 1268 2742 
Q 959 2388 959 1747 
Q 959 1106 1268 751 
Q 1578 397 2138 397 
Q 2388 397 2633 464 
Q 2878 531 3122 666 
L 3122 134 
Q 2881 22 2623 -34 
Q 2366 -91 2075 -91 
Q 1284 -91 818 406 
Q 353 903 353 1747 
Q 353 2603 823 3093 
Q 1294 3584 2113 3584 
Q 2378 3584 2631 3529 
Q 2884 3475 3122 3366 
z
" transform="scale(0.015625)"/>
      <path id="DejaVuSans-68" d="M 3513 2113 
L 3513 0 
L 2938 0 
L 2938 2094 
Q 2938 2591 2744 2837 
Q 2550 3084 2163 3084 
Q 1697 3084 1428 2787 
Q 1159 2491 1159 1978 
L 1159 0 
L 581 0 
L 581 4863 
L 1159 4863 
L 1159 2956 
Q 1366 3272 1645 3428 
Q 1925 3584 2291 3584 
Q 2894 3584 3203 3211 
Q 3513 2838 3513 2113 
z
" transform="scale(0.015625)"/>
      <path id="DejaVuSans-43" d="M 4122 4306 
L 4122 3641 
Q 3803 3938 3442 4084 
Q 3081 4231 2675 4231 
Q 1875 4231 1450 3742 
Q 1025 3253 1025 2328 
Q 1025 1406 1450 917 
Q 1875 428 2675 428 
Q 3081 428 3442 575 
Q 3803 722 4122 1019 
L 4122 359 
Q 3791 134 3420 21 
Q 3050 -91 2638 -91 
Q 1578 -91 968 557 
Q 359 1206 359 2328 
Q 359 3453 968 4101 
Q 1578 4750 2638 4750 
Q 3056 4750 3426 4639 
Q 3797 4528 4122 4306 
z
" transform="scale(0.015625)"/>
      <path id="DejaVuSans-44" d="M 1259 4147 
L 1259 519 
L 2022 519 
Q 2988 519 3436 956 
Q 3884 1394 3884 2338 
Q 3884 3275 3436 3711 
Q 2988 4147 2022 4147 
L 1259 4147 
z
M 628 4666 
L 1925 4666 
Q 3281 4666 3915 4102 
Q 4550 3538 4550 2338 
Q 4550 1131 3912 565 
Q 3275 0 1925 0 
L 628 0 
L 628 4666 
z
" transform="scale(0.015625)"/>
      <path id="DejaVuSans-5f" d="M 3263 -1063 
L 3263 -1509 
L -63 -1509 
L -63 -1063 
L 3263 -1063 
z
" transform="scale(0.015625)"/>
      <path id="DejaVuSans-49" d="M 628 4666 
L 1259 4666 
L 1259 0 
L 628 0 
L 628 4666 
z
" transform="scale(0.015625)"/>
      <path id="DejaVuSans-4f" d="M 2522 4238 
Q 1834 4238 1429 3725 
Q 1025 3213 1025 2328 
Q 1025 1447 1429 934 
Q 1834 422 2522 422 
Q 3209 422 3611 934 
Q 4013 1447 4013 2328 
Q 4013 3213 3611 3725 
Q 3209 4238 2522 4238 
z
M 2522 4750 
Q 3503 4750 4090 4092 
Q 4678 3434 4678 2328 
Q 4678 1225 4090 567 
Q 3503 -91 2522 -91 
Q 1538 -91 948 565 
Q 359 1222 359 2328 
Q 359 3434 948 4092 
Q 1538 4750 2522 4750 
z
" transform="scale(0.015625)"/>
      <path id="DejaVuSans-48" d="M 628 4666 
L 1259 4666 
L 1259 2753 
L 3553 2753 
L 3553 4666 
L 4184 4666 
L 4184 0 
L 3553 0 
L 3553 2222 
L 1259 2222 
L 1259 0 
L 628 0 
L 628 4666 
z
" transform="scale(0.015625)"/>
      <path id="DejaVuSans-45" d="M 628 4666 
L 3578 4666 
L 3578 4134 
L 1259 4134 
L 1259 2753 
L 3481 2753 
L 3481 2222 
L 1259 2222 
L 1259 531 
L 3634 531 
L 3634 0 
L 628 0 
L 628 4666 
z
" transform="scale(0.015625)"/>
      <path id="DejaVuSans-4c" d="M 628 4666 
L 1259 4666 
L 1259 531 
L 3531 531 
L 3531 0 
L 628 0 
L 628 4666 
z
" transform="scale(0.015625)"/>
      <path id="DejaVuSans-56" d="M 1831 0 
L 50 4666 
L 709 4666 
L 2188 738 
L 3669 4666 
L 4325 4666 
L 2547 0 
L 1831 0 
z
" transform="scale(0.015625)"/>
      <path id="DejaVuSans-4d" d="M 628 4666 
L 1569 4666 
L 2759 1491 
L 3956 4666 
L 4897 4666 
L 4897 0 
L 4281 0 
L 4281 4097 
L 3078 897 
L 2444 897 
L 1241 4097 
L 1241 0 
L 628 0 
L 628 4666 
z
" transform="scale(0.015625)"/>
      <path id="DejaVuSans-4e" d="M 628 4666 
L 1478 4666 
L 3547 763 
L 3547 4666 
L 4159 4666 
L 4159 0 
L 3309 0 
L 1241 3903 
L 1241 0 
L 628 0 
L 628 4666 
z
" transform="scale(0.015625)"/>
     </defs>
     <use xlink:href="#DejaVuSans-41"/>
     <use xlink:href="#DejaVuSans-70" x="68.408203"/>
     <use xlink:href="#DejaVuSans-70" x="131.884766"/>
     <use xlink:href="#DejaVuSans-72" x="195.361328"/>
     <use xlink:href="#DejaVuSans-6f" x="234.224609"/>
     <use xlink:href="#DejaVuSans-61" x="295.40625"/>
     <use xlink:href="#DejaVuSans-63" x="356.685547"/>
     <use xlink:href="#DejaVuSans-68" x="411.666016"/>
     <use xlink:href="#DejaVuSans-20" x="475.044922"/>
     <use xlink:href="#DejaVuSans-43" x="506.832031"/>
     <use xlink:href="#DejaVuSans-44" x="576.65625"/>
     <use xlink:href="#DejaVuSans-54" x="653.658203"/>
     <use xlink:href="#DejaVuSans-5f" x="714.742188"/>
     <use xlink:href="#DejaVuSans-44" x="764.742188"/>
     <use xlink:href="#DejaVuSans-49" x="841.744141"/>
     <use xlink:href="#DejaVuSans-5f" x="871.236328"/>
     <use xlink:href="#DejaVuSans-46" x="921.236328"/>
     <use xlink:href="#DejaVuSans-49" x="978.755859"/>
     <use xlink:href="#DejaVuSans-5f" x="1008.248047"/>
     <use xlink:href="#DejaVuSans-4f" x="1058.248047"/>
     <use xlink:href="#DejaVuSans-48" x="1136.958984"/>
     <use xlink:href="#DejaVuSans-45" x="1212.154297"/>
     <use xlink:href="#DejaVuSans-5f" x="1275.337891"/>
     <use xlink:href="#DejaVuSans-4c" x="1325.337891"/>
     <use xlink:href="#DejaVuSans-49" x="1381.050781"/>
     <use xlink:href="#DejaVuSans-56" x="1410.542969"/>
     <use xlink:href="#DejaVuSans-45" x="1478.951172"/>
     <use xlink:href="#DejaVuSans-5f" x="1542.134766"/>
     <use xlink:href="#DejaVuSans-4d" x="1592.134766"/>
     <use xlink:href="#DejaVuSans-4f" x="1678.414062"/>
     <use xlink:href="#DejaVuSans-4e" x="1757.125"/>
     <use xlink:href="#DejaVuSans-54" x="1831.929688"/>
     <use xlink:href="#DejaVuSans-48" x="1893.013672"/>
     <use xlink:href="#DejaVuSans-5f" x="1968.208984"/>
     <use xlink:href="#DejaVuSans-31" x="2018.208984"/>
     <use xlink:href="#DejaVuSans-38" x="2081.832031"/>
    </g>
   </g>
   <g id="legend_1">
    <g id="patch_7">
     <path d="M 85.5915 119.3695 
L 231.01975 119.3695 
Q 234.53975 119.3695 234.53975 115.8495 
L 234.53975 40.109 
Q 234.53975 36.589 231.01975 36.589 
L 85.5915 36.589 
Q 82.0715 36.589 82.0715 40.109 
L 82.0715 115.8495 
Q 82.0715 119.3695 85.5915 119.3695 
z
" style="fill: #ffffff; opacity: 0.8; stroke: #cccccc; stroke-width: 2; stroke-linejoin: miter"/>
    </g>
    <g id="line2d_17">
     <path d="M 89.1115 50.84225 
L 106.7115 50.84225 
L 124.3115 50.84225 
" style="fill: none; stroke: #ffa500; stroke-width: 3; stroke-linecap: square"/>
    </g>
    <g id="text_16">
     <!-- LR: 0.55 -->
     <g transform="translate(138.3915 57.00225) scale(0.176 -0.176)">
      <defs>
       <path id="DejaVuSans-3a" d="M 750 794 
L 1409 794 
L 1409 0 
L 750 0 
L 750 794 
z
M 750 3309 
L 1409 3309 
L 1409 2516 
L 750 2516 
L 750 3309 
z
" transform="scale(0.015625)"/>
       <path id="DejaVuSans-35" d="M 691 4666 
L 3169 4666 
L 3169 4134 
L 1269 4134 
L 1269 2991 
Q 1406 3038 1543 3061 
Q 1681 3084 1819 3084 
Q 2600 3084 3056 2656 
Q 3513 2228 3513 1497 
Q 3513 744 3044 326 
Q 2575 -91 1722 -91 
Q 1428 -91 1123 -41 
Q 819 9 494 109 
L 494 744 
Q 775 591 1075 516 
Q 1375 441 1709 441 
Q 2250 441 2565 725 
Q 2881 1009 2881 1497 
Q 2881 1984 2565 2268 
Q 2250 2553 1709 2553 
Q 1456 2553 1204 2497 
Q 953 2441 691 2322 
L 691 4666 
z
" transform="scale(0.015625)"/>
      </defs>
      <use xlink:href="#DejaVuSans-4c"/>
      <use xlink:href="#DejaVuSans-52" x="55.712891"/>
      <use xlink:href="#DejaVuSans-3a" x="122.070312"/>
      <use xlink:href="#DejaVuSans-20" x="155.761719"/>
      <use xlink:href="#DejaVuSans-30" x="187.548828"/>
      <use xlink:href="#DejaVuSans-2e" x="251.171875"/>
      <use xlink:href="#DejaVuSans-35" x="282.958984"/>
      <use xlink:href="#DejaVuSans-35" x="346.582031"/>
     </g>
    </g>
    <g id="line2d_18">
     <path d="M 89.1115 76.67575 
L 106.7115 76.67575 
L 124.3115 76.67575 
" style="fill: none; stroke: #0000ff; stroke-width: 3; stroke-linecap: square"/>
    </g>
    <g id="text_17">
     <!-- RF: 0.55 -->
     <g transform="translate(138.3915 82.83575) scale(0.176 -0.176)">
      <use xlink:href="#DejaVuSans-52"/>
      <use xlink:href="#DejaVuSans-46" x="69.482422"/>
      <use xlink:href="#DejaVuSans-3a" x="119.251953"/>
      <use xlink:href="#DejaVuSans-20" x="152.943359"/>
      <use xlink:href="#DejaVuSans-30" x="184.730469"/>
      <use xlink:href="#DejaVuSans-2e" x="248.353516"/>
      <use xlink:href="#DejaVuSans-35" x="280.140625"/>
      <use xlink:href="#DejaVuSans-35" x="343.763672"/>
     </g>
    </g>
    <g id="line2d_19">
     <path d="M 89.1115 102.50925 
L 106.7115 102.50925 
L 124.3115 102.50925 
" style="fill: none; stroke: #008000; stroke-width: 3; stroke-linecap: square"/>
    </g>
    <g id="text_18">
     <!-- SVM: 0.43 -->
     <g transform="translate(138.3915 108.66925) scale(0.176 -0.176)">
      <defs>
       <path id="DejaVuSans-53" d="M 3425 4513 
L 3425 3897 
Q 3066 4069 2747 4153 
Q 2428 4238 2131 4238 
Q 1616 4238 1336 4038 
Q 1056 3838 1056 3469 
Q 1056 3159 1242 3001 
Q 1428 2844 1947 2747 
L 2328 2669 
Q 3034 2534 3370 2195 
Q 3706 1856 3706 1288 
Q 3706 609 3251 259 
Q 2797 -91 1919 -91 
Q 1588 -91 1214 -16 
Q 841 59 441 206 
L 441 856 
Q 825 641 1194 531 
Q 1563 422 1919 422 
Q 2459 422 2753 634 
Q 3047 847 3047 1241 
Q 3047 1584 2836 1778 
Q 2625 1972 2144 2069 
L 1759 2144 
Q 1053 2284 737 2584 
Q 422 2884 422 3419 
Q 422 4038 858 4394 
Q 1294 4750 2059 4750 
Q 2388 4750 2728 4690 
Q 3069 4631 3425 4513 
z
" transform="scale(0.015625)"/>
       <path id="DejaVuSans-33" d="M 2597 2516 
Q 3050 2419 3304 2112 
Q 3559 1806 3559 1356 
Q 3559 666 3084 287 
Q 2609 -91 1734 -91 
Q 1441 -91 1130 -33 
Q 819 25 488 141 
L 488 750 
Q 750 597 1062 519 
Q 1375 441 1716 441 
Q 2309 441 2620 675 
Q 2931 909 2931 1356 
Q 2931 1769 2642 2001 
Q 2353 2234 1838 2234 
L 1294 2234 
L 1294 2753 
L 1863 2753 
Q 2328 2753 2575 2939 
Q 2822 3125 2822 3475 
Q 2822 3834 2567 4026 
Q 2313 4219 1838 4219 
Q 1578 4219 1281 4162 
Q 984 4106 628 3988 
L 628 4550 
Q 988 4650 1302 4700 
Q 1616 4750 1894 4750 
Q 2613 4750 3031 4423 
Q 3450 4097 3450 3541 
Q 3450 3153 3228 2886 
Q 3006 2619 2597 2516 
z
" transform="scale(0.015625)"/>
      </defs>
      <use xlink:href="#DejaVuSans-53"/>
      <use xlink:href="#DejaVuSans-56" x="63.476562"/>
      <use xlink:href="#DejaVuSans-4d" x="131.884766"/>
      <use xlink:href="#DejaVuSans-3a" x="218.164062"/>
      <use xlink:href="#DejaVuSans-20" x="251.855469"/>
      <use xlink:href="#DejaVuSans-30" x="283.642578"/>
      <use xlink:href="#DejaVuSans-2e" x="347.265625"/>
      <use xlink:href="#DejaVuSans-34" x="379.052734"/>
      <use xlink:href="#DejaVuSans-33" x="442.675781"/>
     </g>
    </g>
   </g>
  </g>
 </g>
 <defs>
  <clipPath id="p812db9a743">
   <rect x="73.2715" y="27.789" width="446.4" height="443.52"/>
  </clipPath>
 </defs>
</svg>
