<?xml version="1.0" encoding="utf-8" standalone="no"?>
<!DOCTYPE svg PUBLIC "-//W3C//DTD SVG 1.1//EN"
  "http://www.w3.org/Graphics/SVG/1.1/DTD/svg11.dtd">
<svg xmlns:xlink="http://www.w3.org/1999/xlink" width="973.2715pt" height="533.6245pt" viewBox="0 0 973.2715 533.6245" xmlns="http://www.w3.org/2000/svg" version="1.1">
 <metadata>
  <rdf:RDF xmlns:dc="http://purl.org/dc/elements/1.1/" xmlns:cc="http://creativecommons.org/ns#" xmlns:rdf="http://www.w3.org/1999/02/22-rdf-syntax-ns#">
   <cc:Work>
    <dc:type rdf:resource="http://purl.org/dc/dcmitype/StillImage"/>
    <dc:date>2023-05-11T17:16:08.632492</dc:date>
    <dc:format>image/svg+xml</dc:format>
    <dc:creator>
     <cc:Agent>
      <dc:title>Matplotlib v3.6.2, https://matplotlib.org/</dc:title>
     </cc:Agent>
    </dc:creator>
   </cc:Work>
  </rdf:RDF>
 </metadata>
 <defs>
  <style type="text/css">*{stroke-linejoin: round; stroke-linecap: butt}</style>
 </defs>
 <g id="figure_1">
  <g id="patch_1">
   <path d="M 0 533.6245 
L 973.2715 533.6245 
L 973.2715 0 
L 0 0 
z
" style="fill: #ffffff"/>
  </g>
  <g id="axes_1">
   <g id="patch_2">
    <path d="M 73.2715 471.309 
L 479.089682 471.309 
L 479.089682 27.789 
L 73.2715 27.789 
z
" style="fill: #ffffff"/>
   </g>
   <g id="PolyCollection_1">
    <defs>
     <path id="mc400b14b62" d="M 91.717781 -82.4755 
L 91.717781 -82.4755 
L 95.444302 -82.4755 
L 99.170824 -82.4755 
L 102.897345 -82.4755 
L 106.623867 -82.4755 
L 110.350388 -82.4755 
L 114.076909 -82.4755 
L 117.803431 -82.4755 
L 121.529952 -82.4755 
L 125.256474 -82.4755 
L 128.982995 -82.4755 
L 132.709517 -82.4755 
L 136.436038 -82.4755 
L 140.162559 -82.4755 
L 143.889081 -82.4755 
L 147.615602 -82.4755 
L 151.342124 -82.4755 
L 155.068645 -82.4755 
L 158.795166 -82.4755 
L 162.521688 -82.4755 
L 166.248209 -82.4755 
L 169.974731 -82.4755 
L 173.701252 -82.4755 
L 177.427773 -82.4755 
L 181.154295 -82.4755 
L 184.880816 -127.2755 
L 188.607338 -127.2755 
L 192.333859 -127.2755 
L 196.060381 -127.2755 
L 199.786902 -127.2755 
L 203.513423 -127.2755 
L 207.239945 -127.2755 
L 210.966466 -127.2755 
L 214.692988 -127.2755 
L 218.419509 -127.2755 
L 222.14603 -127.2755 
L 225.872552 -127.2755 
L 229.599073 -127.2755 
L 233.325595 -127.2755 
L 237.052116 -127.2755 
L 240.778637 -172.0755 
L 244.505159 -172.0755 
L 248.23168 -172.0755 
L 251.958202 -172.0755 
L 255.684723 -172.0755 
L 259.411245 -172.0755 
L 263.137766 -172.0755 
L 266.864287 -172.0755 
L 270.590809 -172.0755 
L 274.31733 -172.0755 
L 278.043852 -172.0755 
L 281.770373 -172.0755 
L 285.496894 -172.0755 
L 289.223416 -172.0755 
L 292.949937 -172.0755 
L 296.676459 -172.0755 
L 300.40298 -172.0755 
L 304.129502 -172.0755 
L 307.856023 -172.0755 
L 311.582544 -172.0755 
L 315.309066 -324.3955 
L 319.035587 -324.3955 
L 322.762109 -324.3955 
L 326.48863 -324.3955 
L 330.215151 -324.3955 
L 333.941673 -324.3955 
L 337.668194 -324.3955 
L 341.394716 -324.3955 
L 345.121237 -324.3955 
L 348.847758 -324.3955 
L 352.57428 -324.3955 
L 356.300801 -324.3955 
L 360.027323 -324.3955 
L 363.753844 -324.3955 
L 367.480366 -324.3955 
L 371.206887 -351.2755 
L 374.933408 -351.2755 
L 378.65993 -351.2755 
L 382.386451 -351.2755 
L 386.112973 -351.2755 
L 389.839494 -364.7155 
L 393.566015 -364.7155 
L 397.292537 -364.7155 
L 401.019058 -364.7155 
L 404.74558 -364.7155 
L 408.472101 -364.7155 
L 412.198622 -364.7155 
L 415.925144 -364.7155 
L 419.651665 -364.7155 
L 423.378187 -364.7155 
L 427.104708 -364.7155 
L 430.83123 -364.7155 
L 434.557751 -364.7155 
L 438.284272 -364.7155 
L 442.010794 -364.7155 
L 445.737315 -364.7155 
L 449.463837 -364.7155 
L 453.190358 -364.7155 
L 456.916879 -364.7155 
L 460.643401 -485.6755 
L 460.643401 -485.6755 
L 460.643401 -485.6755 
L 456.916879 -485.6755 
L 453.190358 -485.6755 
L 449.463837 -485.6755 
L 445.737315 -485.6755 
L 442.010794 -485.6755 
L 438.284272 -485.6755 
L 434.557751 -485.6755 
L 430.83123 -485.6755 
L 427.104708 -485.6755 
L 423.378187 -485.6755 
L 419.651665 -485.6755 
L 415.925144 -485.6755 
L 412.198622 -485.6755 
L 408.472101 -485.6755 
L 404.74558 -485.6755 
L 401.019058 -485.6755 
L 397.292537 -485.6755 
L 393.566015 -485.6755 
L 389.839494 -485.6755 
L 386.112973 -485.6755 
L 382.386451 -485.6755 
L 378.65993 -485.6755 
L 374.933408 -485.6755 
L 371.206887 -485.6755 
L 367.480366 -485.6755 
L 363.753844 -485.6755 
L 360.027323 -485.6755 
L 356.300801 -485.6755 
L 352.57428 -485.6755 
L 348.847758 -485.6755 
L 345.121237 -485.6755 
L 341.394716 -485.6755 
L 337.668194 -485.6755 
L 333.941673 -485.6755 
L 330.215151 -485.6755 
L 326.48863 -485.6755 
L 322.762109 -485.6755 
L 319.035587 -485.6755 
L 315.309066 -485.6755 
L 311.582544 -485.6755 
L 307.856023 -485.6755 
L 304.129502 -485.6755 
L 300.40298 -485.6755 
L 296.676459 -485.6755 
L 292.949937 -485.6755 
L 289.223416 -485.6755 
L 285.496894 -485.6755 
L 281.770373 -485.6755 
L 278.043852 -485.6755 
L 274.31733 -485.6755 
L 270.590809 -485.6755 
L 266.864287 -485.6755 
L 263.137766 -485.6755 
L 259.411245 -485.6755 
L 255.684723 -485.6755 
L 251.958202 -485.6755 
L 248.23168 -485.6755 
L 244.505159 -485.6755 
L 240.778637 -485.6755 
L 237.052116 -440.8755 
L 233.325595 -440.8755 
L 229.599073 -440.8755 
L 225.872552 -440.8755 
L 222.14603 -440.8755 
L 218.419509 -440.8755 
L 214.692988 -440.8755 
L 210.966466 -440.8755 
L 207.239945 -440.8755 
L 203.513423 -440.8755 
L 199.786902 -440.8755 
L 196.060381 -440.8755 
L 192.333859 -440.8755 
L 188.607338 -440.8755 
L 184.880816 -440.8755 
L 181.154295 -440.8755 
L 177.427773 -440.8755 
L 173.701252 -440.8755 
L 169.974731 -440.8755 
L 166.248209 -440.8755 
L 162.521688 -324.3955 
L 158.795166 -324.3955 
L 155.068645 -324.3955 
L 151.342124 -324.3955 
L 147.615602 -324.3955 
L 143.889081 -324.3955 
L 140.162559 -324.3955 
L 136.436038 -324.3955 
L 132.709517 -324.3955 
L 128.982995 -324.3955 
L 125.256474 -324.3955 
L 121.529952 -324.3955 
L 117.803431 -324.3955 
L 114.076909 -324.3955 
L 110.350388 -324.3955 
L 106.623867 -324.3955 
L 102.897345 -324.3955 
L 99.170824 -324.3955 
L 95.444302 -324.3955 
L 91.717781 -82.4755 
z
" style="stroke: #ffa500; stroke-opacity: 0.2; stroke-width: 2"/>
    </defs>
    <g clip-path="url(#pa7261075c2)">
     <use xlink:href="#mc400b14b62" x="0" y="533.6245" style="fill: #ffa500; fill-opacity: 0.2; stroke: #ffa500; stroke-opacity: 0.2; stroke-width: 2"/>
    </g>
   </g>
   <g id="PolyCollection_2">
    <defs>
     <path id="md85cb9d901" d="M 91.717781 -82.4755 
L 91.717781 -82.4755 
L 95.444302 -127.682773 
L 99.170824 -132.570045 
L 102.897345 -137.457318 
L 106.623867 -142.344591 
L 110.350388 -147.231864 
L 114.076909 -152.119136 
L 117.803431 -157.006409 
L 121.529952 -161.893682 
L 125.256474 -166.780955 
L 128.982995 -171.668227 
L 132.709517 -176.5555 
L 136.436038 -181.442773 
L 140.162559 -186.103783 
L 143.889081 -190.629035 
L 147.615602 -195.154288 
L 151.342124 -199.67954 
L 155.068645 -203.4355 
L 158.795166 -203.4355 
L 162.521688 -203.4355 
L 166.248209 -203.4355 
L 169.974731 -203.4355 
L 173.701252 -203.4355 
L 177.427773 -203.4355 
L 181.154295 -203.4355 
L 184.880816 -261.6755 
L 188.607338 -261.6755 
L 192.333859 -261.6755 
L 196.060381 -261.6755 
L 199.786902 -261.6755 
L 203.513423 -261.6755 
L 207.239945 -261.6755 
L 210.966466 -261.6755 
L 214.692988 -261.6755 
L 218.419509 -261.6755 
L 222.14603 -261.6755 
L 225.872552 -261.6755 
L 229.599073 -261.6755 
L 233.325595 -261.6755 
L 237.052116 -261.6755 
L 240.778637 -306.928025 
L 244.505159 -308.059338 
L 248.23168 -309.190652 
L 251.958202 -310.321965 
L 255.684723 -311.453278 
L 259.411245 -312.584591 
L 263.137766 -313.715904 
L 266.864287 -314.847217 
L 270.590809 -315.97853 
L 274.31733 -317.109843 
L 278.043852 -318.241157 
L 281.770373 -319.37247 
L 285.496894 -320.503783 
L 289.223416 -321.635096 
L 292.949937 -322.766409 
L 296.676459 -323.897722 
L 300.40298 -325.029035 
L 304.129502 -326.160348 
L 307.856023 -327.291662 
L 311.582544 -328.422975 
L 315.309066 -329.554288 
L 319.035587 -330.685601 
L 322.762109 -331.816914 
L 326.48863 -332.948227 
L 330.215151 -334.07954 
L 333.941673 -335.210854 
L 337.668194 -336.342167 
L 341.394716 -337.47348 
L 345.121237 -338.604793 
L 348.847758 -339.736106 
L 352.57428 -340.867419 
L 356.300801 -341.998732 
L 360.027323 -343.130045 
L 363.753844 -344.261359 
L 367.480366 -345.392672 
L 371.206887 -346.523985 
L 374.933408 -347.655298 
L 378.65993 -348.786611 
L 382.386451 -349.917924 
L 386.112973 -351.049237 
L 389.839494 -440.8755 
L 393.566015 -440.8755 
L 397.292537 -440.8755 
L 401.019058 -440.8755 
L 404.74558 -440.8755 
L 408.472101 -440.8755 
L 412.198622 -440.8755 
L 415.925144 -440.8755 
L 419.651665 -440.8755 
L 423.378187 -440.8755 
L 427.104708 -440.8755 
L 430.83123 -440.8755 
L 434.557751 -440.8755 
L 438.284272 -440.8755 
L 442.010794 -440.8755 
L 445.737315 -440.8755 
L 449.463837 -440.8755 
L 453.190358 -440.8755 
L 456.916879 -440.8755 
L 460.643401 -485.6755 
L 460.643401 -485.6755 
L 460.643401 -485.6755 
L 456.916879 -485.6755 
L 453.190358 -485.6755 
L 449.463837 -485.6755 
L 445.737315 -485.6755 
L 442.010794 -485.6755 
L 438.284272 -485.6755 
L 434.557751 -485.6755 
L 430.83123 -485.6755 
L 427.104708 -485.6755 
L 423.378187 -485.6755 
L 419.651665 -485.6755 
L 415.925144 -485.6755 
L 412.198622 -485.6755 
L 408.472101 -485.6755 
L 404.74558 -485.6755 
L 401.019058 -485.6755 
L 397.292537 -485.6755 
L 393.566015 -485.6755 
L 389.839494 -485.6755 
L 386.112973 -485.6755 
L 382.386451 -485.6755 
L 378.65993 -485.6755 
L 374.933408 -485.6755 
L 371.206887 -485.6755 
L 367.480366 -485.6755 
L 363.753844 -485.6755 
L 360.027323 -485.6755 
L 356.300801 -485.6755 
L 352.57428 -485.6755 
L 348.847758 -485.6755 
L 345.121237 -485.6755 
L 341.394716 -485.6755 
L 337.668194 -485.6755 
L 333.941673 -485.6755 
L 330.215151 -485.6755 
L 326.48863 -485.6755 
L 322.762109 -485.6755 
L 319.035587 -485.6755 
L 315.309066 -485.6755 
L 311.582544 -485.6755 
L 307.856023 -485.6755 
L 304.129502 -485.6755 
L 300.40298 -485.6755 
L 296.676459 -485.6755 
L 292.949937 -485.6755 
L 289.223416 -485.6755 
L 285.496894 -485.6755 
L 281.770373 -485.6755 
L 278.043852 -485.6755 
L 274.31733 -485.6755 
L 270.590809 -485.6755 
L 266.864287 -485.6755 
L 263.137766 -485.6755 
L 259.411245 -485.6755 
L 255.684723 -485.6755 
L 251.958202 -485.6755 
L 248.23168 -485.6755 
L 244.505159 -485.6755 
L 240.778637 -485.6755 
L 237.052116 -485.6755 
L 233.325595 -485.6755 
L 229.599073 -485.6755 
L 225.872552 -485.6755 
L 222.14603 -485.6755 
L 218.419509 -485.6755 
L 214.692988 -485.6755 
L 210.966466 -485.6755 
L 207.239945 -485.6755 
L 203.513423 -485.6755 
L 199.786902 -485.6755 
L 196.060381 -485.6755 
L 192.333859 -485.6755 
L 188.607338 -485.6755 
L 184.880816 -485.6755 
L 181.154295 -485.6755 
L 177.427773 -485.6755 
L 173.701252 -485.6755 
L 169.974731 -485.6755 
L 166.248209 -485.6755 
L 162.521688 -485.6755 
L 158.795166 -485.6755 
L 155.068645 -485.6755 
L 151.342124 -485.6755 
L 147.615602 -485.6755 
L 143.889081 -485.6755 
L 140.162559 -485.6755 
L 136.436038 -485.6755 
L 132.709517 -485.6755 
L 128.982995 -485.6755 
L 125.256474 -485.6755 
L 121.529952 -485.6755 
L 117.803431 -485.6755 
L 114.076909 -485.6755 
L 110.350388 -485.6755 
L 106.623867 -485.6755 
L 102.897345 -485.6755 
L 99.170824 -485.6755 
L 95.444302 -485.6755 
L 91.717781 -82.4755 
z
" style="stroke: #0000ff; stroke-opacity: 0.2; stroke-width: 2"/>
    </defs>
    <g clip-path="url(#pa7261075c2)">
     <use xlink:href="#md85cb9d901" x="0" y="533.6245" style="fill: #0000ff; fill-opacity: 0.2; stroke: #0000ff; stroke-opacity: 0.2; stroke-width: 2"/>
    </g>
   </g>
   <g id="PolyCollection_3">
    <defs>
     <path id="mbd6eac9029" d="M 91.717781 -82.4755 
L 91.717781 -82.4755 
L 95.444302 -82.4755 
L 99.170824 -82.4755 
L 102.897345 -82.4755 
L 106.623867 -82.4755 
L 110.350388 -82.4755 
L 114.076909 -82.4755 
L 117.803431 -82.4755 
L 121.529952 -82.4755 
L 125.256474 -82.4755 
L 128.982995 -82.4755 
L 132.709517 -82.4755 
L 136.436038 -82.4755 
L 140.162559 -82.4755 
L 143.889081 -82.4755 
L 147.615602 -82.4755 
L 151.342124 -82.4755 
L 155.068645 -82.4755 
L 158.795166 -82.4755 
L 162.521688 -82.4755 
L 166.248209 -82.4755 
L 169.974731 -82.4755 
L 173.701252 -82.4755 
L 177.427773 -82.4755 
L 181.154295 -82.4755 
L 184.880816 -82.4755 
L 188.607338 -82.4755 
L 192.333859 -82.4755 
L 196.060381 -82.4755 
L 199.786902 -82.4755 
L 203.513423 -82.4755 
L 207.239945 -82.4755 
L 210.966466 -82.4755 
L 214.692988 -82.4755 
L 218.419509 -82.4755 
L 222.14603 -82.4755 
L 225.872552 -82.4755 
L 229.599073 -82.4755 
L 233.325595 -82.4755 
L 237.052116 -82.4755 
L 240.778637 -127.2755 
L 244.505159 -127.2755 
L 248.23168 -127.2755 
L 251.958202 -127.2755 
L 255.684723 -127.2755 
L 259.411245 -127.2755 
L 263.137766 -127.2755 
L 266.864287 -127.2755 
L 270.590809 -127.2755 
L 274.31733 -127.2755 
L 278.043852 -127.2755 
L 281.770373 -127.2755 
L 285.496894 -127.2755 
L 289.223416 -127.2755 
L 292.949937 -127.2755 
L 296.676459 -127.2755 
L 300.40298 -127.2755 
L 304.129502 -127.2755 
L 307.856023 -127.2755 
L 311.582544 -127.2755 
L 315.309066 -216.8755 
L 319.035587 -216.8755 
L 322.762109 -216.8755 
L 326.48863 -216.8755 
L 330.215151 -216.8755 
L 333.941673 -216.8755 
L 337.668194 -216.8755 
L 341.394716 -216.8755 
L 345.121237 -216.8755 
L 348.847758 -216.8755 
L 352.57428 -216.8755 
L 356.300801 -216.8755 
L 360.027323 -216.8755 
L 363.753844 -216.8755 
L 367.480366 -216.8755 
L 371.206887 -216.8755 
L 374.933408 -216.8755 
L 378.65993 -216.8755 
L 382.386451 -216.8755 
L 386.112973 -216.8755 
L 389.839494 -284.0755 
L 393.566015 -284.0755 
L 397.292537 -284.0755 
L 401.019058 -284.0755 
L 404.74558 -284.0755 
L 408.472101 -284.0755 
L 412.198622 -284.0755 
L 415.925144 -284.0755 
L 419.651665 -284.0755 
L 423.378187 -284.0755 
L 427.104708 -284.0755 
L 430.83123 -284.0755 
L 434.557751 -284.0755 
L 438.284272 -284.0755 
L 442.010794 -284.0755 
L 445.737315 -284.0755 
L 449.463837 -284.0755 
L 453.190358 -284.0755 
L 456.916879 -284.0755 
L 460.643401 -485.6755 
L 460.643401 -485.6755 
L 460.643401 -485.6755 
L 456.916879 -485.6755 
L 453.190358 -485.6755 
L 449.463837 -485.6755 
L 445.737315 -485.6755 
L 442.010794 -485.6755 
L 438.284272 -485.6755 
L 434.557751 -485.6755 
L 430.83123 -485.6755 
L 427.104708 -485.6755 
L 423.378187 -485.6755 
L 419.651665 -485.6755 
L 415.925144 -485.6755 
L 412.198622 -485.6755 
L 408.472101 -485.6755 
L 404.74558 -485.6755 
L 401.019058 -485.6755 
L 397.292537 -485.6755 
L 393.566015 -485.6755 
L 389.839494 -485.6755 
L 386.112973 -485.6755 
L 382.386451 -485.6755 
L 378.65993 -485.6755 
L 374.933408 -485.6755 
L 371.206887 -485.6755 
L 367.480366 -485.6755 
L 363.753844 -485.6755 
L 360.027323 -485.6755 
L 356.300801 -485.6755 
L 352.57428 -485.6755 
L 348.847758 -485.6755 
L 345.121237 -485.6755 
L 341.394716 -485.6755 
L 337.668194 -485.6755 
L 333.941673 -485.6755 
L 330.215151 -485.6755 
L 326.48863 -485.6755 
L 322.762109 -485.6755 
L 319.035587 -485.6755 
L 315.309066 -485.6755 
L 311.582544 -445.3555 
L 307.856023 -445.3555 
L 304.129502 -445.3555 
L 300.40298 -445.3555 
L 296.676459 -445.3555 
L 292.949937 -445.3555 
L 289.223416 -445.3555 
L 285.496894 -445.3555 
L 281.770373 -445.3555 
L 278.043852 -445.3555 
L 274.31733 -445.3555 
L 270.590809 -445.3555 
L 266.864287 -445.3555 
L 263.137766 -445.3555 
L 259.411245 -445.3555 
L 255.684723 -445.3555 
L 251.958202 -445.3555 
L 248.23168 -445.3555 
L 244.505159 -445.3555 
L 240.778637 -445.3555 
L 237.052116 -445.3555 
L 233.325595 -445.3555 
L 229.599073 -445.3555 
L 225.872552 -445.3555 
L 222.14603 -445.3555 
L 218.419509 -445.3555 
L 214.692988 -445.3555 
L 210.966466 -445.3555 
L 207.239945 -445.3555 
L 203.513423 -445.3555 
L 199.786902 -445.3555 
L 196.060381 -445.3555 
L 192.333859 -445.3555 
L 188.607338 -445.3555 
L 184.880816 -445.3555 
L 181.154295 -351.2755 
L 177.427773 -351.2755 
L 173.701252 -351.2755 
L 169.974731 -351.2755 
L 166.248209 -351.2755 
L 162.521688 -284.0755 
L 158.795166 -284.0755 
L 155.068645 -284.0755 
L 151.342124 -284.0755 
L 147.615602 -284.0755 
L 143.889081 -284.0755 
L 140.162559 -284.0755 
L 136.436038 -284.0755 
L 132.709517 -284.0755 
L 128.982995 -284.0755 
L 125.256474 -284.0755 
L 121.529952 -284.0755 
L 117.803431 -284.0755 
L 114.076909 -284.0755 
L 110.350388 -284.0755 
L 106.623867 -284.0755 
L 102.897345 -284.0755 
L 99.170824 -284.0755 
L 95.444302 -284.0755 
L 91.717781 -82.4755 
z
" style="stroke: #008000; stroke-opacity: 0.2; stroke-width: 2"/>
    </defs>
    <g clip-path="url(#pa7261075c2)">
     <use xlink:href="#mbd6eac9029" x="0" y="533.6245" style="fill: #008000; fill-opacity: 0.2; stroke: #008000; stroke-opacity: 0.2; stroke-width: 2"/>
    </g>
   </g>
   <g id="matplotlib.axis_1">
    <g id="xtick_1">
     <g id="line2d_1">
      <defs>
       <path id="mfdcdd3051f" d="M 0 0 
L 0 12 
" style="stroke: #000000; stroke-width: 2.5"/>
      </defs>
      <g>
       <use xlink:href="#mfdcdd3051f" x="91.717781" y="471.309" style="stroke: #000000; stroke-width: 2.5"/>
      </g>
     </g>
     <g id="text_1">
      <!-- 0.0 -->
      <g transform="translate(77.723031 500.18225) scale(0.176 -0.176)">
       <defs>
        <path id="DejaVuSans-30" d="M 2034 4250 
Q 1547 4250 1301 3770 
Q 1056 3291 1056 2328 
Q 1056 1369 1301 889 
Q 1547 409 2034 409 
Q 2525 409 2770 889 
Q 3016 1369 3016 2328 
Q 3016 3291 2770 3770 
Q 2525 4250 2034 4250 
z
M 2034 4750 
Q 2819 4750 3233 4129 
Q 3647 3509 3647 2328 
Q 3647 1150 3233 529 
Q 2819 -91 2034 -91 
Q 1250 -91 836 529 
Q 422 1150 422 2328 
Q 422 3509 836 4129 
Q 1250 4750 2034 4750 
z
" transform="scale(0.015625)"/>
        <path id="DejaVuSans-2e" d="M 684 794 
L 1344 794 
L 1344 0 
L 684 0 
L 684 794 
z
" transform="scale(0.015625)"/>
       </defs>
       <use xlink:href="#DejaVuSans-30"/>
       <use xlink:href="#DejaVuSans-2e" x="63.623047"/>
       <use xlink:href="#DejaVuSans-30" x="95.410156"/>
      </g>
     </g>
    </g>
    <g id="xtick_2">
     <g id="line2d_2">
      <g>
       <use xlink:href="#mfdcdd3051f" x="165.502905" y="471.309" style="stroke: #000000; stroke-width: 2.5"/>
      </g>
     </g>
     <g id="text_2">
      <!-- 0.2 -->
      <g transform="translate(151.508155 500.18225) scale(0.176 -0.176)">
       <defs>
        <path id="DejaVuSans-32" d="M 1228 531 
L 3431 531 
L 3431 0 
L 469 0 
L 469 531 
Q 828 903 1448 1529 
Q 2069 2156 2228 2338 
Q 2531 2678 2651 2914 
Q 2772 3150 2772 3378 
Q 2772 3750 2511 3984 
Q 2250 4219 1831 4219 
Q 1534 4219 1204 4116 
Q 875 4013 500 3803 
L 500 4441 
Q 881 4594 1212 4672 
Q 1544 4750 1819 4750 
Q 2544 4750 2975 4387 
Q 3406 4025 3406 3419 
Q 3406 3131 3298 2873 
Q 3191 2616 2906 2266 
Q 2828 2175 2409 1742 
Q 1991 1309 1228 531 
z
" transform="scale(0.015625)"/>
       </defs>
       <use xlink:href="#DejaVuSans-30"/>
       <use xlink:href="#DejaVuSans-2e" x="63.623047"/>
       <use xlink:href="#DejaVuSans-32" x="95.410156"/>
      </g>
     </g>
    </g>
    <g id="xtick_3">
     <g id="line2d_3">
      <g>
       <use xlink:href="#mfdcdd3051f" x="239.288029" y="471.309" style="stroke: #000000; stroke-width: 2.5"/>
      </g>
     </g>
     <g id="text_3">
      <!-- 0.4 -->
      <g transform="translate(225.293279 500.18225) scale(0.176 -0.176)">
       <defs>
        <path id="DejaVuSans-34" d="M 2419 4116 
L 825 1625 
L 2419 1625 
L 2419 4116 
z
M 2253 4666 
L 3047 4666 
L 3047 1625 
L 3713 1625 
L 3713 1100 
L 3047 1100 
L 3047 0 
L 2419 0 
L 2419 1100 
L 313 1100 
L 313 1709 
L 2253 4666 
z
" transform="scale(0.015625)"/>
       </defs>
       <use xlink:href="#DejaVuSans-30"/>
       <use xlink:href="#DejaVuSans-2e" x="63.623047"/>
       <use xlink:href="#DejaVuSans-34" x="95.410156"/>
      </g>
     </g>
    </g>
    <g id="xtick_4">
     <g id="line2d_4">
      <g>
       <use xlink:href="#mfdcdd3051f" x="313.073153" y="471.309" style="stroke: #000000; stroke-width: 2.5"/>
      </g>
     </g>
     <g id="text_4">
      <!-- 0.6 -->
      <g transform="translate(299.078403 500.18225) scale(0.176 -0.176)">
       <defs>
        <path id="DejaVuSans-36" d="M 2113 2584 
Q 1688 2584 1439 2293 
Q 1191 2003 1191 1497 
Q 1191 994 1439 701 
Q 1688 409 2113 409 
Q 2538 409 2786 701 
Q 3034 994 3034 1497 
Q 3034 2003 2786 2293 
Q 2538 2584 2113 2584 
z
M 3366 4563 
L 3366 3988 
Q 3128 4100 2886 4159 
Q 2644 4219 2406 4219 
Q 1781 4219 1451 3797 
Q 1122 3375 1075 2522 
Q 1259 2794 1537 2939 
Q 1816 3084 2150 3084 
Q 2853 3084 3261 2657 
Q 3669 2231 3669 1497 
Q 3669 778 3244 343 
Q 2819 -91 2113 -91 
Q 1303 -91 875 529 
Q 447 1150 447 2328 
Q 447 3434 972 4092 
Q 1497 4750 2381 4750 
Q 2619 4750 2861 4703 
Q 3103 4656 3366 4563 
z
" transform="scale(0.015625)"/>
       </defs>
       <use xlink:href="#DejaVuSans-30"/>
       <use xlink:href="#DejaVuSans-2e" x="63.623047"/>
       <use xlink:href="#DejaVuSans-36" x="95.410156"/>
      </g>
     </g>
    </g>
    <g id="xtick_5">
     <g id="line2d_5">
      <g>
       <use xlink:href="#mfdcdd3051f" x="386.858277" y="471.309" style="stroke: #000000; stroke-width: 2.5"/>
      </g>
     </g>
     <g id="text_5">
      <!-- 0.8 -->
      <g transform="translate(372.863527 500.18225) scale(0.176 -0.176)">
       <defs>
        <path id="DejaVuSans-38" d="M 2034 2216 
Q 1584 2216 1326 1975 
Q 1069 1734 1069 1313 
Q 1069 891 1326 650 
Q 1584 409 2034 409 
Q 2484 409 2743 651 
Q 3003 894 3003 1313 
Q 3003 1734 2745 1975 
Q 2488 2216 2034 2216 
z
M 1403 2484 
Q 997 2584 770 2862 
Q 544 3141 544 3541 
Q 544 4100 942 4425 
Q 1341 4750 2034 4750 
Q 2731 4750 3128 4425 
Q 3525 4100 3525 3541 
Q 3525 3141 3298 2862 
Q 3072 2584 2669 2484 
Q 3125 2378 3379 2068 
Q 3634 1759 3634 1313 
Q 3634 634 3220 271 
Q 2806 -91 2034 -91 
Q 1263 -91 848 271 
Q 434 634 434 1313 
Q 434 1759 690 2068 
Q 947 2378 1403 2484 
z
M 1172 3481 
Q 1172 3119 1398 2916 
Q 1625 2713 2034 2713 
Q 2441 2713 2670 2916 
Q 2900 3119 2900 3481 
Q 2900 3844 2670 4047 
Q 2441 4250 2034 4250 
Q 1625 4250 1398 4047 
Q 1172 3844 1172 3481 
z
" transform="scale(0.015625)"/>
       </defs>
       <use xlink:href="#DejaVuSans-30"/>
       <use xlink:href="#DejaVuSans-2e" x="63.623047"/>
       <use xlink:href="#DejaVuSans-38" x="95.410156"/>
      </g>
     </g>
    </g>
    <g id="xtick_6">
     <g id="line2d_6">
      <g>
       <use xlink:href="#mfdcdd3051f" x="460.643401" y="471.309" style="stroke: #000000; stroke-width: 2.5"/>
      </g>
     </g>
     <g id="text_6">
      <!-- 1.0 -->
      <g transform="translate(446.648651 500.18225) scale(0.176 -0.176)">
       <defs>
        <path id="DejaVuSans-31" d="M 794 531 
L 1825 531 
L 1825 4091 
L 703 3866 
L 703 4441 
L 1819 4666 
L 2450 4666 
L 2450 531 
L 3481 531 
L 3481 0 
L 794 0 
L 794 531 
z
" transform="scale(0.015625)"/>
       </defs>
       <use xlink:href="#DejaVuSans-31"/>
       <use xlink:href="#DejaVuSans-2e" x="63.623047"/>
       <use xlink:href="#DejaVuSans-30" x="95.410156"/>
      </g>
     </g>
    </g>
    <g id="text_7">
     <!-- False Positive Rate -->
     <g transform="translate(186.965091 522.4315) scale(0.192 -0.192)">
      <defs>
       <path id="DejaVuSans-46" d="M 628 4666 
L 3309 4666 
L 3309 4134 
L 1259 4134 
L 1259 2759 
L 3109 2759 
L 3109 2228 
L 1259 2228 
L 1259 0 
L 628 0 
L 628 4666 
z
" transform="scale(0.015625)"/>
       <path id="DejaVuSans-61" d="M 2194 1759 
Q 1497 1759 1228 1600 
Q 959 1441 959 1056 
Q 959 750 1161 570 
Q 1363 391 1709 391 
Q 2188 391 2477 730 
Q 2766 1069 2766 1631 
L 2766 1759 
L 2194 1759 
z
M 3341 1997 
L 3341 0 
L 2766 0 
L 2766 531 
Q 2569 213 2275 61 
Q 1981 -91 1556 -91 
Q 1019 -91 701 211 
Q 384 513 384 1019 
Q 384 1609 779 1909 
Q 1175 2209 1959 2209 
L 2766 2209 
L 2766 2266 
Q 2766 2663 2505 2880 
Q 2244 3097 1772 3097 
Q 1472 3097 1187 3025 
Q 903 2953 641 2809 
L 641 3341 
Q 956 3463 1253 3523 
Q 1550 3584 1831 3584 
Q 2591 3584 2966 3190 
Q 3341 2797 3341 1997 
z
" transform="scale(0.015625)"/>
       <path id="DejaVuSans-6c" d="M 603 4863 
L 1178 4863 
L 1178 0 
L 603 0 
L 603 4863 
z
" transform="scale(0.015625)"/>
       <path id="DejaVuSans-73" d="M 2834 3397 
L 2834 2853 
Q 2591 2978 2328 3040 
Q 2066 3103 1784 3103 
Q 1356 3103 1142 2972 
Q 928 2841 928 2578 
Q 928 2378 1081 2264 
Q 1234 2150 1697 2047 
L 1894 2003 
Q 2506 1872 2764 1633 
Q 3022 1394 3022 966 
Q 3022 478 2636 193 
Q 2250 -91 1575 -91 
Q 1294 -91 989 -36 
Q 684 19 347 128 
L 347 722 
Q 666 556 975 473 
Q 1284 391 1588 391 
Q 1994 391 2212 530 
Q 2431 669 2431 922 
Q 2431 1156 2273 1281 
Q 2116 1406 1581 1522 
L 1381 1569 
Q 847 1681 609 1914 
Q 372 2147 372 2553 
Q 372 3047 722 3315 
Q 1072 3584 1716 3584 
Q 2034 3584 2315 3537 
Q 2597 3491 2834 3397 
z
" transform="scale(0.015625)"/>
       <path id="DejaVuSans-65" d="M 3597 1894 
L 3597 1613 
L 953 1613 
Q 991 1019 1311 708 
Q 1631 397 2203 397 
Q 2534 397 2845 478 
Q 3156 559 3463 722 
L 3463 178 
Q 3153 47 2828 -22 
Q 2503 -91 2169 -91 
Q 1331 -91 842 396 
Q 353 884 353 1716 
Q 353 2575 817 3079 
Q 1281 3584 2069 3584 
Q 2775 3584 3186 3129 
Q 3597 2675 3597 1894 
z
M 3022 2063 
Q 3016 2534 2758 2815 
Q 2500 3097 2075 3097 
Q 1594 3097 1305 2825 
Q 1016 2553 972 2059 
L 3022 2063 
z
" transform="scale(0.015625)"/>
       <path id="DejaVuSans-20" transform="scale(0.015625)"/>
       <path id="DejaVuSans-50" d="M 1259 4147 
L 1259 2394 
L 2053 2394 
Q 2494 2394 2734 2622 
Q 2975 2850 2975 3272 
Q 2975 3691 2734 3919 
Q 2494 4147 2053 4147 
L 1259 4147 
z
M 628 4666 
L 2053 4666 
Q 2838 4666 3239 4311 
Q 3641 3956 3641 3272 
Q 3641 2581 3239 2228 
Q 2838 1875 2053 1875 
L 1259 1875 
L 1259 0 
L 628 0 
L 628 4666 
z
" transform="scale(0.015625)"/>
       <path id="DejaVuSans-6f" d="M 1959 3097 
Q 1497 3097 1228 2736 
Q 959 2375 959 1747 
Q 959 1119 1226 758 
Q 1494 397 1959 397 
Q 2419 397 2687 759 
Q 2956 1122 2956 1747 
Q 2956 2369 2687 2733 
Q 2419 3097 1959 3097 
z
M 1959 3584 
Q 2709 3584 3137 3096 
Q 3566 2609 3566 1747 
Q 3566 888 3137 398 
Q 2709 -91 1959 -91 
Q 1206 -91 779 398 
Q 353 888 353 1747 
Q 353 2609 779 3096 
Q 1206 3584 1959 3584 
z
" transform="scale(0.015625)"/>
       <path id="DejaVuSans-69" d="M 603 3500 
L 1178 3500 
L 1178 0 
L 603 0 
L 603 3500 
z
M 603 4863 
L 1178 4863 
L 1178 4134 
L 603 4134 
L 603 4863 
z
" transform="scale(0.015625)"/>
       <path id="DejaVuSans-74" d="M 1172 4494 
L 1172 3500 
L 2356 3500 
L 2356 3053 
L 1172 3053 
L 1172 1153 
Q 1172 725 1289 603 
Q 1406 481 1766 481 
L 2356 481 
L 2356 0 
L 1766 0 
Q 1100 0 847 248 
Q 594 497 594 1153 
L 594 3053 
L 172 3053 
L 172 3500 
L 594 3500 
L 594 4494 
L 1172 4494 
z
" transform="scale(0.015625)"/>
       <path id="DejaVuSans-76" d="M 191 3500 
L 800 3500 
L 1894 563 
L 2988 3500 
L 3597 3500 
L 2284 0 
L 1503 0 
L 191 3500 
z
" transform="scale(0.015625)"/>
       <path id="DejaVuSans-52" d="M 2841 2188 
Q 3044 2119 3236 1894 
Q 3428 1669 3622 1275 
L 4263 0 
L 3584 0 
L 2988 1197 
Q 2756 1666 2539 1819 
Q 2322 1972 1947 1972 
L 1259 1972 
L 1259 0 
L 628 0 
L 628 4666 
L 2053 4666 
Q 2853 4666 3247 4331 
Q 3641 3997 3641 3322 
Q 3641 2881 3436 2590 
Q 3231 2300 2841 2188 
z
M 1259 4147 
L 1259 2491 
L 2053 2491 
Q 2509 2491 2742 2702 
Q 2975 2913 2975 3322 
Q 2975 3731 2742 3939 
Q 2509 4147 2053 4147 
L 1259 4147 
z
" transform="scale(0.015625)"/>
      </defs>
      <use xlink:href="#DejaVuSans-46"/>
      <use xlink:href="#DejaVuSans-61" x="48.394531"/>
      <use xlink:href="#DejaVuSans-6c" x="109.673828"/>
      <use xlink:href="#DejaVuSans-73" x="137.457031"/>
      <use xlink:href="#DejaVuSans-65" x="189.556641"/>
      <use xlink:href="#DejaVuSans-20" x="251.080078"/>
      <use xlink:href="#DejaVuSans-50" x="282.867188"/>
      <use xlink:href="#DejaVuSans-6f" x="339.544922"/>
      <use xlink:href="#DejaVuSans-73" x="400.726562"/>
      <use xlink:href="#DejaVuSans-69" x="452.826172"/>
      <use xlink:href="#DejaVuSans-74" x="480.609375"/>
      <use xlink:href="#DejaVuSans-69" x="519.818359"/>
      <use xlink:href="#DejaVuSans-76" x="547.601562"/>
      <use xlink:href="#DejaVuSans-65" x="606.78125"/>
      <use xlink:href="#DejaVuSans-20" x="668.304688"/>
      <use xlink:href="#DejaVuSans-52" x="700.091797"/>
      <use xlink:href="#DejaVuSans-61" x="767.324219"/>
      <use xlink:href="#DejaVuSans-74" x="828.603516"/>
      <use xlink:href="#DejaVuSans-65" x="867.8125"/>
     </g>
    </g>
   </g>
   <g id="matplotlib.axis_2">
    <g id="ytick_1">
     <g id="line2d_7">
      <defs>
       <path id="m43bbef68e5" d="M 0 0 
L -12 0 
" style="stroke: #000000; stroke-width: 2.5"/>
      </defs>
      <g>
       <use xlink:href="#m43bbef68e5" x="73.2715" y="451.149" style="stroke: #000000; stroke-width: 2.5"/>
      </g>
     </g>
     <g id="text_8">
      <!-- 0.0 -->
      <g transform="translate(29.782 457.835625) scale(0.176 -0.176)">
       <use xlink:href="#DejaVuSans-30"/>
       <use xlink:href="#DejaVuSans-2e" x="63.623047"/>
       <use xlink:href="#DejaVuSans-30" x="95.410156"/>
      </g>
     </g>
    </g>
    <g id="ytick_2">
     <g id="line2d_8">
      <g>
       <use xlink:href="#m43bbef68e5" x="73.2715" y="370.509" style="stroke: #000000; stroke-width: 2.5"/>
      </g>
     </g>
     <g id="text_9">
      <!-- 0.2 -->
      <g transform="translate(29.782 377.195625) scale(0.176 -0.176)">
       <use xlink:href="#DejaVuSans-30"/>
       <use xlink:href="#DejaVuSans-2e" x="63.623047"/>
       <use xlink:href="#DejaVuSans-32" x="95.410156"/>
      </g>
     </g>
    </g>
    <g id="ytick_3">
     <g id="line2d_9">
      <g>
       <use xlink:href="#m43bbef68e5" x="73.2715" y="289.869" style="stroke: #000000; stroke-width: 2.5"/>
      </g>
     </g>
     <g id="text_10">
      <!-- 0.4 -->
      <g transform="translate(29.782 296.555625) scale(0.176 -0.176)">
       <use xlink:href="#DejaVuSans-30"/>
       <use xlink:href="#DejaVuSans-2e" x="63.623047"/>
       <use xlink:href="#DejaVuSans-34" x="95.410156"/>
      </g>
     </g>
    </g>
    <g id="ytick_4">
     <g id="line2d_10">
      <g>
       <use xlink:href="#m43bbef68e5" x="73.2715" y="209.229" style="stroke: #000000; stroke-width: 2.5"/>
      </g>
     </g>
     <g id="text_11">
      <!-- 0.6 -->
      <g transform="translate(29.782 215.915625) scale(0.176 -0.176)">
       <use xlink:href="#DejaVuSans-30"/>
       <use xlink:href="#DejaVuSans-2e" x="63.623047"/>
       <use xlink:href="#DejaVuSans-36" x="95.410156"/>
      </g>
     </g>
    </g>
    <g id="ytick_5">
     <g id="line2d_11">
      <g>
       <use xlink:href="#m43bbef68e5" x="73.2715" y="128.589" style="stroke: #000000; stroke-width: 2.5"/>
      </g>
     </g>
     <g id="text_12">
      <!-- 0.8 -->
      <g transform="translate(29.782 135.275625) scale(0.176 -0.176)">
       <use xlink:href="#DejaVuSans-30"/>
       <use xlink:href="#DejaVuSans-2e" x="63.623047"/>
       <use xlink:href="#DejaVuSans-38" x="95.410156"/>
      </g>
     </g>
    </g>
    <g id="ytick_6">
     <g id="line2d_12">
      <g>
       <use xlink:href="#m43bbef68e5" x="73.2715" y="47.949" style="stroke: #000000; stroke-width: 2.5"/>
      </g>
     </g>
     <g id="text_13">
      <!-- 1.0 -->
      <g transform="translate(29.782 54.635625) scale(0.176 -0.176)">
       <use xlink:href="#DejaVuSans-31"/>
       <use xlink:href="#DejaVuSans-2e" x="63.623047"/>
       <use xlink:href="#DejaVuSans-30" x="95.410156"/>
      </g>
     </g>
    </g>
    <g id="text_14">
     <!-- True Positive Rate -->
     <g transform="translate(21.789 335.046) rotate(-90) scale(0.192 -0.192)">
      <defs>
       <path id="DejaVuSans-54" d="M -19 4666 
L 3928 4666 
L 3928 4134 
L 2272 4134 
L 2272 0 
L 1638 0 
L 1638 4134 
L -19 4134 
L -19 4666 
z
" transform="scale(0.015625)"/>
       <path id="DejaVuSans-72" d="M 2631 2963 
Q 2534 3019 2420 3045 
Q 2306 3072 2169 3072 
Q 1681 3072 1420 2755 
Q 1159 2438 1159 1844 
L 1159 0 
L 581 0 
L 581 3500 
L 1159 3500 
L 1159 2956 
Q 1341 3275 1631 3429 
Q 1922 3584 2338 3584 
Q 2397 3584 2469 3576 
Q 2541 3569 2628 3553 
L 2631 2963 
z
" transform="scale(0.015625)"/>
       <path id="DejaVuSans-75" d="M 544 1381 
L 544 3500 
L 1119 3500 
L 1119 1403 
Q 1119 906 1312 657 
Q 1506 409 1894 409 
Q 2359 409 2629 706 
Q 2900 1003 2900 1516 
L 2900 3500 
L 3475 3500 
L 3475 0 
L 2900 0 
L 2900 538 
Q 2691 219 2414 64 
Q 2138 -91 1772 -91 
Q 1169 -91 856 284 
Q 544 659 544 1381 
z
M 1991 3584 
L 1991 3584 
z
" transform="scale(0.015625)"/>
      </defs>
      <use xlink:href="#DejaVuSans-54"/>
      <use xlink:href="#DejaVuSans-72" x="46.333984"/>
      <use xlink:href="#DejaVuSans-75" x="87.447266"/>
      <use xlink:href="#DejaVuSans-65" x="150.826172"/>
      <use xlink:href="#DejaVuSans-20" x="212.349609"/>
      <use xlink:href="#DejaVuSans-50" x="244.136719"/>
      <use xlink:href="#DejaVuSans-6f" x="300.814453"/>
      <use xlink:href="#DejaVuSans-73" x="361.996094"/>
      <use xlink:href="#DejaVuSans-69" x="414.095703"/>
      <use xlink:href="#DejaVuSans-74" x="441.878906"/>
      <use xlink:href="#DejaVuSans-69" x="481.087891"/>
      <use xlink:href="#DejaVuSans-76" x="508.871094"/>
      <use xlink:href="#DejaVuSans-65" x="568.050781"/>
      <use xlink:href="#DejaVuSans-20" x="629.574219"/>
      <use xlink:href="#DejaVuSans-52" x="661.361328"/>
      <use xlink:href="#DejaVuSans-61" x="728.59375"/>
      <use xlink:href="#DejaVuSans-74" x="789.873047"/>
      <use xlink:href="#DejaVuSans-65" x="829.082031"/>
     </g>
    </g>
   </g>
   <g id="line2d_13">
    <path d="M 91.717781 451.149 
L 95.444302 338.253 
L 99.170824 338.253 
L 102.897345 338.253 
L 106.623867 338.253 
L 110.350388 338.253 
L 114.076909 338.253 
L 117.803431 338.253 
L 121.529952 338.253 
L 125.256474 338.253 
L 128.982995 338.253 
L 132.709517 338.253 
L 136.436038 338.253 
L 140.162559 338.253 
L 143.889081 338.253 
L 147.615602 338.253 
L 151.342124 338.253 
L 155.068645 338.253 
L 158.795166 338.253 
L 162.521688 338.253 
L 166.248209 284.493 
L 169.974731 284.493 
L 173.701252 284.493 
L 177.427773 284.493 
L 181.154295 284.493 
L 184.880816 215.949 
L 188.607338 215.949 
L 192.333859 215.949 
L 196.060381 215.949 
L 199.786902 215.949 
L 203.513423 215.949 
L 207.239945 215.949 
L 210.966466 215.949 
L 214.692988 215.949 
L 218.419509 215.949 
L 222.14603 215.949 
L 225.872552 215.949 
L 229.599073 215.949 
L 233.325595 215.949 
L 237.052116 215.949 
L 240.778637 180.109 
L 244.505159 180.109 
L 248.23168 180.109 
L 251.958202 180.109 
L 255.684723 180.109 
L 259.411245 180.109 
L 263.137766 180.109 
L 266.864287 180.109 
L 270.590809 180.109 
L 274.31733 180.109 
L 278.043852 159.949 
L 281.770373 159.949 
L 285.496894 159.949 
L 289.223416 159.949 
L 292.949937 159.949 
L 296.676459 159.949 
L 300.40298 159.949 
L 304.129502 159.949 
L 307.856023 159.949 
L 311.582544 159.949 
L 315.309066 119.629 
L 319.035587 119.629 
L 322.762109 119.629 
L 326.48863 119.629 
L 330.215151 119.629 
L 333.941673 119.629 
L 337.668194 119.629 
L 341.394716 119.629 
L 345.121237 119.629 
L 348.847758 119.629 
L 352.57428 119.629 
L 356.300801 119.629 
L 360.027323 119.629 
L 363.753844 119.629 
L 367.480366 119.629 
L 371.206887 103.501 
L 374.933408 103.501 
L 378.65993 103.501 
L 382.386451 103.501 
L 386.112973 103.501 
L 389.839494 81.101 
L 393.566015 81.101 
L 397.292537 81.101 
L 401.019058 81.101 
L 404.74558 81.101 
L 408.472101 81.101 
L 412.198622 81.101 
L 415.925144 81.101 
L 419.651665 81.101 
L 423.378187 81.101 
L 427.104708 81.101 
L 430.83123 81.101 
L 434.557751 81.101 
L 438.284272 81.101 
L 442.010794 81.101 
L 445.737315 81.101 
L 449.463837 81.101 
L 453.190358 81.101 
L 456.916879 81.101 
L 460.643401 47.949 
" clip-path="url(#pa7261075c2)" style="fill: none; stroke: #ffa500; stroke-width: 3; stroke-linecap: square"/>
   </g>
   <g id="line2d_14">
    <path d="M 91.717781 451.149 
L 95.444302 237.575182 
L 99.170824 236.353364 
L 102.897345 235.131545 
L 106.623867 233.909727 
L 110.350388 232.687909 
L 114.076909 231.466091 
L 117.803431 230.244273 
L 121.529952 229.022455 
L 125.256474 227.800636 
L 128.982995 226.578818 
L 132.709517 225.357 
L 136.436038 224.135182 
L 140.162559 222.913364 
L 143.889081 221.691545 
L 147.615602 220.469727 
L 151.342124 219.247909 
L 155.068645 218.026091 
L 158.795166 216.804273 
L 162.521688 215.582455 
L 166.248209 192.028515 
L 169.974731 191.146091 
L 173.701252 190.263667 
L 177.427773 189.381242 
L 181.154295 188.498818 
L 184.880816 135.302212 
L 188.607338 134.827061 
L 192.333859 134.351909 
L 196.060381 133.876758 
L 199.786902 133.401606 
L 203.513423 132.926455 
L 207.239945 132.451303 
L 210.966466 131.976152 
L 214.692988 131.501 
L 218.419509 131.025848 
L 222.14603 130.550697 
L 225.872552 130.075545 
L 229.599073 129.600394 
L 233.325595 129.125242 
L 237.052116 128.650091 
L 240.778637 110.300192 
L 244.505159 109.938172 
L 248.23168 109.576152 
L 251.958202 109.214131 
L 255.684723 108.852111 
L 259.411245 108.490091 
L 263.137766 108.128071 
L 266.864287 107.766051 
L 270.590809 107.40403 
L 274.31733 107.04201 
L 278.043852 98.61599 
L 281.770373 98.25397 
L 285.496894 97.891949 
L 289.223416 97.529929 
L 292.949937 97.167909 
L 296.676459 96.805889 
L 300.40298 96.443869 
L 304.129502 96.081848 
L 307.856023 95.719828 
L 311.582544 95.357808 
L 315.309066 94.927909 
L 319.035587 94.452758 
L 322.762109 93.977606 
L 326.48863 93.502455 
L 330.215151 93.027303 
L 333.941673 92.552152 
L 337.668194 92.077 
L 341.394716 91.601848 
L 345.121237 91.126697 
L 348.847758 90.651545 
L 352.57428 90.176394 
L 356.300801 89.701242 
L 360.027323 89.226091 
L 363.753844 88.750939 
L 367.480366 88.275788 
L 371.206887 79.594091 
L 374.933408 78.928879 
L 378.65993 78.263667 
L 382.386451 77.598455 
L 386.112973 76.933242 
L 389.839494 58.619545 
L 393.566015 58.293727 
L 397.292537 57.967909 
L 401.019058 57.642091 
L 404.74558 57.316273 
L 408.472101 56.990455 
L 412.198622 56.664636 
L 415.925144 56.338818 
L 419.651665 56.013 
L 423.378187 55.687182 
L 427.104708 55.361364 
L 430.83123 55.035545 
L 434.557751 54.709727 
L 438.284272 54.383909 
L 442.010794 54.058091 
L 445.737315 53.732273 
L 449.463837 53.406455 
L 453.190358 53.080636 
L 456.916879 52.754818 
L 460.643401 47.949 
" clip-path="url(#pa7261075c2)" style="fill: none; stroke: #0000ff; stroke-width: 3; stroke-linecap: square"/>
   </g>
   <g id="line2d_15">
    <path d="M 91.717781 451.149 
L 95.444302 356.173 
L 99.170824 356.173 
L 102.897345 356.173 
L 106.623867 356.173 
L 110.350388 356.173 
L 114.076909 356.173 
L 117.803431 356.173 
L 121.529952 356.173 
L 125.256474 356.173 
L 128.982995 356.173 
L 132.709517 356.173 
L 136.436038 356.173 
L 140.162559 356.173 
L 143.889081 356.173 
L 147.615602 356.173 
L 151.342124 356.173 
L 155.068645 356.173 
L 158.795166 356.173 
L 162.521688 356.173 
L 166.248209 329.293 
L 169.974731 329.293 
L 173.701252 329.293 
L 177.427773 329.293 
L 181.154295 329.293 
L 184.880816 280.909 
L 188.607338 280.909 
L 192.333859 280.909 
L 196.060381 280.909 
L 199.786902 280.909 
L 203.513423 280.909 
L 207.239945 280.909 
L 210.966466 280.909 
L 214.692988 280.909 
L 218.419509 280.909 
L 222.14603 280.909 
L 225.872552 280.909 
L 229.599073 280.909 
L 233.325595 280.909 
L 237.052116 280.909 
L 240.778637 236.109 
L 244.505159 236.109 
L 248.23168 236.109 
L 251.958202 236.109 
L 255.684723 236.109 
L 259.411245 236.109 
L 263.137766 236.109 
L 266.864287 236.109 
L 270.590809 236.109 
L 274.31733 236.109 
L 278.043852 215.949 
L 281.770373 215.949 
L 285.496894 215.949 
L 289.223416 215.949 
L 292.949937 215.949 
L 296.676459 215.949 
L 300.40298 215.949 
L 304.129502 215.949 
L 307.856023 215.949 
L 311.582544 215.949 
L 315.309066 153.229 
L 319.035587 153.229 
L 322.762109 153.229 
L 326.48863 153.229 
L 330.215151 153.229 
L 333.941673 153.229 
L 337.668194 153.229 
L 341.394716 153.229 
L 345.121237 153.229 
L 348.847758 153.229 
L 352.57428 153.229 
L 356.300801 153.229 
L 360.027323 153.229 
L 363.753844 153.229 
L 367.480366 153.229 
L 371.206887 116.941 
L 374.933408 116.941 
L 378.65993 116.941 
L 382.386451 116.941 
L 386.112973 116.941 
L 389.839494 81.101 
L 393.566015 81.101 
L 397.292537 81.101 
L 401.019058 81.101 
L 404.74558 81.101 
L 408.472101 81.101 
L 412.198622 81.101 
L 415.925144 81.101 
L 419.651665 81.101 
L 423.378187 81.101 
L 427.104708 81.101 
L 430.83123 81.101 
L 434.557751 81.101 
L 438.284272 81.101 
L 442.010794 81.101 
L 445.737315 81.101 
L 449.463837 81.101 
L 453.190358 81.101 
L 456.916879 81.101 
L 460.643401 47.949 
" clip-path="url(#pa7261075c2)" style="fill: none; stroke: #008000; stroke-width: 3; stroke-linecap: square"/>
   </g>
   <g id="line2d_16">
    <path d="M 91.717781 451.149 
L 460.643401 47.949 
" clip-path="url(#pa7261075c2)" style="fill: none; stroke-dasharray: 11.1,4.8; stroke-dashoffset: 0; stroke: #000000; stroke-opacity: 0.5; stroke-width: 3"/>
   </g>
   <g id="patch_3">
    <path d="M 73.2715 471.309 
L 73.2715 27.789 
" style="fill: none; stroke: #000000; stroke-width: 2.5; stroke-linejoin: miter; stroke-linecap: square"/>
   </g>
   <g id="patch_4">
    <path d="M 479.089682 471.309 
L 479.089682 27.789 
" style="fill: none; stroke: #000000; stroke-width: 2.5; stroke-linejoin: miter; stroke-linecap: square"/>
   </g>
   <g id="patch_5">
    <path d="M 73.2715 471.309 
L 479.089682 471.309 
" style="fill: none; stroke: #000000; stroke-width: 2.5; stroke-linejoin: miter; stroke-linecap: square"/>
   </g>
   <g id="patch_6">
    <path d="M 73.2715 27.789 
L 479.089682 27.789 
" style="fill: none; stroke: #000000; stroke-width: 2.5; stroke-linejoin: miter; stroke-linecap: square"/>
   </g>
   <g id="text_15">
    <!-- Approach CDT_DI_IS_LIVE -->
    <g transform="translate(153.200091 21.789) scale(0.192 -0.192)">
     <defs>
      <path id="DejaVuSans-41" d="M 2188 4044 
L 1331 1722 
L 3047 1722 
L 2188 4044 
z
M 1831 4666 
L 2547 4666 
L 4325 0 
L 3669 0 
L 3244 1197 
L 1141 1197 
L 716 0 
L 50 0 
L 1831 4666 
z
" transform="scale(0.015625)"/>
      <path id="DejaVuSans-70" d="M 1159 525 
L 1159 -1331 
L 581 -1331 
L 581 3500 
L 1159 3500 
L 1159 2969 
Q 1341 3281 1617 3432 
Q 1894 3584 2278 3584 
Q 2916 3584 3314 3078 
Q 3713 2572 3713 1747 
Q 3713 922 3314 415 
Q 2916 -91 2278 -91 
Q 1894 -91 1617 61 
Q 1341 213 1159 525 
z
M 3116 1747 
Q 3116 2381 2855 2742 
Q 2594 3103 2138 3103 
Q 1681 3103 1420 2742 
Q 1159 2381 1159 1747 
Q 1159 1113 1420 752 
Q 1681 391 2138 391 
Q 2594 391 2855 752 
Q 3116 1113 3116 1747 
z
" transform="scale(0.015625)"/>
      <path id="DejaVuSans-63" d="M 3122 3366 
L 3122 2828 
Q 2878 2963 2633 3030 
Q 2388 3097 2138 3097 
Q 1578 3097 1268 2742 
Q 959 2388 959 1747 
Q 959 1106 1268 751 
Q 1578 397 2138 397 
Q 2388 397 2633 464 
Q 2878 531 3122 666 
L 3122 134 
Q 2881 22 2623 -34 
Q 2366 -91 2075 -91 
Q 1284 -91 818 406 
Q 353 903 353 1747 
Q 353 2603 823 3093 
Q 1294 3584 2113 3584 
Q 2378 3584 2631 3529 
Q 2884 3475 3122 3366 
z
" transform="scale(0.015625)"/>
      <path id="DejaVuSans-68" d="M 3513 2113 
L 3513 0 
L 2938 0 
L 2938 2094 
Q 2938 2591 2744 2837 
Q 2550 3084 2163 3084 
Q 1697 3084 1428 2787 
Q 1159 2491 1159 1978 
L 1159 0 
L 581 0 
L 581 4863 
L 1159 4863 
L 1159 2956 
Q 1366 3272 1645 3428 
Q 1925 3584 2291 3584 
Q 2894 3584 3203 3211 
Q 3513 2838 3513 2113 
z
" transform="scale(0.015625)"/>
      <path id="DejaVuSans-43" d="M 4122 4306 
L 4122 3641 
Q 3803 3938 3442 4084 
Q 3081 4231 2675 4231 
Q 1875 4231 1450 3742 
Q 1025 3253 1025 2328 
Q 1025 1406 1450 917 
Q 1875 428 2675 428 
Q 3081 428 3442 575 
Q 3803 722 4122 1019 
L 4122 359 
Q 3791 134 3420 21 
Q 3050 -91 2638 -91 
Q 1578 -91 968 557 
Q 359 1206 359 2328 
Q 359 3453 968 4101 
Q 1578 4750 2638 4750 
Q 3056 4750 3426 4639 
Q 3797 4528 4122 4306 
z
" transform="scale(0.015625)"/>
      <path id="DejaVuSans-44" d="M 1259 4147 
L 1259 519 
L 2022 519 
Q 2988 519 3436 956 
Q 3884 1394 3884 2338 
Q 3884 3275 3436 3711 
Q 2988 4147 2022 4147 
L 1259 4147 
z
M 628 4666 
L 1925 4666 
Q 3281 4666 3915 4102 
Q 4550 3538 4550 2338 
Q 4550 1131 3912 565 
Q 3275 0 1925 0 
L 628 0 
L 628 4666 
z
" transform="scale(0.015625)"/>
      <path id="DejaVuSans-5f" d="M 3263 -1063 
L 3263 -1509 
L -63 -1509 
L -63 -1063 
L 3263 -1063 
z
" transform="scale(0.015625)"/>
      <path id="DejaVuSans-49" d="M 628 4666 
L 1259 4666 
L 1259 0 
L 628 0 
L 628 4666 
z
" transform="scale(0.015625)"/>
      <path id="DejaVuSans-53" d="M 3425 4513 
L 3425 3897 
Q 3066 4069 2747 4153 
Q 2428 4238 2131 4238 
Q 1616 4238 1336 4038 
Q 1056 3838 1056 3469 
Q 1056 3159 1242 3001 
Q 1428 2844 1947 2747 
L 2328 2669 
Q 3034 2534 3370 2195 
Q 3706 1856 3706 1288 
Q 3706 609 3251 259 
Q 2797 -91 1919 -91 
Q 1588 -91 1214 -16 
Q 841 59 441 206 
L 441 856 
Q 825 641 1194 531 
Q 1563 422 1919 422 
Q 2459 422 2753 634 
Q 3047 847 3047 1241 
Q 3047 1584 2836 1778 
Q 2625 1972 2144 2069 
L 1759 2144 
Q 1053 2284 737 2584 
Q 422 2884 422 3419 
Q 422 4038 858 4394 
Q 1294 4750 2059 4750 
Q 2388 4750 2728 4690 
Q 3069 4631 3425 4513 
z
" transform="scale(0.015625)"/>
      <path id="DejaVuSans-4c" d="M 628 4666 
L 1259 4666 
L 1259 531 
L 3531 531 
L 3531 0 
L 628 0 
L 628 4666 
z
" transform="scale(0.015625)"/>
      <path id="DejaVuSans-56" d="M 1831 0 
L 50 4666 
L 709 4666 
L 2188 738 
L 3669 4666 
L 4325 4666 
L 2547 0 
L 1831 0 
z
" transform="scale(0.015625)"/>
      <path id="DejaVuSans-45" d="M 628 4666 
L 3578 4666 
L 3578 4134 
L 1259 4134 
L 1259 2753 
L 3481 2753 
L 3481 2222 
L 1259 2222 
L 1259 531 
L 3634 531 
L 3634 0 
L 628 0 
L 628 4666 
z
" transform="scale(0.015625)"/>
     </defs>
     <use xlink:href="#DejaVuSans-41"/>
     <use xlink:href="#DejaVuSans-70" x="68.408203"/>
     <use xlink:href="#DejaVuSans-70" x="131.884766"/>
     <use xlink:href="#DejaVuSans-72" x="195.361328"/>
     <use xlink:href="#DejaVuSans-6f" x="234.224609"/>
     <use xlink:href="#DejaVuSans-61" x="295.40625"/>
     <use xlink:href="#DejaVuSans-63" x="356.685547"/>
     <use xlink:href="#DejaVuSans-68" x="411.666016"/>
     <use xlink:href="#DejaVuSans-20" x="475.044922"/>
     <use xlink:href="#DejaVuSans-43" x="506.832031"/>
     <use xlink:href="#DejaVuSans-44" x="576.65625"/>
     <use xlink:href="#DejaVuSans-54" x="653.658203"/>
     <use xlink:href="#DejaVuSans-5f" x="714.742188"/>
     <use xlink:href="#DejaVuSans-44" x="764.742188"/>
     <use xlink:href="#DejaVuSans-49" x="841.744141"/>
     <use xlink:href="#DejaVuSans-5f" x="871.236328"/>
     <use xlink:href="#DejaVuSans-49" x="921.236328"/>
     <use xlink:href="#DejaVuSans-53" x="950.728516"/>
     <use xlink:href="#DejaVuSans-5f" x="1014.205078"/>
     <use xlink:href="#DejaVuSans-4c" x="1064.205078"/>
     <use xlink:href="#DejaVuSans-49" x="1119.917969"/>
     <use xlink:href="#DejaVuSans-56" x="1149.410156"/>
     <use xlink:href="#DejaVuSans-45" x="1217.818359"/>
    </g>
   </g>
   <g id="legend_1">
    <g id="patch_7">
     <path d="M 85.5915 119.3695 
L 231.01975 119.3695 
Q 234.53975 119.3695 234.53975 115.8495 
L 234.53975 40.109 
Q 234.53975 36.589 231.01975 36.589 
L 85.5915 36.589 
Q 82.0715 36.589 82.0715 40.109 
L 82.0715 115.8495 
Q 82.0715 119.3695 85.5915 119.3695 
z
" style="fill: #ffffff; opacity: 0.8; stroke: #cccccc; stroke-width: 2; stroke-linejoin: miter"/>
    </g>
    <g id="line2d_17">
     <path d="M 89.1115 50.84225 
L 106.7115 50.84225 
L 124.3115 50.84225 
" style="fill: none; stroke: #ffa500; stroke-width: 3; stroke-linecap: square"/>
    </g>
    <g id="text_16">
     <!-- LR: 0.65 -->
     <g transform="translate(138.3915 57.00225) scale(0.176 -0.176)">
      <defs>
       <path id="DejaVuSans-3a" d="M 750 794 
L 1409 794 
L 1409 0 
L 750 0 
L 750 794 
z
M 750 3309 
L 1409 3309 
L 1409 2516 
L 750 2516 
L 750 3309 
z
" transform="scale(0.015625)"/>
       <path id="DejaVuSans-35" d="M 691 4666 
L 3169 4666 
L 3169 4134 
L 1269 4134 
L 1269 2991 
Q 1406 3038 1543 3061 
Q 1681 3084 1819 3084 
Q 2600 3084 3056 2656 
Q 3513 2228 3513 1497 
Q 3513 744 3044 326 
Q 2575 -91 1722 -91 
Q 1428 -91 1123 -41 
Q 819 9 494 109 
L 494 744 
Q 775 591 1075 516 
Q 1375 441 1709 441 
Q 2250 441 2565 725 
Q 2881 1009 2881 1497 
Q 2881 1984 2565 2268 
Q 2250 2553 1709 2553 
Q 1456 2553 1204 2497 
Q 953 2441 691 2322 
L 691 4666 
z
" transform="scale(0.015625)"/>
      </defs>
      <use xlink:href="#DejaVuSans-4c"/>
      <use xlink:href="#DejaVuSans-52" x="55.712891"/>
      <use xlink:href="#DejaVuSans-3a" x="122.070312"/>
      <use xlink:href="#DejaVuSans-20" x="155.761719"/>
      <use xlink:href="#DejaVuSans-30" x="187.548828"/>
      <use xlink:href="#DejaVuSans-2e" x="251.171875"/>
      <use xlink:href="#DejaVuSans-36" x="282.958984"/>
      <use xlink:href="#DejaVuSans-35" x="346.582031"/>
     </g>
    </g>
    <g id="line2d_18">
     <path d="M 89.1115 76.67575 
L 106.7115 76.67575 
L 124.3115 76.67575 
" style="fill: none; stroke: #0000ff; stroke-width: 3; stroke-linecap: square"/>
    </g>
    <g id="text_17">
     <!-- RF: 0.81 -->
     <g transform="translate(138.3915 82.83575) scale(0.176 -0.176)">
      <use xlink:href="#DejaVuSans-52"/>
      <use xlink:href="#DejaVuSans-46" x="69.482422"/>
      <use xlink:href="#DejaVuSans-3a" x="119.251953"/>
      <use xlink:href="#DejaVuSans-20" x="152.943359"/>
      <use xlink:href="#DejaVuSans-30" x="184.730469"/>
      <use xlink:href="#DejaVuSans-2e" x="248.353516"/>
      <use xlink:href="#DejaVuSans-38" x="280.140625"/>
      <use xlink:href="#DejaVuSans-31" x="343.763672"/>
     </g>
    </g>
    <g id="line2d_19">
     <path d="M 89.1115 102.50925 
L 106.7115 102.50925 
L 124.3115 102.50925 
" style="fill: none; stroke: #008000; stroke-width: 3; stroke-linecap: square"/>
    </g>
    <g id="text_18">
     <!-- SVM: 0.57 -->
     <g transform="translate(138.3915 108.66925) scale(0.176 -0.176)">
      <defs>
       <path id="DejaVuSans-4d" d="M 628 4666 
L 1569 4666 
L 2759 1491 
L 3956 4666 
L 4897 4666 
L 4897 0 
L 4281 0 
L 4281 4097 
L 3078 897 
L 2444 897 
L 1241 4097 
L 1241 0 
L 628 0 
L 628 4666 
z
" transform="scale(0.015625)"/>
       <path id="DejaVuSans-37" d="M 525 4666 
L 3525 4666 
L 3525 4397 
L 1831 0 
L 1172 0 
L 2766 4134 
L 525 4134 
L 525 4666 
z
" transform="scale(0.015625)"/>
      </defs>
      <use xlink:href="#DejaVuSans-53"/>
      <use xlink:href="#DejaVuSans-56" x="63.476562"/>
      <use xlink:href="#DejaVuSans-4d" x="131.884766"/>
      <use xlink:href="#DejaVuSans-3a" x="218.164062"/>
      <use xlink:href="#DejaVuSans-20" x="251.855469"/>
      <use xlink:href="#DejaVuSans-30" x="283.642578"/>
      <use xlink:href="#DejaVuSans-2e" x="347.265625"/>
      <use xlink:href="#DejaVuSans-35" x="379.052734"/>
      <use xlink:href="#DejaVuSans-37" x="442.675781"/>
     </g>
    </g>
   </g>
  </g>
  <g id="axes_2">
   <g id="patch_8">
    <path d="M 560.253318 471.309 
L 966.0715 471.309 
L 966.0715 27.789 
L 560.253318 27.789 
z
" style="fill: #ffffff"/>
   </g>
   <g id="PolyCollection_4">
    <defs>
     <path id="m68e7870dd2" d="M 578.699599 -82.4755 
L 578.699599 -82.4755 
L 582.426121 -82.4755 
L 586.152642 -82.4755 
L 589.879163 -82.4755 
L 593.605685 -82.4755 
L 597.332206 -82.4755 
L 601.058728 -82.4755 
L 604.785249 -82.4755 
L 608.51177 -82.4755 
L 612.238292 -82.4755 
L 615.964813 -82.4755 
L 619.691335 -82.4755 
L 623.417856 -82.4755 
L 627.144378 -82.4755 
L 630.870899 -82.4755 
L 634.59742 -82.4755 
L 638.323942 -82.4755 
L 642.050463 -82.4755 
L 645.776985 -82.4755 
L 649.503506 -82.4755 
L 653.230027 -82.4755 
L 656.956549 -82.4755 
L 660.68307 -82.4755 
L 664.409592 -82.4755 
L 668.136113 -82.4755 
L 671.862634 -172.0755 
L 675.589156 -172.0755 
L 679.315677 -172.0755 
L 683.042199 -172.0755 
L 686.76872 -172.0755 
L 690.495242 -172.0755 
L 694.221763 -172.0755 
L 697.948284 -172.0755 
L 701.674806 -172.0755 
L 705.401327 -172.0755 
L 709.127849 -172.0755 
L 712.85437 -172.0755 
L 716.580891 -172.0755 
L 720.307413 -172.0755 
L 724.033934 -172.0755 
L 727.760456 -172.0755 
L 731.486977 -172.0755 
L 735.213498 -172.0755 
L 738.94002 -172.0755 
L 742.666541 -172.0755 
L 746.393063 -172.0755 
L 750.119584 -172.0755 
L 753.846106 -172.0755 
L 757.572627 -172.0755 
L 761.299148 -172.0755 
L 765.02567 -172.0755 
L 768.752191 -172.0755 
L 772.478713 -172.0755 
L 776.205234 -172.0755 
L 779.931755 -172.0755 
L 783.658277 -172.0755 
L 787.384798 -172.0755 
L 791.11132 -172.0755 
L 794.837841 -172.0755 
L 798.564363 -172.0755 
L 802.290884 -324.3955 
L 806.017405 -324.3955 
L 809.743927 -324.3955 
L 813.470448 -324.3955 
L 817.19697 -324.3955 
L 820.923491 -324.3955 
L 824.650012 -324.3955 
L 828.376534 -324.3955 
L 832.103055 -324.3955 
L 835.829577 -324.3955 
L 839.556098 -324.3955 
L 843.282619 -324.3955 
L 847.009141 -324.3955 
L 850.735662 -324.3955 
L 854.462184 -324.3955 
L 858.188705 -351.2755 
L 861.915227 -351.2755 
L 865.641748 -351.2755 
L 869.368269 -351.2755 
L 873.094791 -351.2755 
L 876.821312 -364.7155 
L 880.547834 -364.7155 
L 884.274355 -364.7155 
L 888.000876 -364.7155 
L 891.727398 -364.7155 
L 895.453919 -364.7155 
L 899.180441 -364.7155 
L 902.906962 -364.7155 
L 906.633483 -364.7155 
L 910.360005 -364.7155 
L 914.086526 -364.7155 
L 917.813048 -364.7155 
L 921.539569 -364.7155 
L 925.266091 -364.7155 
L 928.992612 -364.7155 
L 932.719133 -364.7155 
L 936.445655 -364.7155 
L 940.172176 -364.7155 
L 943.898698 -364.7155 
L 947.625219 -485.6755 
L 947.625219 -485.6755 
L 947.625219 -485.6755 
L 943.898698 -485.6755 
L 940.172176 -485.6755 
L 936.445655 -485.6755 
L 932.719133 -485.6755 
L 928.992612 -485.6755 
L 925.266091 -485.6755 
L 921.539569 -485.6755 
L 917.813048 -485.6755 
L 914.086526 -485.6755 
L 910.360005 -485.6755 
L 906.633483 -485.6755 
L 902.906962 -485.6755 
L 899.180441 -485.6755 
L 895.453919 -485.6755 
L 891.727398 -485.6755 
L 888.000876 -485.6755 
L 884.274355 -485.6755 
L 880.547834 -485.6755 
L 876.821312 -485.6755 
L 873.094791 -485.6755 
L 869.368269 -485.6755 
L 865.641748 -485.6755 
L 861.915227 -485.6755 
L 858.188705 -485.6755 
L 854.462184 -485.6755 
L 850.735662 -485.6755 
L 847.009141 -485.6755 
L 843.282619 -485.6755 
L 839.556098 -485.6755 
L 835.829577 -485.6755 
L 832.103055 -485.6755 
L 828.376534 -485.6755 
L 824.650012 -485.6755 
L 820.923491 -485.6755 
L 817.19697 -485.6755 
L 813.470448 -485.6755 
L 809.743927 -485.6755 
L 806.017405 -485.6755 
L 802.290884 -485.6755 
L 798.564363 -485.6755 
L 794.837841 -485.6755 
L 791.11132 -485.6755 
L 787.384798 -485.6755 
L 783.658277 -485.6755 
L 779.931755 -485.6755 
L 776.205234 -485.6755 
L 772.478713 -485.6755 
L 768.752191 -485.6755 
L 765.02567 -485.6755 
L 761.299148 -485.6755 
L 757.572627 -485.6755 
L 753.846106 -485.6755 
L 750.119584 -485.6755 
L 746.393063 -485.6755 
L 742.666541 -485.6755 
L 738.94002 -485.6755 
L 735.213498 -485.6755 
L 731.486977 -485.6755 
L 727.760456 -485.6755 
L 724.033934 -445.3555 
L 720.307413 -445.3555 
L 716.580891 -445.3555 
L 712.85437 -445.3555 
L 709.127849 -445.3555 
L 705.401327 -445.3555 
L 701.674806 -445.3555 
L 697.948284 -445.3555 
L 694.221763 -445.3555 
L 690.495242 -445.3555 
L 686.76872 -445.3555 
L 683.042199 -445.3555 
L 679.315677 -445.3555 
L 675.589156 -445.3555 
L 671.862634 -445.3555 
L 668.136113 -440.8755 
L 664.409592 -440.8755 
L 660.68307 -440.8755 
L 656.956549 -440.8755 
L 653.230027 -440.8755 
L 649.503506 -324.3955 
L 645.776985 -324.3955 
L 642.050463 -324.3955 
L 638.323942 -324.3955 
L 634.59742 -324.3955 
L 630.870899 -324.3955 
L 627.144378 -324.3955 
L 623.417856 -324.3955 
L 619.691335 -324.3955 
L 615.964813 -324.3955 
L 612.238292 -324.3955 
L 608.51177 -324.3955 
L 604.785249 -324.3955 
L 601.058728 -324.3955 
L 597.332206 -324.3955 
L 593.605685 -324.3955 
L 589.879163 -324.3955 
L 586.152642 -324.3955 
L 582.426121 -324.3955 
L 578.699599 -82.4755 
z
" style="stroke: #ffa500; stroke-opacity: 0.2; stroke-width: 2"/>
    </defs>
    <g clip-path="url(#p6b07d53464)">
     <use xlink:href="#m68e7870dd2" x="0" y="533.6245" style="fill: #ffa500; fill-opacity: 0.2; stroke: #ffa500; stroke-opacity: 0.2; stroke-width: 2"/>
    </g>
   </g>
   <g id="PolyCollection_5">
    <defs>
     <path id="m8e38d74ec2" d="M 578.699599 -82.4755 
L 578.699599 -82.4755 
L 582.426121 -82.4755 
L 586.152642 -82.4755 
L 589.879163 -82.4755 
L 593.605685 -82.4755 
L 597.332206 -82.4755 
L 601.058728 -82.4755 
L 604.785249 -82.4755 
L 608.51177 -82.4755 
L 612.238292 -82.4755 
L 615.964813 -82.4755 
L 619.691335 -82.4755 
L 623.417856 -82.4755 
L 627.144378 -82.4755 
L 630.870899 -82.4755 
L 634.59742 -82.4755 
L 638.323942 -82.4755 
L 642.050463 -82.4755 
L 645.776985 -82.4755 
L 649.503506 -82.4755 
L 653.230027 -163.1155 
L 656.956549 -163.1155 
L 660.68307 -163.1155 
L 664.409592 -163.1155 
L 668.136113 -163.1155 
L 671.862634 -172.0755 
L 675.589156 -172.0755 
L 679.315677 -172.0755 
L 683.042199 -172.0755 
L 686.76872 -172.0755 
L 690.495242 -172.0755 
L 694.221763 -172.0755 
L 697.948284 -172.0755 
L 701.674806 -172.0755 
L 705.401327 -172.0755 
L 709.127849 -172.0755 
L 712.85437 -172.0755 
L 716.580891 -172.0755 
L 720.307413 -172.0755 
L 724.033934 -172.0755 
L 727.760456 -243.7555 
L 731.486977 -243.7555 
L 735.213498 -243.7555 
L 738.94002 -243.7555 
L 742.666541 -243.7555 
L 746.393063 -243.7555 
L 750.119584 -243.7555 
L 753.846106 -243.7555 
L 757.572627 -243.7555 
L 761.299148 -243.7555 
L 765.02567 -261.6755 
L 768.752191 -261.6755 
L 772.478713 -261.6755 
L 776.205234 -261.6755 
L 779.931755 -261.6755 
L 783.658277 -261.6755 
L 787.384798 -261.6755 
L 791.11132 -261.6755 
L 794.837841 -261.6755 
L 798.564363 -261.6755 
L 802.290884 -398.926409 
L 806.017405 -402.184591 
L 809.743927 -405.442773 
L 813.470448 -408.700955 
L 817.19697 -411.959136 
L 820.923491 -415.217318 
L 824.650012 -418.4755 
L 828.376534 -421.733682 
L 832.103055 -424.991864 
L 835.829577 -428.250045 
L 839.556098 -431.508227 
L 843.282619 -434.766409 
L 847.009141 -438.024591 
L 850.735662 -440.8755 
L 854.462184 -440.8755 
L 858.188705 -440.8755 
L 861.915227 -440.8755 
L 865.641748 -440.8755 
L 869.368269 -440.8755 
L 873.094791 -440.8755 
L 876.821312 -445.3555 
L 880.547834 -445.3555 
L 884.274355 -445.3555 
L 888.000876 -445.3555 
L 891.727398 -445.3555 
L 895.453919 -445.3555 
L 899.180441 -445.3555 
L 902.906962 -445.3555 
L 906.633483 -445.3555 
L 910.360005 -445.3555 
L 914.086526 -445.3555 
L 917.813048 -445.3555 
L 921.539569 -445.3555 
L 925.266091 -445.3555 
L 928.992612 -445.3555 
L 932.719133 -445.3555 
L 936.445655 -445.3555 
L 940.172176 -445.3555 
L 943.898698 -445.3555 
L 947.625219 -485.6755 
L 947.625219 -485.6755 
L 947.625219 -485.6755 
L 943.898698 -485.6755 
L 940.172176 -485.6755 
L 936.445655 -485.6755 
L 932.719133 -485.6755 
L 928.992612 -485.6755 
L 925.266091 -485.6755 
L 921.539569 -485.6755 
L 917.813048 -485.6755 
L 914.086526 -485.6755 
L 910.360005 -485.6755 
L 906.633483 -485.6755 
L 902.906962 -485.6755 
L 899.180441 -485.6755 
L 895.453919 -485.6755 
L 891.727398 -485.6755 
L 888.000876 -485.6755 
L 884.274355 -485.6755 
L 880.547834 -485.6755 
L 876.821312 -485.6755 
L 873.094791 -485.6755 
L 869.368269 -485.6755 
L 865.641748 -485.6755 
L 861.915227 -485.6755 
L 858.188705 -485.6755 
L 854.462184 -485.6755 
L 850.735662 -485.6755 
L 847.009141 -485.6755 
L 843.282619 -485.6755 
L 839.556098 -485.6755 
L 835.829577 -485.6755 
L 832.103055 -485.6755 
L 828.376534 -485.6755 
L 824.650012 -485.6755 
L 820.923491 -485.6755 
L 817.19697 -485.6755 
L 813.470448 -485.6755 
L 809.743927 -485.6755 
L 806.017405 -485.6755 
L 802.290884 -485.6755 
L 798.564363 -485.6755 
L 794.837841 -485.6755 
L 791.11132 -485.6755 
L 787.384798 -485.6755 
L 783.658277 -485.6755 
L 779.931755 -485.6755 
L 776.205234 -485.6755 
L 772.478713 -485.6755 
L 768.752191 -485.6755 
L 765.02567 -485.6755 
L 761.299148 -485.6755 
L 757.572627 -485.6755 
L 753.846106 -485.6755 
L 750.119584 -485.6755 
L 746.393063 -485.6755 
L 742.666541 -485.6755 
L 738.94002 -485.6755 
L 735.213498 -485.6755 
L 731.486977 -485.6755 
L 727.760456 -485.6755 
L 724.033934 -485.6755 
L 720.307413 -485.6755 
L 716.580891 -485.6755 
L 712.85437 -485.6755 
L 709.127849 -485.6755 
L 705.401327 -485.6755 
L 701.674806 -485.6755 
L 697.948284 -485.6755 
L 694.221763 -485.6755 
L 690.495242 -485.6755 
L 686.76872 -485.6755 
L 683.042199 -485.6755 
L 679.315677 -485.6755 
L 675.589156 -485.6755 
L 671.862634 -485.6755 
L 668.136113 -405.0355 
L 664.409592 -405.0355 
L 660.68307 -405.0355 
L 656.956549 -405.0355 
L 653.230027 -405.0355 
L 649.503506 -405.0355 
L 645.776985 -405.0355 
L 642.050463 -405.0355 
L 638.323942 -405.0355 
L 634.59742 -405.0355 
L 630.870899 -405.0355 
L 627.144378 -405.0355 
L 623.417856 -405.0355 
L 619.691335 -405.0355 
L 615.964813 -405.0355 
L 612.238292 -405.0355 
L 608.51177 -405.0355 
L 604.785249 -405.0355 
L 601.058728 -405.0355 
L 597.332206 -405.0355 
L 593.605685 -405.0355 
L 589.879163 -405.0355 
L 586.152642 -405.0355 
L 582.426121 -405.0355 
L 578.699599 -82.4755 
z
" style="stroke: #0000ff; stroke-opacity: 0.2; stroke-width: 2"/>
    </defs>
    <g clip-path="url(#p6b07d53464)">
     <use xlink:href="#m8e38d74ec2" x="0" y="533.6245" style="fill: #0000ff; fill-opacity: 0.2; stroke: #0000ff; stroke-opacity: 0.2; stroke-width: 2"/>
    </g>
   </g>
   <g id="PolyCollection_6">
    <defs>
     <path id="m95cfc04f29" d="M 578.699599 -82.4755 
L 578.699599 -82.4755 
L 582.426121 -82.4755 
L 586.152642 -82.4755 
L 589.879163 -82.4755 
L 593.605685 -82.4755 
L 597.332206 -82.4755 
L 601.058728 -82.4755 
L 604.785249 -82.4755 
L 608.51177 -82.4755 
L 612.238292 -82.4755 
L 615.964813 -82.4755 
L 619.691335 -82.4755 
L 623.417856 -82.4755 
L 627.144378 -82.4755 
L 630.870899 -82.4755 
L 634.59742 -82.4755 
L 638.323942 -82.4755 
L 642.050463 -82.4755 
L 645.776985 -82.4755 
L 649.503506 -82.4755 
L 653.230027 -82.4755 
L 656.956549 -82.4755 
L 660.68307 -82.4755 
L 664.409592 -82.4755 
L 668.136113 -82.4755 
L 671.862634 -82.4755 
L 675.589156 -82.4755 
L 679.315677 -82.4755 
L 683.042199 -82.4755 
L 686.76872 -82.4755 
L 690.495242 -82.4755 
L 694.221763 -82.4755 
L 697.948284 -82.4755 
L 701.674806 -82.4755 
L 705.401327 -82.4755 
L 709.127849 -82.4755 
L 712.85437 -82.4755 
L 716.580891 -82.4755 
L 720.307413 -82.4755 
L 724.033934 -82.4755 
L 727.760456 -203.4355 
L 731.486977 -203.4355 
L 735.213498 -203.4355 
L 738.94002 -203.4355 
L 742.666541 -203.4355 
L 746.393063 -203.4355 
L 750.119584 -203.4355 
L 753.846106 -203.4355 
L 757.572627 -203.4355 
L 761.299148 -203.4355 
L 765.02567 -216.8755 
L 768.752191 -216.8755 
L 772.478713 -216.8755 
L 776.205234 -216.8755 
L 779.931755 -216.8755 
L 783.658277 -216.8755 
L 787.384798 -216.8755 
L 791.11132 -216.8755 
L 794.837841 -216.8755 
L 798.564363 -216.8755 
L 802.290884 -243.7555 
L 806.017405 -243.7555 
L 809.743927 -243.7555 
L 813.470448 -243.7555 
L 817.19697 -243.7555 
L 820.923491 -243.7555 
L 824.650012 -243.7555 
L 828.376534 -243.7555 
L 832.103055 -243.7555 
L 835.829577 -243.7555 
L 839.556098 -243.7555 
L 843.282619 -243.7555 
L 847.009141 -243.7555 
L 850.735662 -243.7555 
L 854.462184 -243.7555 
L 858.188705 -261.6755 
L 861.915227 -261.6755 
L 865.641748 -261.6755 
L 869.368269 -261.6755 
L 873.094791 -261.6755 
L 876.821312 -396.0755 
L 880.547834 -396.0755 
L 884.274355 -396.0755 
L 888.000876 -396.0755 
L 891.727398 -396.0755 
L 895.453919 -396.0755 
L 899.180441 -396.0755 
L 902.906962 -396.0755 
L 906.633483 -396.0755 
L 910.360005 -396.0755 
L 914.086526 -396.0755 
L 917.813048 -396.0755 
L 921.539569 -396.0755 
L 925.266091 -396.0755 
L 928.992612 -396.0755 
L 932.719133 -396.0755 
L 936.445655 -396.0755 
L 940.172176 -396.0755 
L 943.898698 -396.0755 
L 947.625219 -485.6755 
L 947.625219 -485.6755 
L 947.625219 -485.6755 
L 943.898698 -485.6755 
L 940.172176 -485.6755 
L 936.445655 -485.6755 
L 932.719133 -485.6755 
L 928.992612 -485.6755 
L 925.266091 -485.6755 
L 921.539569 -485.6755 
L 917.813048 -485.6755 
L 914.086526 -485.6755 
L 910.360005 -485.6755 
L 906.633483 -485.6755 
L 902.906962 -485.6755 
L 899.180441 -485.6755 
L 895.453919 -485.6755 
L 891.727398 -485.6755 
L 888.000876 -485.6755 
L 884.274355 -485.6755 
L 880.547834 -485.6755 
L 876.821312 -485.6755 
L 873.094791 -485.6755 
L 869.368269 -485.6755 
L 865.641748 -485.6755 
L 861.915227 -485.6755 
L 858.188705 -485.6755 
L 854.462184 -445.3555 
L 850.735662 -445.3555 
L 847.009141 -445.3555 
L 843.282619 -445.3555 
L 839.556098 -445.3555 
L 835.829577 -445.3555 
L 832.103055 -445.3555 
L 828.376534 -445.3555 
L 824.650012 -445.3555 
L 820.923491 -445.3555 
L 817.19697 -445.3555 
L 813.470448 -445.3555 
L 809.743927 -445.3555 
L 806.017405 -445.3555 
L 802.290884 -445.3555 
L 798.564363 -445.3555 
L 794.837841 -445.3555 
L 791.11132 -445.3555 
L 787.384798 -445.3555 
L 783.658277 -445.3555 
L 779.931755 -445.3555 
L 776.205234 -445.3555 
L 772.478713 -445.3555 
L 768.752191 -445.3555 
L 765.02567 -445.3555 
L 761.299148 -445.3555 
L 757.572627 -445.3555 
L 753.846106 -445.3555 
L 750.119584 -445.3555 
L 746.393063 -445.3555 
L 742.666541 -445.3555 
L 738.94002 -445.3555 
L 735.213498 -445.3555 
L 731.486977 -445.3555 
L 727.760456 -445.3555 
L 724.033934 -445.3555 
L 720.307413 -445.3555 
L 716.580891 -445.3555 
L 712.85437 -445.3555 
L 709.127849 -445.3555 
L 705.401327 -445.3555 
L 701.674806 -445.3555 
L 697.948284 -445.3555 
L 694.221763 -445.3555 
L 690.495242 -445.3555 
L 686.76872 -445.3555 
L 683.042199 -445.3555 
L 679.315677 -445.3555 
L 675.589156 -445.3555 
L 671.862634 -445.3555 
L 668.136113 -261.6755 
L 664.409592 -261.6755 
L 660.68307 -261.6755 
L 656.956549 -261.6755 
L 653.230027 -261.6755 
L 649.503506 -243.7555 
L 645.776985 -243.7555 
L 642.050463 -243.7555 
L 638.323942 -243.7555 
L 634.59742 -243.7555 
L 630.870899 -243.7555 
L 627.144378 -243.7555 
L 623.417856 -243.7555 
L 619.691335 -243.7555 
L 615.964813 -243.7555 
L 612.238292 -243.7555 
L 608.51177 -243.7555 
L 604.785249 -243.7555 
L 601.058728 -243.7555 
L 597.332206 -243.7555 
L 593.605685 -243.7555 
L 589.879163 -243.7555 
L 586.152642 -243.7555 
L 582.426121 -243.7555 
L 578.699599 -82.4755 
z
" style="stroke: #008000; stroke-opacity: 0.2; stroke-width: 2"/>
    </defs>
    <g clip-path="url(#p6b07d53464)">
     <use xlink:href="#m95cfc04f29" x="0" y="533.6245" style="fill: #008000; fill-opacity: 0.2; stroke: #008000; stroke-opacity: 0.2; stroke-width: 2"/>
    </g>
   </g>
   <g id="matplotlib.axis_3">
    <g id="xtick_7">
     <g id="line2d_20">
      <g>
       <use xlink:href="#mfdcdd3051f" x="578.699599" y="471.309" style="stroke: #000000; stroke-width: 2.5"/>
      </g>
     </g>
     <g id="text_19">
      <!-- 0.0 -->
      <g transform="translate(564.704849 500.18225) scale(0.176 -0.176)">
       <use xlink:href="#DejaVuSans-30"/>
       <use xlink:href="#DejaVuSans-2e" x="63.623047"/>
       <use xlink:href="#DejaVuSans-30" x="95.410156"/>
      </g>
     </g>
    </g>
    <g id="xtick_8">
     <g id="line2d_21">
      <g>
       <use xlink:href="#mfdcdd3051f" x="652.484723" y="471.309" style="stroke: #000000; stroke-width: 2.5"/>
      </g>
     </g>
     <g id="text_20">
      <!-- 0.2 -->
      <g transform="translate(638.489973 500.18225) scale(0.176 -0.176)">
       <use xlink:href="#DejaVuSans-30"/>
       <use xlink:href="#DejaVuSans-2e" x="63.623047"/>
       <use xlink:href="#DejaVuSans-32" x="95.410156"/>
      </g>
     </g>
    </g>
    <g id="xtick_9">
     <g id="line2d_22">
      <g>
       <use xlink:href="#mfdcdd3051f" x="726.269847" y="471.309" style="stroke: #000000; stroke-width: 2.5"/>
      </g>
     </g>
     <g id="text_21">
      <!-- 0.4 -->
      <g transform="translate(712.275097 500.18225) scale(0.176 -0.176)">
       <use xlink:href="#DejaVuSans-30"/>
       <use xlink:href="#DejaVuSans-2e" x="63.623047"/>
       <use xlink:href="#DejaVuSans-34" x="95.410156"/>
      </g>
     </g>
    </g>
    <g id="xtick_10">
     <g id="line2d_23">
      <g>
       <use xlink:href="#mfdcdd3051f" x="800.054971" y="471.309" style="stroke: #000000; stroke-width: 2.5"/>
      </g>
     </g>
     <g id="text_22">
      <!-- 0.6 -->
      <g transform="translate(786.060221 500.18225) scale(0.176 -0.176)">
       <use xlink:href="#DejaVuSans-30"/>
       <use xlink:href="#DejaVuSans-2e" x="63.623047"/>
       <use xlink:href="#DejaVuSans-36" x="95.410156"/>
      </g>
     </g>
    </g>
    <g id="xtick_11">
     <g id="line2d_24">
      <g>
       <use xlink:href="#mfdcdd3051f" x="873.840095" y="471.309" style="stroke: #000000; stroke-width: 2.5"/>
      </g>
     </g>
     <g id="text_23">
      <!-- 0.8 -->
      <g transform="translate(859.845345 500.18225) scale(0.176 -0.176)">
       <use xlink:href="#DejaVuSans-30"/>
       <use xlink:href="#DejaVuSans-2e" x="63.623047"/>
       <use xlink:href="#DejaVuSans-38" x="95.410156"/>
      </g>
     </g>
    </g>
    <g id="xtick_12">
     <g id="line2d_25">
      <g>
       <use xlink:href="#mfdcdd3051f" x="947.625219" y="471.309" style="stroke: #000000; stroke-width: 2.5"/>
      </g>
     </g>
     <g id="text_24">
      <!-- 1.0 -->
      <g transform="translate(933.630469 500.18225) scale(0.176 -0.176)">
       <use xlink:href="#DejaVuSans-31"/>
       <use xlink:href="#DejaVuSans-2e" x="63.623047"/>
       <use xlink:href="#DejaVuSans-30" x="95.410156"/>
      </g>
     </g>
    </g>
    <g id="text_25">
     <!-- False Positive Rate -->
     <g transform="translate(673.946909 522.4315) scale(0.192 -0.192)">
      <use xlink:href="#DejaVuSans-46"/>
      <use xlink:href="#DejaVuSans-61" x="48.394531"/>
      <use xlink:href="#DejaVuSans-6c" x="109.673828"/>
      <use xlink:href="#DejaVuSans-73" x="137.457031"/>
      <use xlink:href="#DejaVuSans-65" x="189.556641"/>
      <use xlink:href="#DejaVuSans-20" x="251.080078"/>
      <use xlink:href="#DejaVuSans-50" x="282.867188"/>
      <use xlink:href="#DejaVuSans-6f" x="339.544922"/>
      <use xlink:href="#DejaVuSans-73" x="400.726562"/>
      <use xlink:href="#DejaVuSans-69" x="452.826172"/>
      <use xlink:href="#DejaVuSans-74" x="480.609375"/>
      <use xlink:href="#DejaVuSans-69" x="519.818359"/>
      <use xlink:href="#DejaVuSans-76" x="547.601562"/>
      <use xlink:href="#DejaVuSans-65" x="606.78125"/>
      <use xlink:href="#DejaVuSans-20" x="668.304688"/>
      <use xlink:href="#DejaVuSans-52" x="700.091797"/>
      <use xlink:href="#DejaVuSans-61" x="767.324219"/>
      <use xlink:href="#DejaVuSans-74" x="828.603516"/>
      <use xlink:href="#DejaVuSans-65" x="867.8125"/>
     </g>
    </g>
   </g>
   <g id="matplotlib.axis_4">
    <g id="ytick_7">
     <g id="line2d_26">
      <g>
       <use xlink:href="#m43bbef68e5" x="560.253318" y="451.149" style="stroke: #000000; stroke-width: 2.5"/>
      </g>
     </g>
     <g id="text_26">
      <!-- 0.0 -->
      <g transform="translate(516.763818 457.835625) scale(0.176 -0.176)">
       <use xlink:href="#DejaVuSans-30"/>
       <use xlink:href="#DejaVuSans-2e" x="63.623047"/>
       <use xlink:href="#DejaVuSans-30" x="95.410156"/>
      </g>
     </g>
    </g>
    <g id="ytick_8">
     <g id="line2d_27">
      <g>
       <use xlink:href="#m43bbef68e5" x="560.253318" y="370.509" style="stroke: #000000; stroke-width: 2.5"/>
      </g>
     </g>
     <g id="text_27">
      <!-- 0.2 -->
      <g transform="translate(516.763818 377.195625) scale(0.176 -0.176)">
       <use xlink:href="#DejaVuSans-30"/>
       <use xlink:href="#DejaVuSans-2e" x="63.623047"/>
       <use xlink:href="#DejaVuSans-32" x="95.410156"/>
      </g>
     </g>
    </g>
    <g id="ytick_9">
     <g id="line2d_28">
      <g>
       <use xlink:href="#m43bbef68e5" x="560.253318" y="289.869" style="stroke: #000000; stroke-width: 2.5"/>
      </g>
     </g>
     <g id="text_28">
      <!-- 0.4 -->
      <g transform="translate(516.763818 296.555625) scale(0.176 -0.176)">
       <use xlink:href="#DejaVuSans-30"/>
       <use xlink:href="#DejaVuSans-2e" x="63.623047"/>
       <use xlink:href="#DejaVuSans-34" x="95.410156"/>
      </g>
     </g>
    </g>
    <g id="ytick_10">
     <g id="line2d_29">
      <g>
       <use xlink:href="#m43bbef68e5" x="560.253318" y="209.229" style="stroke: #000000; stroke-width: 2.5"/>
      </g>
     </g>
     <g id="text_29">
      <!-- 0.6 -->
      <g transform="translate(516.763818 215.915625) scale(0.176 -0.176)">
       <use xlink:href="#DejaVuSans-30"/>
       <use xlink:href="#DejaVuSans-2e" x="63.623047"/>
       <use xlink:href="#DejaVuSans-36" x="95.410156"/>
      </g>
     </g>
    </g>
    <g id="ytick_11">
     <g id="line2d_30">
      <g>
       <use xlink:href="#m43bbef68e5" x="560.253318" y="128.589" style="stroke: #000000; stroke-width: 2.5"/>
      </g>
     </g>
     <g id="text_30">
      <!-- 0.8 -->
      <g transform="translate(516.763818 135.275625) scale(0.176 -0.176)">
       <use xlink:href="#DejaVuSans-30"/>
       <use xlink:href="#DejaVuSans-2e" x="63.623047"/>
       <use xlink:href="#DejaVuSans-38" x="95.410156"/>
      </g>
     </g>
    </g>
    <g id="ytick_12">
     <g id="line2d_31">
      <g>
       <use xlink:href="#m43bbef68e5" x="560.253318" y="47.949" style="stroke: #000000; stroke-width: 2.5"/>
      </g>
     </g>
     <g id="text_31">
      <!-- 1.0 -->
      <g transform="translate(516.763818 54.635625) scale(0.176 -0.176)">
       <use xlink:href="#DejaVuSans-31"/>
       <use xlink:href="#DejaVuSans-2e" x="63.623047"/>
       <use xlink:href="#DejaVuSans-30" x="95.410156"/>
      </g>
     </g>
    </g>
    <g id="text_32">
     <!-- True Positive Rate -->
     <g transform="translate(508.770818 335.046) rotate(-90) scale(0.192 -0.192)">
      <use xlink:href="#DejaVuSans-54"/>
      <use xlink:href="#DejaVuSans-72" x="46.333984"/>
      <use xlink:href="#DejaVuSans-75" x="87.447266"/>
      <use xlink:href="#DejaVuSans-65" x="150.826172"/>
      <use xlink:href="#DejaVuSans-20" x="212.349609"/>
      <use xlink:href="#DejaVuSans-50" x="244.136719"/>
      <use xlink:href="#DejaVuSans-6f" x="300.814453"/>
      <use xlink:href="#DejaVuSans-73" x="361.996094"/>
      <use xlink:href="#DejaVuSans-69" x="414.095703"/>
      <use xlink:href="#DejaVuSans-74" x="441.878906"/>
      <use xlink:href="#DejaVuSans-69" x="481.087891"/>
      <use xlink:href="#DejaVuSans-76" x="508.871094"/>
      <use xlink:href="#DejaVuSans-65" x="568.050781"/>
      <use xlink:href="#DejaVuSans-20" x="629.574219"/>
      <use xlink:href="#DejaVuSans-52" x="661.361328"/>
      <use xlink:href="#DejaVuSans-61" x="728.59375"/>
      <use xlink:href="#DejaVuSans-74" x="789.873047"/>
      <use xlink:href="#DejaVuSans-65" x="829.082031"/>
     </g>
    </g>
   </g>
   <g id="line2d_32">
    <path d="M 578.699599 451.149 
L 582.426121 316.301 
L 586.152642 316.301 
L 589.879163 316.301 
L 593.605685 316.301 
L 597.332206 316.301 
L 601.058728 316.301 
L 604.785249 316.301 
L 608.51177 316.301 
L 612.238292 316.301 
L 615.964813 316.301 
L 619.691335 316.301 
L 623.417856 316.301 
L 627.144378 316.301 
L 630.870899 316.301 
L 634.59742 316.301 
L 638.323942 316.301 
L 642.050463 316.301 
L 645.776985 316.301 
L 649.503506 316.301 
L 653.230027 271.501 
L 656.956549 271.501 
L 660.68307 271.501 
L 664.409592 271.501 
L 668.136113 271.501 
L 671.862634 206.989 
L 675.589156 206.989 
L 679.315677 206.989 
L 683.042199 206.989 
L 686.76872 206.989 
L 690.495242 206.989 
L 694.221763 206.989 
L 697.948284 206.989 
L 701.674806 206.989 
L 705.401327 206.989 
L 709.127849 206.989 
L 712.85437 206.989 
L 716.580891 206.989 
L 720.307413 206.989 
L 724.033934 206.989 
L 727.760456 175.629 
L 731.486977 175.629 
L 735.213498 175.629 
L 738.94002 175.629 
L 742.666541 175.629 
L 746.393063 175.629 
L 750.119584 175.629 
L 753.846106 175.629 
L 757.572627 175.629 
L 761.299148 175.629 
L 765.02567 147.405 
L 768.752191 147.405 
L 772.478713 147.405 
L 776.205234 147.405 
L 779.931755 147.405 
L 783.658277 147.405 
L 787.384798 147.405 
L 791.11132 147.405 
L 794.837841 147.405 
L 798.564363 147.405 
L 802.290884 111.565 
L 806.017405 111.565 
L 809.743927 111.565 
L 813.470448 111.565 
L 817.19697 111.565 
L 820.923491 111.565 
L 824.650012 111.565 
L 828.376534 111.565 
L 832.103055 111.565 
L 835.829577 111.565 
L 839.556098 111.565 
L 843.282619 111.565 
L 847.009141 111.565 
L 850.735662 111.565 
L 854.462184 111.565 
L 858.188705 107.533 
L 861.915227 107.533 
L 865.641748 107.533 
L 869.368269 107.533 
L 873.094791 107.533 
L 876.821312 85.133 
L 880.547834 85.133 
L 884.274355 85.133 
L 888.000876 85.133 
L 891.727398 85.133 
L 895.453919 85.133 
L 899.180441 85.133 
L 902.906962 85.133 
L 906.633483 85.133 
L 910.360005 85.133 
L 914.086526 85.133 
L 917.813048 85.133 
L 921.539569 85.133 
L 925.266091 85.133 
L 928.992612 85.133 
L 932.719133 85.133 
L 936.445655 85.133 
L 940.172176 85.133 
L 943.898698 85.133 
L 947.625219 47.949 
" clip-path="url(#p6b07d53464)" style="fill: none; stroke: #ffa500; stroke-width: 3; stroke-linecap: square"/>
   </g>
   <g id="line2d_33">
    <path d="M 578.699599 451.149 
L 582.426121 263.106657 
L 586.152642 262.328313 
L 589.879163 261.54997 
L 593.605685 260.771626 
L 597.332206 259.993283 
L 601.058728 259.214939 
L 604.785249 258.436596 
L 608.51177 257.658253 
L 612.238292 256.879909 
L 615.964813 256.101566 
L 619.691335 255.323222 
L 623.417856 254.544879 
L 627.144378 253.766535 
L 630.870899 252.988192 
L 634.59742 252.209848 
L 638.323942 251.431505 
L 642.050463 250.653162 
L 645.776985 249.874818 
L 649.503506 249.096475 
L 653.230027 234.968636 
L 656.956549 234.642818 
L 660.68307 234.317 
L 664.409592 233.991182 
L 668.136113 233.665364 
L 671.862634 197.010818 
L 675.589156 196.522091 
L 679.315677 196.033364 
L 683.042199 195.544636 
L 686.76872 195.055909 
L 690.495242 194.567182 
L 694.221763 194.078455 
L 697.948284 193.589727 
L 701.674806 193.101 
L 705.401327 192.612273 
L 709.127849 192.123545 
L 712.85437 191.634818 
L 716.580891 191.146091 
L 720.307413 190.657364 
L 724.033934 190.168636 
L 727.760456 153.749404 
L 731.486977 153.034414 
L 735.213498 152.319424 
L 738.94002 151.604434 
L 742.666541 150.889444 
L 746.393063 150.174455 
L 750.119584 149.459465 
L 753.846106 148.744475 
L 757.572627 148.029485 
L 761.299148 147.314495 
L 765.02567 110.39296 
L 768.752191 109.840879 
L 772.478713 109.288798 
L 776.205234 108.736717 
L 779.931755 108.184636 
L 783.658277 107.632556 
L 787.384798 107.080475 
L 791.11132 106.528394 
L 794.837841 105.976313 
L 798.564363 105.424232 
L 802.290884 77.992152 
L 806.017405 77.440071 
L 809.743927 76.88799 
L 813.470448 76.335909 
L 817.19697 75.783828 
L 820.923491 75.231747 
L 824.650012 74.679667 
L 828.376534 74.127586 
L 832.103055 73.575505 
L 835.829577 73.023424 
L 839.556098 72.471343 
L 843.282619 71.919263 
L 847.009141 71.367182 
L 850.735662 70.815101 
L 854.462184 70.26302 
L 858.188705 65.923303 
L 861.915227 65.69704 
L 865.641748 65.470778 
L 869.368269 65.244515 
L 873.094791 65.018253 
L 876.821312 56.013 
L 880.547834 56.013 
L 884.274355 56.013 
L 888.000876 56.013 
L 891.727398 56.013 
L 895.453919 56.013 
L 899.180441 56.013 
L 902.906962 56.013 
L 906.633483 56.013 
L 910.360005 56.013 
L 914.086526 56.013 
L 917.813048 56.013 
L 921.539569 56.013 
L 925.266091 56.013 
L 928.992612 56.013 
L 932.719133 56.013 
L 936.445655 56.013 
L 940.172176 56.013 
L 943.898698 56.013 
L 947.625219 47.949 
" clip-path="url(#p6b07d53464)" style="fill: none; stroke: #0000ff; stroke-width: 3; stroke-linecap: square"/>
   </g>
   <g id="line2d_34">
    <path d="M 578.699599 451.149 
L 582.426121 372.301 
L 586.152642 372.301 
L 589.879163 372.301 
L 593.605685 372.301 
L 597.332206 372.301 
L 601.058728 372.301 
L 604.785249 372.301 
L 608.51177 372.301 
L 612.238292 372.301 
L 615.964813 372.301 
L 619.691335 372.301 
L 623.417856 372.301 
L 627.144378 372.301 
L 630.870899 372.301 
L 634.59742 372.301 
L 638.323942 372.301 
L 642.050463 372.301 
L 645.776985 372.301 
L 649.503506 372.301 
L 653.230027 358.861 
L 656.956549 358.861 
L 660.68307 358.861 
L 664.409592 358.861 
L 668.136113 358.861 
L 671.862634 302.413 
L 675.589156 302.413 
L 679.315677 302.413 
L 683.042199 302.413 
L 686.76872 302.413 
L 690.495242 302.413 
L 694.221763 302.413 
L 697.948284 302.413 
L 701.674806 302.413 
L 705.401327 302.413 
L 709.127849 302.413 
L 712.85437 302.413 
L 716.580891 302.413 
L 720.307413 302.413 
L 724.033934 302.413 
L 727.760456 226.253 
L 731.486977 226.253 
L 735.213498 226.253 
L 738.94002 226.253 
L 742.666541 226.253 
L 746.393063 226.253 
L 750.119584 226.253 
L 753.846106 226.253 
L 757.572627 226.253 
L 761.299148 226.253 
L 765.02567 193.997 
L 768.752191 193.997 
L 772.478713 193.997 
L 776.205234 193.997 
L 779.931755 193.997 
L 783.658277 193.997 
L 787.384798 193.997 
L 791.11132 193.997 
L 794.837841 193.997 
L 798.564363 193.997 
L 802.290884 158.157 
L 806.017405 158.157 
L 809.743927 158.157 
L 813.470448 158.157 
L 817.19697 158.157 
L 820.923491 158.157 
L 824.650012 158.157 
L 828.376534 158.157 
L 832.103055 158.157 
L 835.829577 158.157 
L 839.556098 158.157 
L 843.282619 158.157 
L 847.009141 158.157 
L 850.735662 158.157 
L 854.462184 158.157 
L 858.188705 109.773 
L 861.915227 109.773 
L 865.641748 109.773 
L 869.368269 109.773 
L 873.094791 109.773 
L 876.821312 64.973 
L 880.547834 64.973 
L 884.274355 64.973 
L 888.000876 64.973 
L 891.727398 64.973 
L 895.453919 64.973 
L 899.180441 64.973 
L 902.906962 64.973 
L 906.633483 64.973 
L 910.360005 64.973 
L 914.086526 64.973 
L 917.813048 64.973 
L 921.539569 64.973 
L 925.266091 64.973 
L 928.992612 64.973 
L 932.719133 64.973 
L 936.445655 64.973 
L 940.172176 64.973 
L 943.898698 64.973 
L 947.625219 47.949 
" clip-path="url(#p6b07d53464)" style="fill: none; stroke: #008000; stroke-width: 3; stroke-linecap: square"/>
   </g>
   <g id="line2d_35">
    <path d="M 578.699599 451.149 
L 947.625219 47.949 
" clip-path="url(#p6b07d53464)" style="fill: none; stroke-dasharray: 11.1,4.8; stroke-dashoffset: 0; stroke: #000000; stroke-opacity: 0.5; stroke-width: 3"/>
   </g>
   <g id="patch_9">
    <path d="M 560.253318 471.309 
L 560.253318 27.789 
" style="fill: none; stroke: #000000; stroke-width: 2.5; stroke-linejoin: miter; stroke-linecap: square"/>
   </g>
   <g id="patch_10">
    <path d="M 966.0715 471.309 
L 966.0715 27.789 
" style="fill: none; stroke: #000000; stroke-width: 2.5; stroke-linejoin: miter; stroke-linecap: square"/>
   </g>
   <g id="patch_11">
    <path d="M 560.253318 471.309 
L 966.0715 471.309 
" style="fill: none; stroke: #000000; stroke-width: 2.5; stroke-linejoin: miter; stroke-linecap: square"/>
   </g>
   <g id="patch_12">
    <path d="M 560.253318 27.789 
L 966.0715 27.789 
" style="fill: none; stroke: #000000; stroke-width: 2.5; stroke-linejoin: miter; stroke-linecap: square"/>
   </g>
   <g id="text_33">
    <!-- Approach CDT_DI_FI_IS_LIVE -->
    <g transform="translate(627.028409 21.789) scale(0.192 -0.192)">
     <use xlink:href="#DejaVuSans-41"/>
     <use xlink:href="#DejaVuSans-70" x="68.408203"/>
     <use xlink:href="#DejaVuSans-70" x="131.884766"/>
     <use xlink:href="#DejaVuSans-72" x="195.361328"/>
     <use xlink:href="#DejaVuSans-6f" x="234.224609"/>
     <use xlink:href="#DejaVuSans-61" x="295.40625"/>
     <use xlink:href="#DejaVuSans-63" x="356.685547"/>
     <use xlink:href="#DejaVuSans-68" x="411.666016"/>
     <use xlink:href="#DejaVuSans-20" x="475.044922"/>
     <use xlink:href="#DejaVuSans-43" x="506.832031"/>
     <use xlink:href="#DejaVuSans-44" x="576.65625"/>
     <use xlink:href="#DejaVuSans-54" x="653.658203"/>
     <use xlink:href="#DejaVuSans-5f" x="714.742188"/>
     <use xlink:href="#DejaVuSans-44" x="764.742188"/>
     <use xlink:href="#DejaVuSans-49" x="841.744141"/>
     <use xlink:href="#DejaVuSans-5f" x="871.236328"/>
     <use xlink:href="#DejaVuSans-46" x="921.236328"/>
     <use xlink:href="#DejaVuSans-49" x="978.755859"/>
     <use xlink:href="#DejaVuSans-5f" x="1008.248047"/>
     <use xlink:href="#DejaVuSans-49" x="1058.248047"/>
     <use xlink:href="#DejaVuSans-53" x="1087.740234"/>
     <use xlink:href="#DejaVuSans-5f" x="1151.216797"/>
     <use xlink:href="#DejaVuSans-4c" x="1201.216797"/>
     <use xlink:href="#DejaVuSans-49" x="1256.929688"/>
     <use xlink:href="#DejaVuSans-56" x="1286.421875"/>
     <use xlink:href="#DejaVuSans-45" x="1354.830078"/>
    </g>
   </g>
   <g id="legend_2">
    <g id="patch_13">
     <path d="M 572.573318 119.3695 
L 718.001568 119.3695 
Q 721.521568 119.3695 721.521568 115.8495 
L 721.521568 40.109 
Q 721.521568 36.589 718.001568 36.589 
L 572.573318 36.589 
Q 569.053318 36.589 569.053318 40.109 
L 569.053318 115.8495 
Q 569.053318 119.3695 572.573318 119.3695 
z
" style="fill: #ffffff; opacity: 0.8; stroke: #cccccc; stroke-width: 2; stroke-linejoin: miter"/>
    </g>
    <g id="line2d_36">
     <path d="M 576.093318 50.84225 
L 593.693318 50.84225 
L 611.293318 50.84225 
" style="fill: none; stroke: #ffa500; stroke-width: 3; stroke-linecap: square"/>
    </g>
    <g id="text_34">
     <!-- LR: 0.67 -->
     <g transform="translate(625.373318 57.00225) scale(0.176 -0.176)">
      <use xlink:href="#DejaVuSans-4c"/>
      <use xlink:href="#DejaVuSans-52" x="55.712891"/>
      <use xlink:href="#DejaVuSans-3a" x="122.070312"/>
      <use xlink:href="#DejaVuSans-20" x="155.761719"/>
      <use xlink:href="#DejaVuSans-30" x="187.548828"/>
      <use xlink:href="#DejaVuSans-2e" x="251.171875"/>
      <use xlink:href="#DejaVuSans-36" x="282.958984"/>
      <use xlink:href="#DejaVuSans-37" x="346.582031"/>
     </g>
    </g>
    <g id="line2d_37">
     <path d="M 576.093318 76.67575 
L 593.693318 76.67575 
L 611.293318 76.67575 
" style="fill: none; stroke: #0000ff; stroke-width: 3; stroke-linecap: square"/>
    </g>
    <g id="text_35">
     <!-- RF: 0.76 -->
     <g transform="translate(625.373318 82.83575) scale(0.176 -0.176)">
      <use xlink:href="#DejaVuSans-52"/>
      <use xlink:href="#DejaVuSans-46" x="69.482422"/>
      <use xlink:href="#DejaVuSans-3a" x="119.251953"/>
      <use xlink:href="#DejaVuSans-20" x="152.943359"/>
      <use xlink:href="#DejaVuSans-30" x="184.730469"/>
      <use xlink:href="#DejaVuSans-2e" x="248.353516"/>
      <use xlink:href="#DejaVuSans-37" x="280.140625"/>
      <use xlink:href="#DejaVuSans-36" x="343.763672"/>
     </g>
    </g>
    <g id="line2d_38">
     <path d="M 576.093318 102.50925 
L 593.693318 102.50925 
L 611.293318 102.50925 
" style="fill: none; stroke: #008000; stroke-width: 3; stroke-linecap: square"/>
    </g>
    <g id="text_36">
     <!-- SVM: 0.57 -->
     <g transform="translate(625.373318 108.66925) scale(0.176 -0.176)">
      <use xlink:href="#DejaVuSans-53"/>
      <use xlink:href="#DejaVuSans-56" x="63.476562"/>
      <use xlink:href="#DejaVuSans-4d" x="131.884766"/>
      <use xlink:href="#DejaVuSans-3a" x="218.164062"/>
      <use xlink:href="#DejaVuSans-20" x="251.855469"/>
      <use xlink:href="#DejaVuSans-30" x="283.642578"/>
      <use xlink:href="#DejaVuSans-2e" x="347.265625"/>
      <use xlink:href="#DejaVuSans-35" x="379.052734"/>
      <use xlink:href="#DejaVuSans-37" x="442.675781"/>
     </g>
    </g>
   </g>
  </g>
 </g>
 <defs>
  <clipPath id="pa7261075c2">
   <rect x="73.2715" y="27.789" width="405.818182" height="443.52"/>
  </clipPath>
  <clipPath id="p6b07d53464">
   <rect x="560.253318" y="27.789" width="405.818182" height="443.52"/>
  </clipPath>
 </defs>
</svg>
