<?xml version="1.0" encoding="utf-8" standalone="no"?>
<!DOCTYPE svg PUBLIC "-//W3C//DTD SVG 1.1//EN"
  "http://www.w3.org/Graphics/SVG/1.1/DTD/svg11.dtd">
<svg xmlns:xlink="http://www.w3.org/1999/xlink" width="973.2715pt" height="533.6245pt" viewBox="0 0 973.2715 533.6245" xmlns="http://www.w3.org/2000/svg" version="1.1">
 <metadata>
  <rdf:RDF xmlns:dc="http://purl.org/dc/elements/1.1/" xmlns:cc="http://creativecommons.org/ns#" xmlns:rdf="http://www.w3.org/1999/02/22-rdf-syntax-ns#">
   <cc:Work>
    <dc:type rdf:resource="http://purl.org/dc/dcmitype/StillImage"/>
    <dc:date>2023-05-11T17:16:00.036130</dc:date>
    <dc:format>image/svg+xml</dc:format>
    <dc:creator>
     <cc:Agent>
      <dc:title>Matplotlib v3.6.2, https://matplotlib.org/</dc:title>
     </cc:Agent>
    </dc:creator>
   </cc:Work>
  </rdf:RDF>
 </metadata>
 <defs>
  <style type="text/css">*{stroke-linejoin: round; stroke-linecap: butt}</style>
 </defs>
 <g id="figure_1">
  <g id="patch_1">
   <path d="M 0 533.6245 
L 973.2715 533.6245 
L 973.2715 0 
L 0 0 
z
" style="fill: #ffffff"/>
  </g>
  <g id="axes_1">
   <g id="patch_2">
    <path d="M 73.2715 471.309 
L 479.089682 471.309 
L 479.089682 27.789 
L 73.2715 27.789 
z
" style="fill: #ffffff"/>
   </g>
   <g id="PolyCollection_1">
    <defs>
     <path id="mdb5ef2d9ea" d="M 91.717781 -82.4755 
L 91.717781 -82.4755 
L 95.444302 -140.0755 
L 99.170824 -140.0755 
L 102.897345 -140.0755 
L 106.623867 -140.0755 
L 110.350388 -140.0755 
L 114.076909 -140.0755 
L 117.803431 -140.0755 
L 121.529952 -140.0755 
L 125.256474 -140.0755 
L 128.982995 -140.0755 
L 132.709517 -140.0755 
L 136.436038 -140.0755 
L 140.162559 -140.0755 
L 143.889081 -140.0755 
L 147.615602 -197.6755 
L 151.342124 -197.6755 
L 155.068645 -197.6755 
L 158.795166 -197.6755 
L 162.521688 -197.6755 
L 166.248209 -197.6755 
L 169.974731 -197.6755 
L 173.701252 -197.6755 
L 177.427773 -197.6755 
L 181.154295 -197.6755 
L 184.880816 -197.6755 
L 188.607338 -197.6755 
L 192.333859 -197.6755 
L 196.060381 -197.6755 
L 199.786902 -370.4755 
L 203.513423 -370.4755 
L 207.239945 -370.4755 
L 210.966466 -370.4755 
L 214.692988 -370.4755 
L 218.419509 -370.4755 
L 222.14603 -370.4755 
L 225.872552 -370.4755 
L 229.599073 -370.4755 
L 233.325595 -370.4755 
L 237.052116 -370.4755 
L 240.778637 -370.4755 
L 244.505159 -370.4755 
L 248.23168 -370.4755 
L 251.958202 -428.0755 
L 255.684723 -428.0755 
L 259.411245 -428.0755 
L 263.137766 -428.0755 
L 266.864287 -428.0755 
L 270.590809 -428.0755 
L 274.31733 -428.0755 
L 278.043852 -428.0755 
L 281.770373 -428.0755 
L 285.496894 -428.0755 
L 289.223416 -428.0755 
L 292.949937 -428.0755 
L 296.676459 -428.0755 
L 300.40298 -428.0755 
L 304.129502 -428.0755 
L 307.856023 -428.0755 
L 311.582544 -428.0755 
L 315.309066 -428.0755 
L 319.035587 -428.0755 
L 322.762109 -428.0755 
L 326.48863 -428.0755 
L 330.215151 -428.0755 
L 333.941673 -428.0755 
L 337.668194 -428.0755 
L 341.394716 -428.0755 
L 345.121237 -428.0755 
L 348.847758 -428.0755 
L 352.57428 -428.0755 
L 356.300801 -485.6755 
L 360.027323 -485.6755 
L 363.753844 -485.6755 
L 367.480366 -485.6755 
L 371.206887 -485.6755 
L 374.933408 -485.6755 
L 378.65993 -485.6755 
L 382.386451 -485.6755 
L 386.112973 -485.6755 
L 389.839494 -485.6755 
L 393.566015 -485.6755 
L 397.292537 -485.6755 
L 401.019058 -485.6755 
L 404.74558 -485.6755 
L 408.472101 -485.6755 
L 412.198622 -485.6755 
L 415.925144 -485.6755 
L 419.651665 -485.6755 
L 423.378187 -485.6755 
L 427.104708 -485.6755 
L 430.83123 -485.6755 
L 434.557751 -485.6755 
L 438.284272 -485.6755 
L 442.010794 -485.6755 
L 445.737315 -485.6755 
L 449.463837 -485.6755 
L 453.190358 -485.6755 
L 456.916879 -485.6755 
L 460.643401 -485.6755 
L 460.643401 -485.6755 
L 460.643401 -485.6755 
L 456.916879 -485.6755 
L 453.190358 -485.6755 
L 449.463837 -485.6755 
L 445.737315 -485.6755 
L 442.010794 -485.6755 
L 438.284272 -485.6755 
L 434.557751 -485.6755 
L 430.83123 -485.6755 
L 427.104708 -485.6755 
L 423.378187 -485.6755 
L 419.651665 -485.6755 
L 415.925144 -485.6755 
L 412.198622 -485.6755 
L 408.472101 -485.6755 
L 404.74558 -485.6755 
L 401.019058 -485.6755 
L 397.292537 -485.6755 
L 393.566015 -485.6755 
L 389.839494 -485.6755 
L 386.112973 -485.6755 
L 382.386451 -485.6755 
L 378.65993 -485.6755 
L 374.933408 -485.6755 
L 371.206887 -485.6755 
L 367.480366 -485.6755 
L 363.753844 -485.6755 
L 360.027323 -485.6755 
L 356.300801 -485.6755 
L 352.57428 -485.6755 
L 348.847758 -485.6755 
L 345.121237 -485.6755 
L 341.394716 -485.6755 
L 337.668194 -485.6755 
L 333.941673 -485.6755 
L 330.215151 -485.6755 
L 326.48863 -485.6755 
L 322.762109 -485.6755 
L 319.035587 -485.6755 
L 315.309066 -485.6755 
L 311.582544 -485.6755 
L 307.856023 -485.6755 
L 304.129502 -485.6755 
L 300.40298 -485.6755 
L 296.676459 -485.6755 
L 292.949937 -485.6755 
L 289.223416 -485.6755 
L 285.496894 -485.6755 
L 281.770373 -485.6755 
L 278.043852 -485.6755 
L 274.31733 -485.6755 
L 270.590809 -485.6755 
L 266.864287 -485.6755 
L 263.137766 -485.6755 
L 259.411245 -485.6755 
L 255.684723 -485.6755 
L 251.958202 -485.6755 
L 248.23168 -485.6755 
L 244.505159 -485.6755 
L 240.778637 -485.6755 
L 237.052116 -485.6755 
L 233.325595 -485.6755 
L 229.599073 -485.6755 
L 225.872552 -485.6755 
L 222.14603 -485.6755 
L 218.419509 -485.6755 
L 214.692988 -485.6755 
L 210.966466 -485.6755 
L 207.239945 -485.6755 
L 203.513423 -485.6755 
L 199.786902 -485.6755 
L 196.060381 -485.6755 
L 192.333859 -485.6755 
L 188.607338 -485.6755 
L 184.880816 -485.6755 
L 181.154295 -485.6755 
L 177.427773 -485.6755 
L 173.701252 -485.6755 
L 169.974731 -485.6755 
L 166.248209 -485.6755 
L 162.521688 -485.6755 
L 158.795166 -485.6755 
L 155.068645 -485.6755 
L 151.342124 -485.6755 
L 147.615602 -485.6755 
L 143.889081 -428.0755 
L 140.162559 -428.0755 
L 136.436038 -428.0755 
L 132.709517 -428.0755 
L 128.982995 -428.0755 
L 125.256474 -428.0755 
L 121.529952 -428.0755 
L 117.803431 -428.0755 
L 114.076909 -428.0755 
L 110.350388 -428.0755 
L 106.623867 -428.0755 
L 102.897345 -428.0755 
L 99.170824 -428.0755 
L 95.444302 -428.0755 
L 91.717781 -82.4755 
z
" style="stroke: #ffa500; stroke-opacity: 0.2; stroke-width: 2"/>
    </defs>
    <g clip-path="url(#pc50d33ebd4)">
     <use xlink:href="#mdb5ef2d9ea" x="0" y="533.6245" style="fill: #ffa500; fill-opacity: 0.2; stroke: #ffa500; stroke-opacity: 0.2; stroke-width: 2"/>
    </g>
   </g>
   <g id="PolyCollection_2">
    <defs>
     <path id="m4cf8b82ea6" d="M 91.717781 -82.4755 
L 91.717781 -82.4755 
L 95.444302 -197.6755 
L 99.170824 -197.6755 
L 102.897345 -197.6755 
L 106.623867 -197.6755 
L 110.350388 -197.6755 
L 114.076909 -197.6755 
L 117.803431 -197.6755 
L 121.529952 -197.6755 
L 125.256474 -197.6755 
L 128.982995 -197.6755 
L 132.709517 -197.6755 
L 136.436038 -197.6755 
L 140.162559 -197.6755 
L 143.889081 -197.6755 
L 147.615602 -197.6755 
L 151.342124 -197.6755 
L 155.068645 -197.6755 
L 158.795166 -197.6755 
L 162.521688 -197.6755 
L 166.248209 -197.6755 
L 169.974731 -197.6755 
L 173.701252 -197.6755 
L 177.427773 -197.6755 
L 181.154295 -197.6755 
L 184.880816 -197.6755 
L 188.607338 -197.6755 
L 192.333859 -197.6755 
L 196.060381 -197.6755 
L 199.786902 -200.584591 
L 203.513423 -204.657318 
L 207.239945 -208.730045 
L 210.966466 -212.802773 
L 214.692988 -216.8755 
L 218.419509 -220.948227 
L 222.14603 -225.020955 
L 225.872552 -229.093682 
L 229.599073 -233.166409 
L 233.325595 -237.239136 
L 237.052116 -241.311864 
L 240.778637 -245.384591 
L 244.505159 -249.457318 
L 248.23168 -253.530045 
L 251.958202 -257.602773 
L 255.684723 -261.6755 
L 259.411245 -265.748227 
L 263.137766 -269.820955 
L 266.864287 -273.893682 
L 270.590809 -277.966409 
L 274.31733 -282.039136 
L 278.043852 -286.111864 
L 281.770373 -290.184591 
L 285.496894 -294.257318 
L 289.223416 -298.330045 
L 292.949937 -302.402773 
L 296.676459 -306.4755 
L 300.40298 -310.548227 
L 304.129502 -314.620955 
L 307.856023 -318.693682 
L 311.582544 -322.766409 
L 315.309066 -326.839136 
L 319.035587 -330.911864 
L 322.762109 -334.984591 
L 326.48863 -339.057318 
L 330.215151 -343.130045 
L 333.941673 -347.202773 
L 337.668194 -351.2755 
L 341.394716 -355.348227 
L 345.121237 -359.420955 
L 348.847758 -363.493682 
L 352.57428 -367.566409 
L 356.300801 -428.0755 
L 360.027323 -428.0755 
L 363.753844 -428.0755 
L 367.480366 -428.0755 
L 371.206887 -428.0755 
L 374.933408 -428.0755 
L 378.65993 -428.0755 
L 382.386451 -428.0755 
L 386.112973 -428.0755 
L 389.839494 -428.0755 
L 393.566015 -428.0755 
L 397.292537 -428.0755 
L 401.019058 -428.0755 
L 404.74558 -428.0755 
L 408.472101 -485.6755 
L 412.198622 -485.6755 
L 415.925144 -485.6755 
L 419.651665 -485.6755 
L 423.378187 -485.6755 
L 427.104708 -485.6755 
L 430.83123 -485.6755 
L 434.557751 -485.6755 
L 438.284272 -485.6755 
L 442.010794 -485.6755 
L 445.737315 -485.6755 
L 449.463837 -485.6755 
L 453.190358 -485.6755 
L 456.916879 -485.6755 
L 460.643401 -485.6755 
L 460.643401 -485.6755 
L 460.643401 -485.6755 
L 456.916879 -485.6755 
L 453.190358 -485.6755 
L 449.463837 -485.6755 
L 445.737315 -485.6755 
L 442.010794 -485.6755 
L 438.284272 -485.6755 
L 434.557751 -485.6755 
L 430.83123 -485.6755 
L 427.104708 -485.6755 
L 423.378187 -485.6755 
L 419.651665 -485.6755 
L 415.925144 -485.6755 
L 412.198622 -485.6755 
L 408.472101 -485.6755 
L 404.74558 -485.6755 
L 401.019058 -485.6755 
L 397.292537 -485.6755 
L 393.566015 -485.6755 
L 389.839494 -485.6755 
L 386.112973 -485.6755 
L 382.386451 -485.6755 
L 378.65993 -485.6755 
L 374.933408 -485.6755 
L 371.206887 -485.6755 
L 367.480366 -485.6755 
L 363.753844 -485.6755 
L 360.027323 -485.6755 
L 356.300801 -485.6755 
L 352.57428 -485.6755 
L 348.847758 -485.6755 
L 345.121237 -485.6755 
L 341.394716 -485.6755 
L 337.668194 -485.6755 
L 333.941673 -485.6755 
L 330.215151 -485.6755 
L 326.48863 -485.6755 
L 322.762109 -485.6755 
L 319.035587 -485.6755 
L 315.309066 -485.6755 
L 311.582544 -485.6755 
L 307.856023 -485.6755 
L 304.129502 -485.6755 
L 300.40298 -485.6755 
L 296.676459 -485.6755 
L 292.949937 -485.6755 
L 289.223416 -485.6755 
L 285.496894 -485.6755 
L 281.770373 -485.6755 
L 278.043852 -485.6755 
L 274.31733 -485.6755 
L 270.590809 -485.6755 
L 266.864287 -485.6755 
L 263.137766 -485.6755 
L 259.411245 -485.6755 
L 255.684723 -485.6755 
L 251.958202 -485.6755 
L 248.23168 -485.6755 
L 244.505159 -485.6755 
L 240.778637 -485.6755 
L 237.052116 -485.6755 
L 233.325595 -485.6755 
L 229.599073 -485.6755 
L 225.872552 -485.6755 
L 222.14603 -485.6755 
L 218.419509 -485.6755 
L 214.692988 -485.6755 
L 210.966466 -485.6755 
L 207.239945 -485.6755 
L 203.513423 -485.6755 
L 199.786902 -485.6755 
L 196.060381 -428.0755 
L 192.333859 -428.0755 
L 188.607338 -428.0755 
L 184.880816 -428.0755 
L 181.154295 -428.0755 
L 177.427773 -428.0755 
L 173.701252 -428.0755 
L 169.974731 -428.0755 
L 166.248209 -428.0755 
L 162.521688 -428.0755 
L 158.795166 -428.0755 
L 155.068645 -428.0755 
L 151.342124 -428.0755 
L 147.615602 -428.0755 
L 143.889081 -428.0755 
L 140.162559 -428.0755 
L 136.436038 -428.0755 
L 132.709517 -428.0755 
L 128.982995 -428.0755 
L 125.256474 -428.0755 
L 121.529952 -428.0755 
L 117.803431 -428.0755 
L 114.076909 -428.0755 
L 110.350388 -428.0755 
L 106.623867 -428.0755 
L 102.897345 -428.0755 
L 99.170824 -428.0755 
L 95.444302 -428.0755 
L 91.717781 -82.4755 
z
" style="stroke: #0000ff; stroke-opacity: 0.2; stroke-width: 2"/>
    </defs>
    <g clip-path="url(#pc50d33ebd4)">
     <use xlink:href="#m4cf8b82ea6" x="0" y="533.6245" style="fill: #0000ff; fill-opacity: 0.2; stroke: #0000ff; stroke-opacity: 0.2; stroke-width: 2"/>
    </g>
   </g>
   <g id="PolyCollection_3">
    <defs>
     <path id="me1b119534e" d="M 91.717781 -82.4755 
L 91.717781 -82.4755 
L 95.444302 -140.0755 
L 99.170824 -140.0755 
L 102.897345 -140.0755 
L 106.623867 -140.0755 
L 110.350388 -140.0755 
L 114.076909 -140.0755 
L 117.803431 -140.0755 
L 121.529952 -140.0755 
L 125.256474 -140.0755 
L 128.982995 -140.0755 
L 132.709517 -140.0755 
L 136.436038 -140.0755 
L 140.162559 -140.0755 
L 143.889081 -140.0755 
L 147.615602 -197.6755 
L 151.342124 -197.6755 
L 155.068645 -197.6755 
L 158.795166 -197.6755 
L 162.521688 -197.6755 
L 166.248209 -197.6755 
L 169.974731 -197.6755 
L 173.701252 -197.6755 
L 177.427773 -197.6755 
L 181.154295 -197.6755 
L 184.880816 -197.6755 
L 188.607338 -197.6755 
L 192.333859 -197.6755 
L 196.060381 -197.6755 
L 199.786902 -370.4755 
L 203.513423 -370.4755 
L 207.239945 -370.4755 
L 210.966466 -370.4755 
L 214.692988 -370.4755 
L 218.419509 -370.4755 
L 222.14603 -370.4755 
L 225.872552 -370.4755 
L 229.599073 -370.4755 
L 233.325595 -370.4755 
L 237.052116 -370.4755 
L 240.778637 -370.4755 
L 244.505159 -370.4755 
L 248.23168 -370.4755 
L 251.958202 -428.0755 
L 255.684723 -428.0755 
L 259.411245 -428.0755 
L 263.137766 -428.0755 
L 266.864287 -428.0755 
L 270.590809 -428.0755 
L 274.31733 -428.0755 
L 278.043852 -428.0755 
L 281.770373 -428.0755 
L 285.496894 -428.0755 
L 289.223416 -428.0755 
L 292.949937 -428.0755 
L 296.676459 -428.0755 
L 300.40298 -428.0755 
L 304.129502 -428.0755 
L 307.856023 -428.0755 
L 311.582544 -428.0755 
L 315.309066 -428.0755 
L 319.035587 -428.0755 
L 322.762109 -428.0755 
L 326.48863 -428.0755 
L 330.215151 -428.0755 
L 333.941673 -428.0755 
L 337.668194 -428.0755 
L 341.394716 -428.0755 
L 345.121237 -428.0755 
L 348.847758 -428.0755 
L 352.57428 -428.0755 
L 356.300801 -485.6755 
L 360.027323 -485.6755 
L 363.753844 -485.6755 
L 367.480366 -485.6755 
L 371.206887 -485.6755 
L 374.933408 -485.6755 
L 378.65993 -485.6755 
L 382.386451 -485.6755 
L 386.112973 -485.6755 
L 389.839494 -485.6755 
L 393.566015 -485.6755 
L 397.292537 -485.6755 
L 401.019058 -485.6755 
L 404.74558 -485.6755 
L 408.472101 -485.6755 
L 412.198622 -485.6755 
L 415.925144 -485.6755 
L 419.651665 -485.6755 
L 423.378187 -485.6755 
L 427.104708 -485.6755 
L 430.83123 -485.6755 
L 434.557751 -485.6755 
L 438.284272 -485.6755 
L 442.010794 -485.6755 
L 445.737315 -485.6755 
L 449.463837 -485.6755 
L 453.190358 -485.6755 
L 456.916879 -485.6755 
L 460.643401 -485.6755 
L 460.643401 -485.6755 
L 460.643401 -485.6755 
L 456.916879 -485.6755 
L 453.190358 -485.6755 
L 449.463837 -485.6755 
L 445.737315 -485.6755 
L 442.010794 -485.6755 
L 438.284272 -485.6755 
L 434.557751 -485.6755 
L 430.83123 -485.6755 
L 427.104708 -485.6755 
L 423.378187 -485.6755 
L 419.651665 -485.6755 
L 415.925144 -485.6755 
L 412.198622 -485.6755 
L 408.472101 -485.6755 
L 404.74558 -485.6755 
L 401.019058 -485.6755 
L 397.292537 -485.6755 
L 393.566015 -485.6755 
L 389.839494 -485.6755 
L 386.112973 -485.6755 
L 382.386451 -485.6755 
L 378.65993 -485.6755 
L 374.933408 -485.6755 
L 371.206887 -485.6755 
L 367.480366 -485.6755 
L 363.753844 -485.6755 
L 360.027323 -485.6755 
L 356.300801 -485.6755 
L 352.57428 -485.6755 
L 348.847758 -485.6755 
L 345.121237 -485.6755 
L 341.394716 -485.6755 
L 337.668194 -485.6755 
L 333.941673 -485.6755 
L 330.215151 -485.6755 
L 326.48863 -485.6755 
L 322.762109 -485.6755 
L 319.035587 -485.6755 
L 315.309066 -485.6755 
L 311.582544 -485.6755 
L 307.856023 -485.6755 
L 304.129502 -485.6755 
L 300.40298 -485.6755 
L 296.676459 -485.6755 
L 292.949937 -485.6755 
L 289.223416 -485.6755 
L 285.496894 -485.6755 
L 281.770373 -485.6755 
L 278.043852 -485.6755 
L 274.31733 -485.6755 
L 270.590809 -485.6755 
L 266.864287 -485.6755 
L 263.137766 -485.6755 
L 259.411245 -485.6755 
L 255.684723 -485.6755 
L 251.958202 -485.6755 
L 248.23168 -485.6755 
L 244.505159 -485.6755 
L 240.778637 -485.6755 
L 237.052116 -485.6755 
L 233.325595 -485.6755 
L 229.599073 -485.6755 
L 225.872552 -485.6755 
L 222.14603 -485.6755 
L 218.419509 -485.6755 
L 214.692988 -485.6755 
L 210.966466 -485.6755 
L 207.239945 -485.6755 
L 203.513423 -485.6755 
L 199.786902 -485.6755 
L 196.060381 -485.6755 
L 192.333859 -485.6755 
L 188.607338 -485.6755 
L 184.880816 -485.6755 
L 181.154295 -485.6755 
L 177.427773 -485.6755 
L 173.701252 -485.6755 
L 169.974731 -485.6755 
L 166.248209 -485.6755 
L 162.521688 -485.6755 
L 158.795166 -485.6755 
L 155.068645 -485.6755 
L 151.342124 -485.6755 
L 147.615602 -485.6755 
L 143.889081 -428.0755 
L 140.162559 -428.0755 
L 136.436038 -428.0755 
L 132.709517 -428.0755 
L 128.982995 -428.0755 
L 125.256474 -428.0755 
L 121.529952 -428.0755 
L 117.803431 -428.0755 
L 114.076909 -428.0755 
L 110.350388 -428.0755 
L 106.623867 -428.0755 
L 102.897345 -428.0755 
L 99.170824 -428.0755 
L 95.444302 -428.0755 
L 91.717781 -82.4755 
z
" style="stroke: #008000; stroke-opacity: 0.2; stroke-width: 2"/>
    </defs>
    <g clip-path="url(#pc50d33ebd4)">
     <use xlink:href="#me1b119534e" x="0" y="533.6245" style="fill: #008000; fill-opacity: 0.2; stroke: #008000; stroke-opacity: 0.2; stroke-width: 2"/>
    </g>
   </g>
   <g id="matplotlib.axis_1">
    <g id="xtick_1">
     <g id="line2d_1">
      <defs>
       <path id="m6c15315dcb" d="M 0 0 
L 0 12 
" style="stroke: #000000; stroke-width: 2.5"/>
      </defs>
      <g>
       <use xlink:href="#m6c15315dcb" x="91.717781" y="471.309" style="stroke: #000000; stroke-width: 2.5"/>
      </g>
     </g>
     <g id="text_1">
      <!-- 0.0 -->
      <g transform="translate(77.723031 500.18225) scale(0.176 -0.176)">
       <defs>
        <path id="DejaVuSans-30" d="M 2034 4250 
Q 1547 4250 1301 3770 
Q 1056 3291 1056 2328 
Q 1056 1369 1301 889 
Q 1547 409 2034 409 
Q 2525 409 2770 889 
Q 3016 1369 3016 2328 
Q 3016 3291 2770 3770 
Q 2525 4250 2034 4250 
z
M 2034 4750 
Q 2819 4750 3233 4129 
Q 3647 3509 3647 2328 
Q 3647 1150 3233 529 
Q 2819 -91 2034 -91 
Q 1250 -91 836 529 
Q 422 1150 422 2328 
Q 422 3509 836 4129 
Q 1250 4750 2034 4750 
z
" transform="scale(0.015625)"/>
        <path id="DejaVuSans-2e" d="M 684 794 
L 1344 794 
L 1344 0 
L 684 0 
L 684 794 
z
" transform="scale(0.015625)"/>
       </defs>
       <use xlink:href="#DejaVuSans-30"/>
       <use xlink:href="#DejaVuSans-2e" x="63.623047"/>
       <use xlink:href="#DejaVuSans-30" x="95.410156"/>
      </g>
     </g>
    </g>
    <g id="xtick_2">
     <g id="line2d_2">
      <g>
       <use xlink:href="#m6c15315dcb" x="165.502905" y="471.309" style="stroke: #000000; stroke-width: 2.5"/>
      </g>
     </g>
     <g id="text_2">
      <!-- 0.2 -->
      <g transform="translate(151.508155 500.18225) scale(0.176 -0.176)">
       <defs>
        <path id="DejaVuSans-32" d="M 1228 531 
L 3431 531 
L 3431 0 
L 469 0 
L 469 531 
Q 828 903 1448 1529 
Q 2069 2156 2228 2338 
Q 2531 2678 2651 2914 
Q 2772 3150 2772 3378 
Q 2772 3750 2511 3984 
Q 2250 4219 1831 4219 
Q 1534 4219 1204 4116 
Q 875 4013 500 3803 
L 500 4441 
Q 881 4594 1212 4672 
Q 1544 4750 1819 4750 
Q 2544 4750 2975 4387 
Q 3406 4025 3406 3419 
Q 3406 3131 3298 2873 
Q 3191 2616 2906 2266 
Q 2828 2175 2409 1742 
Q 1991 1309 1228 531 
z
" transform="scale(0.015625)"/>
       </defs>
       <use xlink:href="#DejaVuSans-30"/>
       <use xlink:href="#DejaVuSans-2e" x="63.623047"/>
       <use xlink:href="#DejaVuSans-32" x="95.410156"/>
      </g>
     </g>
    </g>
    <g id="xtick_3">
     <g id="line2d_3">
      <g>
       <use xlink:href="#m6c15315dcb" x="239.288029" y="471.309" style="stroke: #000000; stroke-width: 2.5"/>
      </g>
     </g>
     <g id="text_3">
      <!-- 0.4 -->
      <g transform="translate(225.293279 500.18225) scale(0.176 -0.176)">
       <defs>
        <path id="DejaVuSans-34" d="M 2419 4116 
L 825 1625 
L 2419 1625 
L 2419 4116 
z
M 2253 4666 
L 3047 4666 
L 3047 1625 
L 3713 1625 
L 3713 1100 
L 3047 1100 
L 3047 0 
L 2419 0 
L 2419 1100 
L 313 1100 
L 313 1709 
L 2253 4666 
z
" transform="scale(0.015625)"/>
       </defs>
       <use xlink:href="#DejaVuSans-30"/>
       <use xlink:href="#DejaVuSans-2e" x="63.623047"/>
       <use xlink:href="#DejaVuSans-34" x="95.410156"/>
      </g>
     </g>
    </g>
    <g id="xtick_4">
     <g id="line2d_4">
      <g>
       <use xlink:href="#m6c15315dcb" x="313.073153" y="471.309" style="stroke: #000000; stroke-width: 2.5"/>
      </g>
     </g>
     <g id="text_4">
      <!-- 0.6 -->
      <g transform="translate(299.078403 500.18225) scale(0.176 -0.176)">
       <defs>
        <path id="DejaVuSans-36" d="M 2113 2584 
Q 1688 2584 1439 2293 
Q 1191 2003 1191 1497 
Q 1191 994 1439 701 
Q 1688 409 2113 409 
Q 2538 409 2786 701 
Q 3034 994 3034 1497 
Q 3034 2003 2786 2293 
Q 2538 2584 2113 2584 
z
M 3366 4563 
L 3366 3988 
Q 3128 4100 2886 4159 
Q 2644 4219 2406 4219 
Q 1781 4219 1451 3797 
Q 1122 3375 1075 2522 
Q 1259 2794 1537 2939 
Q 1816 3084 2150 3084 
Q 2853 3084 3261 2657 
Q 3669 2231 3669 1497 
Q 3669 778 3244 343 
Q 2819 -91 2113 -91 
Q 1303 -91 875 529 
Q 447 1150 447 2328 
Q 447 3434 972 4092 
Q 1497 4750 2381 4750 
Q 2619 4750 2861 4703 
Q 3103 4656 3366 4563 
z
" transform="scale(0.015625)"/>
       </defs>
       <use xlink:href="#DejaVuSans-30"/>
       <use xlink:href="#DejaVuSans-2e" x="63.623047"/>
       <use xlink:href="#DejaVuSans-36" x="95.410156"/>
      </g>
     </g>
    </g>
    <g id="xtick_5">
     <g id="line2d_5">
      <g>
       <use xlink:href="#m6c15315dcb" x="386.858277" y="471.309" style="stroke: #000000; stroke-width: 2.5"/>
      </g>
     </g>
     <g id="text_5">
      <!-- 0.8 -->
      <g transform="translate(372.863527 500.18225) scale(0.176 -0.176)">
       <defs>
        <path id="DejaVuSans-38" d="M 2034 2216 
Q 1584 2216 1326 1975 
Q 1069 1734 1069 1313 
Q 1069 891 1326 650 
Q 1584 409 2034 409 
Q 2484 409 2743 651 
Q 3003 894 3003 1313 
Q 3003 1734 2745 1975 
Q 2488 2216 2034 2216 
z
M 1403 2484 
Q 997 2584 770 2862 
Q 544 3141 544 3541 
Q 544 4100 942 4425 
Q 1341 4750 2034 4750 
Q 2731 4750 3128 4425 
Q 3525 4100 3525 3541 
Q 3525 3141 3298 2862 
Q 3072 2584 2669 2484 
Q 3125 2378 3379 2068 
Q 3634 1759 3634 1313 
Q 3634 634 3220 271 
Q 2806 -91 2034 -91 
Q 1263 -91 848 271 
Q 434 634 434 1313 
Q 434 1759 690 2068 
Q 947 2378 1403 2484 
z
M 1172 3481 
Q 1172 3119 1398 2916 
Q 1625 2713 2034 2713 
Q 2441 2713 2670 2916 
Q 2900 3119 2900 3481 
Q 2900 3844 2670 4047 
Q 2441 4250 2034 4250 
Q 1625 4250 1398 4047 
Q 1172 3844 1172 3481 
z
" transform="scale(0.015625)"/>
       </defs>
       <use xlink:href="#DejaVuSans-30"/>
       <use xlink:href="#DejaVuSans-2e" x="63.623047"/>
       <use xlink:href="#DejaVuSans-38" x="95.410156"/>
      </g>
     </g>
    </g>
    <g id="xtick_6">
     <g id="line2d_6">
      <g>
       <use xlink:href="#m6c15315dcb" x="460.643401" y="471.309" style="stroke: #000000; stroke-width: 2.5"/>
      </g>
     </g>
     <g id="text_6">
      <!-- 1.0 -->
      <g transform="translate(446.648651 500.18225) scale(0.176 -0.176)">
       <defs>
        <path id="DejaVuSans-31" d="M 794 531 
L 1825 531 
L 1825 4091 
L 703 3866 
L 703 4441 
L 1819 4666 
L 2450 4666 
L 2450 531 
L 3481 531 
L 3481 0 
L 794 0 
L 794 531 
z
" transform="scale(0.015625)"/>
       </defs>
       <use xlink:href="#DejaVuSans-31"/>
       <use xlink:href="#DejaVuSans-2e" x="63.623047"/>
       <use xlink:href="#DejaVuSans-30" x="95.410156"/>
      </g>
     </g>
    </g>
    <g id="text_7">
     <!-- False Positive Rate -->
     <g transform="translate(186.965091 522.4315) scale(0.192 -0.192)">
      <defs>
       <path id="DejaVuSans-46" d="M 628 4666 
L 3309 4666 
L 3309 4134 
L 1259 4134 
L 1259 2759 
L 3109 2759 
L 3109 2228 
L 1259 2228 
L 1259 0 
L 628 0 
L 628 4666 
z
" transform="scale(0.015625)"/>
       <path id="DejaVuSans-61" d="M 2194 1759 
Q 1497 1759 1228 1600 
Q 959 1441 959 1056 
Q 959 750 1161 570 
Q 1363 391 1709 391 
Q 2188 391 2477 730 
Q 2766 1069 2766 1631 
L 2766 1759 
L 2194 1759 
z
M 3341 1997 
L 3341 0 
L 2766 0 
L 2766 531 
Q 2569 213 2275 61 
Q 1981 -91 1556 -91 
Q 1019 -91 701 211 
Q 384 513 384 1019 
Q 384 1609 779 1909 
Q 1175 2209 1959 2209 
L 2766 2209 
L 2766 2266 
Q 2766 2663 2505 2880 
Q 2244 3097 1772 3097 
Q 1472 3097 1187 3025 
Q 903 2953 641 2809 
L 641 3341 
Q 956 3463 1253 3523 
Q 1550 3584 1831 3584 
Q 2591 3584 2966 3190 
Q 3341 2797 3341 1997 
z
" transform="scale(0.015625)"/>
       <path id="DejaVuSans-6c" d="M 603 4863 
L 1178 4863 
L 1178 0 
L 603 0 
L 603 4863 
z
" transform="scale(0.015625)"/>
       <path id="DejaVuSans-73" d="M 2834 3397 
L 2834 2853 
Q 2591 2978 2328 3040 
Q 2066 3103 1784 3103 
Q 1356 3103 1142 2972 
Q 928 2841 928 2578 
Q 928 2378 1081 2264 
Q 1234 2150 1697 2047 
L 1894 2003 
Q 2506 1872 2764 1633 
Q 3022 1394 3022 966 
Q 3022 478 2636 193 
Q 2250 -91 1575 -91 
Q 1294 -91 989 -36 
Q 684 19 347 128 
L 347 722 
Q 666 556 975 473 
Q 1284 391 1588 391 
Q 1994 391 2212 530 
Q 2431 669 2431 922 
Q 2431 1156 2273 1281 
Q 2116 1406 1581 1522 
L 1381 1569 
Q 847 1681 609 1914 
Q 372 2147 372 2553 
Q 372 3047 722 3315 
Q 1072 3584 1716 3584 
Q 2034 3584 2315 3537 
Q 2597 3491 2834 3397 
z
" transform="scale(0.015625)"/>
       <path id="DejaVuSans-65" d="M 3597 1894 
L 3597 1613 
L 953 1613 
Q 991 1019 1311 708 
Q 1631 397 2203 397 
Q 2534 397 2845 478 
Q 3156 559 3463 722 
L 3463 178 
Q 3153 47 2828 -22 
Q 2503 -91 2169 -91 
Q 1331 -91 842 396 
Q 353 884 353 1716 
Q 353 2575 817 3079 
Q 1281 3584 2069 3584 
Q 2775 3584 3186 3129 
Q 3597 2675 3597 1894 
z
M 3022 2063 
Q 3016 2534 2758 2815 
Q 2500 3097 2075 3097 
Q 1594 3097 1305 2825 
Q 1016 2553 972 2059 
L 3022 2063 
z
" transform="scale(0.015625)"/>
       <path id="DejaVuSans-20" transform="scale(0.015625)"/>
       <path id="DejaVuSans-50" d="M 1259 4147 
L 1259 2394 
L 2053 2394 
Q 2494 2394 2734 2622 
Q 2975 2850 2975 3272 
Q 2975 3691 2734 3919 
Q 2494 4147 2053 4147 
L 1259 4147 
z
M 628 4666 
L 2053 4666 
Q 2838 4666 3239 4311 
Q 3641 3956 3641 3272 
Q 3641 2581 3239 2228 
Q 2838 1875 2053 1875 
L 1259 1875 
L 1259 0 
L 628 0 
L 628 4666 
z
" transform="scale(0.015625)"/>
       <path id="DejaVuSans-6f" d="M 1959 3097 
Q 1497 3097 1228 2736 
Q 959 2375 959 1747 
Q 959 1119 1226 758 
Q 1494 397 1959 397 
Q 2419 397 2687 759 
Q 2956 1122 2956 1747 
Q 2956 2369 2687 2733 
Q 2419 3097 1959 3097 
z
M 1959 3584 
Q 2709 3584 3137 3096 
Q 3566 2609 3566 1747 
Q 3566 888 3137 398 
Q 2709 -91 1959 -91 
Q 1206 -91 779 398 
Q 353 888 353 1747 
Q 353 2609 779 3096 
Q 1206 3584 1959 3584 
z
" transform="scale(0.015625)"/>
       <path id="DejaVuSans-69" d="M 603 3500 
L 1178 3500 
L 1178 0 
L 603 0 
L 603 3500 
z
M 603 4863 
L 1178 4863 
L 1178 4134 
L 603 4134 
L 603 4863 
z
" transform="scale(0.015625)"/>
       <path id="DejaVuSans-74" d="M 1172 4494 
L 1172 3500 
L 2356 3500 
L 2356 3053 
L 1172 3053 
L 1172 1153 
Q 1172 725 1289 603 
Q 1406 481 1766 481 
L 2356 481 
L 2356 0 
L 1766 0 
Q 1100 0 847 248 
Q 594 497 594 1153 
L 594 3053 
L 172 3053 
L 172 3500 
L 594 3500 
L 594 4494 
L 1172 4494 
z
" transform="scale(0.015625)"/>
       <path id="DejaVuSans-76" d="M 191 3500 
L 800 3500 
L 1894 563 
L 2988 3500 
L 3597 3500 
L 2284 0 
L 1503 0 
L 191 3500 
z
" transform="scale(0.015625)"/>
       <path id="DejaVuSans-52" d="M 2841 2188 
Q 3044 2119 3236 1894 
Q 3428 1669 3622 1275 
L 4263 0 
L 3584 0 
L 2988 1197 
Q 2756 1666 2539 1819 
Q 2322 1972 1947 1972 
L 1259 1972 
L 1259 0 
L 628 0 
L 628 4666 
L 2053 4666 
Q 2853 4666 3247 4331 
Q 3641 3997 3641 3322 
Q 3641 2881 3436 2590 
Q 3231 2300 2841 2188 
z
M 1259 4147 
L 1259 2491 
L 2053 2491 
Q 2509 2491 2742 2702 
Q 2975 2913 2975 3322 
Q 2975 3731 2742 3939 
Q 2509 4147 2053 4147 
L 1259 4147 
z
" transform="scale(0.015625)"/>
      </defs>
      <use xlink:href="#DejaVuSans-46"/>
      <use xlink:href="#DejaVuSans-61" x="48.394531"/>
      <use xlink:href="#DejaVuSans-6c" x="109.673828"/>
      <use xlink:href="#DejaVuSans-73" x="137.457031"/>
      <use xlink:href="#DejaVuSans-65" x="189.556641"/>
      <use xlink:href="#DejaVuSans-20" x="251.080078"/>
      <use xlink:href="#DejaVuSans-50" x="282.867188"/>
      <use xlink:href="#DejaVuSans-6f" x="339.544922"/>
      <use xlink:href="#DejaVuSans-73" x="400.726562"/>
      <use xlink:href="#DejaVuSans-69" x="452.826172"/>
      <use xlink:href="#DejaVuSans-74" x="480.609375"/>
      <use xlink:href="#DejaVuSans-69" x="519.818359"/>
      <use xlink:href="#DejaVuSans-76" x="547.601562"/>
      <use xlink:href="#DejaVuSans-65" x="606.78125"/>
      <use xlink:href="#DejaVuSans-20" x="668.304688"/>
      <use xlink:href="#DejaVuSans-52" x="700.091797"/>
      <use xlink:href="#DejaVuSans-61" x="767.324219"/>
      <use xlink:href="#DejaVuSans-74" x="828.603516"/>
      <use xlink:href="#DejaVuSans-65" x="867.8125"/>
     </g>
    </g>
   </g>
   <g id="matplotlib.axis_2">
    <g id="ytick_1">
     <g id="line2d_7">
      <defs>
       <path id="meafe8ea25f" d="M 0 0 
L -12 0 
" style="stroke: #000000; stroke-width: 2.5"/>
      </defs>
      <g>
       <use xlink:href="#meafe8ea25f" x="73.2715" y="451.149" style="stroke: #000000; stroke-width: 2.5"/>
      </g>
     </g>
     <g id="text_8">
      <!-- 0.0 -->
      <g transform="translate(29.782 457.835625) scale(0.176 -0.176)">
       <use xlink:href="#DejaVuSans-30"/>
       <use xlink:href="#DejaVuSans-2e" x="63.623047"/>
       <use xlink:href="#DejaVuSans-30" x="95.410156"/>
      </g>
     </g>
    </g>
    <g id="ytick_2">
     <g id="line2d_8">
      <g>
       <use xlink:href="#meafe8ea25f" x="73.2715" y="370.509" style="stroke: #000000; stroke-width: 2.5"/>
      </g>
     </g>
     <g id="text_9">
      <!-- 0.2 -->
      <g transform="translate(29.782 377.195625) scale(0.176 -0.176)">
       <use xlink:href="#DejaVuSans-30"/>
       <use xlink:href="#DejaVuSans-2e" x="63.623047"/>
       <use xlink:href="#DejaVuSans-32" x="95.410156"/>
      </g>
     </g>
    </g>
    <g id="ytick_3">
     <g id="line2d_9">
      <g>
       <use xlink:href="#meafe8ea25f" x="73.2715" y="289.869" style="stroke: #000000; stroke-width: 2.5"/>
      </g>
     </g>
     <g id="text_10">
      <!-- 0.4 -->
      <g transform="translate(29.782 296.555625) scale(0.176 -0.176)">
       <use xlink:href="#DejaVuSans-30"/>
       <use xlink:href="#DejaVuSans-2e" x="63.623047"/>
       <use xlink:href="#DejaVuSans-34" x="95.410156"/>
      </g>
     </g>
    </g>
    <g id="ytick_4">
     <g id="line2d_10">
      <g>
       <use xlink:href="#meafe8ea25f" x="73.2715" y="209.229" style="stroke: #000000; stroke-width: 2.5"/>
      </g>
     </g>
     <g id="text_11">
      <!-- 0.6 -->
      <g transform="translate(29.782 215.915625) scale(0.176 -0.176)">
       <use xlink:href="#DejaVuSans-30"/>
       <use xlink:href="#DejaVuSans-2e" x="63.623047"/>
       <use xlink:href="#DejaVuSans-36" x="95.410156"/>
      </g>
     </g>
    </g>
    <g id="ytick_5">
     <g id="line2d_11">
      <g>
       <use xlink:href="#meafe8ea25f" x="73.2715" y="128.589" style="stroke: #000000; stroke-width: 2.5"/>
      </g>
     </g>
     <g id="text_12">
      <!-- 0.8 -->
      <g transform="translate(29.782 135.275625) scale(0.176 -0.176)">
       <use xlink:href="#DejaVuSans-30"/>
       <use xlink:href="#DejaVuSans-2e" x="63.623047"/>
       <use xlink:href="#DejaVuSans-38" x="95.410156"/>
      </g>
     </g>
    </g>
    <g id="ytick_6">
     <g id="line2d_12">
      <g>
       <use xlink:href="#meafe8ea25f" x="73.2715" y="47.949" style="stroke: #000000; stroke-width: 2.5"/>
      </g>
     </g>
     <g id="text_13">
      <!-- 1.0 -->
      <g transform="translate(29.782 54.635625) scale(0.176 -0.176)">
       <use xlink:href="#DejaVuSans-31"/>
       <use xlink:href="#DejaVuSans-2e" x="63.623047"/>
       <use xlink:href="#DejaVuSans-30" x="95.410156"/>
      </g>
     </g>
    </g>
    <g id="text_14">
     <!-- True Positive Rate -->
     <g transform="translate(21.789 335.046) rotate(-90) scale(0.192 -0.192)">
      <defs>
       <path id="DejaVuSans-54" d="M -19 4666 
L 3928 4666 
L 3928 4134 
L 2272 4134 
L 2272 0 
L 1638 0 
L 1638 4134 
L -19 4134 
L -19 4666 
z
" transform="scale(0.015625)"/>
       <path id="DejaVuSans-72" d="M 2631 2963 
Q 2534 3019 2420 3045 
Q 2306 3072 2169 3072 
Q 1681 3072 1420 2755 
Q 1159 2438 1159 1844 
L 1159 0 
L 581 0 
L 581 3500 
L 1159 3500 
L 1159 2956 
Q 1341 3275 1631 3429 
Q 1922 3584 2338 3584 
Q 2397 3584 2469 3576 
Q 2541 3569 2628 3553 
L 2631 2963 
z
" transform="scale(0.015625)"/>
       <path id="DejaVuSans-75" d="M 544 1381 
L 544 3500 
L 1119 3500 
L 1119 1403 
Q 1119 906 1312 657 
Q 1506 409 1894 409 
Q 2359 409 2629 706 
Q 2900 1003 2900 1516 
L 2900 3500 
L 3475 3500 
L 3475 0 
L 2900 0 
L 2900 538 
Q 2691 219 2414 64 
Q 2138 -91 1772 -91 
Q 1169 -91 856 284 
Q 544 659 544 1381 
z
M 1991 3584 
L 1991 3584 
z
" transform="scale(0.015625)"/>
      </defs>
      <use xlink:href="#DejaVuSans-54"/>
      <use xlink:href="#DejaVuSans-72" x="46.333984"/>
      <use xlink:href="#DejaVuSans-75" x="87.447266"/>
      <use xlink:href="#DejaVuSans-65" x="150.826172"/>
      <use xlink:href="#DejaVuSans-20" x="212.349609"/>
      <use xlink:href="#DejaVuSans-50" x="244.136719"/>
      <use xlink:href="#DejaVuSans-6f" x="300.814453"/>
      <use xlink:href="#DejaVuSans-73" x="361.996094"/>
      <use xlink:href="#DejaVuSans-69" x="414.095703"/>
      <use xlink:href="#DejaVuSans-74" x="441.878906"/>
      <use xlink:href="#DejaVuSans-69" x="481.087891"/>
      <use xlink:href="#DejaVuSans-76" x="508.871094"/>
      <use xlink:href="#DejaVuSans-65" x="568.050781"/>
      <use xlink:href="#DejaVuSans-20" x="629.574219"/>
      <use xlink:href="#DejaVuSans-52" x="661.361328"/>
      <use xlink:href="#DejaVuSans-61" x="728.59375"/>
      <use xlink:href="#DejaVuSans-74" x="789.873047"/>
      <use xlink:href="#DejaVuSans-65" x="829.082031"/>
     </g>
    </g>
   </g>
   <g id="line2d_13">
    <path d="M 91.717781 451.149 
L 95.444302 243.789 
L 99.170824 243.789 
L 102.897345 243.789 
L 106.623867 243.789 
L 110.350388 243.789 
L 114.076909 243.789 
L 117.803431 243.789 
L 121.529952 243.789 
L 125.256474 243.789 
L 128.982995 243.789 
L 132.709517 243.789 
L 136.436038 243.789 
L 140.162559 243.789 
L 143.889081 243.789 
L 147.615602 168.909 
L 151.342124 168.909 
L 155.068645 168.909 
L 158.795166 168.909 
L 162.521688 168.909 
L 166.248209 168.909 
L 169.974731 168.909 
L 173.701252 168.909 
L 177.427773 168.909 
L 181.154295 168.909 
L 184.880816 168.909 
L 188.607338 168.909 
L 192.333859 168.909 
L 196.060381 168.909 
L 199.786902 82.509 
L 203.513423 82.509 
L 207.239945 82.509 
L 210.966466 82.509 
L 214.692988 82.509 
L 218.419509 82.509 
L 222.14603 82.509 
L 225.872552 82.509 
L 229.599073 82.509 
L 233.325595 82.509 
L 237.052116 82.509 
L 240.778637 82.509 
L 244.505159 82.509 
L 248.23168 82.509 
L 251.958202 65.229 
L 255.684723 65.229 
L 259.411245 65.229 
L 263.137766 65.229 
L 266.864287 65.229 
L 270.590809 65.229 
L 274.31733 65.229 
L 278.043852 65.229 
L 281.770373 65.229 
L 285.496894 65.229 
L 289.223416 65.229 
L 292.949937 65.229 
L 296.676459 65.229 
L 300.40298 65.229 
L 304.129502 59.469 
L 307.856023 59.469 
L 311.582544 59.469 
L 315.309066 59.469 
L 319.035587 59.469 
L 322.762109 59.469 
L 326.48863 59.469 
L 330.215151 59.469 
L 333.941673 59.469 
L 337.668194 59.469 
L 341.394716 59.469 
L 345.121237 59.469 
L 348.847758 59.469 
L 352.57428 59.469 
L 356.300801 47.949 
L 360.027323 47.949 
L 363.753844 47.949 
L 367.480366 47.949 
L 371.206887 47.949 
L 374.933408 47.949 
L 378.65993 47.949 
L 382.386451 47.949 
L 386.112973 47.949 
L 389.839494 47.949 
L 393.566015 47.949 
L 397.292537 47.949 
L 401.019058 47.949 
L 404.74558 47.949 
L 408.472101 47.949 
L 412.198622 47.949 
L 415.925144 47.949 
L 419.651665 47.949 
L 423.378187 47.949 
L 427.104708 47.949 
L 430.83123 47.949 
L 434.557751 47.949 
L 438.284272 47.949 
L 442.010794 47.949 
L 445.737315 47.949 
L 449.463837 47.949 
L 453.190358 47.949 
L 456.916879 47.949 
L 460.643401 47.949 
" clip-path="url(#pc50d33ebd4)" style="fill: none; stroke: #ffa500; stroke-width: 3; stroke-linecap: square"/>
   </g>
   <g id="line2d_14">
    <path d="M 91.717781 451.149 
L 95.444302 249.549 
L 99.170824 249.549 
L 102.897345 249.549 
L 106.623867 249.549 
L 110.350388 249.549 
L 114.076909 249.549 
L 117.803431 249.549 
L 121.529952 249.549 
L 125.256474 249.549 
L 128.982995 249.549 
L 132.709517 249.549 
L 136.436038 249.549 
L 140.162559 249.549 
L 143.889081 249.549 
L 147.615602 209.229 
L 151.342124 209.229 
L 155.068645 209.229 
L 158.795166 209.229 
L 162.521688 209.229 
L 166.248209 209.229 
L 169.974731 209.229 
L 173.701252 209.229 
L 177.427773 209.229 
L 181.154295 209.229 
L 184.880816 209.229 
L 188.607338 209.229 
L 192.333859 209.229 
L 196.060381 209.229 
L 199.786902 116.778091 
L 203.513423 116.370818 
L 207.239945 115.963545 
L 210.966466 115.556273 
L 214.692988 115.149 
L 218.419509 114.741727 
L 222.14603 114.334455 
L 225.872552 113.927182 
L 229.599073 113.519909 
L 233.325595 113.112636 
L 237.052116 112.705364 
L 240.778637 112.298091 
L 244.505159 111.890818 
L 248.23168 111.483545 
L 251.958202 93.796273 
L 255.684723 93.389 
L 259.411245 92.981727 
L 263.137766 92.574455 
L 266.864287 92.167182 
L 270.590809 91.759909 
L 274.31733 91.352636 
L 278.043852 90.945364 
L 281.770373 90.538091 
L 285.496894 90.130818 
L 289.223416 89.723545 
L 292.949937 89.316273 
L 296.676459 88.909 
L 300.40298 88.501727 
L 304.129502 65.054455 
L 307.856023 64.647182 
L 311.582544 64.239909 
L 315.309066 63.832636 
L 319.035587 63.425364 
L 322.762109 63.018091 
L 326.48863 62.610818 
L 330.215151 62.203545 
L 333.941673 61.796273 
L 337.668194 61.389 
L 341.394716 60.981727 
L 345.121237 60.574455 
L 348.847758 60.167182 
L 352.57428 59.759909 
L 356.300801 53.709 
L 360.027323 53.709 
L 363.753844 53.709 
L 367.480366 53.709 
L 371.206887 53.709 
L 374.933408 53.709 
L 378.65993 53.709 
L 382.386451 53.709 
L 386.112973 53.709 
L 389.839494 53.709 
L 393.566015 53.709 
L 397.292537 53.709 
L 401.019058 53.709 
L 404.74558 53.709 
L 408.472101 47.949 
L 412.198622 47.949 
L 415.925144 47.949 
L 419.651665 47.949 
L 423.378187 47.949 
L 427.104708 47.949 
L 430.83123 47.949 
L 434.557751 47.949 
L 438.284272 47.949 
L 442.010794 47.949 
L 445.737315 47.949 
L 449.463837 47.949 
L 453.190358 47.949 
L 456.916879 47.949 
L 460.643401 47.949 
" clip-path="url(#pc50d33ebd4)" style="fill: none; stroke: #0000ff; stroke-width: 3; stroke-linecap: square"/>
   </g>
   <g id="line2d_15">
    <path d="M 91.717781 451.149 
L 95.444302 243.789 
L 99.170824 243.789 
L 102.897345 243.789 
L 106.623867 243.789 
L 110.350388 243.789 
L 114.076909 243.789 
L 117.803431 243.789 
L 121.529952 243.789 
L 125.256474 243.789 
L 128.982995 243.789 
L 132.709517 243.789 
L 136.436038 243.789 
L 140.162559 243.789 
L 143.889081 243.789 
L 147.615602 145.869 
L 151.342124 145.869 
L 155.068645 145.869 
L 158.795166 145.869 
L 162.521688 145.869 
L 166.248209 145.869 
L 169.974731 145.869 
L 173.701252 145.869 
L 177.427773 145.869 
L 181.154295 145.869 
L 184.880816 145.869 
L 188.607338 145.869 
L 192.333859 145.869 
L 196.060381 145.869 
L 199.786902 76.749 
L 203.513423 76.749 
L 207.239945 76.749 
L 210.966466 76.749 
L 214.692988 76.749 
L 218.419509 76.749 
L 222.14603 76.749 
L 225.872552 76.749 
L 229.599073 76.749 
L 233.325595 76.749 
L 237.052116 76.749 
L 240.778637 76.749 
L 244.505159 76.749 
L 248.23168 76.749 
L 251.958202 65.229 
L 255.684723 65.229 
L 259.411245 65.229 
L 263.137766 65.229 
L 266.864287 65.229 
L 270.590809 65.229 
L 274.31733 65.229 
L 278.043852 65.229 
L 281.770373 65.229 
L 285.496894 65.229 
L 289.223416 65.229 
L 292.949937 65.229 
L 296.676459 65.229 
L 300.40298 65.229 
L 304.129502 59.469 
L 307.856023 59.469 
L 311.582544 59.469 
L 315.309066 59.469 
L 319.035587 59.469 
L 322.762109 59.469 
L 326.48863 59.469 
L 330.215151 59.469 
L 333.941673 59.469 
L 337.668194 59.469 
L 341.394716 59.469 
L 345.121237 59.469 
L 348.847758 59.469 
L 352.57428 59.469 
L 356.300801 47.949 
L 360.027323 47.949 
L 363.753844 47.949 
L 367.480366 47.949 
L 371.206887 47.949 
L 374.933408 47.949 
L 378.65993 47.949 
L 382.386451 47.949 
L 386.112973 47.949 
L 389.839494 47.949 
L 393.566015 47.949 
L 397.292537 47.949 
L 401.019058 47.949 
L 404.74558 47.949 
L 408.472101 47.949 
L 412.198622 47.949 
L 415.925144 47.949 
L 419.651665 47.949 
L 423.378187 47.949 
L 427.104708 47.949 
L 430.83123 47.949 
L 434.557751 47.949 
L 438.284272 47.949 
L 442.010794 47.949 
L 445.737315 47.949 
L 449.463837 47.949 
L 453.190358 47.949 
L 456.916879 47.949 
L 460.643401 47.949 
" clip-path="url(#pc50d33ebd4)" style="fill: none; stroke: #008000; stroke-width: 3; stroke-linecap: square"/>
   </g>
   <g id="line2d_16">
    <path d="M 91.717781 451.149 
L 460.643401 47.949 
" clip-path="url(#pc50d33ebd4)" style="fill: none; stroke-dasharray: 11.1,4.8; stroke-dashoffset: 0; stroke: #000000; stroke-opacity: 0.5; stroke-width: 3"/>
   </g>
   <g id="patch_3">
    <path d="M 73.2715 471.309 
L 73.2715 27.789 
" style="fill: none; stroke: #000000; stroke-width: 2.5; stroke-linejoin: miter; stroke-linecap: square"/>
   </g>
   <g id="patch_4">
    <path d="M 479.089682 471.309 
L 479.089682 27.789 
" style="fill: none; stroke: #000000; stroke-width: 2.5; stroke-linejoin: miter; stroke-linecap: square"/>
   </g>
   <g id="patch_5">
    <path d="M 73.2715 471.309 
L 479.089682 471.309 
" style="fill: none; stroke: #000000; stroke-width: 2.5; stroke-linejoin: miter; stroke-linecap: square"/>
   </g>
   <g id="patch_6">
    <path d="M 73.2715 27.789 
L 479.089682 27.789 
" style="fill: none; stroke: #000000; stroke-width: 2.5; stroke-linejoin: miter; stroke-linecap: square"/>
   </g>
   <g id="text_15">
    <!-- Approach CDT_DI_OHE -->
    <g transform="translate(166.898091 21.789) scale(0.192 -0.192)">
     <defs>
      <path id="DejaVuSans-41" d="M 2188 4044 
L 1331 1722 
L 3047 1722 
L 2188 4044 
z
M 1831 4666 
L 2547 4666 
L 4325 0 
L 3669 0 
L 3244 1197 
L 1141 1197 
L 716 0 
L 50 0 
L 1831 4666 
z
" transform="scale(0.015625)"/>
      <path id="DejaVuSans-70" d="M 1159 525 
L 1159 -1331 
L 581 -1331 
L 581 3500 
L 1159 3500 
L 1159 2969 
Q 1341 3281 1617 3432 
Q 1894 3584 2278 3584 
Q 2916 3584 3314 3078 
Q 3713 2572 3713 1747 
Q 3713 922 3314 415 
Q 2916 -91 2278 -91 
Q 1894 -91 1617 61 
Q 1341 213 1159 525 
z
M 3116 1747 
Q 3116 2381 2855 2742 
Q 2594 3103 2138 3103 
Q 1681 3103 1420 2742 
Q 1159 2381 1159 1747 
Q 1159 1113 1420 752 
Q 1681 391 2138 391 
Q 2594 391 2855 752 
Q 3116 1113 3116 1747 
z
" transform="scale(0.015625)"/>
      <path id="DejaVuSans-63" d="M 3122 3366 
L 3122 2828 
Q 2878 2963 2633 3030 
Q 2388 3097 2138 3097 
Q 1578 3097 1268 2742 
Q 959 2388 959 1747 
Q 959 1106 1268 751 
Q 1578 397 2138 397 
Q 2388 397 2633 464 
Q 2878 531 3122 666 
L 3122 134 
Q 2881 22 2623 -34 
Q 2366 -91 2075 -91 
Q 1284 -91 818 406 
Q 353 903 353 1747 
Q 353 2603 823 3093 
Q 1294 3584 2113 3584 
Q 2378 3584 2631 3529 
Q 2884 3475 3122 3366 
z
" transform="scale(0.015625)"/>
      <path id="DejaVuSans-68" d="M 3513 2113 
L 3513 0 
L 2938 0 
L 2938 2094 
Q 2938 2591 2744 2837 
Q 2550 3084 2163 3084 
Q 1697 3084 1428 2787 
Q 1159 2491 1159 1978 
L 1159 0 
L 581 0 
L 581 4863 
L 1159 4863 
L 1159 2956 
Q 1366 3272 1645 3428 
Q 1925 3584 2291 3584 
Q 2894 3584 3203 3211 
Q 3513 2838 3513 2113 
z
" transform="scale(0.015625)"/>
      <path id="DejaVuSans-43" d="M 4122 4306 
L 4122 3641 
Q 3803 3938 3442 4084 
Q 3081 4231 2675 4231 
Q 1875 4231 1450 3742 
Q 1025 3253 1025 2328 
Q 1025 1406 1450 917 
Q 1875 428 2675 428 
Q 3081 428 3442 575 
Q 3803 722 4122 1019 
L 4122 359 
Q 3791 134 3420 21 
Q 3050 -91 2638 -91 
Q 1578 -91 968 557 
Q 359 1206 359 2328 
Q 359 3453 968 4101 
Q 1578 4750 2638 4750 
Q 3056 4750 3426 4639 
Q 3797 4528 4122 4306 
z
" transform="scale(0.015625)"/>
      <path id="DejaVuSans-44" d="M 1259 4147 
L 1259 519 
L 2022 519 
Q 2988 519 3436 956 
Q 3884 1394 3884 2338 
Q 3884 3275 3436 3711 
Q 2988 4147 2022 4147 
L 1259 4147 
z
M 628 4666 
L 1925 4666 
Q 3281 4666 3915 4102 
Q 4550 3538 4550 2338 
Q 4550 1131 3912 565 
Q 3275 0 1925 0 
L 628 0 
L 628 4666 
z
" transform="scale(0.015625)"/>
      <path id="DejaVuSans-5f" d="M 3263 -1063 
L 3263 -1509 
L -63 -1509 
L -63 -1063 
L 3263 -1063 
z
" transform="scale(0.015625)"/>
      <path id="DejaVuSans-49" d="M 628 4666 
L 1259 4666 
L 1259 0 
L 628 0 
L 628 4666 
z
" transform="scale(0.015625)"/>
      <path id="DejaVuSans-4f" d="M 2522 4238 
Q 1834 4238 1429 3725 
Q 1025 3213 1025 2328 
Q 1025 1447 1429 934 
Q 1834 422 2522 422 
Q 3209 422 3611 934 
Q 4013 1447 4013 2328 
Q 4013 3213 3611 3725 
Q 3209 4238 2522 4238 
z
M 2522 4750 
Q 3503 4750 4090 4092 
Q 4678 3434 4678 2328 
Q 4678 1225 4090 567 
Q 3503 -91 2522 -91 
Q 1538 -91 948 565 
Q 359 1222 359 2328 
Q 359 3434 948 4092 
Q 1538 4750 2522 4750 
z
" transform="scale(0.015625)"/>
      <path id="DejaVuSans-48" d="M 628 4666 
L 1259 4666 
L 1259 2753 
L 3553 2753 
L 3553 4666 
L 4184 4666 
L 4184 0 
L 3553 0 
L 3553 2222 
L 1259 2222 
L 1259 0 
L 628 0 
L 628 4666 
z
" transform="scale(0.015625)"/>
      <path id="DejaVuSans-45" d="M 628 4666 
L 3578 4666 
L 3578 4134 
L 1259 4134 
L 1259 2753 
L 3481 2753 
L 3481 2222 
L 1259 2222 
L 1259 531 
L 3634 531 
L 3634 0 
L 628 0 
L 628 4666 
z
" transform="scale(0.015625)"/>
     </defs>
     <use xlink:href="#DejaVuSans-41"/>
     <use xlink:href="#DejaVuSans-70" x="68.408203"/>
     <use xlink:href="#DejaVuSans-70" x="131.884766"/>
     <use xlink:href="#DejaVuSans-72" x="195.361328"/>
     <use xlink:href="#DejaVuSans-6f" x="234.224609"/>
     <use xlink:href="#DejaVuSans-61" x="295.40625"/>
     <use xlink:href="#DejaVuSans-63" x="356.685547"/>
     <use xlink:href="#DejaVuSans-68" x="411.666016"/>
     <use xlink:href="#DejaVuSans-20" x="475.044922"/>
     <use xlink:href="#DejaVuSans-43" x="506.832031"/>
     <use xlink:href="#DejaVuSans-44" x="576.65625"/>
     <use xlink:href="#DejaVuSans-54" x="653.658203"/>
     <use xlink:href="#DejaVuSans-5f" x="714.742188"/>
     <use xlink:href="#DejaVuSans-44" x="764.742188"/>
     <use xlink:href="#DejaVuSans-49" x="841.744141"/>
     <use xlink:href="#DejaVuSans-5f" x="871.236328"/>
     <use xlink:href="#DejaVuSans-4f" x="921.236328"/>
     <use xlink:href="#DejaVuSans-48" x="999.947266"/>
     <use xlink:href="#DejaVuSans-45" x="1075.142578"/>
    </g>
   </g>
   <g id="legend_1">
    <g id="patch_7">
     <path d="M 321.341432 462.509 
L 466.769682 462.509 
Q 470.289682 462.509 470.289682 458.989 
L 470.289682 383.2485 
Q 470.289682 379.7285 466.769682 379.7285 
L 321.341432 379.7285 
Q 317.821432 379.7285 317.821432 383.2485 
L 317.821432 458.989 
Q 317.821432 462.509 321.341432 462.509 
z
" style="fill: #ffffff; opacity: 0.8; stroke: #cccccc; stroke-width: 2; stroke-linejoin: miter"/>
    </g>
    <g id="line2d_17">
     <path d="M 324.861432 393.98175 
L 342.461432 393.98175 
L 360.061432 393.98175 
" style="fill: none; stroke: #ffa500; stroke-width: 3; stroke-linecap: square"/>
    </g>
    <g id="text_16">
     <!-- LR: 0.86 -->
     <g transform="translate(374.141432 400.14175) scale(0.176 -0.176)">
      <defs>
       <path id="DejaVuSans-4c" d="M 628 4666 
L 1259 4666 
L 1259 531 
L 3531 531 
L 3531 0 
L 628 0 
L 628 4666 
z
" transform="scale(0.015625)"/>
       <path id="DejaVuSans-3a" d="M 750 794 
L 1409 794 
L 1409 0 
L 750 0 
L 750 794 
z
M 750 3309 
L 1409 3309 
L 1409 2516 
L 750 2516 
L 750 3309 
z
" transform="scale(0.015625)"/>
      </defs>
      <use xlink:href="#DejaVuSans-4c"/>
      <use xlink:href="#DejaVuSans-52" x="55.712891"/>
      <use xlink:href="#DejaVuSans-3a" x="122.070312"/>
      <use xlink:href="#DejaVuSans-20" x="155.761719"/>
      <use xlink:href="#DejaVuSans-30" x="187.548828"/>
      <use xlink:href="#DejaVuSans-2e" x="251.171875"/>
      <use xlink:href="#DejaVuSans-38" x="282.958984"/>
      <use xlink:href="#DejaVuSans-36" x="346.582031"/>
     </g>
    </g>
    <g id="line2d_18">
     <path d="M 324.861432 419.81525 
L 342.461432 419.81525 
L 360.061432 419.81525 
" style="fill: none; stroke: #0000ff; stroke-width: 3; stroke-linecap: square"/>
    </g>
    <g id="text_17">
     <!-- RF: 0.82 -->
     <g transform="translate(374.141432 425.97525) scale(0.176 -0.176)">
      <use xlink:href="#DejaVuSans-52"/>
      <use xlink:href="#DejaVuSans-46" x="69.482422"/>
      <use xlink:href="#DejaVuSans-3a" x="119.251953"/>
      <use xlink:href="#DejaVuSans-20" x="152.943359"/>
      <use xlink:href="#DejaVuSans-30" x="184.730469"/>
      <use xlink:href="#DejaVuSans-2e" x="248.353516"/>
      <use xlink:href="#DejaVuSans-38" x="280.140625"/>
      <use xlink:href="#DejaVuSans-32" x="343.763672"/>
     </g>
    </g>
    <g id="line2d_19">
     <path d="M 324.861432 445.64875 
L 342.461432 445.64875 
L 360.061432 445.64875 
" style="fill: none; stroke: #008000; stroke-width: 3; stroke-linecap: square"/>
    </g>
    <g id="text_18">
     <!-- SVM: 0.87 -->
     <g transform="translate(374.141432 451.80875) scale(0.176 -0.176)">
      <defs>
       <path id="DejaVuSans-53" d="M 3425 4513 
L 3425 3897 
Q 3066 4069 2747 4153 
Q 2428 4238 2131 4238 
Q 1616 4238 1336 4038 
Q 1056 3838 1056 3469 
Q 1056 3159 1242 3001 
Q 1428 2844 1947 2747 
L 2328 2669 
Q 3034 2534 3370 2195 
Q 3706 1856 3706 1288 
Q 3706 609 3251 259 
Q 2797 -91 1919 -91 
Q 1588 -91 1214 -16 
Q 841 59 441 206 
L 441 856 
Q 825 641 1194 531 
Q 1563 422 1919 422 
Q 2459 422 2753 634 
Q 3047 847 3047 1241 
Q 3047 1584 2836 1778 
Q 2625 1972 2144 2069 
L 1759 2144 
Q 1053 2284 737 2584 
Q 422 2884 422 3419 
Q 422 4038 858 4394 
Q 1294 4750 2059 4750 
Q 2388 4750 2728 4690 
Q 3069 4631 3425 4513 
z
" transform="scale(0.015625)"/>
       <path id="DejaVuSans-56" d="M 1831 0 
L 50 4666 
L 709 4666 
L 2188 738 
L 3669 4666 
L 4325 4666 
L 2547 0 
L 1831 0 
z
" transform="scale(0.015625)"/>
       <path id="DejaVuSans-4d" d="M 628 4666 
L 1569 4666 
L 2759 1491 
L 3956 4666 
L 4897 4666 
L 4897 0 
L 4281 0 
L 4281 4097 
L 3078 897 
L 2444 897 
L 1241 4097 
L 1241 0 
L 628 0 
L 628 4666 
z
" transform="scale(0.015625)"/>
       <path id="DejaVuSans-37" d="M 525 4666 
L 3525 4666 
L 3525 4397 
L 1831 0 
L 1172 0 
L 2766 4134 
L 525 4134 
L 525 4666 
z
" transform="scale(0.015625)"/>
      </defs>
      <use xlink:href="#DejaVuSans-53"/>
      <use xlink:href="#DejaVuSans-56" x="63.476562"/>
      <use xlink:href="#DejaVuSans-4d" x="131.884766"/>
      <use xlink:href="#DejaVuSans-3a" x="218.164062"/>
      <use xlink:href="#DejaVuSans-20" x="251.855469"/>
      <use xlink:href="#DejaVuSans-30" x="283.642578"/>
      <use xlink:href="#DejaVuSans-2e" x="347.265625"/>
      <use xlink:href="#DejaVuSans-38" x="379.052734"/>
      <use xlink:href="#DejaVuSans-37" x="442.675781"/>
     </g>
    </g>
   </g>
  </g>
  <g id="axes_2">
   <g id="patch_8">
    <path d="M 560.253318 471.309 
L 966.0715 471.309 
L 966.0715 27.789 
L 560.253318 27.789 
z
" style="fill: #ffffff"/>
   </g>
   <g id="PolyCollection_4">
    <defs>
     <path id="me486ba376f" d="M 578.699599 -82.4755 
L 578.699599 -82.4755 
L 582.426121 -197.6755 
L 586.152642 -197.6755 
L 589.879163 -197.6755 
L 593.605685 -197.6755 
L 597.332206 -197.6755 
L 601.058728 -197.6755 
L 604.785249 -197.6755 
L 608.51177 -197.6755 
L 612.238292 -197.6755 
L 615.964813 -197.6755 
L 619.691335 -197.6755 
L 623.417856 -197.6755 
L 627.144378 -197.6755 
L 630.870899 -197.6755 
L 634.59742 -312.8755 
L 638.323942 -312.8755 
L 642.050463 -312.8755 
L 645.776985 -312.8755 
L 649.503506 -312.8755 
L 653.230027 -312.8755 
L 656.956549 -312.8755 
L 660.68307 -312.8755 
L 664.409592 -312.8755 
L 668.136113 -312.8755 
L 671.862634 -312.8755 
L 675.589156 -312.8755 
L 679.315677 -312.8755 
L 683.042199 -312.8755 
L 686.76872 -312.8755 
L 690.495242 -312.8755 
L 694.221763 -312.8755 
L 697.948284 -312.8755 
L 701.674806 -312.8755 
L 705.401327 -312.8755 
L 709.127849 -312.8755 
L 712.85437 -312.8755 
L 716.580891 -312.8755 
L 720.307413 -312.8755 
L 724.033934 -312.8755 
L 727.760456 -312.8755 
L 731.486977 -312.8755 
L 735.213498 -312.8755 
L 738.94002 -370.4755 
L 742.666541 -370.4755 
L 746.393063 -370.4755 
L 750.119584 -370.4755 
L 753.846106 -370.4755 
L 757.572627 -370.4755 
L 761.299148 -370.4755 
L 765.02567 -370.4755 
L 768.752191 -370.4755 
L 772.478713 -370.4755 
L 776.205234 -370.4755 
L 779.931755 -370.4755 
L 783.658277 -370.4755 
L 787.384798 -370.4755 
L 791.11132 -428.0755 
L 794.837841 -428.0755 
L 798.564363 -428.0755 
L 802.290884 -428.0755 
L 806.017405 -428.0755 
L 809.743927 -428.0755 
L 813.470448 -428.0755 
L 817.19697 -428.0755 
L 820.923491 -428.0755 
L 824.650012 -428.0755 
L 828.376534 -428.0755 
L 832.103055 -428.0755 
L 835.829577 -428.0755 
L 839.556098 -428.0755 
L 843.282619 -485.6755 
L 847.009141 -485.6755 
L 850.735662 -485.6755 
L 854.462184 -485.6755 
L 858.188705 -485.6755 
L 861.915227 -485.6755 
L 865.641748 -485.6755 
L 869.368269 -485.6755 
L 873.094791 -485.6755 
L 876.821312 -485.6755 
L 880.547834 -485.6755 
L 884.274355 -485.6755 
L 888.000876 -485.6755 
L 891.727398 -485.6755 
L 895.453919 -485.6755 
L 899.180441 -485.6755 
L 902.906962 -485.6755 
L 906.633483 -485.6755 
L 910.360005 -485.6755 
L 914.086526 -485.6755 
L 917.813048 -485.6755 
L 921.539569 -485.6755 
L 925.266091 -485.6755 
L 928.992612 -485.6755 
L 932.719133 -485.6755 
L 936.445655 -485.6755 
L 940.172176 -485.6755 
L 943.898698 -485.6755 
L 947.625219 -485.6755 
L 947.625219 -485.6755 
L 947.625219 -485.6755 
L 943.898698 -485.6755 
L 940.172176 -485.6755 
L 936.445655 -485.6755 
L 932.719133 -485.6755 
L 928.992612 -485.6755 
L 925.266091 -485.6755 
L 921.539569 -485.6755 
L 917.813048 -485.6755 
L 914.086526 -485.6755 
L 910.360005 -485.6755 
L 906.633483 -485.6755 
L 902.906962 -485.6755 
L 899.180441 -485.6755 
L 895.453919 -485.6755 
L 891.727398 -485.6755 
L 888.000876 -485.6755 
L 884.274355 -485.6755 
L 880.547834 -485.6755 
L 876.821312 -485.6755 
L 873.094791 -485.6755 
L 869.368269 -485.6755 
L 865.641748 -485.6755 
L 861.915227 -485.6755 
L 858.188705 -485.6755 
L 854.462184 -485.6755 
L 850.735662 -485.6755 
L 847.009141 -485.6755 
L 843.282619 -485.6755 
L 839.556098 -485.6755 
L 835.829577 -485.6755 
L 832.103055 -485.6755 
L 828.376534 -485.6755 
L 824.650012 -485.6755 
L 820.923491 -485.6755 
L 817.19697 -485.6755 
L 813.470448 -485.6755 
L 809.743927 -485.6755 
L 806.017405 -485.6755 
L 802.290884 -485.6755 
L 798.564363 -485.6755 
L 794.837841 -485.6755 
L 791.11132 -485.6755 
L 787.384798 -485.6755 
L 783.658277 -485.6755 
L 779.931755 -485.6755 
L 776.205234 -485.6755 
L 772.478713 -485.6755 
L 768.752191 -485.6755 
L 765.02567 -485.6755 
L 761.299148 -485.6755 
L 757.572627 -485.6755 
L 753.846106 -485.6755 
L 750.119584 -485.6755 
L 746.393063 -485.6755 
L 742.666541 -485.6755 
L 738.94002 -485.6755 
L 735.213498 -485.6755 
L 731.486977 -485.6755 
L 727.760456 -485.6755 
L 724.033934 -485.6755 
L 720.307413 -485.6755 
L 716.580891 -485.6755 
L 712.85437 -485.6755 
L 709.127849 -485.6755 
L 705.401327 -485.6755 
L 701.674806 -485.6755 
L 697.948284 -485.6755 
L 694.221763 -485.6755 
L 690.495242 -485.6755 
L 686.76872 -485.6755 
L 683.042199 -485.6755 
L 679.315677 -485.6755 
L 675.589156 -485.6755 
L 671.862634 -485.6755 
L 668.136113 -485.6755 
L 664.409592 -485.6755 
L 660.68307 -485.6755 
L 656.956549 -485.6755 
L 653.230027 -485.6755 
L 649.503506 -485.6755 
L 645.776985 -485.6755 
L 642.050463 -485.6755 
L 638.323942 -485.6755 
L 634.59742 -485.6755 
L 630.870899 -485.6755 
L 627.144378 -485.6755 
L 623.417856 -485.6755 
L 619.691335 -485.6755 
L 615.964813 -485.6755 
L 612.238292 -485.6755 
L 608.51177 -485.6755 
L 604.785249 -485.6755 
L 601.058728 -485.6755 
L 597.332206 -485.6755 
L 593.605685 -485.6755 
L 589.879163 -485.6755 
L 586.152642 -485.6755 
L 582.426121 -485.6755 
L 578.699599 -82.4755 
z
" style="stroke: #ffa500; stroke-opacity: 0.2; stroke-width: 2"/>
    </defs>
    <g clip-path="url(#p8cd9512397)">
     <use xlink:href="#me486ba376f" x="0" y="533.6245" style="fill: #ffa500; fill-opacity: 0.2; stroke: #ffa500; stroke-opacity: 0.2; stroke-width: 2"/>
    </g>
   </g>
   <g id="PolyCollection_5">
    <defs>
     <path id="ma70fff6287" d="M 578.699599 -82.4755 
L 578.699599 -82.4755 
L 582.426121 -140.0755 
L 586.152642 -140.0755 
L 589.879163 -140.0755 
L 593.605685 -140.0755 
L 597.332206 -140.0755 
L 601.058728 -140.0755 
L 604.785249 -140.0755 
L 608.51177 -140.0755 
L 612.238292 -140.0755 
L 615.964813 -140.0755 
L 619.691335 -140.0755 
L 623.417856 -140.0755 
L 627.144378 -140.0755 
L 630.870899 -140.0755 
L 634.59742 -150.548227 
L 638.323942 -162.766409 
L 642.050463 -174.984591 
L 645.776985 -187.202773 
L 649.503506 -199.420955 
L 653.230027 -211.639136 
L 656.956549 -223.857318 
L 660.68307 -236.0755 
L 664.409592 -248.293682 
L 668.136113 -255.2755 
L 671.862634 -255.2755 
L 675.589156 -255.2755 
L 679.315677 -255.2755 
L 683.042199 -255.2755 
L 686.76872 -312.8755 
L 690.495242 -312.8755 
L 694.221763 -312.8755 
L 697.948284 -312.8755 
L 701.674806 -312.8755 
L 705.401327 -312.8755 
L 709.127849 -312.8755 
L 712.85437 -312.8755 
L 716.580891 -312.8755 
L 720.307413 -312.8755 
L 724.033934 -312.8755 
L 727.760456 -312.8755 
L 731.486977 -312.8755 
L 735.213498 -312.8755 
L 738.94002 -370.4755 
L 742.666541 -370.4755 
L 746.393063 -370.4755 
L 750.119584 -370.4755 
L 753.846106 -370.4755 
L 757.572627 -370.4755 
L 761.299148 -370.4755 
L 765.02567 -370.4755 
L 768.752191 -370.4755 
L 772.478713 -370.4755 
L 776.205234 -370.4755 
L 779.931755 -370.4755 
L 783.658277 -370.4755 
L 787.384798 -370.4755 
L 791.11132 -370.4755 
L 794.837841 -370.4755 
L 798.564363 -370.4755 
L 802.290884 -370.4755 
L 806.017405 -370.4755 
L 809.743927 -370.4755 
L 813.470448 -370.4755 
L 817.19697 -370.4755 
L 820.923491 -370.4755 
L 824.650012 -370.4755 
L 828.376534 -370.4755 
L 832.103055 -370.4755 
L 835.829577 -370.4755 
L 839.556098 -370.4755 
L 843.282619 -371.639136 
L 847.009141 -375.711864 
L 850.735662 -379.784591 
L 854.462184 -383.857318 
L 858.188705 -387.930045 
L 861.915227 -392.002773 
L 865.641748 -396.0755 
L 869.368269 -400.148227 
L 873.094791 -404.220955 
L 876.821312 -408.293682 
L 880.547834 -412.366409 
L 884.274355 -416.439136 
L 888.000876 -420.511864 
L 891.727398 -424.584591 
L 895.453919 -428.657318 
L 899.180441 -432.730045 
L 902.906962 -436.802773 
L 906.633483 -440.8755 
L 910.360005 -444.948227 
L 914.086526 -449.020955 
L 917.813048 -453.093682 
L 921.539569 -457.166409 
L 925.266091 -461.239136 
L 928.992612 -465.311864 
L 932.719133 -469.384591 
L 936.445655 -473.457318 
L 940.172176 -477.530045 
L 943.898698 -481.602773 
L 947.625219 -485.6755 
L 947.625219 -485.6755 
L 947.625219 -485.6755 
L 943.898698 -485.6755 
L 940.172176 -485.6755 
L 936.445655 -485.6755 
L 932.719133 -485.6755 
L 928.992612 -485.6755 
L 925.266091 -485.6755 
L 921.539569 -485.6755 
L 917.813048 -485.6755 
L 914.086526 -485.6755 
L 910.360005 -485.6755 
L 906.633483 -485.6755 
L 902.906962 -485.6755 
L 899.180441 -485.6755 
L 895.453919 -485.6755 
L 891.727398 -485.6755 
L 888.000876 -485.6755 
L 884.274355 -485.6755 
L 880.547834 -485.6755 
L 876.821312 -485.6755 
L 873.094791 -485.6755 
L 869.368269 -485.6755 
L 865.641748 -485.6755 
L 861.915227 -485.6755 
L 858.188705 -485.6755 
L 854.462184 -485.6755 
L 850.735662 -485.6755 
L 847.009141 -485.6755 
L 843.282619 -485.6755 
L 839.556098 -485.6755 
L 835.829577 -485.6755 
L 832.103055 -485.6755 
L 828.376534 -485.6755 
L 824.650012 -485.6755 
L 820.923491 -485.6755 
L 817.19697 -485.6755 
L 813.470448 -485.6755 
L 809.743927 -485.6755 
L 806.017405 -485.6755 
L 802.290884 -485.6755 
L 798.564363 -485.6755 
L 794.837841 -485.6755 
L 791.11132 -485.6755 
L 787.384798 -485.6755 
L 783.658277 -485.6755 
L 779.931755 -485.6755 
L 776.205234 -485.6755 
L 772.478713 -485.6755 
L 768.752191 -485.6755 
L 765.02567 -485.6755 
L 761.299148 -485.6755 
L 757.572627 -485.6755 
L 753.846106 -485.6755 
L 750.119584 -485.6755 
L 746.393063 -485.6755 
L 742.666541 -485.6755 
L 738.94002 -485.6755 
L 735.213498 -485.6755 
L 731.486977 -485.6755 
L 727.760456 -485.6755 
L 724.033934 -485.6755 
L 720.307413 -485.6755 
L 716.580891 -485.6755 
L 712.85437 -485.6755 
L 709.127849 -485.6755 
L 705.401327 -485.6755 
L 701.674806 -485.6755 
L 697.948284 -485.6755 
L 694.221763 -485.6755 
L 690.495242 -485.6755 
L 686.76872 -485.6755 
L 683.042199 -485.6755 
L 679.315677 -485.6755 
L 675.589156 -485.6755 
L 671.862634 -485.6755 
L 668.136113 -485.6755 
L 664.409592 -485.6755 
L 660.68307 -485.6755 
L 656.956549 -485.6755 
L 653.230027 -485.6755 
L 649.503506 -485.6755 
L 645.776985 -485.6755 
L 642.050463 -485.6755 
L 638.323942 -485.6755 
L 634.59742 -485.6755 
L 630.870899 -428.0755 
L 627.144378 -428.0755 
L 623.417856 -428.0755 
L 619.691335 -428.0755 
L 615.964813 -428.0755 
L 612.238292 -428.0755 
L 608.51177 -428.0755 
L 604.785249 -428.0755 
L 601.058728 -428.0755 
L 597.332206 -428.0755 
L 593.605685 -428.0755 
L 589.879163 -428.0755 
L 586.152642 -428.0755 
L 582.426121 -428.0755 
L 578.699599 -82.4755 
z
" style="stroke: #0000ff; stroke-opacity: 0.2; stroke-width: 2"/>
    </defs>
    <g clip-path="url(#p8cd9512397)">
     <use xlink:href="#ma70fff6287" x="0" y="533.6245" style="fill: #0000ff; fill-opacity: 0.2; stroke: #0000ff; stroke-opacity: 0.2; stroke-width: 2"/>
    </g>
   </g>
   <g id="PolyCollection_6">
    <defs>
     <path id="m1f15aa7b63" d="M 578.699599 -82.4755 
L 578.699599 -82.4755 
L 582.426121 -255.2755 
L 586.152642 -255.2755 
L 589.879163 -255.2755 
L 593.605685 -255.2755 
L 597.332206 -255.2755 
L 601.058728 -255.2755 
L 604.785249 -255.2755 
L 608.51177 -255.2755 
L 612.238292 -255.2755 
L 615.964813 -255.2755 
L 619.691335 -255.2755 
L 623.417856 -255.2755 
L 627.144378 -255.2755 
L 630.870899 -255.2755 
L 634.59742 -255.2755 
L 638.323942 -255.2755 
L 642.050463 -255.2755 
L 645.776985 -255.2755 
L 649.503506 -255.2755 
L 653.230027 -255.2755 
L 656.956549 -255.2755 
L 660.68307 -255.2755 
L 664.409592 -255.2755 
L 668.136113 -255.2755 
L 671.862634 -255.2755 
L 675.589156 -255.2755 
L 679.315677 -255.2755 
L 683.042199 -255.2755 
L 686.76872 -428.0755 
L 690.495242 -428.0755 
L 694.221763 -428.0755 
L 697.948284 -428.0755 
L 701.674806 -428.0755 
L 705.401327 -428.0755 
L 709.127849 -428.0755 
L 712.85437 -428.0755 
L 716.580891 -428.0755 
L 720.307413 -428.0755 
L 724.033934 -428.0755 
L 727.760456 -428.0755 
L 731.486977 -428.0755 
L 735.213498 -428.0755 
L 738.94002 -428.0755 
L 742.666541 -428.0755 
L 746.393063 -428.0755 
L 750.119584 -428.0755 
L 753.846106 -428.0755 
L 757.572627 -428.0755 
L 761.299148 -428.0755 
L 765.02567 -428.0755 
L 768.752191 -428.0755 
L 772.478713 -428.0755 
L 776.205234 -428.0755 
L 779.931755 -428.0755 
L 783.658277 -428.0755 
L 787.384798 -428.0755 
L 791.11132 -428.0755 
L 794.837841 -428.0755 
L 798.564363 -428.0755 
L 802.290884 -428.0755 
L 806.017405 -428.0755 
L 809.743927 -428.0755 
L 813.470448 -428.0755 
L 817.19697 -428.0755 
L 820.923491 -428.0755 
L 824.650012 -428.0755 
L 828.376534 -428.0755 
L 832.103055 -428.0755 
L 835.829577 -428.0755 
L 839.556098 -428.0755 
L 843.282619 -485.6755 
L 847.009141 -485.6755 
L 850.735662 -485.6755 
L 854.462184 -485.6755 
L 858.188705 -485.6755 
L 861.915227 -485.6755 
L 865.641748 -485.6755 
L 869.368269 -485.6755 
L 873.094791 -485.6755 
L 876.821312 -485.6755 
L 880.547834 -485.6755 
L 884.274355 -485.6755 
L 888.000876 -485.6755 
L 891.727398 -485.6755 
L 895.453919 -485.6755 
L 899.180441 -485.6755 
L 902.906962 -485.6755 
L 906.633483 -485.6755 
L 910.360005 -485.6755 
L 914.086526 -485.6755 
L 917.813048 -485.6755 
L 921.539569 -485.6755 
L 925.266091 -485.6755 
L 928.992612 -485.6755 
L 932.719133 -485.6755 
L 936.445655 -485.6755 
L 940.172176 -485.6755 
L 943.898698 -485.6755 
L 947.625219 -485.6755 
L 947.625219 -485.6755 
L 947.625219 -485.6755 
L 943.898698 -485.6755 
L 940.172176 -485.6755 
L 936.445655 -485.6755 
L 932.719133 -485.6755 
L 928.992612 -485.6755 
L 925.266091 -485.6755 
L 921.539569 -485.6755 
L 917.813048 -485.6755 
L 914.086526 -485.6755 
L 910.360005 -485.6755 
L 906.633483 -485.6755 
L 902.906962 -485.6755 
L 899.180441 -485.6755 
L 895.453919 -485.6755 
L 891.727398 -485.6755 
L 888.000876 -485.6755 
L 884.274355 -485.6755 
L 880.547834 -485.6755 
L 876.821312 -485.6755 
L 873.094791 -485.6755 
L 869.368269 -485.6755 
L 865.641748 -485.6755 
L 861.915227 -485.6755 
L 858.188705 -485.6755 
L 854.462184 -485.6755 
L 850.735662 -485.6755 
L 847.009141 -485.6755 
L 843.282619 -485.6755 
L 839.556098 -485.6755 
L 835.829577 -485.6755 
L 832.103055 -485.6755 
L 828.376534 -485.6755 
L 824.650012 -485.6755 
L 820.923491 -485.6755 
L 817.19697 -485.6755 
L 813.470448 -485.6755 
L 809.743927 -485.6755 
L 806.017405 -485.6755 
L 802.290884 -485.6755 
L 798.564363 -485.6755 
L 794.837841 -485.6755 
L 791.11132 -485.6755 
L 787.384798 -485.6755 
L 783.658277 -485.6755 
L 779.931755 -485.6755 
L 776.205234 -485.6755 
L 772.478713 -485.6755 
L 768.752191 -485.6755 
L 765.02567 -485.6755 
L 761.299148 -485.6755 
L 757.572627 -485.6755 
L 753.846106 -485.6755 
L 750.119584 -485.6755 
L 746.393063 -485.6755 
L 742.666541 -485.6755 
L 738.94002 -485.6755 
L 735.213498 -485.6755 
L 731.486977 -485.6755 
L 727.760456 -485.6755 
L 724.033934 -485.6755 
L 720.307413 -485.6755 
L 716.580891 -485.6755 
L 712.85437 -485.6755 
L 709.127849 -485.6755 
L 705.401327 -485.6755 
L 701.674806 -485.6755 
L 697.948284 -485.6755 
L 694.221763 -485.6755 
L 690.495242 -485.6755 
L 686.76872 -485.6755 
L 683.042199 -485.6755 
L 679.315677 -485.6755 
L 675.589156 -485.6755 
L 671.862634 -485.6755 
L 668.136113 -485.6755 
L 664.409592 -485.6755 
L 660.68307 -485.6755 
L 656.956549 -485.6755 
L 653.230027 -485.6755 
L 649.503506 -485.6755 
L 645.776985 -485.6755 
L 642.050463 -485.6755 
L 638.323942 -485.6755 
L 634.59742 -485.6755 
L 630.870899 -485.6755 
L 627.144378 -485.6755 
L 623.417856 -485.6755 
L 619.691335 -485.6755 
L 615.964813 -485.6755 
L 612.238292 -485.6755 
L 608.51177 -485.6755 
L 604.785249 -485.6755 
L 601.058728 -485.6755 
L 597.332206 -485.6755 
L 593.605685 -485.6755 
L 589.879163 -485.6755 
L 586.152642 -485.6755 
L 582.426121 -485.6755 
L 578.699599 -82.4755 
z
" style="stroke: #008000; stroke-opacity: 0.2; stroke-width: 2"/>
    </defs>
    <g clip-path="url(#p8cd9512397)">
     <use xlink:href="#m1f15aa7b63" x="0" y="533.6245" style="fill: #008000; fill-opacity: 0.2; stroke: #008000; stroke-opacity: 0.2; stroke-width: 2"/>
    </g>
   </g>
   <g id="matplotlib.axis_3">
    <g id="xtick_7">
     <g id="line2d_20">
      <g>
       <use xlink:href="#m6c15315dcb" x="578.699599" y="471.309" style="stroke: #000000; stroke-width: 2.5"/>
      </g>
     </g>
     <g id="text_19">
      <!-- 0.0 -->
      <g transform="translate(564.704849 500.18225) scale(0.176 -0.176)">
       <use xlink:href="#DejaVuSans-30"/>
       <use xlink:href="#DejaVuSans-2e" x="63.623047"/>
       <use xlink:href="#DejaVuSans-30" x="95.410156"/>
      </g>
     </g>
    </g>
    <g id="xtick_8">
     <g id="line2d_21">
      <g>
       <use xlink:href="#m6c15315dcb" x="652.484723" y="471.309" style="stroke: #000000; stroke-width: 2.5"/>
      </g>
     </g>
     <g id="text_20">
      <!-- 0.2 -->
      <g transform="translate(638.489973 500.18225) scale(0.176 -0.176)">
       <use xlink:href="#DejaVuSans-30"/>
       <use xlink:href="#DejaVuSans-2e" x="63.623047"/>
       <use xlink:href="#DejaVuSans-32" x="95.410156"/>
      </g>
     </g>
    </g>
    <g id="xtick_9">
     <g id="line2d_22">
      <g>
       <use xlink:href="#m6c15315dcb" x="726.269847" y="471.309" style="stroke: #000000; stroke-width: 2.5"/>
      </g>
     </g>
     <g id="text_21">
      <!-- 0.4 -->
      <g transform="translate(712.275097 500.18225) scale(0.176 -0.176)">
       <use xlink:href="#DejaVuSans-30"/>
       <use xlink:href="#DejaVuSans-2e" x="63.623047"/>
       <use xlink:href="#DejaVuSans-34" x="95.410156"/>
      </g>
     </g>
    </g>
    <g id="xtick_10">
     <g id="line2d_23">
      <g>
       <use xlink:href="#m6c15315dcb" x="800.054971" y="471.309" style="stroke: #000000; stroke-width: 2.5"/>
      </g>
     </g>
     <g id="text_22">
      <!-- 0.6 -->
      <g transform="translate(786.060221 500.18225) scale(0.176 -0.176)">
       <use xlink:href="#DejaVuSans-30"/>
       <use xlink:href="#DejaVuSans-2e" x="63.623047"/>
       <use xlink:href="#DejaVuSans-36" x="95.410156"/>
      </g>
     </g>
    </g>
    <g id="xtick_11">
     <g id="line2d_24">
      <g>
       <use xlink:href="#m6c15315dcb" x="873.840095" y="471.309" style="stroke: #000000; stroke-width: 2.5"/>
      </g>
     </g>
     <g id="text_23">
      <!-- 0.8 -->
      <g transform="translate(859.845345 500.18225) scale(0.176 -0.176)">
       <use xlink:href="#DejaVuSans-30"/>
       <use xlink:href="#DejaVuSans-2e" x="63.623047"/>
       <use xlink:href="#DejaVuSans-38" x="95.410156"/>
      </g>
     </g>
    </g>
    <g id="xtick_12">
     <g id="line2d_25">
      <g>
       <use xlink:href="#m6c15315dcb" x="947.625219" y="471.309" style="stroke: #000000; stroke-width: 2.5"/>
      </g>
     </g>
     <g id="text_24">
      <!-- 1.0 -->
      <g transform="translate(933.630469 500.18225) scale(0.176 -0.176)">
       <use xlink:href="#DejaVuSans-31"/>
       <use xlink:href="#DejaVuSans-2e" x="63.623047"/>
       <use xlink:href="#DejaVuSans-30" x="95.410156"/>
      </g>
     </g>
    </g>
    <g id="text_25">
     <!-- False Positive Rate -->
     <g transform="translate(673.946909 522.4315) scale(0.192 -0.192)">
      <use xlink:href="#DejaVuSans-46"/>
      <use xlink:href="#DejaVuSans-61" x="48.394531"/>
      <use xlink:href="#DejaVuSans-6c" x="109.673828"/>
      <use xlink:href="#DejaVuSans-73" x="137.457031"/>
      <use xlink:href="#DejaVuSans-65" x="189.556641"/>
      <use xlink:href="#DejaVuSans-20" x="251.080078"/>
      <use xlink:href="#DejaVuSans-50" x="282.867188"/>
      <use xlink:href="#DejaVuSans-6f" x="339.544922"/>
      <use xlink:href="#DejaVuSans-73" x="400.726562"/>
      <use xlink:href="#DejaVuSans-69" x="452.826172"/>
      <use xlink:href="#DejaVuSans-74" x="480.609375"/>
      <use xlink:href="#DejaVuSans-69" x="519.818359"/>
      <use xlink:href="#DejaVuSans-76" x="547.601562"/>
      <use xlink:href="#DejaVuSans-65" x="606.78125"/>
      <use xlink:href="#DejaVuSans-20" x="668.304688"/>
      <use xlink:href="#DejaVuSans-52" x="700.091797"/>
      <use xlink:href="#DejaVuSans-61" x="767.324219"/>
      <use xlink:href="#DejaVuSans-74" x="828.603516"/>
      <use xlink:href="#DejaVuSans-65" x="867.8125"/>
     </g>
    </g>
   </g>
   <g id="matplotlib.axis_4">
    <g id="ytick_7">
     <g id="line2d_26">
      <g>
       <use xlink:href="#meafe8ea25f" x="560.253318" y="451.149" style="stroke: #000000; stroke-width: 2.5"/>
      </g>
     </g>
     <g id="text_26">
      <!-- 0.0 -->
      <g transform="translate(516.763818 457.835625) scale(0.176 -0.176)">
       <use xlink:href="#DejaVuSans-30"/>
       <use xlink:href="#DejaVuSans-2e" x="63.623047"/>
       <use xlink:href="#DejaVuSans-30" x="95.410156"/>
      </g>
     </g>
    </g>
    <g id="ytick_8">
     <g id="line2d_27">
      <g>
       <use xlink:href="#meafe8ea25f" x="560.253318" y="370.509" style="stroke: #000000; stroke-width: 2.5"/>
      </g>
     </g>
     <g id="text_27">
      <!-- 0.2 -->
      <g transform="translate(516.763818 377.195625) scale(0.176 -0.176)">
       <use xlink:href="#DejaVuSans-30"/>
       <use xlink:href="#DejaVuSans-2e" x="63.623047"/>
       <use xlink:href="#DejaVuSans-32" x="95.410156"/>
      </g>
     </g>
    </g>
    <g id="ytick_9">
     <g id="line2d_28">
      <g>
       <use xlink:href="#meafe8ea25f" x="560.253318" y="289.869" style="stroke: #000000; stroke-width: 2.5"/>
      </g>
     </g>
     <g id="text_28">
      <!-- 0.4 -->
      <g transform="translate(516.763818 296.555625) scale(0.176 -0.176)">
       <use xlink:href="#DejaVuSans-30"/>
       <use xlink:href="#DejaVuSans-2e" x="63.623047"/>
       <use xlink:href="#DejaVuSans-34" x="95.410156"/>
      </g>
     </g>
    </g>
    <g id="ytick_10">
     <g id="line2d_29">
      <g>
       <use xlink:href="#meafe8ea25f" x="560.253318" y="209.229" style="stroke: #000000; stroke-width: 2.5"/>
      </g>
     </g>
     <g id="text_29">
      <!-- 0.6 -->
      <g transform="translate(516.763818 215.915625) scale(0.176 -0.176)">
       <use xlink:href="#DejaVuSans-30"/>
       <use xlink:href="#DejaVuSans-2e" x="63.623047"/>
       <use xlink:href="#DejaVuSans-36" x="95.410156"/>
      </g>
     </g>
    </g>
    <g id="ytick_11">
     <g id="line2d_30">
      <g>
       <use xlink:href="#meafe8ea25f" x="560.253318" y="128.589" style="stroke: #000000; stroke-width: 2.5"/>
      </g>
     </g>
     <g id="text_30">
      <!-- 0.8 -->
      <g transform="translate(516.763818 135.275625) scale(0.176 -0.176)">
       <use xlink:href="#DejaVuSans-30"/>
       <use xlink:href="#DejaVuSans-2e" x="63.623047"/>
       <use xlink:href="#DejaVuSans-38" x="95.410156"/>
      </g>
     </g>
    </g>
    <g id="ytick_12">
     <g id="line2d_31">
      <g>
       <use xlink:href="#meafe8ea25f" x="560.253318" y="47.949" style="stroke: #000000; stroke-width: 2.5"/>
      </g>
     </g>
     <g id="text_31">
      <!-- 1.0 -->
      <g transform="translate(516.763818 54.635625) scale(0.176 -0.176)">
       <use xlink:href="#DejaVuSans-31"/>
       <use xlink:href="#DejaVuSans-2e" x="63.623047"/>
       <use xlink:href="#DejaVuSans-30" x="95.410156"/>
      </g>
     </g>
    </g>
    <g id="text_32">
     <!-- True Positive Rate -->
     <g transform="translate(508.770818 335.046) rotate(-90) scale(0.192 -0.192)">
      <use xlink:href="#DejaVuSans-54"/>
      <use xlink:href="#DejaVuSans-72" x="46.333984"/>
      <use xlink:href="#DejaVuSans-75" x="87.447266"/>
      <use xlink:href="#DejaVuSans-65" x="150.826172"/>
      <use xlink:href="#DejaVuSans-20" x="212.349609"/>
      <use xlink:href="#DejaVuSans-50" x="244.136719"/>
      <use xlink:href="#DejaVuSans-6f" x="300.814453"/>
      <use xlink:href="#DejaVuSans-73" x="361.996094"/>
      <use xlink:href="#DejaVuSans-69" x="414.095703"/>
      <use xlink:href="#DejaVuSans-74" x="441.878906"/>
      <use xlink:href="#DejaVuSans-69" x="481.087891"/>
      <use xlink:href="#DejaVuSans-76" x="508.871094"/>
      <use xlink:href="#DejaVuSans-65" x="568.050781"/>
      <use xlink:href="#DejaVuSans-20" x="629.574219"/>
      <use xlink:href="#DejaVuSans-52" x="661.361328"/>
      <use xlink:href="#DejaVuSans-61" x="728.59375"/>
      <use xlink:href="#DejaVuSans-74" x="789.873047"/>
      <use xlink:href="#DejaVuSans-65" x="829.082031"/>
     </g>
    </g>
   </g>
   <g id="line2d_32">
    <path d="M 578.699599 451.149 
L 582.426121 186.189 
L 586.152642 186.189 
L 589.879163 186.189 
L 593.605685 186.189 
L 597.332206 186.189 
L 601.058728 186.189 
L 604.785249 186.189 
L 608.51177 186.189 
L 612.238292 186.189 
L 615.964813 186.189 
L 619.691335 186.189 
L 623.417856 186.189 
L 627.144378 186.189 
L 630.870899 186.189 
L 634.59742 111.309 
L 638.323942 111.309 
L 642.050463 111.309 
L 645.776985 111.309 
L 649.503506 111.309 
L 653.230027 111.309 
L 656.956549 111.309 
L 660.68307 111.309 
L 664.409592 111.309 
L 668.136113 111.309 
L 671.862634 111.309 
L 675.589156 111.309 
L 679.315677 111.309 
L 683.042199 111.309 
L 686.76872 82.509 
L 690.495242 82.509 
L 694.221763 82.509 
L 697.948284 82.509 
L 701.674806 82.509 
L 705.401327 82.509 
L 709.127849 82.509 
L 712.85437 82.509 
L 716.580891 82.509 
L 720.307413 82.509 
L 724.033934 82.509 
L 727.760456 82.509 
L 731.486977 82.509 
L 735.213498 82.509 
L 738.94002 70.989 
L 742.666541 70.989 
L 746.393063 70.989 
L 750.119584 70.989 
L 753.846106 70.989 
L 757.572627 70.989 
L 761.299148 70.989 
L 765.02567 70.989 
L 768.752191 70.989 
L 772.478713 70.989 
L 776.205234 70.989 
L 779.931755 70.989 
L 783.658277 70.989 
L 787.384798 70.989 
L 791.11132 53.709 
L 794.837841 53.709 
L 798.564363 53.709 
L 802.290884 53.709 
L 806.017405 53.709 
L 809.743927 53.709 
L 813.470448 53.709 
L 817.19697 53.709 
L 820.923491 53.709 
L 824.650012 53.709 
L 828.376534 53.709 
L 832.103055 53.709 
L 835.829577 53.709 
L 839.556098 53.709 
L 843.282619 47.949 
L 847.009141 47.949 
L 850.735662 47.949 
L 854.462184 47.949 
L 858.188705 47.949 
L 861.915227 47.949 
L 865.641748 47.949 
L 869.368269 47.949 
L 873.094791 47.949 
L 876.821312 47.949 
L 880.547834 47.949 
L 884.274355 47.949 
L 888.000876 47.949 
L 891.727398 47.949 
L 895.453919 47.949 
L 899.180441 47.949 
L 902.906962 47.949 
L 906.633483 47.949 
L 910.360005 47.949 
L 914.086526 47.949 
L 917.813048 47.949 
L 921.539569 47.949 
L 925.266091 47.949 
L 928.992612 47.949 
L 932.719133 47.949 
L 936.445655 47.949 
L 940.172176 47.949 
L 943.898698 47.949 
L 947.625219 47.949 
" clip-path="url(#p8cd9512397)" style="fill: none; stroke: #ffa500; stroke-width: 3; stroke-linecap: square"/>
   </g>
   <g id="line2d_33">
    <path d="M 578.699599 451.149 
L 582.426121 260.661727 
L 586.152642 260.254455 
L 589.879163 259.847182 
L 593.605685 259.439909 
L 597.332206 259.032636 
L 601.058728 258.625364 
L 604.785249 258.218091 
L 608.51177 257.810818 
L 612.238292 257.403545 
L 615.964813 256.996273 
L 619.691335 256.589 
L 623.417856 256.181727 
L 627.144378 255.774455 
L 630.870899 255.367182 
L 634.59742 178.334455 
L 638.323942 175.890818 
L 642.050463 173.447182 
L 645.776985 171.003545 
L 649.503506 168.559909 
L 653.230027 166.116273 
L 656.956549 163.672636 
L 660.68307 161.229 
L 664.409592 158.785364 
L 668.136113 156.341727 
L 671.862634 153.898091 
L 675.589156 151.454455 
L 679.315677 149.010818 
L 683.042199 146.567182 
L 686.76872 122.538091 
L 690.495242 122.130818 
L 694.221763 121.723545 
L 697.948284 121.316273 
L 701.674806 120.909 
L 705.401327 120.501727 
L 709.127849 120.094455 
L 712.85437 119.687182 
L 716.580891 119.279909 
L 720.307413 118.872636 
L 724.033934 118.465364 
L 727.760456 118.058091 
L 731.486977 117.650818 
L 735.213498 117.243545 
L 738.94002 82.509 
L 742.666541 82.509 
L 746.393063 82.509 
L 750.119584 82.509 
L 753.846106 82.509 
L 757.572627 82.509 
L 761.299148 82.509 
L 765.02567 82.509 
L 768.752191 82.509 
L 772.478713 82.509 
L 776.205234 82.509 
L 779.931755 82.509 
L 783.658277 82.509 
L 787.384798 82.509 
L 791.11132 65.229 
L 794.837841 65.229 
L 798.564363 65.229 
L 802.290884 65.229 
L 806.017405 65.229 
L 809.743927 65.229 
L 813.470448 65.229 
L 817.19697 65.229 
L 820.923491 65.229 
L 824.650012 65.229 
L 828.376534 65.229 
L 832.103055 65.229 
L 835.829577 65.229 
L 839.556098 65.229 
L 843.282619 59.352636 
L 847.009141 58.945364 
L 850.735662 58.538091 
L 854.462184 58.130818 
L 858.188705 57.723545 
L 861.915227 57.316273 
L 865.641748 56.909 
L 869.368269 56.501727 
L 873.094791 56.094455 
L 876.821312 55.687182 
L 880.547834 55.279909 
L 884.274355 54.872636 
L 888.000876 54.465364 
L 891.727398 54.058091 
L 895.453919 53.650818 
L 899.180441 53.243545 
L 902.906962 52.836273 
L 906.633483 52.429 
L 910.360005 52.021727 
L 914.086526 51.614455 
L 917.813048 51.207182 
L 921.539569 50.799909 
L 925.266091 50.392636 
L 928.992612 49.985364 
L 932.719133 49.578091 
L 936.445655 49.170818 
L 940.172176 48.763545 
L 943.898698 48.356273 
L 947.625219 47.949 
" clip-path="url(#p8cd9512397)" style="fill: none; stroke: #0000ff; stroke-width: 3; stroke-linecap: square"/>
   </g>
   <g id="line2d_34">
    <path d="M 578.699599 451.149 
L 582.426121 174.669 
L 586.152642 174.669 
L 589.879163 174.669 
L 593.605685 174.669 
L 597.332206 174.669 
L 601.058728 174.669 
L 604.785249 174.669 
L 608.51177 174.669 
L 612.238292 174.669 
L 615.964813 174.669 
L 619.691335 174.669 
L 623.417856 174.669 
L 627.144378 174.669 
L 630.870899 174.669 
L 634.59742 105.549 
L 638.323942 105.549 
L 642.050463 105.549 
L 645.776985 105.549 
L 649.503506 105.549 
L 653.230027 105.549 
L 656.956549 105.549 
L 660.68307 105.549 
L 664.409592 105.549 
L 668.136113 105.549 
L 671.862634 105.549 
L 675.589156 105.549 
L 679.315677 105.549 
L 683.042199 105.549 
L 686.76872 65.229 
L 690.495242 65.229 
L 694.221763 65.229 
L 697.948284 65.229 
L 701.674806 65.229 
L 705.401327 65.229 
L 709.127849 65.229 
L 712.85437 65.229 
L 716.580891 65.229 
L 720.307413 65.229 
L 724.033934 65.229 
L 727.760456 65.229 
L 731.486977 65.229 
L 735.213498 65.229 
L 738.94002 65.229 
L 742.666541 65.229 
L 746.393063 65.229 
L 750.119584 65.229 
L 753.846106 65.229 
L 757.572627 65.229 
L 761.299148 65.229 
L 765.02567 65.229 
L 768.752191 65.229 
L 772.478713 65.229 
L 776.205234 65.229 
L 779.931755 65.229 
L 783.658277 65.229 
L 787.384798 65.229 
L 791.11132 65.229 
L 794.837841 65.229 
L 798.564363 65.229 
L 802.290884 65.229 
L 806.017405 65.229 
L 809.743927 65.229 
L 813.470448 65.229 
L 817.19697 65.229 
L 820.923491 65.229 
L 824.650012 65.229 
L 828.376534 65.229 
L 832.103055 65.229 
L 835.829577 65.229 
L 839.556098 65.229 
L 843.282619 47.949 
L 847.009141 47.949 
L 850.735662 47.949 
L 854.462184 47.949 
L 858.188705 47.949 
L 861.915227 47.949 
L 865.641748 47.949 
L 869.368269 47.949 
L 873.094791 47.949 
L 876.821312 47.949 
L 880.547834 47.949 
L 884.274355 47.949 
L 888.000876 47.949 
L 891.727398 47.949 
L 895.453919 47.949 
L 899.180441 47.949 
L 902.906962 47.949 
L 906.633483 47.949 
L 910.360005 47.949 
L 914.086526 47.949 
L 917.813048 47.949 
L 921.539569 47.949 
L 925.266091 47.949 
L 928.992612 47.949 
L 932.719133 47.949 
L 936.445655 47.949 
L 940.172176 47.949 
L 943.898698 47.949 
L 947.625219 47.949 
" clip-path="url(#p8cd9512397)" style="fill: none; stroke: #008000; stroke-width: 3; stroke-linecap: square"/>
   </g>
   <g id="line2d_35">
    <path d="M 578.699599 451.149 
L 947.625219 47.949 
" clip-path="url(#p8cd9512397)" style="fill: none; stroke-dasharray: 11.1,4.8; stroke-dashoffset: 0; stroke: #000000; stroke-opacity: 0.5; stroke-width: 3"/>
   </g>
   <g id="patch_9">
    <path d="M 560.253318 471.309 
L 560.253318 27.789 
" style="fill: none; stroke: #000000; stroke-width: 2.5; stroke-linejoin: miter; stroke-linecap: square"/>
   </g>
   <g id="patch_10">
    <path d="M 966.0715 471.309 
L 966.0715 27.789 
" style="fill: none; stroke: #000000; stroke-width: 2.5; stroke-linejoin: miter; stroke-linecap: square"/>
   </g>
   <g id="patch_11">
    <path d="M 560.253318 471.309 
L 966.0715 471.309 
" style="fill: none; stroke: #000000; stroke-width: 2.5; stroke-linejoin: miter; stroke-linecap: square"/>
   </g>
   <g id="patch_12">
    <path d="M 560.253318 27.789 
L 966.0715 27.789 
" style="fill: none; stroke: #000000; stroke-width: 2.5; stroke-linejoin: miter; stroke-linecap: square"/>
   </g>
   <g id="text_33">
    <!-- Approach CDT_DI_FI_OHE -->
    <g transform="translate(640.726409 21.789) scale(0.192 -0.192)">
     <use xlink:href="#DejaVuSans-41"/>
     <use xlink:href="#DejaVuSans-70" x="68.408203"/>
     <use xlink:href="#DejaVuSans-70" x="131.884766"/>
     <use xlink:href="#DejaVuSans-72" x="195.361328"/>
     <use xlink:href="#DejaVuSans-6f" x="234.224609"/>
     <use xlink:href="#DejaVuSans-61" x="295.40625"/>
     <use xlink:href="#DejaVuSans-63" x="356.685547"/>
     <use xlink:href="#DejaVuSans-68" x="411.666016"/>
     <use xlink:href="#DejaVuSans-20" x="475.044922"/>
     <use xlink:href="#DejaVuSans-43" x="506.832031"/>
     <use xlink:href="#DejaVuSans-44" x="576.65625"/>
     <use xlink:href="#DejaVuSans-54" x="653.658203"/>
     <use xlink:href="#DejaVuSans-5f" x="714.742188"/>
     <use xlink:href="#DejaVuSans-44" x="764.742188"/>
     <use xlink:href="#DejaVuSans-49" x="841.744141"/>
     <use xlink:href="#DejaVuSans-5f" x="871.236328"/>
     <use xlink:href="#DejaVuSans-46" x="921.236328"/>
     <use xlink:href="#DejaVuSans-49" x="978.755859"/>
     <use xlink:href="#DejaVuSans-5f" x="1008.248047"/>
     <use xlink:href="#DejaVuSans-4f" x="1058.248047"/>
     <use xlink:href="#DejaVuSans-48" x="1136.958984"/>
     <use xlink:href="#DejaVuSans-45" x="1212.154297"/>
    </g>
   </g>
   <g id="legend_2">
    <g id="patch_13">
     <path d="M 808.32325 462.509 
L 953.7515 462.509 
Q 957.2715 462.509 957.2715 458.989 
L 957.2715 383.2485 
Q 957.2715 379.7285 953.7515 379.7285 
L 808.32325 379.7285 
Q 804.80325 379.7285 804.80325 383.2485 
L 804.80325 458.989 
Q 804.80325 462.509 808.32325 462.509 
z
" style="fill: #ffffff; opacity: 0.8; stroke: #cccccc; stroke-width: 2; stroke-linejoin: miter"/>
    </g>
    <g id="line2d_36">
     <path d="M 811.84325 393.98175 
L 829.44325 393.98175 
L 847.04325 393.98175 
" style="fill: none; stroke: #ffa500; stroke-width: 3; stroke-linecap: square"/>
    </g>
    <g id="text_34">
     <!-- LR: 0.9 -->
     <g transform="translate(861.12325 400.14175) scale(0.176 -0.176)">
      <defs>
       <path id="DejaVuSans-39" d="M 703 97 
L 703 672 
Q 941 559 1184 500 
Q 1428 441 1663 441 
Q 2288 441 2617 861 
Q 2947 1281 2994 2138 
Q 2813 1869 2534 1725 
Q 2256 1581 1919 1581 
Q 1219 1581 811 2004 
Q 403 2428 403 3163 
Q 403 3881 828 4315 
Q 1253 4750 1959 4750 
Q 2769 4750 3195 4129 
Q 3622 3509 3622 2328 
Q 3622 1225 3098 567 
Q 2575 -91 1691 -91 
Q 1453 -91 1209 -44 
Q 966 3 703 97 
z
M 1959 2075 
Q 2384 2075 2632 2365 
Q 2881 2656 2881 3163 
Q 2881 3666 2632 3958 
Q 2384 4250 1959 4250 
Q 1534 4250 1286 3958 
Q 1038 3666 1038 3163 
Q 1038 2656 1286 2365 
Q 1534 2075 1959 2075 
z
" transform="scale(0.015625)"/>
      </defs>
      <use xlink:href="#DejaVuSans-4c"/>
      <use xlink:href="#DejaVuSans-52" x="55.712891"/>
      <use xlink:href="#DejaVuSans-3a" x="122.070312"/>
      <use xlink:href="#DejaVuSans-20" x="155.761719"/>
      <use xlink:href="#DejaVuSans-30" x="187.548828"/>
      <use xlink:href="#DejaVuSans-2e" x="251.171875"/>
      <use xlink:href="#DejaVuSans-39" x="282.958984"/>
     </g>
    </g>
    <g id="line2d_37">
     <path d="M 811.84325 419.81525 
L 829.44325 419.81525 
L 847.04325 419.81525 
" style="fill: none; stroke: #0000ff; stroke-width: 3; stroke-linecap: square"/>
    </g>
    <g id="text_35">
     <!-- RF: 0.83 -->
     <g transform="translate(861.12325 425.97525) scale(0.176 -0.176)">
      <defs>
       <path id="DejaVuSans-33" d="M 2597 2516 
Q 3050 2419 3304 2112 
Q 3559 1806 3559 1356 
Q 3559 666 3084 287 
Q 2609 -91 1734 -91 
Q 1441 -91 1130 -33 
Q 819 25 488 141 
L 488 750 
Q 750 597 1062 519 
Q 1375 441 1716 441 
Q 2309 441 2620 675 
Q 2931 909 2931 1356 
Q 2931 1769 2642 2001 
Q 2353 2234 1838 2234 
L 1294 2234 
L 1294 2753 
L 1863 2753 
Q 2328 2753 2575 2939 
Q 2822 3125 2822 3475 
Q 2822 3834 2567 4026 
Q 2313 4219 1838 4219 
Q 1578 4219 1281 4162 
Q 984 4106 628 3988 
L 628 4550 
Q 988 4650 1302 4700 
Q 1616 4750 1894 4750 
Q 2613 4750 3031 4423 
Q 3450 4097 3450 3541 
Q 3450 3153 3228 2886 
Q 3006 2619 2597 2516 
z
" transform="scale(0.015625)"/>
      </defs>
      <use xlink:href="#DejaVuSans-52"/>
      <use xlink:href="#DejaVuSans-46" x="69.482422"/>
      <use xlink:href="#DejaVuSans-3a" x="119.251953"/>
      <use xlink:href="#DejaVuSans-20" x="152.943359"/>
      <use xlink:href="#DejaVuSans-30" x="184.730469"/>
      <use xlink:href="#DejaVuSans-2e" x="248.353516"/>
      <use xlink:href="#DejaVuSans-38" x="280.140625"/>
      <use xlink:href="#DejaVuSans-33" x="343.763672"/>
     </g>
    </g>
    <g id="line2d_38">
     <path d="M 811.84325 445.64875 
L 829.44325 445.64875 
L 847.04325 445.64875 
" style="fill: none; stroke: #008000; stroke-width: 3; stroke-linecap: square"/>
    </g>
    <g id="text_36">
     <!-- SVM: 0.91 -->
     <g transform="translate(861.12325 451.80875) scale(0.176 -0.176)">
      <use xlink:href="#DejaVuSans-53"/>
      <use xlink:href="#DejaVuSans-56" x="63.476562"/>
      <use xlink:href="#DejaVuSans-4d" x="131.884766"/>
      <use xlink:href="#DejaVuSans-3a" x="218.164062"/>
      <use xlink:href="#DejaVuSans-20" x="251.855469"/>
      <use xlink:href="#DejaVuSans-30" x="283.642578"/>
      <use xlink:href="#DejaVuSans-2e" x="347.265625"/>
      <use xlink:href="#DejaVuSans-39" x="379.052734"/>
      <use xlink:href="#DejaVuSans-31" x="442.675781"/>
     </g>
    </g>
   </g>
  </g>
 </g>
 <defs>
  <clipPath id="pc50d33ebd4">
   <rect x="73.2715" y="27.789" width="405.818182" height="443.52"/>
  </clipPath>
  <clipPath id="p8cd9512397">
   <rect x="560.253318" y="27.789" width="405.818182" height="443.52"/>
  </clipPath>
 </defs>
</svg>
