<?xml version="1.0" encoding="utf-8" standalone="no"?>
<!DOCTYPE svg PUBLIC "-//W3C//DTD SVG 1.1//EN"
  "http://www.w3.org/Graphics/SVG/1.1/DTD/svg11.dtd">
<svg xmlns:xlink="http://www.w3.org/1999/xlink" width="973.2715pt" height="533.6245pt" viewBox="0 0 973.2715 533.6245" xmlns="http://www.w3.org/2000/svg" version="1.1">
 <metadata>
  <rdf:RDF xmlns:dc="http://purl.org/dc/elements/1.1/" xmlns:cc="http://creativecommons.org/ns#" xmlns:rdf="http://www.w3.org/1999/02/22-rdf-syntax-ns#">
   <cc:Work>
    <dc:type rdf:resource="http://purl.org/dc/dcmitype/StillImage"/>
    <dc:date>2023-05-11T17:15:55.285212</dc:date>
    <dc:format>image/svg+xml</dc:format>
    <dc:creator>
     <cc:Agent>
      <dc:title>Matplotlib v3.6.2, https://matplotlib.org/</dc:title>
     </cc:Agent>
    </dc:creator>
   </cc:Work>
  </rdf:RDF>
 </metadata>
 <defs>
  <style type="text/css">*{stroke-linejoin: round; stroke-linecap: butt}</style>
 </defs>
 <g id="figure_1">
  <g id="patch_1">
   <path d="M 0 533.6245 
L 973.2715 533.6245 
L 973.2715 0 
L 0 0 
z
" style="fill: #ffffff"/>
  </g>
  <g id="axes_1">
   <g id="patch_2">
    <path d="M 73.2715 471.309 
L 479.089682 471.309 
L 479.089682 27.789 
L 73.2715 27.789 
z
" style="fill: #ffffff"/>
   </g>
   <g id="PolyCollection_1">
    <defs>
     <path id="m0e278c0ddc" d="M 91.717781 -82.4755 
L 91.717781 -82.4755 
L 95.444302 -82.4755 
L 99.170824 -82.4755 
L 102.897345 -82.4755 
L 106.623867 -82.4755 
L 110.350388 -82.4755 
L 114.076909 -82.4755 
L 117.803431 -82.4755 
L 121.529952 -82.4755 
L 125.256474 -82.4755 
L 128.982995 -82.4755 
L 132.709517 -82.4755 
L 136.436038 -82.4755 
L 140.162559 -82.4755 
L 143.889081 -82.4755 
L 147.615602 -82.4755 
L 151.342124 -82.4755 
L 155.068645 -82.4755 
L 158.795166 -82.4755 
L 162.521688 -82.4755 
L 166.248209 -82.4755 
L 169.974731 -82.4755 
L 173.701252 -82.4755 
L 177.427773 -82.4755 
L 181.154295 -82.4755 
L 184.880816 -82.4755 
L 188.607338 -82.4755 
L 192.333859 -82.4755 
L 196.060381 -82.4755 
L 199.786902 -82.4755 
L 203.513423 -82.4755 
L 207.239945 -82.4755 
L 210.966466 -82.4755 
L 214.692988 -183.2755 
L 218.419509 -183.2755 
L 222.14603 -183.2755 
L 225.872552 -183.2755 
L 229.599073 -183.2755 
L 233.325595 -183.2755 
L 237.052116 -183.2755 
L 240.778637 -183.2755 
L 244.505159 -183.2755 
L 248.23168 -183.2755 
L 251.958202 -183.2755 
L 255.684723 -183.2755 
L 259.411245 -183.2755 
L 263.137766 -183.2755 
L 266.864287 -183.2755 
L 270.590809 -183.2755 
L 274.31733 -183.2755 
L 278.043852 -183.2755 
L 281.770373 -183.2755 
L 285.496894 -183.2755 
L 289.223416 -183.2755 
L 292.949937 -183.2755 
L 296.676459 -183.2755 
L 300.40298 -183.2755 
L 304.129502 -183.2755 
L 307.856023 -183.2755 
L 311.582544 -183.2755 
L 315.309066 -183.2755 
L 319.035587 -183.2755 
L 322.762109 -183.2755 
L 326.48863 -183.2755 
L 330.215151 -183.2755 
L 333.941673 -183.2755 
L 337.668194 -243.7555 
L 341.394716 -243.7555 
L 345.121237 -243.7555 
L 348.847758 -243.7555 
L 352.57428 -243.7555 
L 356.300801 -243.7555 
L 360.027323 -243.7555 
L 363.753844 -243.7555 
L 367.480366 -243.7555 
L 371.206887 -243.7555 
L 374.933408 -243.7555 
L 378.65993 -243.7555 
L 382.386451 -243.7555 
L 386.112973 -243.7555 
L 389.839494 -243.7555 
L 393.566015 -243.7555 
L 397.292537 -243.7555 
L 401.019058 -243.7555 
L 404.74558 -243.7555 
L 408.472101 -243.7555 
L 412.198622 -243.7555 
L 415.925144 -243.7555 
L 419.651665 -243.7555 
L 423.378187 -243.7555 
L 427.104708 -243.7555 
L 430.83123 -243.7555 
L 434.557751 -243.7555 
L 438.284272 -243.7555 
L 442.010794 -243.7555 
L 445.737315 -243.7555 
L 449.463837 -243.7555 
L 453.190358 -243.7555 
L 456.916879 -243.7555 
L 460.643401 -485.6755 
L 460.643401 -485.6755 
L 460.643401 -485.6755 
L 456.916879 -485.6755 
L 453.190358 -485.6755 
L 449.463837 -485.6755 
L 445.737315 -485.6755 
L 442.010794 -485.6755 
L 438.284272 -485.6755 
L 434.557751 -485.6755 
L 430.83123 -485.6755 
L 427.104708 -485.6755 
L 423.378187 -485.6755 
L 419.651665 -485.6755 
L 415.925144 -485.6755 
L 412.198622 -485.6755 
L 408.472101 -485.6755 
L 404.74558 -485.6755 
L 401.019058 -485.6755 
L 397.292537 -485.6755 
L 393.566015 -485.6755 
L 389.839494 -485.6755 
L 386.112973 -485.6755 
L 382.386451 -485.6755 
L 378.65993 -485.6755 
L 374.933408 -485.6755 
L 371.206887 -485.6755 
L 367.480366 -485.6755 
L 363.753844 -485.6755 
L 360.027323 -485.6755 
L 356.300801 -485.6755 
L 352.57428 -485.6755 
L 348.847758 -485.6755 
L 345.121237 -485.6755 
L 341.394716 -485.6755 
L 337.668194 -485.6755 
L 333.941673 -485.6755 
L 330.215151 -485.6755 
L 326.48863 -485.6755 
L 322.762109 -485.6755 
L 319.035587 -485.6755 
L 315.309066 -485.6755 
L 311.582544 -485.6755 
L 307.856023 -485.6755 
L 304.129502 -485.6755 
L 300.40298 -485.6755 
L 296.676459 -485.6755 
L 292.949937 -485.6755 
L 289.223416 -485.6755 
L 285.496894 -485.6755 
L 281.770373 -485.6755 
L 278.043852 -485.6755 
L 274.31733 -485.6755 
L 270.590809 -485.6755 
L 266.864287 -485.6755 
L 263.137766 -485.6755 
L 259.411245 -485.6755 
L 255.684723 -485.6755 
L 251.958202 -485.6755 
L 248.23168 -485.6755 
L 244.505159 -485.6755 
L 240.778637 -485.6755 
L 237.052116 -485.6755 
L 233.325595 -485.6755 
L 229.599073 -485.6755 
L 225.872552 -485.6755 
L 222.14603 -485.6755 
L 218.419509 -485.6755 
L 214.692988 -485.6755 
L 210.966466 -405.0355 
L 207.239945 -405.0355 
L 203.513423 -405.0355 
L 199.786902 -405.0355 
L 196.060381 -405.0355 
L 192.333859 -405.0355 
L 188.607338 -405.0355 
L 184.880816 -405.0355 
L 181.154295 -405.0355 
L 177.427773 -405.0355 
L 173.701252 -405.0355 
L 169.974731 -405.0355 
L 166.248209 -405.0355 
L 162.521688 -405.0355 
L 158.795166 -405.0355 
L 155.068645 -405.0355 
L 151.342124 -405.0355 
L 147.615602 -405.0355 
L 143.889081 -405.0355 
L 140.162559 -405.0355 
L 136.436038 -405.0355 
L 132.709517 -405.0355 
L 128.982995 -405.0355 
L 125.256474 -405.0355 
L 121.529952 -405.0355 
L 117.803431 -405.0355 
L 114.076909 -405.0355 
L 110.350388 -405.0355 
L 106.623867 -405.0355 
L 102.897345 -405.0355 
L 99.170824 -405.0355 
L 95.444302 -405.0355 
L 91.717781 -82.4755 
z
" style="stroke: #ffa500; stroke-opacity: 0.2; stroke-width: 2"/>
    </defs>
    <g clip-path="url(#pfc3e438973)">
     <use xlink:href="#m0e278c0ddc" x="0" y="533.6245" style="fill: #ffa500; fill-opacity: 0.2; stroke: #ffa500; stroke-opacity: 0.2; stroke-width: 2"/>
    </g>
   </g>
   <g id="PolyCollection_2">
    <defs>
     <path id="md62a305ec1" d="M 91.717781 -82.4755 
L 91.717781 -82.4755 
L 95.444302 -82.4755 
L 99.170824 -82.4755 
L 102.897345 -82.4755 
L 106.623867 -82.4755 
L 110.350388 -82.4755 
L 114.076909 -82.4755 
L 117.803431 -82.4755 
L 121.529952 -82.4755 
L 125.256474 -82.4755 
L 128.982995 -82.4755 
L 132.709517 -82.4755 
L 136.436038 -82.4755 
L 140.162559 -82.4755 
L 143.889081 -82.4755 
L 147.615602 -82.4755 
L 151.342124 -82.4755 
L 155.068645 -82.4755 
L 158.795166 -82.4755 
L 162.521688 -82.4755 
L 166.248209 -82.4755 
L 169.974731 -82.4755 
L 173.701252 -82.4755 
L 177.427773 -82.4755 
L 181.154295 -82.4755 
L 184.880816 -82.4755 
L 188.607338 -82.4755 
L 192.333859 -82.4755 
L 196.060381 -82.4755 
L 199.786902 -82.4755 
L 203.513423 -82.4755 
L 207.239945 -82.4755 
L 210.966466 -82.4755 
L 214.692988 -82.4755 
L 218.419509 -85.530045 
L 222.14603 -88.584591 
L 225.872552 -91.639136 
L 229.599073 -94.693682 
L 233.325595 -97.748227 
L 237.052116 -100.802773 
L 240.778637 -103.857318 
L 244.505159 -106.911864 
L 248.23168 -109.966409 
L 251.958202 -113.020955 
L 255.684723 -116.0755 
L 259.411245 -119.130045 
L 263.137766 -122.184591 
L 266.864287 -125.239136 
L 270.590809 -128.293682 
L 274.31733 -131.348227 
L 278.043852 -134.402773 
L 281.770373 -137.457318 
L 285.496894 -140.511864 
L 289.223416 -143.566409 
L 292.949937 -146.620955 
L 296.676459 -149.6755 
L 300.40298 -152.730045 
L 304.129502 -155.784591 
L 307.856023 -158.839136 
L 311.582544 -161.893682 
L 315.309066 -163.1155 
L 319.035587 -163.1155 
L 322.762109 -163.1155 
L 326.48863 -163.1155 
L 330.215151 -163.1155 
L 333.941673 -163.1155 
L 337.668194 -163.1155 
L 341.394716 -163.1155 
L 345.121237 -163.1155 
L 348.847758 -163.1155 
L 352.57428 -163.1155 
L 356.300801 -163.1155 
L 360.027323 -163.1155 
L 363.753844 -163.1155 
L 367.480366 -163.1155 
L 371.206887 -163.1155 
L 374.933408 -163.1155 
L 378.65993 -163.1155 
L 382.386451 -163.1155 
L 386.112973 -163.1155 
L 389.839494 -163.1155 
L 393.566015 -163.1155 
L 397.292537 -163.1155 
L 401.019058 -163.1155 
L 404.74558 -163.1155 
L 408.472101 -163.1155 
L 412.198622 -163.1155 
L 415.925144 -163.1155 
L 419.651665 -163.1155 
L 423.378187 -163.1155 
L 427.104708 -163.1155 
L 430.83123 -163.1155 
L 434.557751 -163.1155 
L 438.284272 -163.1155 
L 442.010794 -163.1155 
L 445.737315 -163.1155 
L 449.463837 -163.1155 
L 453.190358 -163.1155 
L 456.916879 -163.1155 
L 460.643401 -485.6755 
L 460.643401 -485.6755 
L 460.643401 -485.6755 
L 456.916879 -485.6755 
L 453.190358 -485.6755 
L 449.463837 -485.6755 
L 445.737315 -485.6755 
L 442.010794 -485.6755 
L 438.284272 -485.6755 
L 434.557751 -485.6755 
L 430.83123 -485.6755 
L 427.104708 -485.6755 
L 423.378187 -485.6755 
L 419.651665 -485.6755 
L 415.925144 -485.6755 
L 412.198622 -485.6755 
L 408.472101 -485.6755 
L 404.74558 -485.6755 
L 401.019058 -485.6755 
L 397.292537 -485.6755 
L 393.566015 -485.6755 
L 389.839494 -485.6755 
L 386.112973 -485.6755 
L 382.386451 -485.6755 
L 378.65993 -485.6755 
L 374.933408 -485.6755 
L 371.206887 -485.6755 
L 367.480366 -485.6755 
L 363.753844 -485.6755 
L 360.027323 -485.6755 
L 356.300801 -485.6755 
L 352.57428 -485.6755 
L 348.847758 -485.6755 
L 345.121237 -485.6755 
L 341.394716 -485.6755 
L 337.668194 -485.6755 
L 333.941673 -485.6755 
L 330.215151 -485.6755 
L 326.48863 -485.6755 
L 322.762109 -485.6755 
L 319.035587 -485.6755 
L 315.309066 -485.6755 
L 311.582544 -485.6755 
L 307.856023 -485.6755 
L 304.129502 -485.6755 
L 300.40298 -485.6755 
L 296.676459 -485.6755 
L 292.949937 -485.6755 
L 289.223416 -485.6755 
L 285.496894 -485.6755 
L 281.770373 -485.6755 
L 278.043852 -485.6755 
L 274.31733 -485.6755 
L 270.590809 -485.6755 
L 266.864287 -485.6755 
L 263.137766 -485.6755 
L 259.411245 -485.6755 
L 255.684723 -485.6755 
L 251.958202 -485.6755 
L 248.23168 -485.6755 
L 244.505159 -485.6755 
L 240.778637 -485.6755 
L 237.052116 -485.6755 
L 233.325595 -485.6755 
L 229.599073 -485.6755 
L 225.872552 -485.6755 
L 222.14603 -485.6755 
L 218.419509 -485.6755 
L 214.692988 -485.6755 
L 210.966466 -485.6755 
L 207.239945 -485.6755 
L 203.513423 -485.6755 
L 199.786902 -485.6755 
L 196.060381 -485.6755 
L 192.333859 -485.6755 
L 188.607338 -485.6755 
L 184.880816 -485.6755 
L 181.154295 -485.6755 
L 177.427773 -485.6755 
L 173.701252 -485.6755 
L 169.974731 -485.6755 
L 166.248209 -485.6755 
L 162.521688 -485.6755 
L 158.795166 -485.6755 
L 155.068645 -485.6755 
L 151.342124 -485.6755 
L 147.615602 -485.6755 
L 143.889081 -485.6755 
L 140.162559 -485.6755 
L 136.436038 -485.6755 
L 132.709517 -485.6755 
L 128.982995 -485.6755 
L 125.256474 -485.6755 
L 121.529952 -485.6755 
L 117.803431 -485.6755 
L 114.076909 -485.6755 
L 110.350388 -485.6755 
L 106.623867 -485.6755 
L 102.897345 -485.6755 
L 99.170824 -485.6755 
L 95.444302 -485.6755 
L 91.717781 -82.4755 
z
" style="stroke: #0000ff; stroke-opacity: 0.2; stroke-width: 2"/>
    </defs>
    <g clip-path="url(#pfc3e438973)">
     <use xlink:href="#md62a305ec1" x="0" y="533.6245" style="fill: #0000ff; fill-opacity: 0.2; stroke: #0000ff; stroke-opacity: 0.2; stroke-width: 2"/>
    </g>
   </g>
   <g id="PolyCollection_3">
    <defs>
     <path id="me3e5b6c701" d="M 91.717781 -82.4755 
L 91.717781 -82.4755 
L 95.444302 -82.4755 
L 99.170824 -82.4755 
L 102.897345 -82.4755 
L 106.623867 -82.4755 
L 110.350388 -82.4755 
L 114.076909 -82.4755 
L 117.803431 -82.4755 
L 121.529952 -82.4755 
L 125.256474 -82.4755 
L 128.982995 -82.4755 
L 132.709517 -82.4755 
L 136.436038 -82.4755 
L 140.162559 -82.4755 
L 143.889081 -82.4755 
L 147.615602 -82.4755 
L 151.342124 -82.4755 
L 155.068645 -82.4755 
L 158.795166 -82.4755 
L 162.521688 -82.4755 
L 166.248209 -82.4755 
L 169.974731 -82.4755 
L 173.701252 -82.4755 
L 177.427773 -82.4755 
L 181.154295 -82.4755 
L 184.880816 -82.4755 
L 188.607338 -82.4755 
L 192.333859 -82.4755 
L 196.060381 -82.4755 
L 199.786902 -82.4755 
L 203.513423 -82.4755 
L 207.239945 -82.4755 
L 210.966466 -82.4755 
L 214.692988 -82.4755 
L 218.419509 -82.4755 
L 222.14603 -82.4755 
L 225.872552 -82.4755 
L 229.599073 -82.4755 
L 233.325595 -82.4755 
L 237.052116 -82.4755 
L 240.778637 -82.4755 
L 244.505159 -82.4755 
L 248.23168 -82.4755 
L 251.958202 -82.4755 
L 255.684723 -82.4755 
L 259.411245 -82.4755 
L 263.137766 -82.4755 
L 266.864287 -82.4755 
L 270.590809 -82.4755 
L 274.31733 -82.4755 
L 278.043852 -82.4755 
L 281.770373 -82.4755 
L 285.496894 -82.4755 
L 289.223416 -82.4755 
L 292.949937 -82.4755 
L 296.676459 -82.4755 
L 300.40298 -82.4755 
L 304.129502 -82.4755 
L 307.856023 -82.4755 
L 311.582544 -82.4755 
L 315.309066 -82.4755 
L 319.035587 -82.4755 
L 322.762109 -82.4755 
L 326.48863 -82.4755 
L 330.215151 -82.4755 
L 333.941673 -82.4755 
L 337.668194 -82.4755 
L 341.394716 -82.4755 
L 345.121237 -82.4755 
L 348.847758 -82.4755 
L 352.57428 -82.4755 
L 356.300801 -82.4755 
L 360.027323 -82.4755 
L 363.753844 -82.4755 
L 367.480366 -82.4755 
L 371.206887 -82.4755 
L 374.933408 -82.4755 
L 378.65993 -82.4755 
L 382.386451 -82.4755 
L 386.112973 -82.4755 
L 389.839494 -82.4755 
L 393.566015 -82.4755 
L 397.292537 -82.4755 
L 401.019058 -82.4755 
L 404.74558 -82.4755 
L 408.472101 -82.4755 
L 412.198622 -82.4755 
L 415.925144 -82.4755 
L 419.651665 -82.4755 
L 423.378187 -82.4755 
L 427.104708 -82.4755 
L 430.83123 -82.4755 
L 434.557751 -82.4755 
L 438.284272 -82.4755 
L 442.010794 -82.4755 
L 445.737315 -82.4755 
L 449.463837 -82.4755 
L 453.190358 -82.4755 
L 456.916879 -82.4755 
L 460.643401 -485.6755 
L 460.643401 -485.6755 
L 460.643401 -485.6755 
L 456.916879 -485.6755 
L 453.190358 -485.6755 
L 449.463837 -485.6755 
L 445.737315 -485.6755 
L 442.010794 -485.6755 
L 438.284272 -485.6755 
L 434.557751 -485.6755 
L 430.83123 -485.6755 
L 427.104708 -485.6755 
L 423.378187 -485.6755 
L 419.651665 -485.6755 
L 415.925144 -485.6755 
L 412.198622 -485.6755 
L 408.472101 -485.6755 
L 404.74558 -485.6755 
L 401.019058 -485.6755 
L 397.292537 -485.6755 
L 393.566015 -485.6755 
L 389.839494 -485.6755 
L 386.112973 -485.6755 
L 382.386451 -485.6755 
L 378.65993 -485.6755 
L 374.933408 -485.6755 
L 371.206887 -485.6755 
L 367.480366 -485.6755 
L 363.753844 -485.6755 
L 360.027323 -485.6755 
L 356.300801 -485.6755 
L 352.57428 -485.6755 
L 348.847758 -485.6755 
L 345.121237 -485.6755 
L 341.394716 -485.6755 
L 337.668194 -485.6755 
L 333.941673 -405.0355 
L 330.215151 -405.0355 
L 326.48863 -405.0355 
L 322.762109 -405.0355 
L 319.035587 -405.0355 
L 315.309066 -405.0355 
L 311.582544 -405.0355 
L 307.856023 -405.0355 
L 304.129502 -405.0355 
L 300.40298 -405.0355 
L 296.676459 -405.0355 
L 292.949937 -405.0355 
L 289.223416 -405.0355 
L 285.496894 -405.0355 
L 281.770373 -405.0355 
L 278.043852 -405.0355 
L 274.31733 -384.8755 
L 270.590809 -384.8755 
L 266.864287 -384.8755 
L 263.137766 -384.8755 
L 259.411245 -384.8755 
L 255.684723 -384.8755 
L 251.958202 -384.8755 
L 248.23168 -384.8755 
L 244.505159 -384.8755 
L 240.778637 -384.8755 
L 237.052116 -384.8755 
L 233.325595 -384.8755 
L 229.599073 -384.8755 
L 225.872552 -384.8755 
L 222.14603 -384.8755 
L 218.419509 -384.8755 
L 214.692988 -384.8755 
L 210.966466 -384.8755 
L 207.239945 -384.8755 
L 203.513423 -384.8755 
L 199.786902 -384.8755 
L 196.060381 -384.8755 
L 192.333859 -384.8755 
L 188.607338 -384.8755 
L 184.880816 -384.8755 
L 181.154295 -384.8755 
L 177.427773 -384.8755 
L 173.701252 -384.8755 
L 169.974731 -384.8755 
L 166.248209 -384.8755 
L 162.521688 -384.8755 
L 158.795166 -384.8755 
L 155.068645 -384.8755 
L 151.342124 -384.8755 
L 147.615602 -384.8755 
L 143.889081 -384.8755 
L 140.162559 -384.8755 
L 136.436038 -384.8755 
L 132.709517 -384.8755 
L 128.982995 -384.8755 
L 125.256474 -384.8755 
L 121.529952 -384.8755 
L 117.803431 -384.8755 
L 114.076909 -384.8755 
L 110.350388 -384.8755 
L 106.623867 -384.8755 
L 102.897345 -384.8755 
L 99.170824 -384.8755 
L 95.444302 -384.8755 
L 91.717781 -82.4755 
z
" style="stroke: #008000; stroke-opacity: 0.2; stroke-width: 2"/>
    </defs>
    <g clip-path="url(#pfc3e438973)">
     <use xlink:href="#me3e5b6c701" x="0" y="533.6245" style="fill: #008000; fill-opacity: 0.2; stroke: #008000; stroke-opacity: 0.2; stroke-width: 2"/>
    </g>
   </g>
   <g id="matplotlib.axis_1">
    <g id="xtick_1">
     <g id="line2d_1">
      <defs>
       <path id="m502fad9d3d" d="M 0 0 
L 0 12 
" style="stroke: #000000; stroke-width: 2.5"/>
      </defs>
      <g>
       <use xlink:href="#m502fad9d3d" x="91.717781" y="471.309" style="stroke: #000000; stroke-width: 2.5"/>
      </g>
     </g>
     <g id="text_1">
      <!-- 0.0 -->
      <g transform="translate(77.723031 500.18225) scale(0.176 -0.176)">
       <defs>
        <path id="DejaVuSans-30" d="M 2034 4250 
Q 1547 4250 1301 3770 
Q 1056 3291 1056 2328 
Q 1056 1369 1301 889 
Q 1547 409 2034 409 
Q 2525 409 2770 889 
Q 3016 1369 3016 2328 
Q 3016 3291 2770 3770 
Q 2525 4250 2034 4250 
z
M 2034 4750 
Q 2819 4750 3233 4129 
Q 3647 3509 3647 2328 
Q 3647 1150 3233 529 
Q 2819 -91 2034 -91 
Q 1250 -91 836 529 
Q 422 1150 422 2328 
Q 422 3509 836 4129 
Q 1250 4750 2034 4750 
z
" transform="scale(0.015625)"/>
        <path id="DejaVuSans-2e" d="M 684 794 
L 1344 794 
L 1344 0 
L 684 0 
L 684 794 
z
" transform="scale(0.015625)"/>
       </defs>
       <use xlink:href="#DejaVuSans-30"/>
       <use xlink:href="#DejaVuSans-2e" x="63.623047"/>
       <use xlink:href="#DejaVuSans-30" x="95.410156"/>
      </g>
     </g>
    </g>
    <g id="xtick_2">
     <g id="line2d_2">
      <g>
       <use xlink:href="#m502fad9d3d" x="165.502905" y="471.309" style="stroke: #000000; stroke-width: 2.5"/>
      </g>
     </g>
     <g id="text_2">
      <!-- 0.2 -->
      <g transform="translate(151.508155 500.18225) scale(0.176 -0.176)">
       <defs>
        <path id="DejaVuSans-32" d="M 1228 531 
L 3431 531 
L 3431 0 
L 469 0 
L 469 531 
Q 828 903 1448 1529 
Q 2069 2156 2228 2338 
Q 2531 2678 2651 2914 
Q 2772 3150 2772 3378 
Q 2772 3750 2511 3984 
Q 2250 4219 1831 4219 
Q 1534 4219 1204 4116 
Q 875 4013 500 3803 
L 500 4441 
Q 881 4594 1212 4672 
Q 1544 4750 1819 4750 
Q 2544 4750 2975 4387 
Q 3406 4025 3406 3419 
Q 3406 3131 3298 2873 
Q 3191 2616 2906 2266 
Q 2828 2175 2409 1742 
Q 1991 1309 1228 531 
z
" transform="scale(0.015625)"/>
       </defs>
       <use xlink:href="#DejaVuSans-30"/>
       <use xlink:href="#DejaVuSans-2e" x="63.623047"/>
       <use xlink:href="#DejaVuSans-32" x="95.410156"/>
      </g>
     </g>
    </g>
    <g id="xtick_3">
     <g id="line2d_3">
      <g>
       <use xlink:href="#m502fad9d3d" x="239.288029" y="471.309" style="stroke: #000000; stroke-width: 2.5"/>
      </g>
     </g>
     <g id="text_3">
      <!-- 0.4 -->
      <g transform="translate(225.293279 500.18225) scale(0.176 -0.176)">
       <defs>
        <path id="DejaVuSans-34" d="M 2419 4116 
L 825 1625 
L 2419 1625 
L 2419 4116 
z
M 2253 4666 
L 3047 4666 
L 3047 1625 
L 3713 1625 
L 3713 1100 
L 3047 1100 
L 3047 0 
L 2419 0 
L 2419 1100 
L 313 1100 
L 313 1709 
L 2253 4666 
z
" transform="scale(0.015625)"/>
       </defs>
       <use xlink:href="#DejaVuSans-30"/>
       <use xlink:href="#DejaVuSans-2e" x="63.623047"/>
       <use xlink:href="#DejaVuSans-34" x="95.410156"/>
      </g>
     </g>
    </g>
    <g id="xtick_4">
     <g id="line2d_4">
      <g>
       <use xlink:href="#m502fad9d3d" x="313.073153" y="471.309" style="stroke: #000000; stroke-width: 2.5"/>
      </g>
     </g>
     <g id="text_4">
      <!-- 0.6 -->
      <g transform="translate(299.078403 500.18225) scale(0.176 -0.176)">
       <defs>
        <path id="DejaVuSans-36" d="M 2113 2584 
Q 1688 2584 1439 2293 
Q 1191 2003 1191 1497 
Q 1191 994 1439 701 
Q 1688 409 2113 409 
Q 2538 409 2786 701 
Q 3034 994 3034 1497 
Q 3034 2003 2786 2293 
Q 2538 2584 2113 2584 
z
M 3366 4563 
L 3366 3988 
Q 3128 4100 2886 4159 
Q 2644 4219 2406 4219 
Q 1781 4219 1451 3797 
Q 1122 3375 1075 2522 
Q 1259 2794 1537 2939 
Q 1816 3084 2150 3084 
Q 2853 3084 3261 2657 
Q 3669 2231 3669 1497 
Q 3669 778 3244 343 
Q 2819 -91 2113 -91 
Q 1303 -91 875 529 
Q 447 1150 447 2328 
Q 447 3434 972 4092 
Q 1497 4750 2381 4750 
Q 2619 4750 2861 4703 
Q 3103 4656 3366 4563 
z
" transform="scale(0.015625)"/>
       </defs>
       <use xlink:href="#DejaVuSans-30"/>
       <use xlink:href="#DejaVuSans-2e" x="63.623047"/>
       <use xlink:href="#DejaVuSans-36" x="95.410156"/>
      </g>
     </g>
    </g>
    <g id="xtick_5">
     <g id="line2d_5">
      <g>
       <use xlink:href="#m502fad9d3d" x="386.858277" y="471.309" style="stroke: #000000; stroke-width: 2.5"/>
      </g>
     </g>
     <g id="text_5">
      <!-- 0.8 -->
      <g transform="translate(372.863527 500.18225) scale(0.176 -0.176)">
       <defs>
        <path id="DejaVuSans-38" d="M 2034 2216 
Q 1584 2216 1326 1975 
Q 1069 1734 1069 1313 
Q 1069 891 1326 650 
Q 1584 409 2034 409 
Q 2484 409 2743 651 
Q 3003 894 3003 1313 
Q 3003 1734 2745 1975 
Q 2488 2216 2034 2216 
z
M 1403 2484 
Q 997 2584 770 2862 
Q 544 3141 544 3541 
Q 544 4100 942 4425 
Q 1341 4750 2034 4750 
Q 2731 4750 3128 4425 
Q 3525 4100 3525 3541 
Q 3525 3141 3298 2862 
Q 3072 2584 2669 2484 
Q 3125 2378 3379 2068 
Q 3634 1759 3634 1313 
Q 3634 634 3220 271 
Q 2806 -91 2034 -91 
Q 1263 -91 848 271 
Q 434 634 434 1313 
Q 434 1759 690 2068 
Q 947 2378 1403 2484 
z
M 1172 3481 
Q 1172 3119 1398 2916 
Q 1625 2713 2034 2713 
Q 2441 2713 2670 2916 
Q 2900 3119 2900 3481 
Q 2900 3844 2670 4047 
Q 2441 4250 2034 4250 
Q 1625 4250 1398 4047 
Q 1172 3844 1172 3481 
z
" transform="scale(0.015625)"/>
       </defs>
       <use xlink:href="#DejaVuSans-30"/>
       <use xlink:href="#DejaVuSans-2e" x="63.623047"/>
       <use xlink:href="#DejaVuSans-38" x="95.410156"/>
      </g>
     </g>
    </g>
    <g id="xtick_6">
     <g id="line2d_6">
      <g>
       <use xlink:href="#m502fad9d3d" x="460.643401" y="471.309" style="stroke: #000000; stroke-width: 2.5"/>
      </g>
     </g>
     <g id="text_6">
      <!-- 1.0 -->
      <g transform="translate(446.648651 500.18225) scale(0.176 -0.176)">
       <defs>
        <path id="DejaVuSans-31" d="M 794 531 
L 1825 531 
L 1825 4091 
L 703 3866 
L 703 4441 
L 1819 4666 
L 2450 4666 
L 2450 531 
L 3481 531 
L 3481 0 
L 794 0 
L 794 531 
z
" transform="scale(0.015625)"/>
       </defs>
       <use xlink:href="#DejaVuSans-31"/>
       <use xlink:href="#DejaVuSans-2e" x="63.623047"/>
       <use xlink:href="#DejaVuSans-30" x="95.410156"/>
      </g>
     </g>
    </g>
    <g id="text_7">
     <!-- False Positive Rate -->
     <g transform="translate(186.965091 522.4315) scale(0.192 -0.192)">
      <defs>
       <path id="DejaVuSans-46" d="M 628 4666 
L 3309 4666 
L 3309 4134 
L 1259 4134 
L 1259 2759 
L 3109 2759 
L 3109 2228 
L 1259 2228 
L 1259 0 
L 628 0 
L 628 4666 
z
" transform="scale(0.015625)"/>
       <path id="DejaVuSans-61" d="M 2194 1759 
Q 1497 1759 1228 1600 
Q 959 1441 959 1056 
Q 959 750 1161 570 
Q 1363 391 1709 391 
Q 2188 391 2477 730 
Q 2766 1069 2766 1631 
L 2766 1759 
L 2194 1759 
z
M 3341 1997 
L 3341 0 
L 2766 0 
L 2766 531 
Q 2569 213 2275 61 
Q 1981 -91 1556 -91 
Q 1019 -91 701 211 
Q 384 513 384 1019 
Q 384 1609 779 1909 
Q 1175 2209 1959 2209 
L 2766 2209 
L 2766 2266 
Q 2766 2663 2505 2880 
Q 2244 3097 1772 3097 
Q 1472 3097 1187 3025 
Q 903 2953 641 2809 
L 641 3341 
Q 956 3463 1253 3523 
Q 1550 3584 1831 3584 
Q 2591 3584 2966 3190 
Q 3341 2797 3341 1997 
z
" transform="scale(0.015625)"/>
       <path id="DejaVuSans-6c" d="M 603 4863 
L 1178 4863 
L 1178 0 
L 603 0 
L 603 4863 
z
" transform="scale(0.015625)"/>
       <path id="DejaVuSans-73" d="M 2834 3397 
L 2834 2853 
Q 2591 2978 2328 3040 
Q 2066 3103 1784 3103 
Q 1356 3103 1142 2972 
Q 928 2841 928 2578 
Q 928 2378 1081 2264 
Q 1234 2150 1697 2047 
L 1894 2003 
Q 2506 1872 2764 1633 
Q 3022 1394 3022 966 
Q 3022 478 2636 193 
Q 2250 -91 1575 -91 
Q 1294 -91 989 -36 
Q 684 19 347 128 
L 347 722 
Q 666 556 975 473 
Q 1284 391 1588 391 
Q 1994 391 2212 530 
Q 2431 669 2431 922 
Q 2431 1156 2273 1281 
Q 2116 1406 1581 1522 
L 1381 1569 
Q 847 1681 609 1914 
Q 372 2147 372 2553 
Q 372 3047 722 3315 
Q 1072 3584 1716 3584 
Q 2034 3584 2315 3537 
Q 2597 3491 2834 3397 
z
" transform="scale(0.015625)"/>
       <path id="DejaVuSans-65" d="M 3597 1894 
L 3597 1613 
L 953 1613 
Q 991 1019 1311 708 
Q 1631 397 2203 397 
Q 2534 397 2845 478 
Q 3156 559 3463 722 
L 3463 178 
Q 3153 47 2828 -22 
Q 2503 -91 2169 -91 
Q 1331 -91 842 396 
Q 353 884 353 1716 
Q 353 2575 817 3079 
Q 1281 3584 2069 3584 
Q 2775 3584 3186 3129 
Q 3597 2675 3597 1894 
z
M 3022 2063 
Q 3016 2534 2758 2815 
Q 2500 3097 2075 3097 
Q 1594 3097 1305 2825 
Q 1016 2553 972 2059 
L 3022 2063 
z
" transform="scale(0.015625)"/>
       <path id="DejaVuSans-20" transform="scale(0.015625)"/>
       <path id="DejaVuSans-50" d="M 1259 4147 
L 1259 2394 
L 2053 2394 
Q 2494 2394 2734 2622 
Q 2975 2850 2975 3272 
Q 2975 3691 2734 3919 
Q 2494 4147 2053 4147 
L 1259 4147 
z
M 628 4666 
L 2053 4666 
Q 2838 4666 3239 4311 
Q 3641 3956 3641 3272 
Q 3641 2581 3239 2228 
Q 2838 1875 2053 1875 
L 1259 1875 
L 1259 0 
L 628 0 
L 628 4666 
z
" transform="scale(0.015625)"/>
       <path id="DejaVuSans-6f" d="M 1959 3097 
Q 1497 3097 1228 2736 
Q 959 2375 959 1747 
Q 959 1119 1226 758 
Q 1494 397 1959 397 
Q 2419 397 2687 759 
Q 2956 1122 2956 1747 
Q 2956 2369 2687 2733 
Q 2419 3097 1959 3097 
z
M 1959 3584 
Q 2709 3584 3137 3096 
Q 3566 2609 3566 1747 
Q 3566 888 3137 398 
Q 2709 -91 1959 -91 
Q 1206 -91 779 398 
Q 353 888 353 1747 
Q 353 2609 779 3096 
Q 1206 3584 1959 3584 
z
" transform="scale(0.015625)"/>
       <path id="DejaVuSans-69" d="M 603 3500 
L 1178 3500 
L 1178 0 
L 603 0 
L 603 3500 
z
M 603 4863 
L 1178 4863 
L 1178 4134 
L 603 4134 
L 603 4863 
z
" transform="scale(0.015625)"/>
       <path id="DejaVuSans-74" d="M 1172 4494 
L 1172 3500 
L 2356 3500 
L 2356 3053 
L 1172 3053 
L 1172 1153 
Q 1172 725 1289 603 
Q 1406 481 1766 481 
L 2356 481 
L 2356 0 
L 1766 0 
Q 1100 0 847 248 
Q 594 497 594 1153 
L 594 3053 
L 172 3053 
L 172 3500 
L 594 3500 
L 594 4494 
L 1172 4494 
z
" transform="scale(0.015625)"/>
       <path id="DejaVuSans-76" d="M 191 3500 
L 800 3500 
L 1894 563 
L 2988 3500 
L 3597 3500 
L 2284 0 
L 1503 0 
L 191 3500 
z
" transform="scale(0.015625)"/>
       <path id="DejaVuSans-52" d="M 2841 2188 
Q 3044 2119 3236 1894 
Q 3428 1669 3622 1275 
L 4263 0 
L 3584 0 
L 2988 1197 
Q 2756 1666 2539 1819 
Q 2322 1972 1947 1972 
L 1259 1972 
L 1259 0 
L 628 0 
L 628 4666 
L 2053 4666 
Q 2853 4666 3247 4331 
Q 3641 3997 3641 3322 
Q 3641 2881 3436 2590 
Q 3231 2300 2841 2188 
z
M 1259 4147 
L 1259 2491 
L 2053 2491 
Q 2509 2491 2742 2702 
Q 2975 2913 2975 3322 
Q 2975 3731 2742 3939 
Q 2509 4147 2053 4147 
L 1259 4147 
z
" transform="scale(0.015625)"/>
      </defs>
      <use xlink:href="#DejaVuSans-46"/>
      <use xlink:href="#DejaVuSans-61" x="48.394531"/>
      <use xlink:href="#DejaVuSans-6c" x="109.673828"/>
      <use xlink:href="#DejaVuSans-73" x="137.457031"/>
      <use xlink:href="#DejaVuSans-65" x="189.556641"/>
      <use xlink:href="#DejaVuSans-20" x="251.080078"/>
      <use xlink:href="#DejaVuSans-50" x="282.867188"/>
      <use xlink:href="#DejaVuSans-6f" x="339.544922"/>
      <use xlink:href="#DejaVuSans-73" x="400.726562"/>
      <use xlink:href="#DejaVuSans-69" x="452.826172"/>
      <use xlink:href="#DejaVuSans-74" x="480.609375"/>
      <use xlink:href="#DejaVuSans-69" x="519.818359"/>
      <use xlink:href="#DejaVuSans-76" x="547.601562"/>
      <use xlink:href="#DejaVuSans-65" x="606.78125"/>
      <use xlink:href="#DejaVuSans-20" x="668.304688"/>
      <use xlink:href="#DejaVuSans-52" x="700.091797"/>
      <use xlink:href="#DejaVuSans-61" x="767.324219"/>
      <use xlink:href="#DejaVuSans-74" x="828.603516"/>
      <use xlink:href="#DejaVuSans-65" x="867.8125"/>
     </g>
    </g>
   </g>
   <g id="matplotlib.axis_2">
    <g id="ytick_1">
     <g id="line2d_7">
      <defs>
       <path id="m610598b9d5" d="M 0 0 
L -12 0 
" style="stroke: #000000; stroke-width: 2.5"/>
      </defs>
      <g>
       <use xlink:href="#m610598b9d5" x="73.2715" y="451.149" style="stroke: #000000; stroke-width: 2.5"/>
      </g>
     </g>
     <g id="text_8">
      <!-- 0.0 -->
      <g transform="translate(29.782 457.835625) scale(0.176 -0.176)">
       <use xlink:href="#DejaVuSans-30"/>
       <use xlink:href="#DejaVuSans-2e" x="63.623047"/>
       <use xlink:href="#DejaVuSans-30" x="95.410156"/>
      </g>
     </g>
    </g>
    <g id="ytick_2">
     <g id="line2d_8">
      <g>
       <use xlink:href="#m610598b9d5" x="73.2715" y="370.509" style="stroke: #000000; stroke-width: 2.5"/>
      </g>
     </g>
     <g id="text_9">
      <!-- 0.2 -->
      <g transform="translate(29.782 377.195625) scale(0.176 -0.176)">
       <use xlink:href="#DejaVuSans-30"/>
       <use xlink:href="#DejaVuSans-2e" x="63.623047"/>
       <use xlink:href="#DejaVuSans-32" x="95.410156"/>
      </g>
     </g>
    </g>
    <g id="ytick_3">
     <g id="line2d_9">
      <g>
       <use xlink:href="#m610598b9d5" x="73.2715" y="289.869" style="stroke: #000000; stroke-width: 2.5"/>
      </g>
     </g>
     <g id="text_10">
      <!-- 0.4 -->
      <g transform="translate(29.782 296.555625) scale(0.176 -0.176)">
       <use xlink:href="#DejaVuSans-30"/>
       <use xlink:href="#DejaVuSans-2e" x="63.623047"/>
       <use xlink:href="#DejaVuSans-34" x="95.410156"/>
      </g>
     </g>
    </g>
    <g id="ytick_4">
     <g id="line2d_10">
      <g>
       <use xlink:href="#m610598b9d5" x="73.2715" y="209.229" style="stroke: #000000; stroke-width: 2.5"/>
      </g>
     </g>
     <g id="text_11">
      <!-- 0.6 -->
      <g transform="translate(29.782 215.915625) scale(0.176 -0.176)">
       <use xlink:href="#DejaVuSans-30"/>
       <use xlink:href="#DejaVuSans-2e" x="63.623047"/>
       <use xlink:href="#DejaVuSans-36" x="95.410156"/>
      </g>
     </g>
    </g>
    <g id="ytick_5">
     <g id="line2d_11">
      <g>
       <use xlink:href="#m610598b9d5" x="73.2715" y="128.589" style="stroke: #000000; stroke-width: 2.5"/>
      </g>
     </g>
     <g id="text_12">
      <!-- 0.8 -->
      <g transform="translate(29.782 135.275625) scale(0.176 -0.176)">
       <use xlink:href="#DejaVuSans-30"/>
       <use xlink:href="#DejaVuSans-2e" x="63.623047"/>
       <use xlink:href="#DejaVuSans-38" x="95.410156"/>
      </g>
     </g>
    </g>
    <g id="ytick_6">
     <g id="line2d_12">
      <g>
       <use xlink:href="#m610598b9d5" x="73.2715" y="47.949" style="stroke: #000000; stroke-width: 2.5"/>
      </g>
     </g>
     <g id="text_13">
      <!-- 1.0 -->
      <g transform="translate(29.782 54.635625) scale(0.176 -0.176)">
       <use xlink:href="#DejaVuSans-31"/>
       <use xlink:href="#DejaVuSans-2e" x="63.623047"/>
       <use xlink:href="#DejaVuSans-30" x="95.410156"/>
      </g>
     </g>
    </g>
    <g id="text_14">
     <!-- True Positive Rate -->
     <g transform="translate(21.789 335.046) rotate(-90) scale(0.192 -0.192)">
      <defs>
       <path id="DejaVuSans-54" d="M -19 4666 
L 3928 4666 
L 3928 4134 
L 2272 4134 
L 2272 0 
L 1638 0 
L 1638 4134 
L -19 4134 
L -19 4666 
z
" transform="scale(0.015625)"/>
       <path id="DejaVuSans-72" d="M 2631 2963 
Q 2534 3019 2420 3045 
Q 2306 3072 2169 3072 
Q 1681 3072 1420 2755 
Q 1159 2438 1159 1844 
L 1159 0 
L 581 0 
L 581 3500 
L 1159 3500 
L 1159 2956 
Q 1341 3275 1631 3429 
Q 1922 3584 2338 3584 
Q 2397 3584 2469 3576 
Q 2541 3569 2628 3553 
L 2631 2963 
z
" transform="scale(0.015625)"/>
       <path id="DejaVuSans-75" d="M 544 1381 
L 544 3500 
L 1119 3500 
L 1119 1403 
Q 1119 906 1312 657 
Q 1506 409 1894 409 
Q 2359 409 2629 706 
Q 2900 1003 2900 1516 
L 2900 3500 
L 3475 3500 
L 3475 0 
L 2900 0 
L 2900 538 
Q 2691 219 2414 64 
Q 2138 -91 1772 -91 
Q 1169 -91 856 284 
Q 544 659 544 1381 
z
M 1991 3584 
L 1991 3584 
z
" transform="scale(0.015625)"/>
      </defs>
      <use xlink:href="#DejaVuSans-54"/>
      <use xlink:href="#DejaVuSans-72" x="46.333984"/>
      <use xlink:href="#DejaVuSans-75" x="87.447266"/>
      <use xlink:href="#DejaVuSans-65" x="150.826172"/>
      <use xlink:href="#DejaVuSans-20" x="212.349609"/>
      <use xlink:href="#DejaVuSans-50" x="244.136719"/>
      <use xlink:href="#DejaVuSans-6f" x="300.814453"/>
      <use xlink:href="#DejaVuSans-73" x="361.996094"/>
      <use xlink:href="#DejaVuSans-69" x="414.095703"/>
      <use xlink:href="#DejaVuSans-74" x="441.878906"/>
      <use xlink:href="#DejaVuSans-69" x="481.087891"/>
      <use xlink:href="#DejaVuSans-76" x="508.871094"/>
      <use xlink:href="#DejaVuSans-65" x="568.050781"/>
      <use xlink:href="#DejaVuSans-20" x="629.574219"/>
      <use xlink:href="#DejaVuSans-52" x="661.361328"/>
      <use xlink:href="#DejaVuSans-61" x="728.59375"/>
      <use xlink:href="#DejaVuSans-74" x="789.873047"/>
      <use xlink:href="#DejaVuSans-65" x="829.082031"/>
     </g>
    </g>
   </g>
   <g id="line2d_13">
    <path d="M 91.717781 451.149 
L 95.444302 239.469 
L 99.170824 239.469 
L 102.897345 239.469 
L 106.623867 239.469 
L 110.350388 239.469 
L 114.076909 239.469 
L 117.803431 239.469 
L 121.529952 239.469 
L 125.256474 239.469 
L 128.982995 239.469 
L 132.709517 239.469 
L 136.436038 239.469 
L 140.162559 239.469 
L 143.889081 239.469 
L 147.615602 239.469 
L 151.342124 239.469 
L 155.068645 239.469 
L 158.795166 239.469 
L 162.521688 239.469 
L 166.248209 239.469 
L 169.974731 239.469 
L 173.701252 239.469 
L 177.427773 239.469 
L 181.154295 239.469 
L 184.880816 239.469 
L 188.607338 239.469 
L 192.333859 239.469 
L 196.060381 239.469 
L 199.786902 239.469 
L 203.513423 239.469 
L 207.239945 239.469 
L 210.966466 239.469 
L 214.692988 199.149 
L 218.419509 199.149 
L 222.14603 199.149 
L 225.872552 199.149 
L 229.599073 199.149 
L 233.325595 199.149 
L 237.052116 199.149 
L 240.778637 199.149 
L 244.505159 199.149 
L 248.23168 199.149 
L 251.958202 199.149 
L 255.684723 199.149 
L 259.411245 199.149 
L 263.137766 199.149 
L 266.864287 199.149 
L 270.590809 199.149 
L 274.31733 199.149 
L 278.043852 174.957 
L 281.770373 174.957 
L 285.496894 174.957 
L 289.223416 174.957 
L 292.949937 174.957 
L 296.676459 174.957 
L 300.40298 174.957 
L 304.129502 174.957 
L 307.856023 174.957 
L 311.582544 174.957 
L 315.309066 174.957 
L 319.035587 174.957 
L 322.762109 174.957 
L 326.48863 174.957 
L 330.215151 174.957 
L 333.941673 174.957 
L 337.668194 144.717 
L 341.394716 144.717 
L 345.121237 144.717 
L 348.847758 144.717 
L 352.57428 144.717 
L 356.300801 144.717 
L 360.027323 144.717 
L 363.753844 144.717 
L 367.480366 144.717 
L 371.206887 144.717 
L 374.933408 144.717 
L 378.65993 144.717 
L 382.386451 144.717 
L 386.112973 144.717 
L 389.839494 144.717 
L 393.566015 144.717 
L 397.292537 144.717 
L 401.019058 144.717 
L 404.74558 144.717 
L 408.472101 144.717 
L 412.198622 144.717 
L 415.925144 144.717 
L 419.651665 144.717 
L 423.378187 144.717 
L 427.104708 144.717 
L 430.83123 144.717 
L 434.557751 144.717 
L 438.284272 144.717 
L 442.010794 144.717 
L 445.737315 144.717 
L 449.463837 144.717 
L 453.190358 144.717 
L 456.916879 144.717 
L 460.643401 47.949 
" clip-path="url(#pfc3e438973)" style="fill: none; stroke: #ffa500; stroke-width: 3; stroke-linecap: square"/>
   </g>
   <g id="line2d_14">
    <path d="M 91.717781 451.149 
L 95.444302 314.061 
L 99.170824 314.061 
L 102.897345 314.061 
L 106.623867 314.061 
L 110.350388 314.061 
L 114.076909 314.061 
L 117.803431 314.061 
L 121.529952 314.061 
L 125.256474 314.061 
L 128.982995 314.061 
L 132.709517 314.061 
L 136.436038 314.061 
L 140.162559 314.061 
L 143.889081 314.061 
L 147.615602 314.061 
L 151.342124 314.061 
L 155.068645 314.061 
L 158.795166 314.061 
L 162.521688 314.061 
L 166.248209 314.061 
L 169.974731 314.061 
L 173.701252 314.061 
L 177.427773 314.061 
L 181.154295 314.061 
L 184.880816 314.061 
L 188.607338 314.061 
L 192.333859 314.061 
L 196.060381 314.061 
L 199.786902 314.061 
L 203.513423 314.061 
L 207.239945 314.061 
L 210.966466 314.061 
L 214.692988 253.581 
L 218.419509 253.275545 
L 222.14603 252.970091 
L 225.872552 252.664636 
L 229.599073 252.359182 
L 233.325595 252.053727 
L 237.052116 251.748273 
L 240.778637 251.442818 
L 244.505159 251.137364 
L 248.23168 250.831909 
L 251.958202 250.526455 
L 255.684723 250.221 
L 259.411245 249.915545 
L 263.137766 249.610091 
L 266.864287 249.304636 
L 270.590809 248.999182 
L 274.31733 248.693727 
L 278.043852 200.004273 
L 281.770373 199.698818 
L 285.496894 199.393364 
L 289.223416 199.087909 
L 292.949937 198.782455 
L 296.676459 198.477 
L 300.40298 198.171545 
L 304.129502 197.866091 
L 307.856023 197.560636 
L 311.582544 197.255182 
L 315.309066 196.949727 
L 319.035587 196.644273 
L 322.762109 196.338818 
L 326.48863 196.033364 
L 330.215151 195.727909 
L 333.941673 195.422455 
L 337.668194 114.477 
L 341.394716 114.477 
L 345.121237 114.477 
L 348.847758 114.477 
L 352.57428 114.477 
L 356.300801 114.477 
L 360.027323 114.477 
L 363.753844 114.477 
L 367.480366 114.477 
L 371.206887 114.477 
L 374.933408 114.477 
L 378.65993 114.477 
L 382.386451 114.477 
L 386.112973 114.477 
L 389.839494 114.477 
L 393.566015 114.477 
L 397.292537 114.477 
L 401.019058 114.477 
L 404.74558 114.477 
L 408.472101 114.477 
L 412.198622 114.477 
L 415.925144 114.477 
L 419.651665 114.477 
L 423.378187 114.477 
L 427.104708 114.477 
L 430.83123 114.477 
L 434.557751 114.477 
L 438.284272 114.477 
L 442.010794 114.477 
L 445.737315 114.477 
L 449.463837 114.477 
L 453.190358 114.477 
L 456.916879 114.477 
L 460.643401 47.949 
" clip-path="url(#pfc3e438973)" style="fill: none; stroke: #0000ff; stroke-width: 3; stroke-linecap: square"/>
   </g>
   <g id="line2d_15">
    <path d="M 91.717781 451.149 
L 95.444302 332.205 
L 99.170824 332.205 
L 102.897345 332.205 
L 106.623867 332.205 
L 110.350388 332.205 
L 114.076909 332.205 
L 117.803431 332.205 
L 121.529952 332.205 
L 125.256474 332.205 
L 128.982995 332.205 
L 132.709517 332.205 
L 136.436038 332.205 
L 140.162559 332.205 
L 143.889081 332.205 
L 147.615602 332.205 
L 151.342124 332.205 
L 155.068645 332.205 
L 158.795166 332.205 
L 162.521688 332.205 
L 166.248209 332.205 
L 169.974731 332.205 
L 173.701252 332.205 
L 177.427773 332.205 
L 181.154295 332.205 
L 184.880816 332.205 
L 188.607338 332.205 
L 192.333859 332.205 
L 196.060381 332.205 
L 199.786902 332.205 
L 203.513423 332.205 
L 207.239945 332.205 
L 210.966466 332.205 
L 214.692988 281.805 
L 218.419509 281.805 
L 222.14603 281.805 
L 225.872552 281.805 
L 229.599073 281.805 
L 233.325595 281.805 
L 237.052116 281.805 
L 240.778637 281.805 
L 244.505159 281.805 
L 248.23168 281.805 
L 251.958202 281.805 
L 255.684723 281.805 
L 259.411245 281.805 
L 263.137766 281.805 
L 266.864287 281.805 
L 270.590809 281.805 
L 274.31733 281.805 
L 278.043852 241.485 
L 281.770373 241.485 
L 285.496894 241.485 
L 289.223416 241.485 
L 292.949937 241.485 
L 296.676459 241.485 
L 300.40298 241.485 
L 304.129502 241.485 
L 307.856023 241.485 
L 311.582544 241.485 
L 315.309066 241.485 
L 319.035587 241.485 
L 322.762109 241.485 
L 326.48863 241.485 
L 330.215151 241.485 
L 333.941673 241.485 
L 337.668194 201.165 
L 341.394716 201.165 
L 345.121237 201.165 
L 348.847758 201.165 
L 352.57428 201.165 
L 356.300801 201.165 
L 360.027323 201.165 
L 363.753844 201.165 
L 367.480366 201.165 
L 371.206887 201.165 
L 374.933408 201.165 
L 378.65993 201.165 
L 382.386451 201.165 
L 386.112973 201.165 
L 389.839494 201.165 
L 393.566015 201.165 
L 397.292537 201.165 
L 401.019058 201.165 
L 404.74558 201.165 
L 408.472101 201.165 
L 412.198622 201.165 
L 415.925144 201.165 
L 419.651665 201.165 
L 423.378187 201.165 
L 427.104708 201.165 
L 430.83123 201.165 
L 434.557751 201.165 
L 438.284272 201.165 
L 442.010794 201.165 
L 445.737315 201.165 
L 449.463837 201.165 
L 453.190358 201.165 
L 456.916879 201.165 
L 460.643401 47.949 
" clip-path="url(#pfc3e438973)" style="fill: none; stroke: #008000; stroke-width: 3; stroke-linecap: square"/>
   </g>
   <g id="line2d_16">
    <path d="M 91.717781 451.149 
L 460.643401 47.949 
" clip-path="url(#pfc3e438973)" style="fill: none; stroke-dasharray: 11.1,4.8; stroke-dashoffset: 0; stroke: #000000; stroke-opacity: 0.5; stroke-width: 3"/>
   </g>
   <g id="patch_3">
    <path d="M 73.2715 471.309 
L 73.2715 27.789 
" style="fill: none; stroke: #000000; stroke-width: 2.5; stroke-linejoin: miter; stroke-linecap: square"/>
   </g>
   <g id="patch_4">
    <path d="M 479.089682 471.309 
L 479.089682 27.789 
" style="fill: none; stroke: #000000; stroke-width: 2.5; stroke-linejoin: miter; stroke-linecap: square"/>
   </g>
   <g id="patch_5">
    <path d="M 73.2715 471.309 
L 479.089682 471.309 
" style="fill: none; stroke: #000000; stroke-width: 2.5; stroke-linejoin: miter; stroke-linecap: square"/>
   </g>
   <g id="patch_6">
    <path d="M 73.2715 27.789 
L 479.089682 27.789 
" style="fill: none; stroke: #000000; stroke-width: 2.5; stroke-linejoin: miter; stroke-linecap: square"/>
   </g>
   <g id="text_15">
    <!-- Approach OHE_DI_LIVE_MONTH_36 -->
    <g transform="translate(108.122091 21.789) scale(0.192 -0.192)">
     <defs>
      <path id="DejaVuSans-41" d="M 2188 4044 
L 1331 1722 
L 3047 1722 
L 2188 4044 
z
M 1831 4666 
L 2547 4666 
L 4325 0 
L 3669 0 
L 3244 1197 
L 1141 1197 
L 716 0 
L 50 0 
L 1831 4666 
z
" transform="scale(0.015625)"/>
      <path id="DejaVuSans-70" d="M 1159 525 
L 1159 -1331 
L 581 -1331 
L 581 3500 
L 1159 3500 
L 1159 2969 
Q 1341 3281 1617 3432 
Q 1894 3584 2278 3584 
Q 2916 3584 3314 3078 
Q 3713 2572 3713 1747 
Q 3713 922 3314 415 
Q 2916 -91 2278 -91 
Q 1894 -91 1617 61 
Q 1341 213 1159 525 
z
M 3116 1747 
Q 3116 2381 2855 2742 
Q 2594 3103 2138 3103 
Q 1681 3103 1420 2742 
Q 1159 2381 1159 1747 
Q 1159 1113 1420 752 
Q 1681 391 2138 391 
Q 2594 391 2855 752 
Q 3116 1113 3116 1747 
z
" transform="scale(0.015625)"/>
      <path id="DejaVuSans-63" d="M 3122 3366 
L 3122 2828 
Q 2878 2963 2633 3030 
Q 2388 3097 2138 3097 
Q 1578 3097 1268 2742 
Q 959 2388 959 1747 
Q 959 1106 1268 751 
Q 1578 397 2138 397 
Q 2388 397 2633 464 
Q 2878 531 3122 666 
L 3122 134 
Q 2881 22 2623 -34 
Q 2366 -91 2075 -91 
Q 1284 -91 818 406 
Q 353 903 353 1747 
Q 353 2603 823 3093 
Q 1294 3584 2113 3584 
Q 2378 3584 2631 3529 
Q 2884 3475 3122 3366 
z
" transform="scale(0.015625)"/>
      <path id="DejaVuSans-68" d="M 3513 2113 
L 3513 0 
L 2938 0 
L 2938 2094 
Q 2938 2591 2744 2837 
Q 2550 3084 2163 3084 
Q 1697 3084 1428 2787 
Q 1159 2491 1159 1978 
L 1159 0 
L 581 0 
L 581 4863 
L 1159 4863 
L 1159 2956 
Q 1366 3272 1645 3428 
Q 1925 3584 2291 3584 
Q 2894 3584 3203 3211 
Q 3513 2838 3513 2113 
z
" transform="scale(0.015625)"/>
      <path id="DejaVuSans-4f" d="M 2522 4238 
Q 1834 4238 1429 3725 
Q 1025 3213 1025 2328 
Q 1025 1447 1429 934 
Q 1834 422 2522 422 
Q 3209 422 3611 934 
Q 4013 1447 4013 2328 
Q 4013 3213 3611 3725 
Q 3209 4238 2522 4238 
z
M 2522 4750 
Q 3503 4750 4090 4092 
Q 4678 3434 4678 2328 
Q 4678 1225 4090 567 
Q 3503 -91 2522 -91 
Q 1538 -91 948 565 
Q 359 1222 359 2328 
Q 359 3434 948 4092 
Q 1538 4750 2522 4750 
z
" transform="scale(0.015625)"/>
      <path id="DejaVuSans-48" d="M 628 4666 
L 1259 4666 
L 1259 2753 
L 3553 2753 
L 3553 4666 
L 4184 4666 
L 4184 0 
L 3553 0 
L 3553 2222 
L 1259 2222 
L 1259 0 
L 628 0 
L 628 4666 
z
" transform="scale(0.015625)"/>
      <path id="DejaVuSans-45" d="M 628 4666 
L 3578 4666 
L 3578 4134 
L 1259 4134 
L 1259 2753 
L 3481 2753 
L 3481 2222 
L 1259 2222 
L 1259 531 
L 3634 531 
L 3634 0 
L 628 0 
L 628 4666 
z
" transform="scale(0.015625)"/>
      <path id="DejaVuSans-5f" d="M 3263 -1063 
L 3263 -1509 
L -63 -1509 
L -63 -1063 
L 3263 -1063 
z
" transform="scale(0.015625)"/>
      <path id="DejaVuSans-44" d="M 1259 4147 
L 1259 519 
L 2022 519 
Q 2988 519 3436 956 
Q 3884 1394 3884 2338 
Q 3884 3275 3436 3711 
Q 2988 4147 2022 4147 
L 1259 4147 
z
M 628 4666 
L 1925 4666 
Q 3281 4666 3915 4102 
Q 4550 3538 4550 2338 
Q 4550 1131 3912 565 
Q 3275 0 1925 0 
L 628 0 
L 628 4666 
z
" transform="scale(0.015625)"/>
      <path id="DejaVuSans-49" d="M 628 4666 
L 1259 4666 
L 1259 0 
L 628 0 
L 628 4666 
z
" transform="scale(0.015625)"/>
      <path id="DejaVuSans-4c" d="M 628 4666 
L 1259 4666 
L 1259 531 
L 3531 531 
L 3531 0 
L 628 0 
L 628 4666 
z
" transform="scale(0.015625)"/>
      <path id="DejaVuSans-56" d="M 1831 0 
L 50 4666 
L 709 4666 
L 2188 738 
L 3669 4666 
L 4325 4666 
L 2547 0 
L 1831 0 
z
" transform="scale(0.015625)"/>
      <path id="DejaVuSans-4d" d="M 628 4666 
L 1569 4666 
L 2759 1491 
L 3956 4666 
L 4897 4666 
L 4897 0 
L 4281 0 
L 4281 4097 
L 3078 897 
L 2444 897 
L 1241 4097 
L 1241 0 
L 628 0 
L 628 4666 
z
" transform="scale(0.015625)"/>
      <path id="DejaVuSans-4e" d="M 628 4666 
L 1478 4666 
L 3547 763 
L 3547 4666 
L 4159 4666 
L 4159 0 
L 3309 0 
L 1241 3903 
L 1241 0 
L 628 0 
L 628 4666 
z
" transform="scale(0.015625)"/>
      <path id="DejaVuSans-33" d="M 2597 2516 
Q 3050 2419 3304 2112 
Q 3559 1806 3559 1356 
Q 3559 666 3084 287 
Q 2609 -91 1734 -91 
Q 1441 -91 1130 -33 
Q 819 25 488 141 
L 488 750 
Q 750 597 1062 519 
Q 1375 441 1716 441 
Q 2309 441 2620 675 
Q 2931 909 2931 1356 
Q 2931 1769 2642 2001 
Q 2353 2234 1838 2234 
L 1294 2234 
L 1294 2753 
L 1863 2753 
Q 2328 2753 2575 2939 
Q 2822 3125 2822 3475 
Q 2822 3834 2567 4026 
Q 2313 4219 1838 4219 
Q 1578 4219 1281 4162 
Q 984 4106 628 3988 
L 628 4550 
Q 988 4650 1302 4700 
Q 1616 4750 1894 4750 
Q 2613 4750 3031 4423 
Q 3450 4097 3450 3541 
Q 3450 3153 3228 2886 
Q 3006 2619 2597 2516 
z
" transform="scale(0.015625)"/>
     </defs>
     <use xlink:href="#DejaVuSans-41"/>
     <use xlink:href="#DejaVuSans-70" x="68.408203"/>
     <use xlink:href="#DejaVuSans-70" x="131.884766"/>
     <use xlink:href="#DejaVuSans-72" x="195.361328"/>
     <use xlink:href="#DejaVuSans-6f" x="234.224609"/>
     <use xlink:href="#DejaVuSans-61" x="295.40625"/>
     <use xlink:href="#DejaVuSans-63" x="356.685547"/>
     <use xlink:href="#DejaVuSans-68" x="411.666016"/>
     <use xlink:href="#DejaVuSans-20" x="475.044922"/>
     <use xlink:href="#DejaVuSans-4f" x="506.832031"/>
     <use xlink:href="#DejaVuSans-48" x="585.542969"/>
     <use xlink:href="#DejaVuSans-45" x="660.738281"/>
     <use xlink:href="#DejaVuSans-5f" x="723.921875"/>
     <use xlink:href="#DejaVuSans-44" x="773.921875"/>
     <use xlink:href="#DejaVuSans-49" x="850.923828"/>
     <use xlink:href="#DejaVuSans-5f" x="880.416016"/>
     <use xlink:href="#DejaVuSans-4c" x="930.416016"/>
     <use xlink:href="#DejaVuSans-49" x="986.128906"/>
     <use xlink:href="#DejaVuSans-56" x="1015.621094"/>
     <use xlink:href="#DejaVuSans-45" x="1084.029297"/>
     <use xlink:href="#DejaVuSans-5f" x="1147.212891"/>
     <use xlink:href="#DejaVuSans-4d" x="1197.212891"/>
     <use xlink:href="#DejaVuSans-4f" x="1283.492188"/>
     <use xlink:href="#DejaVuSans-4e" x="1362.203125"/>
     <use xlink:href="#DejaVuSans-54" x="1437.007812"/>
     <use xlink:href="#DejaVuSans-48" x="1498.091797"/>
     <use xlink:href="#DejaVuSans-5f" x="1573.287109"/>
     <use xlink:href="#DejaVuSans-33" x="1623.287109"/>
     <use xlink:href="#DejaVuSans-36" x="1686.910156"/>
    </g>
   </g>
   <g id="legend_1">
    <g id="patch_7">
     <path d="M 85.5915 119.3695 
L 231.01975 119.3695 
Q 234.53975 119.3695 234.53975 115.8495 
L 234.53975 40.109 
Q 234.53975 36.589 231.01975 36.589 
L 85.5915 36.589 
Q 82.0715 36.589 82.0715 40.109 
L 82.0715 115.8495 
Q 82.0715 119.3695 85.5915 119.3695 
z
" style="fill: #ffffff; opacity: 0.8; stroke: #cccccc; stroke-width: 2; stroke-linejoin: miter"/>
    </g>
    <g id="line2d_17">
     <path d="M 89.1115 50.84225 
L 106.7115 50.84225 
L 124.3115 50.84225 
" style="fill: none; stroke: #ffa500; stroke-width: 3; stroke-linecap: square"/>
    </g>
    <g id="text_16">
     <!-- LR: 0.65 -->
     <g transform="translate(138.3915 57.00225) scale(0.176 -0.176)">
      <defs>
       <path id="DejaVuSans-3a" d="M 750 794 
L 1409 794 
L 1409 0 
L 750 0 
L 750 794 
z
M 750 3309 
L 1409 3309 
L 1409 2516 
L 750 2516 
L 750 3309 
z
" transform="scale(0.015625)"/>
       <path id="DejaVuSans-35" d="M 691 4666 
L 3169 4666 
L 3169 4134 
L 1269 4134 
L 1269 2991 
Q 1406 3038 1543 3061 
Q 1681 3084 1819 3084 
Q 2600 3084 3056 2656 
Q 3513 2228 3513 1497 
Q 3513 744 3044 326 
Q 2575 -91 1722 -91 
Q 1428 -91 1123 -41 
Q 819 9 494 109 
L 494 744 
Q 775 591 1075 516 
Q 1375 441 1709 441 
Q 2250 441 2565 725 
Q 2881 1009 2881 1497 
Q 2881 1984 2565 2268 
Q 2250 2553 1709 2553 
Q 1456 2553 1204 2497 
Q 953 2441 691 2322 
L 691 4666 
z
" transform="scale(0.015625)"/>
      </defs>
      <use xlink:href="#DejaVuSans-4c"/>
      <use xlink:href="#DejaVuSans-52" x="55.712891"/>
      <use xlink:href="#DejaVuSans-3a" x="122.070312"/>
      <use xlink:href="#DejaVuSans-20" x="155.761719"/>
      <use xlink:href="#DejaVuSans-30" x="187.548828"/>
      <use xlink:href="#DejaVuSans-2e" x="251.171875"/>
      <use xlink:href="#DejaVuSans-36" x="282.958984"/>
      <use xlink:href="#DejaVuSans-35" x="346.582031"/>
     </g>
    </g>
    <g id="line2d_18">
     <path d="M 89.1115 76.67575 
L 106.7115 76.67575 
L 124.3115 76.67575 
" style="fill: none; stroke: #0000ff; stroke-width: 3; stroke-linecap: square"/>
    </g>
    <g id="text_17">
     <!-- RF: 0.58 -->
     <g transform="translate(138.3915 82.83575) scale(0.176 -0.176)">
      <use xlink:href="#DejaVuSans-52"/>
      <use xlink:href="#DejaVuSans-46" x="69.482422"/>
      <use xlink:href="#DejaVuSans-3a" x="119.251953"/>
      <use xlink:href="#DejaVuSans-20" x="152.943359"/>
      <use xlink:href="#DejaVuSans-30" x="184.730469"/>
      <use xlink:href="#DejaVuSans-2e" x="248.353516"/>
      <use xlink:href="#DejaVuSans-35" x="280.140625"/>
      <use xlink:href="#DejaVuSans-38" x="343.763672"/>
     </g>
    </g>
    <g id="line2d_19">
     <path d="M 89.1115 102.50925 
L 106.7115 102.50925 
L 124.3115 102.50925 
" style="fill: none; stroke: #008000; stroke-width: 3; stroke-linecap: square"/>
    </g>
    <g id="text_18">
     <!-- SVM: 0.46 -->
     <g transform="translate(138.3915 108.66925) scale(0.176 -0.176)">
      <defs>
       <path id="DejaVuSans-53" d="M 3425 4513 
L 3425 3897 
Q 3066 4069 2747 4153 
Q 2428 4238 2131 4238 
Q 1616 4238 1336 4038 
Q 1056 3838 1056 3469 
Q 1056 3159 1242 3001 
Q 1428 2844 1947 2747 
L 2328 2669 
Q 3034 2534 3370 2195 
Q 3706 1856 3706 1288 
Q 3706 609 3251 259 
Q 2797 -91 1919 -91 
Q 1588 -91 1214 -16 
Q 841 59 441 206 
L 441 856 
Q 825 641 1194 531 
Q 1563 422 1919 422 
Q 2459 422 2753 634 
Q 3047 847 3047 1241 
Q 3047 1584 2836 1778 
Q 2625 1972 2144 2069 
L 1759 2144 
Q 1053 2284 737 2584 
Q 422 2884 422 3419 
Q 422 4038 858 4394 
Q 1294 4750 2059 4750 
Q 2388 4750 2728 4690 
Q 3069 4631 3425 4513 
z
" transform="scale(0.015625)"/>
      </defs>
      <use xlink:href="#DejaVuSans-53"/>
      <use xlink:href="#DejaVuSans-56" x="63.476562"/>
      <use xlink:href="#DejaVuSans-4d" x="131.884766"/>
      <use xlink:href="#DejaVuSans-3a" x="218.164062"/>
      <use xlink:href="#DejaVuSans-20" x="251.855469"/>
      <use xlink:href="#DejaVuSans-30" x="283.642578"/>
      <use xlink:href="#DejaVuSans-2e" x="347.265625"/>
      <use xlink:href="#DejaVuSans-34" x="379.052734"/>
      <use xlink:href="#DejaVuSans-36" x="442.675781"/>
     </g>
    </g>
   </g>
  </g>
  <g id="axes_2">
   <g id="patch_8">
    <path d="M 560.253318 471.309 
L 966.0715 471.309 
L 966.0715 27.789 
L 560.253318 27.789 
z
" style="fill: #ffffff"/>
   </g>
   <g id="PolyCollection_4">
    <defs>
     <path id="m19a2a794e5" d="M 578.699599 -82.4755 
L 578.699599 -82.4755 
L 582.426121 -183.2755 
L 586.152642 -183.2755 
L 589.879163 -183.2755 
L 593.605685 -183.2755 
L 597.332206 -183.2755 
L 601.058728 -183.2755 
L 604.785249 -183.2755 
L 608.51177 -183.2755 
L 612.238292 -183.2755 
L 615.964813 -183.2755 
L 619.691335 -183.2755 
L 623.417856 -183.2755 
L 627.144378 -183.2755 
L 630.870899 -183.2755 
L 634.59742 -183.2755 
L 638.323942 -183.2755 
L 642.050463 -183.2755 
L 645.776985 -183.2755 
L 649.503506 -183.2755 
L 653.230027 -183.2755 
L 656.956549 -183.2755 
L 660.68307 -183.2755 
L 664.409592 -183.2755 
L 668.136113 -183.2755 
L 671.862634 -183.2755 
L 675.589156 -183.2755 
L 679.315677 -183.2755 
L 683.042199 -183.2755 
L 686.76872 -183.2755 
L 690.495242 -183.2755 
L 694.221763 -183.2755 
L 697.948284 -183.2755 
L 701.674806 -183.2755 
L 705.401327 -183.2755 
L 709.127849 -183.2755 
L 712.85437 -183.2755 
L 716.580891 -183.2755 
L 720.307413 -183.2755 
L 724.033934 -183.2755 
L 727.760456 -183.2755 
L 731.486977 -183.2755 
L 735.213498 -183.2755 
L 738.94002 -183.2755 
L 742.666541 -183.2755 
L 746.393063 -183.2755 
L 750.119584 -183.2755 
L 753.846106 -183.2755 
L 757.572627 -183.2755 
L 761.299148 -183.2755 
L 765.02567 -183.2755 
L 768.752191 -183.2755 
L 772.478713 -183.2755 
L 776.205234 -183.2755 
L 779.931755 -183.2755 
L 783.658277 -183.2755 
L 787.384798 -183.2755 
L 791.11132 -183.2755 
L 794.837841 -183.2755 
L 798.564363 -183.2755 
L 802.290884 -183.2755 
L 806.017405 -183.2755 
L 809.743927 -183.2755 
L 813.470448 -183.2755 
L 817.19697 -183.2755 
L 820.923491 -183.2755 
L 824.650012 -324.3955 
L 828.376534 -324.3955 
L 832.103055 -324.3955 
L 835.829577 -324.3955 
L 839.556098 -324.3955 
L 843.282619 -324.3955 
L 847.009141 -324.3955 
L 850.735662 -324.3955 
L 854.462184 -324.3955 
L 858.188705 -324.3955 
L 861.915227 -324.3955 
L 865.641748 -324.3955 
L 869.368269 -324.3955 
L 873.094791 -324.3955 
L 876.821312 -324.3955 
L 880.547834 -324.3955 
L 884.274355 -324.3955 
L 888.000876 -324.3955 
L 891.727398 -324.3955 
L 895.453919 -324.3955 
L 899.180441 -324.3955 
L 902.906962 -324.3955 
L 906.633483 -324.3955 
L 910.360005 -324.3955 
L 914.086526 -324.3955 
L 917.813048 -324.3955 
L 921.539569 -324.3955 
L 925.266091 -324.3955 
L 928.992612 -324.3955 
L 932.719133 -324.3955 
L 936.445655 -324.3955 
L 940.172176 -324.3955 
L 943.898698 -324.3955 
L 947.625219 -485.6755 
L 947.625219 -485.6755 
L 947.625219 -485.6755 
L 943.898698 -485.6755 
L 940.172176 -485.6755 
L 936.445655 -485.6755 
L 932.719133 -485.6755 
L 928.992612 -485.6755 
L 925.266091 -485.6755 
L 921.539569 -485.6755 
L 917.813048 -485.6755 
L 914.086526 -485.6755 
L 910.360005 -485.6755 
L 906.633483 -485.6755 
L 902.906962 -485.6755 
L 899.180441 -485.6755 
L 895.453919 -485.6755 
L 891.727398 -485.6755 
L 888.000876 -485.6755 
L 884.274355 -485.6755 
L 880.547834 -485.6755 
L 876.821312 -485.6755 
L 873.094791 -485.6755 
L 869.368269 -485.6755 
L 865.641748 -485.6755 
L 861.915227 -485.6755 
L 858.188705 -485.6755 
L 854.462184 -485.6755 
L 850.735662 -485.6755 
L 847.009141 -485.6755 
L 843.282619 -485.6755 
L 839.556098 -485.6755 
L 835.829577 -485.6755 
L 832.103055 -485.6755 
L 828.376534 -485.6755 
L 824.650012 -485.6755 
L 820.923491 -485.6755 
L 817.19697 -485.6755 
L 813.470448 -485.6755 
L 809.743927 -485.6755 
L 806.017405 -485.6755 
L 802.290884 -485.6755 
L 798.564363 -485.6755 
L 794.837841 -485.6755 
L 791.11132 -485.6755 
L 787.384798 -485.6755 
L 783.658277 -485.6755 
L 779.931755 -485.6755 
L 776.205234 -485.6755 
L 772.478713 -485.6755 
L 768.752191 -485.6755 
L 765.02567 -485.6755 
L 761.299148 -485.6755 
L 757.572627 -485.6755 
L 753.846106 -485.6755 
L 750.119584 -485.6755 
L 746.393063 -485.6755 
L 742.666541 -485.6755 
L 738.94002 -485.6755 
L 735.213498 -485.6755 
L 731.486977 -485.6755 
L 727.760456 -485.6755 
L 724.033934 -485.6755 
L 720.307413 -485.6755 
L 716.580891 -485.6755 
L 712.85437 -485.6755 
L 709.127849 -485.6755 
L 705.401327 -485.6755 
L 701.674806 -485.6755 
L 697.948284 -485.6755 
L 694.221763 -485.6755 
L 690.495242 -485.6755 
L 686.76872 -485.6755 
L 683.042199 -485.6755 
L 679.315677 -485.6755 
L 675.589156 -485.6755 
L 671.862634 -485.6755 
L 668.136113 -485.6755 
L 664.409592 -485.6755 
L 660.68307 -485.6755 
L 656.956549 -485.6755 
L 653.230027 -485.6755 
L 649.503506 -485.6755 
L 645.776985 -485.6755 
L 642.050463 -485.6755 
L 638.323942 -485.6755 
L 634.59742 -485.6755 
L 630.870899 -485.6755 
L 627.144378 -485.6755 
L 623.417856 -485.6755 
L 619.691335 -485.6755 
L 615.964813 -485.6755 
L 612.238292 -485.6755 
L 608.51177 -485.6755 
L 604.785249 -485.6755 
L 601.058728 -485.6755 
L 597.332206 -485.6755 
L 593.605685 -485.6755 
L 589.879163 -485.6755 
L 586.152642 -485.6755 
L 582.426121 -485.6755 
L 578.699599 -82.4755 
z
" style="stroke: #ffa500; stroke-opacity: 0.2; stroke-width: 2"/>
    </defs>
    <g clip-path="url(#p605fbc388c)">
     <use xlink:href="#m19a2a794e5" x="0" y="533.6245" style="fill: #ffa500; fill-opacity: 0.2; stroke: #ffa500; stroke-opacity: 0.2; stroke-width: 2"/>
    </g>
   </g>
   <g id="PolyCollection_5">
    <defs>
     <path id="m17d522536f" d="M 578.699599 -82.4755 
L 578.699599 -82.4755 
L 582.426121 -82.4755 
L 586.152642 -82.4755 
L 589.879163 -82.4755 
L 593.605685 -82.4755 
L 597.332206 -82.4755 
L 601.058728 -82.4755 
L 604.785249 -82.4755 
L 608.51177 -82.4755 
L 612.238292 -82.4755 
L 615.964813 -82.4755 
L 619.691335 -82.4755 
L 623.417856 -82.4755 
L 627.144378 -82.4755 
L 630.870899 -82.4755 
L 634.59742 -82.4755 
L 638.323942 -82.4755 
L 642.050463 -82.4755 
L 645.776985 -82.4755 
L 649.503506 -82.4755 
L 653.230027 -82.4755 
L 656.956549 -82.4755 
L 660.68307 -82.4755 
L 664.409592 -82.4755 
L 668.136113 -82.4755 
L 671.862634 -82.4755 
L 675.589156 -82.4755 
L 679.315677 -82.4755 
L 683.042199 -82.4755 
L 686.76872 -82.4755 
L 690.495242 -82.4755 
L 694.221763 -82.4755 
L 697.948284 -82.4755 
L 701.674806 -82.4755 
L 705.401327 -82.4755 
L 709.127849 -82.4755 
L 712.85437 -82.4755 
L 716.580891 -82.4755 
L 720.307413 -82.4755 
L 724.033934 -82.4755 
L 727.760456 -82.4755 
L 731.486977 -82.4755 
L 735.213498 -82.4755 
L 738.94002 -82.4755 
L 742.666541 -82.4755 
L 746.393063 -82.4755 
L 750.119584 -82.4755 
L 753.846106 -82.4755 
L 757.572627 -82.4755 
L 761.299148 -82.4755 
L 765.02567 -235.202773 
L 768.752191 -238.257318 
L 772.478713 -241.311864 
L 776.205234 -244.366409 
L 779.931755 -247.420955 
L 783.658277 -250.4755 
L 787.384798 -253.530045 
L 791.11132 -256.584591 
L 794.837841 -259.639136 
L 798.564363 -262.693682 
L 802.290884 -265.748227 
L 806.017405 -268.802773 
L 809.743927 -271.857318 
L 813.470448 -274.911864 
L 817.19697 -277.966409 
L 820.923491 -281.020955 
L 824.650012 -324.3955 
L 828.376534 -324.3955 
L 832.103055 -324.3955 
L 835.829577 -324.3955 
L 839.556098 -324.3955 
L 843.282619 -324.3955 
L 847.009141 -324.3955 
L 850.735662 -324.3955 
L 854.462184 -324.3955 
L 858.188705 -324.3955 
L 861.915227 -324.3955 
L 865.641748 -324.3955 
L 869.368269 -324.3955 
L 873.094791 -324.3955 
L 876.821312 -324.3955 
L 880.547834 -324.3955 
L 884.274355 -324.3955 
L 888.000876 -324.3955 
L 891.727398 -324.3955 
L 895.453919 -324.3955 
L 899.180441 -324.3955 
L 902.906962 -324.3955 
L 906.633483 -324.3955 
L 910.360005 -324.3955 
L 914.086526 -324.3955 
L 917.813048 -324.3955 
L 921.539569 -324.3955 
L 925.266091 -324.3955 
L 928.992612 -324.3955 
L 932.719133 -324.3955 
L 936.445655 -324.3955 
L 940.172176 -324.3955 
L 943.898698 -324.3955 
L 947.625219 -485.6755 
L 947.625219 -485.6755 
L 947.625219 -485.6755 
L 943.898698 -485.6755 
L 940.172176 -485.6755 
L 936.445655 -485.6755 
L 932.719133 -485.6755 
L 928.992612 -485.6755 
L 925.266091 -485.6755 
L 921.539569 -485.6755 
L 917.813048 -485.6755 
L 914.086526 -485.6755 
L 910.360005 -485.6755 
L 906.633483 -485.6755 
L 902.906962 -485.6755 
L 899.180441 -485.6755 
L 895.453919 -485.6755 
L 891.727398 -485.6755 
L 888.000876 -485.6755 
L 884.274355 -485.6755 
L 880.547834 -485.6755 
L 876.821312 -485.6755 
L 873.094791 -485.6755 
L 869.368269 -485.6755 
L 865.641748 -485.6755 
L 861.915227 -485.6755 
L 858.188705 -485.6755 
L 854.462184 -485.6755 
L 850.735662 -485.6755 
L 847.009141 -485.6755 
L 843.282619 -485.6755 
L 839.556098 -485.6755 
L 835.829577 -485.6755 
L 832.103055 -485.6755 
L 828.376534 -485.6755 
L 824.650012 -485.6755 
L 820.923491 -485.6755 
L 817.19697 -485.6755 
L 813.470448 -485.6755 
L 809.743927 -485.6755 
L 806.017405 -485.6755 
L 802.290884 -485.6755 
L 798.564363 -485.6755 
L 794.837841 -485.6755 
L 791.11132 -485.6755 
L 787.384798 -485.6755 
L 783.658277 -485.6755 
L 779.931755 -485.6755 
L 776.205234 -485.6755 
L 772.478713 -485.6755 
L 768.752191 -485.6755 
L 765.02567 -485.6755 
L 761.299148 -485.6755 
L 757.572627 -485.6755 
L 753.846106 -485.6755 
L 750.119584 -485.6755 
L 746.393063 -485.6755 
L 742.666541 -485.6755 
L 738.94002 -485.6755 
L 735.213498 -485.6755 
L 731.486977 -485.6755 
L 727.760456 -485.6755 
L 724.033934 -485.6755 
L 720.307413 -485.6755 
L 716.580891 -485.6755 
L 712.85437 -485.6755 
L 709.127849 -485.6755 
L 705.401327 -485.6755 
L 701.674806 -485.6755 
L 697.948284 -485.6755 
L 694.221763 -485.6755 
L 690.495242 -485.6755 
L 686.76872 -485.6755 
L 683.042199 -485.6755 
L 679.315677 -485.6755 
L 675.589156 -485.6755 
L 671.862634 -485.6755 
L 668.136113 -485.6755 
L 664.409592 -485.6755 
L 660.68307 -485.6755 
L 656.956549 -485.6755 
L 653.230027 -485.6755 
L 649.503506 -485.6755 
L 645.776985 -485.6755 
L 642.050463 -485.6755 
L 638.323942 -485.6755 
L 634.59742 -485.6755 
L 630.870899 -485.6755 
L 627.144378 -485.6755 
L 623.417856 -485.6755 
L 619.691335 -485.6755 
L 615.964813 -485.6755 
L 612.238292 -485.6755 
L 608.51177 -485.6755 
L 604.785249 -485.6755 
L 601.058728 -485.6755 
L 597.332206 -485.6755 
L 593.605685 -485.6755 
L 589.879163 -485.6755 
L 586.152642 -485.6755 
L 582.426121 -485.6755 
L 578.699599 -82.4755 
z
" style="stroke: #0000ff; stroke-opacity: 0.2; stroke-width: 2"/>
    </defs>
    <g clip-path="url(#p605fbc388c)">
     <use xlink:href="#m17d522536f" x="0" y="533.6245" style="fill: #0000ff; fill-opacity: 0.2; stroke: #0000ff; stroke-opacity: 0.2; stroke-width: 2"/>
    </g>
   </g>
   <g id="PolyCollection_6">
    <defs>
     <path id="m00a217d44f" d="M 578.699599 -82.4755 
L 578.699599 -82.4755 
L 582.426121 -82.4755 
L 586.152642 -82.4755 
L 589.879163 -82.4755 
L 593.605685 -82.4755 
L 597.332206 -82.4755 
L 601.058728 -82.4755 
L 604.785249 -82.4755 
L 608.51177 -82.4755 
L 612.238292 -82.4755 
L 615.964813 -82.4755 
L 619.691335 -82.4755 
L 623.417856 -82.4755 
L 627.144378 -82.4755 
L 630.870899 -82.4755 
L 634.59742 -82.4755 
L 638.323942 -82.4755 
L 642.050463 -82.4755 
L 645.776985 -82.4755 
L 649.503506 -82.4755 
L 653.230027 -82.4755 
L 656.956549 -82.4755 
L 660.68307 -82.4755 
L 664.409592 -82.4755 
L 668.136113 -82.4755 
L 671.862634 -82.4755 
L 675.589156 -82.4755 
L 679.315677 -82.4755 
L 683.042199 -82.4755 
L 686.76872 -82.4755 
L 690.495242 -82.4755 
L 694.221763 -82.4755 
L 697.948284 -82.4755 
L 701.674806 -82.4755 
L 705.401327 -82.4755 
L 709.127849 -82.4755 
L 712.85437 -82.4755 
L 716.580891 -82.4755 
L 720.307413 -82.4755 
L 724.033934 -82.4755 
L 727.760456 -82.4755 
L 731.486977 -82.4755 
L 735.213498 -82.4755 
L 738.94002 -82.4755 
L 742.666541 -82.4755 
L 746.393063 -82.4755 
L 750.119584 -82.4755 
L 753.846106 -82.4755 
L 757.572627 -82.4755 
L 761.299148 -82.4755 
L 765.02567 -82.4755 
L 768.752191 -82.4755 
L 772.478713 -82.4755 
L 776.205234 -82.4755 
L 779.931755 -82.4755 
L 783.658277 -82.4755 
L 787.384798 -82.4755 
L 791.11132 -82.4755 
L 794.837841 -82.4755 
L 798.564363 -82.4755 
L 802.290884 -82.4755 
L 806.017405 -82.4755 
L 809.743927 -82.4755 
L 813.470448 -82.4755 
L 817.19697 -82.4755 
L 820.923491 -82.4755 
L 824.650012 -82.4755 
L 828.376534 -82.4755 
L 832.103055 -82.4755 
L 835.829577 -82.4755 
L 839.556098 -82.4755 
L 843.282619 -82.4755 
L 847.009141 -82.4755 
L 850.735662 -82.4755 
L 854.462184 -82.4755 
L 858.188705 -82.4755 
L 861.915227 -82.4755 
L 865.641748 -82.4755 
L 869.368269 -82.4755 
L 873.094791 -82.4755 
L 876.821312 -82.4755 
L 880.547834 -82.4755 
L 884.274355 -82.4755 
L 888.000876 -82.4755 
L 891.727398 -82.4755 
L 895.453919 -82.4755 
L 899.180441 -82.4755 
L 902.906962 -82.4755 
L 906.633483 -82.4755 
L 910.360005 -82.4755 
L 914.086526 -82.4755 
L 917.813048 -82.4755 
L 921.539569 -82.4755 
L 925.266091 -82.4755 
L 928.992612 -82.4755 
L 932.719133 -82.4755 
L 936.445655 -82.4755 
L 940.172176 -82.4755 
L 943.898698 -82.4755 
L 947.625219 -485.6755 
L 947.625219 -485.6755 
L 947.625219 -485.6755 
L 943.898698 -485.6755 
L 940.172176 -485.6755 
L 936.445655 -485.6755 
L 932.719133 -485.6755 
L 928.992612 -485.6755 
L 925.266091 -485.6755 
L 921.539569 -485.6755 
L 917.813048 -485.6755 
L 914.086526 -485.6755 
L 910.360005 -485.6755 
L 906.633483 -485.6755 
L 902.906962 -485.6755 
L 899.180441 -485.6755 
L 895.453919 -485.6755 
L 891.727398 -485.6755 
L 888.000876 -485.6755 
L 884.274355 -485.6755 
L 880.547834 -485.6755 
L 876.821312 -485.6755 
L 873.094791 -485.6755 
L 869.368269 -485.6755 
L 865.641748 -485.6755 
L 861.915227 -485.6755 
L 858.188705 -485.6755 
L 854.462184 -485.6755 
L 850.735662 -485.6755 
L 847.009141 -485.6755 
L 843.282619 -485.6755 
L 839.556098 -485.6755 
L 835.829577 -485.6755 
L 832.103055 -485.6755 
L 828.376534 -485.6755 
L 824.650012 -485.6755 
L 820.923491 -485.6755 
L 817.19697 -485.6755 
L 813.470448 -485.6755 
L 809.743927 -485.6755 
L 806.017405 -485.6755 
L 802.290884 -485.6755 
L 798.564363 -485.6755 
L 794.837841 -485.6755 
L 791.11132 -485.6755 
L 787.384798 -485.6755 
L 783.658277 -485.6755 
L 779.931755 -485.6755 
L 776.205234 -485.6755 
L 772.478713 -485.6755 
L 768.752191 -485.6755 
L 765.02567 -485.6755 
L 761.299148 -485.6755 
L 757.572627 -485.6755 
L 753.846106 -485.6755 
L 750.119584 -485.6755 
L 746.393063 -485.6755 
L 742.666541 -485.6755 
L 738.94002 -485.6755 
L 735.213498 -485.6755 
L 731.486977 -485.6755 
L 727.760456 -485.6755 
L 724.033934 -485.6755 
L 720.307413 -485.6755 
L 716.580891 -485.6755 
L 712.85437 -485.6755 
L 709.127849 -485.6755 
L 705.401327 -485.6755 
L 701.674806 -485.6755 
L 697.948284 -485.6755 
L 694.221763 -485.6755 
L 690.495242 -485.6755 
L 686.76872 -485.6755 
L 683.042199 -485.6755 
L 679.315677 -485.6755 
L 675.589156 -485.6755 
L 671.862634 -485.6755 
L 668.136113 -485.6755 
L 664.409592 -485.6755 
L 660.68307 -485.6755 
L 656.956549 -485.6755 
L 653.230027 -485.6755 
L 649.503506 -485.6755 
L 645.776985 -485.6755 
L 642.050463 -485.6755 
L 638.323942 -485.6755 
L 634.59742 -485.6755 
L 630.870899 -485.6755 
L 627.144378 -485.6755 
L 623.417856 -485.6755 
L 619.691335 -485.6755 
L 615.964813 -485.6755 
L 612.238292 -485.6755 
L 608.51177 -485.6755 
L 604.785249 -485.6755 
L 601.058728 -485.6755 
L 597.332206 -485.6755 
L 593.605685 -485.6755 
L 589.879163 -485.6755 
L 586.152642 -485.6755 
L 582.426121 -485.6755 
L 578.699599 -82.4755 
z
" style="stroke: #008000; stroke-opacity: 0.2; stroke-width: 2"/>
    </defs>
    <g clip-path="url(#p605fbc388c)">
     <use xlink:href="#m00a217d44f" x="0" y="533.6245" style="fill: #008000; fill-opacity: 0.2; stroke: #008000; stroke-opacity: 0.2; stroke-width: 2"/>
    </g>
   </g>
   <g id="matplotlib.axis_3">
    <g id="xtick_7">
     <g id="line2d_20">
      <g>
       <use xlink:href="#m502fad9d3d" x="578.699599" y="471.309" style="stroke: #000000; stroke-width: 2.5"/>
      </g>
     </g>
     <g id="text_19">
      <!-- 0.0 -->
      <g transform="translate(564.704849 500.18225) scale(0.176 -0.176)">
       <use xlink:href="#DejaVuSans-30"/>
       <use xlink:href="#DejaVuSans-2e" x="63.623047"/>
       <use xlink:href="#DejaVuSans-30" x="95.410156"/>
      </g>
     </g>
    </g>
    <g id="xtick_8">
     <g id="line2d_21">
      <g>
       <use xlink:href="#m502fad9d3d" x="652.484723" y="471.309" style="stroke: #000000; stroke-width: 2.5"/>
      </g>
     </g>
     <g id="text_20">
      <!-- 0.2 -->
      <g transform="translate(638.489973 500.18225) scale(0.176 -0.176)">
       <use xlink:href="#DejaVuSans-30"/>
       <use xlink:href="#DejaVuSans-2e" x="63.623047"/>
       <use xlink:href="#DejaVuSans-32" x="95.410156"/>
      </g>
     </g>
    </g>
    <g id="xtick_9">
     <g id="line2d_22">
      <g>
       <use xlink:href="#m502fad9d3d" x="726.269847" y="471.309" style="stroke: #000000; stroke-width: 2.5"/>
      </g>
     </g>
     <g id="text_21">
      <!-- 0.4 -->
      <g transform="translate(712.275097 500.18225) scale(0.176 -0.176)">
       <use xlink:href="#DejaVuSans-30"/>
       <use xlink:href="#DejaVuSans-2e" x="63.623047"/>
       <use xlink:href="#DejaVuSans-34" x="95.410156"/>
      </g>
     </g>
    </g>
    <g id="xtick_10">
     <g id="line2d_23">
      <g>
       <use xlink:href="#m502fad9d3d" x="800.054971" y="471.309" style="stroke: #000000; stroke-width: 2.5"/>
      </g>
     </g>
     <g id="text_22">
      <!-- 0.6 -->
      <g transform="translate(786.060221 500.18225) scale(0.176 -0.176)">
       <use xlink:href="#DejaVuSans-30"/>
       <use xlink:href="#DejaVuSans-2e" x="63.623047"/>
       <use xlink:href="#DejaVuSans-36" x="95.410156"/>
      </g>
     </g>
    </g>
    <g id="xtick_11">
     <g id="line2d_24">
      <g>
       <use xlink:href="#m502fad9d3d" x="873.840095" y="471.309" style="stroke: #000000; stroke-width: 2.5"/>
      </g>
     </g>
     <g id="text_23">
      <!-- 0.8 -->
      <g transform="translate(859.845345 500.18225) scale(0.176 -0.176)">
       <use xlink:href="#DejaVuSans-30"/>
       <use xlink:href="#DejaVuSans-2e" x="63.623047"/>
       <use xlink:href="#DejaVuSans-38" x="95.410156"/>
      </g>
     </g>
    </g>
    <g id="xtick_12">
     <g id="line2d_25">
      <g>
       <use xlink:href="#m502fad9d3d" x="947.625219" y="471.309" style="stroke: #000000; stroke-width: 2.5"/>
      </g>
     </g>
     <g id="text_24">
      <!-- 1.0 -->
      <g transform="translate(933.630469 500.18225) scale(0.176 -0.176)">
       <use xlink:href="#DejaVuSans-31"/>
       <use xlink:href="#DejaVuSans-2e" x="63.623047"/>
       <use xlink:href="#DejaVuSans-30" x="95.410156"/>
      </g>
     </g>
    </g>
    <g id="text_25">
     <!-- False Positive Rate -->
     <g transform="translate(673.946909 522.4315) scale(0.192 -0.192)">
      <use xlink:href="#DejaVuSans-46"/>
      <use xlink:href="#DejaVuSans-61" x="48.394531"/>
      <use xlink:href="#DejaVuSans-6c" x="109.673828"/>
      <use xlink:href="#DejaVuSans-73" x="137.457031"/>
      <use xlink:href="#DejaVuSans-65" x="189.556641"/>
      <use xlink:href="#DejaVuSans-20" x="251.080078"/>
      <use xlink:href="#DejaVuSans-50" x="282.867188"/>
      <use xlink:href="#DejaVuSans-6f" x="339.544922"/>
      <use xlink:href="#DejaVuSans-73" x="400.726562"/>
      <use xlink:href="#DejaVuSans-69" x="452.826172"/>
      <use xlink:href="#DejaVuSans-74" x="480.609375"/>
      <use xlink:href="#DejaVuSans-69" x="519.818359"/>
      <use xlink:href="#DejaVuSans-76" x="547.601562"/>
      <use xlink:href="#DejaVuSans-65" x="606.78125"/>
      <use xlink:href="#DejaVuSans-20" x="668.304688"/>
      <use xlink:href="#DejaVuSans-52" x="700.091797"/>
      <use xlink:href="#DejaVuSans-61" x="767.324219"/>
      <use xlink:href="#DejaVuSans-74" x="828.603516"/>
      <use xlink:href="#DejaVuSans-65" x="867.8125"/>
     </g>
    </g>
   </g>
   <g id="matplotlib.axis_4">
    <g id="ytick_7">
     <g id="line2d_26">
      <g>
       <use xlink:href="#m610598b9d5" x="560.253318" y="451.149" style="stroke: #000000; stroke-width: 2.5"/>
      </g>
     </g>
     <g id="text_26">
      <!-- 0.0 -->
      <g transform="translate(516.763818 457.835625) scale(0.176 -0.176)">
       <use xlink:href="#DejaVuSans-30"/>
       <use xlink:href="#DejaVuSans-2e" x="63.623047"/>
       <use xlink:href="#DejaVuSans-30" x="95.410156"/>
      </g>
     </g>
    </g>
    <g id="ytick_8">
     <g id="line2d_27">
      <g>
       <use xlink:href="#m610598b9d5" x="560.253318" y="370.509" style="stroke: #000000; stroke-width: 2.5"/>
      </g>
     </g>
     <g id="text_27">
      <!-- 0.2 -->
      <g transform="translate(516.763818 377.195625) scale(0.176 -0.176)">
       <use xlink:href="#DejaVuSans-30"/>
       <use xlink:href="#DejaVuSans-2e" x="63.623047"/>
       <use xlink:href="#DejaVuSans-32" x="95.410156"/>
      </g>
     </g>
    </g>
    <g id="ytick_9">
     <g id="line2d_28">
      <g>
       <use xlink:href="#m610598b9d5" x="560.253318" y="289.869" style="stroke: #000000; stroke-width: 2.5"/>
      </g>
     </g>
     <g id="text_28">
      <!-- 0.4 -->
      <g transform="translate(516.763818 296.555625) scale(0.176 -0.176)">
       <use xlink:href="#DejaVuSans-30"/>
       <use xlink:href="#DejaVuSans-2e" x="63.623047"/>
       <use xlink:href="#DejaVuSans-34" x="95.410156"/>
      </g>
     </g>
    </g>
    <g id="ytick_10">
     <g id="line2d_29">
      <g>
       <use xlink:href="#m610598b9d5" x="560.253318" y="209.229" style="stroke: #000000; stroke-width: 2.5"/>
      </g>
     </g>
     <g id="text_29">
      <!-- 0.6 -->
      <g transform="translate(516.763818 215.915625) scale(0.176 -0.176)">
       <use xlink:href="#DejaVuSans-30"/>
       <use xlink:href="#DejaVuSans-2e" x="63.623047"/>
       <use xlink:href="#DejaVuSans-36" x="95.410156"/>
      </g>
     </g>
    </g>
    <g id="ytick_11">
     <g id="line2d_30">
      <g>
       <use xlink:href="#m610598b9d5" x="560.253318" y="128.589" style="stroke: #000000; stroke-width: 2.5"/>
      </g>
     </g>
     <g id="text_30">
      <!-- 0.8 -->
      <g transform="translate(516.763818 135.275625) scale(0.176 -0.176)">
       <use xlink:href="#DejaVuSans-30"/>
       <use xlink:href="#DejaVuSans-2e" x="63.623047"/>
       <use xlink:href="#DejaVuSans-38" x="95.410156"/>
      </g>
     </g>
    </g>
    <g id="ytick_12">
     <g id="line2d_31">
      <g>
       <use xlink:href="#m610598b9d5" x="560.253318" y="47.949" style="stroke: #000000; stroke-width: 2.5"/>
      </g>
     </g>
     <g id="text_31">
      <!-- 1.0 -->
      <g transform="translate(516.763818 54.635625) scale(0.176 -0.176)">
       <use xlink:href="#DejaVuSans-31"/>
       <use xlink:href="#DejaVuSans-2e" x="63.623047"/>
       <use xlink:href="#DejaVuSans-30" x="95.410156"/>
      </g>
     </g>
    </g>
    <g id="text_32">
     <!-- True Positive Rate -->
     <g transform="translate(508.770818 335.046) rotate(-90) scale(0.192 -0.192)">
      <use xlink:href="#DejaVuSans-54"/>
      <use xlink:href="#DejaVuSans-72" x="46.333984"/>
      <use xlink:href="#DejaVuSans-75" x="87.447266"/>
      <use xlink:href="#DejaVuSans-65" x="150.826172"/>
      <use xlink:href="#DejaVuSans-20" x="212.349609"/>
      <use xlink:href="#DejaVuSans-50" x="244.136719"/>
      <use xlink:href="#DejaVuSans-6f" x="300.814453"/>
      <use xlink:href="#DejaVuSans-73" x="361.996094"/>
      <use xlink:href="#DejaVuSans-69" x="414.095703"/>
      <use xlink:href="#DejaVuSans-74" x="441.878906"/>
      <use xlink:href="#DejaVuSans-69" x="481.087891"/>
      <use xlink:href="#DejaVuSans-76" x="508.871094"/>
      <use xlink:href="#DejaVuSans-65" x="568.050781"/>
      <use xlink:href="#DejaVuSans-20" x="629.574219"/>
      <use xlink:href="#DejaVuSans-52" x="661.361328"/>
      <use xlink:href="#DejaVuSans-61" x="728.59375"/>
      <use xlink:href="#DejaVuSans-74" x="789.873047"/>
      <use xlink:href="#DejaVuSans-65" x="829.082031"/>
     </g>
    </g>
   </g>
   <g id="line2d_32">
    <path d="M 578.699599 451.149 
L 582.426121 183.021 
L 586.152642 183.021 
L 589.879163 183.021 
L 593.605685 183.021 
L 597.332206 183.021 
L 601.058728 183.021 
L 604.785249 183.021 
L 608.51177 183.021 
L 612.238292 183.021 
L 615.964813 183.021 
L 619.691335 183.021 
L 623.417856 183.021 
L 627.144378 183.021 
L 630.870899 183.021 
L 634.59742 183.021 
L 638.323942 183.021 
L 642.050463 183.021 
L 645.776985 183.021 
L 649.503506 183.021 
L 653.230027 183.021 
L 656.956549 183.021 
L 660.68307 183.021 
L 664.409592 183.021 
L 668.136113 183.021 
L 671.862634 183.021 
L 675.589156 183.021 
L 679.315677 183.021 
L 683.042199 183.021 
L 686.76872 183.021 
L 690.495242 183.021 
L 694.221763 183.021 
L 697.948284 183.021 
L 701.674806 172.941 
L 705.401327 172.941 
L 709.127849 172.941 
L 712.85437 172.941 
L 716.580891 172.941 
L 720.307413 172.941 
L 724.033934 172.941 
L 727.760456 172.941 
L 731.486977 172.941 
L 735.213498 172.941 
L 738.94002 172.941 
L 742.666541 172.941 
L 746.393063 172.941 
L 750.119584 172.941 
L 753.846106 172.941 
L 757.572627 172.941 
L 761.299148 172.941 
L 765.02567 164.877 
L 768.752191 164.877 
L 772.478713 164.877 
L 776.205234 164.877 
L 779.931755 164.877 
L 783.658277 164.877 
L 787.384798 164.877 
L 791.11132 164.877 
L 794.837841 164.877 
L 798.564363 164.877 
L 802.290884 164.877 
L 806.017405 164.877 
L 809.743927 164.877 
L 813.470448 164.877 
L 817.19697 164.877 
L 820.923491 164.877 
L 824.650012 124.557 
L 828.376534 124.557 
L 832.103055 124.557 
L 835.829577 124.557 
L 839.556098 124.557 
L 843.282619 124.557 
L 847.009141 124.557 
L 850.735662 124.557 
L 854.462184 124.557 
L 858.188705 124.557 
L 861.915227 124.557 
L 865.641748 124.557 
L 869.368269 124.557 
L 873.094791 124.557 
L 876.821312 124.557 
L 880.547834 124.557 
L 884.274355 124.557 
L 888.000876 124.557 
L 891.727398 124.557 
L 895.453919 124.557 
L 899.180441 124.557 
L 902.906962 124.557 
L 906.633483 124.557 
L 910.360005 124.557 
L 914.086526 124.557 
L 917.813048 124.557 
L 921.539569 124.557 
L 925.266091 124.557 
L 928.992612 124.557 
L 932.719133 124.557 
L 936.445655 124.557 
L 940.172176 124.557 
L 943.898698 124.557 
L 947.625219 47.949 
" clip-path="url(#p605fbc388c)" style="fill: none; stroke: #ffa500; stroke-width: 3; stroke-linecap: square"/>
   </g>
   <g id="line2d_33">
    <path d="M 578.699599 451.149 
L 582.426121 303.003545 
L 586.152642 302.026091 
L 589.879163 301.048636 
L 593.605685 300.071182 
L 597.332206 299.093727 
L 601.058728 298.116273 
L 604.785249 297.138818 
L 608.51177 296.161364 
L 612.238292 295.183909 
L 615.964813 294.206455 
L 619.691335 293.229 
L 623.417856 292.251545 
L 627.144378 291.274091 
L 630.870899 290.296636 
L 634.59742 289.319182 
L 638.323942 288.341727 
L 642.050463 287.364273 
L 645.776985 286.386818 
L 649.503506 285.409364 
L 653.230027 284.431909 
L 656.956549 283.454455 
L 660.68307 282.477 
L 664.409592 281.499545 
L 668.136113 280.522091 
L 671.862634 279.544636 
L 675.589156 278.567182 
L 679.315677 277.589727 
L 683.042199 276.612273 
L 686.76872 275.634818 
L 690.495242 274.657364 
L 694.221763 273.679909 
L 697.948284 272.702455 
L 701.674806 211.245 
L 705.401327 209.962091 
L 709.127849 208.679182 
L 712.85437 207.396273 
L 716.580891 206.113364 
L 720.307413 204.830455 
L 724.033934 203.547545 
L 727.760456 202.264636 
L 731.486977 200.981727 
L 735.213498 199.698818 
L 738.94002 198.415909 
L 742.666541 197.133 
L 746.393063 195.850091 
L 750.119584 194.567182 
L 753.846106 193.284273 
L 757.572627 192.001364 
L 761.299148 190.718455 
L 765.02567 141.377364 
L 768.752191 140.746091 
L 772.478713 140.114818 
L 776.205234 139.483545 
L 779.931755 138.852273 
L 783.658277 138.221 
L 787.384798 137.589727 
L 791.11132 136.958455 
L 794.837841 136.327182 
L 798.564363 135.695909 
L 802.290884 135.064636 
L 806.017405 134.433364 
L 809.743927 133.802091 
L 813.470448 133.170818 
L 817.19697 132.539545 
L 820.923491 131.908273 
L 824.650012 111.117 
L 828.376534 110.791182 
L 832.103055 110.465364 
L 835.829577 110.139545 
L 839.556098 109.813727 
L 843.282619 109.487909 
L 847.009141 109.162091 
L 850.735662 108.836273 
L 854.462184 108.510455 
L 858.188705 108.184636 
L 861.915227 107.858818 
L 865.641748 107.533 
L 869.368269 107.207182 
L 873.094791 106.881364 
L 876.821312 106.555545 
L 880.547834 106.229727 
L 884.274355 105.903909 
L 888.000876 105.578091 
L 891.727398 105.252273 
L 895.453919 104.926455 
L 899.180441 104.600636 
L 902.906962 104.274818 
L 906.633483 103.949 
L 910.360005 103.623182 
L 914.086526 103.297364 
L 917.813048 102.971545 
L 921.539569 102.645727 
L 925.266091 102.319909 
L 928.992612 101.994091 
L 932.719133 101.668273 
L 936.445655 101.342455 
L 940.172176 101.016636 
L 943.898698 100.690818 
L 947.625219 47.949 
" clip-path="url(#p605fbc388c)" style="fill: none; stroke: #0000ff; stroke-width: 3; stroke-linecap: square"/>
   </g>
   <g id="line2d_34">
    <path d="M 578.699599 451.149 
L 582.426121 261.645 
L 586.152642 261.645 
L 589.879163 261.645 
L 593.605685 261.645 
L 597.332206 261.645 
L 601.058728 261.645 
L 604.785249 261.645 
L 608.51177 261.645 
L 612.238292 261.645 
L 615.964813 261.645 
L 619.691335 261.645 
L 623.417856 261.645 
L 627.144378 261.645 
L 630.870899 261.645 
L 634.59742 261.645 
L 638.323942 261.645 
L 642.050463 261.645 
L 645.776985 261.645 
L 649.503506 261.645 
L 653.230027 261.645 
L 656.956549 261.645 
L 660.68307 261.645 
L 664.409592 261.645 
L 668.136113 261.645 
L 671.862634 261.645 
L 675.589156 261.645 
L 679.315677 261.645 
L 683.042199 261.645 
L 686.76872 261.645 
L 690.495242 261.645 
L 694.221763 261.645 
L 697.948284 261.645 
L 701.674806 241.485 
L 705.401327 241.485 
L 709.127849 241.485 
L 712.85437 241.485 
L 716.580891 241.485 
L 720.307413 241.485 
L 724.033934 241.485 
L 727.760456 241.485 
L 731.486977 241.485 
L 735.213498 241.485 
L 738.94002 241.485 
L 742.666541 241.485 
L 746.393063 241.485 
L 750.119584 241.485 
L 753.846106 241.485 
L 757.572627 241.485 
L 761.299148 241.485 
L 765.02567 217.293 
L 768.752191 217.293 
L 772.478713 217.293 
L 776.205234 217.293 
L 779.931755 217.293 
L 783.658277 217.293 
L 787.384798 217.293 
L 791.11132 217.293 
L 794.837841 217.293 
L 798.564363 217.293 
L 802.290884 217.293 
L 806.017405 217.293 
L 809.743927 217.293 
L 813.470448 217.293 
L 817.19697 217.293 
L 820.923491 217.293 
L 824.650012 176.973 
L 828.376534 176.973 
L 832.103055 176.973 
L 835.829577 176.973 
L 839.556098 176.973 
L 843.282619 176.973 
L 847.009141 176.973 
L 850.735662 176.973 
L 854.462184 176.973 
L 858.188705 176.973 
L 861.915227 176.973 
L 865.641748 176.973 
L 869.368269 176.973 
L 873.094791 176.973 
L 876.821312 176.973 
L 880.547834 176.973 
L 884.274355 176.973 
L 888.000876 176.973 
L 891.727398 176.973 
L 895.453919 176.973 
L 899.180441 176.973 
L 902.906962 176.973 
L 906.633483 176.973 
L 910.360005 176.973 
L 914.086526 176.973 
L 917.813048 176.973 
L 921.539569 176.973 
L 925.266091 176.973 
L 928.992612 176.973 
L 932.719133 176.973 
L 936.445655 176.973 
L 940.172176 176.973 
L 943.898698 176.973 
L 947.625219 47.949 
" clip-path="url(#p605fbc388c)" style="fill: none; stroke: #008000; stroke-width: 3; stroke-linecap: square"/>
   </g>
   <g id="line2d_35">
    <path d="M 578.699599 451.149 
L 947.625219 47.949 
" clip-path="url(#p605fbc388c)" style="fill: none; stroke-dasharray: 11.1,4.8; stroke-dashoffset: 0; stroke: #000000; stroke-opacity: 0.5; stroke-width: 3"/>
   </g>
   <g id="patch_9">
    <path d="M 560.253318 471.309 
L 560.253318 27.789 
" style="fill: none; stroke: #000000; stroke-width: 2.5; stroke-linejoin: miter; stroke-linecap: square"/>
   </g>
   <g id="patch_10">
    <path d="M 966.0715 471.309 
L 966.0715 27.789 
" style="fill: none; stroke: #000000; stroke-width: 2.5; stroke-linejoin: miter; stroke-linecap: square"/>
   </g>
   <g id="patch_11">
    <path d="M 560.253318 471.309 
L 966.0715 471.309 
" style="fill: none; stroke: #000000; stroke-width: 2.5; stroke-linejoin: miter; stroke-linecap: square"/>
   </g>
   <g id="patch_12">
    <path d="M 560.253318 27.789 
L 966.0715 27.789 
" style="fill: none; stroke: #000000; stroke-width: 2.5; stroke-linejoin: miter; stroke-linecap: square"/>
   </g>
   <g id="text_33">
    <!-- Approach OHE_DI_FI_LIVE_MONTH_36 -->
    <g transform="translate(581.950409 21.789) scale(0.192 -0.192)">
     <use xlink:href="#DejaVuSans-41"/>
     <use xlink:href="#DejaVuSans-70" x="68.408203"/>
     <use xlink:href="#DejaVuSans-70" x="131.884766"/>
     <use xlink:href="#DejaVuSans-72" x="195.361328"/>
     <use xlink:href="#DejaVuSans-6f" x="234.224609"/>
     <use xlink:href="#DejaVuSans-61" x="295.40625"/>
     <use xlink:href="#DejaVuSans-63" x="356.685547"/>
     <use xlink:href="#DejaVuSans-68" x="411.666016"/>
     <use xlink:href="#DejaVuSans-20" x="475.044922"/>
     <use xlink:href="#DejaVuSans-4f" x="506.832031"/>
     <use xlink:href="#DejaVuSans-48" x="585.542969"/>
     <use xlink:href="#DejaVuSans-45" x="660.738281"/>
     <use xlink:href="#DejaVuSans-5f" x="723.921875"/>
     <use xlink:href="#DejaVuSans-44" x="773.921875"/>
     <use xlink:href="#DejaVuSans-49" x="850.923828"/>
     <use xlink:href="#DejaVuSans-5f" x="880.416016"/>
     <use xlink:href="#DejaVuSans-46" x="930.416016"/>
     <use xlink:href="#DejaVuSans-49" x="987.935547"/>
     <use xlink:href="#DejaVuSans-5f" x="1017.427734"/>
     <use xlink:href="#DejaVuSans-4c" x="1067.427734"/>
     <use xlink:href="#DejaVuSans-49" x="1123.140625"/>
     <use xlink:href="#DejaVuSans-56" x="1152.632812"/>
     <use xlink:href="#DejaVuSans-45" x="1221.041016"/>
     <use xlink:href="#DejaVuSans-5f" x="1284.224609"/>
     <use xlink:href="#DejaVuSans-4d" x="1334.224609"/>
     <use xlink:href="#DejaVuSans-4f" x="1420.503906"/>
     <use xlink:href="#DejaVuSans-4e" x="1499.214844"/>
     <use xlink:href="#DejaVuSans-54" x="1574.019531"/>
     <use xlink:href="#DejaVuSans-48" x="1635.103516"/>
     <use xlink:href="#DejaVuSans-5f" x="1710.298828"/>
     <use xlink:href="#DejaVuSans-33" x="1760.298828"/>
     <use xlink:href="#DejaVuSans-36" x="1823.921875"/>
    </g>
   </g>
   <g id="legend_2">
    <g id="patch_13">
     <path d="M 572.573318 119.3695 
L 718.001568 119.3695 
Q 721.521568 119.3695 721.521568 115.8495 
L 721.521568 40.109 
Q 721.521568 36.589 718.001568 36.589 
L 572.573318 36.589 
Q 569.053318 36.589 569.053318 40.109 
L 569.053318 115.8495 
Q 569.053318 119.3695 572.573318 119.3695 
z
" style="fill: #ffffff; opacity: 0.8; stroke: #cccccc; stroke-width: 2; stroke-linejoin: miter"/>
    </g>
    <g id="line2d_36">
     <path d="M 576.093318 50.84225 
L 593.693318 50.84225 
L 611.293318 50.84225 
" style="fill: none; stroke: #ffa500; stroke-width: 3; stroke-linecap: square"/>
    </g>
    <g id="text_34">
     <!-- LR: 0.72 -->
     <g transform="translate(625.373318 57.00225) scale(0.176 -0.176)">
      <defs>
       <path id="DejaVuSans-37" d="M 525 4666 
L 3525 4666 
L 3525 4397 
L 1831 0 
L 1172 0 
L 2766 4134 
L 525 4134 
L 525 4666 
z
" transform="scale(0.015625)"/>
      </defs>
      <use xlink:href="#DejaVuSans-4c"/>
      <use xlink:href="#DejaVuSans-52" x="55.712891"/>
      <use xlink:href="#DejaVuSans-3a" x="122.070312"/>
      <use xlink:href="#DejaVuSans-20" x="155.761719"/>
      <use xlink:href="#DejaVuSans-30" x="187.548828"/>
      <use xlink:href="#DejaVuSans-2e" x="251.171875"/>
      <use xlink:href="#DejaVuSans-37" x="282.958984"/>
      <use xlink:href="#DejaVuSans-32" x="346.582031"/>
     </g>
    </g>
    <g id="line2d_37">
     <path d="M 576.093318 76.67575 
L 593.693318 76.67575 
L 611.293318 76.67575 
" style="fill: none; stroke: #0000ff; stroke-width: 3; stroke-linecap: square"/>
    </g>
    <g id="text_35">
     <!-- RF: 0.65 -->
     <g transform="translate(625.373318 82.83575) scale(0.176 -0.176)">
      <use xlink:href="#DejaVuSans-52"/>
      <use xlink:href="#DejaVuSans-46" x="69.482422"/>
      <use xlink:href="#DejaVuSans-3a" x="119.251953"/>
      <use xlink:href="#DejaVuSans-20" x="152.943359"/>
      <use xlink:href="#DejaVuSans-30" x="184.730469"/>
      <use xlink:href="#DejaVuSans-2e" x="248.353516"/>
      <use xlink:href="#DejaVuSans-36" x="280.140625"/>
      <use xlink:href="#DejaVuSans-35" x="343.763672"/>
     </g>
    </g>
    <g id="line2d_38">
     <path d="M 576.093318 102.50925 
L 593.693318 102.50925 
L 611.293318 102.50925 
" style="fill: none; stroke: #008000; stroke-width: 3; stroke-linecap: square"/>
    </g>
    <g id="text_36">
     <!-- SVM: 0.57 -->
     <g transform="translate(625.373318 108.66925) scale(0.176 -0.176)">
      <use xlink:href="#DejaVuSans-53"/>
      <use xlink:href="#DejaVuSans-56" x="63.476562"/>
      <use xlink:href="#DejaVuSans-4d" x="131.884766"/>
      <use xlink:href="#DejaVuSans-3a" x="218.164062"/>
      <use xlink:href="#DejaVuSans-20" x="251.855469"/>
      <use xlink:href="#DejaVuSans-30" x="283.642578"/>
      <use xlink:href="#DejaVuSans-2e" x="347.265625"/>
      <use xlink:href="#DejaVuSans-35" x="379.052734"/>
      <use xlink:href="#DejaVuSans-37" x="442.675781"/>
     </g>
    </g>
   </g>
  </g>
 </g>
 <defs>
  <clipPath id="pfc3e438973">
   <rect x="73.2715" y="27.789" width="405.818182" height="443.52"/>
  </clipPath>
  <clipPath id="p605fbc388c">
   <rect x="560.253318" y="27.789" width="405.818182" height="443.52"/>
  </clipPath>
 </defs>
</svg>
